<?xml version="1.0" encoding="UTF-8"?>
<svg id="Layer_2" data-name="Layer 2" xmlns="http://www.w3.org/2000/svg" viewBox="0 0 800.7 81.8">
  <defs>
    <style>
      .cls-1 {
        fill: #876875;
      }

      .cls-1, .cls-2, .cls-3, .cls-4, .cls-5, .cls-6, .cls-7, .cls-8 {
        stroke-width: 0px;
      }

      .cls-2 {
        fill: #3a5fa0;
      }

      .cls-3 {
        fill: #c57543;
      }

      .cls-4 {
        fill: #58595b;
      }

      .cls-5 {
        fill: #d74a2a;
      }

      .cls-6 {
        fill: #a76e5e;
      }

      .cls-7 {
        fill: #68638a;
      }

      .cls-8 {
        fill: #fff;
      }
    </style>
  </defs>
  <g id="Layer_1-2" data-name="Layer 1">
    <g>
      <g>
        <g>
          <rect class="cls-5" y="1.3" width="80.1" height="80.1"/>
          <path class="cls-8" d="M61.4,17.5v28.1c0,6.3-1.9,11.4-5.6,15.2-3.7,3.8-9,5.7-15.7,5.7s-12-1.9-15.8-5.7c-3.7-3.8-5.6-8.9-5.6-15.2v-28.1h11.5v27.9c0,3.2.8,5.8,2.5,7.7,1.7,2,4.1,3,7.3,3s5.6-1,7.3-3c1.7-2,2.5-4.5,2.5-7.7v-27.9h11.5Z"/>
          <rect class="cls-5" x="88.2" y="1.3" width="80.1" height="80.1"/>
          <rect class="cls-5" x="176.4" y="1.3" width="80.1" height="80.1"/>
          <rect class="cls-5" x="264.5" y="1.3" width="80.1" height="80.1"/>
          <polygon class="cls-8" points="153.8 17.3 153.8 65.4 142.4 65.4 142.4 37.2 128.3 56.5 114.2 37.2 114.2 65.4 102.8 65.4 102.8 17.3 113.6 17.3 128.3 38.7 142.9 17.3 153.8 17.3"/>
          <path class="cls-8" d="M221.8,54.4c1.3-1.3,2-3,2-5.1s-.7-3.7-2-5c-1.3-1.4-3.1-2-5.4-2s-4,.7-5.3,2c-1.4,1.3-2.1,3-2.1,5.1s.7,3.8,2,5.1c1.4,1.3,3.2,2,5.4,2s4-.7,5.4-2M230.4,37.5c3.2,3.1,4.8,7,4.8,11.7s-1.8,9.1-5.3,12.4-8,4.9-13.4,4.9-9.8-1.6-13.4-4.9c-3.6-3.3-5.4-7.4-5.4-12.4s1.1-6.6,3.4-10.2l13.6-21.6h12.8l-9.4,14.9c5,.4,9.1,2.1,12.2,5.2"/>
          <path class="cls-8" d="M311.8,39.6c1.3-1.4,1.9-3.1,1.9-4.9s-.6-3.5-1.8-4.9c-1.2-1.4-2.8-2.1-4.6-2.1h-11.6v14.1h11.1c2,0,3.7-.7,5-2.1M320,22.6c3.2,3.5,4.8,7.5,4.8,12s-1.6,8.6-4.8,12.1c-3.2,3.5-7.5,5.3-12.9,5.3h-11.4v13.4h-11.3V17.3h23.1c5.1,0,9.3,1.8,12.5,5.3"/>
        </g>
        <rect class="cls-5" x="384.9" y="1.3" width="1" height="80.2"/>
      </g>
      <g>
        <polygon class="cls-2" points="426.5 81.4 426.5 33.9 439 33.9 439 62.4 469.2 81.4 426.5 81.4"/>
        <polygon class="cls-7" points="442.9 60.3 442.9 12.8 459.5 23.3 459.5 48.2 471 78 442.9 60.3"/>
        <polygon class="cls-1" points="474.8 77.4 463.4 47.5 463.4 0 474.9 30.1 474.8 77.4"/>
        <path class="cls-6" d="M477,78h0c3.3-20.9,10.5-41,21-59.3l7.8-13.4-5.1,31.8-23.7,40.9Z"/>
        <path class="cls-3" d="M478.6,79.6h0c13.3-16.4,29.6-30.3,47.9-40.9l13.4-7.8-20.3,25-41,23.6Z"/>
      </g>
      <g>
        <g>
          <path class="cls-4" d="M549.9,52.9h-2.7v-19.6h2.7v19.6Z"/>
          <path class="cls-4" d="M556.9,39.7c0,.3,0,.7,0,1.1,0,.4,0,.8,0,1h0c.2-.4.4-.7.7-1,.3-.3.6-.6,1-.8.4-.2.8-.4,1.2-.5.4-.1.9-.2,1.4-.2.8,0,1.6.1,2.2.4.6.3,1.1.7,1.5,1.2.4.5.7,1,.9,1.7.2.6.3,1.3.3,2.1v8.2h-2.6v-7.3c0-.5,0-1-.1-1.5,0-.5-.2-.9-.5-1.3-.2-.4-.5-.7-.9-.9s-.9-.3-1.5-.3c-1,0-1.9.4-2.5,1.2-.7.8-1,1.8-1,3.1v7h-2.6v-10.3c0-.4,0-.8,0-1.4,0-.6,0-1,0-1.5h2.5Z"/>
          <path class="cls-4" d="M577.8,43.1c-.3-.5-.7-.9-1.2-1.2-.5-.3-1.1-.5-1.8-.5s-.6,0-.9,0c-.3,0-.6.2-.8.3s-.4.3-.6.5c-.1.2-.2.5-.2.8,0,.6.2,1,.7,1.2.5.3,1.2.5,2.2.7.6.1,1.2.3,1.7.5.5.2,1,.5,1.4.8.4.3.7.7.9,1.1.2.4.3.9.3,1.5s-.1,1.4-.4,2c-.3.5-.7,1-1.2,1.3-.5.3-1,.6-1.7.7-.6.1-1.3.2-1.9.2-1,0-2-.2-2.9-.6-1-.4-1.7-1-2.4-1.8l1.9-1.6c.4.5.8,1,1.5,1.3.6.4,1.3.5,2,.5s.7,0,1,0c.3,0,.6-.2.8-.3s.4-.3.6-.6c.1-.2.2-.5.2-.9,0-.6-.3-1.1-.9-1.4-.6-.3-1.4-.6-2.6-.8-.4-.1-.9-.2-1.3-.4s-.9-.4-1.2-.7c-.4-.3-.7-.6-.9-1-.2-.4-.3-.9-.3-1.5s.1-1.3.4-1.8c.3-.5.7-.9,1.1-1.2.5-.3,1-.6,1.6-.7.6-.2,1.2-.2,1.8-.2.9,0,1.9.2,2.7.6.9.4,1.6.9,2,1.6l-1.8,1.5Z"/>
          <path class="cls-4" d="M589.4,41.9h-3.5v6.8c0,.8.1,1.4.4,1.7.3.3.8.5,1.4.5s.5,0,.8,0c.3,0,.5-.1.7-.2v2.1c-.2.1-.6.2-1,.3s-.8,0-1.2,0c-1.2,0-2.2-.3-2.8-1-.7-.7-1-1.7-1-3.1v-7.1h-2.5v-2.1h2.5v-3.8h2.6v3.8h3.5v2.1Z"/>
          <path class="cls-4" d="M595.1,35c0,.5-.2.9-.5,1.2-.3.3-.7.5-1.2.5s-.9-.2-1.2-.5c-.3-.3-.5-.7-.5-1.2s.2-.9.5-1.2c.3-.3.7-.5,1.2-.5s.9.2,1.2.5c.3.3.5.7.5,1.2ZM594.7,52.9h-2.6v-13.1h2.6v13.1Z"/>
          <path class="cls-4" d="M605.7,41.9h-3.5v6.8c0,.8.1,1.4.4,1.7.3.3.8.5,1.4.5s.5,0,.8,0c.3,0,.5-.1.7-.2v2.1c-.2.1-.6.2-1,.3s-.8,0-1.2,0c-1.2,0-2.2-.3-2.8-1-.7-.7-1-1.7-1-3.1v-7.1h-2.5v-2.1h2.5v-3.8h2.6v3.8h3.5v2.1Z"/>
          <path class="cls-4" d="M617.7,52.9c0-.3,0-.7,0-1.1,0-.4,0-.8,0-1h0c-.3.7-.9,1.3-1.7,1.8-.8.5-1.7.7-2.6.7s-1.6-.1-2.2-.4c-.6-.3-1.1-.7-1.5-1.2-.4-.5-.7-1.1-.9-1.7-.2-.6-.3-1.3-.3-2.1v-8.2h2.6v7.3c0,.5,0,1,.1,1.5,0,.5.2.9.5,1.3.2.4.5.7.9.9.4.2.9.3,1.5.3,1.1,0,1.9-.4,2.6-1.2.6-.8,1-1.8,1-3.1v-7h2.6v10.3c0,.4,0,.8,0,1.4,0,.6,0,1,0,1.5h-2.5Z"/>
          <path class="cls-4" d="M631,41.9h-3.5v6.8c0,.8.1,1.4.4,1.7.3.3.8.5,1.4.5s.5,0,.8,0c.3,0,.5-.1.7-.2v2.1c-.2.1-.6.2-1,.3s-.8,0-1.2,0c-1.2,0-2.2-.3-2.8-1-.7-.7-1-1.7-1-3.1v-7.1h-2.5v-2.1h2.5v-3.8h2.6v3.8h3.5v2.1Z"/>
          <path class="cls-4" d="M651.1,50.8c-.5.8-1.2,1.4-2,1.8-.9.4-1.8.6-2.7.6s-1.9-.2-2.7-.5c-.8-.4-1.5-.9-2.1-1.5-.6-.6-1-1.4-1.3-2.2-.3-.8-.5-1.8-.5-2.7s.2-1.9.5-2.7c.3-.8.8-1.6,1.3-2.2.6-.6,1.3-1.1,2.1-1.5.8-.4,1.7-.5,2.7-.5s2,.2,2.8.7c.8.5,1.4,1,1.9,1.7h0v-9.8h2.6v21h-2.5v-2.1h0ZM642.4,46.3c0,.6,0,1.2.3,1.8.2.6.5,1.1.8,1.5.4.4.8.8,1.4,1.1s1.2.4,1.9.4,1.3-.1,1.8-.4c.5-.3,1-.6,1.4-1,.4-.4.7-.9.9-1.5.2-.6.3-1.2.3-1.8s-.1-1.2-.3-1.8c-.2-.6-.5-1.1-.9-1.5-.4-.4-.9-.8-1.4-1.1-.5-.3-1.2-.4-1.8-.4s-1.3.1-1.9.4c-.5.3-1,.6-1.4,1.1-.4.4-.6.9-.8,1.5s-.3,1.2-.3,1.8Z"/>
          <path class="cls-4" d="M670.5,46.2v.4c0,.1,0,.3,0,.4h-10.5c0,.6.1,1.1.4,1.6s.5.9.9,1.3c.4.4.8.6,1.3.8.5.2,1,.3,1.6.3.9,0,1.7-.2,2.3-.6.6-.4,1.2-.9,1.5-1.4l1.8,1.5c-.7.9-1.5,1.6-2.5,2.1-1,.4-2,.7-3.2.7s-1.9-.2-2.8-.5c-.9-.3-1.6-.8-2.2-1.4-.6-.6-1.1-1.3-1.4-2.2-.4-.8-.5-1.8-.5-2.8s.2-2,.5-2.8c.3-.9.8-1.6,1.4-2.2.6-.6,1.3-1.1,2.2-1.4s1.7-.5,2.7-.5,1.8.2,2.6.5c.8.3,1.5.8,2,1.4.5.6,1,1.3,1.3,2.1.3.8.4,1.8.4,2.8ZM667.8,45.1c0-.5-.1-1-.3-1.5-.2-.5-.4-.8-.7-1.2s-.7-.6-1.1-.8c-.5-.2-1-.3-1.6-.3s-1.1,0-1.6.3c-.5.2-.9.5-1.3.8-.4.3-.7.7-.9,1.2-.2.5-.4.9-.4,1.5h7.8Z"/>
          <path class="cls-4" d="M681.2,43.1c-.3-.5-.7-.9-1.2-1.2-.5-.3-1.1-.5-1.8-.5s-.6,0-.9,0c-.3,0-.6.2-.8.3s-.4.3-.6.5c-.1.2-.2.5-.2.8,0,.6.2,1,.7,1.2.5.3,1.2.5,2.2.7.6.1,1.2.3,1.7.5.5.2,1,.5,1.4.8.4.3.7.7.9,1.1.2.4.3.9.3,1.5s-.1,1.4-.4,2c-.3.5-.7,1-1.2,1.3-.5.3-1,.6-1.7.7-.6.1-1.3.2-1.9.2-1,0-2-.2-2.9-.6-1-.4-1.7-1-2.4-1.8l1.9-1.6c.4.5.8,1,1.5,1.3.6.4,1.3.5,2,.5s.7,0,1,0c.3,0,.6-.2.8-.3s.4-.3.6-.6c.1-.2.2-.5.2-.9,0-.6-.3-1.1-.9-1.4-.6-.3-1.4-.6-2.6-.8-.4-.1-.9-.2-1.3-.4s-.9-.4-1.2-.7c-.4-.3-.7-.6-.9-1-.2-.4-.3-.9-.3-1.5s.1-1.3.4-1.8c.3-.5.7-.9,1.1-1.2.5-.3,1-.6,1.6-.7.6-.2,1.2-.2,1.8-.2.9,0,1.9.2,2.7.6.9.4,1.6.9,2,1.6l-1.8,1.5Z"/>
          <path class="cls-4" d="M703.2,36.9c-.4-.5-.9-1-1.6-1.3-.7-.3-1.4-.5-2.2-.5s-.9,0-1.3.2c-.5.1-.9.3-1.2.6-.4.3-.7.6-.9,1s-.3.9-.3,1.4.1,1,.3,1.3.5.7.9.9c.4.2.8.5,1.3.6.5.2,1,.4,1.6.5.7.2,1.3.4,2,.7.7.3,1.3.6,1.9,1,.6.4,1,1,1.4,1.6s.5,1.4.5,2.4-.2,1.9-.6,2.6c-.4.7-.9,1.4-1.5,1.9-.6.5-1.4.9-2.2,1.1s-1.7.4-2.5.4c-1.2,0-2.4-.2-3.6-.7s-2.1-1.2-2.9-2.1l2.1-1.8c.5.7,1.1,1.2,1.9,1.7.8.4,1.6.6,2.5.6s.9,0,1.4-.2.9-.3,1.3-.6c.4-.3.7-.6.9-1,.2-.4.4-.9.4-1.5s-.1-1.1-.4-1.5c-.2-.4-.6-.7-1-1-.4-.3-.9-.5-1.5-.7-.6-.2-1.2-.4-1.8-.6-.6-.2-1.2-.4-1.9-.7s-1.2-.6-1.6-1-.9-.9-1.2-1.5-.4-1.4-.4-2.3.2-1.8.6-2.5c.4-.7.9-1.3,1.6-1.7.6-.5,1.4-.8,2.2-1,.8-.2,1.6-.3,2.4-.3s2.2.2,3.2.6c1,.4,1.8,1,2.4,1.6l-1.9,1.9Z"/>
          <path class="cls-4" d="M718.3,43.1c-.3-.4-.7-.8-1.2-1.1-.6-.3-1.1-.4-1.8-.4s-1.3.1-1.8.4c-.5.3-1,.6-1.3,1-.4.4-.7.9-.8,1.5-.2.6-.3,1.2-.3,1.8s0,1.2.3,1.8c.2.6.5,1.1.8,1.5.4.4.8.8,1.4,1,.5.3,1.1.4,1.8.4s1.3-.1,1.8-.4c.5-.3,1-.6,1.3-1.1l1.7,1.6c-.6.6-1.2,1.2-2.1,1.5-.8.4-1.8.5-2.8.5s-2-.2-2.8-.5c-.9-.3-1.6-.8-2.2-1.4-.6-.6-1.1-1.3-1.5-2.2-.4-.8-.5-1.8-.5-2.9s.2-2,.5-2.8c.4-.8.8-1.6,1.5-2.2.6-.6,1.4-1.1,2.2-1.4.9-.3,1.8-.5,2.8-.5s1.8.2,2.8.6c.9.4,1.6.9,2.2,1.6l-1.9,1.5Z"/>
          <path class="cls-4" d="M725.9,35c0,.5-.2.9-.5,1.2-.3.3-.7.5-1.2.5s-.9-.2-1.2-.5c-.3-.3-.5-.7-.5-1.2s.2-.9.5-1.2c.3-.3.7-.5,1.2-.5s.9.2,1.2.5c.3.3.5.7.5,1.2ZM725.5,52.9h-2.6v-13.1h2.6v13.1Z"/>
          <path class="cls-4" d="M742.3,46.2v.4c0,.1,0,.3,0,.4h-10.5c0,.6.1,1.1.4,1.6s.5.9.9,1.3c.4.4.8.6,1.3.8.5.2,1,.3,1.6.3.9,0,1.7-.2,2.3-.6.6-.4,1.2-.9,1.5-1.4l1.8,1.5c-.7.9-1.5,1.6-2.5,2.1-1,.4-2,.7-3.2.7s-1.9-.2-2.8-.5c-.9-.3-1.6-.8-2.2-1.4-.6-.6-1.1-1.3-1.4-2.2-.4-.8-.5-1.8-.5-2.8s.2-2,.5-2.8c.3-.9.8-1.6,1.4-2.2.6-.6,1.3-1.1,2.2-1.4s1.7-.5,2.7-.5,1.8.2,2.6.5c.8.3,1.5.8,2,1.4.5.6,1,1.3,1.3,2.1.3.8.4,1.8.4,2.8ZM739.6,45.1c0-.5-.1-1-.3-1.5-.2-.5-.4-.8-.7-1.2s-.7-.6-1.1-.8c-.5-.2-1-.3-1.6-.3s-1.1,0-1.6.3c-.5.2-.9.5-1.3.8-.4.3-.7.7-.9,1.2-.2.5-.4.9-.4,1.5h7.8Z"/>
          <path class="cls-4" d="M748.3,39.7c0,.3,0,.7,0,1.1,0,.4,0,.8,0,1h0c.2-.4.4-.7.7-1,.3-.3.6-.6,1-.8.4-.2.8-.4,1.2-.5.4-.1.9-.2,1.4-.2.8,0,1.6.1,2.2.4.6.3,1.1.7,1.5,1.2.4.5.7,1,.9,1.7.2.6.3,1.3.3,2.1v8.2h-2.6v-7.3c0-.5,0-1-.1-1.5,0-.5-.2-.9-.5-1.3-.2-.4-.5-.7-.9-.9s-.9-.3-1.5-.3c-1,0-1.9.4-2.5,1.2s-1,1.8-1,3.1v7h-2.6v-10.3c0-.4,0-.8,0-1.4,0-.6,0-1,0-1.5h2.5Z"/>
          <path class="cls-4" d="M771.3,43.1c-.3-.4-.7-.8-1.2-1.1-.6-.3-1.1-.4-1.8-.4s-1.3.1-1.8.4c-.5.3-1,.6-1.3,1-.4.4-.7.9-.8,1.5-.2.6-.3,1.2-.3,1.8s0,1.2.3,1.8c.2.6.5,1.1.8,1.5.4.4.8.8,1.4,1,.5.3,1.1.4,1.8.4s1.3-.1,1.8-.4c.5-.3,1-.6,1.3-1.1l1.7,1.6c-.6.6-1.2,1.2-2.1,1.5-.8.4-1.8.5-2.8.5s-2-.2-2.8-.5c-.9-.3-1.6-.8-2.2-1.4-.6-.6-1.1-1.3-1.5-2.2-.4-.8-.5-1.8-.5-2.9s.2-2,.5-2.8c.4-.8.8-1.6,1.5-2.2.6-.6,1.4-1.1,2.2-1.4.9-.3,1.8-.5,2.8-.5s1.8.2,2.8.6c.9.4,1.6.9,2.2,1.6l-1.9,1.5Z"/>
          <path class="cls-4" d="M788,46.2v.4c0,.1,0,.3,0,.4h-10.5c0,.6.1,1.1.4,1.6s.5.9.9,1.3c.4.4.8.6,1.3.8.5.2,1,.3,1.6.3.9,0,1.7-.2,2.3-.6.6-.4,1.2-.9,1.5-1.4l1.8,1.5c-.7.9-1.5,1.6-2.5,2.1-1,.4-2,.7-3.2.7s-1.9-.2-2.8-.5c-.9-.3-1.6-.8-2.2-1.4-.6-.6-1.1-1.3-1.4-2.2-.4-.8-.5-1.8-.5-2.8s.2-2,.5-2.8c.3-.9.8-1.6,1.4-2.2.6-.6,1.3-1.1,2.2-1.4s1.7-.5,2.7-.5,1.8.2,2.6.5c.8.3,1.5.8,2,1.4.5.6,1,1.3,1.3,2.1.3.8.4,1.8.4,2.8ZM785.4,45.1c0-.5-.1-1-.3-1.5-.2-.5-.4-.8-.7-1.2s-.7-.6-1.1-.8c-.5-.2-1-.3-1.6-.3s-1.1,0-1.6.3c-.5.2-.9.5-1.3.8-.4.3-.7.7-.9,1.2-.2.5-.4.9-.4,1.5h7.8Z"/>
          <path class="cls-4" d="M798.7,43.1c-.3-.5-.7-.9-1.2-1.2-.5-.3-1.1-.5-1.8-.5s-.6,0-.9,0c-.3,0-.6.2-.8.3s-.4.3-.6.5c-.1.2-.2.5-.2.8,0,.6.2,1,.7,1.2.5.3,1.2.5,2.2.7.6.1,1.2.3,1.7.5.5.2,1,.5,1.4.8.4.3.7.7.9,1.1.2.4.3.9.3,1.5s-.1,1.4-.4,2c-.3.5-.7,1-1.2,1.3-.5.3-1,.6-1.7.7-.6.1-1.3.2-1.9.2-1,0-2-.2-2.9-.6-1-.4-1.7-1-2.4-1.8l1.9-1.6c.4.5.8,1,1.5,1.3.6.4,1.3.5,2,.5s.7,0,1,0c.3,0,.6-.2.8-.3s.4-.3.6-.6c.1-.2.2-.5.2-.9,0-.6-.3-1.1-.9-1.4-.6-.3-1.4-.6-2.6-.8-.4-.1-.9-.2-1.3-.4s-.9-.4-1.2-.7c-.4-.3-.7-.6-.9-1-.2-.4-.3-.9-.3-1.5s.1-1.3.4-1.8c.3-.5.7-.9,1.1-1.2.5-.3,1-.6,1.6-.7.6-.2,1.2-.2,1.8-.2.9,0,1.9.2,2.7.6.9.4,1.6.9,2,1.6l-1.8,1.5Z"/>
        </g>
        <g>
          <g>
            <path class="cls-4" d="M557.5,79.3c-.5.8-1.2,1.4-2,1.8-.9.4-1.8.6-2.7.6s-1.9-.2-2.7-.5c-.8-.4-1.5-.9-2.1-1.5-.6-.6-1-1.4-1.3-2.2-.3-.8-.5-1.8-.5-2.7s.2-1.9.5-2.7c.3-.8.8-1.6,1.3-2.2.6-.6,1.3-1.1,2.1-1.5.8-.4,1.7-.5,2.7-.5s2,.2,2.8.7c.8.5,1.4,1,1.9,1.7h0v-9.8h2.6v21h-2.5v-2.1h0ZM548.8,74.8c0,.6,0,1.2.3,1.8.2.6.5,1.1.8,1.5.4.4.8.8,1.4,1.1s1.2.4,1.9.4,1.3-.1,1.8-.4c.5-.3,1-.6,1.4-1,.4-.4.7-.9.9-1.5.2-.6.3-1.2.3-1.8s-.1-1.2-.3-1.8c-.2-.6-.5-1.1-.9-1.5-.4-.4-.9-.8-1.4-1.1-.5-.3-1.2-.4-1.8-.4s-1.3.1-1.9.4c-.5.3-1,.6-1.4,1.1-.4.4-.6.9-.8,1.5s-.3,1.2-.3,1.8Z"/>
            <path class="cls-4" d="M576.9,74.7v.4c0,.1,0,.3,0,.4h-10.5c0,.6.1,1.1.4,1.6s.5.9.9,1.3c.4.4.8.6,1.3.8.5.2,1,.3,1.6.3.9,0,1.7-.2,2.3-.6.6-.4,1.2-.9,1.5-1.4l1.8,1.5c-.7.9-1.5,1.6-2.5,2.1-1,.4-2,.7-3.2.7s-1.9-.2-2.8-.5c-.9-.3-1.6-.8-2.2-1.4-.6-.6-1.1-1.3-1.4-2.2-.4-.8-.5-1.8-.5-2.8s.2-2,.5-2.8c.3-.9.8-1.6,1.4-2.2.6-.6,1.3-1.1,2.2-1.4s1.7-.5,2.7-.5,1.8.2,2.6.5c.8.3,1.5.8,2,1.4.5.6,1,1.3,1.3,2.1.3.8.4,1.8.4,2.8ZM574.2,73.7c0-.5-.1-1-.3-1.5-.2-.5-.4-.8-.7-1.2s-.7-.6-1.1-.8c-.5-.2-1-.3-1.6-.3s-1.1,0-1.6.3c-.5.2-.9.5-1.3.8-.4.3-.7.7-.9,1.2-.2.5-.4.9-.4,1.5h7.8Z"/>
            <path class="cls-4" d="M590.1,81.4h-2.6v-21h2.6v21Z"/>
            <path class="cls-4" d="M595.8,68.7h-2.2l1.9-6.9h2.6l-2.3,6.9Z"/>
          </g>
          <g>
            <path class="cls-4" d="M604.4,79h10.3v2.4h-13v-19.6h12.6v2.4h-9.8v5.9h9.3v2.4h-9.3v6.5ZM608.6,60.2h-2.1l2.7-4h3.2l-3.8,4Z"/>
            <path class="cls-4" d="M628.6,79.3c-.5.8-1.2,1.4-2,1.8-.9.4-1.8.6-2.7.6s-1.9-.2-2.7-.5c-.8-.4-1.5-.9-2.1-1.5-.6-.6-1-1.4-1.3-2.2s-.5-1.8-.5-2.7.2-1.9.5-2.7.8-1.6,1.3-2.2,1.3-1.1,2.1-1.5,1.7-.5,2.7-.5,2,.2,2.8.7c.8.5,1.4,1,1.9,1.7h0v-9.8h2.6v21h-2.5v-2.1h0ZM620,74.8c0,.6,0,1.2.3,1.8s.5,1.1.8,1.5c.4.4.8.8,1.4,1.1s1.2.4,1.9.4,1.3-.1,1.8-.4c.5-.3,1-.6,1.4-1,.4-.4.7-.9.9-1.5.2-.6.3-1.2.3-1.8s-.1-1.2-.3-1.8c-.2-.6-.5-1.1-.9-1.5-.4-.4-.9-.8-1.4-1.1-.5-.3-1.2-.4-1.8-.4s-1.3.1-1.9.4-1,.6-1.4,1.1-.6.9-.8,1.5c-.2.6-.3,1.2-.3,1.8Z"/>
            <path class="cls-4" d="M645,81.4c0-.3,0-.7,0-1.1,0-.4,0-.8,0-1h0c-.3.7-.9,1.3-1.7,1.8-.8.5-1.7.7-2.6.7s-1.6-.1-2.2-.4-1.1-.7-1.5-1.2c-.4-.5-.7-1.1-.9-1.7-.2-.6-.3-1.3-.3-2.1v-8.2h2.6v7.3c0,.5,0,1,.1,1.5,0,.5.2.9.5,1.3.2.4.5.7.9.9.4.2.9.3,1.5.3,1.1,0,1.9-.4,2.6-1.2.6-.8,1-1.8,1-3.1v-7h2.6v10.3c0,.4,0,.8,0,1.4,0,.6,0,1,0,1.5h-2.5Z"/>
            <path class="cls-4" d="M661.1,71.6c-.3-.4-.7-.8-1.2-1.1-.6-.3-1.1-.4-1.8-.4s-1.3.1-1.8.4c-.5.3-1,.6-1.3,1s-.7.9-.8,1.5c-.2.6-.3,1.2-.3,1.8s0,1.2.3,1.8.5,1.1.8,1.5.8.8,1.4,1,1.1.4,1.8.4,1.3-.1,1.8-.4,1-.6,1.3-1.1l1.7,1.6c-.6.6-1.2,1.2-2.1,1.5-.8.4-1.8.5-2.8.5s-2-.2-2.8-.5c-.9-.3-1.6-.8-2.2-1.4s-1.1-1.3-1.5-2.2c-.4-.8-.5-1.8-.5-2.9s.2-2,.5-2.8.8-1.6,1.5-2.2c.6-.6,1.4-1.1,2.2-1.4.9-.3,1.8-.5,2.8-.5s1.8.2,2.8.6,1.6.9,2.2,1.6l-1.9,1.5Z"/>
            <path class="cls-4" d="M673.8,72.9c0-1-.3-1.7-.9-2.2-.6-.5-1.4-.7-2.4-.7s-1.4.1-2.1.4-1.2.7-1.6,1.1l-1.4-1.7c.6-.6,1.4-1.1,2.4-1.4s1.9-.5,3-.5,1.8.1,2.5.4c.7.3,1.3.6,1.7,1.1s.8,1,1,1.6c.2.6.3,1.3.3,2v5.7c0,.4,0,.9,0,1.4,0,.5,0,.9.2,1.2h-2.4c-.1-.6-.2-1.3-.2-1.9h0c-.5.7-1.1,1.2-1.8,1.6s-1.6.6-2.6.6-1.1,0-1.6-.2-1.1-.4-1.5-.7-.8-.7-1.2-1.2c-.3-.5-.5-1.2-.5-1.9s.3-1.8.8-2.4c.5-.6,1.2-1,2.1-1.3.9-.3,1.8-.5,2.9-.6s2.2-.1,3.3-.1v-.4ZM673.1,75.2c-.6,0-1.3,0-2,0-.7,0-1.3.2-1.9.3-.6.2-1,.4-1.4.7-.4.3-.6.8-.6,1.3s0,.7.2,1,.4.5.6.6.5.3.9.3.6,0,1,0c1.2,0,2.2-.4,2.8-1.1.7-.7,1-1.7,1-2.8v-.7h-.6Z"/>
            <path class="cls-4" d="M686.8,70.4h-3.5v6.8c0,.8.1,1.4.4,1.7.3.3.8.5,1.4.5s.5,0,.8,0c.3,0,.5-.1.7-.2v2.1c-.2.1-.6.2-1,.3s-.8,0-1.2,0c-1.2,0-2.2-.3-2.8-1s-1-1.7-1-3.1v-7.1h-2.5v-2.1h2.5v-3.8h2.6v3.8h3.5v2.1Z"/>
            <path class="cls-4" d="M692.5,63.5c0,.5-.2.9-.5,1.2s-.7.5-1.2.5-.9-.2-1.2-.5c-.3-.3-.5-.7-.5-1.2s.2-.9.5-1.2c.3-.3.7-.5,1.2-.5s.9.2,1.2.5c.3.3.5.7.5,1.2ZM692.1,81.4h-2.6v-13.1h2.6v13.1Z"/>
            <path class="cls-4" d="M710,74.8c0,1-.2,2-.5,2.8-.4.9-.9,1.6-1.5,2.2-.6.6-1.4,1.1-2.3,1.4-.9.3-1.8.5-2.8.5s-1.9-.2-2.8-.5c-.9-.3-1.6-.8-2.2-1.4s-1.1-1.4-1.5-2.2c-.4-.9-.5-1.8-.5-2.8s.2-1.9.5-2.8c.4-.8.9-1.6,1.5-2.2.6-.6,1.4-1.1,2.2-1.4.9-.3,1.8-.5,2.8-.5s1.9.2,2.8.5c.9.3,1.6.8,2.3,1.4.6.6,1.1,1.3,1.5,2.2.4.8.5,1.8.5,2.8ZM707.2,74.8c0-.6,0-1.2-.3-1.8-.2-.6-.5-1.1-.8-1.5s-.8-.8-1.4-1-1.2-.4-1.9-.4-1.3.1-1.9.4-1,.6-1.4,1-.7.9-.8,1.5c-.2.6-.3,1.2-.3,1.8s0,1.2.3,1.8c.2.6.5,1.1.8,1.5s.8.8,1.4,1.1c.5.3,1.2.4,1.9.4s1.3-.1,1.9-.4c.5-.3,1-.6,1.4-1.1s.7-1,.8-1.5.3-1.2.3-1.8Z"/>
            <path class="cls-4" d="M715.9,68.3c0,.3,0,.7,0,1.1,0,.4,0,.8,0,1h0c.2-.4.4-.7.7-1,.3-.3.6-.6,1-.8.4-.2.8-.4,1.2-.5.4-.1.9-.2,1.4-.2.8,0,1.6.1,2.2.4.6.3,1.1.7,1.5,1.2.4.5.7,1,.9,1.7.2.6.3,1.3.3,2.1v8.2h-2.6v-7.3c0-.5,0-1-.1-1.5,0-.5-.2-.9-.5-1.3-.2-.4-.5-.7-.9-.9s-.9-.3-1.5-.3c-1,0-1.9.4-2.5,1.2-.7.8-1,1.8-1,3.1v7h-2.6v-10.3c0-.4,0-.8,0-1.4,0-.6,0-1,0-1.5h2.5Z"/>
          </g>
        </g>
      </g>
    </g>
  </g>
</svg>