<?xml version="1.0" encoding="UTF-8"?>
<svg id="Layer_2" data-name="Layer 2" xmlns="http://www.w3.org/2000/svg" viewBox="0 0 894.7 83">
  <defs>
    <style>
      .cls-1 {
        fill: #d1451e;
      }

      .cls-1, .cls-2, .cls-3, .cls-4 {
        stroke-width: 0px;
      }

      .cls-2 {
        fill: #d74a2a;
      }

      .cls-3 {
        fill: #3b3b3c;
      }

      .cls-4 {
        fill: #fff;
      }
    </style>
  </defs>
  <g id="Layer_1-2" data-name="Layer 1">
    <g>
      <g>
        <g>
          <rect class="cls-2" y="1.4" width="80.1" height="80.1"/>
          <path class="cls-4" d="M61.4,17.6v28.1c0,6.3-1.9,11.4-5.6,15.2-3.7,3.8-9,5.7-15.7,5.7s-12-1.9-15.8-5.7c-3.7-3.8-5.6-8.9-5.6-15.2v-28.1h11.5v27.9c0,3.2.8,5.8,2.5,7.7,1.7,2,4.1,3,7.3,3s5.6-1,7.3-3c1.7-2,2.5-4.5,2.5-7.7v-27.9h11.5Z"/>
          <rect class="cls-2" x="88.2" y="1.4" width="80.1" height="80.1"/>
          <rect class="cls-2" x="176.4" y="1.4" width="80.1" height="80.1"/>
          <rect class="cls-2" x="264.5" y="1.4" width="80.1" height="80.1"/>
          <polygon class="cls-4" points="153.8 17.5 153.8 65.5 142.4 65.5 142.4 37.4 128.3 56.7 114.2 37.4 114.2 65.5 102.8 65.5 102.8 17.5 113.6 17.5 128.3 38.8 142.9 17.5 153.8 17.5"/>
          <path class="cls-4" d="M221.8,54.5c1.3-1.3,2-3,2-5.1s-.7-3.7-2-5c-1.3-1.4-3.1-2-5.4-2s-4,.7-5.3,2c-1.4,1.3-2.1,3-2.1,5.1s.7,3.8,2,5.1c1.4,1.3,3.2,2,5.4,2s4-.7,5.4-2M230.4,37.7c3.2,3.1,4.8,7,4.8,11.7s-1.8,9.1-5.3,12.4-8,4.9-13.4,4.9-9.8-1.6-13.4-4.9c-3.6-3.3-5.4-7.4-5.4-12.4s1.1-6.6,3.4-10.2l13.6-21.6h12.8l-9.4,14.9c5,.4,9.1,2.1,12.2,5.2"/>
          <path class="cls-4" d="M311.8,39.8c1.3-1.4,1.9-3.1,1.9-4.9s-.6-3.5-1.8-4.9c-1.2-1.4-2.8-2.1-4.6-2.1h-11.6v14.1h11.1c2,0,3.7-.7,5-2.1M320,22.8c3.2,3.5,4.8,7.5,4.8,12s-1.6,8.6-4.8,12.1c-3.2,3.5-7.5,5.3-12.9,5.3h-11.4v13.4h-11.3V17.5h23.1c5.1,0,9.3,1.8,12.5,5.3"/>
        </g>
        <rect class="cls-1" x="384.9" y="1.4" width="1" height="80.2"/>
      </g>
      <g>
        <path class="cls-3" d="M650.7,3h2.8v18.2h-2.8V3Z"/>
        <path class="cls-3" d="M664.1,7.8c1.6,0,2.9.5,3.8,1.5.9,1,1.3,2.4,1.3,4.2v7.7h-2.6v-7.2c0-1.2-.3-2.1-.8-2.7s-1.3-1-2.3-1-2,.4-2.7,1.2c-.7.8-1,1.9-1,3.2v6.5h-2.7v-13.1h2.7v1.9c1.1-1.5,2.5-2.3,4.4-2.3h0Z"/>
        <path class="cls-3" d="M677.4,21.6c-1.4,0-2.7-.4-3.8-1.2-1.1-.8-1.8-1.7-2.2-2.8l2.4-.7c.2.7.7,1.3,1.4,1.8s1.4.7,2.3.7,1.4-.2,1.9-.5.7-.8.7-1.3-.1-.7-.4-.9-.7-.4-1.3-.6l-3.4-1c-2-.6-3-1.7-3-3.4s.5-1.9,1.4-2.7,2.1-1.1,3.5-1.1,2.5.3,3.5.9,1.7,1.4,2,2.4l-2.4.7c-.3-.5-.7-1-1.2-1.3s-1.2-.5-2-.5-1.2.2-1.6.5c-.4.3-.6.7-.6,1.1s.5,1,1.4,1.3l3.4,1c1.1.3,1.9.7,2.5,1.3.6.5.9,1.3.9,2.3s-.5,2.2-1.5,2.9-2.3,1.2-3.8,1.2h0Z"/>
        <path class="cls-3" d="M693.2,20.8c-1,.4-1.9.6-2.8.6-1.3,0-2.3-.4-3-1.2s-1-1.9-1-3.3v-6.4h-2.3v-2.4h2.3V3.8h2.6v4.4h4.1v2.4h-4.1v6.4c0,1.3.6,2,1.8,2s1.1-.1,1.7-.4l.7,2.2Z"/>
        <path class="cls-3" d="M696,5.5c-.3-.3-.5-.7-.5-1.2s.2-.8.5-1.2c.3-.3.7-.5,1.2-.5s.9.2,1.2.5c.3.3.5.7.5,1.2s-.2.9-.5,1.2c-.3.3-.7.5-1.2.5s-.9-.2-1.2-.5ZM695.8,8.2h2.6v13.1h-2.6v-13.1Z"/>
        <path class="cls-3" d="M709.9,20.8c-1,.4-1.9.6-2.8.6-1.3,0-2.3-.4-3-1.2s-1-1.9-1-3.3v-6.4h-2.3v-2.4h2.3V3.8h2.6v4.4h4.1v2.4h-4.1v6.4c0,1.3.6,2,1.8,2s1.1-.1,1.7-.4l.7,2.2Z"/>
        <path class="cls-3" d="M724.3,8.2v13.1h-2.6v-2c-1,1.5-2.5,2.3-4.4,2.3-1.6,0-2.9-.5-3.8-1.5-.9-1-1.3-2.4-1.3-4.2v-7.7h2.7v7.2c0,1.2.3,2.1.8,2.7s1.3,1,2.3,1,2-.4,2.7-1.2,1-1.9,1-3.2v-6.5h2.6Z"/>
        <path class="cls-3" d="M735.7,20.8c-1,.4-1.9.6-2.8.6-1.3,0-2.3-.4-3-1.2s-1-1.9-1-3.3v-6.4h-2.3v-2.4h2.3V3.8h2.6v4.4h4.1v2.4h-4.1v6.4c0,1.3.6,2,1.8,2s1.1-.1,1.7-.4l.7,2.2Z"/>
        <path class="cls-3" d="M743.6,21.6c-2,0-3.7-.6-4.9-1.9-1.3-1.3-1.9-2.9-1.9-5s.6-3.6,1.8-4.9,2.8-2,4.7-2,3.6.6,4.8,1.9,1.7,2.8,1.7,4.7,0,.7,0,1.1h-10.4c0,1.1.5,2,1.2,2.7s1.7,1,3,1,3-.7,3.6-2.1l2.4.7c-.5,1-1.2,1.9-2.3,2.6s-2.3,1.1-3.9,1.1h0ZM747.3,13.7c0-1-.5-1.9-1.2-2.6s-1.6-1-2.7-1-2,.3-2.7,1-1.1,1.5-1.2,2.5h7.8Z"/>
        <path class="cls-3" d="M765,21.6c-1.9,0-3.6-.7-4.8-2s-1.9-2.9-1.9-4.9.6-3.6,1.9-4.9,2.9-2,4.8-2,3.6.6,4.9,2,1.9,2.9,1.9,4.9-.6,3.6-1.9,4.9-2.9,2-4.8,2h0ZM768,17.8c.8-.8,1.2-1.9,1.2-3.1s-.4-2.3-1.2-3.2-1.8-1.3-3-1.3-2.2.4-3,1.3c-.8.8-1.2,1.9-1.2,3.2s.4,2.3,1.2,3.1c.8.8,1.8,1.3,3,1.3s2.2-.4,3-1.3Z"/>
        <path class="cls-3" d="M778.1,8.2h4.2v2.4h-4.2v10.7h-2.7v-10.7h-2.5v-2.4h2.5v-1.5c0-1.5.4-2.7,1.1-3.5.7-.8,1.8-1.3,3.2-1.3s2,.2,2.7.5l-.6,2.2c-.6-.3-1.1-.4-1.7-.4-1.3,0-1.9.8-1.9,2.5v1.4Z"/>
        <path class="cls-3" d="M657.7,51.6c-2,0-3.7-.5-5.1-1.6s-2.4-2.4-2.9-3.9l2.6-.8c.4,1.1,1.1,2,2.1,2.7s2.1,1.1,3.5,1.1,2.1-.3,2.9-.9,1.1-1.2,1.1-2-.2-1.1-.6-1.5c-.4-.4-1.2-.8-2.2-1.1l-4.5-1.5c-2.7-.9-4-2.3-4-4.5s.6-2.6,1.7-3.5,2.6-1.5,4.4-1.5,3.4.4,4.7,1.3c1.3.9,2.2,1.9,2.8,3.2l-2.6.8c-.4-.9-1.1-1.5-1.9-2.1-.9-.5-1.8-.8-3-.8s-1.8.2-2.4.7-1,1.1-1,1.7.2,1,.5,1.3c.4.3.9.6,1.7.9l4.4,1.4c1.5.5,2.7,1.1,3.5,1.8s1.2,1.7,1.2,3-.6,2.9-1.9,3.9-3,1.6-5,1.6h0Z"/>
        <path class="cls-3" d="M673.5,51.6c-1.9,0-3.5-.7-4.8-2s-1.9-3-1.9-4.9.6-3.6,1.9-4.9c1.3-1.3,2.9-2,4.8-2s2.9.4,4,1.3,1.8,1.8,2,2.9l-2.5.7c-.2-.6-.6-1.2-1.3-1.7-.7-.5-1.4-.7-2.3-.7s-2.2.4-3,1.3c-.8.9-1.2,1.9-1.2,3.1s.4,2.2,1.2,3.1c.8.9,1.8,1.3,3,1.3s1.6-.2,2.3-.7c.7-.5,1.1-1,1.3-1.7l2.5.7c-.3,1.1-.9,2-2,2.8-1.1.8-2.4,1.3-4,1.3h0Z"/>
        <path class="cls-3" d="M682.4,35.5c-.3-.3-.5-.7-.5-1.2s.2-.8.5-1.2c.3-.3.7-.5,1.2-.5s.9.2,1.2.5c.3.3.5.7.5,1.2s-.2.9-.5,1.2c-.3.3-.7.5-1.2.5s-.9-.2-1.2-.5ZM682.3,38.2h2.6v13.1h-2.6v-13.1Z"/>
        <path class="cls-3" d="M694.5,51.6c-2,0-3.7-.6-4.9-1.9-1.3-1.3-1.9-2.9-1.9-5s.6-3.6,1.8-4.9,2.8-2,4.7-2,3.6.6,4.8,1.9,1.7,2.8,1.7,4.7,0,.7,0,1.1h-10.4c0,1.1.5,2,1.2,2.7s1.7,1,3,1,3-.7,3.6-2.1l2.4.7c-.5,1-1.2,1.9-2.3,2.6s-2.3,1.1-3.9,1.1h0ZM698.2,43.7c0-1-.5-1.9-1.2-2.6s-1.6-1-2.7-1-2,.3-2.7,1-1.1,1.5-1.2,2.5h7.8Z"/>
        <path class="cls-3" d="M710.6,37.8c1.6,0,2.9.5,3.8,1.5.9,1,1.3,2.4,1.3,4.2v7.7h-2.6v-7.2c0-1.2-.3-2.1-.8-2.7s-1.3-1-2.3-1-2,.4-2.7,1.2c-.7.8-1,1.9-1,3.2v6.5h-2.7v-13.1h2.7v1.9c1.1-1.5,2.5-2.3,4.4-2.3h0Z"/>
        <path class="cls-3" d="M725,51.6c-1.9,0-3.5-.7-4.8-2s-1.9-3-1.9-4.9.6-3.6,1.9-4.9c1.3-1.3,2.9-2,4.8-2s2.9.4,4,1.3,1.8,1.8,2,2.9l-2.5.7c-.2-.6-.6-1.2-1.3-1.7-.7-.5-1.4-.7-2.3-.7s-2.2.4-3,1.3c-.8.9-1.2,1.9-1.2,3.1s.4,2.2,1.2,3.1c.8.9,1.8,1.3,3,1.3s1.6-.2,2.3-.7c.7-.5,1.1-1,1.3-1.7l2.5.7c-.3,1.1-.9,2-2,2.8-1.1.8-2.4,1.3-4,1.3h0Z"/>
        <path class="cls-3" d="M739.7,51.6c-2,0-3.7-.6-4.9-1.9-1.3-1.3-1.9-2.9-1.9-5s.6-3.6,1.8-4.9,2.8-2,4.7-2,3.6.6,4.8,1.9,1.7,2.8,1.7,4.7,0,.7,0,1.1h-10.4c0,1.1.5,2,1.2,2.7s1.7,1,3,1,3-.7,3.6-2.1l2.4.7c-.5,1-1.2,1.9-2.3,2.6s-2.3,1.1-3.9,1.1h0ZM743.4,43.7c0-1-.5-1.9-1.2-2.6s-1.6-1-2.7-1-2,.3-2.7,1-1.1,1.5-1.2,2.5h7.8Z"/>
        <path class="cls-3" d="M769,35.6h-6.2v15.7h-2.8v-15.7h-6.3v-2.6h15.3v2.6Z"/>
        <path class="cls-3" d="M774.5,51.6c-2,0-3.7-.6-4.9-1.9-1.3-1.3-1.9-2.9-1.9-5s.6-3.6,1.8-4.9,2.8-2,4.7-2,3.6.6,4.8,1.9,1.7,2.8,1.7,4.7,0,.7,0,1.1h-10.4c0,1.1.5,2,1.2,2.7s1.7,1,3,1,3-.7,3.6-2.1l2.4.7c-.5,1-1.2,1.9-2.3,2.6s-2.3,1.1-3.9,1.1h0ZM778.2,43.7c0-1-.5-1.9-1.2-2.6s-1.6-1-2.7-1-2,.3-2.7,1-1.1,1.5-1.2,2.5h7.8Z"/>
        <path class="cls-3" d="M789.4,51.6c-1.9,0-3.5-.7-4.8-2s-1.9-3-1.9-4.9.6-3.6,1.9-4.9c1.3-1.3,2.9-2,4.8-2s2.9.4,4,1.3,1.8,1.8,2,2.9l-2.5.7c-.2-.6-.6-1.2-1.3-1.7-.7-.5-1.4-.7-2.3-.7s-2.2.4-3,1.3c-.8.9-1.2,1.9-1.2,3.1s.4,2.2,1.2,3.1c.8.9,1.8,1.3,3,1.3s1.6-.2,2.3-.7c.7-.5,1.1-1,1.3-1.7l2.5.7c-.3,1.1-.9,2-2,2.8-1.1.8-2.4,1.3-4,1.3h0Z"/>
        <path class="cls-3" d="M805.1,37.8c1.6,0,2.9.5,3.8,1.5.9,1,1.3,2.4,1.3,4.2v7.7h-2.6v-7.2c0-1.2-.3-2.1-.8-2.7s-1.3-1-2.3-1-2,.4-2.7,1.2c-.7.8-1,1.9-1,3.2v6.5h-2.7v-19h2.7v7.8c1.1-1.5,2.5-2.3,4.4-2.3h0Z"/>
        <path class="cls-3" d="M820.6,37.8c1.6,0,2.9.5,3.8,1.5.9,1,1.3,2.4,1.3,4.2v7.7h-2.6v-7.2c0-1.2-.3-2.1-.8-2.7s-1.3-1-2.3-1-2,.4-2.7,1.2c-.7.8-1,1.9-1,3.2v6.5h-2.7v-13.1h2.7v1.9c1.1-1.5,2.5-2.3,4.4-2.3h0Z"/>
        <path class="cls-3" d="M835,51.6c-1.9,0-3.6-.7-4.8-2s-1.9-2.9-1.9-4.9.6-3.6,1.9-4.9,2.9-2,4.8-2,3.6.6,4.9,2,1.9,2.9,1.9,4.9-.6,3.6-1.9,4.9-2.9,2-4.8,2h0ZM838,47.8c.8-.8,1.2-1.9,1.2-3.1s-.4-2.3-1.2-3.2-1.8-1.3-3-1.3-2.2.4-3,1.3c-.8.8-1.2,1.9-1.2,3.2s.4,2.3,1.2,3.1c.8.8,1.8,1.3,3,1.3s2.2-.4,3-1.3Z"/>
        <path class="cls-3" d="M844.5,32.3h2.7v19h-2.7v-19Z"/>
        <path class="cls-3" d="M856.7,51.6c-1.9,0-3.6-.7-4.8-2s-1.9-2.9-1.9-4.9.6-3.6,1.9-4.9,2.9-2,4.8-2,3.6.6,4.9,2,1.9,2.9,1.9,4.9-.6,3.6-1.9,4.9-2.9,2-4.8,2h0ZM859.7,47.8c.8-.8,1.2-1.9,1.2-3.1s-.4-2.3-1.2-3.2-1.8-1.3-3-1.3-2.2.4-3,1.3c-.8.8-1.2,1.9-1.2,3.2s.4,2.3,1.2,3.1c.8.8,1.8,1.3,3,1.3s2.2-.4,3-1.3Z"/>
        <path class="cls-3" d="M879,38.2v12.6c0,1.8-.6,3.3-1.8,4.5-1.2,1.2-2.7,1.8-4.7,1.8-2.8,0-4.9-1.1-6.1-3.4l2.3-.9c.8,1.3,2,2,3.8,2,1.2,0,2.1-.4,2.7-1.1.7-.7,1-1.7,1-2.8v-1.9c-1.1,1.5-2.6,2.2-4.5,2.2s-3.4-.6-4.6-1.9-1.8-2.9-1.8-4.7.6-3.5,1.8-4.8c1.2-1.2,2.7-1.9,4.6-1.9s3.4.7,4.5,2.2v-1.8h2.7ZM872.2,48.7c1.2,0,2.2-.4,3-1.2s1.2-1.8,1.2-3-.4-2.2-1.2-3-1.8-1.2-3-1.2-2.2.4-3,1.2c-.8.8-1.2,1.8-1.2,3s.4,2.2,1.2,3c.8.8,1.8,1.2,3,1.2h0Z"/>
        <path class="cls-3" d="M894.7,38.2l-7.8,18.5h-2.7l2.4-5.8-5.8-12.8h2.9l4.3,9.7,3.9-9.7h2.8Z"/>
        <path class="cls-3" d="M663.3,81.3l-1.8-2c-1.6,1.5-3.5,2.3-5.5,2.3-1.5,0-2.8-.5-3.9-1.5-1.1-1-1.6-2.2-1.6-3.8s.3-2,.9-3c.6-.9,1.4-1.7,2.6-2.4-1-1.2-1.5-2.4-1.5-3.5s.5-2.7,1.5-3.6c1-.9,2.3-1.3,3.8-1.3s2.5.4,3.5,1.2,1.5,1.8,1.7,2.9l-2.4.7c-.2-.7-.5-1.3-1-1.7-.5-.4-1.1-.6-1.8-.6s-1.4.2-1.9.7-.7,1-.7,1.8.4,1.6,1.3,2.6l5,5.4c.6-1,1-2.1,1.2-3.1l2.4.7c-.3,1.5-.9,3-1.8,4.3l3.5,3.8h-3.3ZM656.2,79.1c1.3,0,2.5-.5,3.6-1.6l-4.3-4.7c-1.6.9-2.4,2.1-2.4,3.4s.3,1.5.9,2.1,1.3.9,2.3.9h0Z"/>
        <path class="cls-3" d="M675,63h2.8v18.2h-2.8v-18.2Z"/>
        <path class="cls-3" d="M688.4,67.8c1.6,0,2.9.5,3.8,1.5.9,1,1.3,2.4,1.3,4.2v7.7h-2.6v-7.2c0-1.2-.3-2.1-.8-2.7s-1.3-1-2.3-1-2,.4-2.7,1.2c-.7.8-1,1.9-1,3.2v6.5h-2.7v-13.1h2.7v1.9c1.1-1.5,2.5-2.3,4.4-2.3h0Z"/>
        <path class="cls-3" d="M703.9,67.8c1.6,0,2.9.5,3.8,1.5.9,1,1.3,2.4,1.3,4.2v7.7h-2.6v-7.2c0-1.2-.3-2.1-.8-2.7s-1.3-1-2.3-1-2,.4-2.7,1.2c-.7.8-1,1.9-1,3.2v6.5h-2.7v-13.1h2.7v1.9c1.1-1.5,2.5-2.3,4.4-2.3h0Z"/>
        <path class="cls-3" d="M718.4,81.6c-1.9,0-3.6-.7-4.8-2s-1.9-2.9-1.9-4.9.6-3.6,1.9-4.9,2.9-2,4.8-2,3.6.6,4.9,2,1.9,2.9,1.9,4.9-.6,3.6-1.9,4.9-2.9,2-4.8,2h0ZM721.4,77.8c.8-.8,1.2-1.9,1.2-3.1s-.4-2.3-1.2-3.2-1.8-1.3-3-1.3-2.2.4-3,1.3c-.8.8-1.2,1.9-1.2,3.2s.4,2.3,1.2,3.1c.8.8,1.8,1.3,3,1.3s2.2-.4,3-1.3Z"/>
        <path class="cls-3" d="M739.4,68.2l-5.4,13.1h-3l-5.4-13.1h2.9l4,10.1,4-10.1h2.9Z"/>
        <path class="cls-3" d="M746.5,81.6c-1.8,0-3.3-.7-4.5-2s-1.8-2.9-1.8-4.9.6-3.6,1.8-4.9,2.7-2,4.5-2,3.5.8,4.6,2.3v-2h2.6v13.1h-2.6v-2c-1.1,1.5-2.6,2.3-4.6,2.3h0ZM746.9,79.1c1.2,0,2.2-.4,3-1.3s1.2-1.9,1.2-3.2-.4-2.3-1.2-3.2-1.8-1.3-3-1.3-2.2.4-3,1.2-1.2,1.9-1.2,3.2.4,2.3,1.2,3.2c.8.8,1.8,1.3,3,1.3h0Z"/>
        <path class="cls-3" d="M765,80.8c-1,.4-1.9.6-2.8.6-1.3,0-2.3-.4-3-1.2s-1-1.9-1-3.3v-6.4h-2.3v-2.4h2.3v-4.4h2.6v4.4h4.1v2.4h-4.1v6.4c0,1.3.6,2,1.8,2s1.1-.1,1.7-.4l.7,2.2Z"/>
        <path class="cls-3" d="M767.8,65.5c-.3-.3-.5-.7-.5-1.2s.2-.8.5-1.2c.3-.3.7-.5,1.2-.5s.9.2,1.2.5c.3.3.5.7.5,1.2s-.2.9-.5,1.2c-.3.3-.7.5-1.2.5s-.9-.2-1.2-.5ZM767.7,68.2h2.6v13.1h-2.6v-13.1Z"/>
        <path class="cls-3" d="M779.9,81.6c-1.9,0-3.6-.7-4.8-2s-1.9-2.9-1.9-4.9.6-3.6,1.9-4.9,2.9-2,4.8-2,3.6.6,4.9,2,1.9,2.9,1.9,4.9-.6,3.6-1.9,4.9-2.9,2-4.8,2h0ZM782.9,77.8c.8-.8,1.2-1.9,1.2-3.1s-.4-2.3-1.2-3.2-1.8-1.3-3-1.3-2.2.4-3,1.3c-.8.8-1.2,1.9-1.2,3.2s.4,2.3,1.2,3.1c.8.8,1.8,1.3,3,1.3s2.2-.4,3-1.3Z"/>
        <path class="cls-3" d="M796.5,67.8c1.6,0,2.9.5,3.8,1.5.9,1,1.3,2.4,1.3,4.2v7.7h-2.6v-7.2c0-1.2-.3-2.1-.8-2.7s-1.3-1-2.3-1-2,.4-2.7,1.2c-.7.8-1,1.9-1,3.2v6.5h-2.7v-13.1h2.7v1.9c1.1-1.5,2.5-2.3,4.4-2.3h0Z"/>
      </g>
      <g>
        <path class="cls-2" d="M423.5,1.6h12.3v79.7h-12.3V1.6Z"/>
        <path class="cls-2" d="M476.5,82.8c-8.7,0-16.1-2.3-22.3-6.9-6.2-4.6-10.5-10.3-12.7-17.1l11.4-3.5c1.8,4.8,4.8,8.8,9.1,12,4.3,3.1,9.3,4.7,15.2,4.7s9.4-1.3,12.7-3.8c3.3-2.5,5-5.4,5-8.7s-.9-4.9-2.8-6.7c-1.9-1.8-5-3.4-9.5-4.9l-19.5-6.4c-11.7-3.7-17.5-10.2-17.5-19.5s2.5-11.2,7.6-15.5c5.1-4.3,11.5-6.4,19.2-6.4s14.8,1.9,20.5,5.7c5.7,3.8,9.8,8.5,12.2,14.2l-11.2,3.4c-1.8-3.7-4.6-6.7-8.4-9-3.7-2.3-8.1-3.4-13-3.4s-7.8,1.1-10.6,3.2c-2.8,2.1-4.2,4.6-4.2,7.5s.8,4.2,2.4,5.7c1.6,1.5,4.1,2.8,7.6,3.8l19.1,6.2c6.7,2.2,11.8,4.8,15.2,8s5.2,7.6,5.2,13.2-2.8,12.6-8.5,17.2c-5.6,4.7-13,7-21.9,7h-.3Z"/>
        <path class="cls-2" d="M552.5,12.7h-17v68.6h-12.1V12.7h-17.1V1.6h46.1v11.2Z"/>
        <path class="cls-2" d="M606.2,81.4l-7.9-8.6c-7.1,6.7-15.2,10.1-24.2,10.2-6.7,0-12.4-2.2-17.1-6.4-4.7-4.3-7-9.8-7-16.5s1.3-8.9,3.9-13c2.5-4.1,6.3-7.6,11.2-10.4-4.5-5.3-6.8-10.4-6.8-15.3s2.2-11.8,6.5-15.6c4.3-3.8,9.9-5.7,16.8-5.7s11.1,1.7,15.2,5.2c4.1,3.4,6.7,7.7,7.6,12.7l-10.5,3.1c-.8-3.2-2.3-5.7-4.4-7.6-2.1-1.9-4.8-2.8-8-2.8s-6.2,1-8.4,3-3.3,4.6-3.3,7.7,2,7,5.9,11.2l21.7,23.7c2.5-4.5,4.3-9,5.2-13.5l10.3,2.9c-1.4,6.7-4,13-7.9,18.8l15.5,16.8h-14.4ZM575.4,72.1c5.6,0,10.8-2.3,15.7-7.1l-19-20.6c-6.9,4.1-10.3,9.1-10.3,15s1.3,6.5,3.7,9,5.8,3.7,9.9,3.7h0Z"/>
        <path class="cls-2" d="M624.3,1.6h12.3v79.7h-12.3V1.6Z"/>
      </g>
    </g>
  </g>
</svg>