<?xml version="1.0" encoding="UTF-8"?>
<svg id="Layer_2" data-name="Layer 2" xmlns="http://www.w3.org/2000/svg" viewBox="0 0 796.3 83.3">
  <defs>
    <style>
      .cls-1 {
        fill: #d74a2a;
      }

      .cls-1, .cls-2, .cls-3, .cls-4, .cls-5, .cls-6 {
        stroke-width: 0px;
      }

      .cls-2 {
        fill: #3b3b3c;
      }

      .cls-3 {
        fill: #1b4265;
      }

      .cls-4 {
        fill: #fff;
      }

      .cls-5 {
        fill: #3e8b87;
      }

      .cls-6 {
        fill: #cc4833;
      }
    </style>
  </defs>
  <g id="Layer_1-2" data-name="Layer 1">
    <g>
      <g>
        <g>
          <g>
            <rect class="cls-1" y=".5" width="80.1" height="80.1"/>
            <path class="cls-4" d="M61.4,16.7v28.1c0,6.3-1.9,11.4-5.6,15.2-3.7,3.8-9,5.7-15.7,5.7s-12-1.9-15.8-5.7-5.6-8.9-5.6-15.2v-28.1h11.5v27.9c0,3.2.8,5.8,2.5,7.7,1.7,2,4.1,3,7.3,3s5.6-1,7.3-3c1.7-2,2.5-4.5,2.5-7.7v-27.9h11.5Z"/>
            <rect class="cls-1" x="88.2" y=".5" width="80.1" height="80.1"/>
            <rect class="cls-1" x="176.4" y=".5" width="80.1" height="80.1"/>
            <rect class="cls-1" x="264.5" y=".5" width="80.1" height="80.1"/>
            <polygon class="cls-4" points="153.8 16.5 153.8 64.6 142.4 64.6 142.4 36.5 128.3 55.8 114.2 36.5 114.2 64.6 102.8 64.6 102.8 16.5 113.6 16.5 128.3 37.9 142.9 16.5 153.8 16.5"/>
            <path class="cls-4" d="M221.8,53.6c1.3-1.3,2-3,2-5.1s-.7-3.7-2-5c-1.3-1.4-3.1-2-5.4-2s-4,.7-5.3,2c-1.4,1.3-2.1,3-2.1,5.1s.7,3.8,2,5.1c1.4,1.3,3.2,2,5.4,2s4-.7,5.4-2M230.4,36.8c3.2,3.1,4.8,7,4.8,11.7s-1.8,9.1-5.3,12.4-8,4.9-13.4,4.9-9.8-1.6-13.4-4.9c-3.6-3.3-5.4-7.4-5.4-12.4s1.1-6.6,3.4-10.2l13.6-21.6h12.8l-9.4,14.9c5,.4,9.1,2.1,12.2,5.2"/>
            <path class="cls-4" d="M311.8,38.9c1.3-1.4,1.9-3.1,1.9-4.9s-.6-3.5-1.8-4.9c-1.2-1.4-2.8-2.1-4.6-2.1h-11.6v14.1h11.1c2,0,3.7-.7,5-2.1M320,21.8c3.2,3.5,4.8,7.5,4.8,12s-1.6,8.6-4.8,12.1c-3.2,3.5-7.5,5.3-12.9,5.3h-11.4v13.4h-11.3V16.5h23.1c5.1,0,9.3,1.8,12.5,5.3"/>
          </g>
          <rect class="cls-6" x="384.9" y=".5" width="1" height="80.2"/>
        </g>
        <g>
          <path class="cls-2" d="M668.7,1.6v12.1c0,2.6-.7,4.7-2.2,6.2-1.5,1.6-3.5,2.3-6.1,2.3s-4.6-.8-6.1-2.3c-1.5-1.6-2.2-3.6-2.2-6.2V1.6h3.1v12c0,1.7.5,3.1,1.4,4.2.9,1,2.2,1.6,3.9,1.6s3-.5,3.9-1.6,1.3-2.4,1.3-4.2V1.6h3.1Z"/>
          <path class="cls-2" d="M680.3,6.9c1.8,0,3.2.6,4.2,1.7,1,1.1,1.5,2.7,1.5,4.7v8.5h-2.9v-8c0-1.3-.3-2.3-.9-3-.6-.7-1.5-1.1-2.6-1.1s-2.2.4-3,1.3c-.7.9-1.1,2.1-1.1,3.5v7.2h-3V7.3h3v2.2c1.2-1.7,2.8-2.5,4.9-2.5h0Z"/>
          <path class="cls-2" d="M689.9,4.4c-.4-.4-.5-.8-.5-1.3s.2-.9.5-1.3c.4-.4.8-.6,1.3-.6s1,.2,1.3.6c.4.4.5.8.5,1.3s-.2,1-.5,1.3c-.4.4-.8.5-1.3.5s-1-.2-1.3-.5ZM689.7,7.3h2.9v14.5h-2.9V7.3Z"/>
          <path class="cls-2" d="M705.4,21.3c-1.1.5-2.1.7-3.1.7-1.5,0-2.6-.4-3.3-1.3-.7-.9-1.1-2.1-1.1-3.6v-7.1h-2.6v-2.7h2.6V2.4h2.9v4.9h4.5v2.7h-4.5v7.1c0,1.5.7,2.2,2,2.2s1.2-.2,1.9-.5l.7,2.5Z"/>
          <path class="cls-2" d="M714.2,22.2c-2.2,0-4.1-.7-5.5-2.1s-2.1-3.3-2.1-5.5.7-4,2-5.5,3.1-2.2,5.3-2.2,4,.7,5.3,2.1c1.3,1.4,1.9,3.1,1.9,5.3s0,.8,0,1.2h-11.5c0,1.2.5,2.2,1.4,3,.8.7,1.9,1.1,3.3,1.1s3.3-.8,4-2.3l2.7.8c-.5,1.1-1.3,2.1-2.5,2.9-1.2.8-2.6,1.2-4.3,1.2h0ZM718.3,13.5c0-1.2-.5-2.1-1.3-2.8-.8-.7-1.8-1.1-3-1.1s-2.2.4-3,1.1c-.8.8-1.3,1.7-1.4,2.8h8.7ZM714.6,1h3.3l-2.9,4h-2.6l2.2-4Z"/>
          <path class="cls-2" d="M665.9,30.6v21.1h-2.9v-2.2c-1.2,1.7-2.9,2.6-5.1,2.6-2,0-3.7-.7-5-2.2-1.3-1.5-2-3.3-2-5.5s.7-4,2-5.5,3-2.2,5-2.2,3.9.9,5.1,2.6v-8.8h2.9ZM658.3,49.4c1.3,0,2.4-.5,3.3-1.4s1.4-2.1,1.4-3.5-.5-2.6-1.4-3.5c-.9-.9-2-1.4-3.3-1.4s-2.4.5-3.3,1.4-1.3,2.1-1.3,3.5.4,2.6,1.3,3.5c.9.9,2,1.4,3.3,1.4h0Z"/>
          <path class="cls-2" d="M676.5,52.2c-2.2,0-4.1-.7-5.5-2.1-1.4-1.4-2.1-3.3-2.1-5.5s.7-4,2-5.5c1.3-1.5,3.1-2.2,5.3-2.2s4,.7,5.3,2.1,1.9,3.1,1.9,5.3,0,.8,0,1.2h-11.5c0,1.2.5,2.2,1.4,3,.8.7,1.9,1.1,3.3,1.1s3.3-.8,4-2.3l2.7.8c-.5,1.1-1.3,2.1-2.5,2.9-1.2.8-2.6,1.2-4.3,1.2h0ZM680.6,43.4c0-1.2-.5-2.1-1.3-2.8-.8-.7-1.8-1.1-3-1.1s-2.2.4-3,1.1-1.3,1.7-1.4,2.8h8.7Z"/>
          <path class="cls-2" d="M713,42.4c0,3-.9,5.3-2.8,7.1-1.8,1.8-4.2,2.7-7.1,2.7s-5.5-1-7.5-3-3-4.5-3-7.5,1-5.5,3-7.5c2-2,4.4-3,7.3-3s4.2.6,5.9,1.7c1.7,1.1,2.8,2.6,3.5,4.4l-2.9.8c-.5-1.2-1.3-2.2-2.4-2.9-1.1-.7-2.4-1.1-4-1.1s-3.9.7-5.2,2.2c-1.3,1.5-2,3.2-2,5.3s.7,3.9,2.1,5.4c1.4,1.5,3.2,2.2,5.5,2.2s3.4-.5,4.6-1.6c1.2-1,1.8-2.4,2-4.2h-6.9s0-2.7,0-2.7h10v1.6Z"/>
          <path class="cls-2" d="M722.9,52.2c-2.2,0-4.1-.7-5.5-2.1-1.4-1.4-2.1-3.3-2.1-5.5s.7-4,2-5.5,3.1-2.2,5.3-2.2,4,.7,5.3,2.1,1.9,3.1,1.9,5.3,0,.8,0,1.2h-11.5c0,1.2.5,2.2,1.4,3,.8.7,1.9,1.1,3.3,1.1s3.3-.8,4-2.3l2.7.8c-.5,1.1-1.3,2.1-2.5,2.9-1.2.8-2.6,1.2-4.3,1.2h0ZM726.9,43.4c0-1.2-.5-2.1-1.3-2.8-.8-.7-1.8-1.1-3-1.1s-2.2.4-3,1.1c-.8.8-1.3,1.7-1.4,2.8h8.7Z"/>
          <path class="cls-2" d="M738.1,52.2c-1.6,0-3-.4-4.3-1.3-1.2-.9-2-1.9-2.4-3.1l2.7-.8c.3.8.8,1.4,1.5,2,.7.5,1.6.8,2.6.8s1.6-.2,2.1-.6c.5-.4.8-.8.8-1.4s-.1-.8-.4-1c-.3-.3-.8-.5-1.4-.7l-3.8-1.2c-2.3-.7-3.4-1.9-3.4-3.7s.5-2.1,1.6-3c1.1-.8,2.3-1.2,3.8-1.2s2.8.3,3.9,1c1.1.7,1.8,1.6,2.3,2.7l-2.6.8c-.3-.6-.7-1.1-1.4-1.5s-1.3-.6-2.2-.6-1.3.2-1.8.5-.7.8-.7,1.2.5,1.1,1.5,1.4l3.8,1.1c1.2.4,2.1.8,2.7,1.4.7.6,1,1.4,1,2.6s-.6,2.4-1.7,3.3-2.5,1.3-4.3,1.3h0Z"/>
          <path class="cls-2" d="M755.7,51.3c-1.1.5-2.1.7-3.1.7-1.5,0-2.6-.4-3.3-1.3-.7-.9-1.1-2.1-1.1-3.6v-7.1h-2.6v-2.7h2.6v-4.9h2.9v4.9h4.5v2.7h-4.5v7.1c0,1.5.7,2.2,2,2.2s1.2-.2,1.9-.5l.7,2.5Z"/>
          <path class="cls-2" d="M758.9,34.3c-.4-.4-.5-.8-.5-1.3s.2-.9.5-1.3c.4-.4.8-.6,1.3-.6s1,.2,1.3.6c.4.4.5.8.5,1.3s-.2,1-.5,1.3c-.4.4-.8.5-1.3.5s-1-.2-1.3-.5ZM758.7,37.2h2.9v14.5h-2.9v-14.5Z"/>
          <path class="cls-2" d="M772.3,52.1c-2.2,0-3.9-.7-5.4-2.2s-2.1-3.3-2.1-5.5.7-4,2.1-5.5c1.4-1.5,3.2-2.2,5.4-2.2s4,.7,5.4,2.2c1.4,1.5,2.1,3.3,2.1,5.5s-.7,4-2.1,5.5c-1.4,1.5-3.2,2.2-5.4,2.2h0ZM775.6,48c.9-.9,1.3-2.1,1.3-3.5s-.4-2.6-1.3-3.5-2-1.4-3.3-1.4-2.5.5-3.3,1.4c-.9.9-1.3,2.1-1.3,3.5s.4,2.5,1.3,3.5c.9.9,2,1.4,3.3,1.4s2.5-.5,3.3-1.4Z"/>
          <path class="cls-2" d="M790.7,36.8c1.8,0,3.2.6,4.2,1.7,1,1.1,1.5,2.7,1.5,4.7v8.5h-2.9v-8c0-1.3-.3-2.3-.9-3-.6-.7-1.5-1.1-2.6-1.1s-2.2.4-3,1.3c-.7.9-1.1,2.1-1.1,3.5v7.2h-3v-14.5h3v2.2c1.2-1.7,2.8-2.5,4.9-2.5h0Z"/>
          <path class="cls-2" d="M665.9,60.6v21.1h-2.9v-2.2c-1.2,1.7-2.9,2.6-5.1,2.6-2,0-3.7-.7-5-2.2s-2-3.3-2-5.5.7-4,2-5.5,3-2.2,5-2.2,3.9.9,5.1,2.6v-8.8h2.9ZM658.3,79.4c1.3,0,2.4-.5,3.3-1.4.9-.9,1.4-2.1,1.4-3.5s-.5-2.6-1.4-3.5c-.9-.9-2-1.4-3.3-1.4s-2.4.5-3.3,1.4-1.3,2.1-1.3,3.5.4,2.6,1.3,3.5c.9.9,2,1.4,3.3,1.4h0Z"/>
          <path class="cls-2" d="M676.5,82.1c-2.2,0-4.1-.7-5.5-2.1-1.4-1.4-2.1-3.3-2.1-5.5s.7-4,2-5.5c1.3-1.5,3.1-2.2,5.3-2.2s4,.7,5.3,2.1,1.9,3.1,1.9,5.3,0,.8,0,1.2h-11.5c0,1.2.5,2.2,1.4,3,.8.7,1.9,1.1,3.3,1.1s3.3-.8,4-2.3l2.7.8c-.5,1.1-1.3,2.1-2.5,2.9-1.2.8-2.6,1.2-4.3,1.2h0ZM680.6,73.4c0-1.2-.5-2.1-1.3-2.8-.8-.7-1.8-1.1-3-1.1s-2.2.4-3,1.1-1.3,1.7-1.4,2.8h8.7Z"/>
          <path class="cls-2" d="M691.8,82.1c-1.6,0-3-.4-4.3-1.3s-2-1.9-2.4-3.1l2.7-.8c.3.8.8,1.4,1.5,2,.7.5,1.6.8,2.6.8s1.6-.2,2.1-.6c.5-.4.8-.8.8-1.4s-.1-.8-.4-1c-.3-.3-.8-.5-1.4-.7l-3.8-1.2c-2.3-.7-3.4-1.9-3.4-3.7s.5-2.1,1.6-3c1.1-.8,2.3-1.2,3.8-1.2s2.8.3,3.9,1c1.1.7,1.8,1.6,2.3,2.7l-2.6.8c-.3-.6-.7-1.1-1.4-1.5s-1.3-.6-2.2-.6-1.3.2-1.8.5-.7.8-.7,1.2.5,1.1,1.5,1.4l3.8,1.1c1.2.4,2.1.8,2.7,1.4.7.6,1,1.4,1,2.6s-.6,2.4-1.7,3.3c-1.1.9-2.5,1.3-4.3,1.3h0Z"/>
          <path class="cls-2" d="M711.2,64.3v6.1h9.5v2.8h-9.5v8.5h-3.1v-20.2h14v2.9h-10.9Z"/>
          <path class="cls-2" d="M730.5,82.1c-2.2,0-3.9-.7-5.4-2.2-1.4-1.5-2.1-3.3-2.1-5.5s.7-4,2.1-5.5c1.4-1.5,3.2-2.2,5.4-2.2s4,.7,5.4,2.2c1.4,1.5,2.1,3.3,2.1,5.5s-.7,4-2.1,5.5c-1.4,1.5-3.2,2.2-5.4,2.2h0ZM733.9,77.9c.9-.9,1.3-2.1,1.3-3.5s-.4-2.6-1.3-3.5-2-1.4-3.3-1.4-2.5.5-3.3,1.4c-.9.9-1.3,2.1-1.3,3.5s.4,2.5,1.3,3.5c.9.9,2,1.4,3.3,1.4s2.5-.5,3.3-1.4Z"/>
          <path class="cls-2" d="M749,66.8c1.8,0,3.2.6,4.2,1.7,1,1.1,1.5,2.7,1.5,4.7v8.5h-2.9v-8c0-1.3-.3-2.3-.9-3-.6-.7-1.5-1.1-2.6-1.1s-2.2.4-3,1.3c-.7.9-1.1,2.1-1.1,3.5v7.2h-3v-14.5h3v2.2c1.2-1.7,2.8-2.5,4.9-2.5h0Z"/>
          <path class="cls-2" d="M772.6,60.6v21.1h-2.9v-2.2c-1.2,1.7-2.9,2.6-5.1,2.6-2,0-3.7-.7-5-2.2-1.3-1.5-2-3.3-2-5.5s.7-4,2-5.5,3-2.2,5-2.2,3.9.9,5.1,2.6v-8.8h2.9ZM765,79.4c1.3,0,2.4-.5,3.3-1.4s1.4-2.1,1.4-3.5-.5-2.6-1.4-3.5-2-1.4-3.3-1.4-2.4.5-3.3,1.4-1.3,2.1-1.3,3.5.4,2.6,1.3,3.5c.9.9,2,1.4,3.3,1.4h0Z"/>
          <path class="cls-2" d="M781.9,82.1c-1.6,0-3-.4-4.3-1.3s-2-1.9-2.4-3.1l2.7-.8c.3.8.8,1.4,1.5,2,.7.5,1.6.8,2.6.8s1.6-.2,2.1-.6c.5-.4.8-.8.8-1.4s-.1-.8-.4-1c-.3-.3-.8-.5-1.4-.7l-3.8-1.2c-2.3-.7-3.4-1.9-3.4-3.7s.5-2.1,1.6-3c1.1-.8,2.3-1.2,3.8-1.2s2.8.3,3.9,1c1.1.7,1.8,1.6,2.3,2.7l-2.6.8c-.3-.6-.7-1.1-1.4-1.5s-1.3-.6-2.2-.6-1.3.2-1.8.5-.7.8-.7,1.2.5,1.1,1.5,1.4l3.8,1.1c1.2.4,2.1.8,2.7,1.4.7.6,1,1.4,1,2.6s-.6,2.4-1.7,3.3c-1.1.9-2.5,1.3-4.3,1.3h0Z"/>
        </g>
      </g>
      <g>
        <g>
          <path class="cls-5" d="M480.9,1.6v47.1c0,6.1-1.6,11-4.7,14.7-3.2,3.7-7.7,5.5-13.7,5.5s-10.3-1.8-13.5-5.5c-3.2-3.7-4.7-8.6-4.7-14.7v-14h-15.5v14.2c0,10.5,2.9,18.8,8.8,25.1,5.9,6.3,14.2,9.4,24.9,9.4s18.9-3.1,24.8-9.5c5.9-6.3,8.9-14.6,8.9-25V1.6h-15.3ZM444.2,1.6h-15.5v15.5h15.5V1.6Z"/>
          <path class="cls-3" d="M582,45.3c0,11.3-3.7,20.5-11,27.5-7.3,7-16.8,10.6-28.6,10.6s-21.9-4-29.8-12c-7.9-8-11.8-17.9-11.8-29.9s3.9-21.6,11.8-29.6c7.8-8,17.5-12,29.2-12s17.1,2.3,23.7,6.9c6.6,4.6,11.2,10.5,13.7,17.6l-14.2,4.1c-4.4-9.2-12.1-13.9-23.2-13.9s-13.6,2.6-18.4,7.8c-4.8,5.2-7.2,11.5-7.2,18.9s2.5,14.1,7.4,19.3c4.9,5.3,11.6,7.9,19.9,7.9s11.5-1.7,15.5-5.1c4-3.4,6.4-7.7,7.1-12.9h-24v-13.5h39.9v8.1Z"/>
          <path class="cls-3" d="M602.6,15.9v20h35.8v14.1h-35.8v31.8h-15.3V1.6h51.1v14.3h-35.8Z"/>
        </g>
        <rect class="cls-3" x="412.2" y="18.1" width="15.5" height="15.5"/>
      </g>
    </g>
  </g>
</svg>