<?xml version="1.0" encoding="UTF-8"?>
<svg id="Layer_2" data-name="Layer 2" xmlns="http://www.w3.org/2000/svg" viewBox="0 0 687.9 128.5">
  <defs>
    <style>
      .cls-1 {
        fill: #d1451e;
      }

      .cls-1, .cls-2, .cls-3, .cls-4 {
        stroke-width: 0px;
      }

      .cls-2 {
        fill: #d74a2a;
      }

      .cls-3 {
        fill: #010101;
      }

      .cls-4 {
        fill: #fff;
      }
    </style>
  </defs>
  <g id="Layer_1-2" data-name="Layer 1">
    <g>
      <g>
        <g>
          <rect class="cls-2" y="24.2" width="80.1" height="80.1"/>
          <path class="cls-4" d="M61.4,40.4v28.1c0,6.3-1.9,11.4-5.6,15.2-3.7,3.8-9,5.7-15.7,5.7s-12-1.9-15.8-5.7c-3.7-3.8-5.6-8.9-5.6-15.2v-28.1h11.5v27.9c0,3.2.8,5.8,2.5,7.7,1.7,2,4.1,3,7.3,3s5.6-1,7.3-3c1.7-2,2.5-4.5,2.5-7.7v-27.9h11.5Z"/>
          <rect class="cls-2" x="88.2" y="24.2" width="80.1" height="80.1"/>
          <rect class="cls-2" x="176.4" y="24.2" width="80.1" height="80.1"/>
          <rect class="cls-2" x="264.5" y="24.2" width="80.1" height="80.1"/>
          <polygon class="cls-4" points="153.8 40.2 153.8 88.3 142.4 88.3 142.4 60.1 128.3 79.4 114.2 60.1 114.2 88.3 102.8 88.3 102.8 40.2 113.6 40.2 128.3 61.6 142.9 40.2 153.8 40.2"/>
          <path class="cls-4" d="M221.8,77.3c1.3-1.3,2-3,2-5.1s-.7-3.7-2-5c-1.3-1.4-3.1-2-5.4-2s-4,.7-5.3,2c-1.4,1.3-2.1,3-2.1,5.1s.7,3.8,2,5.1c1.4,1.3,3.2,2,5.4,2s4-.7,5.4-2M230.4,60.4c3.2,3.1,4.8,7,4.8,11.7s-1.8,9.1-5.3,12.4-8,4.9-13.4,4.9-9.8-1.6-13.4-4.9c-3.6-3.3-5.4-7.4-5.4-12.4s1.1-6.6,3.4-10.2l13.6-21.6h12.8l-9.4,14.9c5,.4,9.1,2.1,12.2,5.2"/>
          <path class="cls-4" d="M311.8,62.5c1.3-1.4,1.9-3.1,1.9-4.9s-.6-3.5-1.8-4.9c-1.2-1.4-2.8-2.1-4.6-2.1h-11.6v14.1h11.1c2,0,3.7-.7,5-2.1M320,45.5c3.2,3.5,4.8,7.5,4.8,12s-1.6,8.6-4.8,12.1c-3.2,3.5-7.5,5.3-12.9,5.3h-11.4v13.4h-11.3v-48.1h23.1c5.1,0,9.3,1.8,12.5,5.3"/>
        </g>
        <rect class="cls-1" x="384.9" y="24.2" width="1" height="80.2"/>
      </g>
      <g id="Layer_1-2" data-name="Layer 1-2">
        <g>
          <g>
            <path class="cls-3" d="M479.8,45.7c.5,0,1,.2,1.5.3l2.7-25.9c-.5,0-1-.2-1.5-.2-.2,0-.5,0-.8,0l1.9-18.5c.2-.1.3-.3.4-.5,0-.4-.2-.7-.6-.8s-.7.2-.8.6c0,.2,0,.4.2.6l-4.6,44.2c.5,0,1,.1,1.5.2h0Z"/>
            <path class="cls-3" d="M469.7,1.3l4.7,44.2c.5,0,1,0,1.5,0,.5,0,1,0,1.5,0l-2.8-25.9c-.5,0-1,0-1.5,0-.2,0-.5,0-.8,0l-2-18.5c.2-.1.3-.4.2-.6,0-.4-.4-.6-.8-.6-.4,0-.7.4-.6.8,0,.2.2.4.4.5h0Z"/>
            <path class="cls-3" d="M456.8,4l13.8,42.3c.5-.2,1-.3,1.5-.4.5-.1,1-.2,1.5-.3l-8.1-24.8c-.5.1-1,.3-1.5.4-.2,0-.5.1-.7.2l-5.8-17.7c.1-.2.2-.4.1-.6-.1-.4-.5-.6-.9-.4s-.6.5-.4.9c0,.2.3.4.5.4h0Z"/>
            <path class="cls-3" d="M444.7,9.4l22.3,38.5c.4-.3.9-.5,1.3-.7.5-.2.9-.4,1.4-.6l-13-22.5c-.5.2-.9.5-1.3.7-.2.1-.4.2-.7.4l-9.3-16.1c0-.2.1-.4,0-.6-.2-.3-.6-.4-.9-.2-.3.2-.4.6-.2.9.1.2.3.3.5.3h0Z"/>
            <path class="cls-3" d="M434,17.2l12.4,13.8h0l17.3,19.2c.4-.3.8-.7,1.2-1s.8-.6,1.2-.9l-17.4-19.3c-.4.3-.8.6-1.2,1-.2.2-.4.3-.6.5l-12.5-13.8c0-.2,0-.5-.1-.6-.2-.3-.7-.3-1,0-.3.2-.3.7,0,1,.2.2.4.2.6.2h0Z"/>
            <path class="cls-3" d="M425.1,27.1l15.1,10.9h0l21,15.2c.3-.4.6-.8.9-1.2.3-.4.7-.8,1-1.1l-21.1-15.3c-.3.4-.6.8-1,1.2-.1.2-.3.4-.5.6l-15.1-10.9c0-.2,0-.4-.3-.6-.3-.2-.7-.1-1,.1s-.1.7.1,1c.2.1.4.1.6,0h0Z"/>
            <path class="cls-3" d="M417.9,38.6c.2,0,.4,0,.6,0l40.7,18c.2-.5.4-.9.7-1.3.2-.5.5-.9.8-1.3l-23.8-10.6c-.2.4-.5.9-.7,1.3s-.2.5-.3.7l-17-7.5c0-.2-.2-.4-.4-.5-.3-.2-.8,0-.9.3-.2.3,0,.8.3.9h0Z"/>
            <path class="cls-3" d="M413.8,51.3c.2,0,.5,0,.6-.2l43.5,9.2c.1-.5.2-1,.4-1.5.1-.5.3-1,.5-1.4l-25.5-5.4c-.1.5-.3,1-.4,1.5,0,.2-.1.5-.2.7l-18.2-3.8c0-.2-.2-.4-.5-.4-.4,0-.7.2-.8.5,0,.4.2.7.5.8h0Z"/>
            <path class="cls-3" d="M431.7,64.3h25.9c0-.5,0-1,0-1.5,0-.5,0-1,.2-1.5h-26c0,.5,0,1,0,1.5,0,.2,0,.5,0,.8h-18.6c-.1-.2-.3-.3-.6-.3-.4,0-.7.3-.7.7s.3.7.7.7.4-.1.6-.3h18.6Z"/>
            <path class="cls-3" d="M458,68.2c-.1-.5-.2-1-.3-1.5,0-.5-.1-1-.1-1.5l-25.5,5.4c0,.5.1,1,.2,1.5,0,.2.1.5.1.7l-18.2,3.9c-.2-.2-.4-.2-.6-.2-.4,0-.6.4-.5.8s.4.6.8.5c.2,0,.4-.2.5-.4l43.5-9.3Z"/>
            <path class="cls-3" d="M459.2,71.9c-.2-.5-.4-.9-.6-1.4-.2-.5-.3-1-.5-1.4l-23.8,10.6c.2.5.4.9.5,1.4,0,.2.2.5.3.7l-17,7.6c-.2-.1-.4-.2-.6,0-.3.2-.5.6-.3.9.2.3.6.5.9.3.2,0,.3-.3.4-.5l40.6-18.1h0Z"/>
            <path class="cls-3" d="M461.2,75.3c-.3-.4-.6-.8-.8-1.3-.3-.4-.5-.9-.7-1.3l-21,15.3c.3.4.5.8.8,1.3.1.2.3.4.4.6l-15,10.9c-.2,0-.4,0-.6,0-.3.2-.4.7-.1,1,.2.3.6.4,1,.2.2-.1.3-.4.3-.6l36-26.2h0Z"/>
            <path class="cls-3" d="M446.5,97.5h0l17.3-19.3c-.4-.3-.7-.7-1.1-1.1-.3-.4-.7-.8-1-1.1l-17.4,19.4c.3.4.7.7,1.1,1.1.2.2.4.3.5.5l-12.4,13.8c-.2,0-.5,0-.6.2-.2.3-.2.7,0,1,.3.2.7.2,1,0,.2-.2.2-.4.1-.6l12.4-13.8h0Z"/>
            <path class="cls-3" d="M454.1,103l12.9-22.4c-.4-.2-.9-.5-1.3-.8-.4-.3-.8-.6-1.2-.9l-13,22.6c.4.3.8.6,1.3.8.2.1.4.3.7.4l-9.3,16.1c-.2,0-.4.1-.5.3-.2.3,0,.8.2.9.3.2.8,0,.9-.2.1-.2.1-.4,0-.6l9.3-16.1h0Z"/>
            <path class="cls-3" d="M470.6,82.2c-.5-.2-1-.3-1.4-.5-.5-.2-.9-.4-1.4-.6l-8,24.8c.5.2.9.4,1.4.5.2,0,.5.2.7.2l-5.7,17.7c-.2,0-.4.2-.5.4-.1.4,0,.8.4.9.4.1.8,0,.9-.4,0-.2,0-.5-.1-.6l13.7-42.3h0Z"/>
            <path class="cls-3" d="M473,82.8c-.5,0-1-.2-1.5-.3l-2.7,25.9c.5,0,1,.2,1.5.2h.8c0,0-1.9,18.6-1.9,18.6-.2,0-.3.3-.4.5,0,.4.2.7.6.8s.7-.2.8-.6c0-.2,0-.4-.2-.6l4.6-44.2c-.5,0-1-.1-1.5-.2h0Z"/>
            <path class="cls-3" d="M483.1,127.2l-4.7-44.2c-.5,0-1,0-1.5,0-.5,0-1,0-1.5,0l2.7,25.9c.5,0,1,0,1.5,0,.2,0,.5,0,.8,0l2,18.5c-.2.1-.3.3-.2.6,0,.4.4.7.8.6.4,0,.7-.4.6-.8,0-.2-.2-.4-.4-.5h0Z"/>
            <path class="cls-3" d="M496,124.4l-5.8-17.7h0l-8-24.6c-.5.2-1,.3-1.4.4-.5.1-1,.2-1.5.3l8.1,24.8c.5-.1,1-.3,1.5-.4.2,0,.5-.2.7-.2l5.8,17.7c-.1.2-.2.4-.1.6.1.4.5.6.9.4.4-.1.6-.5.4-.9,0-.2-.3-.4-.5-.4h0Z"/>
            <path class="cls-3" d="M508.1,119l-22.3-38.5c-.4.3-.9.5-1.3.7-.5.2-.9.4-1.4.6l13,22.5c.4-.2.9-.4,1.3-.7.2-.1.4-.2.7-.4l9.3,16.1c0,.2-.1.4,0,.6.2.3.6.4.9.2s.4-.6.2-.9c-.1-.2-.3-.3-.6-.3h0Z"/>
            <path class="cls-3" d="M518.8,111.2l-12.4-13.8h0l-17.3-19.2c-.4.3-.8.7-1.2,1s-.8.6-1.2.9l17.4,19.3c.4-.3.8-.6,1.2-1,.2-.2.4-.3.6-.5l12.5,13.8c0,.2,0,.4.1.6.2.3.7.3,1,0,.3-.3.3-.7,0-1-.2-.2-.4-.2-.6-.2h0Z"/>
            <path class="cls-3" d="M527.7,101.4l-36-26.1c-.3.4-.6.8-.9,1.2-.3.4-.7.8-1,1.1l21.1,15.3c.3-.4.6-.8.9-1.2.2-.2.3-.4.4-.6l15.1,10.9c0,.2,0,.4.3.6.3.2.7.2,1-.2.2-.3.2-.7-.2-1-.2-.1-.4-.2-.6,0h0Z"/>
            <path class="cls-3" d="M528.8,26.5c-.2-.3-.7-.4-1-.1-.2.1-.3.4-.3.6l-15,10.9h0l-20.9,15.2c.3.4.6.8.8,1.3.3.4.5.9.7,1.3l21.1-15.3c-.3-.4-.5-.8-.8-1.3-.1-.2-.3-.4-.4-.6l15-11c.2,0,.4,0,.6,0,.3-.2.4-.6.2-1h0Z"/>
            <path class="cls-3" d="M506.3,31h0l-17.3,19.3c.4.3.7.7,1.1,1,.3.4.7.8,1,1.1l17.4-19.4c-.3-.4-.7-.7-1.1-1.1-.2-.2-.4-.3-.6-.5l12.4-13.8c.2,0,.4,0,.6-.2.2-.3.2-.7,0-1-.3-.2-.7-.2-1,0-.2.2-.2.4-.1.6l-12.4,13.8h0Z"/>
            <path class="cls-3" d="M498.7,25.5l-12.9,22.4c.4.2.9.5,1.3.8.4.3.8.6,1.2.9l13-22.6c-.4-.3-.8-.5-1.3-.8-.2-.1-.4-.3-.7-.4l9.3-16.1c.2,0,.4-.1.6-.3.2-.3,0-.8-.2-.9s-.8,0-.9.2c-.1.2-.1.4,0,.6l-9.3,16.1h0Z"/>
            <path class="cls-3" d="M482.2,46.3c.5.2,1,.3,1.4.5.5.2.9.4,1.4.6l8-24.8c-.5-.2-.9-.4-1.4-.5-.2,0-.5-.2-.7-.2l5.7-17.7c.2,0,.4-.2.5-.4.1-.4,0-.8-.4-.9s-.8,0-.9.4c0,.2,0,.5.1.6l-13.7,42.3h0Z"/>
          </g>
          <g>
            <path class="cls-3" d="M560.8,54.5c-.6,4.1-4.5,7-9.2,7s-9.9-4.2-9.9-9.9,4.2-9.9,9.9-9.9,8.5,3,9.2,7.2l-4.1.5c-.5-2.3-2.6-3.9-5-3.9s-5.6,2.5-5.6,6.2,2.3,6.2,5.6,6.2,4.4-1.6,5-3.8l4.1.5h0Z"/>
            <path class="cls-3" d="M570.5,61.4c-4.4,0-7.4-2.9-7.4-7.2s3-7.2,7.4-7.2,7.4,2.9,7.4,7.2-3,7.2-7.4,7.2ZM570.5,50.5c-2,0-3.5,1.6-3.5,3.7s1.5,3.7,3.5,3.7,3.5-1.6,3.5-3.7-1.5-3.7-3.5-3.7Z"/>
            <path class="cls-3" d="M584.6,60.9h-3.9v-19.3h3.9v19.3Z"/>
            <path class="cls-3" d="M591.8,60.9h-3.9v-19.3h3.9v19.3Z"/>
            <path class="cls-3" d="M605.1,56.7l3.4.8c-.7,2.3-3.4,4-6.6,4s-7.3-3-7.3-7.3,3-7.1,7.3-7.1,7.2,2.9,7.2,7.1,0,.9,0,1.2h-10.4c.3,1.8,1.6,3.1,3.4,3.1s2.6-.8,3.1-1.8h0ZM605.1,53c-.2-1.7-1.5-2.9-3.3-2.9s-2.9,1.2-3.2,2.9h6.6Z"/>
            <path class="cls-3" d="M615.4,62c.4,1.3,1.7,2.3,3.2,2.3s3.4-1.3,3.4-3.7v-1.6c-1,1.3-2.6,2-4.4,2-3.7,0-6.3-2.8-6.3-6.8s2.6-7.2,6.3-7.2,3.4.8,4.4,2.1v-1.6h3.9v13.2c0,4.1-2.9,6.7-7.1,6.7s-6.3-2-6.9-4.9l3.5-.5h0ZM622.1,54.2c0-2.2-1.5-3.7-3.5-3.7s-3.5,1.6-3.5,3.7,1.5,3.6,3.5,3.6,3.5-1.5,3.5-3.6Z"/>
            <path class="cls-3" d="M639.2,56.7l3.4.8c-.7,2.3-3.4,4-6.6,4s-7.3-3-7.3-7.3,3-7.1,7.3-7.1,7.2,2.9,7.2,7.1,0,.9,0,1.2h-10.4c.3,1.8,1.6,3.1,3.4,3.1s2.6-.8,3.1-1.8h0ZM639.2,53c-.2-1.7-1.5-2.9-3.3-2.9s-2.9,1.2-3.2,2.9h6.6Z"/>
            <path class="cls-3" d="M660.4,61.4c-4,0-6.9-2.9-6.9-7s2.9-7.1,6.9-7.1,6.9,3,6.9,7.1-2.9,7-6.9,7ZM660.4,48.6c-3.2,0-5.5,2.4-5.5,5.7s2.3,5.7,5.5,5.7,5.5-2.4,5.5-5.7-2.3-5.7-5.5-5.7Z"/>
            <path class="cls-3" d="M677.1,42.9c-.4-.1-1.1-.2-1.6-.2-1.2,0-2,.8-2,2.2v2.9h3.5v1.2h-3.5v11.8h-1.4v-11.8h-2.2v-1.2h2.2v-3c0-2.2,1.3-3.5,3.2-3.5s1.4.1,1.9.3v1.3Z"/>
            <path class="cls-3" d="M560.8,80.5c-.6,4.1-4.5,7-9.2,7s-9.9-4.2-9.9-9.9,4.2-9.9,9.9-9.9,8.5,3,9.2,7.2l-4.1.5c-.5-2.3-2.6-3.9-5-3.9s-5.6,2.6-5.6,6.2,2.3,6.2,5.6,6.2,4.4-1.6,5-3.8l4.1.5h0Z"/>
            <path class="cls-3" d="M570.5,87.4c-4.4,0-7.4-2.9-7.4-7.2s3-7.2,7.4-7.2,7.4,2.9,7.4,7.2-3,7.2-7.4,7.2ZM570.5,76.5c-2,0-3.5,1.6-3.5,3.7s1.5,3.7,3.5,3.7,3.5-1.6,3.5-3.7-1.5-3.7-3.5-3.7Z"/>
            <path class="cls-3" d="M580.7,73.6h3.7v1.6c.8-1.3,2.3-2.1,3.9-2.1s3.5.9,4.3,2.4c.9-1.5,2.6-2.3,4.5-2.3,3,0,5.1,2.2,5.1,5.4v8.4h-3.9v-7.6c0-1.6-1-2.8-2.5-2.8-1.5,0-2.5,1.2-2.5,2.8v7.6h-3.9v-7.6c0-1.7-.9-2.8-2.4-2.8s-2.4,1.1-2.4,2.8v7.6h-3.9v-13.3Z"/>
            <path class="cls-3" d="M609.3,92.9h-3.9v-19.3h3.9v1.6c1-1.3,2.6-2.1,4.4-2.1,3.7,0,6.3,3,6.3,7.2s-2.6,7.2-6.3,7.2-3.4-.8-4.4-2.1v7.6h0ZM612.6,76.6c-2,0-3.5,1.6-3.5,3.7s1.5,3.7,3.5,3.7,3.5-1.6,3.5-3.7-1.5-3.7-3.5-3.7Z"/>
            <path class="cls-3" d="M622.5,81.9v-8.3h3.9v7.6c0,1.6.9,2.8,2.5,2.8s2.8-1.2,2.8-2.9v-7.5h3.9v13.3h-3.8v-1.8c-.9,1.4-2.5,2.3-4.2,2.3-3,0-5-2.3-5-5.5h0Z"/>
            <path class="cls-3" d="M639.9,76.5h-1.9v-3h2.1l.4-3.3h3.3v3.3h3v3h-3v5.6c0,1.1.7,1.9,1.8,1.9s.9,0,1.4-.2v3.1c-.8.3-1.9.4-2.7.4-2.6,0-4.4-2-4.4-4.8v-6h0Z"/>
            <path class="cls-3" d="M652,67.4c1.3,0,2.3.9,2.3,2.2s-.9,2.2-2.3,2.2-2.3-.9-2.3-2.2.9-2.2,2.3-2.2ZM654,86.9h-3.9v-13.3h3.9v13.3Z"/>
            <path class="cls-3" d="M670.7,78.6v8.3h-3.9v-7.6c0-1.6-.9-2.8-2.5-2.8s-2.8,1.2-2.8,2.9v7.5h-3.9v-13.3h3.8v1.8c.9-1.4,2.5-2.3,4.2-2.3,3,0,5,2.3,5,5.5h0Z"/>
            <path class="cls-3" d="M677.4,88c.4,1.3,1.7,2.3,3.2,2.3s3.4-1.3,3.4-3.7v-1.6c-1,1.3-2.5,2-4.4,2-3.7,0-6.3-2.8-6.3-6.8s2.6-7.2,6.3-7.2,3.4.8,4.4,2.1v-1.6h3.9v13.2c0,4.1-2.9,6.7-7.1,6.7s-6.3-2-6.9-4.9l3.5-.6h0ZM684.1,80.2c0-2.2-1.5-3.7-3.5-3.7s-3.5,1.6-3.5,3.7,1.5,3.6,3.5,3.6,3.5-1.5,3.5-3.6Z"/>
          </g>
        </g>
      </g>
    </g>
  </g>
</svg>