<?xml version="1.0" encoding="UTF-8"?>
<svg id="Layer_2" data-name="Layer 2" xmlns="http://www.w3.org/2000/svg" viewBox="0 0 610.8 80.2">
  <defs>
    <style>
      .cls-1 {
        fill: #d1451e;
      }

      .cls-1, .cls-2, .cls-3, .cls-4 {
        stroke-width: 0px;
      }

      .cls-2 {
        fill: #f55621;
      }

      .cls-3 {
        fill: #d74a2a;
      }

      .cls-4 {
        fill: #fff;
      }
    </style>
  </defs>
  <g id="Layer_1-2" data-name="Layer 1">
    <g>
      <g>
        <g>
          <rect class="cls-3" y="0" width="80.1" height="80.1"/>
          <path class="cls-4" d="M61.4,16.2v28.1c0,6.3-1.9,11.4-5.6,15.2-3.7,3.8-9,5.7-15.7,5.7s-12-1.9-15.8-5.7c-3.7-3.8-5.6-8.9-5.6-15.2v-28.1h11.5v27.9c0,3.2.8,5.8,2.5,7.7,1.7,2,4.1,3,7.3,3s5.6-1,7.3-3c1.7-2,2.5-4.5,2.5-7.7v-27.9h11.5Z"/>
          <rect class="cls-3" x="88.2" y="0" width="80.1" height="80.1"/>
          <rect class="cls-3" x="176.4" y="0" width="80.1" height="80.1"/>
          <rect class="cls-3" x="264.5" y="0" width="80.1" height="80.1"/>
          <polygon class="cls-4" points="153.8 16 153.8 64.1 142.4 64.1 142.4 36 128.3 55.3 114.2 36 114.2 64.1 102.8 64.1 102.8 16 113.6 16 128.3 37.4 142.9 16 153.8 16"/>
          <path class="cls-4" d="M221.8,53.1c1.3-1.3,2-3,2-5.1s-.7-3.7-2-5c-1.3-1.4-3.1-2-5.4-2s-4,.7-5.3,2c-1.4,1.3-2.1,3-2.1,5.1s.7,3.8,2,5.1c1.4,1.3,3.2,2,5.4,2s4-.7,5.4-2M230.4,36.3c3.2,3.1,4.8,7,4.8,11.7s-1.8,9.1-5.3,12.4-8,4.9-13.4,4.9-9.8-1.6-13.4-4.9c-3.6-3.3-5.4-7.4-5.4-12.4s1.1-6.6,3.4-10.2l13.6-21.6h12.8l-9.4,14.9c5,.4,9.1,2.1,12.2,5.2"/>
          <path class="cls-4" d="M311.8,38.4c1.3-1.4,1.9-3.1,1.9-4.9s-.6-3.5-1.8-4.9c-1.2-1.4-2.8-2.1-4.6-2.1h-11.6v14.1h11.1c2,0,3.7-.7,5-2.1M320,21.3c3.2,3.5,4.8,7.5,4.8,12s-1.6,8.6-4.8,12.1c-3.2,3.5-7.5,5.3-12.9,5.3h-11.4v13.4h-11.3V16h23.1c5.1,0,9.3,1.8,12.5,5.3"/>
        </g>
        <rect class="cls-1" x="384.9" width="1" height="80.2"/>
      </g>
      <g>
        <g>
          <path class="cls-2" d="M585.4,56.3h-3.3v23.4h3.3v-23.4ZM569.9,77.2c-2.9,0-5.3-2.3-5.3-5.4s2.4-5.4,5.3-5.4,5.3,2.3,5.3,5.4-2.4,5.4-5.3,5.4M569.9,80.2c4.5,0,8.6-3.4,8.6-8.5s-4.1-8.5-8.6-8.5-8.6,3.4-8.6,8.5,4.1,8.5,8.6,8.5M550.2,77.2c-2.9,0-5.3-2.3-5.3-5.4s2.4-5.4,5.3-5.4,5.3,2.3,5.3,5.4-2.4,5.4-5.3,5.4M550.2,80.2c4.5,0,8.6-3.4,8.6-8.5s-4.1-8.5-8.6-8.5-8.6,3.4-8.6,8.5,4.1,8.5,8.6,8.5M526.9,79.8v-9.4c0-2.8,1.6-4.2,4.1-4.2s4.1,1.5,4.1,4.2v9.4h3.3v-9.9c0-4.1-2.6-6.6-6.3-6.6s-4.1,1-5.1,2.6v-9.5h-3.3v23.4h3.3ZM515,80.2c2.1,0,3.7-.5,5.2-1.5l-1.2-2.9c-.9.8-2.1,1.4-3.4,1.4-3.3,0-5.8-2.3-5.8-5.4s2.3-5.5,5.6-5.5l4.3,1.5v-3.3c-1.3-.6-2.9-1.1-4.6-1.1-4.5,0-8.6,3.4-8.6,8.5s4.1,8.5,8.6,8.5M496,80.2c4.6,0,7.7-2.6,7.7-6.6,0-7.7-10.6-6.7-10.6-11.5s1.3-3,3.5-3l6,2.2v-3.7c-1.7-.8-3.9-1.6-6-1.6-4,0-6.9,2.5-6.9,6.1,0,7.9,10.6,6.2,10.6,11.5s-1.7,3.5-4.4,3.5l-6.4-2.3v3.7c2.2,1,4.2,1.7,6.5,1.7"/>
          <path class="cls-2" d="M604.9,52c3.6,0,5.8-1.8,5.8-4.9,0-5.7-7.5-4.5-7.5-7.7s.7-1.7,2-1.7l4.7,1.7v-3.3c-1.3-.7-3-1.2-4.7-1.2-3.1,0-5.2,1.7-5.2,4.4,0,5.8,7.5,4.4,7.5,7.8s-.9,2.1-2.4,2.1h-.2l-4.9-1.8v3.2c1.3.7,3.2,1.3,4.9,1.3M591.1,52c3.6,0,5.8-1.8,5.8-4.9,0-5.7-7.5-4.5-7.5-7.7s.7-1.7,2-1.7l4.7,1.7v-3.3c-1.3-.7-3-1.2-4.7-1.2-3.1,0-5.2,1.7-5.2,4.4,0,5.8,7.5,4.4,7.5,7.8s-.9,2.1-2.4,2.1h-.2l-4.9-1.8v3.2c1.3.7,3.2,1.3,4.9,1.3M576,38c2.5,0,4.4,1.4,4.7,3.9h-9.4c.4-2.6,2.2-3.9,4.7-3.9M576.4,52c2.3,0,4.4-.8,5.8-1.8v-3.1l-5.5,2.1c-3.1,0-5.3-1.6-5.6-4.5h12.3v-3.1c-.7-3.9-3.6-6.5-7.7-6.5s-8,3.5-8,8.5,3.4,8.5,8.7,8.5M552.9,51.6v-9.4c0-2.8,1.6-4.2,4.1-4.2s4.1,1.5,4.1,4.2v9.4h3.3v-9.9c0-4.1-2.6-6.6-6.3-6.6s-4.4,1.1-5.4,3v-2.6h-3.1v16.1h3.3ZM544.8,28.2h-3.3v3.5h3.3v-3.5ZM544.8,35.5h-3.3v16.1h3.3v-16.1ZM531.8,52c3.6,0,5.8-1.8,5.8-4.9,0-5.7-7.5-4.5-7.5-7.7s.7-1.7,2-1.7l4.7,1.7v-3.3c-1.3-.7-3-1.2-4.7-1.2-3.1,0-5.2,1.7-5.2,4.4,0,5.8,7.5,4.4,7.5,7.8s-.9,2.1-2.4,2.1h-.2l-4.9-1.8v3.2c1.3.7,3.2,1.3,4.9,1.3M516,52c4.6,0,7.1-2.7,7.1-6.6v-9.9h-3.3v9.5c0,2.3-1.1,4-3.8,4s-3.7-1.6-3.7-4v-9.5h-3.3v9.9c0,4,2.5,6.6,7,6.6M497.1,31.4c2.1,0,3.8,1.1,3.8,3.4s-1.7,3.4-3.8,3.4h-4.2v-6.8h4.2ZM498.2,41.3c2.3,0,4.1,1.2,4.1,3.6s-1.8,3.6-4.1,3.6h-5.3v-7.1h5.3ZM498.3,51.6c4.7,0,7.3-2.8,7.3-6.5s-1.4-4.9-4.1-5.9c1.8-1.1,2.7-2.8,2.7-5,0-3.4-2.5-6-7-6h-7.8v23.4h8.8Z"/>
          <path class="cls-2" d="M568.6,20.8c-2.9,0-5.2-2.3-5.2-5.4s2.3-5.4,5.2-5.4,5.2,2.3,5.2,5.4-2.3,5.4-5.2,5.4M578.2,23.4l-1-3.6V7.3h-3.1v2.5c-1.5-1.8-3.6-2.9-5.8-2.9-4.4,0-8.3,3.4-8.3,8.5s3.9,8.5,8.3,8.5,4.4-1.1,5.9-2.9l.7,2.5h3.3ZM553.1,23.8c2.1,0,3.7-.5,5.2-1.5l-1.2-2.9c-.9.8-2.1,1.4-3.4,1.4-3.3,0-5.8-2.3-5.8-5.4s2.3-5.5,5.6-5.5l4.3,1.5v-3.3c-1.3-.6-2.9-1.1-4.6-1.1-4.5,0-8.6,3.4-8.6,8.5s4.1,8.5,8.6,8.5M540.6,0h-3.3v3.5h3.3V0ZM540.6,7.3h-3.3v16.1h3.3V7.3ZM529,12.9c.8-1.9,2.1-2.6,4.5-2.6h.8v-3h-1.1c-2,0-3.5.6-4.5,2.3v-2.3h-3.1v16.1h3.3v-10.5ZM518.1,23.4v-13.1h4.6v-3h-4.6V2.7l4.6.3V0h-5.8c-1.4,0-2.1.7-2.1,2v5.3h-2.7v3h2.7v13.1h3.3ZM500.4,3.8l4.1,11.3h-8.1l4.1-11.3ZM493.3,23.4l1.9-5.2h10.4l1.9,5.2h3.8L502.4,0h-4.1l-8.8,23.4h3.8Z"/>
        </g>
        <g>
          <path class="cls-2" d="M459.9,13.4c4.5,2.2,7.6,4,11.8,6.6,2.4,1.5,4.3,3.3,5.9,5.4.9,1.3,1.6,2.7,2,4.3V0h-26.6c-.5,1.1-.7,2.3-.7,3.7,0,2.3.8,4.2,2.3,5.8,1.4,1.5,3.2,2.8,5.4,3.9Z"/>
          <path class="cls-2" d="M458.6,79.8h20.8v-43.3c-.3,1.2-.7,2.3-1.2,3.4h-9.2c.1-.2.3-.4.4-.7.8-1.3,1.1-2.8,1.1-4.5s-.8-4.1-2.3-5.6c-5-4.9-11.1-6.4-17-10.3-2.3-1.5-4.2-3.4-5.8-5.5-1.5-2.1-2.3-4.8-2.3-8.1s.3-3.7,1-5.3h-17.7v64.7l15.8-38.5h9.5l-16.5,40.2h-8.8v13.3h21.7c2.9-2.1,4.8-5.4,4.8-9.2,0-5.9-4.5-10.7-10.3-11.3,5.8-.6,11.4-5.4,11.4-11.3s-1.9-5.8-3.9-7.8h9.8c2.1,2.1,3.3,4.9,3.3,8,0,5.9-4.5,10.7-10.3,11.3,5.8.6,10.3,5.4,10.3,11.3s-1.8,7-4.6,9.1Z"/>
        </g>
      </g>
    </g>
  </g>
</svg>