<?xml version="1.0" encoding="UTF-8"?>
<svg id="Layer_2" data-name="Layer 2" xmlns="http://www.w3.org/2000/svg" viewBox="0 0 682.3 89.5">
  <defs>
    <style>
      .cls-1 {
        fill: #d74a2a;
      }

      .cls-1, .cls-2, .cls-3 {
        stroke-width: 0px;
      }

      .cls-2 {
        fill: #cf4a34;
      }

      .cls-3 {
        fill: #3b3b3c;
      }
    </style>
  </defs>
  <g id="Layer_1-2" data-name="Layer 1">
    <g>
      <g>
        <path class="cls-1" d="M0,80.1h80.1V0H0v80.1ZM18.7,16.2h11.5v27.9c0,3.2.8,5.8,2.5,7.7,1.7,2,4.1,2.9,7.3,2.9s5.6-1,7.3-2.9c1.7-2,2.5-4.6,2.5-7.7v-27.9h11.5v28.1c0,6.3-1.9,11.4-5.6,15.2-3.7,3.8-9,5.7-15.7,5.7s-12-1.9-15.8-5.7c-3.7-3.8-5.6-8.9-5.6-15.2v-28.1Z"/>
        <path class="cls-1" d="M88.2,80.1h80.1V0h-80.1v80.1ZM102.8,16h10.8l14.7,21.4,14.6-21.4h10.9v48.1h-11.4v-28.2l-14.1,19.3-14.1-19.3v28.2h-11.4V16Z"/>
        <path class="cls-1" d="M176.4,80.1h80.1V0h-80.1v80.1ZM201.1,37.8l13.6-21.6h12.8l-9.4,14.9c5,.4,9.1,2.1,12.2,5.2,3.2,3.1,4.8,7,4.8,11.7s-1.8,9.1-5.3,12.4c-3.6,3.3-8,4.9-13.4,4.9s-9.8-1.6-13.4-4.9c-3.6-3.3-5.4-7.4-5.4-12.4s1.1-6.6,3.4-10.2Z"/>
        <path class="cls-2" d="M216.5,55.1c2.2,0,4-.7,5.4-2,1.3-1.3,2-3,2-5.1s-.7-3.7-2-5c-1.3-1.4-3.1-2-5.4-2s-4,.7-5.3,2c-1.4,1.3-2.1,3-2.1,5.1s.7,3.8,2,5.1c1.4,1.3,3.2,2,5.4,2Z"/>
        <path class="cls-1" d="M264.5,80.1h80.1V0h-80.1v80.1ZM284.4,16h23.1c5.1,0,9.3,1.8,12.5,5.3,3.2,3.5,4.8,7.5,4.8,12s-1.6,8.6-4.8,12.1c-3.2,3.5-7.5,5.3-12.9,5.3h-11.4v13.4h-11.3V16Z"/>
        <path class="cls-2" d="M311.8,38.4c1.3-1.4,1.9-3.1,1.9-4.9s-.6-3.5-1.8-4.9c-1.2-1.4-2.8-2.1-4.6-2.1h-11.6v14.1h11.1c2,0,3.7-.7,5-2.1Z"/>
        <rect class="cls-1" x="384.9" width="1" height="80.2"/>
      </g>
      <g>
        <g>
          <path class="cls-3" d="M439.2,6.8c-2.9-2.9-4.4-4.5-4.5-6.8h-9c0,4.5,2.6,7.7,6.9,11.8,3.8,3.6,4.8,5.6,4.8,7.9,0,5.4-6.5,5.4-7.5,5.4h-5.3l2,7.7h3.2c10,0,16.1-5,16.1-13.4s-2.1-8-6.8-12.6Z"/>
          <path class="cls-3" d="M448.3,20c0-7.6,5.5-12.7,12.9-12.7s13.1,5.1,13.1,12.7-5.6,12.8-13.3,12.8h-.9l-2-7.5h2.3c3.5,0,5.9-2.1,5.9-5.3s-1.9-5.1-5-5.1-5.1,1.9-5.1,5.4v21.8h-7.9v-22.1Z"/>
          <path class="cls-3" d="M476.2,20.3c0-7.6,5.6-13,13.3-13s13.3,5.5,13.3,13-5.6,13-13.3,13-13.3-5.5-13.3-13ZM489.5,25.8c3.3,0,5.3-2.5,5.3-5.4s-2-5.4-5.3-5.4-5.3,2.5-5.3,5.4,2,5.4,5.3,5.4Z"/>
          <path class="cls-3" d="M515.4,7.9h3.5v7.5h-2.6c-2,0-3,1.2-3,3.1v14.3h-7.9v-14.9c0-5.9,3.3-9.9,10-9.9Z"/>
          <path class="cls-3" d="M521.1,22.8V2.9h7.9v5h6.4v7.5h-6.4v6.3c0,2.1.9,3.5,3.5,3.5h3.8l-2,7.5h-3.1c-6.8,0-10-4-10-9.9Z"/>
          <path class="cls-3" d="M537.8,25.2h4.9c2.9,0,4.5-1,4.5-2.6s-1.9-3-4-4.8c-3.6-3-5.9-5.8-4.8-10h8.3c-.4,2.2.8,3.2,3.6,5.6,3.1,2.7,5,5.1,5,9.1,0,6.7-5.2,10.1-12.5,10.1h-2.9l-2-7.5Z"/>
        </g>
        <g>
          <path class="cls-3" d="M426,45.5h12.5c11.1,0,18.3,6.9,18.3,17.4s-7.1,17.2-17.6,17.2h-.8l-2-7.7h2.1c6,0,10-3.8,10-9.7s-4-9.6-10-9.6h-4.3v27h-8.1v-34.6Z"/>
          <path class="cls-3" d="M458.4,67.2c0-7.1,5.4-12.5,12.7-12.5s12.2,5.3,12.2,10.6-.5,3.1-1.4,4.8h-7.9c.7-1.1,1.3-2.4,1.3-3.7,0-2.4-1.9-4.1-4.2-4.1s-4.7,2-4.7,4.8,2.4,5.5,6.8,5.5h10.4l-2,7.5h-9.2c-7.9,0-14-5.4-14-12.9Z"/>
          <path class="cls-3" d="M486.1,67.4c0-7.6,5.5-12.7,12.9-12.7s13.1,5.1,13.1,12.7-5.6,12.8-13.3,12.8h-.9l-2-7.5h2.3c3.5,0,5.9-2.1,5.9-5.3s-1.9-5.1-5-5.1-5.1,1.9-5.1,5.4v21.8h-7.9v-22.1Z"/>
          <path class="cls-3" d="M513.9,67.4c0-7.6,5.6-12.7,13.1-12.7s12.9,5.1,12.9,12.7v12.8h-7.9v-12.4c0-3.5-2.4-5.4-5.1-5.4s-5,2.3-5,5.1,2.5,5.3,5.9,5.3h2.3l-2,7.5h-.9c-7.7,0-13.3-5.3-13.3-12.8Z"/>
          <path class="cls-3" d="M553.2,55.3h3.5v7.5h-2.6c-2,0-3,1.2-3,3.1v14.3h-7.9v-14.9c0-5.9,3.3-9.9,10-9.9Z"/>
          <path class="cls-3" d="M558.9,70.2v-19.9h7.9v5h6.4v7.5h-6.4v6.3c0,2.1.9,3.5,3.5,3.5h3.8l-2,7.5h-3.1c-6.8,0-10-4-10-9.9Z"/>
          <path class="cls-3" d="M586.3,54.6c3.2,0,5.5,1.2,7.4,3.1,1.8-1.8,4.1-3.1,7-3.1,5.3,0,10.1,3.7,10.1,10.1v15.4h-7.9v-14.8c0-1.6-1.1-2.9-2.7-2.9s-2.7,1.3-2.7,2.9v14.9h-7.9v-14.9c0-1.6-1.1-2.9-2.7-2.9s-2.7,1.3-2.7,2.9v14.9h-7.9v-15.5c0-6.4,4.9-10.1,10.1-10.1Z"/>
          <path class="cls-3" d="M613.3,67.2c0-7.1,5.4-12.5,12.7-12.5s12.2,5.3,12.2,10.6-.5,3.1-1.4,4.8h-7.9c.7-1.1,1.3-2.4,1.3-3.7,0-2.4-1.9-4.1-4.2-4.1s-4.7,2-4.7,4.8,2.4,5.5,6.8,5.5h10.4l-2,7.5h-9.2c-7.9,0-14-5.4-14-12.9Z"/>
          <path class="cls-3" d="M652.5,54.7c6.8,0,11.4,4.3,11.4,11.5v14h-7.9v-14c0-2.6-1.3-3.8-3.5-3.8s-3.5,1.3-3.5,3.8v14h-7.9v-14c0-7.1,4.6-11.5,11.4-11.5Z"/>
          <path class="cls-3" d="M667.2,70.2v-19.9h7.9v5h6.4v7.5h-6.4v6.3c0,2.1.9,3.5,3.5,3.5h3.8l-2,7.5h-3.1c-6.8,0-10-4-10-9.9Z"/>
        </g>
      </g>
    </g>
  </g>
</svg>