<?xml version="1.0" encoding="UTF-8"?>
<svg id="Layer_2" data-name="Layer 2" xmlns="http://www.w3.org/2000/svg" viewBox="0 0 607.7 84.3">
  <defs>
    <style>
      .cls-1 {
        fill: #d1451e;
      }

      .cls-1, .cls-2, .cls-3, .cls-4, .cls-5 {
        stroke-width: 0px;
      }

      .cls-2 {
        fill: #d74a2a;
      }

      .cls-3 {
        fill: #81888b;
      }

      .cls-4 {
        fill: #604a88;
      }

      .cls-5 {
        fill: #fff;
      }
    </style>
  </defs>
  <g id="Layer_1-2" data-name="Layer 1">
    <g>
      <g>
        <g>
          <rect class="cls-2" y="0" width="80.1" height="80.1"/>
          <path class="cls-5" d="M61.4,16.2v28.1c0,6.3-1.9,11.4-5.6,15.2-3.7,3.8-9,5.7-15.7,5.7s-12-1.9-15.8-5.7c-3.7-3.8-5.6-8.9-5.6-15.2v-28.1h11.5v27.9c0,3.2.8,5.8,2.5,7.7,1.7,2,4.1,3,7.3,3s5.6-1,7.3-3c1.7-2,2.5-4.5,2.5-7.7v-27.9h11.5Z"/>
          <rect class="cls-2" x="88.2" y="0" width="80.1" height="80.1"/>
          <rect class="cls-2" x="176.4" y="0" width="80.1" height="80.1"/>
          <rect class="cls-2" x="264.5" y="0" width="80.1" height="80.1"/>
          <polygon class="cls-5" points="153.8 16 153.8 64.1 142.4 64.1 142.4 36 128.3 55.3 114.2 36 114.2 64.1 102.8 64.1 102.8 16 113.6 16 128.3 37.4 142.9 16 153.8 16"/>
          <path class="cls-5" d="M221.8,53.1c1.3-1.3,2-3,2-5.1s-.7-3.7-2-5c-1.3-1.4-3.1-2-5.4-2s-4,.7-5.3,2c-1.4,1.3-2.1,3-2.1,5.1s.7,3.8,2,5.1c1.4,1.3,3.2,2,5.4,2s4-.7,5.4-2M230.4,36.3c3.2,3.1,4.8,7,4.8,11.7s-1.8,9.1-5.3,12.4-8,4.9-13.4,4.9-9.8-1.6-13.4-4.9c-3.6-3.3-5.4-7.4-5.4-12.4s1.1-6.6,3.4-10.2l13.6-21.6h12.8l-9.4,14.9c5,.4,9.1,2.1,12.2,5.2"/>
          <path class="cls-5" d="M311.8,38.4c1.3-1.4,1.9-3.1,1.9-4.9s-.6-3.5-1.8-4.9c-1.2-1.4-2.8-2.1-4.6-2.1h-11.6v14.1h11.1c2,0,3.7-.7,5-2.1M320,21.3c3.2,3.5,4.8,7.5,4.8,12s-1.6,8.6-4.8,12.1c-3.2,3.5-7.5,5.3-12.9,5.3h-11.4v13.4h-11.3V16h23.1c5.1,0,9.3,1.8,12.5,5.3"/>
        </g>
        <rect class="cls-1" x="384.9" width="1" height="80.2"/>
      </g>
      <g>
        <g>
          <path class="cls-3" d="M477.1,22.3c.5.1,1.1.3,1.7.4.6,0,1.3.1,2.1.1,2.1,0,3.9-.5,5.1-1.4,1.3-.9,1.9-2.3,1.9-4.1s-.2-1.7-.5-2.4c-.3-.6-.7-1.2-1.3-1.6-.5-.4-1.1-.8-1.8-1.2-.7-.3-1.4-.6-2.2-1-.6-.3-1.2-.5-1.8-.8-.5-.2-1-.5-1.4-.8-.4-.3-.7-.6-.9-1-.2-.4-.3-.9-.3-1.5s.1-1,.3-1.4.5-.7.9-1c.4-.3.8-.5,1.3-.6.5-.1,1.1-.2,1.7-.2.9,0,1.7.1,2.5.3.8.2,1.4.5,2,.9h.1c0,0,.8-1.8.8-1.8h0c-.3-.2-.6-.4-.9-.6-.4-.2-.8-.3-1.2-.4-.4-.1-.9-.2-1.5-.3-.5,0-1.1-.1-1.6-.1-2,0-3.6.4-4.7,1.3-1.1.9-1.7,2.2-1.7,3.9s.1,1.4.4,2c.2.6.6,1.1,1.1,1.5.5.4,1,.8,1.7,1.2.6.3,1.4.7,2.2,1,.6.3,1.3.5,1.8.7.6.2,1.1.5,1.5.8.4.3.8.7,1.1,1.2.3.5.4,1,.4,1.7,0,1.2-.4,2.1-1.2,2.6-.8.5-2,.8-3.5.8s-1.3,0-1.8-.1c-.5,0-1-.2-1.5-.4-.4-.1-.8-.3-1.1-.4-.3-.1-.6-.3-.8-.4h-.1c0,0-.7,1.8-.7,1.8h0c.2.2.5.3.8.5.3.2.8.3,1.3.4Z"/>
          <path class="cls-3" d="M494.3,20.5c.6.7,1.3,1.2,2.2,1.6.9.4,1.9.5,3.1.5s1.6,0,2.3-.3c.7-.2,1.3-.4,1.6-.6h0s-.5-1.9-.5-1.9h-.2c-.2.2-.6.4-1.2.5-.5.2-1.2.3-2,.3s-1.8-.1-2.4-.4c-.6-.3-1.2-.7-1.6-1.2-.4-.5-.7-1.1-.9-1.8-.2-.7-.3-1.5-.3-2.4,0-1.9.4-3.4,1.2-4.4.8-1,2-1.5,3.6-1.5s1.4,0,1.9.2c.5.1.9.3,1.3.4h.1c0,0,.6-1.8.6-1.8h0c-.4-.3-.9-.4-1.6-.6-.7-.1-1.5-.2-2.3-.2s-2,.2-2.9.6c-.8.4-1.6.9-2.2,1.6-.6.7-1.1,1.5-1.4,2.5-.3,1-.5,2-.5,3.2s.2,2.2.5,3.2c.3,1,.8,1.8,1.3,2.5Z"/>
          <path class="cls-3" d="M516.1,9.3c.5.2.9.5,1.3.9.3.4.5,1,.7,1.7.1.7.2,1.6.2,2.6v7.7h2.1v-8.3c0-1,0-1.9-.3-2.8-.2-.8-.5-1.6-1-2.2-.5-.6-1.1-1.1-1.9-1.4-.8-.3-1.7-.5-2.9-.5s-1.3,0-1.9.2c-.6.1-1.1.3-1.7.5V0l-2.1.4v22h2.1v-12.7c0,0,.2,0,.4-.1.3,0,.5-.1.9-.2.3,0,.7-.1,1-.2.4,0,.7,0,1,0,.8,0,1.5,0,2,.3Z"/>
          <path class="cls-3" d="M535.9,22.1c.8-.4,1.6-.9,2.2-1.6.6-.7,1.1-1.5,1.4-2.5.3-1,.5-2,.5-3.2s-.2-2.2-.5-3.2c-.3-1-.8-1.8-1.4-2.5-.6-.7-1.3-1.2-2.2-1.6-.8-.4-1.8-.6-2.8-.6s-1.9.2-2.8.6c-.8.4-1.6.9-2.2,1.6-.6.7-1.1,1.5-1.4,2.5-.3,1-.5,2-.5,3.2s.2,2.2.5,3.2c.3,1,.8,1.8,1.4,2.5.6.7,1.3,1.2,2.2,1.6.8.4,1.8.6,2.8.6s1.9-.2,2.8-.6ZM533.1,20.7c-1.4,0-2.5-.5-3.4-1.6-.8-1.1-1.3-2.5-1.3-4.3s.4-3.2,1.3-4.3c.8-1.1,2-1.6,3.4-1.6s2.5.5,3.4,1.6c.8,1.1,1.3,2.5,1.3,4.3s-.4,3.2-1.2,4.3c-.8,1-2,1.6-3.4,1.6Z"/>
          <path class="cls-3" d="M554.7,22.1c.8-.4,1.6-.9,2.2-1.6s1.1-1.5,1.4-2.5c.3-1,.5-2,.5-3.2s-.2-2.2-.5-3.2c-.3-1-.8-1.8-1.4-2.5-.6-.7-1.3-1.2-2.2-1.6-.8-.4-1.8-.6-2.8-.6s-1.9.2-2.8.6c-.8.4-1.6.9-2.2,1.6-.6.7-1.1,1.5-1.4,2.5-.3,1-.5,2-.5,3.2s.2,2.2.5,3.2c.3,1,.8,1.8,1.4,2.5.6.7,1.3,1.2,2.2,1.6.8.4,1.8.6,2.8.6s1.9-.2,2.8-.6ZM551.9,20.7c-1.4,0-2.5-.5-3.4-1.6-.8-1.1-1.3-2.5-1.3-4.3s.4-3.2,1.3-4.3c.8-1.1,2-1.6,3.4-1.6s2.5.5,3.4,1.6c.8,1.1,1.3,2.5,1.3,4.3s-.4,3.2-1.3,4.3c-.8,1-2,1.6-3.4,1.6Z"/>
          <path class="cls-3" d="M565.7,21.7c.3.3.7.5,1.2.7.5.1,1,.2,1.7.2h.1s.3-1.8.3-1.8h-.1c-.4,0-.7-.1-1-.2-.3,0-.5-.2-.6-.3-.2-.1-.3-.3-.3-.6,0-.3-.1-.6-.1-1.1V0l-2.1.4v18.3c0,.7,0,1.3.2,1.8.2.5.4.9.7,1.2Z"/>
          <path class="cls-3" d="M581.3,20.5c.6.7,1.3,1.2,2.2,1.6.8.4,1.8.6,2.8.6s1.9-.2,2.8-.6c.8-.4,1.6-.9,2.2-1.6.6-.7,1.1-1.5,1.4-2.5.3-1,.5-2,.5-3.2s-.2-2.2-.5-3.2c-.3-1-.8-1.8-1.4-2.5-.6-.7-1.3-1.2-2.2-1.6-.8-.4-1.8-.6-2.8-.6s-1.9.2-2.8.6c-.8.4-1.6.9-2.2,1.6-.6.7-1.1,1.5-1.4,2.5-.3,1-.5,2-.5,3.2s.2,2.2.5,3.2c.3,1,.8,1.8,1.4,2.5ZM581.6,14.9c0-1.8.4-3.2,1.3-4.3.8-1.1,2-1.6,3.4-1.6s2.5.5,3.4,1.6c.8,1.1,1.3,2.5,1.3,4.3s-.4,3.2-1.3,4.3c-.8,1-2,1.6-3.4,1.6s-2.5-.5-3.4-1.6c-.8-1.1-1.2-2.5-1.2-4.3Z"/>
          <path class="cls-3" d="M601.2,9.2h5.9v-1.8h-5.9v-1.4c0-1.4.3-2.5.8-3.1.5-.6,1.4-.9,2.7-.9s1.1,0,1.5.2c.4.1.7.2.9.3h.1c0,0,.4-1.8.4-1.8h0c-.2-.2-.5-.3-1-.4-.5-.1-1.2-.2-2-.2-1.9,0-3.3.5-4.2,1.5-.9,1-1.4,2.5-1.4,4.4v16.4h2.1v-13.1Z"/>
          <rect class="cls-3" x="474.4" y="64.7" width="1.7" height="15.4"/>
          <path class="cls-3" d="M489.7,69.8c-.4-.5-.8-.8-1.4-1.1-.6-.3-1.3-.4-2.2-.4s-1.9,0-2.7.2c-.7.1-1.3.3-1.7.4h0v11.2h1.6v-10c.2,0,.5-.1.9-.2.5,0,1.1-.1,1.7-.1s1.1,0,1.5.2c.4.1.7.4,1,.7.2.3.4.8.5,1.3.1.5.2,1.2.2,2v6h1.6v-6.5c0-.8,0-1.5-.2-2.2-.1-.7-.4-1.2-.8-1.7Z"/>
          <path class="cls-3" d="M501.9,78.3c-.2.1-.5.2-.8.4-.4.1-.8.2-1.4.2s-.7,0-.9-.1c-.3,0-.5-.2-.7-.4-.2-.2-.3-.5-.4-.9-.1-.4-.2-.9-.2-1.5v-5.9h4.5v-1.4h-4.5v-3.6l-1.6.3v10.6c0,.8,0,1.4.2,2,.1.6.3,1.1.6,1.4.3.4.7.7,1.2.9.5.2,1.1.3,1.8.3s1.2,0,1.7-.3c.5-.2.9-.3,1.1-.5h0s-.4-1.4-.4-1.4h-.1Z"/>
          <path class="cls-3" d="M510.5,68.3c-.6,0-1.3.1-1.9.4-.6.2-1.1.6-1.6,1.1-.5.5-.9,1.1-1.1,1.9-.3.7-.4,1.6-.4,2.6s.1,1.7.3,2.4c.2.7.5,1.4,1,1.9.5.5,1.1,1,1.8,1.3.7.3,1.6.4,2.6.4s1.4,0,2-.2c.6-.2,1-.3,1.2-.4h0s-.3-1.5-.3-1.5h-.1c-.2.2-.5.3-1,.4-.4.1-1.1.2-1.8.2-1.4,0-2.4-.4-3-1.1-.6-.7-.9-1.7-1-3h8c0-.2,0-.3,0-.4,0-.1,0-.2,0-.4,0-1.9-.4-3.3-1.3-4.3-.8-.9-2-1.4-3.4-1.4ZM507.2,73.3c0-.4.1-.9.3-1.3.2-.4.4-.8.7-1.2.3-.3.6-.6,1-.8.4-.2.8-.3,1.3-.3.9,0,1.7.3,2.2,1,.5.6.8,1.5.8,2.6h-6.3Z"/>
          <path class="cls-3" d="M522.4,78.8c-.2,0-.4-.1-.5-.3-.1-.1-.2-.3-.3-.5,0-.2,0-.5,0-.8v-14.4l-1.6.3v14.2c0,.6,0,1,.2,1.4.1.4.3.7.6.9.3.2.6.4.9.5.4.1.8.2,1.3.2h0s.2-1.4.2-1.4h-.1c-.3,0-.5-.1-.7-.2Z"/>
          <path class="cls-3" d="M529.7,78.8c-.2,0-.4-.1-.5-.3-.1-.1-.2-.3-.3-.5,0-.2,0-.5,0-.8v-14.4l-1.6.3v14.2c0,.6,0,1,.2,1.4.1.4.3.7.6.9.3.2.6.4.9.5.4.1.8.2,1.3.2h0s.2-1.4.2-1.4h-.1c-.3,0-.5-.1-.7-.2Z"/>
          <path class="cls-3" d="M535.5,64c-.3,0-.6.1-.8.3-.2.2-.3.5-.3.9s.1.7.3.9c.2.2.5.3.8.3s.6-.1.8-.3c.2-.2.3-.5.3-.9s-.1-.7-.3-.9c-.2-.2-.5-.3-.8-.3Z"/>
          <rect class="cls-3" x="534.6" y="68.6" width="1.6" height="11.6"/>
          <path class="cls-3" d="M549,68.6c-.6-.1-1.5-.2-2.6-.2s-1.6.1-2.3.4c-.7.3-1.3.7-1.7,1.2-.5.5-.8,1.1-1.1,1.8-.3.7-.4,1.5-.4,2.3s.1,1.9.4,2.6c.3.7.7,1.3,1.1,1.7.5.4,1,.8,1.7,1,.6.2,1.3.3,1.9.3s.8,0,1.1-.1c.3,0,.6-.2.9-.3.3-.1.5-.2.7-.3,0,0,.2,0,.2-.1v.5c0,1.2-.3,2.1-.9,2.6-.6.5-1.6.8-2.9.8s-1.2,0-1.8-.2c-.6-.1-1.1-.3-1.4-.4h-.1c0,0-.3,1.5-.3,1.5h0c.4.2.9.3,1.5.4.6.1,1.3.2,2,.2,1.8,0,3.2-.4,4-1.1.9-.7,1.4-2,1.4-3.7v-10.5h0c-.4-.2-.9-.3-1.6-.4ZM549,70.1v7.2c-.3.2-.7.4-1.2.6-.5.2-1.1.3-1.7.3s-.9,0-1.3-.2c-.4-.1-.8-.4-1.1-.7-.3-.3-.6-.8-.8-1.3-.2-.5-.3-1.2-.3-1.9s0-1.2.3-1.7c.2-.5.4-1,.7-1.3.3-.4.7-.7,1.2-.9.5-.2,1-.3,1.6-.3s1.3,0,1.7,0c.3,0,.6.1.9.2Z"/>
          <path class="cls-3" d="M560.4,68.3c-.6,0-1.3.1-1.9.4-.6.2-1.1.6-1.6,1.1-.5.5-.9,1.1-1.1,1.9-.3.7-.4,1.6-.4,2.6s.1,1.7.3,2.4c.2.7.5,1.4,1,1.9.5.5,1.1,1,1.8,1.3.7.3,1.6.4,2.6.4s1.4,0,2-.2c.6-.2,1-.3,1.2-.4h0s-.3-1.5-.3-1.5h-.1c-.2.2-.5.3-1,.4-.4.1-1.1.2-1.8.2-1.4,0-2.4-.4-3-1.1-.6-.7-.9-1.7-1-3h8c0-.2,0-.3,0-.4,0-.1,0-.2,0-.4,0-1.9-.4-3.3-1.3-4.3-.8-.9-2-1.4-3.4-1.4ZM557.1,73.3c0-.4.1-.9.3-1.3.2-.4.4-.8.7-1.2.3-.3.6-.6,1-.8.4-.2.8-.3,1.3-.3.9,0,1.7.3,2.2,1,.5.6.8,1.5.8,2.6h-6.3Z"/>
          <path class="cls-3" d="M577.9,69.8c-.4-.5-.8-.8-1.4-1.1-.6-.3-1.3-.4-2.2-.4s-1.9,0-2.7.2c-.7.1-1.3.3-1.7.4h0v11.2h1.6v-10c.2,0,.5-.1.9-.2.5,0,1.1-.1,1.7-.1s1.1,0,1.5.2c.4.1.7.4,1,.7.2.3.4.8.5,1.3.1.5.2,1.2.2,2v6h1.6v-6.5c0-.8,0-1.5-.2-2.2-.1-.7-.4-1.2-.8-1.7Z"/>
          <path class="cls-3" d="M591.5,78.3c-.2,0-.5.2-.9.4-.4.1-.9.2-1.5.2s-1.4-.1-1.9-.3c-.5-.2-.9-.5-1.2-.9-.3-.4-.6-.9-.7-1.4-.1-.6-.2-1.2-.2-1.8,0-1.5.3-2.6,1-3.4.6-.8,1.6-1.2,2.8-1.2s1.1,0,1.4.1c.4,0,.7.2,1,.3h.1c0,0,.4-1.4.4-1.4h0c-.3-.2-.7-.3-1.3-.4-.5-.1-1.1-.2-1.7-.2s-1.6.1-2.2.4c-.7.3-1.2.7-1.7,1.2-.5.5-.8,1.2-1.1,1.9-.2.7-.4,1.6-.4,2.5s.1,1.7.4,2.4c.2.7.6,1.4,1,1.9.5.5,1,.9,1.7,1.2.7.3,1.5.4,2.4.4s1.2,0,1.8-.2c.6-.1,1-.3,1.3-.4h0s-.4-1.5-.4-1.5h-.1Z"/>
          <path class="cls-3" d="M603.7,69.7c-.8-.9-2-1.4-3.4-1.4s-1.3.1-1.9.4c-.6.2-1.1.6-1.6,1.1-.5.5-.9,1.1-1.1,1.9-.3.7-.4,1.6-.4,2.6s.1,1.7.3,2.4c.2.7.5,1.4,1,1.9.5.5,1.1,1,1.8,1.3.7.3,1.6.4,2.6.4s1.4,0,2-.2c.6-.2,1-.3,1.2-.4h0s-.3-1.5-.3-1.5h-.1c-.2.2-.5.3-1,.4-.4.1-1.1.2-1.8.2-1.4,0-2.4-.4-3-1.1-.6-.7-.9-1.7-1-3h8c0-.2,0-.3,0-.4,0-.1,0-.2,0-.4,0-1.9-.4-3.3-1.3-4.3ZM597,73.3c0-.4.1-.9.3-1.3.2-.4.4-.8.7-1.2.3-.3.6-.6,1-.8.4-.2.8-.3,1.3-.3.9,0,1.7.3,2.2,1,.5.6.8,1.5.8,2.6h-6.3Z"/>
        </g>
        <g>
          <path class="cls-4" d="M454.2,12c-4.1,0-7.4,3.3-7.4,7.4s3.3,7.4,7.4,7.4,7.4-3.3,7.4-7.4-3.3-7.4-7.4-7.4ZM454.2,25.4c-3.3,0-6-2.7-6-6s2.7-6,6-6,6,2.7,6,6-2.7,6-6,6Z"/>
          <path class="cls-4" d="M454.2,15.1c-2.4,0-4.3,1.9-4.3,4.3s1.9,4.3,4.3,4.3,4.3-1.9,4.3-4.3-1.9-4.3-4.3-4.3ZM454.2,22.3c-1.6,0-2.9-1.3-2.9-2.9s1.3-2.9,2.9-2.9,2.9,1.3,2.9,2.9-1.3,2.9-2.9,2.9Z"/>
          <path class="cls-4" d="M436.4,12c-4.1,0-7.4,3.3-7.4,7.4s3.3,7.4,7.4,7.4,7.4-3.3,7.4-7.4-3.3-7.4-7.4-7.4ZM436.4,25.4c-3.3,0-6-2.7-6-6s2.7-6,6-6,6,2.7,6,6-2.7,6-6,6Z"/>
          <path class="cls-4" d="M436.4,15.1c-2.3,0-4.3,1.9-4.3,4.3s1.9,4.3,4.3,4.3,4.3-1.9,4.3-4.3-1.9-4.3-4.3-4.3ZM436.4,22.3c-1.6,0-2.9-1.3-2.9-2.9s1.3-2.9,2.9-2.9,2.9,1.3,2.9,2.9-1.3,2.9-2.9,2.9Z"/>
          <rect class="cls-4" x="444.5" y="21.9" width="1.6" height="5.2"/>
          <path class="cls-4" d="M445.4,0c-6.3,0-12.2,3-15.8,7.9,0,.1-.2.2-.3.4h0c-.1.2-.2.4-.3.6l-.4.6h0s0,0,0,.1c-.1.2-.2.4-.3.6h0c-1.2,2.4-1.8,4.9-1.9,7.5v.3c0,0,0,.1,0,.2s0,.1,0,.2v58.8s.4-.2.4-.2c.3-.1.6-.3.9-.4h0s.5-.2.5-.2h0c4-2,7.8-4.5,11.4-7.3v9.6h-5.3v1.6h18.6v-1.6h-5.3v-17c11-11.9,17.1-27.2,17.2-43.1v-.2s0,0,0,0c0-10-8.6-18.2-19.1-18.2ZM458.6,7.4c-.2,0-.3,0-.5,0-4.5,0-8.6,1.9-11.1,5.1,1.8-3.6,5.8-6.1,10.3-6.3.4.4.9.8,1.3,1.2ZM455.8,5c-3.8.6-7.1,2.5-9.1,5.3,1.2-2.9,4-5.3,7.5-6.3.6.3,1.1.6,1.6,1ZM452.5,3.1c-2.4,1-4.4,2.5-5.8,4.5.8-2,2.4-3.7,4.4-5,.5.2.9.3,1.4.5ZM449.4,2.2c-1.1.8-2,1.7-2.7,2.7.4-1,1.1-2,1.9-2.9.3,0,.6.1.8.2ZM446,1.7c.3,0,.7,0,1,0-.4.5-.7,1-1,1.5v-1.6ZM444.7,1.7v1.5c-.3-.5-.6-1-1-1.4.3,0,.6,0,1,0ZM442.1,2c.8.9,1.4,1.8,1.8,2.9-.7-1-1.6-1.9-2.7-2.7.3,0,.5-.1.8-.2ZM439.6,2.7c2,1.2,3.5,3,4.3,4.9-1.4-1.9-3.4-3.5-5.7-4.4.4-.2.9-.4,1.4-.5ZM436.6,4c3.5,1.1,6.2,3.4,7.4,6.3-2-2.8-5.2-4.7-9-5.3.5-.4,1-.7,1.6-1ZM433.6,6.2c4.5.3,8.4,2.8,10.2,6.3-2.5-3.2-6.6-5.1-11.1-5.1s-.2,0-.3,0c.4-.4.8-.8,1.2-1.2ZM428,25.8h0c0,.2.1.3.2.5v.2c.1.1.2.2.3.3,0,0,0,0,0,.1h0c0,.2.1.3.2.3,0,0,0,.1.1.2h0c0,.1.1.2.2.3,0,0,0,.1.1.2,0,0,.1.2.2.3,0,0,0,.1.1.2,0,0,.1.2.2.3,0,0,0,.1.1.2,0,0,.1.2.2.2,0,0,.1.1.2.2,0,0,.1.2.2.2h0c0,0,0,.1.1.2,0,0,.1.2.2.2h0c0,0,0,.1.1.2,0,0,.2.2.2.3v.2c.2,0,.3.2.4.3h.1c.1.2.3.4.4.5h0c.1.2.2.3.3.4l.2.2s0,0,0,0c-.1.2-.2.3-.3.5l-.2.3c-.4.6-.8,1.2-1.2,1.7l-.2.3c-.1.2-.3.4-.4.6,0,0-.1.1-.2.2v.2c-.2.2-.4.3-.5.5,0,0-.1.2-.2.2v.2c-.3.1-.4.3-.5.4,0,0-.2.2-.2.3h-.1c-.1.3-.2.4-.3.5,0,.1-.2.2-.3.3h0c0,0,0,.1,0,.1v-12.3ZM428,40.7c.1-.1.3-.3.4-.4l.2-.3c0,0,.1-.1.2-.2.2-.3.5-.6.7-.8h0c.3-.4.6-.8.8-1.1l.2-.2c.2-.3.4-.5.6-.8,0,0,0-.1.1-.2l.2-.2c.2-.2.3-.4.5-.6,0,0,.1-.2.2-.2l.2-.3c.1-.2.3-.3.4-.5,0,0,.1-.2.2-.3l.2-.3c.1-.2.2-.3.4-.5,0,0,.1-.2.2-.3l.2-.3c0,0,.1-.2.2-.3,0,0,0,0,0,0h.2c0,.2.1.2.2.2.1,0,.2.1.3.2h.1c0,.1.1.1.2.2.1,0,.2.1.4.2h.1c0,0,0,.1.1.1.2.1.4.2.6.3,0,0,0,0,.1,0h0c.1.1.3.2.4.2,0,0,.1,0,.2,0h.1c.1.1.2.2.3.2,0,0,.1,0,.2,0h.1c.1.1.2.1.3.2,0,0,.1,0,.2,0h.2c0,0,0,0,0,0-.1.2-.2.3-.3.5l-.3.5c-.1.2-.2.3-.3.5-.1.2-.3.4-.5.7l-.3.5c-.1.2-.2.3-.3.5-.2.2-.3.4-.5.6l-.4.5c-.1.2-.2.3-.4.5-.2.2-.3.4-.5.6l-.4.5c-.1.2-.2.3-.4.5-.2.2-.4.4-.5.6l-.4.5c-.1.1-.2.3-.4.4-.2.2-.4.4-.6.6l-.4.5c-.1.1-.2.3-.4.4-.2.2-.4.4-.6.7l-.2.2c0,0-.1.2-.2.2-.1.1-.2.2-.3.3-.5.5-1,1-1.4,1.4-.1.1-.3.3-.4.4h0c0,.1-.1.2-.2.3v-7.4ZM428,50.4h0c.1-.2.3-.3.4-.4l.2-.2c.1,0,.2-.2.3-.3l.2-.2c0,0,.2-.2.3-.2.2-.1.3-.3.5-.4.3-.2.5-.5.8-.7,0,0,.1-.1.2-.2l.2-.2c.1-.1.2-.2.4-.4,0,0,.1-.1.2-.2l.2-.2c.1-.1.2-.2.3-.3,0,0,.1-.2.2-.2l.2-.2c0,0,.2-.2.3-.3,0,0,.2-.2.2-.2l.2-.2c0,0,.2-.2.3-.3,0,0,.1-.2.2-.2l.2-.3c0,0,.2-.2.2-.3,0,0,.1-.2.2-.2l.2-.2c0-.1.2-.2.3-.3,0,0,.1-.2.2-.3l.2-.2c0-.1.2-.2.3-.3,0,0,.1-.2.2-.3l.2-.2c0,0,.2-.2.2-.3,0,0,.1-.2.2-.3l.2-.3c0,0,.1-.2.2-.3,0,0,.1-.2.2-.3l.2-.2c0,0,.2-.2.2-.3,0,0,.1-.2.2-.3l.2-.3c0,0,.1-.2.2-.3,0-.1.2-.2.2-.3l.2-.2c0,0,.1-.2.2-.3,0-.1.2-.2.2-.3l.2-.2c0,0,.1-.2.2-.3,0-.1.1-.2.2-.3l.2-.3c0,0,.1-.2.2-.3,0-.1.1-.2.2-.3l.2-.3s0,0,0-.1h0s.2,0,.2,0c0,0,.2,0,.2,0,0,0,.1,0,.2,0h.2c0,0,.2,0,.2,0,0,0,.1,0,.2,0h.2c0,0,.2,0,.2,0,0,0,.2,0,.2,0h.2c0,0,.1,0,.2,0,0,0,.2,0,.3,0h.2c0,0,.1,0,.2,0,0,0,.2,0,.3,0h.2c0,0,.1,0,.2,0,.1,0,.2,0,.4,0h.1s0,0,.1,0c.3,0,.7,0,1,0h0c0,0,0,.1,0,.2v.2c-.2.1-.3.3-.4.4,0,.1-.2.3-.2.4l-.2.3c0,.1-.1.3-.2.4,0,.1-.2.3-.2.4l-.2.3c0,.1-.2.3-.2.4,0,.1-.2.3-.3.4l-.2.3c0,.1-.2.2-.2.4,0,.1-.2.3-.3.4l-.2.3c0,.1-.2.2-.2.4,0,.1-.2.3-.3.4l-.2.3c0,.1-.2.2-.3.4,0,.1-.2.3-.3.4l-.2.3c0,.1-.2.2-.2.3,0,.1-.2.3-.3.4l-.2.3c0,.1-.2.2-.2.3-.1.1-.2.3-.3.4l-.2.3c0,.1-.2.2-.2.3-.1.1-.2.3-.3.4l-.2.3c0,0-.2.2-.2.3-.1.1-.2.3-.3.4l-.3.3c0,0-.2.2-.2.3-.1.1-.2.3-.3.4l-.3.3c0,0-.2.2-.2.3-.1.1-.2.3-.4.4l-.3.3c0,0-.1.2-.2.2-.1.1-.3.3-.4.4l-.3.3c0,0-.2.2-.2.2-.2.2-.4.4-.5.5l-.2.2c0,0-.1.1-.2.2-.3.3-.6.6-.9.9-.5.4-.9.9-1.4,1.3,0,0-.2.2-.3.2l-.3.3c-.3.3-.6.5-.9.8-.1.1-.2.2-.4.3l-.4.3c-.2.2-.5.4-.7.6-.1.1-.3.2-.4.3l-.4.3c-.1.1-.3.2-.4.3v-6.7ZM445.8,78.6h-4.8v-10.9c1.1-1,2.2-1.9,3.3-2.9.5-.5,1-.9,1.5-1.5v15.3ZM462.1,27.3c0,.2,0,.5-.1.7,0,.2,0,.4-.1.6,0,.2,0,.5-.1.7,0,.2,0,.4-.1.6,0,.2,0,.5-.1.7,0,.2,0,.4-.1.6,0,.2,0,.5-.1.7,0,.2,0,.4-.1.6,0,.2-.1.4-.2.7,0,.2-.1.4-.2.6,0,.2-.1.4-.2.7,0,.2-.1.4-.2.6,0,.2-.1.4-.2.7,0,.2-.1.4-.2.6,0,.2-.1.4-.2.7,0,.2-.1.4-.2.6,0,.2-.1.4-.2.6,0,.2-.1.4-.2.6,0,.2-.2.4-.2.6h0c0,.2-.1.4-.2.6,0,.2-.2.4-.2.6h0c0,.2-.1.4-.2.6,0,.2-.2.4-.2.6h0c0,.2-.2.4-.3.6,0,.2-.2.4-.3.6h0c0,.3-.2.5-.2.6,0,.2-.2.4-.3.5v.2c-.2.2-.2.3-.3.5,0,.2-.2.4-.3.6h0c0,.3-.2.5-.2.6,0,.2-.2.4-.3.6v.2c-.2.2-.2.3-.3.5,0,.2-.2.4-.3.5v.2c-.2.1-.3.3-.4.4,0,.2-.2.3-.3.5l-.2.3c0,.1-.2.3-.2.4,0,.2-.2.3-.3.5l-.2.3c0,.1-.2.3-.2.4-.1.2-.2.3-.3.5v.2c-.2.1-.3.3-.4.4-.1.2-.2.3-.3.5l-.2.3c0,.1-.2.3-.3.4,0,.1-.2.3-.3.4l-.2.3c0,.1-.2.3-.3.4-.1.1-.2.3-.3.4l-.2.3c0,.1-.2.2-.3.4-.1.1-.2.3-.3.4l-.2.3c0,.1-.2.2-.3.4-.1.1-.2.3-.3.4l-.2.3c0,.1-.2.2-.3.3-.1.1-.2.3-.3.4l-.3.3c0,.1-.2.2-.3.3-.1.1-.2.3-.4.4h0c0,.1,0-4.8,0-4.8h-1.6v6.7c-.1.1-.2.2-.3.3l-.2.2c0,0-.2.2-.2.3-.2.2-.4.4-.5.6l-.2.2c0,0-.1.1-.2.2-.3.3-.7.7-1,1-.3.3-.6.5-.9.8,0,0-.1.1-.2.2l-.2.2c-.1.1-.3.3-.4.4,0,0-.2.1-.2.2h-.1c0,.1,0-8.2,0-8.2h-1.6v9.7l-.4.3c-.1,0-.2.2-.4.3,0,0-.2.2-.3.2l-.3.2c-.1,0-.2.2-.4.3,0,0-.2.2-.3.2l-.3.2c-.1,0-.2.2-.4.3-.1,0-.2.2-.3.2l-.3.2c-.1,0-.2.2-.4.3-.1,0-.2.2-.3.2l-.3.2c-.1,0-.2.2-.4.3-.1,0-.2.2-.3.2l-.3.2c-.1,0-.2.2-.3.2-.1,0-.2.2-.4.2l-.3.2c-.1,0-.2.2-.3.2-.1,0-.2.1-.3.2l-.3.2c-.1,0-.2.1-.4.2-.1,0-.2.1-.4.2l-.3.2c-.1,0-.2.1-.4.2-.1,0-.2.1-.4.2l-.3.2c-.1,0-.2.1-.4.2-.1,0-.3.1-.4.2l-.3.2c-.1,0-.3.1-.4.2-.1,0-.3.2-.4.2h-.2c0,.1-.1.2-.2.2v-15.1c0,0,.1-.1.2-.2l.3-.2c.1,0,.2-.2.3-.2,0,0,.2-.1.3-.2l.3-.2c.1,0,.2-.2.3-.2.1,0,.2-.2.3-.3l.2-.2c.1,0,.2-.2.3-.3,0,0,.2-.2.3-.2l.3-.2c.1,0,.2-.2.3-.3,0,0,.2-.2.3-.2l.3-.2c.1,0,.2-.2.3-.3,0,0,.2-.2.3-.2l.3-.2c.1,0,.2-.2.3-.3,0,0,.2-.2.3-.2l.3-.3c0,0,.2-.2.3-.3.3-.3.5-.5.8-.8.3-.3.7-.6,1-1,0,0,0,0,.1-.1h.1c.2-.4.5-.6.7-.8,0,0,.1-.2.2-.2l.3-.3c.2-.2.3-.3.5-.5,0,0,.2-.2.3-.3l.3-.3c.1-.1.3-.3.4-.4,0,0,.2-.2.3-.3l.3-.3c.1-.1.2-.3.4-.4,0-.1.2-.2.3-.3l.3-.3c.1-.1.2-.3.3-.4.1-.1.2-.2.3-.4l.3-.4c0-.1.2-.2.3-.3.1-.1.2-.3.3-.4l.3-.4c0-.1.2-.2.3-.3.1-.1.2-.3.3-.4l.3-.4c0-.1.2-.2.2-.3.1-.1.2-.3.3-.4l.2-.3c0-.1.2-.2.2-.3.1-.1.2-.3.3-.4l.2-.3c0-.1.1-.2.2-.3.1-.2.2-.3.3-.5l.2-.3c0-.1.1-.2.2-.3,0-.2.2-.3.3-.5l.2-.4c0-.1.1-.2.2-.3,0-.2.2-.3.3-.5l.2-.4c0-.1.1-.2.2-.3,0-.2.2-.3.3-.5l.2-.3c0-.1.1-.2.2-.4,0-.2.2-.3.3-.5l.2-.3c0,0,.1-.2.2-.3,0,0,.2,0,.2,0h.3c.2,0,.3,0,.5-.1h0c.2,0,.4,0,.6-.1h0c.2,0,.3,0,.5-.1h.2c.1,0,.2-.1.4-.2,0,0,0,0,.1,0h.1c.1,0,.2,0,.3-.1,0,0,.1,0,.2,0h.2c0,0,.2-.1.3-.1,0,0,.1,0,.2,0h0c0,0,.2,0,.3-.1,0,0,.1,0,.2,0h0c0,0,.2-.1.3-.1,0,0,.1,0,.2,0h0c0,0,.2-.1.3-.1,0,0,.2,0,.3-.1,0,0,.2,0,.3-.1,0,0,.2,0,.2-.1,0,0,.2,0,.3-.1,0,0,.2,0,.2-.1,0,0,.2,0,.3-.1,0,0,.2,0,.2-.1,0,0,.2-.1.3-.2,0,0,.2,0,.2-.1,0,0,.2-.1.3-.2,0,0,.2-.1.2-.2,0,0,.2-.1.2-.2,0,0,.2-.1.2-.2,0,0,.2-.1.2-.2,0,0,.2-.1.2-.2,0,0,.2-.1.2-.2,0,0,.1-.1.2-.2,0,0,.2-.1.2-.2h0c0,0,.1-.1.2-.2,0,0,.1-.1.2-.2h0c0-.1.1-.2.2-.2,0,0,.1-.1.2-.2h0c0-.1.1-.2.2-.2,0,0,.1-.1.2-.2h0c0-.1,0-.2.1-.2,0,0,.1-.1.2-.2h.1c0-.2,0-.2.1-.3,0,0,.1-.1.2-.2h.1c0-.2,0-.2.1-.3,0,0,.1-.1.2-.2h.1c0-.2,0-.2.1-.3.1-.1.2-.3.3-.4l.2-.2c0,0,.1-.2.2-.3,0,0,0,0,0-.1h0c0-.2,0-.3.1-.3,0,0,0,0,0-.1h0c0-.2,0-.3.1-.3,0,0,0-.1,0-.2h0c0-.1,0-.2,0-.2,0,.1,0,.2,0,.3ZM448.4,34.4c-.5,0-1,.1-1.5.2-.6,0-1.1,0-1.6,0-1.5,0-2.9-.2-4.3-.5-.4,0-.8-.2-1.2-.3-1.8-.6-3.4-1.4-4.9-2.5-.3-.2-.6-.5-1-.7-3.8-3.1-6-7.7-6-12.4s1-6.4,2.9-9.2c.6,0,1.1-.1,1.7-.1,6.6,0,11.9,4.6,11.9,10.2v.2h1.6v-.2c0-5.6,5.4-10.2,11.9-10.2s1.2,0,1.8.1c1.5,2.2,2.5,4.8,2.8,7.4v.2c0,.2,0,.4,0,.5h0c0,.2,0,.2,0,.3,0,0,0,.1,0,.2v.2c0,0,0,.2,0,.3,0,8-6.1,14.9-14.4,16.3Z"/>
        </g>
        <g>
          <path class="cls-4" d="M485.4,53.1c.5-.1.9-.3,1.2-.4.4-.1.6-.3.8-.4l.5-.3-1-3-.8.5c-.4.2-.9.4-1.7.6-.7.2-1.7.3-2.8.3s-1.8-.2-2.6-.5c-.7-.3-1.3-.8-1.8-1.4-.5-.6-.9-1.4-1.2-2.3-.3-.9-.4-2-.4-3.1s.1-2.2.4-3.1c.3-.9.7-1.7,1.2-2.3.5-.6,1.2-1.1,1.9-1.5.8-.3,1.7-.5,2.7-.5s1.7.1,2.3.3c.6.2,1.2.5,1.6.7l.8.5,1.1-3-.5-.3c-.2-.1-.5-.3-.8-.4-.3-.1-.7-.3-1.2-.4-.5-.1-1-.3-1.6-.4-.6,0-1.3-.1-2-.1-1.2,0-2.4.2-3.5.7-1.1.5-2.2,1.2-3,2.1-.9.9-1.5,2-2.1,3.3-.5,1.3-.8,2.8-.8,4.4s.2,3.1.7,4.4c.5,1.3,1.1,2.4,2,3.3.8.9,1.8,1.6,3,2.1,1.1.5,2.3.7,3.6.7s1.5,0,2.1-.1c.6,0,1.2-.2,1.7-.3Z"/>
          <path class="cls-4" d="M502.9,51.3c.6-.7,1.1-1.6,1.5-2.5.3-1,.5-2.1.5-3.2s-.2-2.3-.5-3.2c-.3-1-.8-1.8-1.5-2.6-.6-.7-1.4-1.3-2.3-1.7-.9-.4-1.8-.6-2.9-.6s-2,.2-2.9.6c-.9.4-1.6,1-2.3,1.7-.6.7-1.1,1.6-1.5,2.6-.3,1-.5,2.1-.5,3.2s.2,2.3.5,3.2c.3,1,.8,1.8,1.5,2.5.6.7,1.4,1.3,2.3,1.7.9.4,1.8.6,2.9.6s2-.2,2.9-.6c.9-.4,1.6-.9,2.3-1.7ZM501.5,45.5c0,1.6-.4,2.8-1.1,3.7-.7.8-1.5,1.2-2.7,1.2s-2-.4-2.7-1.2c-.7-.9-1.1-2.1-1.1-3.7s.4-2.8,1.1-3.7c.7-.8,1.5-1.3,2.7-1.3s2,.4,2.7,1.3c.7.9,1.1,2.1,1.1,3.7Z"/>
          <path class="cls-4" d="M513.6,53.4h.7s.5-2.8.5-2.8h-.8c-.3-.2-.6-.2-.8-.3-.1,0-.2,0-.3-.2,0,0-.1-.2-.2-.3,0-.1,0-.4,0-.8v-18.4l-3.3.6v17.9c0,.8,0,1.4.3,1.9.2.6.5,1,.9,1.4.4.4.9.6,1.4.8.5.2,1.1.2,1.7.3Z"/>
          <path class="cls-4" d="M522.1,50.3c-.1,0-.2,0-.3-.2,0,0-.1-.2-.2-.3,0-.1,0-.4,0-.8v-18.4l-3.3.6v17.9c0,.8,0,1.4.3,1.9.2.6.5,1,.9,1.4.4.4.9.6,1.4.8.5.2,1.1.2,1.7.3h.7s.5-2.8.5-2.8h-.8c-.3-.2-.6-.2-.8-.3Z"/>
          <path class="cls-4" d="M538.2,49.3l-.9.4c-.1,0-.5.2-1.1.4-.5.2-1.2.2-2,.2-1.5,0-2.6-.4-3.2-1.1-.6-.6-.9-1.5-1-2.7h9.6v-.7c.1-.1.1-.3.1-.5,0-.2,0-.3,0-.5,0-2.5-.6-4.4-1.7-5.7-1.2-1.3-2.7-1.9-4.6-1.9s-1.7.2-2.5.5c-.8.3-1.6.9-2.2,1.5-.6.7-1.1,1.5-1.5,2.5-.4,1-.6,2.2-.6,3.5s.1,2.2.4,3.1c.3,1,.7,1.9,1.4,2.6.6.7,1.4,1.3,2.4,1.7,1,.4,2.1.6,3.4.6s1.9-.1,2.6-.3c.8-.2,1.3-.4,1.6-.6l.5-.3-.6-3ZM536.4,43.6h-6.3c0-.3.1-.5.2-.7.2-.5.4-.9.7-1.2.3-.3.7-.6,1.1-.8.4-.2.8-.3,1.3-.3,1,0,1.7.3,2.2.9.4.5.7,1.3.8,2.2Z"/>
          <path class="cls-4" d="M554.6,49.3l-.9.5c-.1,0-.4.2-1,.4-.4.1-1,.2-1.7.2s-1.5-.1-2-.4c-.5-.2-1-.5-1.3-.9-.3-.4-.6-.9-.7-1.5-.2-.6-.2-1.3-.2-2.1,0-1.6.3-2.9,1-3.8.7-.8,1.6-1.2,2.9-1.2s1.2,0,1.6.1c.4,0,.7.2,1.1.4l.8.4.9-3-.5-.3c-.4-.2-1-.4-1.7-.6-.7-.1-1.5-.2-2.3-.2s-2.1.2-3,.6c-.9.4-1.7,1-2.3,1.7-.6.7-1.1,1.6-1.4,2.6-.3,1-.5,2.1-.5,3.2s.2,2.2.5,3.2c.3,1,.8,1.8,1.4,2.6.6.7,1.4,1.3,2.3,1.7.9.4,2,.6,3.1.6s1.6,0,2.4-.3c.8-.2,1.3-.4,1.7-.6l.5-.3-.8-3Z"/>
          <path class="cls-4" d="M566.6,49.7c-.2.1-.5.3-.9.4-.4.1-.9.2-1.5.2s-.7,0-1-.1c-.2,0-.4-.2-.5-.3-.2-.2-.3-.5-.4-.8-.1-.4-.2-1-.2-1.7v-6.7h5.6v-3h-5.6v-4.6l-3.3.6v13.5c0,1,0,1.9.2,2.6.2.8.5,1.5.9,2,.4.6,1,1,1.7,1.3.7.3,1.5.4,2.4.4s1.6-.1,2.3-.3c.7-.2,1.2-.4,1.5-.6l.5-.3-.9-2.9-.8.5Z"/>
          <rect class="cls-4" x="571.4" y="37.7" width="3.3" height="15.4"/>
          <path class="cls-4" d="M573,36.4c.6,0,1-.2,1.4-.6.4-.4.6-.9.6-1.5s-.2-1.1-.6-1.5c-.4-.4-.9-.6-1.4-.6s-1.1.2-1.4.6c-.4.4-.6.9-.6,1.5s.2,1.1.6,1.5c.4.4.9.6,1.4.6Z"/>
          <path class="cls-4" d="M591.8,37.7h-3.3v.6c-.3.9-.6,2-.9,3-.3,1.1-.7,2.1-1,3.2-.4,1.1-.7,2.1-1.1,3.1-.2.4-.3.8-.5,1.1-.2-.4-.3-.7-.5-1.1-.4-1-.8-2-1.1-3.1-.4-1-.7-2.1-1-3.2-.3-1.1-.6-2.1-.8-3v-.6h-3.6l.2.9c.3,1.3.7,2.6,1.1,3.8.4,1.2.8,2.5,1.3,3.7.4,1.2.9,2.4,1.4,3.5.5,1.1.9,2.1,1.4,3.1l.2.4h2.6l.2-.4c.5-1,.9-2,1.4-3.1.5-1.1,1-2.3,1.4-3.5.4-1.2.9-2.4,1.3-3.7.4-1.3.8-2.5,1.1-3.8l.2-.9Z"/>
          <path class="cls-4" d="M605,49.7c-.1,0-.5.2-1.1.4-.5.2-1.2.2-2,.2-1.5,0-2.6-.4-3.2-1.1-.6-.6-.9-1.5-1-2.7h9.6v-.7c.1-.1.1-.3.1-.5,0-.2,0-.3,0-.5,0-2.5-.6-4.4-1.7-5.7-1.2-1.3-2.7-1.9-4.6-1.9s-1.7.2-2.5.5c-.8.3-1.6.9-2.2,1.5-.6.7-1.1,1.5-1.5,2.5-.4,1-.6,2.2-.6,3.5s.1,2.2.4,3.1c.3,1,.7,1.9,1.4,2.6.6.7,1.4,1.3,2.4,1.7,1,.4,2.1.6,3.4.6s1.9-.1,2.6-.3c.8-.2,1.3-.4,1.6-.6l.5-.3-.6-3-.9.4ZM604.1,43.6h-6.3c0-.3.1-.5.2-.7.2-.5.4-.9.7-1.2.3-.3.7-.6,1.1-.8.4-.2.8-.3,1.3-.3,1,0,1.7.3,2.2.9.4.5.7,1.3.8,2.2Z"/>
        </g>
      </g>
    </g>
  </g>
</svg>