<?xml version="1.0" encoding="UTF-8"?>
<svg id="Layer_2" data-name="Layer 2" xmlns="http://www.w3.org/2000/svg" viewBox="0 0 590.6 90.3">
  <defs>
    <style>
      .cls-1 {
        fill: #21245b;
      }

      .cls-1, .cls-2, .cls-3, .cls-4 {
        stroke-width: 0px;
      }

      .cls-2 {
        fill: #d74a2a;
      }

      .cls-3 {
        fill: #fff;
      }

      .cls-4 {
        fill: #cf3732;
      }
    </style>
  </defs>
  <g id="Layer_1-2" data-name="Layer 1">
    <g>
      <g>
        <g>
          <g>
            <path class="cls-4" d="M466.2,60.6c0,.7-.6,1.2-1.2,1.2s-.8-.2-1-.5h0s0,0,0,0c-.1-.2-.2-.4-.2-.7,0-.4.2-.8.5-1-.4.2-.7.5-.7.9s0,.2,0,.4c-1.4-1-3.8-1-7-1s-.3-.1-.3-.3.1-.3.3-.3h8.4c.7,0,1.2.6,1.2,1.2Z"/>
            <path class="cls-4" d="M471.1,53.4c0,.8-.6,1.4-1.4,1.4s-.8-.2-1.1-.6h0s0,0,0,0c-.2-.2-.3-.5-.3-.8,0-.5.2-.9.6-1.1-.4.2-.7.5-.8,1s0,.3,0,.4c-1.5-1.1-6.6-1.1-10.1-1.1s-.3-.1-.3-.3.1-.3.3-.3h11.7c.8,0,1.4.6,1.4,1.4Z"/>
            <path class="cls-4" d="M474.1,45.2c0,.8-.7,1.5-1.5,1.5s-.9-.2-1.2-.6h0s0,0,0,0c-.2-.2-.3-.5-.3-.9,0-.5.3-.9.6-1.2-.5.2-.8.6-.9,1.1s0,.3,0,.4c-1.6-1.1-9.4-1.1-13.3-1.1s-.3-.1-.3-.3.1-.3.3-.3h15c.8,0,1.5.7,1.5,1.5Z"/>
            <path class="cls-4" d="M473.8,37.8c0,.9-.7,1.6-1.6,1.6s-1-.3-1.3-.7h0s0,0,0,0c-.2-.3-.3-.6-.3-.9,0-.5.3-1,.7-1.3-.5.2-.9.7-1,1.2s0,.3,0,.5c-1.8-1.2-12.2-1.2-16.4-1.2s-.4-.2-.4-.4.2-.4.4-.4h18.3c.9,0,1.6.7,1.6,1.6Z"/>
            <path class="cls-4" d="M469.8,31.2c0,1-.8,1.7-1.7,1.7s-1.1-.3-1.4-.7h0s0,0,0,0c-.2-.3-.3-.6-.3-1,0-.6.3-1.1.7-1.4-.5.2-.9.7-1,1.3,0,.2,0,.3,0,.5-1.9-1.3-15.1-1.3-19.5-1.3s-.4-.2-.4-.4.2-.4.4-.4h21.6c1,0,1.7.8,1.7,1.7Z"/>
            <path class="cls-4" d="M462.4,25.4c0,.9-.7,1.6-1.6,1.6s-1-.3-1.3-.7h0s0,0,0,0c-.2-.3-.3-.6-.3-.9,0-.5.3-1,.7-1.3-.5.2-.9.7-1,1.2s0,.3,0,.5c-1.8-1.2-12-1.2-16.1-1.2s-.4-.2-.4-.4.2-.4.4-.4h18.1c.9,0,1.6.7,1.6,1.6Z"/>
            <path class="cls-4" d="M456.9,19c0,.8-.7,1.5-1.5,1.5s-.9-.2-1.2-.6h0s0,0,0,0c-.2-.2-.3-.5-.3-.9,0-.5.3-.9.6-1.2-.5.2-.8.6-.9,1.1s0,.3,0,.4c-1.6-1.1-8.9-1.1-12.7-1.1s-.3-.1-.3-.3.1-.3.3-.3h14.5c.8,0,1.5.7,1.5,1.5Z"/>
            <path class="cls-4" d="M455.5,11.5c0,.8-.6,1.4-1.4,1.4s-.8-.2-1.1-.6h0s0,0,0,0c-.2-.2-.3-.5-.3-.8,0-.5.2-.9.6-1.1-.4.2-.7.5-.8,1s0,.3,0,.4c-1.5-1.1-5.8-1.1-9.3-1.1s-.3-.1-.3-.3.1-.3.3-.3h11c.8,0,1.4.6,1.4,1.4Z"/>
            <path class="cls-4" d="M457.8,5c0,.7-.6,1.2-1.2,1.2s-.8-.2-1-.5h0s0,0,0,0c-.1-.2-.2-.4-.2-.7,0-.4.2-.8.5-1-.4.2-.7.5-.7.9s0,.2,0,.4c-1.4-1-2.8-1-5.9-1s-.3-.1-.3-.3.1-.3.3-.3h7.4c.7,0,1.2.6,1.2,1.2Z"/>
            <path class="cls-4" d="M462.2,1.1c0,.6-.5,1.1-1.1,1.1s-.7-.2-.9-.5h0s0,0,0,0c-.1-.2-.2-.4-.2-.6,0-.4.2-.7.5-.9-.3.1-.6.4-.7.8,0,.1,0,.2,0,.3-1.2-.9.3-.9-2.5-.9s-.2-.1-.2-.2.1-.2.2-.2h3.9c.6,0,1.1.5,1.1,1.1Z"/>
          </g>
          <path class="cls-1" d="M430,50.2h-2.6v-25.5h2.6v25.5Z"/>
          <path class="cls-1" d="M500.6,28.8c-.6-.8-1.3-1.4-2.1-1.9-.9-.5-1.9-.7-3.1-.7s-1.3,0-1.9.3c-.6.2-1.2.5-1.8.9-.5.4-1,.9-1.3,1.5-.3.6-.5,1.3-.5,2.1s.2,1.5.5,2c.3.5.7,1,1.2,1.3.5.4,1.1.7,1.8.9.7.2,1.3.5,2.1.7.9.3,1.8.6,2.7.9.9.3,1.7.8,2.4,1.3.7.5,1.3,1.2,1.8,2.1s.7,1.9.7,3.1-.2,2.4-.7,3.3c-.5.9-1.1,1.7-1.9,2.3-.8.6-1.7,1-2.7,1.3-1,.3-2,.4-3,.4s-1.5,0-2.3-.2c-.8-.2-1.5-.4-2.2-.7-.7-.3-1.3-.7-1.9-1.2-.6-.5-1.1-1-1.6-1.7l2.2-1.7c.6.9,1.3,1.7,2.3,2.3,1,.6,2.2.9,3.5.9s1.3-.1,2-.3c.7-.2,1.3-.5,1.8-.9.5-.4,1-.9,1.3-1.5.3-.6.5-1.3.5-2.1s-.2-1.6-.5-2.2c-.3-.6-.8-1.1-1.4-1.5-.6-.4-1.2-.7-2-1-.7-.3-1.5-.5-2.3-.8-.8-.3-1.7-.6-2.5-.9-.8-.3-1.5-.8-2.2-1.3-.6-.5-1.2-1.2-1.6-2-.4-.8-.6-1.8-.6-2.9s.2-2.3.7-3.2c.5-.9,1.1-1.6,1.9-2.2.8-.6,1.7-1,2.6-1.3,1-.3,1.9-.4,2.8-.4,1.7,0,3.2.3,4.4.9,1.2.6,2.1,1.3,2.8,2.2l-2.1,1.7Z"/>
          <path class="cls-1" d="M520.5,24.7h7.6c1,0,1.9.1,2.9.3,1,.2,1.9.6,2.6,1,.8.5,1.4,1.2,1.9,2,.5.8.7,1.9.7,3.2s-.4,2.5-1.2,3.5c-.8,1-1.9,1.7-3.3,2h0c1.7.3,3,.9,4.1,2,1.1,1.1,1.6,2.6,1.6,4.4s-.2,2-.7,2.9c-.4.9-1.1,1.6-1.9,2.2-.8.6-1.8,1.1-3,1.4-1.2.3-2.5.5-4,.5h-7.5v-25.5ZM523.1,35.9h5.2c.6,0,1.3,0,1.9-.2.6-.1,1.2-.4,1.7-.7.5-.3,1-.8,1.3-1.4.3-.6.5-1.3.5-2.1s-.2-1.5-.5-2.1c-.3-.6-.8-1-1.3-1.4-.6-.4-1.2-.6-1.9-.8-.7-.2-1.5-.2-2.4-.2h-4.5v8.9ZM523.1,48h4.8c.9,0,1.8,0,2.7-.3.9-.2,1.6-.5,2.2-.9.6-.4,1.1-.9,1.5-1.5.4-.6.6-1.4.6-2.3,0-1.7-.6-2.9-1.7-3.8-1.1-.8-2.8-1.2-4.8-1.2h-5.3v10Z"/>
          <path class="cls-1" d="M573.7,24.7h7.2c1.3,0,2.5.1,3.5.4,1.1.3,2,.7,2.7,1.3.8.6,1.3,1.3,1.7,2.1.4.9.6,1.9.6,3s-.2,2.2-.6,3c-.4.9-1,1.6-1.8,2.1-.8.6-1.7,1-2.7,1.3-1.1.3-2.2.4-3.5.4h-4.5v11.8h-2.6v-25.5ZM576.3,36.2h4.4c2,0,3.6-.4,4.6-1.2,1.1-.8,1.6-1.9,1.6-3.5s-.5-2.7-1.6-3.5c-1.1-.7-2.6-1.1-4.6-1.1h-4.4v9.2Z"/>
          <rect class="cls-1" x="550" y="36.3" width="10.8" height="2.3"/>
        </g>
        <g>
          <path class="cls-1" d="M428.5,73.6h-1.1v-8.2h1.1v8.2Z"/>
          <path class="cls-1" d="M431.5,68.1c0,.1,0,.3,0,.5s0,.3,0,.4h0c0-.1.2-.3.3-.4.1-.1.3-.2.4-.3s.3-.2.5-.2c.2,0,.4,0,.6,0,.4,0,.7,0,.9.2.3.1.5.3.6.5.2.2.3.4.4.7,0,.3.1.6.1.9v3.4h-1.1v-3.1c0-.2,0-.4,0-.6,0-.2,0-.4-.2-.5,0-.2-.2-.3-.4-.4-.2,0-.4-.1-.6-.1-.4,0-.8.2-1.1.5-.3.3-.4.8-.4,1.3v2.9h-1.1v-4.3c0-.1,0-.3,0-.6,0-.2,0-.4,0-.6h1Z"/>
          <path class="cls-1" d="M440.3,69.4c-.1-.2-.3-.4-.5-.5-.2-.1-.5-.2-.8-.2s-.2,0-.4,0c-.1,0-.2,0-.3.1,0,0-.2.1-.2.2,0,0,0,.2,0,.3,0,.2.1.4.3.5.2.1.5.2.9.3.3,0,.5.1.7.2.2,0,.4.2.6.3.2.1.3.3.4.5,0,.2.1.4.1.6s0,.6-.2.8c-.1.2-.3.4-.5.6-.2.1-.4.2-.7.3s-.5,0-.8,0c-.4,0-.8,0-1.2-.2-.4-.2-.7-.4-1-.7l.8-.7c.1.2.3.4.6.5.3.1.5.2.9.2s.3,0,.4,0c.1,0,.2,0,.3-.1.1,0,.2-.1.2-.2,0-.1,0-.2,0-.4,0-.3-.1-.4-.4-.6-.2-.1-.6-.2-1.1-.3-.2,0-.4-.1-.6-.2s-.4-.2-.5-.3-.3-.3-.4-.4c0-.2-.1-.4-.1-.6s0-.5.2-.8.3-.4.5-.5c.2-.1.4-.2.7-.3s.5,0,.8,0c.4,0,.8,0,1.1.2.4.2.7.4.9.7l-.8.6Z"/>
          <path class="cls-1" d="M445.2,68.9h-1.5v2.9c0,.3,0,.6.2.7s.3.2.6.2.2,0,.3,0c.1,0,.2,0,.3,0v.9c0,0-.2,0-.4.1-.2,0-.3,0-.5,0-.5,0-.9-.1-1.2-.4-.3-.3-.4-.7-.4-1.3v-3h-1.1v-.9h1.1v-1.6h1.1v1.6h1.5v.9Z"/>
          <path class="cls-1" d="M447.7,66.1c0,.2,0,.4-.2.5-.1.1-.3.2-.5.2s-.4,0-.5-.2c-.1-.1-.2-.3-.2-.5s0-.4.2-.5c.1-.1.3-.2.5-.2s.4,0,.5.2c.1.1.2.3.2.5ZM447.5,73.6h-1.1v-5.5h1.1v5.5Z"/>
          <path class="cls-1" d="M452.1,68.9h-1.5v2.9c0,.3,0,.6.2.7s.3.2.6.2.2,0,.3,0c.1,0,.2,0,.3,0v.9c0,0-.2,0-.4.1-.2,0-.3,0-.5,0-.5,0-.9-.1-1.2-.4-.3-.3-.4-.7-.4-1.3v-3h-1.1v-.9h1.1v-1.6h1.1v1.6h1.5v.9Z"/>
          <path class="cls-1" d="M457.2,73.6c0-.1,0-.3,0-.5s0-.3,0-.4h0c-.1.3-.4.5-.7.7-.3.2-.7.3-1.1.3s-.7,0-.9-.2c-.3-.1-.5-.3-.6-.5-.2-.2-.3-.4-.4-.7,0-.3-.1-.6-.1-.9v-3.4h1.1v3c0,.2,0,.4,0,.6s0,.4.2.5c0,.2.2.3.4.4.2,0,.4.1.6.1.4,0,.8-.2,1.1-.5.3-.3.4-.8.4-1.3v-2.9h1.1v4.3c0,.1,0,.3,0,.6s0,.4,0,.6h-1Z"/>
          <path class="cls-1" d="M462.8,68.9h-1.5v2.9c0,.3,0,.6.2.7s.3.2.6.2.2,0,.3,0c.1,0,.2,0,.3,0v.9c0,0-.2,0-.4.1-.2,0-.3,0-.5,0-.5,0-.9-.1-1.2-.4-.3-.3-.4-.7-.4-1.3v-3h-1.1v-.9h1.1v-1.6h1.1v1.6h1.5v.9Z"/>
          <path class="cls-1" d="M471.1,66.9c-.2-.2-.4-.4-.7-.6-.3-.1-.6-.2-.9-.2s-.4,0-.6,0c-.2,0-.4.1-.5.2-.2.1-.3.3-.4.4s-.1.4-.1.6,0,.4.1.6c0,.2.2.3.4.4.2.1.3.2.5.3.2,0,.4.1.7.2.3,0,.6.2.8.3s.5.3.8.4.4.4.6.7c.1.3.2.6.2,1s0,.8-.2,1.1c-.2.3-.4.6-.6.8-.3.2-.6.4-.9.5-.3.1-.7.2-1.1.2-.5,0-1-.1-1.5-.3-.5-.2-.9-.5-1.2-.9l.9-.8c.2.3.5.5.8.7.3.2.7.3,1.1.3s.4,0,.6,0c.2,0,.4-.1.5-.3.2-.1.3-.3.4-.4s.2-.4.2-.6,0-.5-.2-.6c-.1-.2-.2-.3-.4-.4-.2-.1-.4-.2-.6-.3-.2,0-.5-.2-.7-.2-.3,0-.5-.2-.8-.3-.3-.1-.5-.3-.7-.4-.2-.2-.4-.4-.5-.6s-.2-.6-.2-1,0-.8.2-1.1c.2-.3.4-.5.6-.7.3-.2.6-.3.9-.4.3,0,.7-.1,1-.1s.9,0,1.3.3.8.4,1,.7l-.8.8Z"/>
          <path class="cls-1" d="M477.5,73.6c0-.1,0-.3,0-.5s0-.3,0-.4h0c-.1.3-.4.5-.7.7-.3.2-.7.3-1.1.3s-.7,0-.9-.2c-.3-.1-.5-.3-.6-.5-.2-.2-.3-.4-.4-.7,0-.3-.1-.6-.1-.9v-3.4h1.1v3c0,.2,0,.4,0,.6s0,.4.2.5c0,.2.2.3.4.4.2,0,.4.1.6.1.4,0,.8-.2,1.1-.5.3-.3.4-.8.4-1.3v-2.9h1.1v4.3c0,.1,0,.3,0,.6s0,.4,0,.6h-1Z"/>
          <path class="cls-1" d="M481.5,76.3h-1.1v-8.3h1.1v.9h0c.2-.3.4-.5.8-.7.3-.2.7-.3,1.2-.3s.8,0,1.1.2c.3.1.6.4.9.6.2.3.4.6.6.9s.2.7.2,1.1,0,.8-.2,1.1c-.1.4-.3.7-.6.9s-.5.5-.9.6-.7.2-1.1.2-.8,0-1.1-.3c-.3-.2-.6-.4-.8-.7h0v3.6ZM485.2,70.8c0-.3,0-.5-.1-.7,0-.2-.2-.5-.3-.6s-.3-.3-.6-.4c-.2-.1-.5-.2-.8-.2s-.5,0-.8.2c-.2.1-.4.3-.6.4s-.3.4-.4.6c0,.2-.1.5-.1.8s0,.5.1.8c0,.2.2.5.4.6.2.2.4.3.6.4s.5.2.8.2.6,0,.8-.2c.2-.1.4-.3.6-.4s.3-.4.3-.6c0-.2.1-.5.1-.7Z"/>
          <path class="cls-1" d="M493,70.8v.2c0,0,0,.1,0,.2h-4.4c0,.2,0,.4.2.7,0,.2.2.4.4.5.2.1.3.3.6.4s.4.1.7.1c.4,0,.7,0,1-.2.3-.2.5-.4.6-.6l.8.6c-.3.4-.6.7-1,.9-.4.2-.8.3-1.3.3s-.8,0-1.2-.2c-.4-.1-.7-.3-.9-.6-.3-.3-.5-.6-.6-.9-.1-.4-.2-.8-.2-1.2s0-.8.2-1.2c.1-.4.3-.7.6-.9.3-.3.6-.5.9-.6.3-.1.7-.2,1.1-.2s.8,0,1.1.2c.3.1.6.3.8.6.2.2.4.5.5.9.1.4.2.7.2,1.2ZM491.9,70.3c0-.2,0-.4-.1-.6,0-.2-.2-.4-.3-.5-.1-.1-.3-.2-.5-.3s-.4-.1-.7-.1-.5,0-.7.1c-.2,0-.4.2-.5.3-.2.1-.3.3-.4.5,0,.2-.2.4-.2.6h3.3ZM490.7,67h-.9l1.2-1.7h1.3l-1.6,1.7Z"/>
          <path class="cls-1" d="M494.6,68.7c0-.2,0-.4,0-.6h1c0,.1,0,.3,0,.5,0,.2,0,.3,0,.4h0c.2-.3.4-.6.7-.8s.6-.3,1-.3.3,0,.4,0v1c-.2,0-.4,0-.5,0-.3,0-.5,0-.7.1-.2,0-.4.2-.5.4-.1.2-.2.4-.3.6,0,.2,0,.4,0,.7v2.9h-1.1v-4.3c0-.1,0-.3,0-.6Z"/>
          <path class="cls-1" d="M500.1,66.1c0,.2,0,.4-.2.5-.1.1-.3.2-.5.2s-.4,0-.5-.2c-.1-.1-.2-.3-.2-.5s0-.4.2-.5c.1-.1.3-.2.5-.2s.4,0,.5.2c.1.1.2.3.2.5ZM499.9,73.6h-1.1v-5.5h1.1v5.5Z"/>
          <path class="cls-1" d="M507,70.8v.2c0,0,0,.1,0,.2h-4.4c0,.2,0,.4.2.7,0,.2.2.4.4.5.2.1.3.3.6.4s.4.1.7.1c.4,0,.7,0,1-.2.3-.2.5-.4.6-.6l.8.6c-.3.4-.6.7-1,.9-.4.2-.8.3-1.3.3s-.8,0-1.2-.2c-.4-.1-.7-.3-.9-.6-.3-.3-.5-.6-.6-.9-.1-.4-.2-.8-.2-1.2s0-.8.2-1.2c.1-.4.3-.7.6-.9.3-.3.6-.5.9-.6.3-.1.7-.2,1.1-.2s.8,0,1.1.2c.3.1.6.3.8.6.2.2.4.5.5.9.1.4.2.7.2,1.2ZM505.9,70.3c0-.2,0-.4-.1-.6,0-.2-.2-.4-.3-.5-.1-.1-.3-.2-.5-.3s-.4-.1-.7-.1-.5,0-.7.1c-.2,0-.4.2-.5.3-.2.1-.3.3-.4.5,0,.2-.2.4-.2.6h3.3Z"/>
          <path class="cls-1" d="M512.5,73.6c0-.1,0-.3,0-.5s0-.3,0-.4h0c-.1.3-.4.5-.7.7-.3.2-.7.3-1.1.3s-.7,0-.9-.2c-.3-.1-.5-.3-.6-.5-.2-.2-.3-.4-.4-.7,0-.3-.1-.6-.1-.9v-3.4h1.1v3c0,.2,0,.4,0,.6s0,.4.2.5c0,.2.2.3.4.4.2,0,.4.1.6.1.4,0,.8-.2,1.1-.5.3-.3.4-.8.4-1.3v-2.9h1.1v4.3c0,.1,0,.3,0,.6s0,.4,0,.6h-1Z"/>
          <path class="cls-1" d="M515.4,68.7c0-.2,0-.4,0-.6h1c0,.1,0,.3,0,.5,0,.2,0,.3,0,.4h0c.2-.3.4-.6.7-.8s.6-.3,1-.3.3,0,.4,0v1c-.2,0-.4,0-.5,0-.3,0-.5,0-.7.1-.2,0-.4.2-.5.4-.1.2-.2.4-.3.6,0,.2,0,.4,0,.7v2.9h-1.1v-4.3c0-.1,0-.3,0-.6Z"/>
          <path class="cls-1" d="M527,72.7c-.2.3-.5.6-.9.8s-.7.3-1.1.3-.8,0-1.1-.2c-.3-.2-.6-.4-.9-.6s-.4-.6-.6-.9c-.1-.4-.2-.7-.2-1.1s0-.8.2-1.1c.1-.4.3-.7.6-.9s.5-.5.9-.6c.3-.1.7-.2,1.1-.2s.8,0,1.2.3c.3.2.6.4.8.7h0v-4.1h1.1v8.8h-1.1v-.9h0ZM523.4,70.8c0,.3,0,.5.1.7,0,.2.2.5.3.6.2.2.3.3.6.4s.5.2.8.2.5,0,.8-.2c.2-.1.4-.3.6-.4.2-.2.3-.4.4-.6,0-.2.1-.5.1-.8s0-.5-.1-.8c0-.2-.2-.5-.4-.6-.2-.2-.4-.3-.6-.4-.2-.1-.5-.2-.8-.2s-.6,0-.8.2c-.2.1-.4.3-.6.4s-.3.4-.3.6c0,.2-.1.5-.1.7Z"/>
          <path class="cls-1" d="M535.2,70.8v.2c0,0,0,.1,0,.2h-4.4c0,.2,0,.4.2.7,0,.2.2.4.4.5.2.1.3.3.6.4s.4.1.7.1c.4,0,.7,0,1-.2.3-.2.5-.4.6-.6l.8.6c-.3.4-.6.7-1,.9-.4.2-.8.3-1.3.3s-.8,0-1.2-.2c-.4-.1-.7-.3-.9-.6-.3-.3-.5-.6-.6-.9-.1-.4-.2-.8-.2-1.2s0-.8.2-1.2c.1-.4.3-.7.6-.9.3-.3.6-.5.9-.6.3-.1.7-.2,1.1-.2s.8,0,1.1.2c.3.1.6.3.8.6.2.2.4.5.5.9.1.4.2.7.2,1.2ZM534.1,70.3c0-.2,0-.4-.1-.6,0-.2-.2-.4-.3-.5-.1-.1-.3-.2-.5-.3s-.4-.1-.7-.1-.5,0-.7.1c-.2,0-.4.2-.5.3-.2.1-.3.3-.4.5,0,.2-.2.4-.2.6h3.3Z"/>
          <path class="cls-1" d="M539.7,69.4c-.1-.2-.3-.4-.5-.5-.2-.1-.5-.2-.8-.2s-.2,0-.4,0c-.1,0-.2,0-.3.1,0,0-.2.1-.2.2,0,0,0,.2,0,.3,0,.2.1.4.3.5.2.1.5.2.9.3.3,0,.5.1.7.2.2,0,.4.2.6.3.2.1.3.3.4.5,0,.2.1.4.1.6s0,.6-.2.8c-.1.2-.3.4-.5.6-.2.1-.4.2-.7.3s-.5,0-.8,0c-.4,0-.8,0-1.2-.2-.4-.2-.7-.4-1-.7l.8-.7c.1.2.3.4.6.5.3.1.5.2.9.2s.3,0,.4,0c.1,0,.2,0,.3-.1.1,0,.2-.1.2-.2,0-.1,0-.2,0-.4,0-.3-.1-.4-.4-.6-.2-.1-.6-.2-1.1-.3-.2,0-.4-.1-.6-.2s-.4-.2-.5-.3-.3-.3-.4-.4c0-.2-.1-.4-.1-.6s0-.5.2-.8.3-.4.5-.5c.2-.1.4-.2.7-.3s.5,0,.8,0c.4,0,.8,0,1.1.2.4.2.7.4.9.7l-.8.6Z"/>
          <path class="cls-1" d="M549.1,66.9c-.2-.2-.4-.4-.7-.6-.3-.1-.6-.2-.9-.2s-.4,0-.6,0c-.2,0-.4.1-.5.2-.2.1-.3.3-.4.4s-.1.4-.1.6,0,.4.1.6c0,.2.2.3.4.4.2.1.3.2.5.3.2,0,.4.1.7.2.3,0,.6.2.8.3s.5.3.8.4.4.4.6.7c.1.3.2.6.2,1s0,.8-.2,1.1c-.2.3-.4.6-.6.8-.3.2-.6.4-.9.5-.3.1-.7.2-1.1.2-.5,0-1-.1-1.5-.3-.5-.2-.9-.5-1.2-.9l.9-.8c.2.3.5.5.8.7.3.2.7.3,1.1.3s.4,0,.6,0c.2,0,.4-.1.5-.3.2-.1.3-.3.4-.4s.2-.4.2-.6,0-.5-.2-.6c-.1-.2-.2-.3-.4-.4-.2-.1-.4-.2-.6-.3-.2,0-.5-.2-.7-.2-.3,0-.5-.2-.8-.3-.3-.1-.5-.3-.7-.4-.2-.2-.4-.4-.5-.6s-.2-.6-.2-1,0-.8.2-1.1c.2-.3.4-.5.6-.7.3-.2.6-.3.9-.4.3,0,.7-.1,1-.1s.9,0,1.3.3.8.4,1,.7l-.8.8Z"/>
          <path class="cls-1" d="M555.4,69.4c-.1-.2-.3-.3-.5-.4-.2-.1-.5-.2-.7-.2s-.5,0-.8.2c-.2.1-.4.3-.6.4-.2.2-.3.4-.4.6,0,.2-.1.5-.1.8s0,.5.1.8c0,.2.2.5.4.6.2.2.3.3.6.4s.5.2.8.2.5,0,.8-.2.4-.3.6-.4l.7.7c-.2.3-.5.5-.9.6-.3.2-.7.2-1.2.2s-.8,0-1.2-.2c-.4-.1-.7-.3-.9-.6-.3-.3-.5-.6-.6-.9-.2-.4-.2-.8-.2-1.2s0-.8.2-1.2c.1-.4.4-.7.6-.9.3-.3.6-.5.9-.6.4-.1.7-.2,1.2-.2s.8,0,1.2.2.7.4.9.7l-.8.6Z"/>
          <path class="cls-1" d="M558.6,66.1c0,.2,0,.4-.2.5-.1.1-.3.2-.5.2s-.4,0-.5-.2c-.1-.1-.2-.3-.2-.5s0-.4.2-.5c.1-.1.3-.2.5-.2s.4,0,.5.2c.1.1.2.3.2.5ZM558.5,73.6h-1.1v-5.5h1.1v5.5Z"/>
          <path class="cls-1" d="M565.6,70.8v.2c0,0,0,.1,0,.2h-4.4c0,.2,0,.4.2.7,0,.2.2.4.4.5.2.1.3.3.6.4s.4.1.7.1c.4,0,.7,0,1-.2.3-.2.5-.4.6-.6l.8.6c-.3.4-.6.7-1,.9-.4.2-.8.3-1.3.3s-.8,0-1.2-.2c-.4-.1-.7-.3-.9-.6-.3-.3-.5-.6-.6-.9-.1-.4-.2-.8-.2-1.2s0-.8.2-1.2c.1-.4.3-.7.6-.9.3-.3.6-.5.9-.6.3-.1.7-.2,1.1-.2s.8,0,1.1.2c.3.1.6.3.8.6.2.2.4.5.5.9.1.4.2.7.2,1.2ZM564.5,70.3c0-.2,0-.4-.1-.6,0-.2-.2-.4-.3-.5-.1-.1-.3-.2-.5-.3s-.4-.1-.7-.1-.5,0-.7.1c-.2,0-.4.2-.5.3-.2.1-.3.3-.4.5,0,.2-.2.4-.2.6h3.3Z"/>
          <path class="cls-1" d="M568.1,68.1c0,.1,0,.3,0,.5s0,.3,0,.4h0c0-.1.2-.3.3-.4.1-.1.3-.2.4-.3s.3-.2.5-.2c.2,0,.4,0,.6,0,.4,0,.7,0,.9.2.3.1.5.3.6.5.2.2.3.4.4.7,0,.3.1.6.1.9v3.4h-1.1v-3.1c0-.2,0-.4,0-.6,0-.2,0-.4-.2-.5,0-.2-.2-.3-.4-.4-.2,0-.4-.1-.6-.1-.4,0-.8.2-1.1.5-.3.3-.4.8-.4,1.3v2.9h-1.1v-4.3c0-.1,0-.3,0-.6,0-.2,0-.4,0-.6h1Z"/>
          <path class="cls-1" d="M577.8,69.4c-.1-.2-.3-.3-.5-.4-.2-.1-.5-.2-.7-.2s-.5,0-.8.2c-.2.1-.4.3-.6.4-.2.2-.3.4-.4.6,0,.2-.1.5-.1.8s0,.5.1.8c0,.2.2.5.4.6.2.2.3.3.6.4s.5.2.8.2.5,0,.8-.2.4-.3.6-.4l.7.7c-.2.3-.5.5-.9.6-.3.2-.7.2-1.2.2s-.8,0-1.2-.2c-.4-.1-.7-.3-.9-.6-.3-.3-.5-.6-.6-.9-.2-.4-.2-.8-.2-1.2s0-.8.2-1.2c.1-.4.4-.7.6-.9.3-.3.6-.5.9-.6.4-.1.7-.2,1.2-.2s.8,0,1.2.2.7.4.9.7l-.8.6Z"/>
          <path class="cls-1" d="M584.9,70.8v.2c0,0,0,.1,0,.2h-4.4c0,.2,0,.4.2.7,0,.2.2.4.4.5.2.1.3.3.6.4s.4.1.7.1c.4,0,.7,0,1-.2.3-.2.5-.4.6-.6l.8.6c-.3.4-.6.7-1,.9-.4.2-.8.3-1.3.3s-.8,0-1.2-.2c-.4-.1-.7-.3-.9-.6-.3-.3-.5-.6-.6-.9-.1-.4-.2-.8-.2-1.2s0-.8.2-1.2c.1-.4.3-.7.6-.9.3-.3.6-.5.9-.6.3-.1.7-.2,1.1-.2s.8,0,1.1.2c.3.1.6.3.8.6.2.2.4.5.5.9.1.4.2.7.2,1.2ZM583.8,70.3c0-.2,0-.4-.1-.6,0-.2-.2-.4-.3-.5-.1-.1-.3-.2-.5-.3s-.4-.1-.7-.1-.5,0-.7.1c-.2,0-.4.2-.5.3-.2.1-.3.3-.4.5,0,.2-.2.4-.2.6h3.3Z"/>
          <path class="cls-1" d="M589.4,69.4c-.1-.2-.3-.4-.5-.5-.2-.1-.5-.2-.8-.2s-.2,0-.4,0c-.1,0-.2,0-.3.1,0,0-.2.1-.2.2,0,0,0,.2,0,.3,0,.2.1.4.3.5.2.1.5.2.9.3.3,0,.5.1.7.2.2,0,.4.2.6.3.2.1.3.3.4.5,0,.2.1.4.1.6s0,.6-.2.8c-.1.2-.3.4-.5.6-.2.1-.4.2-.7.3s-.5,0-.8,0c-.4,0-.8,0-1.2-.2-.4-.2-.7-.4-1-.7l.8-.7c.1.2.3.4.6.5.3.1.5.2.9.2s.3,0,.4,0c.1,0,.2,0,.3-.1.1,0,.2-.1.2-.2,0-.1,0-.2,0-.4,0-.3-.1-.4-.4-.6-.2-.1-.6-.2-1.1-.3-.2,0-.4-.1-.6-.2s-.4-.2-.5-.3-.3-.3-.4-.4c0-.2-.1-.4-.1-.6s0-.5.2-.8.3-.4.5-.5c.2-.1.4-.2.7-.3s.5,0,.8,0c.4,0,.8,0,1.1.2.4.2.7.4.9.7l-.8.6Z"/>
          <path class="cls-1" d="M427.4,79.3h2.8c.3,0,.6,0,.9.1.3,0,.6.2.8.3.2.2.4.4.6.6.2.3.2.6.2,1s-.1.8-.4,1.1c-.3.3-.6.5-1,.6h0c.3,0,.5.1.7.2.2.1.4.2.6.4.2.2.3.4.4.6,0,.2.1.5.1.8s0,.7-.2,1c-.2.3-.4.5-.7.7-.3.2-.6.3-1,.4-.4,0-.8.1-1.2.1h-2.7v-8.2ZM428.5,82.7h1.5c.2,0,.4,0,.6,0,.2,0,.4-.1.5-.2.1-.1.3-.2.3-.4,0-.2.1-.3.1-.6,0-.4-.2-.8-.5-.9s-.8-.3-1.3-.3h-1.3v2.5ZM428.5,86.5h1.4c.2,0,.5,0,.7,0,.2,0,.5-.1.7-.2.2-.1.4-.3.5-.4.1-.2.2-.4.2-.7,0-.5-.2-.8-.5-1.1-.3-.2-.8-.3-1.4-.3h-1.5v2.8Z"/>
          <path class="cls-1" d="M436.3,80c0,.2,0,.4-.2.5-.1.1-.3.2-.5.2s-.4,0-.5-.2c-.1-.1-.2-.3-.2-.5s0-.4.2-.5c.1-.1.3-.2.5-.2s.4,0,.5.2c.1.1.2.3.2.5ZM436.1,87.5h-1.1v-5.5h1.1v5.5Z"/>
          <path class="cls-1" d="M443.9,84.7c0,.4,0,.8-.2,1.2-.2.4-.4.7-.6.9-.3.3-.6.5-.9.6-.4.1-.8.2-1.2.2s-.8,0-1.2-.2c-.4-.1-.7-.3-.9-.6-.3-.3-.5-.6-.6-.9-.2-.4-.2-.7-.2-1.2s0-.8.2-1.2c.2-.4.4-.7.6-.9.3-.3.6-.5.9-.6.4-.1.8-.2,1.2-.2s.8,0,1.2.2c.4.1.7.3.9.6.3.3.5.6.6.9s.2.7.2,1.2ZM442.7,84.7c0-.3,0-.5-.1-.8,0-.2-.2-.4-.4-.6s-.3-.3-.6-.4c-.2-.1-.5-.2-.8-.2s-.6,0-.8.2c-.2.1-.4.3-.6.4s-.3.4-.4.6c0,.2-.1.5-.1.8s0,.5.1.8c0,.2.2.5.4.6.2.2.3.3.6.4.2.1.5.2.8.2s.6,0,.8-.2c.2-.1.4-.3.6-.4.2-.2.3-.4.4-.6,0-.2.1-.5.1-.8Z"/>
          <path class="cls-1" d="M446.8,87.5h-1.1v-8.8h1.1v8.8Z"/>
          <path class="cls-1" d="M454.5,84.7c0,.4,0,.8-.2,1.2-.2.4-.4.7-.6.9-.3.3-.6.5-.9.6-.4.1-.8.2-1.2.2s-.8,0-1.2-.2c-.4-.1-.7-.3-.9-.6-.3-.3-.5-.6-.6-.9-.2-.4-.2-.7-.2-1.2s0-.8.2-1.2c.2-.4.4-.7.6-.9.3-.3.6-.5.9-.6.4-.1.8-.2,1.2-.2s.8,0,1.2.2c.4.1.7.3.9.6.3.3.5.6.6.9s.2.7.2,1.2ZM453.4,84.7c0-.3,0-.5-.1-.8,0-.2-.2-.4-.4-.6s-.3-.3-.6-.4c-.2-.1-.5-.2-.8-.2s-.6,0-.8.2c-.2.1-.4.3-.6.4s-.3.4-.4.6c0,.2-.1.5-.1.8s0,.5.1.8c0,.2.2.5.4.6.2.2.3.3.6.4.2.1.5.2.8.2s.6,0,.8-.2c.2-.1.4-.3.6-.4.2-.2.3-.4.4-.6,0-.2.1-.5.1-.8Z"/>
          <path class="cls-1" d="M456.7,88.4c.2.3.5.5.9.6.4.2.7.2,1.1.2s.7,0,.9-.2c.2-.1.4-.2.6-.4.2-.2.3-.4.3-.6,0-.2,0-.5,0-.8v-.7h0c-.2.3-.5.5-.8.7-.3.2-.7.2-1.1.2s-.8,0-1.1-.2c-.3-.1-.6-.3-.9-.6s-.4-.6-.6-.9c-.1-.3-.2-.7-.2-1.1s0-.8.2-1.1c.1-.3.3-.7.6-.9.2-.3.5-.5.9-.6.3-.2.7-.2,1.1-.2s.8,0,1.1.3c.4.2.6.4.9.8h0v-.9h1.1v5.2c0,.4,0,.8-.2,1.2-.1.4-.3.7-.5,1-.2.3-.6.5-.9.7s-.9.3-1.4.3-1,0-1.4-.3c-.5-.2-.9-.4-1.2-.7l.7-.8ZM457.1,84.7c0,.3,0,.5.1.7,0,.2.2.4.4.6.2.2.4.3.6.4.2.1.5.2.8.2s.5,0,.8-.2c.2-.1.4-.2.6-.4.2-.2.3-.4.4-.6,0-.2.1-.5.1-.8s0-.5-.1-.7c0-.2-.2-.4-.4-.6-.2-.2-.4-.3-.6-.4-.2-.1-.5-.2-.8-.2s-.5,0-.8.2c-.2.1-.4.2-.6.4-.2.2-.3.4-.4.6,0,.2-.1.5-.1.7Z"/>
          <path class="cls-1" d="M465.2,80c0,.2,0,.4-.2.5-.1.1-.3.2-.5.2s-.4,0-.5-.2c-.1-.1-.2-.3-.2-.5s0-.4.2-.5c.1-.1.3-.2.5-.2s.4,0,.5.2c.1.1.2.3.2.5ZM465,87.5h-1.1v-5.5h1.1v5.5Z"/>
          <path class="cls-1" d="M471.6,86.7c-.2.3-.5.5-.8.7-.4.2-.7.3-1.1.3s-.8,0-1.1-.2c-.3-.2-.6-.4-.9-.6s-.4-.6-.6-.9c-.1-.4-.2-.7-.2-1.1s0-.8.2-1.1c.1-.4.3-.7.6-.9s.5-.5.9-.6c.3-.1.7-.2,1.1-.2s.8,0,1.2.3.6.4.8.7h0v-.9h1.1v8.3h-1.1v-3.6h0ZM468,84.7c0,.3,0,.5.1.7,0,.2.2.5.3.6s.3.3.6.4c.2.1.5.2.8.2s.5,0,.8-.2.4-.3.6-.4c.2-.2.3-.4.4-.6,0-.2.1-.5.1-.8s0-.5-.1-.8c0-.2-.2-.5-.4-.6-.2-.2-.4-.3-.6-.4-.2-.1-.5-.2-.8-.2s-.6,0-.8.2c-.2.1-.4.3-.6.4s-.3.4-.3.6c0,.2-.1.5-.1.7Z"/>
          <path class="cls-1" d="M478.7,87.5c0-.1,0-.3,0-.5s0-.3,0-.4h0c-.1.3-.4.5-.7.7-.3.2-.7.3-1.1.3s-.7,0-.9-.2c-.3-.1-.5-.3-.6-.5-.2-.2-.3-.4-.4-.7,0-.3-.1-.6-.1-.9v-3.4h1.1v3c0,.2,0,.4,0,.6s0,.4.2.5c0,.2.2.3.4.4.2,0,.4.1.6.1.4,0,.8-.2,1.1-.5.3-.3.4-.8.4-1.3v-2.9h1.1v4.3c0,.1,0,.3,0,.6s0,.4,0,.6h-1Z"/>
          <path class="cls-1" d="M487,84.7v.2c0,0,0,.1,0,.2h-4.4c0,.2,0,.4.2.7,0,.2.2.4.4.5.2.1.3.3.6.4s.4.1.7.1c.4,0,.7,0,1-.2.3-.2.5-.4.6-.6l.8.6c-.3.4-.6.7-1,.9-.4.2-.8.3-1.3.3s-.8,0-1.2-.2c-.4-.1-.7-.3-.9-.6-.3-.3-.5-.6-.6-.9-.1-.4-.2-.8-.2-1.2s0-.8.2-1.2c.1-.4.3-.7.6-.9.3-.3.6-.5.9-.6.3-.1.7-.2,1.1-.2s.8,0,1.1.2c.3.1.6.3.8.6.2.2.4.5.5.9.1.4.2.7.2,1.2ZM485.9,84.2c0-.2,0-.4-.1-.6,0-.2-.2-.4-.3-.5-.1-.1-.3-.2-.5-.3s-.4-.1-.7-.1-.5,0-.7.1c-.2,0-.4.2-.5.3-.2.1-.3.3-.4.5,0,.2-.2.4-.2.6h3.3Z"/>
          <path class="cls-1" d="M491.8,83.4c-.1-.2-.3-.4-.5-.5-.2-.1-.5-.2-.8-.2s-.2,0-.4,0c-.1,0-.2,0-.3.1,0,0-.2.1-.2.2,0,0,0,.2,0,.3,0,.2.1.4.3.5.2.1.5.2.9.3.3,0,.5.1.7.2.2,0,.4.2.6.3.2.1.3.3.4.5,0,.2.1.4.1.6s0,.6-.2.8c-.1.2-.3.4-.5.6-.2.1-.4.2-.7.3s-.5,0-.8,0c-.4,0-.8,0-1.2-.2-.4-.2-.7-.4-1-.7l.8-.7c.1.2.3.4.6.5.3.1.5.2.9.2s.3,0,.4,0c.1,0,.2,0,.3-.1.1,0,.2-.1.2-.2,0-.1,0-.2,0-.4,0-.3-.1-.4-.4-.6-.2-.1-.6-.2-1.1-.3-.2,0-.4-.1-.6-.2s-.4-.2-.5-.3-.3-.3-.4-.4c0-.2-.1-.4-.1-.6s0-.5.2-.8.3-.4.5-.5c.2-.1.4-.2.7-.3s.5,0,.8,0c.4,0,.8,0,1.1.2.4.2.7.4.9.7l-.8.6Z"/>
          <path class="cls-1" d="M502.5,84.7v.2c0,0,0,.1,0,.2h-4.4c0,.2,0,.4.2.7,0,.2.2.4.4.5.2.1.3.3.6.4s.4.1.7.1c.4,0,.7,0,1-.2.3-.2.5-.4.6-.6l.8.6c-.3.4-.6.7-1,.9-.4.2-.8.3-1.3.3s-.8,0-1.2-.2c-.4-.1-.7-.3-.9-.6-.3-.3-.5-.6-.6-.9-.1-.4-.2-.8-.2-1.2s0-.8.2-1.2c.1-.4.3-.7.6-.9.3-.3.6-.5.9-.6.3-.1.7-.2,1.1-.2s.8,0,1.1.2c.3.1.6.3.8.6.2.2.4.5.5.9.1.4.2.7.2,1.2ZM501.4,84.2c0-.2,0-.4-.1-.6,0-.2-.2-.4-.3-.5-.1-.1-.3-.2-.5-.3s-.4-.1-.7-.1-.5,0-.7.1c-.2,0-.4.2-.5.3-.2.1-.3.3-.4.5,0,.2-.2.4-.2.6h3.3Z"/>
          <path class="cls-1" d="M507,82.9h-1.5v2.9c0,.3,0,.6.2.7s.3.2.6.2.2,0,.3,0c.1,0,.2,0,.3,0v.9c0,0-.2,0-.4.1-.2,0-.3,0-.5,0-.5,0-.9-.1-1.2-.4-.3-.3-.4-.7-.4-1.3v-3h-1.1v-.9h1.1v-1.6h1.1v1.6h1.5v.9Z"/>
          <path class="cls-1" d="M511.7,79.3h2.5c.4,0,.8,0,1.2.1.4,0,.7.2.9.4s.5.4.6.7c.1.3.2.6.2,1s0,.8-.2,1.1c-.2.3-.4.5-.6.7-.3.2-.6.3-1,.4-.4,0-.8.1-1.2.1h-1.3v3.6h-1.1v-8.2ZM512.8,82.9h1.2c.3,0,.5,0,.8,0,.2,0,.4-.1.6-.2.2-.1.3-.2.4-.4,0-.2.1-.4.1-.6s0-.5-.1-.6-.2-.3-.4-.4c-.2-.1-.4-.2-.6-.2s-.5,0-.8,0h-1.2v2.7Z"/>
          <path class="cls-1" d="M521.6,83.9c0-.4-.1-.7-.4-.9s-.6-.3-1-.3-.6,0-.9.2c-.3.1-.5.3-.7.5l-.6-.7c.3-.3.6-.5,1-.6.4-.1.8-.2,1.3-.2s.7,0,1,.2c.3.1.5.3.7.5.2.2.3.4.4.7,0,.3.1.5.1.8v2.4c0,.2,0,.4,0,.6,0,.2,0,.4,0,.5h-1c0-.3,0-.5,0-.8h0c-.2.3-.5.5-.8.7-.3.2-.7.2-1.1.2s-.4,0-.7,0c-.2,0-.5-.2-.6-.3-.2-.1-.4-.3-.5-.5-.1-.2-.2-.5-.2-.8s.1-.7.3-1,.5-.4.9-.6c.4-.1.8-.2,1.2-.2s.9,0,1.4,0v-.2ZM521.3,84.9c-.3,0-.6,0-.8,0-.3,0-.6,0-.8.1-.2,0-.4.2-.6.3-.2.1-.2.3-.2.6s0,.3,0,.4c0,.1.2.2.3.3.1,0,.2.1.4.1s.3,0,.4,0c.5,0,.9-.2,1.2-.5.3-.3.4-.7.4-1.2v-.3h-.3Z"/>
          <path class="cls-1" d="M524.7,82.6c0-.2,0-.4,0-.6h1c0,.1,0,.3,0,.5,0,.2,0,.3,0,.4h0c.2-.3.4-.6.7-.8s.6-.3,1-.3.3,0,.4,0v1c-.2,0-.4,0-.5,0-.3,0-.5,0-.7.1-.2,0-.4.2-.5.4-.1.2-.2.4-.3.6,0,.2,0,.4,0,.7v2.9h-1.1v-4.3c0-.1,0-.3,0-.6Z"/>
          <path class="cls-1" d="M532.4,83.9c0-.4-.1-.7-.4-.9s-.6-.3-1-.3-.6,0-.9.2c-.3.1-.5.3-.7.5l-.6-.7c.3-.3.6-.5,1-.6.4-.1.8-.2,1.3-.2s.7,0,1,.2c.3.1.5.3.7.5.2.2.3.4.4.7,0,.3.1.5.1.8v2.4c0,.2,0,.4,0,.6,0,.2,0,.4,0,.5h-1c0-.3,0-.5,0-.8h0c-.2.3-.5.5-.8.7-.3.2-.7.2-1.1.2s-.4,0-.7,0c-.2,0-.5-.2-.6-.3-.2-.1-.4-.3-.5-.5-.1-.2-.2-.5-.2-.8s.1-.7.3-1,.5-.4.9-.6c.4-.1.8-.2,1.2-.2s.9,0,1.4,0v-.2ZM532.2,84.9c-.3,0-.6,0-.8,0-.3,0-.6,0-.8.1-.2,0-.4.2-.6.3-.2.1-.2.3-.2.6s0,.3,0,.4c0,.1.2.2.3.3.1,0,.2.1.4.1s.3,0,.4,0c.5,0,.9-.2,1.2-.5.3-.3.4-.7.4-1.2v-.3h-.3Z"/>
          <path class="cls-1" d="M537.3,82.1c.3-.2.7-.3,1.1-.3s.7,0,1,.3c.3.2.5.5.7.8.2-.4.4-.6.8-.8.3-.2.7-.3,1.1-.3s.7,0,.9.2c.3.1.5.3.6.5.2.2.3.4.4.7,0,.3.1.6.1.9v3.4h-1.1v-3.1c0-.2,0-.4,0-.6,0-.2-.1-.4-.2-.5,0-.2-.2-.3-.4-.4-.2,0-.4-.1-.6-.1s-.5,0-.6.2c-.2.1-.3.2-.4.4-.1.2-.2.4-.2.6s0,.4,0,.6v3h-1.1v-3.3c0-.2,0-.4,0-.6,0-.2-.1-.3-.2-.5,0-.1-.2-.2-.4-.3-.1,0-.3-.1-.5-.1-.4,0-.7.2-1,.5-.3.3-.4.8-.4,1.3v2.9h-1.1v-4.3c0-.1,0-.3,0-.6,0-.2,0-.4,0-.6h1c0,.1,0,.3,0,.5s0,.3,0,.4h0c.1-.3.4-.5.7-.7Z"/>
          <path class="cls-1" d="M551.3,84.7v.2c0,0,0,.1,0,.2h-4.4c0,.2,0,.4.2.7,0,.2.2.4.4.5.2.1.3.3.6.4s.4.1.7.1c.4,0,.7,0,1-.2.3-.2.5-.4.6-.6l.8.6c-.3.4-.6.7-1,.9-.4.2-.8.3-1.3.3s-.8,0-1.2-.2c-.4-.1-.7-.3-.9-.6-.3-.3-.5-.6-.6-.9-.1-.4-.2-.8-.2-1.2s0-.8.2-1.2c.1-.4.3-.7.6-.9.3-.3.6-.5.9-.6.3-.1.7-.2,1.1-.2s.8,0,1.1.2c.3.1.6.3.8.6.2.2.4.5.5.9.1.4.2.7.2,1.2ZM550.2,84.2c0-.2,0-.4-.1-.6,0-.2-.2-.4-.3-.5-.1-.1-.3-.2-.5-.3s-.4-.1-.7-.1-.5,0-.7.1c-.2,0-.4.2-.5.3-.2.1-.3.3-.4.5,0,.2-.2.4-.2.6h3.3ZM549,80.9h-.9l1.2-1.7h1.3l-1.6,1.7Z"/>
          <path class="cls-1" d="M557.5,86.6c-.2.3-.5.6-.9.8s-.7.3-1.1.3-.8,0-1.1-.2c-.3-.2-.6-.4-.9-.6s-.4-.6-.6-.9c-.1-.4-.2-.7-.2-1.1s0-.8.2-1.1c.1-.4.3-.7.6-.9s.5-.5.9-.6c.3-.1.7-.2,1.1-.2s.8,0,1.2.3c.3.2.6.4.8.7h0v-4.1h1.1v8.8h-1.1v-.9h0ZM553.9,84.7c0,.3,0,.5.1.7,0,.2.2.5.3.6.2.2.3.3.6.4s.5.2.8.2.5,0,.8-.2c.2-.1.4-.3.6-.4.2-.2.3-.4.4-.6,0-.2.1-.5.1-.8s0-.5-.1-.8c0-.2-.2-.5-.4-.6-.2-.2-.4-.3-.6-.4-.2-.1-.5-.2-.8-.2s-.6,0-.8.2c-.2.1-.4.3-.6.4s-.3.4-.3.6c0,.2-.1.5-.1.7Z"/>
          <path class="cls-1" d="M562,80c0,.2,0,.4-.2.5-.1.1-.3.2-.5.2s-.4,0-.5-.2c-.1-.1-.2-.3-.2-.5s0-.4.2-.5c.1-.1.3-.2.5-.2s.4,0,.5.2c.1.1.2.3.2.5ZM561.8,87.5h-1.1v-5.5h1.1v5.5Z"/>
          <path class="cls-1" d="M567.9,83.4c-.1-.2-.3-.3-.5-.4-.2-.1-.5-.2-.7-.2s-.5,0-.8.2c-.2.1-.4.3-.6.4-.2.2-.3.4-.4.6,0,.2-.1.5-.1.8s0,.5.1.8c0,.2.2.5.4.6.2.2.3.3.6.4s.5.2.8.2.5,0,.8-.2.4-.3.6-.4l.7.7c-.2.3-.5.5-.9.6-.3.2-.7.2-1.2.2s-.8,0-1.2-.2c-.4-.1-.7-.3-.9-.6-.3-.3-.5-.6-.6-.9-.2-.4-.2-.8-.2-1.2s0-.8.2-1.2c.1-.4.4-.7.6-.9.3-.3.6-.5.9-.6.4-.1.7-.2,1.2-.2s.8,0,1.2.2.7.4.9.7l-.8.6Z"/>
          <path class="cls-1" d="M573.5,83.9c0-.4-.1-.7-.4-.9s-.6-.3-1-.3-.6,0-.9.2c-.3.1-.5.3-.7.5l-.6-.7c.3-.3.6-.5,1-.6.4-.1.8-.2,1.3-.2s.7,0,1,.2c.3.1.5.3.7.5.2.2.3.4.4.7,0,.3.1.5.1.8v2.4c0,.2,0,.4,0,.6,0,.2,0,.4,0,.5h-1c0-.3,0-.5,0-.8h0c-.2.3-.5.5-.8.7-.3.2-.7.2-1.1.2s-.4,0-.7,0c-.2,0-.5-.2-.6-.3-.2-.1-.4-.3-.5-.5-.1-.2-.2-.5-.2-.8s.1-.7.3-1,.5-.4.9-.6c.4-.1.8-.2,1.2-.2s.9,0,1.4,0v-.2ZM573.2,84.9c-.3,0-.6,0-.8,0-.3,0-.6,0-.8.1-.2,0-.4.2-.6.3-.2.1-.2.3-.2.6s0,.3,0,.4c0,.1.2.2.3.3.1,0,.2.1.4.1s.3,0,.4,0c.5,0,.9-.2,1.2-.5.3-.3.4-.7.4-1.2v-.3h-.3Z"/>
          <path class="cls-1" d="M577.7,87.5h-1.1v-8.8h1.1v8.8Z"/>
          <path class="cls-1" d="M585,84.7v.2c0,0,0,.1,0,.2h-4.4c0,.2,0,.4.2.7,0,.2.2.4.4.5.2.1.3.3.6.4s.4.1.7.1c.4,0,.7,0,1-.2.3-.2.5-.4.6-.6l.8.6c-.3.4-.6.7-1,.9-.4.2-.8.3-1.3.3s-.8,0-1.2-.2c-.4-.1-.7-.3-.9-.6-.3-.3-.5-.6-.6-.9-.1-.4-.2-.8-.2-1.2s0-.8.2-1.2c.1-.4.3-.7.6-.9.3-.3.6-.5.9-.6.3-.1.7-.2,1.1-.2s.8,0,1.1.2c.3.1.6.3.8.6.2.2.4.5.5.9.1.4.2.7.2,1.2ZM583.9,84.2c0-.2,0-.4-.1-.6,0-.2-.2-.4-.3-.5-.1-.1-.3-.2-.5-.3s-.4-.1-.7-.1-.5,0-.7.1c-.2,0-.4.2-.5.3-.2.1-.3.3-.4.5,0,.2-.2.4-.2.6h3.3Z"/>
          <path class="cls-1" d="M589.8,83.4c-.1-.2-.3-.4-.5-.5-.2-.1-.5-.2-.8-.2s-.2,0-.4,0c-.1,0-.2,0-.3.1,0,0-.2.1-.2.2,0,0,0,.2,0,.3,0,.2.1.4.3.5.2.1.5.2.9.3.3,0,.5.1.7.2.2,0,.4.2.6.3.2.1.3.3.4.5,0,.2.1.4.1.6s0,.6-.2.8c-.1.2-.3.4-.5.6-.2.1-.4.2-.7.3s-.5,0-.8,0c-.4,0-.8,0-1.2-.2-.4-.2-.7-.4-1-.7l.8-.7c.1.2.3.4.6.5.3.1.5.2.9.2s.3,0,.4,0c.1,0,.2,0,.3-.1.1,0,.2-.1.2-.2,0-.1,0-.2,0-.4,0-.3-.1-.4-.4-.6-.2-.1-.6-.2-1.1-.3-.2,0-.4-.1-.6-.2s-.4-.2-.5-.3-.3-.3-.4-.4c0-.2-.1-.4-.1-.6s0-.5.2-.8.3-.4.5-.5c.2-.1.4-.2.7-.3s.5,0,.8,0c.4,0,.8,0,1.1.2.4.2.7.4.9.7l-.8.6Z"/>
        </g>
      </g>
      <g>
        <g>
          <rect class="cls-2" y="7.3" width="80.2" height="80.2"/>
          <path class="cls-3" d="M61.4,23.5v28.1c0,6.3-1.9,11.4-5.6,15.2-3.7,3.8-9,5.7-15.7,5.7s-12-1.9-15.8-5.7c-3.7-3.8-5.6-8.9-5.6-15.2v-28.1h11.5v27.9c0,3.2.8,5.8,2.5,7.7,1.7,2,4.1,3,7.3,3s5.6-1,7.3-3c1.7-2,2.5-4.6,2.5-7.7v-27.9h11.5Z"/>
          <rect class="cls-2" x="88.3" y="7.3" width="80.2" height="80.2"/>
          <rect class="cls-2" x="176.4" y="7.3" width="80.2" height="80.2"/>
          <rect class="cls-2" x="264.6" y="7.3" width="80.2" height="80.2"/>
          <polygon class="cls-3" points="153.9 23.3 153.9 71.4 142.5 71.4 142.5 43.3 128.3 62.6 114.2 43.3 114.2 71.4 102.8 71.4 102.8 23.3 113.6 23.3 128.4 44.7 143 23.3 153.9 23.3"/>
          <path class="cls-3" d="M221.9,60.4c1.3-1.3,2-3,2-5.1s-.7-3.7-2-5c-1.3-1.4-3.1-2-5.4-2s-4,.7-5.3,2c-1.4,1.3-2.1,3-2.1,5.1s.7,3.8,2,5.1c1.4,1.3,3.2,2,5.4,2s4-.7,5.4-2M230.5,43.6c3.2,3.1,4.8,7,4.8,11.7s-1.8,9.1-5.3,12.4c-3.6,3.3-8,4.9-13.4,4.9s-9.8-1.6-13.4-4.9c-3.6-3.3-5.4-7.4-5.4-12.4s1.1-6.6,3.4-10.2l13.7-21.6h12.8l-9.4,14.9c5,.4,9.1,2.1,12.2,5.2"/>
          <path class="cls-3" d="M311.9,45.7c1.3-1.4,1.9-3.1,1.9-4.9s-.6-3.5-1.8-4.9c-1.2-1.4-2.8-2.1-4.6-2.1h-11.6v14.1h11.1c2,0,3.7-.7,5-2.1M320.1,28.6c3.2,3.5,4.8,7.5,4.8,12s-1.6,8.6-4.8,12.1c-3.2,3.5-7.5,5.3-12.9,5.3h-11.4v13.4h-11.3V23.3h23.1c5.1,0,9.3,1.8,12.5,5.3"/>
        </g>
        <rect class="cls-2" x="385.1" y="7.3" width="1" height="80.2"/>
      </g>
    </g>
  </g>
</svg>