<?xml version="1.0" encoding="UTF-8"?>
<svg id="Layer_2" data-name="Layer 2" xmlns="http://www.w3.org/2000/svg" xmlns:xlink="http://www.w3.org/1999/xlink" viewBox="0 0 879.4 80.2">
  <defs>
    <style>
      .cls-1 {
        fill: #d1451e;
      }

      .cls-1, .cls-2, .cls-3, .cls-4, .cls-5, .cls-6, .cls-7, .cls-8, .cls-9, .cls-10, .cls-11, .cls-12, .cls-13, .cls-14, .cls-15, .cls-16, .cls-17, .cls-18, .cls-19, .cls-20, .cls-21 {
        stroke-width: 0px;
      }

      .cls-22 {
        clip-path: url(#clippath);
      }

      .cls-2 {
        fill: none;
      }

      .cls-3 {
        fill: #397d44;
      }

      .cls-4 {
        fill: url(#linear-gradient);
      }

      .cls-5 {
        fill: url(#linear-gradient-11);
      }

      .cls-6 {
        fill: url(#linear-gradient-12);
      }

      .cls-7 {
        fill: url(#linear-gradient-13);
      }

      .cls-8 {
        fill: url(#linear-gradient-10);
      }

      .cls-9 {
        fill: url(#linear-gradient-15);
      }

      .cls-10 {
        fill: url(#linear-gradient-14);
      }

      .cls-11 {
        fill: #d74a2a;
      }

      .cls-12 {
        fill: url(#linear-gradient-4);
      }

      .cls-13 {
        fill: url(#linear-gradient-2);
      }

      .cls-14 {
        fill: url(#linear-gradient-3);
      }

      .cls-15 {
        fill: url(#linear-gradient-8);
      }

      .cls-16 {
        fill: url(#linear-gradient-9);
      }

      .cls-17 {
        fill: url(#linear-gradient-7);
      }

      .cls-18 {
        fill: url(#linear-gradient-5);
      }

      .cls-19 {
        fill: url(#linear-gradient-6);
      }

      .cls-20 {
        fill: #34b25b;
      }

      .cls-21 {
        fill: #fff;
      }
    </style>
    <clipPath id="clippath">
      <rect class="cls-2" x="423.5" width="128.1" height="80.2" rx="2.5" ry="2.5"/>
    </clipPath>
    <linearGradient id="linear-gradient" x1="446.1" y1="45.1" x2="445" y2="98.4" gradientUnits="userSpaceOnUse">
      <stop offset="0" stop-color="#34b25b"/>
      <stop offset=".3" stop-color="#73be5e"/>
      <stop offset="1" stop-color="#34b25b"/>
    </linearGradient>
    <linearGradient id="linear-gradient-2" x1="548.6" y1="47.2" x2="547.5" y2="100.4" xlink:href="#linear-gradient"/>
    <linearGradient id="linear-gradient-3" x1="532.8" y1="46.9" x2="531.7" y2="100.1" xlink:href="#linear-gradient"/>
    <linearGradient id="linear-gradient-4" x1="502.9" y1="46.3" x2="501.9" y2="99.5" xlink:href="#linear-gradient"/>
    <linearGradient id="linear-gradient-5" x1="477.6" y1="45.8" x2="476.5" y2="99" xlink:href="#linear-gradient"/>
    <linearGradient id="linear-gradient-6" x1="446.1" y1="42.6" x2="444.8" y2="104.2" gradientUnits="userSpaceOnUse">
      <stop offset=".2" stop-color="#34b25b"/>
      <stop offset=".4" stop-color="#27a554"/>
      <stop offset=".6" stop-color="#33b15b"/>
    </linearGradient>
    <linearGradient id="linear-gradient-7" x1="548.7" y1="44.8" x2="547.2" y2="118.9" xlink:href="#linear-gradient-6"/>
    <linearGradient id="linear-gradient-8" x1="532.9" y1="44.5" x2="531.3" y2="123.1" xlink:href="#linear-gradient-6"/>
    <linearGradient id="linear-gradient-9" x1="503" y1="44.6" x2="501.4" y2="121.2" xlink:href="#linear-gradient-6"/>
    <linearGradient id="linear-gradient-10" x1="477.6" y1="43.4" x2="476" y2="121.5" xlink:href="#linear-gradient-6"/>
    <linearGradient id="linear-gradient-11" x1="441.8" y1="25.7" x2="441.8" y2="52.3" gradientUnits="userSpaceOnUse">
      <stop offset="0" stop-color="#34b25b"/>
      <stop offset="1" stop-color="#09803d"/>
    </linearGradient>
    <linearGradient id="linear-gradient-12" x1="463.3" x2="463.3" y2="52.3" xlink:href="#linear-gradient-11"/>
    <linearGradient id="linear-gradient-13" x1="488.6" y1="25.7" x2="488.6" y2="52.3" xlink:href="#linear-gradient-11"/>
    <linearGradient id="linear-gradient-14" x1="513.6" y1="25.7" x2="513.6" y2="52.3" xlink:href="#linear-gradient-11"/>
    <linearGradient id="linear-gradient-15" x1="534.2" y1="25.7" x2="534.2" y2="52.3" xlink:href="#linear-gradient-11"/>
  </defs>
  <g id="Layer_1-2" data-name="Layer 1">
    <g>
      <g>
        <path class="cls-3" d="M570.5,19.9c-2,0-3.7-.5-5.1-1.6s-2.4-2.4-2.9-3.9l2.6-.8c.4,1.1,1.1,2,2.1,2.7s2.1,1.1,3.5,1.1,2.1-.3,2.9-.9,1.1-1.2,1.1-2-.2-1.1-.6-1.5c-.4-.4-1.2-.8-2.2-1.1l-4.5-1.5c-2.7-.9-4-2.3-4-4.5s.6-2.6,1.7-3.5,2.6-1.5,4.4-1.5,3.4.4,4.7,1.3c1.3.9,2.2,1.9,2.8,3.2l-2.6.8c-.4-.9-1.1-1.5-1.9-2.1-.9-.5-1.8-.8-3-.8s-1.8.2-2.4.7-1,1.1-1,1.7.2,1,.5,1.3c.4.3.9.6,1.7.9l4.4,1.4c1.5.5,2.7,1.1,3.5,1.8s1.2,1.7,1.2,3-.6,2.9-1.9,3.9-3,1.6-5,1.6h0Z"/>
        <path class="cls-3" d="M586.3,20c-1.9,0-3.5-.7-4.8-2s-1.9-3-1.9-4.9.6-3.6,1.9-4.9c1.3-1.3,2.9-2,4.8-2s2.9.4,4,1.3,1.8,1.8,2,2.9l-2.5.7c-.2-.6-.6-1.2-1.3-1.7-.7-.5-1.4-.7-2.3-.7s-2.2.4-3,1.3c-.8.9-1.2,1.9-1.2,3.1s.4,2.2,1.2,3.1c.8.9,1.8,1.3,3,1.3s1.6-.2,2.3-.7c.7-.5,1.1-1,1.3-1.7l2.5.7c-.3,1.1-.9,2-2,2.8-1.1.8-2.4,1.3-4,1.3h0Z"/>
        <path class="cls-3" d="M602,6.1c1.6,0,2.9.5,3.8,1.5.9,1,1.3,2.4,1.3,4.2v7.7h-2.6v-7.2c0-1.2-.3-2.1-.8-2.7s-1.3-1-2.3-1-2,.4-2.7,1.2c-.7.8-1,1.9-1,3.2v6.5h-2.7V.6h2.7v7.8c1.1-1.5,2.5-2.3,4.4-2.3h0Z"/>
        <path class="cls-3" d="M616.4,19.9c-1.9,0-3.6-.7-4.8-2s-1.9-2.9-1.9-4.9.6-3.6,1.9-4.9,2.9-2,4.8-2,3.6.6,4.9,2,1.9,2.9,1.9,4.9-.6,3.6-1.9,4.9-2.9,2-4.8,2h0ZM619.4,16.2c.8-.8,1.2-1.9,1.2-3.1s-.4-2.3-1.2-3.2-1.8-1.3-3-1.3-2.2.4-3,1.3c-.8.8-1.2,1.9-1.2,3.2s.4,2.3,1.2,3.1c.8.8,1.8,1.3,3,1.3s2.2-.4,3-1.3Z"/>
        <path class="cls-3" d="M631.9,19.9c-1.9,0-3.6-.7-4.8-2s-1.9-2.9-1.9-4.9.6-3.6,1.9-4.9,2.9-2,4.8-2,3.6.6,4.9,2,1.9,2.9,1.9,4.9-.6,3.6-1.9,4.9-2.9,2-4.8,2h0ZM634.9,16.2c.8-.8,1.2-1.9,1.2-3.1s-.4-2.3-1.2-3.2-1.8-1.3-3-1.3-2.2.4-3,1.3c-.8.8-1.2,1.9-1.2,3.2s.4,2.3,1.2,3.1c.8.8,1.8,1.3,3,1.3s2.2-.4,3-1.3Z"/>
        <path class="cls-3" d="M641.4.6h2.7v19h-2.7V.6Z"/>
        <path class="cls-3" d="M660,19.9c-1.9,0-3.6-.7-4.8-2s-1.9-2.9-1.9-4.9.6-3.6,1.9-4.9,2.9-2,4.8-2,3.6.6,4.9,2,1.9,2.9,1.9,4.9-.6,3.6-1.9,4.9-2.9,2-4.8,2h0ZM663,16.2c.8-.8,1.2-1.9,1.2-3.1s-.4-2.3-1.2-3.2-1.8-1.3-3-1.3-2.2.4-3,1.3c-.8.8-1.2,1.9-1.2,3.2s.4,2.3,1.2,3.1c.8.8,1.8,1.3,3,1.3s2.2-.4,3-1.3Z"/>
        <path class="cls-3" d="M673.1,6.5h4.2v2.4h-4.2v10.7h-2.7v-10.7h-2.5v-2.4h2.5v-1.5c0-1.5.4-2.7,1.1-3.5.7-.8,1.8-1.3,3.2-1.3s2,.2,2.7.5l-.6,2.2c-.6-.3-1.1-.4-1.7-.4-1.3,0-1.9.8-1.9,2.5v1.4Z"/>
        <path class="cls-3" d="M575,45.2h-8.4l-1.7,4.4h-2.9l7-18.2h3.5l7,18.2h-2.9l-1.7-4.4ZM574,42.7l-3.3-8.6-3.3,8.6h6.6Z"/>
        <path class="cls-3" d="M593.9,36.5v12.6c0,1.8-.6,3.3-1.8,4.5-1.2,1.2-2.7,1.8-4.7,1.8-2.8,0-4.9-1.1-6.1-3.4l2.3-.9c.8,1.3,2,2,3.8,2,1.2,0,2.1-.4,2.7-1.1.7-.7,1-1.7,1-2.8v-1.9c-1.1,1.5-2.6,2.2-4.5,2.2s-3.4-.6-4.6-1.9-1.8-2.9-1.8-4.7.6-3.5,1.8-4.8c1.2-1.2,2.7-1.9,4.6-1.9s3.4.7,4.5,2.2v-1.8h2.7ZM587.2,47c1.2,0,2.2-.4,3-1.2s1.2-1.8,1.2-3-.4-2.2-1.2-3-1.8-1.2-3-1.2-2.2.4-3,1.2c-.8.8-1.2,1.8-1.2,3s.4,2.2,1.2,3c.8.8,1.8,1.2,3,1.2h0Z"/>
        <path class="cls-3" d="M600.1,38.6c.4-.8,1-1.4,1.7-1.8s1.6-.5,2.7-.4v2.5c-1.4-.2-2.5,0-3.2.8s-1.1,2.1-1.1,3.9v5.9h-2.7v-13.1h2.7v2.1h0Z"/>
        <path class="cls-3" d="M607,33.9c-.3-.3-.5-.7-.5-1.2s.2-.8.5-1.2c.3-.3.7-.5,1.2-.5s.9.2,1.2.5c.3.3.5.7.5,1.2s-.2.9-.5,1.2c-.3.3-.7.5-1.2.5s-.9-.2-1.2-.5ZM606.9,36.5h2.6v13.1h-2.6v-13.1Z"/>
        <path class="cls-3" d="M619,50c-1.9,0-3.5-.7-4.8-2s-1.9-3-1.9-4.9.6-3.6,1.9-4.9c1.3-1.3,2.9-2,4.8-2s2.9.4,4,1.3,1.8,1.8,2,2.9l-2.5.7c-.2-.6-.6-1.2-1.3-1.7-.7-.5-1.4-.7-2.3-.7s-2.2.4-3,1.3c-.8.9-1.2,1.9-1.2,3.1s.4,2.2,1.2,3.1c.8.9,1.8,1.3,3,1.3s1.6-.2,2.3-.7c.7-.5,1.1-1,1.3-1.7l2.5.7c-.3,1.1-.9,2-2,2.8-1.1.8-2.4,1.3-4,1.3h0Z"/>
        <path class="cls-3" d="M639.8,36.5v13.1h-2.6v-2c-1,1.5-2.5,2.3-4.4,2.3-1.6,0-2.9-.5-3.8-1.5-.9-1-1.3-2.4-1.3-4.2v-7.7h2.7v7.2c0,1.2.3,2.1.8,2.7s1.3,1,2.3,1,2-.4,2.7-1.2,1-1.9,1-3.2v-6.5h2.6Z"/>
        <path class="cls-3" d="M643.3,30.6h2.7v19h-2.7v-19Z"/>
        <path class="cls-3" d="M657.3,49.2c-1,.4-1.9.6-2.8.6-1.3,0-2.3-.4-3-1.2s-1-1.9-1-3.3v-6.4h-2.3v-2.4h2.3v-4.4h2.6v4.4h4.1v2.4h-4.1v6.4c0,1.3.6,2,1.8,2s1.1-.1,1.7-.4l.7,2.2Z"/>
        <path class="cls-3" d="M671.8,36.5v13.1h-2.6v-2c-1,1.5-2.5,2.3-4.4,2.3-1.6,0-2.9-.5-3.8-1.5-.9-1-1.3-2.4-1.3-4.2v-7.7h2.7v7.2c0,1.2.3,2.1.8,2.7s1.3,1,2.3,1,2-.4,2.7-1.2,1-1.9,1-3.2v-6.5h2.6Z"/>
        <path class="cls-3" d="M678,38.6c.4-.8,1-1.4,1.7-1.8s1.6-.5,2.7-.4v2.5c-1.4-.2-2.5,0-3.2.8s-1.1,2.1-1.1,3.9v5.9h-2.7v-13.1h2.7v2.1h0Z"/>
        <path class="cls-3" d="M690,49.9c-2,0-3.7-.6-4.9-1.9-1.3-1.3-1.9-2.9-1.9-5s.6-3.6,1.8-4.9,2.8-2,4.7-2,3.6.6,4.8,1.9,1.7,2.8,1.7,4.7,0,.7,0,1.1h-10.4c0,1.1.5,2,1.2,2.7s1.7,1,3,1,3-.7,3.6-2.1l2.4.7c-.5,1-1.2,1.9-2.3,2.6s-2.3,1.1-3.9,1.1h0ZM693.6,42.1c0-1-.5-1.9-1.2-2.6s-1.6-1-2.7-1-2,.3-2.7,1-1.1,1.5-1.2,2.5h7.8Z"/>
        <path class="cls-3" d="M698.9,46.4h2.9l-1.8,6.7h-2.2l1.1-6.7Z"/>
        <path class="cls-3" d="M714,33.9v5.5h8.5v2.5h-8.5v7.7h-2.8v-18.2h12.6v2.6h-9.8Z"/>
        <path class="cls-3" d="M731.4,49.9c-2,0-3.7-.6-4.9-1.9-1.3-1.3-1.9-2.9-1.9-5s.6-3.6,1.8-4.9,2.8-2,4.7-2,3.6.6,4.8,1.9,1.7,2.8,1.7,4.7,0,.7,0,1.1h-10.4c0,1.1.5,2,1.2,2.7s1.7,1,3,1,3-.7,3.6-2.1l2.4.7c-.5,1-1.2,1.9-2.3,2.6s-2.3,1.1-3.9,1.1h0ZM735.1,42.1c0-1-.5-1.9-1.2-2.6s-1.6-1-2.7-1-2,.3-2.7,1-1.1,1.5-1.2,2.5h7.8Z"/>
        <path class="cls-3" d="M743.1,38.6c.4-.8,1-1.4,1.7-1.8s1.6-.5,2.7-.4v2.5c-1.4-.2-2.5,0-3.2.8s-1.1,2.1-1.1,3.9v5.9h-2.7v-13.1h2.7v2.1h0Z"/>
        <path class="cls-3" d="M758.1,49.2c-1,.4-1.9.6-2.8.6-1.3,0-2.3-.4-3-1.2s-1-1.9-1-3.3v-6.4h-2.3v-2.4h2.3v-4.4h2.6v4.4h4.1v2.4h-4.1v6.4c0,1.3.6,2,1.8,2s1.1-.1,1.7-.4l.7,2.2Z"/>
        <path class="cls-3" d="M760.9,33.9c-.3-.3-.5-.7-.5-1.2s.2-.8.5-1.2c.3-.3.7-.5,1.2-.5s.9.2,1.2.5c.3.3.5.7.5,1.2s-.2.9-.5,1.2c-.3.3-.7.5-1.2.5s-.9-.2-1.2-.5ZM760.7,36.5h2.6v13.1h-2.6v-13.1Z"/>
        <path class="cls-3" d="M767,30.6h2.7v19h-2.7v-19Z"/>
        <path class="cls-3" d="M773.4,33.9c-.3-.3-.5-.7-.5-1.2s.2-.8.5-1.2c.3-.3.7-.5,1.2-.5s.9.2,1.2.5c.3.3.5.7.5,1.2s-.2.9-.5,1.2c-.3.3-.7.5-1.2.5s-.9-.2-1.2-.5ZM773.2,36.5h2.6v13.1h-2.6v-13.1Z"/>
        <path class="cls-3" d="M789.9,47.3v2.3h-11.1v-1.7l7.4-9h-7.2v-2.3h10.8v1.8l-7.4,9h7.6Z"/>
        <path class="cls-3" d="M797.8,49.9c-1.8,0-3.3-.7-4.5-2s-1.8-2.9-1.8-4.9.6-3.6,1.8-4.9,2.7-2,4.5-2,3.5.8,4.6,2.3v-2h2.6v13.1h-2.6v-2c-1.1,1.5-2.6,2.3-4.6,2.3h0ZM798.2,47.5c1.2,0,2.2-.4,3-1.3s1.2-1.9,1.2-3.2-.4-2.3-1.2-3.2-1.8-1.3-3-1.3-2.2.4-3,1.2-1.2,1.9-1.2,3.2.4,2.3,1.2,3.2c.8.8,1.8,1.3,3,1.3h0Z"/>
        <path class="cls-3" d="M816.4,49.2c-1,.4-1.9.6-2.8.6-1.3,0-2.3-.4-3-1.2s-1-1.9-1-3.3v-6.4h-2.3v-2.4h2.3v-4.4h2.6v4.4h4.1v2.4h-4.1v6.4c0,1.3.6,2,1.8,2s1.1-.1,1.7-.4l.7,2.2Z"/>
        <path class="cls-3" d="M819.2,33.9c-.3-.3-.5-.7-.5-1.2s.2-.8.5-1.2c.3-.3.7-.5,1.2-.5s.9.2,1.2.5c.3.3.5.7.5,1.2s-.2.9-.5,1.2c-.3.3-.7.5-1.2.5s-.9-.2-1.2-.5ZM819,36.5h2.6v13.1h-2.6v-13.1Z"/>
        <path class="cls-3" d="M831.2,49.9c-1.9,0-3.6-.7-4.8-2s-1.9-2.9-1.9-4.9.6-3.6,1.9-4.9,2.9-2,4.8-2,3.6.6,4.9,2,1.9,2.9,1.9,4.9-.6,3.6-1.9,4.9-2.9,2-4.8,2h0ZM834.2,46.2c.8-.8,1.2-1.9,1.2-3.1s-.4-2.3-1.2-3.2-1.8-1.3-3-1.3-2.2.4-3,1.3c-.8.8-1.2,1.9-1.2,3.2s.4,2.3,1.2,3.1c.8.8,1.8,1.3,3,1.3s2.2-.4,3-1.3Z"/>
        <path class="cls-3" d="M847.8,36.1c1.6,0,2.9.5,3.8,1.5.9,1,1.3,2.4,1.3,4.2v7.7h-2.6v-7.2c0-1.2-.3-2.1-.8-2.7s-1.3-1-2.3-1-2,.4-2.7,1.2c-.7.8-1,1.9-1,3.2v6.5h-2.7v-13.1h2.7v1.9c1.1-1.5,2.5-2.3,4.4-2.3h0Z"/>
        <path class="cls-3" d="M576.1,79.6l-1.8-2c-1.6,1.5-3.5,2.3-5.5,2.3-1.5,0-2.8-.5-3.9-1.5-1.1-1-1.6-2.2-1.6-3.8s.3-2,.9-3c.6-.9,1.4-1.7,2.6-2.4-1-1.2-1.5-2.4-1.5-3.5s.5-2.7,1.5-3.6c1-.9,2.3-1.3,3.8-1.3s2.5.4,3.5,1.2,1.5,1.8,1.7,2.9l-2.4.7c-.2-.7-.5-1.3-1-1.7-.5-.4-1.1-.6-1.8-.6s-1.4.2-1.9.7-.7,1-.7,1.8.4,1.6,1.3,2.6l5,5.4c.6-1,1-2.1,1.2-3.1l2.4.7c-.3,1.5-.9,3-1.8,4.3l3.5,3.8h-3.3ZM569.1,77.5c1.3,0,2.5-.5,3.6-1.6l-4.3-4.7c-1.6.9-2.4,2.1-2.4,3.4s.3,1.5.9,2.1,1.3.9,2.3.9h0Z"/>
        <path class="cls-3" d="M590.5,63.9v5.2h8.8v2.4h-8.8v5.5h10v2.6h-12.8v-18.2h12.8v2.6h-10.1Z"/>
        <path class="cls-3" d="M610.7,66.1c1.6,0,2.9.5,3.8,1.5.9,1,1.3,2.4,1.3,4.2v7.7h-2.6v-7.2c0-1.2-.3-2.1-.8-2.7s-1.3-1-2.3-1-2,.4-2.7,1.2c-.7.8-1,1.9-1,3.2v6.5h-2.7v-13.1h2.7v1.9c1.1-1.5,2.5-2.3,4.4-2.3h0Z"/>
        <path class="cls-3" d="M630.7,66.5l-5.4,13.1h-3l-5.4-13.1h2.9l4,10.1,4-10.1h2.9Z"/>
        <path class="cls-3" d="M632.9,63.9c-.3-.3-.5-.7-.5-1.2s.2-.8.5-1.2c.3-.3.7-.5,1.2-.5s.9.2,1.2.5c.3.3.5.7.5,1.2s-.2.9-.5,1.2c-.3.3-.7.5-1.2.5s-.9-.2-1.2-.5ZM632.7,66.5h2.6v13.1h-2.6v-13.1Z"/>
        <path class="cls-3" d="M641.6,68.6c.4-.8,1-1.4,1.7-1.8s1.6-.5,2.7-.4v2.5c-1.4-.2-2.5,0-3.2.8s-1.1,2.1-1.1,3.9v5.9h-2.7v-13.1h2.7v2.1h0Z"/>
        <path class="cls-3" d="M653.5,79.9c-1.9,0-3.6-.7-4.8-2s-1.9-2.9-1.9-4.9.6-3.6,1.9-4.9,2.9-2,4.8-2,3.6.6,4.9,2,1.9,2.9,1.9,4.9-.6,3.6-1.9,4.9-2.9,2-4.8,2h0ZM656.6,76.2c.8-.8,1.2-1.9,1.2-3.1s-.4-2.3-1.2-3.2-1.8-1.3-3-1.3-2.2.4-3,1.3c-.8.8-1.2,1.9-1.2,3.2s.4,2.3,1.2,3.1c.8.8,1.8,1.3,3,1.3s2.2-.4,3-1.3Z"/>
        <path class="cls-3" d="M670.1,66.1c1.6,0,2.9.5,3.8,1.5.9,1,1.3,2.4,1.3,4.2v7.7h-2.6v-7.2c0-1.2-.3-2.1-.8-2.7s-1.3-1-2.3-1-2,.4-2.7,1.2c-.7.8-1,1.9-1,3.2v6.5h-2.7v-13.1h2.7v1.9c1.1-1.5,2.5-2.3,4.4-2.3h0Z"/>
        <path class="cls-3" d="M693.6,66.2c1.5,0,2.7.5,3.6,1.5s1.4,2.4,1.4,4.1v7.8h-2.7v-7.3c0-1.1-.2-2-.7-2.6s-1.2-.9-2.2-.9-1.8.4-2.3,1.1-.9,1.7-.9,2.9v6.8h-2.6v-7.3c0-1.1-.2-2-.7-2.6-.5-.6-1.2-.9-2.1-.9s-1.8.4-2.4,1.1c-.6.8-.9,1.8-.9,3.1v6.6h-2.7v-13.1h2.7v1.8c1-1.4,2.3-2.2,4-2.2s3.2.7,3.9,2.2c1-1.5,2.5-2.2,4.5-2.2h0Z"/>
        <path class="cls-3" d="M708.1,79.9c-2,0-3.7-.6-4.9-1.9-1.3-1.3-1.9-2.9-1.9-5s.6-3.6,1.8-4.9,2.8-2,4.7-2,3.6.6,4.8,1.9,1.7,2.8,1.7,4.7,0,.7,0,1.1h-10.4c0,1.1.5,2,1.2,2.7s1.7,1,3,1,3-.7,3.6-2.1l2.4.7c-.5,1-1.2,1.9-2.3,2.6s-2.3,1.1-3.9,1.1h0ZM711.7,72.1c0-1-.5-1.9-1.2-2.6s-1.6-1-2.7-1-2,.3-2.7,1-1.1,1.5-1.2,2.5h7.8Z"/>
        <path class="cls-3" d="M724.1,66.1c1.6,0,2.9.5,3.8,1.5.9,1,1.3,2.4,1.3,4.2v7.7h-2.6v-7.2c0-1.2-.3-2.1-.8-2.7s-1.3-1-2.3-1-2,.4-2.7,1.2c-.7.8-1,1.9-1,3.2v6.5h-2.7v-13.1h2.7v1.9c1.1-1.5,2.5-2.3,4.4-2.3h0Z"/>
        <path class="cls-3" d="M740.4,79.2c-1,.4-1.9.6-2.8.6-1.3,0-2.3-.4-3-1.2s-1-1.9-1-3.3v-6.4h-2.3v-2.4h2.3v-4.4h2.6v4.4h4.1v2.4h-4.1v6.4c0,1.3.6,2,1.8,2s1.1-.1,1.7-.4l.7,2.2Z"/>
        <path class="cls-3" d="M747.8,79.9c-1.8,0-3.3-.7-4.5-2s-1.8-2.9-1.8-4.9.6-3.6,1.8-4.9,2.7-2,4.5-2,3.5.8,4.6,2.3v-2h2.6v13.1h-2.6v-2c-1.1,1.5-2.6,2.3-4.6,2.3h0ZM748.2,77.5c1.2,0,2.2-.4,3-1.3.8-.8,1.2-1.9,1.2-3.2s-.4-2.3-1.2-3.2c-.8-.8-1.8-1.3-3-1.3s-2.2.4-3,1.2-1.2,1.9-1.2,3.2.4,2.3,1.2,3.2c.8.8,1.8,1.3,3,1.3h0Z"/>
        <path class="cls-3" d="M758.6,60.6h2.7v19h-2.7v-19Z"/>
        <path class="cls-3" d="M778.2,79.9c-2,0-3.7-.5-5.1-1.6s-2.4-2.4-2.9-3.9l2.6-.8c.4,1.1,1.1,2,2.1,2.7s2.1,1.1,3.5,1.1,2.1-.3,2.9-.9,1.1-1.2,1.1-2-.2-1.1-.6-1.5c-.4-.4-1.2-.8-2.2-1.1l-4.5-1.5c-2.7-.9-4-2.3-4-4.5s.6-2.6,1.7-3.5,2.6-1.5,4.4-1.5,3.4.4,4.7,1.3c1.3.9,2.2,1.9,2.8,3.2l-2.6.8c-.4-.9-1.1-1.5-1.9-2.1-.9-.5-1.8-.8-3-.8s-1.8.2-2.4.7-1,1.1-1,1.7.2,1,.5,1.3c.4.3.9.6,1.7.9l4.4,1.4c1.5.5,2.7,1.1,3.5,1.8s1.2,1.7,1.2,3-.6,2.9-1.9,3.9-3,1.6-5,1.6h0Z"/>
        <path class="cls-3" d="M794,80c-1.9,0-3.5-.7-4.8-2s-1.9-3-1.9-4.9.6-3.6,1.9-4.9c1.3-1.3,2.9-2,4.8-2s2.9.4,4,1.3,1.8,1.8,2,2.9l-2.5.7c-.2-.6-.6-1.2-1.3-1.7-.7-.5-1.4-.7-2.3-.7s-2.2.4-3,1.3c-.8.9-1.2,1.9-1.2,3.1s.4,2.2,1.2,3.1c.8.9,1.8,1.3,3,1.3s1.6-.2,2.3-.7c.7-.5,1.1-1,1.3-1.7l2.5.7c-.3,1.1-.9,2-2,2.8-1.1.8-2.4,1.3-4,1.3h0Z"/>
        <path class="cls-3" d="M802.9,63.9c-.3-.3-.5-.7-.5-1.2s.2-.8.5-1.2c.3-.3.7-.5,1.2-.5s.9.2,1.2.5c.3.3.5.7.5,1.2s-.2.9-.5,1.2c-.3.3-.7.5-1.2.5s-.9-.2-1.2-.5ZM802.8,66.5h2.6v13.1h-2.6v-13.1Z"/>
        <path class="cls-3" d="M815.1,79.9c-2,0-3.7-.6-4.9-1.9-1.3-1.3-1.9-2.9-1.9-5s.6-3.6,1.8-4.9,2.8-2,4.7-2,3.6.6,4.8,1.9,1.7,2.8,1.7,4.7,0,.7,0,1.1h-10.4c0,1.1.5,2,1.2,2.7s1.7,1,3,1,3-.7,3.6-2.1l2.4.7c-.5,1-1.2,1.9-2.3,2.6s-2.3,1.1-3.9,1.1h0ZM818.7,72.1c0-1-.5-1.9-1.2-2.6s-1.6-1-2.7-1-2,.3-2.7,1-1.1,1.5-1.2,2.5h7.8Z"/>
        <path class="cls-3" d="M831.1,66.1c1.6,0,2.9.5,3.8,1.5.9,1,1.3,2.4,1.3,4.2v7.7h-2.6v-7.2c0-1.2-.3-2.1-.8-2.7s-1.3-1-2.3-1-2,.4-2.7,1.2c-.7.8-1,1.9-1,3.2v6.5h-2.7v-13.1h2.7v1.9c1.1-1.5,2.5-2.3,4.4-2.3h0Z"/>
        <path class="cls-3" d="M845.5,80c-1.9,0-3.5-.7-4.8-2s-1.9-3-1.9-4.9.6-3.6,1.9-4.9c1.3-1.3,2.9-2,4.8-2s2.9.4,4,1.3,1.8,1.8,2,2.9l-2.5.7c-.2-.6-.6-1.2-1.3-1.7-.7-.5-1.4-.7-2.3-.7s-2.2.4-3,1.3c-.8.9-1.2,1.9-1.2,3.1s.4,2.2,1.2,3.1c.8.9,1.8,1.3,3,1.3s1.6-.2,2.3-.7c.7-.5,1.1-1,1.3-1.7l2.5.7c-.3,1.1-.9,2-2,2.8-1.1.8-2.4,1.3-4,1.3h0Z"/>
        <path class="cls-3" d="M860.2,79.9c-2,0-3.7-.6-4.9-1.9-1.3-1.3-1.9-2.9-1.9-5s.6-3.6,1.8-4.9,2.8-2,4.7-2,3.6.6,4.8,1.9,1.7,2.8,1.7,4.7,0,.7,0,1.1h-10.4c0,1.1.5,2,1.2,2.7s1.7,1,3,1,3-.7,3.6-2.1l2.4.7c-.5,1-1.2,1.9-2.3,2.6s-2.3,1.1-3.9,1.1h0ZM863.9,72.1c0-1-.5-1.9-1.2-2.6s-1.6-1-2.7-1-2,.3-2.7,1-1.1,1.5-1.2,2.5h7.8Z"/>
        <path class="cls-3" d="M874,79.9c-1.4,0-2.7-.4-3.8-1.2-1.1-.8-1.8-1.7-2.2-2.8l2.4-.7c.2.7.7,1.3,1.4,1.8s1.4.7,2.3.7,1.4-.2,1.9-.5.7-.8.7-1.3-.1-.7-.4-.9-.7-.4-1.3-.6l-3.4-1c-2-.6-3-1.7-3-3.4s.5-1.9,1.4-2.7,2.1-1.1,3.5-1.1,2.5.3,3.5.9,1.7,1.4,2,2.4l-2.4.7c-.3-.5-.7-1-1.2-1.3s-1.2-.5-2-.5-1.2.2-1.6.5c-.4.3-.6.7-.6,1.1s.5,1,1.4,1.3l3.4,1c1.1.3,1.9.7,2.5,1.3.6.5.9,1.3.9,2.3s-.5,2.2-1.5,2.9-2.3,1.2-3.8,1.2h0Z"/>
      </g>
      <g>
        <g>
          <rect class="cls-11" y="0" width="80.1" height="80.1"/>
          <path class="cls-21" d="M61.4,16.2v28.1c0,6.3-1.9,11.4-5.6,15.2-3.7,3.8-9,5.7-15.7,5.7s-12-1.9-15.8-5.7c-3.7-3.8-5.6-8.9-5.6-15.2v-28.1h11.5v27.9c0,3.2.8,5.8,2.5,7.7,1.7,2,4.1,3,7.3,3s5.6-1,7.3-3c1.7-2,2.5-4.5,2.5-7.7v-27.9h11.5Z"/>
          <rect class="cls-11" x="88.2" y="0" width="80.1" height="80.1"/>
          <rect class="cls-11" x="176.4" y="0" width="80.1" height="80.1"/>
          <rect class="cls-11" x="264.5" y="0" width="80.1" height="80.1"/>
          <polygon class="cls-21" points="153.8 16 153.8 64.1 142.4 64.1 142.4 36 128.3 55.3 114.2 36 114.2 64.1 102.8 64.1 102.8 16 113.6 16 128.3 37.4 142.9 16 153.8 16"/>
          <path class="cls-21" d="M221.8,53.1c1.3-1.3,2-3,2-5.1s-.7-3.7-2-5c-1.3-1.4-3.1-2-5.4-2s-4,.7-5.3,2c-1.4,1.3-2.1,3-2.1,5.1s.7,3.8,2,5.1c1.4,1.3,3.2,2,5.4,2s4-.7,5.4-2M230.4,36.3c3.2,3.1,4.8,7,4.8,11.7s-1.8,9.1-5.3,12.4c-3.6,3.3-8,4.9-13.4,4.9s-9.8-1.6-13.4-4.9c-3.6-3.3-5.4-7.4-5.4-12.4s1.1-6.6,3.4-10.2l13.6-21.6h12.8l-9.4,14.9c5,.4,9.1,2.1,12.2,5.2"/>
          <path class="cls-21" d="M311.8,38.4c1.3-1.4,1.9-3.1,1.9-4.9s-.6-3.5-1.8-4.9c-1.2-1.4-2.8-2.1-4.6-2.1h-11.6v14.1h11.1c2,0,3.7-.7,5-2.1M320,21.3c3.2,3.5,4.8,7.5,4.8,12s-1.6,8.6-4.8,12.1c-3.2,3.5-7.5,5.3-12.9,5.3h-11.4v13.4h-11.3V16h23.1c5.1,0,9.3,1.8,12.5,5.3"/>
        </g>
        <rect class="cls-1" x="384.9" y="0" width="1" height="80.2"/>
      </g>
      <g>
        <rect class="cls-20" x="423.5" width="128.1" height="80.2" rx="2.5" ry="2.5"/>
        <g class="cls-22">
          <g>
            <path class="cls-4" d="M506,45.7c-23.9,5.4-46.2,16.6-66.4,30.3-11.7,7.8-22.9,17.4-33,27.1,0,0-21.1-29.7-21.1-29.7,6.9-3.5,14.6-7.2,21.8-10.2,4.1-1.9,10.6-4.1,14.8-5.8,0,0,7.5-2.5,7.5-2.5,24.6-7.7,50.7-12.5,76.4-10.7,0,0,0,1.5,0,1.5h0Z"/>
            <path class="cls-13" d="M506,44.2c28.8,0,54.5,18.9,70.1,42.2,5.4,8,10,16.6,13.7,25.4l-22.5,7.1c-3.3-16.3-9.2-32.2-19.3-45.5-7.6-10.1-17.8-18.6-29.6-23.7-4-1.7-8.2-3.2-12.5-4v-1.5h0Z"/>
            <path class="cls-14" d="M506.2,44.2c17.3,4.3,31.3,26.6,38.9,41.6,5,10,9.5,21.6,13.2,32.2,0,0-23.1,4.8-23.1,4.8-1.2-14-3.1-28.7-7.2-42.1-3.7-11.7-8.5-23.8-17.8-32.1-1.3-1.1-2.8-2.2-4.3-2.9l.3-1.4h0Z"/>
            <polygon class="cls-12" points="506.8 45 513.2 121.2 489.7 119.8 505.3 44.9 506.8 45 506.8 45"/>
            <path class="cls-18" d="M506.1,45.7c-15.6,7.1-26.1,38.7-30.8,54.4-1.8,6.1-3.9,14.7-5.4,20.9,0,0-22.2-8.1-22.2-8.1,3.2-6.1,7.6-14.3,11-20.1,10.1-16.6,24.6-39.5,42.8-47.6,1.5-.5,2.8-1,4.4-1v1.5h.1Z"/>
          </g>
          <g>
            <path class="cls-19" d="M406.6,103.4l-21.5-30.1h.3c6.2-3.2,14.2-7.2,21.8-10.3,2.8-1.3,6.8-2.8,10.3-4.1,1.6-.6,3.2-1.2,4.5-1.7l7.5-2.5c27.6-8.7,53.4-12.3,76.5-10.8h.2s0,1.9,0,1.9h-.2c-21.6,5-43.9,15.1-66.3,30.3-10.6,7.1-21.7,16.2-33,27l-.2.2ZM385.9,73.5l20.8,29.2c11.3-10.8,22.3-19.8,32.9-26.9,22.4-15.2,44.6-25.3,66.2-30.3,0-.3,0-.8,0-1-23-1.5-48.6,2.1-76.1,10.7l-7.5,2.5c-1.3.5-2.9,1.1-4.5,1.7-3.5,1.3-7.5,2.8-10.2,4-7.4,3.1-15.4,7-21.5,10.1Z"/>
            <path class="cls-17" d="M567.2,119.3v-.3c-3.7-18.1-10.2-33.3-19.3-45.4-8-10.5-18.2-18.7-29.5-23.7-4.5-2-8.6-3.3-12.4-4h-.2s0-2,0-2h.2c13.5,0,27.4,4.2,40.2,12.4,11.6,7.4,22,17.8,30.1,29.9,5.2,7.6,9.8,16.2,13.8,25.4v.3c.1,0-22.9,7.3-22.9,7.3ZM506.3,45.5c3.8.7,7.8,2,12.3,3.9,11.4,5,21.7,13.2,29.7,23.8,9.2,12.1,15.7,27.4,19.3,45.4l22-7c-3.9-9.1-8.5-17.6-13.6-25.1-8.1-12.1-18.5-22.4-30-29.8-12.6-8-26.3-12.3-39.6-12.3v1Z"/>
            <path class="cls-15" d="M535,123.2v-.3c-1-10.9-2.7-27.2-7.2-42.1-3.4-11-8.2-23.5-17.8-32-1.5-1.3-3-2.3-4.3-2.9h-.2c0,0,.4-2,.4-2h.2c9.3,2.3,23.6,11.4,39.1,41.8,4.4,8.8,8.9,19.6,13.2,32.3v.3c0,0-.2,0-.2,0-.1,0-22.9,4.7-23.1,4.8h-.3ZM506.1,45.5c1.3.6,2.7,1.6,4.2,2.9,9.6,8.6,14.4,21.1,17.9,32.3,4.4,14.8,6.2,31,7.1,41.9,16.9-3.5,21.3-4.4,22.6-4.6-4.3-12.5-8.7-23.3-13.1-32-15.3-29.9-29.3-39.1-38.5-41.4l-.2,1Z"/>
            <path class="cls-16" d="M513.5,121.4l-24.1-1.4,15.7-75.4h1.9c0,.1,6.5,76.8,6.5,76.8ZM490,119.6l23,1.3-6.4-75.7h-1c0,0-15.5,74.4-15.5,74.4Z"/>
            <path class="cls-8" d="M470.1,121.4l-22.7-8.3.6-1c3.1-5.8,7.3-13.8,10.6-19.3,11.6-19,25.4-39.9,42.9-47.7,1.4-.5,2.8-1,4.5-1.1h.2s.1,1.9.1,1.9h-.2c-11.1,5.1-21.4,23.4-30.6,54.3-1.8,6.1-4,14.9-5.4,20.9v.3ZM448.1,112.8l21.6,7.9c1.4-6,3.5-14.6,5.4-20.7,9.2-31,19.6-49.3,30.7-54.5v-1.1c-1.6.1-2.9.6-4.2,1-17.4,7.7-31.1,28.6-42.7,47.5-3.3,5.5-7.5,13.5-10.6,19.3l-.3.5Z"/>
          </g>
        </g>
        <g>
          <g>
            <path class="cls-5" d="M439.1,30.9v7.4h9.4c.2,0,.4.2.4.4v3.6c0,.2-.2.4-.4.4h-9.4v7.7h10.6c.2,0,.4.2.4.4v3.8c0,.2-.2.4-.4.4h-15.8c-.2,0-.4-.2-.4-.4v-27.7c0-.2.2-.4.4-.4h15.8c.2,0,.4.2.4.4v3.8c0,.2-.2.4-.4.4h-10.6Z"/>
            <path class="cls-6" d="M472.2,51.1c-.7,1.2-1.8,2.2-3.1,2.9s-3.1,1.1-5.1,1.1-3.7-.3-5.3-1c-1.5-.7-2.8-1.7-3.7-3-.9-1.2-1.4-2.5-1.6-4.1s.2-.4.4-.4h4.9c.3,0,.6.2.6.5.2.9.6,1.7,1.3,2.3s1.8,1.1,3.1,1.1,2-.3,2.7-.9c.6-.6.9-1.4.9-2.4s-.2-1.6-.7-2.2c-.5-.6-1.1-1-1.9-1.4-.8-.3-1.8-.8-3.1-1.2-1.7-.6-3.1-1.2-4.2-1.8-1.1-.6-2-1.4-2.8-2.5s-1.2-2.5-1.2-4.3.9-4.4,2.6-5.8c1.7-1.4,4-2.1,6.8-2.1s5.3.7,7,2.2c1.7,1.5,2.7,3.4,3,5.8h-5.7c-.2,0-.3-.1-.4-.3-.2-.9-.6-1.6-1.2-2.2s-1.6-1-2.8-1-1.8.3-2.5.8c-.6.5-.9,1.4-.9,2.4s.2,1.5.7,2.1c.5.6,1.1,1,1.8,1.4.7.4,1.8.7,3,1.2,1.8.6,3.2,1.2,4.3,1.8s2.1,1.4,2.8,2.5c.8,1.1,1.2,2.6,1.2,4.4s-.4,2.8-1.1,4Z"/>
            <path class="cls-7" d="M494.2,49.1h-11.1l-1.8,5.3c0,.3-.3.4-.6.4h-4.9c-.3,0-.4-.3-.4-.5l9.9-27.4c0-.1.2-.2.4-.2h5.8c.2,0,.3,0,.4.2l9.9,27.4c0,.2,0,.5-.4.5h-4.9c-.3,0-.5-.2-.6-.4l-1.8-5.3ZM492.7,44.8l-4.1-12-4.1,12h8.2Z"/>
            <path class="cls-10" d="M522.2,26.8v3.8c0,.2-.2.4-.4.4h-11.3v7.6h9c.2,0,.4.2.4.4v3.6c0,.2-.2.4-.4.4h-9v11.5c0,.3-.2.5-.5.5h-4.7c-.2,0-.4-.2-.4-.4v-27.7c0-.2.2-.4.4-.4h16.5c.2,0,.4.2.4.4Z"/>
            <path class="cls-9" d="M531.5,30.9v7.4h9.4c.2,0,.4.2.4.4v3.6c0,.2-.2.4-.4.4h-9.4v7.7h10.6c.2,0,.4.2.4.4v3.8c0,.2-.2.4-.4.4h-15.8c-.2,0-.4-.2-.4-.4v-27.7c0-.2.2-.4.4-.4h15.8c.2,0,.4.2.4.4v3.8c0,.2-.2.4-.4.4h-10.6Z"/>
          </g>
          <g>
            <path class="cls-21" d="M438.2,29.9v7.4h9.4c.2,0,.4.2.4.4v3.6c0,.2-.2.4-.4.4h-9.4v7.7h10.6c.2,0,.4.2.4.4v3.8c0,.2-.2.4-.4.4h-15.8c-.2,0-.4-.2-.4-.4v-27.7c0-.2.2-.4.4-.4h15.8c.2,0,.4.2.4.4v3.8c0,.2-.2.4-.4.4h-10.6Z"/>
            <path class="cls-21" d="M471.2,50.1c-.7,1.2-1.8,2.2-3.1,2.9s-3.1,1.1-5.1,1.1-3.7-.3-5.3-1c-1.5-.7-2.8-1.7-3.7-3-.9-1.2-1.4-2.5-1.6-4.1s.2-.4.4-.4h4.9c.3,0,.6.2.6.5.2.9.6,1.7,1.3,2.3s1.8,1.1,3.1,1.1,2-.3,2.7-.9c.6-.6.9-1.4.9-2.4s-.2-1.6-.7-2.2c-.5-.6-1.1-1-1.9-1.4-.8-.3-1.8-.8-3.1-1.2-1.7-.6-3.1-1.2-4.2-1.8s-2-1.4-2.8-2.5-1.2-2.5-1.2-4.3.9-4.4,2.6-5.8c1.7-1.4,4-2.1,6.8-2.1s5.3.7,7,2.2c1.7,1.5,2.7,3.4,3,5.8h-5.7c-.2,0-.3-.1-.4-.3-.2-.9-.6-1.6-1.2-2.2s-1.6-1-2.8-1-1.8.3-2.5.8c-.6.5-.9,1.4-.9,2.4s.2,1.5.7,2.1c.5.6,1.1,1,1.8,1.4.7.4,1.8.7,3,1.2,1.8.6,3.2,1.2,4.3,1.8s2.1,1.4,2.8,2.5c.8,1.1,1.2,2.6,1.2,4.4s-.4,2.8-1.1,4Z"/>
            <path class="cls-21" d="M493.3,48.2h-11.1l-1.8,5.3c0,.3-.3.4-.6.4h-4.9c-.3,0-.4-.3-.4-.5l9.9-27.4c0-.1.2-.2.4-.2h5.8c.2,0,.3,0,.4.2l9.9,27.4c0,.2,0,.5-.4.5h-4.9c-.3,0-.5-.2-.6-.4l-1.8-5.3ZM491.8,43.9l-4.1-12-4.1,12h8.2Z"/>
            <path class="cls-21" d="M521.3,25.8v3.8c0,.2-.2.4-.4.4h-11.3v7.6h9c.2,0,.4.2.4.4v3.6c0,.2-.2.4-.4.4h-9v11.5c0,.3-.2.5-.5.5h-4.7c-.2,0-.4-.2-.4-.4v-27.7c0-.2.2-.4.4-.4h16.5c.2,0,.4.2.4.4Z"/>
            <path class="cls-21" d="M530.5,29.9v7.4h9.4c.2,0,.4.2.4.4v3.6c0,.2-.2.4-.4.4h-9.4v7.7h10.6c.2,0,.4.2.4.4v3.8c0,.2-.2.4-.4.4h-15.8c-.2,0-.4-.2-.4-.4v-27.7c0-.2.2-.4.4-.4h15.8c.2,0,.4.2.4.4v3.8c0,.2-.2.4-.4.4h-10.6Z"/>
          </g>
        </g>
      </g>
    </g>
  </g>
</svg>