<?xml version="1.0" encoding="UTF-8"?>
<svg id="Layer_2" data-name="Layer 2" xmlns="http://www.w3.org/2000/svg" viewBox="0 0 795.8 85.7">
  <defs>
    <style>
      .cls-1 {
        fill: #d1451e;
      }

      .cls-1, .cls-2, .cls-3, .cls-4 {
        stroke-width: 0px;
      }

      .cls-2 {
        fill: #1b3671;
      }

      .cls-3 {
        fill: #d74a2a;
      }

      .cls-4 {
        fill: #fff;
      }
    </style>
  </defs>
  <g id="Layer_1-2" data-name="Layer 1">
    <g>
      <g>
        <polygon class="cls-2" points="447.5 5.7 447.5 0 434.3 0 427.1 0 427.1 5.7 427.1 37.1 427.1 42.8 427.1 74.2 427.1 79.9 434.3 79.9 447.5 79.9 447.5 74.2 434.3 74.2 434.3 42.8 443.9 42.8 443.9 37.1 434.3 37.1 434.3 5.7 447.5 5.7"/>
        <polygon class="cls-2" points="586 5.7 586 0 572.9 0 565.6 0 565.6 5.7 565.6 37.1 565.6 42.8 565.6 74.2 565.6 79.9 572.9 79.9 586 79.9 586 74.2 572.9 74.2 572.9 42.8 582.4 42.8 582.4 37.1 572.9 37.1 572.9 5.7 586 5.7"/>
        <rect class="cls-2" x="508.7" y="0" width="7.2" height="79.8"/>
        <path class="cls-2" d="M609.4,16.3h7.2v-5.1c-.5-6.2-5.7-11.1-12-11.1s-11.5,4.9-12,11.1v20.5c.5,6.2,5.7,11.1,12,11.1h0c2.3,0,4.3,1.7,4.7,3.9h0c0,.3,0,.6,0,.9v21.8c0,.3,0,.6,0,.9h0c-.4,2.2-2.4,3.9-4.7,3.9s-4.3-1.7-4.7-3.9h0c0-.3,0-.6,0-.9v-5.8h-7.2v5.1h0s0,0,0,0c.5,6.2,5.7,11.1,12,11.1s11.5-4.9,12-11.1v-20.5c-.5-6.2-5.7-11.1-12-11.1h0c-2.3,0-4.3-1.7-4.7-3.9h0c0-.3,0-.6,0-.9V10.5c0-.3,0-.6,0-.9h0c.4-2.2,2.4-3.9,4.7-3.9s4.3,1.7,4.7,3.9h0c0,.3,0,.6,0,.9v5.8Z"/>
        <polygon class="cls-2" points="553.8 0 553.8 79.9 546.5 79.9 537 34.4 537 79.9 529.8 79.9 529.8 0 537 0 546.5 45.5 546.5 0 553.8 0"/>
        <polygon class="cls-2" points="495.2 0 495.2 79.8 488 79.8 488 43 481.7 79.9 473.7 79.9 467.4 43 467.4 79.8 460.2 79.8 460.2 0 467.4 0 477.7 60.5 488 0 495.2 0"/>
      </g>
      <g>
        <g>
          <rect class="cls-3" y="0" width="80.1" height="80.1"/>
          <path class="cls-4" d="M61.4,16.2v28.1c0,6.3-1.9,11.4-5.6,15.2-3.7,3.8-9,5.7-15.7,5.7s-12-1.9-15.8-5.7c-3.7-3.8-5.6-8.9-5.6-15.2v-28.1h11.5v27.9c0,3.2.8,5.8,2.5,7.7,1.7,2,4.1,3,7.3,3s5.6-1,7.3-3c1.7-2,2.5-4.5,2.5-7.7v-27.9h11.5Z"/>
          <rect class="cls-3" x="88.2" y="0" width="80.1" height="80.1"/>
          <rect class="cls-3" x="176.4" y="0" width="80.1" height="80.1"/>
          <rect class="cls-3" x="264.5" y="0" width="80.1" height="80.1"/>
          <polygon class="cls-4" points="153.8 16 153.8 64.1 142.4 64.1 142.4 36 128.3 55.3 114.2 36 114.2 64.1 102.8 64.1 102.8 16 113.6 16 128.3 37.4 142.9 16 153.8 16"/>
          <path class="cls-4" d="M221.8,53.1c1.3-1.3,2-3,2-5.1s-.7-3.7-2-5c-1.3-1.4-3.1-2-5.4-2s-4,.7-5.3,2c-1.4,1.3-2.1,3-2.1,5.1s.7,3.8,2,5.1c1.4,1.3,3.2,2,5.4,2s4-.7,5.4-2M230.4,36.3c3.2,3.1,4.8,7,4.8,11.7s-1.8,9.1-5.3,12.4-8,4.9-13.4,4.9-9.8-1.6-13.4-4.9c-3.6-3.3-5.4-7.4-5.4-12.4s1.1-6.6,3.4-10.2l13.6-21.6h12.8l-9.4,14.9c5,.4,9.1,2.1,12.2,5.2"/>
          <path class="cls-4" d="M311.8,38.4c1.3-1.4,1.9-3.1,1.9-4.9s-.6-3.5-1.8-4.9c-1.2-1.4-2.8-2.1-4.6-2.1h-11.6v14.1h11.1c2,0,3.7-.7,5-2.1M320,21.3c3.2,3.5,4.8,7.5,4.8,12s-1.6,8.6-4.8,12.1c-3.2,3.5-7.5,5.3-12.9,5.3h-11.4v13.4h-11.3V16h23.1c5.1,0,9.3,1.8,12.5,5.3"/>
        </g>
        <rect class="cls-1" x="384.9" width="1" height="80.2"/>
      </g>
      <g>
        <path class="cls-2" d="M640.3,20.2c-2,0-3.7-.5-5.1-1.6s-2.4-2.4-2.9-3.9l2.6-.8c.4,1.1,1.1,2,2.1,2.7s2.1,1.1,3.5,1.1,2.1-.3,2.9-.9,1.1-1.2,1.1-2-.2-1.1-.6-1.5c-.4-.4-1.2-.8-2.2-1.1l-4.5-1.5c-2.7-.9-4-2.3-4-4.5s.6-2.6,1.7-3.5,2.6-1.5,4.4-1.5,3.4.4,4.7,1.3c1.3.9,2.2,1.9,2.8,3.2l-2.6.8c-.4-.9-1.1-1.5-1.9-2.1-.9-.5-1.8-.8-3-.8s-1.8.2-2.4.7-1,1.1-1,1.7.2,1,.5,1.3c.4.3.9.6,1.7.9l4.4,1.4c1.5.5,2.7,1.1,3.5,1.8s1.2,1.7,1.2,3-.6,2.9-1.9,3.9-3,1.6-5,1.6h0Z"/>
        <path class="cls-2" d="M656.1,20.2c-1.9,0-3.5-.7-4.8-2s-1.9-3-1.9-4.9.6-3.6,1.9-4.9c1.3-1.3,2.9-2,4.8-2s2.9.4,4,1.3,1.8,1.8,2,2.9l-2.5.7c-.2-.6-.6-1.2-1.3-1.7-.7-.5-1.4-.7-2.3-.7s-2.2.4-3,1.3c-.8.9-1.2,1.9-1.2,3.1s.4,2.2,1.2,3.1c.8.9,1.8,1.3,3,1.3s1.6-.2,2.3-.7c.7-.5,1.1-1,1.3-1.7l2.5.7c-.3,1.1-.9,2-2,2.8-1.1.8-2.4,1.3-4,1.3h0Z"/>
        <path class="cls-2" d="M671.8,6.4c1.6,0,2.9.5,3.8,1.5.9,1,1.3,2.4,1.3,4.2v7.7h-2.6v-7.2c0-1.2-.3-2.1-.8-2.7s-1.3-1-2.3-1-2,.4-2.7,1.2c-.7.8-1,1.9-1,3.2v6.5h-2.7V.9h2.7v7.8c1.1-1.5,2.5-2.3,4.4-2.3h0Z"/>
        <path class="cls-2" d="M686.3,20.2c-1.9,0-3.6-.7-4.8-2s-1.9-2.9-1.9-4.9.6-3.6,1.9-4.9,2.9-2,4.8-2,3.6.6,4.9,2,1.9,2.9,1.9,4.9-.6,3.6-1.9,4.9-2.9,2-4.8,2h0ZM689.3,16.5c.8-.8,1.2-1.9,1.2-3.1s-.4-2.3-1.2-3.2-1.8-1.3-3-1.3-2.2.4-3,1.3c-.8.8-1.2,1.9-1.2,3.2s.4,2.3,1.2,3.1c.8.8,1.8,1.3,3,1.3s2.2-.4,3-1.3Z"/>
        <path class="cls-2" d="M701.7,20.2c-1.9,0-3.6-.7-4.8-2s-1.9-2.9-1.9-4.9.6-3.6,1.9-4.9,2.9-2,4.8-2,3.6.6,4.9,2,1.9,2.9,1.9,4.9-.6,3.6-1.9,4.9-2.9,2-4.8,2h0ZM704.7,16.5c.8-.8,1.2-1.9,1.2-3.1s-.4-2.3-1.2-3.2-1.8-1.3-3-1.3-2.2.4-3,1.3c-.8.8-1.2,1.9-1.2,3.2s.4,2.3,1.2,3.1c.8.8,1.8,1.3,3,1.3s2.2-.4,3-1.3Z"/>
        <path class="cls-2" d="M711.3.9h2.7v19h-2.7V.9Z"/>
        <path class="cls-2" d="M729.8,20.2c-1.9,0-3.6-.7-4.8-2s-1.9-2.9-1.9-4.9.6-3.6,1.9-4.9,2.9-2,4.8-2,3.6.6,4.9,2,1.9,2.9,1.9,4.9-.6,3.6-1.9,4.9-2.9,2-4.8,2h0ZM732.8,16.5c.8-.8,1.2-1.9,1.2-3.1s-.4-2.3-1.2-3.2-1.8-1.3-3-1.3-2.2.4-3,1.3c-.8.8-1.2,1.9-1.2,3.2s.4,2.3,1.2,3.1c.8.8,1.8,1.3,3,1.3s2.2-.4,3-1.3Z"/>
        <path class="cls-2" d="M743,6.8h4.2v2.4h-4.2v10.7h-2.7v-10.7h-2.5v-2.4h2.5v-1.5c0-1.5.4-2.7,1.1-3.5.7-.8,1.8-1.3,3.2-1.3s2,.2,2.7.5l-.6,2.2c-.6-.3-1.1-.4-1.7-.4-1.3,0-1.9.8-1.9,2.5v1.4Z"/>
        <path class="cls-2" d="M633.4,31.6h2.8v18.2h-2.8v-18.2Z"/>
        <path class="cls-2" d="M646.8,36.4c1.6,0,2.9.5,3.8,1.5.9,1,1.3,2.4,1.3,4.2v7.7h-2.6v-7.2c0-1.2-.3-2.1-.8-2.7s-1.3-1-2.3-1-2,.4-2.7,1.2c-.7.8-1,1.9-1,3.2v6.5h-2.7v-13.1h2.7v1.9c1.1-1.5,2.5-2.3,4.4-2.3h0Z"/>
        <path class="cls-2" d="M668,30.9v19h-2.6v-2c-1.1,1.5-2.6,2.3-4.6,2.3-1.8,0-3.3-.7-4.5-2s-1.8-2.9-1.8-4.9.6-3.6,1.8-4.9,2.7-2,4.5-2,3.5.8,4.6,2.3v-7.9h2.6ZM661.2,47.7c1.2,0,2.2-.4,3-1.3s1.2-1.9,1.2-3.2-.4-2.3-1.2-3.2-1.8-1.3-3-1.3-2.2.4-3,1.2-1.2,1.9-1.2,3.2.4,2.3,1.2,3.2c.8.8,1.8,1.3,3,1.3h0Z"/>
        <path class="cls-2" d="M683.6,36.8v13.1h-2.6v-2c-1,1.5-2.5,2.3-4.4,2.3-1.6,0-2.9-.5-3.8-1.5-.9-1-1.3-2.4-1.3-4.2v-7.7h2.7v7.2c0,1.2.3,2.1.8,2.7s1.3,1,2.3,1,2-.4,2.7-1.2,1-1.9,1-3.2v-6.5h2.6Z"/>
        <path class="cls-2" d="M691.9,50.2c-1.4,0-2.7-.4-3.8-1.2-1.1-.8-1.8-1.7-2.2-2.8l2.4-.7c.2.7.7,1.3,1.4,1.8s1.4.7,2.3.7,1.4-.2,1.9-.5.7-.8.7-1.3-.1-.7-.4-.9-.7-.4-1.3-.6l-3.4-1c-2-.6-3-1.7-3-3.4s.5-1.9,1.4-2.7,2.1-1.1,3.5-1.1,2.5.3,3.5.9,1.7,1.4,2,2.4l-2.4.7c-.3-.5-.7-1-1.2-1.3s-1.2-.5-2-.5-1.2.2-1.6.5c-.4.3-.6.7-.6,1.1s.5,1,1.4,1.3l3.4,1c1.1.3,1.9.7,2.5,1.3.6.5.9,1.3.9,2.3s-.5,2.2-1.5,2.9-2.3,1.2-3.8,1.2h0Z"/>
        <path class="cls-2" d="M707.7,49.4c-1,.4-1.9.6-2.8.6-1.3,0-2.3-.4-3-1.2s-1-1.9-1-3.3v-6.4h-2.3v-2.4h2.3v-4.4h2.6v4.4h4.1v2.4h-4.1v6.4c0,1.3.6,2,1.8,2s1.1-.1,1.7-.4l.7,2.2Z"/>
        <path class="cls-2" d="M712.9,38.9c.4-.8,1-1.4,1.7-1.8s1.6-.5,2.7-.4v2.5c-1.4-.2-2.5,0-3.2.8s-1.1,2.1-1.1,3.9v5.9h-2.7v-13.1h2.7v2.1h0Z"/>
        <path class="cls-2" d="M719.9,34.2c-.3-.3-.5-.7-.5-1.2s.2-.8.5-1.2c.3-.3.7-.5,1.2-.5s.9.2,1.2.5c.3.3.5.7.5,1.2s-.2.9-.5,1.2c-.3.3-.7.5-1.2.5s-.9-.2-1.2-.5ZM719.7,36.8h2.6v13.1h-2.6v-13.1Z"/>
        <path class="cls-2" d="M731.5,50.2c-1.8,0-3.3-.7-4.5-2s-1.8-2.9-1.8-4.9.6-3.6,1.8-4.9,2.7-2,4.5-2,3.5.8,4.6,2.3v-2h2.6v13.1h-2.6v-2c-1.1,1.5-2.6,2.3-4.6,2.3h0ZM731.9,47.7c1.2,0,2.2-.4,3-1.3s1.2-1.9,1.2-3.2-.4-2.3-1.2-3.2-1.8-1.3-3-1.3-2.2.4-3,1.2-1.2,1.9-1.2,3.2.4,2.3,1.2,3.2c.8.8,1.8,1.3,3,1.3h0Z"/>
        <path class="cls-2" d="M742.3,30.9h2.7v19h-2.7v-19Z"/>
        <path class="cls-2" d="M651.1,61.6v18.2h-2.8v-13.3l-6.1,8.7-6.1-8.7v13.3h-2.8v-18.2h2.6l6.2,9.2,6.2-9.2h2.6Z"/>
        <path class="cls-2" d="M660.1,80.2c-1.8,0-3.3-.7-4.5-2s-1.8-2.9-1.8-4.9.6-3.6,1.8-4.9,2.7-2,4.5-2,3.5.8,4.6,2.3v-2h2.6v13.1h-2.6v-2c-1.1,1.5-2.6,2.3-4.6,2.3h0ZM660.5,77.7c1.2,0,2.2-.4,3-1.3s1.2-1.9,1.2-3.2-.4-2.3-1.2-3.2-1.8-1.3-3-1.3-2.2.4-3,1.2-1.2,1.9-1.2,3.2.4,2.3,1.2,3.2c.8.8,1.8,1.3,3,1.3h0Z"/>
        <path class="cls-2" d="M678,66.4c1.6,0,2.9.5,3.8,1.5.9,1,1.3,2.4,1.3,4.2v7.7h-2.6v-7.2c0-1.2-.3-2.1-.8-2.7s-1.3-1-2.3-1-2,.4-2.7,1.2c-.7.8-1,1.9-1,3.2v6.5h-2.7v-13.1h2.7v1.9c1.1-1.5,2.5-2.3,4.4-2.3h0Z"/>
        <path class="cls-2" d="M692,80.2c-1.8,0-3.3-.7-4.5-2s-1.8-2.9-1.8-4.9.6-3.6,1.8-4.9,2.7-2,4.5-2,3.5.8,4.6,2.3v-2h2.6v13.1h-2.6v-2c-1.1,1.5-2.6,2.3-4.6,2.3h0ZM692.4,77.7c1.2,0,2.2-.4,3-1.3.8-.8,1.2-1.9,1.2-3.2s-.4-2.3-1.2-3.2c-.8-.8-1.8-1.3-3-1.3s-2.2.4-3,1.2-1.2,1.9-1.2,3.2.4,2.3,1.2,3.2c.8.8,1.8,1.3,3,1.3h0Z"/>
        <path class="cls-2" d="M715.5,66.8v12.6c0,1.8-.6,3.3-1.8,4.5-1.2,1.2-2.7,1.8-4.7,1.8-2.8,0-4.9-1.1-6.1-3.4l2.3-.9c.8,1.3,2,2,3.8,2,1.2,0,2.1-.4,2.7-1.1.7-.7,1-1.7,1-2.8v-1.9c-1.1,1.5-2.6,2.2-4.5,2.2s-3.4-.6-4.6-1.9-1.8-2.9-1.8-4.7.6-3.5,1.8-4.8c1.2-1.2,2.7-1.9,4.6-1.9s3.4.7,4.5,2.2v-1.8h2.7ZM708.7,77.3c1.2,0,2.2-.4,3-1.2s1.2-1.8,1.2-3-.4-2.2-1.2-3-1.8-1.2-3-1.2-2.2.4-3,1.2c-.8.8-1.2,1.8-1.2,3s.4,2.2,1.2,3c.8.8,1.8,1.2,3,1.2h0Z"/>
        <path class="cls-2" d="M725,80.2c-2,0-3.7-.6-4.9-1.9-1.3-1.3-1.9-2.9-1.9-5s.6-3.6,1.8-4.9,2.8-2,4.7-2,3.6.6,4.8,1.9,1.7,2.8,1.7,4.7,0,.7,0,1.1h-10.4c0,1.1.5,2,1.2,2.7s1.7,1,3,1,3-.7,3.6-2.1l2.4.7c-.5,1-1.2,1.9-2.3,2.6s-2.3,1.1-3.9,1.1h0ZM728.7,72.4c0-1-.5-1.9-1.2-2.6s-1.6-1-2.7-1-2,.3-2.7,1-1.1,1.5-1.2,2.5h7.8Z"/>
        <path class="cls-2" d="M749.1,66.4c1.5,0,2.7.5,3.6,1.5s1.4,2.4,1.4,4.1v7.8h-2.7v-7.3c0-1.1-.2-2-.7-2.6s-1.2-.9-2.2-.9-1.8.4-2.3,1.1-.9,1.7-.9,2.9v6.8h-2.6v-7.3c0-1.1-.2-2-.7-2.6-.5-.6-1.2-.9-2.1-.9s-1.8.4-2.4,1.1c-.6.8-.9,1.8-.9,3.1v6.6h-2.7v-13.1h2.7v1.8c1-1.4,2.3-2.2,4-2.2s3.2.7,3.9,2.2c1-1.5,2.5-2.2,4.5-2.2h0Z"/>
        <path class="cls-2" d="M763.5,80.2c-2,0-3.7-.6-4.9-1.9-1.3-1.3-1.9-2.9-1.9-5s.6-3.6,1.8-4.9,2.8-2,4.7-2,3.6.6,4.8,1.9,1.7,2.8,1.7,4.7,0,.7,0,1.1h-10.4c0,1.1.5,2,1.2,2.7s1.7,1,3,1,3-.7,3.6-2.1l2.4.7c-.5,1-1.2,1.9-2.3,2.6s-2.3,1.1-3.9,1.1h0ZM767.2,72.4c0-1-.5-1.9-1.2-2.6s-1.6-1-2.7-1-2,.3-2.7,1-1.1,1.5-1.2,2.5h7.8Z"/>
        <path class="cls-2" d="M779.5,66.4c1.6,0,2.9.5,3.8,1.5.9,1,1.3,2.4,1.3,4.2v7.7h-2.6v-7.2c0-1.2-.3-2.1-.8-2.7s-1.3-1-2.3-1-2,.4-2.7,1.2c-.7.8-1,1.9-1,3.2v6.5h-2.7v-13.1h2.7v1.9c1.1-1.5,2.5-2.3,4.4-2.3h0Z"/>
        <path class="cls-2" d="M795.8,79.4c-1,.4-1.9.6-2.8.6-1.3,0-2.3-.4-3-1.2s-1-1.9-1-3.3v-6.4h-2.3v-2.4h2.3v-4.4h2.6v4.4h4.1v2.4h-4.1v6.4c0,1.3.6,2,1.8,2s1.1-.1,1.7-.4l.7,2.2Z"/>
      </g>
    </g>
  </g>
</svg>