<?xml version="1.0" encoding="UTF-8"?>
<svg id="Layer_2" data-name="Layer 2" xmlns="http://www.w3.org/2000/svg" xmlns:xlink="http://www.w3.org/1999/xlink" viewBox="0 0 656.5 82.7">
  <defs>
    <style>
      .cls-1 {
        fill: url(#linear-gradient);
      }

      .cls-1, .cls-2, .cls-3, .cls-4, .cls-5, .cls-6, .cls-7, .cls-8 {
        stroke-width: 0px;
      }

      .cls-2 {
        fill: #d74a2a;
      }

      .cls-3 {
        fill: #243e8d;
      }

      .cls-4 {
        fill: url(#linear-gradient-4);
      }

      .cls-5 {
        fill: url(#linear-gradient-2);
      }

      .cls-6 {
        fill: url(#linear-gradient-3);
      }

      .cls-7 {
        fill: url(#linear-gradient-5);
      }

      .cls-8 {
        fill: #fff;
      }
    </style>
    <linearGradient id="linear-gradient" x1="456.8" y1="-7.4" x2="456.8" y2="94.1" gradientUnits="userSpaceOnUse">
      <stop offset="0" stop-color="#097abd"/>
      <stop offset="1" stop-color="#21428f"/>
    </linearGradient>
    <linearGradient id="linear-gradient-2" x1="551.4" y1="71.2" x2="550.4" y2="-4.8" xlink:href="#linear-gradient"/>
    <linearGradient id="linear-gradient-3" x1="613.3" y1="-.7" x2="621.1" y2="172.7" xlink:href="#linear-gradient"/>
    <linearGradient id="linear-gradient-4" x1="499.1" y1="4.5" x2="506.9" y2="177.9" xlink:href="#linear-gradient"/>
    <linearGradient id="linear-gradient-5" x1="649.2" y1="-2.3" x2="657" y2="171.1" xlink:href="#linear-gradient"/>
  </defs>
  <g id="Layer_1-2" data-name="Layer 1">
    <g>
      <g>
        <g>
          <rect class="cls-2" y="1.3" width="80.1" height="80.1"/>
          <path class="cls-8" d="M61.4,17.5v28.1c0,6.3-1.9,11.4-5.6,15.2-3.7,3.8-9,5.7-15.7,5.7s-12-1.9-15.8-5.7c-3.7-3.8-5.6-8.9-5.6-15.2v-28.1h11.5v27.9c0,3.2.8,5.8,2.5,7.7,1.7,2,4.1,3,7.3,3s5.6-1,7.3-3c1.7-2,2.5-4.5,2.5-7.7v-27.9h11.5Z"/>
          <rect class="cls-2" x="88.2" y="1.3" width="80.1" height="80.1"/>
          <rect class="cls-2" x="176.4" y="1.3" width="80.1" height="80.1"/>
          <rect class="cls-2" x="264.5" y="1.3" width="80.1" height="80.1"/>
          <polygon class="cls-8" points="153.8 17.3 153.8 65.4 142.4 65.4 142.4 37.2 128.3 56.6 114.2 37.2 114.2 65.4 102.8 65.4 102.8 17.3 113.6 17.3 128.3 38.7 142.9 17.3 153.8 17.3"/>
          <path class="cls-8" d="M221.8,54.4c1.3-1.3,2-3,2-5.1s-.7-3.7-2-5c-1.3-1.4-3.1-2-5.4-2s-4,.7-5.3,2c-1.4,1.3-2.1,3-2.1,5.1s.7,3.8,2,5.1c1.4,1.3,3.2,2,5.4,2s4-.7,5.4-2M230.4,37.6c3.2,3.1,4.8,7,4.8,11.7s-1.8,9.1-5.3,12.4c-3.6,3.3-8,4.9-13.4,4.9s-9.8-1.6-13.4-4.9c-3.6-3.3-5.4-7.4-5.4-12.4s1.1-6.6,3.4-10.2l13.6-21.6h12.8l-9.4,14.9c5,.4,9.1,2.1,12.2,5.2"/>
          <path class="cls-8" d="M311.8,39.7c1.3-1.4,1.9-3.1,1.9-4.9s-.6-3.5-1.8-4.9c-1.2-1.4-2.8-2.1-4.6-2.1h-11.6v14.1h11.1c2,0,3.7-.7,5-2.1M320,22.6c3.2,3.5,4.8,7.5,4.8,12s-1.6,8.6-4.8,12.1c-3.2,3.5-7.5,5.3-12.9,5.3h-11.4v13.4h-11.3V17.3h23.1c5.1,0,9.3,1.8,12.5,5.3"/>
        </g>
        <rect class="cls-2" x="384.9" y="1.3" width="1" height="80.2"/>
      </g>
      <g>
        <path class="cls-1" d="M483.7,35.1c-.5,0-.8,0-1.2,0-3.7-.4-7,.4-10.1,2.5-.6.4-1.1.8-1.7,1.1-3.2,1.9-6.4,1.9-9.6,0-.8-.4-1.5-1-2.2-1.4-2.3-1.5-4.8-2.2-7.5-2.3-.5,0-.8.1-.8.7,0,1.7,0,3.4,0,5.2,0,.5.1.7.6.7,1.9,0,3.5.7,5,1.8,1.9,1.3,3.9,2.5,6.2,2.9,4.1.8,8,.3,11.6-1.9.8-.5,1.6-1.1,2.5-1.6,3-1.7,6-1.7,8.9,0,.3.2.6.6.7,1,.4,1.8.6,3.5,1,5.4-.4-.1-.6-.2-.9-.3-4.6-1.5-9.1-1.2-13.3,1.4-.8.5-1.6,1.1-2.4,1.6-3.1,1.8-6.2,1.8-9.3,0-.7-.4-1.4-.9-2.1-1.4-2.4-1.5-5-2.4-7.8-2.4-.1,0-.3,0-.4,0,0,0,0,0-.2,0v6.3c.7,0,1.4,0,2.1.3,1.2.5,2.4.9,3.5,1.6,2,1.3,4.1,2.5,6.5,2.9,3.9.6,7.7.2,11.1-1.9.9-.6,1.7-1.1,2.6-1.7,3.1-1.8,7.4-1.5,10.1.7.1,0,.3.3.2.4-.3,1.6-.7,3.2-1,4.8-1.3-.2-2.5-.4-3.6-.5-3.6-.3-7,.6-10,2.6-1.3.9-2.6,1.9-4.2,2.2-2.5.5-4.8.2-6.9-1.2-1.7-1.1-3.4-2.4-5.4-2.9-1.6-.4-3.2-.6-4.9-1,0,.4,0,.6-.1.8,0,1.7,0,3.4,0,5.2,0,.5.1.7.7.7,1.8,0,3.4.7,4.8,1.7,1.8,1.2,3.5,2.3,5.6,2.8,4.4,1.1,8.6.6,12.5-1.9.6-.4,1.2-.8,1.8-1.2,2-1.4,4.2-1.6,6.5-1.4.2,0,.3,0,.6.2-.2.3-.3.6-.5.9-5.1,7.9-12.3,12.6-21.7,14-15.9,2.2-31-8.6-33.9-24.4-.9-4.9-.5-9.7.5-14.6,2.6-12,8.4-22.3,16.4-31.5,3.7-4.2,7.8-8,12.3-11.5.4-.3.6-.5,1.1-.1,10.4,8.2,18.9,17.9,24.5,30,.6,1.3,1.1,2.6,1.7,3.9,0,.2.1.5.2.8Z"/>
        <path class="cls-5" d="M513.7,0c.7,0,1.3,0,1.9,0,3.4,0,6.8,0,10.2,0,.6,0,.9.2,1,.8,2.1,9.6,4.2,19.1,6.2,28.7.6,2.6,1.1,5.1,1.7,7.7,0,.2.2.4.4.7.1-.2.4-.4.4-.7,3-12.1,5.9-24.1,8.8-36.2.2-.8.5-1,1.3-1,3.6,0,7.1,0,10.7,0,.3,0,.6,0,.9,0,.5,2.1,1,4.1,1.5,6.1,2.5,10.3,5,20.7,7.6,31,0,0,0,.2,0,.3,0,.1.2.3.3.4.1-.2.3-.3.4-.5.4-1.7.7-3.3,1-5,2.1-10.1,4.2-20.3,6.3-30.4.1-.6.3-1.3.4-2h12.3c-.3,1.4-.6,2.8-1,4.1-3.4,14.5-6.8,29-10.2,43.5-.4,1.8-.8,3.5-1.2,5.3-.1.5-.4.7-.9.7-4.8,0-9.7,0-14.5,0-.6,0-.8-.2-.9-.7-2.5-9.6-4.9-19.1-7.4-28.6,0,0,0-.2,0-.3-.2-.2-.4-.4-.6-.6-.2.2-.5.4-.5.6-.5,1.9-1,3.8-1.5,5.7-2,7.7-4.1,15.5-6.1,23.2-.1.6-.4.7-1,.7-4.8,0-9.5,0-14.3,0-.7,0-1-.3-1.1-.9-1.6-7.1-3.3-14.2-5-21.3-2.4-10.3-4.8-20.5-7.2-30.8,0-.2,0-.4-.1-.8Z"/>
        <path class="cls-6" d="M636.8,53.7h-.9c-3.9,0-7.9,0-11.8,0-.7,0-1-.2-1.3-.8-2.3-5-4.7-10-7-15-.3-.6-.6-.9-1.3-.9-2.3,0-4.6,0-6.9,0-.7,0-.9.2-.9.9,0,4.9,0,9.9,0,14.8,0,.7-.2.9-.9.9-3.4,0-6.9,0-10.3,0-.6,0-.8-.2-.8-.8,0-17.3,0-34.7,0-52,0-.6.2-.8.8-.8,6.7,0,13.3,0,20,0,3.5,0,6.9.6,10.1,2,4.4,1.9,7.3,5,8.7,9.6,1.5,5.3,1.4,10.5-1.1,15.5-1.2,2.4-2.9,4.5-5.1,6.1-.6.4-.7.8-.4,1.4,2.9,5.9,5.7,11.8,8.6,17.6.2.4.4.8.6,1.4ZM606.7,18.6c0,2.5,0,5,0,7.5,0,.6.2.8.8.8,2.4,0,4.9,0,7.3,0,1.1,0,2.2-.3,3.1-.7,4.8-1.9,6-8.6,3.4-12.5-1.6-2.4-4-3.2-6.7-3.3-2.4,0-4.7,0-7.1,0-.7,0-.9.2-.9.9,0,2.5,0,4.9,0,7.4Z"/>
        <path class="cls-4" d="M494,26.9c0-8.6,0-17.2,0-25.8q0-1,1-1c3.4,0,6.9,0,10.3,0,.7,0,.9.2.9.9,0,17.3,0,34.6,0,51.9,0,.7-.2.9-.9.9-3.4,0-6.9,0-10.3,0-.7,0-.9-.2-.9-.9,0-8.6,0-17.3,0-25.9Z"/>
        <path class="cls-7" d="M644.4,26.8c0-8.6,0-17.2,0-25.8q0-1,1-1c3.4,0,6.7,0,10.1,0,.7,0,1,.2,1,.9,0,17.3,0,34.5,0,51.8,0,.7-.2.9-.9.9-3.3,0-6.7,0-10,0q-1.1,0-1.1-1.1c0-8.6,0-17.2,0-25.8Z"/>
        <path class="cls-3" d="M621.4,58.7c-.3,1-.6,1.9-.8,2.9-.5,1.9-1.1,3.7-1.6,5.6-.1.4-.3.6-.8.6-1.4,0-1.4,0-1.8-1.4-.4-1.3-.8-2.6-1.2-4,0-.2-.2-.4-.3-.9-.2.6-.3.9-.4,1.3-.4,1.4-.9,2.8-1.3,4.2-.1.5-.3.7-.9.7-1.4,0-1.4,0-1.8-1.3-.8-2.6-1.5-5.1-2.3-7.8.6,0,1.1,0,1.6,0,.2,0,.4.3.5.5.5,1.6,1,3.3,1.5,4.9,0,.2.2.5.3.9.2-.6.3-.9.4-1.3.5-1.5,1-2.9,1.3-4.4.2-.8.7-.7,1.3-.7.6,0,.8.3.9.8.5,1.7,1,3.4,1.5,5.1,0,.2.1.3.3.6.4-1.3.7-2.4,1.1-3.6.2-.5.3-1,.5-1.6q.4-1.5,2.1-1.3Z"/>
        <path class="cls-3" d="M584.7,67.7c-.9.2-1.6.1-2.2-.8-.9-1.4-1.9-2.6-2.9-3.9-.2-.2-.3-.4-.6-.8v5.4h-1.8v-8.9c1.1-.3,1.4-.2,2.1.7,1,1.3,2,2.7,3,4,.1.2.3.4.6.7v-5.5h1.8v9Z"/>
        <path class="cls-3" d="M586.4,72.7c1-.3,1.7,0,2.2.8,1,1.5,2.2,3,3.4,4.4v-5.1c.1-.1.1-.2.2-.2,1.6-.3,1.7-.2,1.7,1.4,0,2.2,0,4.5,0,6.7,0,.3-.2.9-.3.9-.5,0-1.1.3-1.5-.3-1.1-1.5-2.2-3-3.3-4.4-.1-.2-.3-.4-.6-.5,0,.7,0,1.4,0,2.1,0,.8,0,1.7,0,2.5,0,.6-.2.8-.8.7-.3,0-.7,0-1.1,0v-9Z"/>
        <path class="cls-3" d="M506,67.7c-1,.3-1.7,0-2.2-.9-.9-1.3-1.9-2.6-2.9-3.9-.1-.2-.3-.4-.6-.5v5.3h-1.8v-9c.9-.2,1.5-.1,2.1.7.9,1.4,2,2.7,3,4,.1.2.3.4.6.5v-5.3h1.8v9Z"/>
        <path class="cls-3" d="M542.1,67.7c-1,.3-1.6,0-2.2-.8-.9-1.3-1.9-2.6-2.9-3.9-.1-.2-.3-.4-.6-.5,0,.7,0,1.3,0,2,0,.9,0,1.7,0,2.6,0,.7-.2.9-.8.8-.3,0-.6,0-.9,0v-9c.9-.2,1.6,0,2.1.8.9,1.4,1.9,2.6,2.9,3.9.2.2.3.4.7.5v-5.3h1.7v9Z"/>
        <path class="cls-3" d="M648.8,58.8c1.5,0,2.9,0,4.4,0,1.4.1,2.3.9,2.6,2.3.4,1.5,0,2.7-1.2,3.6,0,0-.2.2-.3.3.6.9,1.1,1.8,1.7,2.7-1.2.4-1.8.2-2.4-.7,0-.1-.2-.3-.3-.4-.4-1.2-1.4-1.4-2.6-1.1v2.4h-1.8v-9ZM650.6,63.7c.8,0,1.5,0,2.3-.2.8-.1,1.2-.8,1.1-1.6,0-.8-.5-1.4-1.2-1.5-.7,0-1.4,0-2.2,0v3.3Z"/>
        <path class="cls-3" d="M495.8,81.7h-1.8v-9.1c1.7,0,3.4-.3,5.1.2,1.2.3,1.8,1.2,2,2.4.2,1.2,0,2.3-1.1,3.1-.2.1-.3.3-.6.4.6.9,1.1,1.8,1.7,2.8-1.4.4-1.8.2-2.6-.9-.1-.2-.3-.4-.3-.6-.3-.9-1-1-1.9-1-.4,0-.6.1-.6.6,0,.6,0,1.3,0,2ZM495.8,77.6c.7,0,1.3,0,1.9,0,.9,0,1.5-.7,1.5-1.6,0-.9-.5-1.5-1.4-1.7-.5,0-1.1,0-1.6,0-.2,0-.4.3-.4.4,0,.9,0,1.8,0,2.8Z"/>
        <path class="cls-3" d="M570.5,67.9c-2.6,0-4.5-2-4.5-4.7,0-2.7,2-4.7,4.6-4.7,2.6,0,4.5,2,4.5,4.8,0,2.7-1.9,4.7-4.6,4.6ZM573.2,63.6c0-1.9-.9-3.1-2.3-3.3-1.2-.2-2.4.6-2.8,1.9-.4,1.3-.2,2.5.8,3.4.8.7,1.8.8,2.7.4,1.1-.5,1.5-1.5,1.6-2.4Z"/>
        <path class="cls-3" d="M548.8,78.8c.6,1,1.2,1.9,1.7,2.8-1.5.4-1.8.2-2.5-.9-.2-.4-.4-.8-.7-1.1-.2-.2-.5-.4-.8-.4-1.5,0-1.2-.1-1.3,1.2,0,1.4,0,1.4-1.5,1.3-.1,0-.2,0-.4,0v-8.9c1.6,0,3.1-.1,4.6,0,1.3.1,2.1,1,2.4,2.3.3,1.4,0,2.7-1.3,3.6,0,0-.2.1-.3.2ZM545.2,77.5c.7,0,1.4,0,2,0,.9,0,1.3-.7,1.4-1.6,0-.9-.4-1.5-1.3-1.6-.7,0-1.4,0-2.1,0v3.2Z"/>
        <path class="cls-3" d="M527.1,65.3v2.4h-1.8v-9.1c1.6,0,3.1,0,4.7.2,1.2.2,2.1,1,2.3,2.3.2,1.3,0,2.6-1.1,3.4-.1.1-.3.2-.5.3.6.9,1.1,1.8,1.8,2.9-.7,0-1.2,0-1.7,0-.2,0-.3-.2-.4-.3-.2-.3-.5-.7-.7-1.1-.5-1.2-1.4-1.3-2.6-1.1ZM527.1,60.4c0,.5,0,1,0,1.5,0,1.9.3,2.1,2.2,1.7,0,0,0,0,.1,0,.8-.2,1.2-.8,1.1-1.7,0-.8-.5-1.4-1.3-1.5-.7,0-1.4,0-2.2,0Z"/>
        <path class="cls-3" d="M564,72.7h1.7v3.5h3.8v-3.5h1.9v9h-1.8v-3.7c-1.2,0-2.4,0-3.6,0-.1,0-.3.4-.3.6,0,1,0,2,0,3.2-.5,0-1,0-1.5,0-.1,0-.3-.3-.4-.4,0-2.8,0-5.6,0-8.4,0,0,0,0,0-.2Z"/>
        <path class="cls-3" d="M649.5,81.7v-9h6.2v1.5h-4.4c0,.6,0,1.2,0,1.7,0,.2.4.4.6.4,1,0,2.1,0,3.2,0v1.6h-3.7v2.2h4.5v1.6h-6.3Z"/>
        <path class="cls-3" d="M506.2,80.1h4.5c0,.5,0,.9,0,1.3,0,.1-.2.4-.3.4-2,0-4,0-6,0v-9h6.2v1.5h-4.3v2.1h3.8v1.6h-3.8v2.2Z"/>
        <path class="cls-3" d="M642.1,62.4h3.7v1.5h-3.7v2.2h4.4v1.6h-6.3v-9c1.9,0,3.8,0,5.8,0,.7,0,.4.6.4,1,0,.4,0,.7-.5.7-1.1,0-2.1,0-3.2,0-.2,0-.4,0-.6,0v2Z"/>
        <path class="cls-3" d="M525,80.1h4.4v1.6h-6.2v-9h6.1v1.5h-4.2v2.1h3.8v1.5h-3.8v2.2Z"/>
        <path class="cls-3" d="M516.8,58.7h6.1v1.6c-1.1,0-2.2,0-3.3,0q-1,0-1,1c0,.3,0,.6,0,1,1.1,0,2.2,0,3.2,0,.7,0,.7.3.7.8,0,.5,0,.8-.7.8-.9,0-1.7,0-2.6,0-.5,0-.6.2-.6.6,0,2-.2,1.6,1.6,1.6.9,0,1.8,0,2.7,0,0,0,0,0,.2,0v1.5c-.4,0-.9,0-1.3,0-1.5,0-2.9,0-4.4,0-.4,0-.6,0-.6-.5,0-2.8,0-5.5,0-8.3,0,0,0-.1,0-.3Z"/>
        <path class="cls-3" d="M595.5,67.7c-.2,0-.3,0-.4,0-1.5,0-1.5,0-2-1.3-.2-.5-.4-.6-.9-.6-.9,0-1.8,0-2.7,0-.5,0-.7.2-.8.6-.6,1.5-.6,1.5-2.4,1.3.3-.8.7-1.6,1-2.5.8-2,1.6-3.9,2.4-5.9.2-.5.5-.7,1-.7.5,0,1.1-.2,1.4.6,1,2.6,2.1,5.2,3.2,7.8,0,.2.1.4.2.6ZM591,60.9c0,0-.1,0-.2,0-.4,1.1-.8,2.2-1.2,3.4h2.7c-.4-1.2-.8-2.2-1.3-3.3Z"/>
        <path class="cls-3" d="M631,67.8c-.1,0-.2,0-.3,0-1.5,0-1.5,0-2-1.3-.2-.4-.4-.6-.8-.6-.9,0-1.8,0-2.7,0-.4,0-.7,0-.8.5,0,0,0,0,0,.1-.6,1.4-.6,1.5-2.3,1.2.4-1,.8-2.1,1.2-3.1.7-1.8,1.5-3.6,2.2-5.5.2-.4.4-.5.8-.5.5.1,1.1-.3,1.4.4,1.1,2.8,2.3,5.6,3.4,8.5,0,0,0,0,0,.2ZM627.8,64.2c-.4-1.2-.9-2.3-1.3-3.4,0,0-.1,0-.2,0-.4,1.1-.8,2.2-1.3,3.4h2.7Z"/>
        <path class="cls-3" d="M543.7,67.8c.9-2.4,1.8-4.6,2.7-6.8.2-.4.4-.8.5-1.3.2-.8.6-1.1,1.5-1,.6,0,.9.2,1.1.8,1,2.6,2.1,5.2,3.2,7.9,0,.1,0,.3.2.5-.6,0-1.1,0-1.6,0-.2,0-.4-.3-.5-.6-.5-1.3-.5-1.3-2-1.3s-.5,0-.7,0c-1.2-.2-2.1.1-2.4,1.5,0,.2-.4.4-.6.4-.4,0-.9,0-1.5,0ZM548.4,60.9c0,0-.1,0-.2,0-.4,1.1-.8,2.2-1.3,3.3h2.7c-.4-1.2-.9-2.3-1.3-3.4Z"/>
        <path class="cls-3" d="M637,72.7c0,2.2.2,4.3,0,6.4-.2,1.9-1.7,2.9-3.6,2.8-2,0-3.4-1.2-3.5-3.1-.1-2,0-4,0-6.1h1.7c0,.7,0,1.4,0,2.2,0,1.2,0,2.5.1,3.7.1,1.1.9,1.6,1.9,1.6,1,0,1.7-.7,1.7-1.7,0-1.5,0-3.1,0-4.6,0-1.1,0-1.1,1.2-1.1.2,0,.3,0,.5,0Z"/>
        <path class="cls-3" d="M540.8,81.7c-.6,0-1.2,0-1.7,0-.2,0-.4-.4-.5-.6-.6-1.4-.5-1.4-2-1.4-.2,0-.3,0-.5,0-1.3-.2-2.3,0-2.5,1.6,0,.2-.3.4-.5.4-.5,0-.9,0-1.5,0,0-.3.1-.4.2-.6,1.1-2.7,2.2-5.4,3.2-8.1.2-.5.5-.5.8-.5.5,0,1.1-.3,1.4.4,1.1,2.8,2.3,5.7,3.5,8.7ZM534.8,78.2h2.7c-.5-1.2-.9-2.3-1.4-3.6-.5,1.3-.9,2.4-1.4,3.6Z"/>
        <path class="cls-3" d="M602.9,74.6c-.9-.2-1.7-.4-2.5-.5-.3,0-.6,0-.8.2-.3.2-.6.6-.6.8,0,.3.3.6.6.8.4.2.9.3,1.3.4.3,0,.6.2.9.3,1.4.5,2,1.3,2,2.6,0,1.3-1,2.3-2.3,2.5-1.3.3-2.6,0-3.8-.4-.6-.2-.8-.6-.5-1.2.1-.2.2-.5.4-.8,1,.6,2,1,3.2.8.4,0,.8-.2,1-.5.4-.4.2-1-.4-1.3-.7-.3-1.4-.4-2-.6-1.6-.5-2.3-1.4-2.2-2.7.2-1.5,1.2-2.5,2.9-2.5.9,0,1.8.2,2.7.3.6.1.9.5.5,1.1-.1.2-.2.5-.3.6Z"/>
        <path class="cls-3" d="M513.8,79.6c1,.2,2,.5,2.9.6.2,0,.5,0,.6,0,.3-.2.8-.5.8-.9,0-.3-.3-.8-.7-.9-.7-.3-1.5-.5-2.3-.7-1.5-.5-2.1-1.5-1.7-3,.3-1.2,1.2-1.9,2.3-2,1,0,2.1.1,3.2.3.6,0,.8.5.5,1.1-.1.2-.2.4-.3.6-.9-.2-1.7-.4-2.5-.5-.3,0-.7,0-.9.2-.2.2-.5.5-.5.8,0,.3.3.7.5.8.7.3,1.5.5,2.2.7,1.6.5,2.2,1.3,2,2.7-.1,1.2-1.1,2.2-2.5,2.4-1.2.2-2.4,0-3.5-.4-.6-.3-.9-.6-.5-1.3.1-.2.2-.4.2-.5Z"/>
        <path class="cls-3" d="M560.9,74.1c-.4.4-.7.8-1.1,1.1-1.6-1.2-3.1-1.3-4.1-.2-1,1.1-1,3.2,0,4.3,1.1,1.1,2.4,1,4-.2.3.4.6.8,1,1.2-.4,1-2.5,1.8-4.4,1.4-1.9-.4-3.2-2.1-3.4-4.3-.1-2.1,1-4.1,2.9-4.8,1.8-.7,3.8-.2,5,1.3Z"/>
        <path class="cls-3" d="M631.3,60.4v-1.7h7.1v1.6h-2.6v7.4h-1.9v-7.3h-2.6Z"/>
        <path class="cls-3" d="M624.6,74.3v7.4h-1.9v-7.4h-2.6v-1.6h7.1v1.6h-2.6Z"/>
        <path class="cls-3" d="M512.3,67.6c-.1.1-.1.1-.2.1q-1.7.2-1.7-1.5c0-1.6,0-3.3,0-4.9,0-.3,0-.6,0-.9h-2.6v-1.6h7.1v1.6h-2.6v7.2Z"/>
        <path class="cls-3" d="M555.9,67.7c0-2,0-4,0-6q0-1.4-1.4-1.4c0,0-.2,0-.3,0-1,0-1.3-.4-1-1.4,0-.1.3-.3.5-.3,2,0,4.1,0,6.1,0,.4,0,.6.1.5.5,0,.4,0,.7,0,1.2h-2.7v7.4h-1.8Z"/>
        <path class="cls-3" d="M610.2,81.7h-1.8c0-1.1,0-2.1,0-3.1,0-1.2,0-2.5,0-3.7,0-.4-.1-.6-.6-.6-.7,0-1.3,0-2,0,0-.2,0-.2-.1-.3-.1-1.3-.1-1.3,1.2-1.3,1.8,0,3.5,0,5.3,0,.7,0,.7.3.7.8,0,.5,0,.9-.7.8-.4,0-.9,0-1.3,0-.5,0-.7.2-.7.7,0,1.9,0,3.9,0,5.8,0,.3,0,.6,0,.9Z"/>
        <path class="cls-3" d="M646.7,74.3h-2.5c0,.4,0,.6,0,.9,0,1.9,0,3.9,0,5.8,0,.8-.4.7-.9.7-.5,0-.9,0-.9-.7,0-2,0-4,0-6.1,0-.5-.2-.8-.7-.7-.6,0-1.2,0-1.8,0,0,0-.1-.1-.1-.2-.2-1.4-.2-1.4,1.2-1.4,1.6,0,3.3,0,4.9,0q1.1,0,1,1.1c0,.1,0,.3,0,.5Z"/>
        <path class="cls-3" d="M597.2,67.7v-9h1.8c0,.3,0,.5,0,.8,0,2,0,3.9,0,5.9,0,.6.2.8.8.7,1.1,0,2.2,0,3.4,0v1.6h-5.9Z"/>
        <path class="cls-3" d="M494,58.7h1.7v9h-1.7v-9Z"/>
        <path class="cls-3" d="M580.9,72.7h1.8v9h-1.8v-9Z"/>
        <path class="cls-3" d="M617.3,81.8c-.5,0-.9,0-1.4,0-.1,0-.4-.2-.4-.4,0-2.9,0-5.7,0-8.6h1.8v9Z"/>
        <path class="cls-3" d="M563.8,67.8h-1.7v-9h1.7v9Z"/>
      </g>
    </g>
  </g>
</svg>