<?xml version="1.0" encoding="UTF-8"?>
<svg id="Layer_2" data-name="Layer 2" xmlns="http://www.w3.org/2000/svg" viewBox="0 0 575.2 80.2">
  <defs>
    <style>
      .cls-1 {
        fill: #d1451e;
      }

      .cls-1, .cls-2, .cls-3, .cls-4 {
        stroke-width: 0px;
      }

      .cls-2 {
        fill: #fa3a01;
      }

      .cls-3 {
        fill: #d74a2a;
      }

      .cls-4 {
        fill: #fff;
      }
    </style>
  </defs>
  <g id="Layer_1-2" data-name="Layer 1">
    <g>
      <g>
        <g>
          <rect class="cls-3" y="0" width="80.1" height="80.1"/>
          <path class="cls-4" d="M61.4,16.2v28.1c0,6.3-1.9,11.4-5.6,15.2-3.7,3.8-9,5.7-15.7,5.7s-12-1.9-15.8-5.7c-3.7-3.8-5.6-8.9-5.6-15.2v-28.1h11.5v27.9c0,3.2.8,5.8,2.5,7.7,1.7,2,4.1,3,7.3,3s5.6-1,7.3-3c1.7-2,2.5-4.5,2.5-7.7v-27.9h11.5Z"/>
          <rect class="cls-3" x="88.2" y="0" width="80.1" height="80.1"/>
          <rect class="cls-3" x="176.4" y="0" width="80.1" height="80.1"/>
          <rect class="cls-3" x="264.5" y="0" width="80.1" height="80.1"/>
          <polygon class="cls-4" points="153.8 16 153.8 64.1 142.4 64.1 142.4 36 128.3 55.3 114.2 36 114.2 64.1 102.8 64.1 102.8 16 113.6 16 128.3 37.4 142.9 16 153.8 16"/>
          <path class="cls-4" d="M221.8,53.1c1.3-1.3,2-3,2-5.1s-.7-3.7-2-5c-1.3-1.4-3.1-2-5.4-2s-4,.7-5.3,2c-1.4,1.3-2.1,3-2.1,5.1s.7,3.8,2,5.1c1.4,1.3,3.2,2,5.4,2s4-.7,5.4-2M230.4,36.3c3.2,3.1,4.8,7,4.8,11.7s-1.8,9.1-5.3,12.4-8,4.9-13.4,4.9-9.8-1.6-13.4-4.9c-3.6-3.3-5.4-7.4-5.4-12.4s1.1-6.6,3.4-10.2l13.6-21.6h12.8l-9.4,14.9c5,.4,9.1,2.1,12.2,5.2"/>
          <path class="cls-4" d="M311.8,38.4c1.3-1.4,1.9-3.1,1.9-4.9s-.6-3.5-1.8-4.9c-1.2-1.4-2.8-2.1-4.6-2.1h-11.6v14.1h11.1c2,0,3.7-.7,5-2.1M320,21.3c3.2,3.5,4.8,7.5,4.8,12s-1.6,8.6-4.8,12.1c-3.2,3.5-7.5,5.3-12.9,5.3h-11.4v13.4h-11.3V16h23.1c5.1,0,9.3,1.8,12.5,5.3"/>
        </g>
        <rect class="cls-1" x="384.9" width="1" height="80.2"/>
      </g>
      <g>
        <polygon class="cls-2" points="568.2 45.7 568.2 79.5 575.2 79.5 575.2 43.6 568.2 45.7"/>
        <path class="cls-2" d="M448.7,46.2c-2.6-.9-5.6-1.4-8.3-1.4s-2,0-2.7.2c3.7,2.3,7.2,5.1,10.3,8.2l.7-7ZM440.6,80c6.7-1.3,9.9-5.3,9.9-9.8,0-10.5-17.7-10.5-17.7-19.4s1.1-3.8,2.7-5.4c-3.8,1.2-8,4.5-8,9.3,0,10,17.6,10.7,17.6,18.8s-2,5.2-4.5,6.6M426.5,78c3.1,1.3,8.7,2.1,11.9,2.1-3.9-2.8-7.8-6.1-11-9.4l-.9,7.3ZM467.8,61.4c3.8,0,6.9-3.1,6.9-6.9h-6.9v6.9ZM475.7,74.8c-1.6.8-3.2,1.2-4.7,1.2-5.7,0-10.2-5.4-10.2-11.9s1-6.6,3.3-9.2c-6.3,1.8-10.2,7.2-10.2,13s5.8,12.2,12.1,12.2,7.3-2,9.6-5.2M485.9,79.5v-35.9l-7,2.1v33.8h7ZM502.6,79.5v-16.8c0-4.9-3.5-8.3-7.5-8.3s-5.5,1.6-7,3.5c.6-.2,1.3-.3,2-.3,3.1,0,5.6,2.4,5.6,6.1v15.8h6.9ZM521.5,80.1c7.9-1.2,12-7.5,12-13.4s-4.1-11.8-12.4-12.2c3.2,3.2,4.8,8.3,4.8,13.3s-1.5,9.4-4.4,12.3M519.2,80.1c-3.2-3.2-4.8-8.3-4.8-13.3s1.5-9.5,4.4-12.3c-7.9,1.1-12,7.5-12,13.4s4.1,11.8,12.4,12.2M551.7,80.1c7.9-1.2,12-7.5,12-13.4s-4.1-11.8-12.4-12.2c3.2,3.2,4.8,8.3,4.8,13.3s-1.5,9.4-4.4,12.3M549.4,80.1c-3.2-3.2-4.8-8.3-4.8-13.3s1.5-9.5,4.4-12.3c-7.9,1.1-12,7.5-12,13.4s4.1,11.8,12.4,12.2"/>
        <path class="cls-2" d="M448.7,1.4c-2.6-.9-5.6-1.4-8.3-1.4s-2,0-2.7.2c3.7,2.3,7.2,5.1,10.3,8.2l.7-7ZM440.6,35.2c6.7-1.3,9.9-5.3,9.9-9.8,0-10.5-17.7-10.5-17.7-19.4s1.1-3.8,2.7-5.4c-3.8,1.2-8,4.5-8,9.3,0,10,17.6,10.7,17.6,18.8s-2,5.2-4.5,6.6M426.5,33.3c3.1,1.3,8.7,2.1,11.9,2.1-3.9-2.8-7.8-6.1-11-9.4l-.9,7.3ZM455.6,27c0,4.9,3.7,8.3,8.7,8.3s6.2-1.9,8.2-4.3c-1.2.5-2.4.7-3.5.7-3.3,0-6.5-2.1-6.5-6.2V4.5l-10.4,10.5h3.5v12ZM471.2,9.9c-3.8,0-6.9,3.2-6.9,7h6.9v-7ZM488.7,35.3c7.9-1.2,12-7.5,12-13.4s-4.1-11.8-12.4-12.2c3.2,3.2,4.8,8.3,4.8,13.3s-1.5,9.4-4.4,12.3M486.4,35.3c-3.2-3.2-4.8-8.3-4.8-13.3s1.5-9.5,4.4-12.3c-7.9,1.1-12,7.5-12,13.4s4.1,11.8,12.4,12.2M511.7,34.8V9.3l-7,2.1v23.3h7ZM520.4,9.7c-3.8,0-6.9,3.2-6.9,7h6.9v-7ZM535,35l3.7-6.9-8-17.9h-7.6l11.9,24.8ZM540.1,25.6l8.3-15.4h-6.4l-1.9,15.4ZM526.2,44.6c3.7.2,5.2-2.9,7.8-7.8-2,1.8-6.3,2.7-10.3,2.6l2.5,5.2Z"/>
      </g>
    </g>
  </g>
</svg>