<?xml version="1.0" encoding="UTF-8"?>
<svg id="Layer_2" data-name="Layer 2" xmlns="http://www.w3.org/2000/svg" viewBox="0 0 780.3 127.7">
  <defs>
    <style>
      .cls-1 {
        fill: #bbae2e;
      }

      .cls-1, .cls-2, .cls-3, .cls-4, .cls-5, .cls-6, .cls-7, .cls-8, .cls-9, .cls-10, .cls-11, .cls-12 {
        stroke-width: 0px;
      }

      .cls-2 {
        fill: #d1451e;
      }

      .cls-3 {
        fill: #5966a4;
      }

      .cls-4 {
        fill: #4399d5;
      }

      .cls-5 {
        fill: #d74a2a;
      }

      .cls-6 {
        fill: #3b3b3c;
      }

      .cls-7 {
        fill: #c52840;
      }

      .cls-8 {
        fill: #992c5b;
      }

      .cls-9 {
        fill: #96bb3d;
      }

      .cls-10 {
        fill: #e0a01f;
      }

      .cls-11 {
        fill: #6f3076;
      }

      .cls-12 {
        fill: #fff;
      }
    </style>
  </defs>
  <g id="Layer_1-2" data-name="Layer 1">
    <g>
      <g>
        <g>
          <rect class="cls-5" y="23.8" width="80.1" height="80.1"/>
          <path class="cls-12" d="M61.4,40v28.1c0,6.3-1.9,11.4-5.6,15.2-3.7,3.8-9,5.7-15.7,5.7s-12-1.9-15.8-5.7c-3.7-3.8-5.6-8.9-5.6-15.2v-28.1h11.5v27.9c0,3.2.8,5.8,2.5,7.7,1.7,2,4.1,3,7.3,3s5.6-1,7.3-3c1.7-2,2.5-4.5,2.5-7.7v-27.9h11.5Z"/>
          <rect class="cls-5" x="88.2" y="23.8" width="80.1" height="80.1"/>
          <rect class="cls-5" x="176.4" y="23.8" width="80.1" height="80.1"/>
          <rect class="cls-5" x="264.5" y="23.8" width="80.1" height="80.1"/>
          <polygon class="cls-12" points="153.8 39.8 153.8 87.9 142.4 87.9 142.4 59.7 128.3 79.1 114.2 59.7 114.2 87.9 102.8 87.9 102.8 39.8 113.6 39.8 128.3 61.2 142.9 39.8 153.8 39.8"/>
          <path class="cls-12" d="M221.8,76.9c1.3-1.3,2-3,2-5.1s-.7-3.7-2-5c-1.3-1.4-3.1-2-5.4-2s-4,.7-5.3,2c-1.4,1.3-2.1,3-2.1,5.1s.7,3.8,2,5.1c1.4,1.3,3.2,2,5.4,2s4-.7,5.4-2M230.4,60.1c3.2,3.1,4.8,7,4.8,11.7s-1.8,9.1-5.3,12.4-8,4.9-13.4,4.9-9.8-1.6-13.4-4.9c-3.6-3.3-5.4-7.4-5.4-12.4s1.1-6.6,3.4-10.2l13.6-21.6h12.8l-9.4,14.9c5,.4,9.1,2.1,12.2,5.2"/>
          <path class="cls-12" d="M311.8,62.2c1.3-1.4,1.9-3.1,1.9-4.9s-.6-3.5-1.8-4.9c-1.2-1.4-2.8-2.1-4.6-2.1h-11.6v14.1h11.1c2,0,3.7-.7,5-2.1M320,45.1c3.2,3.5,4.8,7.5,4.8,12s-1.6,8.6-4.8,12.1c-3.2,3.5-7.5,5.3-12.9,5.3h-11.4v13.4h-11.3v-48.1h23.1c5.1,0,9.3,1.8,12.5,5.3"/>
        </g>
        <rect class="cls-2" x="384.9" y="23.8" width="1" height="80.2"/>
      </g>
      <g>
        <path class="cls-6" d="M564,55.4c-3.1,0-5.6-1-7.7-3.1-2-2.1-3.1-4.7-3.1-7.8s1-5.7,3.1-7.8c2-2.1,4.6-3.1,7.6-3.1s4.8.7,6.5,2,2.9,2.9,3.4,4.8l-3.9,1c-.4-1.1-1.1-2-2.1-2.8-1.1-.8-2.3-1.1-3.8-1.1s-3.6.7-4.8,2c-1.2,1.4-1.8,3-1.8,5s.6,3.6,1.8,5c1.2,1.4,2.8,2.1,4.8,2.1s2.8-.4,3.8-1.1c1.1-.7,1.8-1.7,2.1-2.8l3.9,1c-.5,1.8-1.6,3.4-3.4,4.7s-3.9,2-6.4,2h0Z"/>
        <path class="cls-6" d="M583.5,55.4c-2.3,0-4.2-.8-5.7-2.3-1.5-1.5-2.2-3.4-2.2-5.7s.8-4.2,2.3-5.7c1.5-1.5,3.4-2.3,5.7-2.3s4.2.8,5.7,2.3,2.2,3.4,2.2,5.7-.7,4.2-2.2,5.7-3.4,2.3-5.7,2.3h0ZM586.5,50.6c.8-.8,1.2-1.9,1.2-3.2s-.4-2.3-1.2-3.2-1.8-1.2-3-1.2-2.2.4-3,1.2-1.2,1.9-1.2,3.2.4,2.3,1.2,3.2,1.8,1.2,3,1.2,2.2-.4,3-1.2Z"/>
        <path class="cls-6" d="M598.2,42.1c1-2,2.6-2.8,4.9-2.5v3.7c-1.6-.3-2.8,0-3.6.8s-1.2,2.2-1.2,4.2v6.6h-3.9v-15.2h3.9v2.2h0Z"/>
        <path class="cls-6" d="M614.2,39.4c2.1,0,3.8.8,5.2,2.3,1.4,1.5,2.1,3.4,2.1,5.7s-.7,4.2-2.1,5.7c-1.4,1.5-3.1,2.3-5.2,2.3s-3.6-.8-4.8-2.3v8.2h-3.9v-21.5h3.9v1.8c1.2-1.5,2.8-2.3,4.8-2.3h0ZM613.5,51.9c1.2,0,2.2-.4,3-1.3.8-.8,1.2-1.9,1.2-3.2s-.4-2.4-1.2-3.2c-.8-.8-1.8-1.2-3-1.2s-2.2.4-3,1.3-1.2,1.9-1.2,3.2.4,2.4,1.2,3.2,1.8,1.3,3,1.3h0Z"/>
        <path class="cls-6" d="M631.4,55.4c-2.3,0-4.2-.8-5.7-2.3s-2.2-3.4-2.2-5.7.8-4.2,2.3-5.7,3.4-2.3,5.7-2.3,4.2.8,5.7,2.3,2.2,3.4,2.2,5.7-.7,4.2-2.2,5.7-3.4,2.3-5.7,2.3h0ZM634.4,50.6c.8-.8,1.2-1.9,1.2-3.2s-.4-2.3-1.2-3.2c-.8-.8-1.8-1.2-3-1.2s-2.2.4-3,1.2-1.2,1.9-1.2,3.2.4,2.3,1.2,3.2,1.8,1.2,3,1.2,2.2-.4,3-1.2Z"/>
        <path class="cls-6" d="M646.1,42.1c1-2,2.6-2.8,4.9-2.5v3.7c-1.6-.3-2.8,0-3.6.8-.8.8-1.2,2.2-1.2,4.2v6.6h-3.9v-15.2h3.9v2.2h0Z"/>
        <path class="cls-6" d="M659.1,55.4c-2.1,0-3.8-.8-5.2-2.3-1.4-1.5-2.1-3.4-2.1-5.7s.7-4.2,2.1-5.7c1.4-1.5,3.1-2.3,5.2-2.3s3.6.7,4.8,2.3v-1.8h3.9v15.2h-3.9v-1.9c-1.1,1.5-2.7,2.3-4.8,2.3h0ZM659.8,51.9c1.2,0,2.2-.4,3-1.3.8-.8,1.2-1.9,1.2-3.2s-.4-2.3-1.2-3.2c-.8-.8-1.8-1.3-3-1.3s-2.2.4-3,1.2c-.8.8-1.2,1.9-1.2,3.2s.4,2.4,1.2,3.2c.8.8,1.8,1.3,3,1.3h0Z"/>
        <path class="cls-6" d="M680.9,54.5c-1.2.5-2.3.7-3.5.7-1.6,0-2.9-.5-3.7-1.4s-1.2-2.3-1.2-4v-6.5h-2.5v-3.5h2.5v-4.9h3.9v4.9h4.3v3.5h-4.3v6.5c0,1.3.6,1.9,1.8,1.9s1.2-.1,1.8-.4l.9,3.2Z"/>
        <path class="cls-6" d="M690,55.4c-2.4,0-4.3-.7-5.8-2.2-1.5-1.5-2.2-3.4-2.2-5.8s.7-4.2,2.1-5.7c1.4-1.5,3.3-2.3,5.6-2.3s4.2.7,5.6,2.2,2.1,3.3,2.1,5.6,0,1.1,0,1.4h-11.5c.1,1,.6,1.9,1.3,2.5s1.7.9,3,.9,2.9-.7,3.6-2l3.5,1.1c-.5,1.1-1.3,2.2-2.6,3-1.2.9-2.8,1.3-4.5,1.3h0ZM693.6,46.1c-.1-1-.5-1.8-1.2-2.4-.7-.6-1.6-1-2.7-1s-2,.3-2.7,1c-.7.7-1.1,1.5-1.2,2.4h7.8Z"/>
        <path class="cls-6" d="M564,88.3c-3.1,0-5.6-1-7.7-3.1-2-2.1-3.1-4.7-3.1-7.8s1-5.7,3.1-7.8c2-2.1,4.6-3.1,7.6-3.1s4.8.7,6.5,2,2.9,2.9,3.4,4.8l-3.9,1c-.4-1.1-1.1-2-2.1-2.8-1.1-.8-2.3-1.1-3.8-1.1s-3.6.7-4.8,2c-1.2,1.4-1.8,3-1.8,5s.6,3.6,1.8,5c1.2,1.4,2.8,2.1,4.8,2.1s2.8-.4,3.8-1.1c1.1-.7,1.8-1.7,2.1-2.8l3.9,1c-.5,1.8-1.6,3.4-3.4,4.7s-3.9,2-6.4,2h0Z"/>
        <path class="cls-6" d="M583.5,88.3c-2.3,0-4.2-.8-5.7-2.3-1.5-1.5-2.2-3.4-2.2-5.7s.8-4.2,2.3-5.7c1.5-1.5,3.4-2.3,5.7-2.3s4.2.8,5.7,2.3,2.2,3.4,2.2,5.7-.7,4.2-2.2,5.7-3.4,2.3-5.7,2.3h0ZM586.5,83.5c.8-.8,1.2-1.9,1.2-3.2s-.4-2.3-1.2-3.2-1.8-1.2-3-1.2-2.2.4-3,1.2-1.2,1.9-1.2,3.2.4,2.3,1.2,3.2,1.8,1.2,3,1.2,2.2-.4,3-1.2Z"/>
        <path class="cls-6" d="M612,72.3c1.8,0,3.2.6,4.3,1.7s1.6,2.8,1.6,4.8v9h-3.9v-8.2c0-2.5-.9-3.7-2.8-3.7s-1.8.4-2.3,1.1-.8,1.8-.8,3.1v7.7h-3.9v-8.2c0-2.5-.9-3.7-2.8-3.7s-1.8.4-2.4,1.1-.8,1.8-.8,3.2v7.6h-3.9v-15.2h3.9v1.8c1.1-1.5,2.6-2.2,4.4-2.2s3.5.8,4.5,2.3c1.2-1.5,2.8-2.3,5-2.3h0Z"/>
        <path class="cls-6" d="M639.2,72.3c1.8,0,3.2.6,4.3,1.7s1.6,2.8,1.6,4.8v9h-3.9v-8.2c0-2.5-.9-3.7-2.8-3.7s-1.8.4-2.3,1.1-.8,1.8-.8,3.1v7.7h-3.9v-8.2c0-2.5-.9-3.7-2.8-3.7s-1.8.4-2.4,1.1-.8,1.8-.8,3.2v7.6h-3.9v-15.2h3.9v1.8c1.1-1.5,2.6-2.2,4.4-2.2s3.5.8,4.5,2.3c1.2-1.5,2.8-2.3,5-2.3h0Z"/>
        <path class="cls-6" d="M662.9,72.8v15.2h-3.9v-1.9c-1.2,1.6-2.7,2.3-4.8,2.3s-3.4-.6-4.4-1.8-1.5-2.9-1.5-5v-8.8h3.9v8.1c0,1.2.3,2.1.8,2.8s1.3,1,2.4,1,2-.4,2.6-1.2c.6-.8,1-1.9,1-3.3v-7.5h3.9Z"/>
        <path class="cls-6" d="M675.3,72.3c1.9,0,3.3.6,4.3,1.8s1.5,2.8,1.5,4.9v8.9h-3.9v-8.1c0-1.2-.3-2.1-.8-2.8-.5-.7-1.3-1-2.4-1s-1.9.4-2.6,1.2c-.7.8-1,1.9-1,3.2v7.5h-3.9v-15.2h3.9v1.9c1.2-1.6,2.8-2.3,4.8-2.3h0Z"/>
        <path class="cls-6" d="M686.7,70.6c-.6,0-1.2-.2-1.6-.7-.4-.5-.7-1-.7-1.7s.2-1.2.7-1.6c.4-.4,1-.7,1.6-.7s1.2.2,1.6.7c.4.4.7,1,.7,1.6s-.2,1.2-.7,1.7c-.4.4-1,.7-1.6.7h0ZM684.7,72.8h3.9v15.2h-3.9v-15.2Z"/>
        <path class="cls-6" d="M699.3,88.4c-2.3,0-4.1-.8-5.6-2.3-1.5-1.5-2.2-3.5-2.2-5.7s.7-4.2,2.2-5.7c1.5-1.5,3.4-2.3,5.6-2.3s3.5.5,4.8,1.5c1.3,1,2.1,2.2,2.4,3.4l-3.6,1.1c-.2-.7-.6-1.3-1.2-1.8-.7-.5-1.4-.7-2.4-.7s-2.2.4-2.9,1.3c-.7.9-1.1,1.9-1.1,3.2s.4,2.3,1.1,3.2c.8.9,1.7,1.3,2.9,1.3s1.7-.2,2.4-.7c.7-.5,1.1-1.1,1.3-1.7l3.6,1c-.3,1.3-1.1,2.4-2.4,3.4s-2.9,1.5-4.8,1.5h0Z"/>
        <path class="cls-6" d="M715.8,88.3c-2.1,0-3.8-.8-5.2-2.3s-2.1-3.4-2.1-5.7.7-4.2,2.1-5.7,3.1-2.3,5.2-2.3,3.6.7,4.8,2.3v-1.8h3.9v15.2h-3.9v-1.9c-1.1,1.5-2.7,2.3-4.8,2.3h0ZM716.5,84.8c1.2,0,2.2-.4,3-1.3s1.2-1.9,1.2-3.2-.4-2.3-1.2-3.2-1.8-1.3-3-1.3-2.2.4-3,1.2-1.2,1.9-1.2,3.2.4,2.4,1.2,3.2,1.8,1.3,3,1.3h0Z"/>
        <path class="cls-6" d="M737.6,87.4c-1.2.5-2.3.7-3.5.7-1.6,0-2.9-.5-3.7-1.4s-1.2-2.3-1.2-4v-6.5h-2.5v-3.5h2.5v-4.9h3.9v4.9h4.3v3.5h-4.3v6.5c0,1.3.6,1.9,1.8,1.9s1.2-.1,1.8-.4l.9,3.2Z"/>
        <path class="cls-6" d="M742.2,70.6c-.6,0-1.2-.2-1.6-.7-.4-.5-.7-1-.7-1.7s.2-1.2.7-1.6c.4-.4,1-.7,1.6-.7s1.2.2,1.6.7c.4.4.7,1,.7,1.6s-.2,1.2-.7,1.7c-.4.4-1,.7-1.6.7h0ZM740.2,72.8h3.9v15.2h-3.9v-15.2Z"/>
        <path class="cls-6" d="M755,88.3c-2.3,0-4.2-.8-5.7-2.3-1.5-1.5-2.2-3.4-2.2-5.7s.8-4.2,2.3-5.7c1.5-1.5,3.4-2.3,5.7-2.3s4.2.8,5.7,2.3,2.2,3.4,2.2,5.7-.7,4.2-2.2,5.7-3.4,2.3-5.7,2.3h0ZM758,83.5c.8-.8,1.2-1.9,1.2-3.2s-.4-2.3-1.2-3.2-1.8-1.2-3-1.2-2.2.4-3,1.2-1.2,1.9-1.2,3.2.4,2.3,1.2,3.2,1.8,1.2,3,1.2,2.2-.4,3-1.2Z"/>
        <path class="cls-6" d="M774.5,72.3c1.9,0,3.3.6,4.3,1.8s1.5,2.8,1.5,4.9v8.9h-3.9v-8.1c0-1.2-.3-2.1-.8-2.8-.5-.7-1.3-1-2.4-1s-1.9.4-2.6,1.2c-.7.8-1,1.9-1,3.2v7.5h-3.9v-15.2h3.9v1.9c1.2-1.6,2.8-2.3,4.8-2.3h0Z"/>
      </g>
      <g>
        <g>
          <ellipse class="cls-1" cx="510.4" cy="7.7" rx="4.6" ry="4.1" transform="translate(144 363.2) rotate(-45)"/>
          <polygon class="cls-1" points="502.6 23.8 494.4 37.4 494.4 23.8 480.8 23.8 494.4 15.6 494.4 0 502.6 15.5 518.2 23.8 502.6 23.8"/>
        </g>
        <g>
          <ellipse class="cls-9" cx="445.8" cy="7.7" rx="4.1" ry="4.6" transform="translate(125.1 317.5) rotate(-45)"/>
          <polygon class="cls-9" points="453.6 23.8 461.8 37.4 461.8 23.8 475.4 23.8 461.8 15.6 461.8 0 453.6 15.5 438 23.8 453.6 23.8"/>
        </g>
        <g>
          <ellipse class="cls-8" cx="510.4" cy="120" rx="4.1" ry="4.6" transform="translate(64.7 396.1) rotate(-45)"/>
          <polygon class="cls-8" points="502.6 103.9 494.4 90.4 494.4 103.9 480.8 103.9 494.4 112.1 494.4 127.7 502.6 112.2 518.2 103.9 502.6 103.9"/>
        </g>
        <g>
          <ellipse class="cls-11" cx="445.8" cy="120" rx="4.6" ry="4.1" transform="translate(45.7 350.4) rotate(-45)"/>
          <polygon class="cls-11" points="453.6 103.9 461.8 90.4 461.8 103.9 475.4 103.9 461.8 112.1 461.8 127.7 453.6 112.2 438 103.9 453.6 103.9"/>
        </g>
        <g>
          <ellipse class="cls-4" cx="422" cy="31.5" rx="4.1" ry="4.6" transform="translate(101.3 307.6) rotate(-45)"/>
          <polygon class="cls-4" points="438 39.4 451.6 47.6 438 47.6 438 61.2 429.8 47.6 414.2 47.6 429.8 39.3 438 23.8 438 39.4"/>
        </g>
        <g>
          <ellipse class="cls-3" cx="422" cy="96.2" rx="4.6" ry="4.1" transform="translate(55.6 326.6) rotate(-45)"/>
          <polygon class="cls-3" points="438 88.3 451.6 80.1 438 80.1 438 66.6 429.8 80.1 414.2 80.1 429.8 88.4 438 103.9 438 88.3"/>
        </g>
        <g>
          <ellipse class="cls-10" cx="534.2" cy="31.5" rx="4.6" ry="4.1" transform="translate(134.2 387) rotate(-45)"/>
          <polygon class="cls-10" points="518.2 39.4 504.6 47.6 518.2 47.6 518.2 61.2 526.4 47.6 542 47.6 526.4 39.3 518.2 23.8 518.2 39.4"/>
        </g>
        <g>
          <ellipse class="cls-7" cx="534.2" cy="96.2" rx="4.1" ry="4.6" transform="translate(88.5 405.9) rotate(-45)"/>
          <polygon class="cls-7" points="518.2 88.3 504.6 80.1 518.2 80.1 518.2 66.6 526.4 80.1 542 80.1 526.4 88.4 518.2 103.9 518.2 88.3"/>
        </g>
      </g>
    </g>
  </g>
</svg>