<?xml version="1.0" encoding="UTF-8"?>
<svg id="Layer_2" data-name="Layer 2" xmlns="http://www.w3.org/2000/svg" viewBox="0 0 923.1 89">
  <defs>
    <style>
      .cls-1 {
        fill: #f86806;
      }

      .cls-1, .cls-2, .cls-3, .cls-4 {
        stroke-width: 0px;
      }

      .cls-2 {
        fill: #d74a2a;
      }

      .cls-3 {
        fill: #002a5c;
      }

      .cls-4 {
        fill: #fff;
      }
    </style>
  </defs>
  <g id="Layer_1-2" data-name="Layer 1">
    <g>
      <g>
        <g>
          <rect class="cls-2" y="1.3" width="80.1" height="80.1"/>
          <path class="cls-4" d="M61.4,17.5v28.1c0,6.3-1.9,11.4-5.6,15.2-3.7,3.8-9,5.7-15.7,5.7s-12-1.9-15.8-5.7c-3.7-3.8-5.6-8.9-5.6-15.2v-28.1h11.5v27.9c0,3.2.8,5.8,2.5,7.7,1.7,2,4.1,3,7.3,3s5.6-1,7.3-3c1.7-2,2.5-4.5,2.5-7.7v-27.9h11.5Z"/>
          <rect class="cls-2" x="88.2" y="1.3" width="80.1" height="80.1"/>
          <rect class="cls-2" x="176.4" y="1.3" width="80.1" height="80.1"/>
          <rect class="cls-2" x="264.5" y="1.3" width="80.1" height="80.1"/>
          <polygon class="cls-4" points="153.8 17.3 153.8 65.4 142.4 65.4 142.4 37.3 128.3 56.6 114.2 37.3 114.2 65.4 102.8 65.4 102.8 17.3 113.6 17.3 128.3 38.7 142.9 17.3 153.8 17.3"/>
          <path class="cls-4" d="M221.8,54.4c1.3-1.3,2-3,2-5.1s-.7-3.7-2-5c-1.3-1.4-3.1-2-5.4-2s-4,.7-5.3,2c-1.4,1.3-2.1,3-2.1,5.1s.7,3.8,2,5.1c1.4,1.3,3.2,2,5.4,2s4-.7,5.4-2M230.4,37.6c3.2,3.1,4.8,7,4.8,11.7s-1.8,9.1-5.3,12.4c-3.6,3.3-8,4.9-13.4,4.9s-9.8-1.6-13.4-4.9c-3.6-3.3-5.4-7.4-5.4-12.4s1.1-6.6,3.4-10.2l13.6-21.6h12.8l-9.4,14.9c5,.4,9.1,2.1,12.2,5.2"/>
          <path class="cls-4" d="M311.8,39.7c1.3-1.4,1.9-3.1,1.9-4.9s-.6-3.5-1.8-4.9c-1.2-1.4-2.8-2.1-4.6-2.1h-11.6v14.1h11.1c2,0,3.7-.7,5-2.1M320,22.6c3.2,3.5,4.8,7.5,4.8,12s-1.6,8.6-4.8,12.1c-3.2,3.5-7.5,5.3-12.9,5.3h-11.4v13.4h-11.3V17.3h23.1c5.1,0,9.3,1.8,12.5,5.3"/>
        </g>
        <rect class="cls-2" x="384.9" y="1.3" width="1" height="80.2"/>
      </g>
      <g>
        <rect class="cls-3" x="566.4" y="1.4" width="25.4" height="79.9"/>
        <polygon class="cls-3" points="660.1 1.4 660.1 26.8 641.1 26.8 641.1 81.3 615.7 81.3 615.7 26.8 596.7 26.8 596.7 1.4 660.1 1.4"/>
        <polygon class="cls-3" points="561.5 1.4 561.5 81.3 536.1 81.3 536.1 35 489.7 81.3 456.8 81.3 536.1 1.4 561.5 1.4"/>
        <polygon class="cls-1" points="531.2 1.4 531.2 81.3 505.8 81.3 505.8 35 459.4 81.3 426.5 81.3 505.8 1.4 531.2 1.4"/>
      </g>
      <g>
        <path class="cls-1" d="M689.8,17.8h-9.2l-1.7,4.6h-4.2l7.8-21h5.2l7.9,21h-4.2l-1.7-4.6ZM688.5,14.1l-3.3-8.9-3.3,8.9h6.6Z"/>
        <path class="cls-1" d="M702.4,7.1h4.5v3.5h-4.5v11.7h-3.9v-11.7h-2.8v-3.5h2.8v-1.4c0-1.8.4-3.2,1.3-4.2.9-1,2.2-1.5,3.9-1.5s2.4.2,3.3.7l-.9,3.2c-.6-.3-1.2-.4-1.8-.4-.6,0-1.1.2-1.4.6s-.5,1-.5,1.7v1.4Z"/>
        <path class="cls-1" d="M712.7,9.4c1-2,2.6-2.8,4.9-2.5v3.7c-1.6-.3-2.8,0-3.6.8s-1.2,2.2-1.2,4.2v6.6h-3.9V7.1h3.9v2.2h0Z"/>
        <path class="cls-1" d="M722,5c-.6,0-1.2-.2-1.6-.7s-.7-1-.7-1.7.2-1.2.7-1.6,1-.7,1.6-.7,1.2.2,1.6.7c.4.4.7,1,.7,1.6s-.2,1.2-.7,1.7c-.4.4-1,.7-1.6.7h0ZM720,7.2h3.9v15.2h-3.9V7.2Z"/>
        <path class="cls-1" d="M734.7,22.8c-2.3,0-4.1-.8-5.6-2.3-1.5-1.5-2.2-3.5-2.2-5.7s.7-4.2,2.2-5.7c1.5-1.5,3.4-2.3,5.6-2.3s3.5.5,4.8,1.5c1.3,1,2.1,2.2,2.4,3.4l-3.6,1.1c-.2-.7-.6-1.3-1.2-1.8-.7-.5-1.4-.7-2.4-.7s-2.2.4-2.9,1.3c-.7.9-1.1,1.9-1.1,3.2s.4,2.3,1.1,3.2c.8.9,1.7,1.3,2.9,1.3s1.7-.2,2.4-.7c.7-.5,1.1-1.1,1.3-1.7l3.6,1c-.3,1.3-1.1,2.4-2.4,3.4s-2.9,1.5-4.8,1.5h0Z"/>
        <path class="cls-1" d="M751.1,22.8c-2.1,0-3.8-.8-5.2-2.3s-2.1-3.4-2.1-5.7.7-4.2,2.1-5.7,3.1-2.3,5.2-2.3,3.6.7,4.8,2.3v-1.8h3.9v15.2h-3.9v-1.9c-1.1,1.5-2.7,2.3-4.8,2.3h0ZM751.8,19.2c1.2,0,2.2-.4,3-1.3.8-.8,1.2-1.9,1.2-3.2s-.4-2.3-1.2-3.2c-.8-.8-1.8-1.3-3-1.3s-2.2.4-3,1.2c-.8.8-1.2,1.9-1.2,3.2s.4,2.4,1.2,3.2c.8.8,1.8,1.3,3,1.3h0Z"/>
        <path class="cls-1" d="M772.2,6.7c1.9,0,3.3.6,4.3,1.8,1,1.2,1.5,2.8,1.5,4.9v8.9h-3.9v-8.1c0-1.2-.3-2.1-.8-2.8-.5-.7-1.3-1-2.4-1s-1.9.4-2.6,1.2c-.7.8-1,1.9-1,3.2v7.5h-3.9V7.1h3.9v1.9c1.2-1.6,2.8-2.3,4.8-2.3h0Z"/>
        <path class="cls-3" d="M802.1,17.8h-9.2l-1.7,4.6h-4.2l7.8-21h5.2l7.9,21h-4.2l-1.7-4.6ZM800.8,14.1l-3.3-8.9-3.3,8.9h6.6Z"/>
        <path class="cls-3" d="M816.4,22.8c-2.3,0-4.1-.8-5.6-2.3-1.5-1.5-2.2-3.5-2.2-5.7s.7-4.2,2.2-5.7c1.5-1.5,3.4-2.3,5.6-2.3s3.5.5,4.8,1.5c1.3,1,2.1,2.2,2.4,3.4l-3.6,1.1c-.2-.7-.6-1.3-1.2-1.8-.7-.5-1.4-.7-2.4-.7s-2.2.4-2.9,1.3c-.7.9-1.1,1.9-1.1,3.2s.4,2.3,1.1,3.2c.8.9,1.7,1.3,2.9,1.3s1.7-.2,2.4-.7c.7-.5,1.1-1.1,1.3-1.7l3.6,1c-.3,1.3-1.1,2.4-2.4,3.4s-2.9,1.5-4.8,1.5h0Z"/>
        <path class="cls-3" d="M832.9,22.8c-2.1,0-3.8-.8-5.2-2.3-1.4-1.5-2.1-3.4-2.1-5.7s.7-4.2,2.1-5.7c1.4-1.5,3.1-2.3,5.2-2.3s3.6.7,4.8,2.3v-1.8h3.9v15.2h-3.9v-1.9c-1.1,1.5-2.7,2.3-4.8,2.3h0ZM833.6,19.2c1.2,0,2.2-.4,3-1.3.8-.8,1.2-1.9,1.2-3.2s-.4-2.3-1.2-3.2c-.8-.8-1.8-1.3-3-1.3s-2.2.4-3,1.2-1.2,1.9-1.2,3.2.4,2.4,1.2,3.2,1.8,1.3,3,1.3h0Z"/>
        <path class="cls-3" d="M860.4.4v21.9h-3.9v-1.9c-1.2,1.5-2.7,2.3-4.8,2.3s-3.8-.8-5.2-2.3c-1.4-1.5-2.1-3.4-2.1-5.7s.7-4.2,2.1-5.7c1.4-1.5,3.1-2.3,5.2-2.3s3.6.7,4.8,2.3V.4h3.9ZM852.4,19.2c1.2,0,2.2-.4,3-1.3s1.2-1.9,1.2-3.2-.4-2.3-1.2-3.2-1.8-1.3-3-1.3-2.2.4-3,1.2c-.8.8-1.2,1.9-1.2,3.2s.4,2.4,1.2,3.2c.8.8,1.8,1.3,3,1.3h0Z"/>
        <path class="cls-3" d="M871.3,22.8c-2.4,0-4.3-.7-5.8-2.2-1.5-1.5-2.2-3.4-2.2-5.8s.7-4.2,2.1-5.7c1.4-1.5,3.3-2.3,5.6-2.3s4.2.7,5.6,2.2,2.1,3.3,2.1,5.6,0,1.1,0,1.4h-11.5c.1,1,.6,1.9,1.3,2.5s1.7.9,3,.9,2.9-.7,3.6-2l3.5,1.1c-.5,1.1-1.3,2.2-2.6,3s-2.8,1.3-4.5,1.3h0ZM874.9,13.5c-.1-1-.5-1.8-1.2-2.4-.7-.6-1.6-1-2.7-1s-2,.3-2.7,1-1.1,1.5-1.2,2.4h7.8Z"/>
        <path class="cls-3" d="M899.3,6.7c1.8,0,3.2.6,4.3,1.7,1.1,1.2,1.6,2.8,1.6,4.8v9h-3.9v-8.2c0-2.5-.9-3.7-2.8-3.7s-1.8.4-2.3,1.1-.8,1.8-.8,3.1v7.7h-3.9v-8.2c0-2.5-.9-3.7-2.8-3.7s-1.8.4-2.4,1.1-.8,1.8-.8,3.2v7.6h-3.9V7.1h3.9v1.8c1.1-1.5,2.6-2.2,4.4-2.2s3.5.8,4.5,2.3c1.2-1.5,2.8-2.3,5-2.3h0Z"/>
        <path class="cls-3" d="M923.1,7.1l-8.9,21.5h-4l2.7-6.6-6.7-14.8h4.2l4.4,10.3,4.1-10.3h4.1Z"/>
        <path class="cls-3" d="M683.6,52.7c-2.3,0-4.2-.8-5.7-2.3-1.5-1.5-2.2-3.4-2.2-5.7s.8-4.2,2.3-5.7,3.4-2.3,5.7-2.3,4.2.8,5.7,2.3,2.2,3.4,2.2,5.7-.7,4.2-2.2,5.7-3.4,2.3-5.7,2.3h0ZM686.6,47.9c.8-.8,1.2-1.9,1.2-3.2s-.4-2.3-1.2-3.2c-.8-.8-1.8-1.2-3-1.2s-2.2.4-3,1.2-1.2,1.9-1.2,3.2.4,2.3,1.2,3.2,1.8,1.2,3,1.2,2.2-.4,3-1.2Z"/>
        <path class="cls-3" d="M699.4,37.1h4.5v3.5h-4.5v11.7h-3.9v-11.7h-2.8v-3.5h2.8v-1.4c0-1.8.4-3.2,1.3-4.2.9-1,2.2-1.5,3.9-1.5s2.4.2,3.3.7l-.9,3.2c-.6-.3-1.2-.4-1.8-.4-.6,0-1.1.2-1.4.6s-.5,1-.5,1.7v1.4Z"/>
        <path class="cls-3" d="M713.2,31.3h4.1v21h-4.1v-21Z"/>
        <path class="cls-3" d="M729.7,36.7c1.9,0,3.3.6,4.3,1.8s1.5,2.8,1.5,4.9v8.9h-3.9v-8.1c0-1.2-.3-2.1-.8-2.8s-1.3-1-2.4-1-1.9.4-2.6,1.2c-.7.8-1,1.9-1,3.2v7.5h-3.9v-15.2h3.9v1.9c1.2-1.6,2.8-2.3,4.8-2.3h0Z"/>
        <path class="cls-3" d="M754.2,30.4v21.9h-3.9v-1.9c-1.2,1.5-2.7,2.3-4.8,2.3s-3.8-.8-5.2-2.3c-1.4-1.5-2.1-3.4-2.1-5.7s.7-4.2,2.1-5.7c1.4-1.5,3.1-2.3,5.2-2.3s3.6.7,4.8,2.3v-8.6h3.9ZM746.2,49.2c1.2,0,2.2-.4,3-1.3.8-.8,1.2-1.9,1.2-3.2s-.4-2.3-1.2-3.2c-.8-.8-1.8-1.3-3-1.3s-2.2.4-3,1.2-1.2,1.9-1.2,3.2.4,2.4,1.2,3.2,1.8,1.3,3,1.3h0Z"/>
        <path class="cls-3" d="M772.3,37.2v15.2h-3.9v-1.9c-1.2,1.6-2.7,2.3-4.8,2.3s-3.4-.6-4.4-1.8c-1-1.2-1.5-2.9-1.5-5v-8.8h3.9v8.1c0,1.2.3,2.1.8,2.8s1.3,1,2.4,1,2-.4,2.6-1.2,1-1.9,1-3.3v-7.5h3.9Z"/>
        <path class="cls-3" d="M781.9,52.7c-1.8,0-3.3-.5-4.6-1.4-1.3-.9-2.2-2-2.6-3.3l3.5-1c.3.7.7,1.3,1.4,1.8s1.5.7,2.5.7,1.3-.1,1.8-.5.7-.7.7-1.1c0-.7-.5-1.2-1.6-1.5l-3.8-1.1c-2.4-.7-3.7-2.1-3.7-4s.6-2.3,1.7-3.2,2.6-1.3,4.2-1.3,2.9.4,4.1,1.1c1.2.7,2,1.6,2.5,2.8l-3.4,1c-.6-1.2-1.7-1.8-3.2-1.8s-1.1.1-1.5.4-.6.6-.6,1c0,.6.4,1,1.2,1.2l3.7,1.1c1.3.4,2.4.9,3.1,1.5s1.1,1.5,1.1,2.8-.6,2.6-1.8,3.6c-1.2.9-2.7,1.4-4.6,1.4h0Z"/>
        <path class="cls-3" d="M800.4,51.8c-1.2.5-2.3.7-3.5.7-1.6,0-2.9-.5-3.7-1.4s-1.2-2.3-1.2-4v-6.5h-2.5v-3.5h2.5v-4.9h3.9v4.9h4.3v3.5h-4.3v6.5c0,1.3.6,1.9,1.8,1.9s1.2-.1,1.8-.4l.9,3.2Z"/>
        <path class="cls-3" d="M806.8,39.4c1-2,2.6-2.8,4.9-2.5v3.7c-1.6-.3-2.8,0-3.6.8-.8.8-1.2,2.2-1.2,4.2v6.6h-3.9v-15.2h3.9v2.2h0Z"/>
        <path class="cls-3" d="M816.2,35c-.6,0-1.2-.2-1.6-.7-.4-.5-.7-1-.7-1.7s.2-1.2.7-1.6c.4-.4,1-.7,1.6-.7s1.2.2,1.6.7.7,1,.7,1.6-.2,1.2-.7,1.7-1,.7-1.6.7h0ZM814.2,37.2h3.9v15.2h-3.9v-15.2Z"/>
        <path class="cls-3" d="M828.4,52.8c-2.1,0-3.8-.8-5.2-2.3-1.4-1.5-2.1-3.4-2.1-5.7s.7-4.2,2.1-5.7c1.4-1.5,3.1-2.3,5.2-2.3s3.6.7,4.8,2.3v-1.8h3.9v15.2h-3.9v-1.9c-1.1,1.5-2.7,2.3-4.8,2.3h0ZM829,49.2c1.2,0,2.2-.4,3-1.3.8-.8,1.2-1.9,1.2-3.2s-.4-2.3-1.2-3.2c-.8-.8-1.8-1.3-3-1.3s-2.2.4-3,1.2-1.2,1.9-1.2,3.2.4,2.4,1.2,3.2,1.8,1.3,3,1.3h0Z"/>
        <path class="cls-3" d="M840.8,30.4h3.9v21.9h-3.9v-21.9Z"/>
        <path class="cls-3" d="M692.9,65h-6.9v17.3h-4v-17.3h-6.9v-3.7h17.8v3.7Z"/>
        <path class="cls-3" d="M696.9,69.4c1-2,2.6-2.8,4.9-2.5v3.7c-1.6-.3-2.8,0-3.6.8s-1.2,2.2-1.2,4.2v6.6h-3.9v-15.2h3.9v2.2h0Z"/>
        <path class="cls-3" d="M709.9,82.8c-2.1,0-3.8-.8-5.2-2.3-1.4-1.5-2.1-3.4-2.1-5.7s.7-4.2,2.1-5.7c1.4-1.5,3.1-2.3,5.2-2.3s3.6.7,4.8,2.3v-1.8h3.9v15.2h-3.9v-1.9c-1.1,1.5-2.7,2.3-4.8,2.3h0ZM710.6,79.2c1.2,0,2.2-.4,3-1.3s1.2-1.9,1.2-3.2-.4-2.3-1.2-3.2-1.8-1.3-3-1.3-2.2.4-3,1.2c-.8.8-1.2,1.9-1.2,3.2s.4,2.4,1.2,3.2c.8.8,1.8,1.3,3,1.3h0Z"/>
        <path class="cls-3" d="M724.3,65c-.6,0-1.2-.2-1.6-.7s-.7-1-.7-1.7.2-1.2.7-1.6,1-.7,1.6-.7,1.2.2,1.6.7c.4.4.7,1,.7,1.6s-.2,1.2-.7,1.7c-.4.4-1,.7-1.6.7h0ZM722.3,67.2h3.9v15.2h-3.9v-15.2Z"/>
        <path class="cls-3" d="M738.7,66.7c1.9,0,3.3.6,4.3,1.8,1,1.2,1.5,2.8,1.5,4.9v8.9h-3.9v-8.1c0-1.2-.3-2.1-.8-2.8-.5-.7-1.3-1-2.4-1s-1.9.4-2.6,1.2c-.7.8-1,1.9-1,3.2v7.5h-3.9v-15.2h3.9v1.9c1.2-1.6,2.8-2.3,4.8-2.3h0Z"/>
        <path class="cls-3" d="M750.1,65c-.6,0-1.2-.2-1.6-.7-.4-.5-.7-1-.7-1.7s.2-1.2.7-1.6c.4-.4,1-.7,1.6-.7s1.2.2,1.6.7.7,1,.7,1.6-.2,1.2-.7,1.7-1,.7-1.6.7h0ZM748.1,67.2h3.9v15.2h-3.9v-15.2Z"/>
        <path class="cls-3" d="M764.5,66.7c1.9,0,3.3.6,4.3,1.8s1.5,2.8,1.5,4.9v8.9h-3.9v-8.1c0-1.2-.3-2.1-.8-2.8-.5-.7-1.3-1-2.4-1s-1.9.4-2.6,1.2-1,1.9-1,3.2v7.5h-3.9v-15.2h3.9v1.9c1.2-1.6,2.8-2.3,4.8-2.3h0Z"/>
        <path class="cls-3" d="M788.9,67.1v14.6c0,2.1-.7,3.9-2.1,5.2-1.4,1.3-3.2,2-5.5,2-3.3,0-5.7-1.3-7.1-4l3.4-1.2c.8,1.3,2.1,2,3.9,2,1.2,0,2.1-.4,2.7-1.1.6-.7,1-1.7,1-2.9v-1.8c-1.2,1.5-2.7,2.2-4.7,2.2s-3.8-.7-5.2-2.2-2.1-3.3-2.1-5.5.7-4.1,2.1-5.5,3.1-2.2,5.3-2.2,3.5.7,4.7,2.2v-1.8h3.9ZM781,78.6c1.2,0,2.2-.4,2.9-1.2s1.2-1.8,1.2-3-.4-2.2-1.2-3-1.7-1.1-2.9-1.1-2.2.4-3,1.1c-.8.8-1.2,1.8-1.2,3s.4,2.2,1.2,3c.8.8,1.8,1.2,3,1.2h0Z"/>
      </g>
    </g>
  </g>
</svg>