<?xml version="1.0" encoding="UTF-8"?>
<svg id="Layer_2" data-name="Layer 2" xmlns="http://www.w3.org/2000/svg" viewBox="0 0 754.2 80.8">
  <defs>
    <style>
      .cls-1 {
        fill: #d0732b;
      }

      .cls-1, .cls-2, .cls-3, .cls-4, .cls-5 {
        stroke-width: 0px;
      }

      .cls-2 {
        fill: #1e1403;
      }

      .cls-3 {
        fill: #d74a2a;
      }

      .cls-4 {
        fill: #8a2212;
      }

      .cls-5 {
        fill: #fff;
      }
    </style>
  </defs>
  <g id="Layer_1-2" data-name="Layer 1">
    <g>
      <g>
        <g>
          <g>
            <g>
              <rect class="cls-3" y="0" width="80.1" height="80.1"/>
              <path class="cls-5" d="M61.4,16.2v28.1c0,6.3-1.9,11.4-5.6,15.2-3.7,3.8-9,5.7-15.7,5.7s-12-1.9-15.8-5.7c-3.7-3.8-5.6-8.9-5.6-15.2v-28.1h11.5v27.9c0,3.2.8,5.8,2.5,7.7,1.7,2,4.1,3,7.3,3s5.6-1,7.3-3c1.7-2,2.5-4.5,2.5-7.7v-27.9h11.5Z"/>
              <rect class="cls-3" x="88.2" y="0" width="80.1" height="80.1"/>
              <rect class="cls-3" x="176.4" y="0" width="80.1" height="80.1"/>
              <rect class="cls-3" x="264.5" y="0" width="80.1" height="80.1"/>
              <polygon class="cls-5" points="153.8 16 153.8 64.1 142.4 64.1 142.4 36 128.3 55.3 114.2 36 114.2 64.1 102.8 64.1 102.8 16 113.6 16 128.3 37.4 142.9 16 153.8 16"/>
              <path class="cls-5" d="M221.8,53.1c1.3-1.3,2-3,2-5.1s-.7-3.7-2-5c-1.3-1.4-3.1-2-5.4-2s-4,.7-5.3,2c-1.4,1.3-2.1,3-2.1,5.1s.7,3.8,2,5.1c1.4,1.3,3.2,2,5.4,2s4-.7,5.4-2M230.4,36.3c3.2,3.1,4.8,7,4.8,11.7s-1.8,9.1-5.3,12.4c-3.6,3.3-8,4.9-13.4,4.9s-9.8-1.6-13.4-4.9c-3.6-3.3-5.4-7.4-5.4-12.4s1.1-6.6,3.4-10.2l13.6-21.6h12.8l-9.4,14.9c5,.4,9.1,2.1,12.2,5.2"/>
              <path class="cls-5" d="M311.8,38.4c1.3-1.4,1.9-3.1,1.9-4.9s-.6-3.5-1.8-4.9c-1.2-1.4-2.8-2.1-4.6-2.1h-11.6v14.1h11.1c2,0,3.7-.7,5-2.1M320,21.3c3.2,3.5,4.8,7.5,4.8,12s-1.6,8.6-4.8,12.1c-3.2,3.5-7.5,5.3-12.9,5.3h-11.4v13.4h-11.3V16h23.1c5.1,0,9.3,1.8,12.5,5.3"/>
            </g>
            <rect class="cls-3" x="384.9" y="0" width="1" height="80.2"/>
          </g>
          <g>
            <g>
              <rect class="cls-2" x="480" y="30.5" width="7.6" height="49.6" rx="1.5" ry="1.5"/>
              <path class="cls-2" d="M457.1,62.5v16.2c0,.8-.7,1.5-1.5,1.5h-27.5c-.8,0-1.5-.7-1.5-1.5v-46.6c0-.8.7-1.5,1.5-1.5h4.6c.8,0,1.5.7,1.5,1.5v40c0,.3.2.5.5.5h14.3c.3,0,.5-.2.5-.5v-9.5c0-.1,0-.3.1-.4l3-3c.4-.4,1-.4,1.4,0l3,3c0,0,.1.2.1.4Z"/>
              <rect class="cls-1" x="426.5" y="15.3" width="7.6" height="7.6" rx=".5" ry=".5"/>
              <path class="cls-2" d="M480,1.5v19.9c0,.8.7,1.5,1.5,1.5h13.8v55.8c0,.8.7,1.5,1.5,1.5h4.6c.8,0,1.5-.7,1.5-1.5V1.5C502.9.7,502.2,0,501.4,0h-19.9C480.6,0,480,.7,480,1.5ZM487.6,14.8v-6.6c0-.3.2-.5.5-.5h6.6c.3,0,.5.2.5.5v7.1h-7.1c-.3,0-.5-.2-.5-.5Z"/>
              <path class="cls-2" d="M449.4,1.5v19.9c0,.8.7,1.5,1.5,1.5h13.8v55.8c0,.8.7,1.5,1.5,1.5h4.6c.8,0,1.5-.7,1.5-1.5V1.5C472.3.7,471.7,0,470.8,0h-19.9C450.1,0,449.4.7,449.4,1.5ZM457.1,14.8v-6.6c0-.3.2-.5.5-.5h6.6c.3,0,.5.2.5.5v7.1h-7.1c-.3,0-.5-.2-.5-.5Z"/>
              <rect class="cls-1" x="426.5" y="0" width="7.6" height="7.6" rx=".5" ry=".5"/>
              <rect class="cls-1" x="434.2" y="7.6" width="7.6" height="7.6" rx=".5" ry=".5"/>
            </g>
            <g>
              <path class="cls-2" d="M444.4,42.8l4.1,4.1-6.5,6.5c-1.1,1.1-3.1.3-3.1-1.3h0c0-2.5,1-4.8,2.7-6.5l2.7-2.7Z"/>
              <rect class="cls-1" x="446.4" y="39.1" width="5.8" height="5.8" rx="1.1" ry="1.1" transform="translate(102 330.1) rotate(-45)"/>
              <path class="cls-2" d="M459.6,52.1h0c0,1.6-1.9,2.4-3.1,1.3l-6.5-6.5,4.1-4.1,2.7,2.7c1.7,1.7,2.7,4.1,2.7,6.5Z"/>
              <g>
                <path class="cls-2" d="M444.4,41.2l4.1-4.1-6.5-6.5c-1.1-1.1-3.1-.3-3.1,1.3h0c0,2.5,1,4.8,2.7,6.5l2.7,2.7Z"/>
                <path class="cls-2" d="M459.6,31.9h0c0-1.6-1.9-2.4-3.1-1.3l-6.5,6.5,4.1,4.1,2.7-2.7c1.7-1.7,2.7-4.1,2.7-6.5Z"/>
              </g>
            </g>
          </g>
          <path class="cls-2" d="M510.5,1.5v77.2c0,.8.7,1.5,1.5,1.5h4.6c.8,0,1.5-.7,1.5-1.5V22.9h13.8c.8,0,1.5-.7,1.5-1.5V1.5C533.4.7,532.7,0,531.9,0h-19.9c-.8,0-1.5.7-1.5,1.5ZM518.1,15.3v-7.1c0-.3.2-.5.5-.5h6.6c.3,0,.5.2.5.5v6.6c0,.3-.2.5-.5.5h-7.1Z"/>
          <g>
            <rect class="cls-1" x="523.9" y="68.1" width="7.6" height="7.6" rx=".5" ry=".5" transform="translate(103.7 394.2) rotate(-45)"/>
            <rect class="cls-1" x="523.9" y="54.3" width="7.6" height="7.6" rx=".5" ry=".5" transform="translate(113.5 390.2) rotate(-45)"/>
            <circle class="cls-4" cx="527.8" cy="45.2" r="4.5"/>
            <circle class="cls-4" cx="527.8" cy="33.3" r="4.5"/>
          </g>
        </g>
        <g>
          <path class="cls-4" d="M554.3,0l8.1,3.8L570.3,0h1.2c2.4,0,4.1,1.7,4.1,4.1v45.4c0,1.6-1.1,2.7-2.7,2.7s-2.7-1.1-2.7-2.7V7.4c0-1.1-.6-1.4-1.6-1l-3.7,1.9v41.2c0,1.6-1.1,2.7-2.7,2.7s-2.7-1.1-2.7-2.7V8.4l-3.7-1.8c-1-.4-1.6,0-1.6,1v41.9c0,1.6-1.1,2.7-2.7,2.7s-2.7-1.1-2.7-2.7V4.1C548.9,1.7,550.6,0,553,0h1.2Z"/>
          <path class="cls-4" d="M600.6,49.5c0,1.6-1.1,2.7-2.7,2.7s-2.7-1.1-2.7-2.7v-22.6c0-1.1-.7-1.8-1.8-1.8h-1.8c-1.1,0-1.8.7-1.8,1.8v22.6c0,1.6-1.1,2.7-2.7,2.7s-2.7-1.1-2.7-2.7V7.9C584.6,3.2,587.8,0,592.7,0s7.9,3.2,7.9,7.9v41.6ZM589.9,18c0,1.1.7,1.8,1.8,1.8h1.8c1.1,0,1.8-.7,1.8-1.8v-9.9c0-1.6-1.1-2.7-2.7-2.7s-2.7,1.1-2.7,2.7v9.9Z"/>
          <path class="cls-4" d="M622.1,0c1.9,0,3.4,1.5,3.4,3.4v45.4c0,1.9-1.5,3.4-3.4,3.4h-9.4c-1.9,0-3.4-1.5-3.4-3.4V3.4C609.3,1.5,610.8,0,612.7,0h9.4ZM618.3,47.1c1.1,0,1.8-.7,1.8-1.8V6.5c0-1.1-.7-1.8-1.8-1.8h-1.9c-1.1,0-1.8.7-1.8,1.8v38.8c0,1.1.7,1.8,1.8,1.8h1.9Z"/>
          <path class="cls-4" d="M639.7,2.7v41.8c0,1.3,1,2.3,2.3,2.3h3V2.7C645,1.1,646.1,0,647.7,0s2.7,1.1,2.7,2.7v49.5h-12.6c-1.9,0-3.4-1.5-3.4-3.4V2.7C634.3,1.1,635.4,0,637,0s2.7,1.1,2.7,2.7Z"/>
          <path class="cls-4" d="M675.8,0c4.5,0,7.7,3.1,7.7,7.7v13.5c0,1.1-.5,2.2-1.3,2.9l-3.1,2.5,3,2.4c.8.6,1.4,1.8,1.4,2.9v17.6c0,1.6-1.1,2.7-2.7,2.7s-2.7-1.1-2.7-2.7v-5.7c0-1.1-.5-12.2-1.4-12.9l-3.9-2.9v21.5c0,1.6-1.1,2.7-2.7,2.7s-2.7-1.1-2.7-2.7V7.7C667.4,3.1,670.5,0,675.1,0h.7ZM672.8,22.2l1.8,1.3,2.2-2c.8-.7,1.3-2,1.3-3v-10.5c0-1.6-1.1-2.7-2.7-2.7s-2.7,1.1-2.7,2.7v14.2Z"/>
          <path class="cls-4" d="M705.1,0c1.9,0,3.4,1.5,3.4,3.4v45.4c0,1.9-1.5,3.4-3.4,3.4h-9.4c-1.9,0-3.4-1.5-3.4-3.4V3.4C692.4,1.5,693.9,0,695.8,0h9.4ZM701.4,47.1c1.1,0,1.8-.7,1.8-1.8V6.5c0-1.1-.7-1.8-1.8-1.8h-1.9c-1.1,0-1.8.7-1.8,1.8v38.8c0,1.1.7,1.8,1.8,1.8h1.9Z"/>
          <path class="cls-4" d="M730.1,0c1.9,0,3.4,1.5,3.4,3.4v45.4c0,1.9-1.5,3.4-3.4,3.4h-9.4c-1.9,0-3.4-1.5-3.4-3.4V3.4C717.4,1.5,718.9,0,720.8,0h9.4ZM726.4,47.1c1.1,0,1.8-.7,1.8-1.8V6.5c0-1.1-.7-1.8-1.8-1.8h-1.9c-1.1,0-1.8.7-1.8,1.8v38.8c0,1.1.7,1.8,1.8,1.8h1.9Z"/>
          <path class="cls-4" d="M744.1,5.3h-1.7c-1.6,0-2.7-1.1-2.7-2.7S740.8,0,742.4,0h9.1c1.6,0,2.7,1.1,2.7,2.7s-1.1,2.7-2.7,2.7h-2v44.1c0,1.6-1.1,2.7-2.7,2.7s-2.7-1.1-2.7-2.7V5.3Z"/>
        </g>
        <path class="cls-1" d="M656.2,15.5c0-.6.3-1.1.8-1.3,1.3-.5,1.5-1.1,1.5-3.3v-1.5h-1c-.8,0-1.4-.6-1.4-1.4V1.4C656.2.6,656.8,0,657.6,0h3.2c.8,0,1.4.6,1.4,1.4v8.9c0,4.5-1.2,6.7-4.1,7.6s-1.8-.4-1.8-1.3v-1.1Z"/>
      </g>
      <g>
        <path class="cls-2" d="M562.7,62.8v17.8h-2.8v-8h-8.2v8h-2.8v-17.8h2.8v7.5h8.2v-7.5h2.8Z"/>
        <path class="cls-2" d="M568.9,65.1v5.4h6.4v2.2h-6.4v5.5h7.1v2.3h-9.9v-17.8h9.9v2.3h-7.1Z"/>
        <path class="cls-2" d="M587.9,80.6l-4.3-7.1h-2v7.1h-2.8v-17.8h6.1c2,0,3.5.5,4.5,1.5,1,1,1.5,2.3,1.5,3.9s-.4,2.5-1.1,3.4c-.8.9-1.9,1.5-3.3,1.7l4.6,7.2h-3.1ZM581.6,71.4h3.1c2.3,0,3.4-1,3.4-3.1s-.3-1.7-.8-2.3c-.5-.5-1.4-.8-2.6-.8h-3.1v6.2Z"/>
        <path class="cls-2" d="M596.3,62.8v17.8h-2.8v-17.8h2.8Z"/>
        <path class="cls-2" d="M610.9,62.8v2.3h-4.8v15.5h-2.8v-15.5h-4.8v-2.3h12.5Z"/>
        <path class="cls-2" d="M623.3,76.7h-7.3l-1.3,3.9h-3l6.4-17.5h3.2l6.4,17.5h-3l-1.3-3.9ZM622.5,74.5l-2.9-8.3-2.9,8.3h5.8Z"/>
        <path class="cls-2" d="M642.8,64.2c1.4,1,2.3,2.5,2.7,4.3h-3c-.4-1-1-1.7-1.9-2.3-.9-.6-1.9-.9-3.1-.9s-2.1.3-2.9.8-1.5,1.3-2,2.2c-.5,1-.7,2.1-.7,3.4s.2,2.5.7,3.5,1.2,1.7,2.1,2.2c.9.5,1.9.8,3.1.8s2.7-.5,3.7-1.4c1-.9,1.7-2.2,1.9-3.8h-6.4v-2.1h8.7v2.8c-.2,1.3-.7,2.5-1.4,3.6-.7,1.1-1.7,1.9-2.8,2.6-1.2.6-2.5,1-4,1s-3.2-.4-4.5-1.2c-1.3-.8-2.3-1.8-3-3.2-.7-1.4-1.1-2.9-1.1-4.7s.4-3.3,1.1-4.7c.7-1.4,1.7-2.4,3-3.2,1.3-.8,2.8-1.1,4.5-1.1s3.8.5,5.2,1.6Z"/>
        <path class="cls-2" d="M651.5,65.1v5.4h6.4v2.2h-6.4v5.5h7.1v2.3h-9.9v-17.8h9.9v2.3h-7.1Z"/>
        <path class="cls-2" d="M680.2,64.3c1.4,1.1,2.4,2.6,2.9,4.5h-3c-.4-1.1-1.1-1.9-2-2.6-.9-.6-2-.9-3.3-.9s-2,.3-2.8.8c-.8.5-1.5,1.3-1.9,2.2-.5,1-.7,2.1-.7,3.4s.2,2.4.7,3.4c.5,1,1.1,1.7,1.9,2.2.8.5,1.7.8,2.8.8s2.4-.3,3.3-.9c.9-.6,1.5-1.5,2-2.5h3c-.5,1.9-1.4,3.4-2.9,4.5-1.4,1.1-3.2,1.7-5.3,1.7s-3.1-.4-4.4-1.1c-1.3-.8-2.2-1.8-2.9-3.2-.7-1.4-1-2.9-1-4.7s.3-3.3,1-4.7,1.7-2.4,2.9-3.2c1.3-.8,2.7-1.2,4.4-1.2s3.9.6,5.3,1.7Z"/>
        <path class="cls-2" d="M688.7,65.1v5.4h6.4v2.2h-6.4v5.5h7.1v2.3h-9.9v-17.8h9.9v2.3h-7.1Z"/>
        <path class="cls-2" d="M712.6,80.6h-2.8l-8.4-13.1v13.1h-2.8v-17.8h2.8l8.4,13.2v-13.2h2.8v17.8Z"/>
        <path class="cls-2" d="M727.2,62.8v2.3h-4.8v15.5h-2.8v-15.5h-4.8v-2.3h12.5Z"/>
        <path class="cls-2" d="M732,65.1v5.4h6.4v2.2h-6.4v5.5h7.1v2.3h-9.9v-17.8h9.9v2.3h-7.1Z"/>
        <path class="cls-2" d="M751,80.6l-4.3-7.1h-2v7.1h-2.8v-17.8h6.1c2,0,3.5.5,4.5,1.5,1,1,1.5,2.3,1.5,3.9s-.4,2.5-1.1,3.4c-.8.9-1.9,1.5-3.3,1.7l4.6,7.2h-3.1ZM744.7,71.4h3.1c2.3,0,3.4-1,3.4-3.1s-.3-1.7-.8-2.3c-.5-.5-1.4-.8-2.6-.8h-3.1v6.2Z"/>
      </g>
    </g>
  </g>
</svg>