<?xml version="1.0" encoding="UTF-8"?>
<svg id="Layer_2" data-name="Layer 2" xmlns="http://www.w3.org/2000/svg" viewBox="0 0 804.5 80.2">
  <defs>
    <style>
      .cls-1 {
        fill: #f5c450;
      }

      .cls-1, .cls-2, .cls-3, .cls-4, .cls-5, .cls-6, .cls-7 {
        stroke-width: 0px;
      }

      .cls-2 {
        fill: #285065;
      }

      .cls-3 {
        fill: #d74a2a;
      }

      .cls-4 {
        fill: #91cbc8;
      }

      .cls-5 {
        fill: #e06d41;
      }

      .cls-6 {
        fill: #fff;
      }

      .cls-7 {
        fill: #d9395b;
      }
    </style>
  </defs>
  <g id="Layer_1-2" data-name="Layer 1">
    <g>
      <g>
        <g>
          <rect class="cls-3" y="0" width="80.1" height="80.1"/>
          <path class="cls-6" d="M61.4,16.2v28.1c0,6.3-1.9,11.4-5.6,15.2-3.7,3.8-9,5.7-15.7,5.7s-12-1.9-15.8-5.7c-3.7-3.8-5.6-8.9-5.6-15.2v-28.1h11.5v27.9c0,3.2.8,5.8,2.5,7.7,1.7,2,4.1,3,7.3,3s5.6-1,7.3-3c1.7-2,2.5-4.5,2.5-7.7v-27.9h11.5Z"/>
          <rect class="cls-3" x="88.2" y="0" width="80.1" height="80.1"/>
          <rect class="cls-3" x="176.4" y="0" width="80.1" height="80.1"/>
          <rect class="cls-3" x="264.5" y="0" width="80.1" height="80.1"/>
          <polygon class="cls-6" points="153.8 16 153.8 64.1 142.4 64.1 142.4 36 128.3 55.3 114.2 36 114.2 64.1 102.8 64.1 102.8 16 113.6 16 128.3 37.4 142.9 16 153.8 16"/>
          <path class="cls-6" d="M221.8,53.1c1.3-1.3,2-3,2-5.1s-.7-3.7-2-5c-1.3-1.4-3.1-2-5.4-2s-4,.7-5.3,2c-1.4,1.3-2.1,3-2.1,5.1s.7,3.8,2,5.1c1.4,1.3,3.2,2,5.4,2s4-.7,5.4-2M230.4,36.3c3.2,3.1,4.8,7,4.8,11.7s-1.8,9.1-5.3,12.4-8,4.9-13.4,4.9-9.8-1.6-13.4-4.9c-3.6-3.3-5.4-7.4-5.4-12.4s1.1-6.6,3.4-10.2l13.6-21.6h12.8l-9.4,14.9c5,.4,9.1,2.1,12.2,5.2"/>
          <path class="cls-6" d="M311.8,38.4c1.3-1.4,1.9-3.1,1.9-4.9s-.6-3.5-1.8-4.9c-1.2-1.4-2.8-2.1-4.6-2.1h-11.6v14.1h11.1c2,0,3.7-.7,5-2.1M320,21.3c3.2,3.5,4.8,7.5,4.8,12s-1.6,8.6-4.8,12.1c-3.2,3.5-7.5,5.3-12.9,5.3h-11.4v13.4h-11.3V16h23.1c5.1,0,9.3,1.8,12.5,5.3"/>
        </g>
        <rect class="cls-3" x="384.9" width="1" height="80.2"/>
      </g>
      <g>
        <path class="cls-1" d="M446.8,15.3v7.8c-8.1.8-13.8,7.2-14.5,15.3h-8.9c.3-4.4,1.7-8.6,4.1-12.1.9.8,2,1.2,3.3,1.2,2.8,0,5.1-2.3,5.1-5.1s-.4-2.4-1.2-3.2c3.4-2.2,7.5-3.6,12.1-3.9Z"/>
        <path class="cls-1" d="M446.8,57.1v7.8c-13.3-.8-22.6-10.8-23.3-23h8.9c.7,7.9,6.4,14.4,14.4,15.2Z"/>
        <path class="cls-1" d="M473.7,38.3h-8.9c-.7-7.9-6.4-14.4-14.4-15.2v-7.8c13.3.8,22.6,10.8,23.3,23Z"/>
        <path class="cls-7" d="M502.9,16h-19v7.7h18.3c6.3,0,10.4,3,10.4,8.6h0c0,3.7-2,6.5-5.5,7.9v8c8.1-1.6,14.1-7,14.1-15.9h0c0-9.8-7.1-16.2-18.3-16.2M483.9,64.1h8.4V30.9h-8.4v33.2Z"/>
        <path class="cls-4" d="M578.2,16h-7.8v3.1l8.3,10.7,12.9,16.6,4.4,5.7v-13.2l-17.8-22.9ZM570.4,40.6v23.5h8.3v-12.8l-8.3-10.7Z"/>
        <rect class="cls-4" x="604" y="16" width="8.3" height="48.1"/>
        <path class="cls-5" d="M527.1,23.6h35.6v-7.6h-35.6v7.6ZM527.1,36.1v17.6h8.4v-10h27.2v-7.6h-35.6Z"/>
        <circle class="cls-1" cx="473.1" cy="15.5" r="5.1"/>
        <rect class="cls-5" x="544.1" y="56.6" width="18.7" height="7.6"/>
        <g>
          <path class="cls-2" d="M662.3,16v48.1h-3.5V22l-18.8,26.9-18.8-26.9v42.1h-3.5V16h3.4l18.9,27,19-27h3.4Z"/>
          <path class="cls-2" d="M669.2,16h3.5v48.1h-3.5V16Z"/>
          <path class="cls-2" d="M718,16v48.1h-3.3l-31.7-42.1v42.1h-3.5V16h3.2l31.7,42.2V16h3.5Z"/>
          <path class="cls-2" d="M759.3,22.8c4.2,4.5,6.3,10.3,6.3,17.3s-2.1,12.8-6.3,17.3c-4.2,4.5-10.1,6.7-17.5,6.7h-17V16h17c7.5,0,13.3,2.2,17.5,6.8ZM741.8,60.9c6.5,0,11.5-1.9,15.1-5.8,3.6-3.9,5.3-8.9,5.3-15.1s-1.8-10.9-5.4-14.8c-3.6-3.9-8.6-5.9-15.1-5.9h-13.5v41.6h13.5Z"/>
          <path class="cls-2" d="M786.5,65c-5,0-9.4-1.4-13.2-4.2-3.8-2.8-6.3-6.2-7.5-10.2l3.4-1c1.1,3.5,3.3,6.4,6.4,8.7,3.1,2.3,6.8,3.4,11.1,3.4s7.6-1,10.3-3.2c2.7-2.1,4-4.5,4-7.3s-.7-4-2.2-5.4c-1.5-1.4-4.1-2.7-7.8-3.9l-11.9-3.8c-3.5-1.1-6.1-2.5-7.8-4.2s-2.6-3.9-2.6-6.6,1.5-6.1,4.4-8.5c3-2.4,6.6-3.6,11-3.6s8.7,1,11.9,3.1c3.2,2.1,5.6,4.8,7.2,8.2l-3.3,1c-1.3-2.8-3.3-5.1-6.1-6.7-2.8-1.6-6-2.4-9.9-2.4s-6.3.9-8.5,2.6c-2.2,1.8-3.4,3.9-3.4,6.2s.7,3.4,2,4.6c1.3,1.2,3.7,2.3,6.9,3.4l11.5,3.7c4.1,1.3,7.1,2.8,9.1,4.6,1.9,1.8,2.9,4.3,2.9,7.5s-1.7,7-5.1,9.8c-3.4,2.7-7.6,4.1-12.8,4.1h0Z"/>
        </g>
      </g>
    </g>
  </g>
</svg>