<?xml version="1.0" encoding="UTF-8"?>
<svg id="Layer_2" data-name="Layer 2" xmlns="http://www.w3.org/2000/svg" xmlns:xlink="http://www.w3.org/1999/xlink" viewBox="0 0 686.4 94.5">
  <defs>
    <style>
      .cls-1 {
        fill: #d1451e;
      }

      .cls-1, .cls-2, .cls-3, .cls-4, .cls-5, .cls-6, .cls-7, .cls-8, .cls-9, .cls-10, .cls-11, .cls-12, .cls-13, .cls-14, .cls-15 {
        stroke-width: 0px;
      }

      .cls-2 {
        fill: url(#linear-gradient);
      }

      .cls-3 {
        fill: url(#linear-gradient-11);
      }

      .cls-4 {
        fill: url(#linear-gradient-10);
      }

      .cls-5 {
        fill: #d74a2a;
      }

      .cls-6 {
        fill: url(#linear-gradient-4);
      }

      .cls-7 {
        fill: url(#linear-gradient-2);
      }

      .cls-8 {
        fill: url(#linear-gradient-3);
      }

      .cls-9 {
        fill: url(#linear-gradient-8);
      }

      .cls-10 {
        fill: url(#linear-gradient-9);
      }

      .cls-11 {
        fill: url(#linear-gradient-7);
      }

      .cls-12 {
        fill: url(#linear-gradient-5);
      }

      .cls-13 {
        fill: url(#linear-gradient-6);
      }

      .cls-14 {
        fill: #39474f;
      }

      .cls-15 {
        fill: #fff;
      }
    </style>
    <linearGradient id="linear-gradient" x1="361.6" y1="2048.2" x2="539.8" y2="2027.3" gradientTransform="translate(0 2093.2) scale(1 -1)" gradientUnits="userSpaceOnUse">
      <stop offset="0" stop-color="#6cc000"/>
      <stop offset="1" stop-color="#009f00"/>
    </linearGradient>
    <linearGradient id="linear-gradient-2" x1="362.6" y1="2056.8" x2="540.8" y2="2036" xlink:href="#linear-gradient"/>
    <linearGradient id="linear-gradient-3" x1="489.2" y1="2053.5" x2="711.6" y2="2027.5" xlink:href="#linear-gradient"/>
    <linearGradient id="linear-gradient-4" x1="489.9" y1="2059.4" x2="712.3" y2="2033.4" xlink:href="#linear-gradient"/>
    <linearGradient id="linear-gradient-5" x1="490.1" y1="2060.9" x2="712.5" y2="2034.9" xlink:href="#linear-gradient"/>
    <linearGradient id="linear-gradient-6" x1="490.3" y1="2063" x2="712.8" y2="2037" xlink:href="#linear-gradient"/>
    <linearGradient id="linear-gradient-7" x1="490.5" y1="2064.9" x2="713" y2="2038.9" xlink:href="#linear-gradient"/>
    <linearGradient id="linear-gradient-8" x1="445.4" y1="2075.6" x2="667.9" y2="2049.6" xlink:href="#linear-gradient"/>
    <linearGradient id="linear-gradient-9" x1="445.7" y1="2077.7" x2="668.1" y2="2051.7" xlink:href="#linear-gradient"/>
    <linearGradient id="linear-gradient-10" x1="446" y1="2080.3" x2="668.4" y2="2054.3" xlink:href="#linear-gradient"/>
    <linearGradient id="linear-gradient-11" x1="446.3" y1="2083" x2="668.7" y2="2057" xlink:href="#linear-gradient"/>
  </defs>
  <g id="Layer_1-2" data-name="Layer 1">
    <g>
      <g>
        <g>
          <rect class="cls-5" y="14.4" width="80.1" height="80.1"/>
          <path class="cls-15" d="M61.4,30.6v28.1c0,6.3-1.9,11.4-5.6,15.2-3.7,3.8-9,5.7-15.7,5.7s-12-1.9-15.8-5.7c-3.7-3.8-5.6-8.9-5.6-15.2v-28.1h11.5v27.9c0,3.2.8,5.8,2.5,7.7,1.7,2,4.1,3,7.3,3s5.6-1,7.3-3c1.7-2,2.5-4.5,2.5-7.7v-27.9h11.5Z"/>
          <rect class="cls-5" x="88.2" y="14.4" width="80.1" height="80.1"/>
          <rect class="cls-5" x="176.4" y="14.4" width="80.1" height="80.1"/>
          <rect class="cls-5" x="264.5" y="14.4" width="80.1" height="80.1"/>
          <polygon class="cls-15" points="153.8 30.4 153.8 78.5 142.4 78.5 142.4 50.3 128.3 69.6 114.2 50.3 114.2 78.5 102.8 78.5 102.8 30.4 113.6 30.4 128.3 51.8 142.9 30.4 153.8 30.4"/>
          <path class="cls-15" d="M221.8,67.5c1.3-1.3,2-3,2-5.1s-.7-3.7-2-5c-1.3-1.4-3.1-2-5.4-2s-4,.7-5.3,2c-1.4,1.3-2.1,3-2.1,5.1s.7,3.8,2,5.1c1.4,1.3,3.2,2,5.4,2s4-.7,5.4-2M230.4,50.6c3.2,3.1,4.8,7,4.8,11.7s-1.8,9.1-5.3,12.4-8,4.9-13.4,4.9-9.8-1.6-13.4-4.9c-3.6-3.3-5.4-7.4-5.4-12.4s1.1-6.6,3.4-10.2l13.6-21.6h12.8l-9.4,14.9c5,.4,9.1,2.1,12.2,5.2"/>
          <path class="cls-15" d="M311.8,52.7c1.3-1.4,1.9-3.1,1.9-4.9s-.6-3.5-1.8-4.9c-1.2-1.4-2.8-2.1-4.6-2.1h-11.6v14.1h11.1c2,0,3.7-.7,5-2.1M320,35.7c3.2,3.5,4.8,7.5,4.8,12s-1.6,8.6-4.8,12.1c-3.2,3.5-7.5,5.3-12.9,5.3h-11.4v13.4h-11.3V30.4h23.1c5.1,0,9.3,1.8,12.5,5.3"/>
        </g>
        <rect class="cls-1" x="384.9" y="14.4" width="1" height="80.2"/>
      </g>
      <path class="cls-2" d="M505,56.8c-2.8,0-5,2.2-5,5,0,2.3,1.5,4.2,3.7,4.8.4.1.9.2,1.3.2,2.8,0,5-2.2,5-5,0-2.8-2.2-5-5-5ZM505,64.3c-1.4,0-2.5-1.1-2.5-2.5,0-1.4,1.1-2.5,2.5-2.5s2.5,1.1,2.5,2.5c0,1.4-1.1,2.5-2.5,2.5h0Z"/>
      <path class="cls-7" d="M504.1,64.1c-.6-.3-1.1-.7-1.4-1.4-.8-.4-1.8-.2-2.5.4,0,0-.1.1-.2.2l-4.4,4.4h-10.4l7.4-6.7c.8-.7,1.3-1.7,1.3-2.8v-14.8c0-.1,0-.3,0-.4,5.1-2.1,7.6-7.9,5.5-13.1-2.1-5.1-7.9-7.6-13.1-5.5-5.1,2.1-7.6,7.9-5.5,13.1,1,2.5,3,4.5,5.5,5.5,0,.1,0,.3,0,.4v13.1l-20.1,18V30.7c8.1-3.3,12.1-12.6,8.8-20.7-3.3-8.1-12.6-12.1-20.7-8.8-8.1,3.3-12.1,12.6-8.8,20.7,1.6,4,4.8,7.1,8.8,8.8v44l-20.1-18v-13.1c0-.1,0-.3,0-.4,5.1-2.1,7.6-7.9,5.5-13.1-2.1-5.1-7.9-7.6-13.1-5.5-5.1,2.1-7.6,7.9-5.5,13.1,1,2.5,3,4.5,5.5,5.5,0,.1,0,.3,0,.4v14.8c0,1.1.5,2.1,1.3,2.8l7.4,6.7h-10.4l-4.5-4.5c0,0-.1-.1-.2-.2.2-.6.2-1.1.2-1.7-.2-2.7-2.7-4.8-5.4-4.5-2.7.2-4.8,2.7-4.5,5.4.2,2.4,2.1,4.3,4.5,4.5.6,0,1.2,0,1.7-.2,0,0,.1.1.2.2l5.2,5.2c.5.5,1.1.7,1.8.7h17.1l12.1,10.8c.8.7,1.3,1.8,1.3,2.9v3.7c0,2.4-1.9,4.3-4.3,4.3h0,20.6c-2.4,0-4.3-1.9-4.3-4.3v-3.7c0-1.1.5-2.1,1.3-2.9l12.1-10.8h17.1c.7,0,1.3-.3,1.8-.7l5.2-5.2c0,0,.1-.1.2-.2.6-.7.7-1.7.4-2.5ZM490,29.4c2.4,0,4.4,2,4.4,4.4s-2,4.4-4.4,4.4-4.4-2-4.4-4.4c0-2.4,2-4.4,4.4-4.4ZM430.2,29.4c2.4,0,4.4,2,4.4,4.4,0,2.4-2,4.4-4.4,4.4-2.4,0-4.4-2-4.4-4.4,0-2.4,1.9-4.3,4.3-4.4h0ZM416.2,64.1c-1.3.5-2.7,0-3.2-1.4-.5-1.3,0-2.7,1.4-3.2,1.3-.5,2.7,0,3.2,1.4.1.3.2.6.2.9,0,1-.6,1.9-1.5,2.3ZM452.4,15.9c0-4.3,3.5-7.7,7.7-7.7,4.3,0,7.7,3.5,7.7,7.7,0,4.3-3.5,7.7-7.7,7.7-2,0-4-.8-5.4-2.2-1.5-1.5-2.3-3.4-2.3-5.5Z"/>
      <g>
        <path class="cls-14" d="M514.6,78.5h-1.9l3.3-18.7h1.9l-3.3,18.7Z"/>
        <path class="cls-14" d="M533.5,75.8h0l2.8-16.1h1.9l-3.3,18.7h-2.4l-7.7-16.3h0l-2.8,16.3h-1.9l3.3-18.7h2.4l7.7,16.1Z"/>
        <path class="cls-14" d="M552.5,62.6c-.4-.5-.9-1-1.5-1.2-.7-.3-1.5-.5-2.2-.5-.6,0-1.1,0-1.6.2-.5.1-1,.4-1.5.7-.4.3-.8.7-1.1,1.2-.3.5-.4,1.1-.4,1.7,0,.4,0,.9.3,1.3.2.4.4.7.7.9.3.3.7.5,1.1.7.4.2.9.4,1.3.6s1.1.4,1.7.7c.6.3,1.1.6,1.5,1,.5.4.8.8,1.1,1.4.3.6.4,1.2.4,1.8,0,.7-.1,1.4-.3,2-.2.7-.6,1.4-1.1,1.9-.6.6-1.3,1.1-2.1,1.5-1,.4-2.1.6-3.2.6-1.1,0-2.3-.2-3.3-.7-1-.4-1.9-1.1-2.4-2.1l1.7-1.1c.4.7.9,1.2,1.6,1.6.8.4,1.7.7,2.5.6.6,0,1.2,0,1.8-.3.5-.2,1.1-.4,1.5-.8.4-.3.8-.8,1-1.3.3-.5.4-1.1.4-1.6,0-.5,0-.9-.3-1.4-.2-.4-.5-.7-.9-1-.4-.3-.8-.5-1.2-.7-.5-.2-1-.4-1.5-.6-.5-.2-1.1-.4-1.6-.7-.5-.3-.9-.6-1.3-1-.4-.4-.7-.8-.9-1.3-.2-.6-.4-1.2-.4-1.8,0-.8.1-1.5.4-2.2.3-.7.7-1.3,1.3-1.8.6-.5,1.3-.9,2.1-1.2.9-.3,1.9-.5,2.8-.4,1.1,0,2.2.2,3.2.6.8.3,1.5.9,1.9,1.6l-1.6,1.1Z"/>
        <path class="cls-14" d="M561.1,78.5h-1.9l3-17.1h-6.3l.3-1.7h14.5l-.3,1.7h-6.3l-3,17.1Z"/>
        <path class="cls-14" d="M572.4,78.5h-1.9l3.3-18.7h1.9l-3.3,18.7Z"/>
        <path class="cls-14" d="M583.5,78.5h-1.9l3-17.1h-6.3l.3-1.7h14.5l-.3,1.7h-6.3l-3,17.1Z"/>
        <path class="cls-14" d="M600.1,79c-1,0-2-.1-2.9-.5-.7-.3-1.4-.7-1.9-1.3-.5-.5-.9-1.1-1.1-1.8-.2-.7-.3-1.4-.3-2,0-.6,0-1.2.2-1.8l2.1-11.8h1.9l-2,11.5c-.1.5-.2,1.1-.2,1.6,0,.6,0,1.1.2,1.7.3,1.1,1.1,1.9,2.1,2.4.7.3,1.4.4,2.1.4.9,0,1.7-.1,2.5-.5.7-.3,1.3-.8,1.7-1.3.5-.6.9-1.2,1.1-1.9.3-.7.5-1.5.6-2.3l2-11.5h1.9l-2.1,11.8c-.2.8-.4,1.7-.7,2.5-.3.9-.8,1.7-1.4,2.4-.6.8-1.4,1.4-2.3,1.8-1.1.5-2.3.8-3.5.7Z"/>
        <path class="cls-14" d="M617.8,78.5h-1.9l3-17.1h-6.3l.3-1.7h14.5l-.3,1.7h-6.3l-3,17.1Z"/>
        <path class="cls-14" d="M629.4,76.8h10.1l-.3,1.7h-12l3.3-18.7h11.2l-.3,1.7h-9.4l-1.1,6.5h8.9l-.3,1.6h-8.9l-1.3,7.3Z"/>
      </g>
      <g>
        <path class="cls-8" d="M509.8,52.5c1.4.8,3.1,1.2,4.7,1.2,3,0,5.4-1.6,6.5-6.4l.6-2.7h-.1c-1.6,2.6-3.8,3.8-6.2,3.8-3.6,0-5.5-3.1-5.5-6.3,0-6.1,4.5-12.2,11.4-12.2,2,0,4,.5,5.8,1.3l-2.7,14.9c-.7,3.8-1.8,6.4-3.6,8-1.8,1.6-4.2,2-6.3,2s-4.2-.5-5.4-1.3l.9-2.4ZM523.6,33.1c-.9-.4-1.9-.6-3-.6-4.5,0-7.6,4.7-7.6,9.2,0,2,.7,4.3,3.5,4.3s5.3-3.3,6-6.9l1.1-6Z"/>
        <path class="cls-6" d="M529.9,48.4l2.2-11.6c.4-2.4.7-4.7.9-6.4h2.7c-.1,1.3-.3,2.5-.5,3.9h.1c1.2-2.5,3.1-4.3,5.5-4.3.3,0,.6,0,.9,0l-.6,3c-.3,0-.5,0-.8,0-2.7,0-5.1,3.2-5.8,7.4l-1.5,7.9h-3.1Z"/>
        <path class="cls-12" d="M555.2,47.4c-1.8,1-3.9,1.4-6,1.4-4.7,0-6.8-3.2-6.8-7.2s4-11.6,9.8-11.6,5.3,2,5.3,4.6c0,4.7-5.3,6-12,5.9-.1,1.2,0,2.3.4,3.4.7,1.6,2.2,2.4,4,2.4,1.7,0,3.4-.4,4.8-1.3l.4,2.3ZM551.8,32.4c-3,0-5.1,2.9-5.9,5.7,4.8,0,8.6-.6,8.6-3.4s-1.1-2.3-2.8-2.3h0Z"/>
        <path class="cls-13" d="M572.8,47.4c-1.8,1-3.9,1.4-5.9,1.4-4.7,0-6.8-3.2-6.8-7.2s4-11.6,9.8-11.6,5.3,2,5.3,4.6c0,4.7-5.3,6-12,5.9-.1,1.2,0,2.3.4,3.4.7,1.6,2.2,2.4,4,2.4,1.7,0,3.4-.4,4.8-1.3l.4,2.3ZM569.3,32.4c-3,0-5.1,2.9-5.9,5.7,4.8,0,8.6-.6,8.6-3.4,0-1.5-1.1-2.3-2.7-2.3h0Z"/>
        <path class="cls-11" d="M577.4,48.4l2.4-12.8c.4-2,.6-3.8.9-5.2h2.7l-.4,3.6h0c1.6-2.5,4-3.9,6.7-3.9s4.6,1.2,4.6,5c0,1-.1,1.9-.3,2.9l-2,10.5h-3.1l2-10.4c.2-.8.2-1.5.3-2.3,0-1.8-.7-3.2-2.8-3.2s-5.3,2.6-6.1,7.1l-1.6,8.7h-3.1Z"/>
      </g>
      <g>
        <path class="cls-9" d="M618.8,30.9h-6.7v17.5h-5.8v-17.5h-6.8v-5h19.3v5Z"/>
        <path class="cls-10" d="M621.4,25.9h18v4.7h-12.1v3.9h11v4.5h-11v4.3h12.4v5.1h-18.3v-22.5Z"/>
        <path class="cls-4" d="M658,33.9c-.3-2.3-2.1-3.5-4.5-3.5-3.8,0-5.2,3.3-5.2,6.7s1.4,6.7,5.2,6.7,4.3-1.5,4.5-4.1h5.9c-.3,5.8-4.6,9.2-10.3,9.2s-11.2-5.2-11.2-11.7,4.4-11.7,11.2-11.7,10.1,3.1,10.3,8.5h-5.9Z"/>
        <path class="cls-3" d="M666.9,25.9h5.9v8.2h7.7v-8.2h5.9v22.5h-5.9v-9.3h-7.7v9.3h-5.9v-22.5Z"/>
      </g>
    </g>
  </g>
</svg>