<?xml version="1.0" encoding="UTF-8"?>
<svg id="Layer_2" data-name="Layer 2" xmlns="http://www.w3.org/2000/svg" viewBox="0 0 767.6 86">
  <defs>
    <style>
      .cls-1 {
        fill: #a27f53;
      }

      .cls-1, .cls-2, .cls-3, .cls-4 {
        stroke-width: 0px;
      }

      .cls-2 {
        fill: #1b3671;
      }

      .cls-3 {
        fill: #3b3b3c;
      }

      .cls-4 {
        fill: #fff;
      }
    </style>
  </defs>
  <g id="Layer_1-2" data-name="Layer 1">
    <g>
      <g>
        <path class="cls-2" d="M529.8,20.5c-2,0-3.7-.5-5.1-1.6s-2.4-2.4-2.9-3.9l2.6-.8c.4,1.1,1.1,2,2.1,2.7s2.1,1.1,3.5,1.1,2.1-.3,2.9-.9,1.1-1.2,1.1-2-.2-1.1-.6-1.5c-.4-.4-1.2-.8-2.2-1.1l-4.5-1.5c-2.7-.9-4-2.3-4-4.5s.6-2.6,1.7-3.5,2.6-1.5,4.4-1.5,3.4.4,4.7,1.3c1.3.9,2.2,1.9,2.8,3.2l-2.6.8c-.4-.9-1.1-1.5-1.9-2.1-.9-.5-1.8-.8-3-.8s-1.8.2-2.4.7-1,1.1-1,1.7.2,1,.5,1.3c.4.3.9.6,1.7.9l4.4,1.4c1.5.5,2.7,1.1,3.5,1.8s1.2,1.7,1.2,3-.6,2.9-1.9,3.9-3,1.6-5,1.6h0Z"/>
        <path class="cls-2" d="M545.6,20.5c-1.9,0-3.5-.7-4.8-2s-1.9-3-1.9-4.9.6-3.6,1.9-4.9c1.3-1.3,2.9-2,4.8-2s2.9.4,4,1.3,1.8,1.8,2,2.9l-2.5.7c-.2-.6-.6-1.2-1.3-1.7-.7-.5-1.4-.7-2.3-.7s-2.2.4-3,1.3c-.8.9-1.2,1.9-1.2,3.1s.4,2.2,1.2,3.1c.8.9,1.8,1.3,3,1.3s1.6-.2,2.3-.7c.7-.5,1.1-1,1.3-1.7l2.5.7c-.3,1.1-.9,2-2,2.8-1.1.8-2.4,1.3-4,1.3h0Z"/>
        <path class="cls-2" d="M561.3,6.7c1.6,0,2.9.5,3.8,1.5.9,1,1.3,2.4,1.3,4.2v7.7h-2.6v-7.2c0-1.2-.3-2.1-.8-2.7s-1.3-1-2.3-1-2,.4-2.7,1.2c-.7.8-1,1.9-1,3.2v6.5h-2.7V1.1h2.7v7.8c1.1-1.5,2.5-2.3,4.4-2.3h0Z"/>
        <path class="cls-2" d="M575.8,20.5c-1.9,0-3.6-.7-4.8-2s-1.9-2.9-1.9-4.9.6-3.6,1.9-4.9,2.9-2,4.8-2,3.6.6,4.9,2,1.9,2.9,1.9,4.9-.6,3.6-1.9,4.9-2.9,2-4.8,2h0ZM578.8,16.7c.8-.8,1.2-1.9,1.2-3.1s-.4-2.3-1.2-3.2-1.8-1.3-3-1.3-2.2.4-3,1.3c-.8.8-1.2,1.9-1.2,3.2s.4,2.3,1.2,3.1c.8.8,1.8,1.3,3,1.3s2.2-.4,3-1.3Z"/>
        <path class="cls-2" d="M591.2,20.5c-1.9,0-3.6-.7-4.8-2s-1.9-2.9-1.9-4.9.6-3.6,1.9-4.9,2.9-2,4.8-2,3.6.6,4.9,2,1.9,2.9,1.9,4.9-.6,3.6-1.9,4.9-2.9,2-4.8,2h0ZM594.2,16.7c.8-.8,1.2-1.9,1.2-3.1s-.4-2.3-1.2-3.2-1.8-1.3-3-1.3-2.2.4-3,1.3c-.8.8-1.2,1.9-1.2,3.2s.4,2.3,1.2,3.1c.8.8,1.8,1.3,3,1.3s2.2-.4,3-1.3Z"/>
        <path class="cls-2" d="M600.8,1.1h2.7v19h-2.7V1.1Z"/>
        <path class="cls-2" d="M619.3,20.5c-1.9,0-3.6-.7-4.8-2s-1.9-2.9-1.9-4.9.6-3.6,1.9-4.9,2.9-2,4.8-2,3.6.6,4.9,2,1.9,2.9,1.9,4.9-.6,3.6-1.9,4.9-2.9,2-4.8,2h0ZM622.3,16.7c.8-.8,1.2-1.9,1.2-3.1s-.4-2.3-1.2-3.2-1.8-1.3-3-1.3-2.2.4-3,1.3c-.8.8-1.2,1.9-1.2,3.2s.4,2.3,1.2,3.1c.8.8,1.8,1.3,3,1.3s2.2-.4,3-1.3Z"/>
        <path class="cls-2" d="M632.5,7h4.2v2.4h-4.2v10.7h-2.7v-10.7h-2.5v-2.4h2.5v-1.5c0-1.5.4-2.7,1.1-3.5.7-.8,1.8-1.3,3.2-1.3s2,.2,2.7.5l-.6,2.2c-.6-.3-1.1-.4-1.7-.4-1.3,0-1.9.8-1.9,2.5v1.4Z"/>
        <path class="cls-2" d="M537.6,31.9v18.2h-2.7v-8h-9.2v8h-2.8v-18.2h2.8v7.7h9.2v-7.7h2.7Z"/>
        <path class="cls-2" d="M547.1,50.5c-1.9,0-3.6-.7-4.8-2s-1.9-2.9-1.9-4.9.6-3.6,1.9-4.9,2.9-2,4.8-2,3.6.6,4.9,2,1.9,2.9,1.9,4.9-.6,3.6-1.9,4.9-2.9,2-4.8,2h0ZM550.1,46.7c.8-.8,1.2-1.9,1.2-3.1s-.4-2.3-1.2-3.2-1.8-1.3-3-1.3-2.2.4-3,1.3c-.8.8-1.2,1.9-1.2,3.2s.4,2.3,1.2,3.1c.8.8,1.8,1.3,3,1.3s2.2-.4,3-1.3Z"/>
        <path class="cls-2" d="M561.4,50.5c-1.4,0-2.7-.4-3.8-1.2-1.1-.8-1.8-1.7-2.2-2.8l2.4-.7c.2.7.7,1.3,1.4,1.8s1.4.7,2.3.7,1.4-.2,1.9-.5.7-.8.7-1.3-.1-.7-.4-.9-.7-.4-1.3-.6l-3.4-1c-2-.6-3-1.7-3-3.4s.5-1.9,1.4-2.7,2.1-1.1,3.5-1.1,2.5.3,3.5.9,1.7,1.4,2,2.4l-2.4.7c-.3-.5-.7-1-1.2-1.3s-1.2-.5-2-.5-1.2.2-1.6.5c-.4.3-.6.7-.6,1.1s.5,1,1.4,1.3l3.4,1c1.1.3,1.9.7,2.5,1.3.6.5.9,1.3.9,2.3s-.5,2.2-1.5,2.9-2.3,1.2-3.8,1.2h0Z"/>
        <path class="cls-2" d="M576.9,36.7c1.8,0,3.3.6,4.5,2,1.2,1.3,1.8,2.9,1.8,4.9s-.6,3.6-1.8,4.9c-1.2,1.3-2.7,2-4.5,2s-3.5-.8-4.6-2.3v7.4h-2.7v-18.5h2.7v2c1.1-1.5,2.6-2.3,4.6-2.3h0ZM576.4,48c1.2,0,2.2-.4,3-1.3s1.2-1.9,1.2-3.2-.4-2.3-1.2-3.2c-.8-.8-1.8-1.2-3-1.2s-2.2.4-3,1.3c-.8.8-1.2,1.9-1.2,3.2s.4,2.3,1.2,3.2c.8.8,1.8,1.3,3,1.3h0Z"/>
        <path class="cls-2" d="M586.2,34.4c-.3-.3-.5-.7-.5-1.2s.2-.8.5-1.2c.3-.3.7-.5,1.2-.5s.9.2,1.2.5c.3.3.5.7.5,1.2s-.2.9-.5,1.2c-.3.3-.7.5-1.2.5s-.9-.2-1.2-.5ZM586,37h2.6v13.1h-2.6v-13.1Z"/>
        <path class="cls-2" d="M600.1,49.7c-1,.4-1.9.6-2.8.6-1.3,0-2.3-.4-3-1.2s-1-1.9-1-3.3v-6.4h-2.3v-2.4h2.3v-4.4h2.6v4.4h4.1v2.4h-4.1v6.4c0,1.3.6,2,1.8,2s1.1-.1,1.7-.4l.7,2.2Z"/>
        <path class="cls-2" d="M607.5,50.4c-1.8,0-3.3-.7-4.5-2s-1.8-2.9-1.8-4.9.6-3.6,1.8-4.9,2.7-2,4.5-2,3.5.8,4.6,2.3v-2h2.6v13.1h-2.6v-2c-1.1,1.5-2.6,2.3-4.6,2.3h0ZM607.9,48c1.2,0,2.2-.4,3-1.3.8-.8,1.2-1.9,1.2-3.2s-.4-2.3-1.2-3.2c-.8-.8-1.8-1.3-3-1.3s-2.2.4-3,1.2-1.2,1.9-1.2,3.2.4,2.3,1.2,3.2c.8.8,1.8,1.3,3,1.3h0Z"/>
        <path class="cls-2" d="M618.3,31.1h2.7v19h-2.7v-19Z"/>
        <path class="cls-2" d="M624.7,34.4c-.3-.3-.5-.7-.5-1.2s.2-.8.5-1.2c.3-.3.7-.5,1.2-.5s.9.2,1.2.5c.3.3.5.7.5,1.2s-.2.9-.5,1.2c-.3.3-.7.5-1.2.5s-.9-.2-1.2-.5ZM624.5,37h2.6v13.1h-2.6v-13.1Z"/>
        <path class="cls-2" d="M638.6,49.7c-1,.4-1.9.6-2.8.6-1.3,0-2.3-.4-3-1.2s-1-1.9-1-3.3v-6.4h-2.3v-2.4h2.3v-4.4h2.6v4.4h4.1v2.4h-4.1v6.4c0,1.3.6,2,1.8,2s1.1-.1,1.7-.4l.7,2.2Z"/>
        <path class="cls-2" d="M653.4,37l-7.8,18.5h-2.7l2.4-5.8-5.8-12.8h2.9l4.3,9.7,3.9-9.7h2.8Z"/>
        <path class="cls-2" d="M673.4,40.6c1,.4,1.7,1,2.2,1.7.5.8.8,1.7.8,2.7,0,1.5-.5,2.7-1.6,3.7s-2.5,1.4-4.3,1.4h-8.8v-18.2h8.3c1.7,0,3,.4,4.1,1.3,1.1.9,1.6,2,1.6,3.5,0,1.8-.8,3.1-2.3,3.9h0ZM664.5,34.4v5.3h5.7c.9,0,1.5-.3,2.1-.8s.8-1.2.8-1.9c0-.8-.3-1.4-.8-1.9-.6-.5-1.3-.7-2.2-.7h-5.5ZM670.5,47.7c1,0,1.7-.3,2.3-.8s.9-1.2.9-2.1-.3-1.4-.8-2-1.3-.8-2.3-.8h-6.1v5.7h6,0Z"/>
        <path class="cls-2" d="M691.2,37.1v13.1h-2.6v-2c-1,1.5-2.5,2.3-4.4,2.3-1.6,0-2.9-.5-3.8-1.5-.9-1-1.3-2.4-1.3-4.2v-7.7h2.7v7.2c0,1.2.3,2.1.8,2.7s1.3,1,2.3,1,2-.4,2.7-1.2,1-1.9,1-3.2v-6.5h2.6Z"/>
        <path class="cls-2" d="M699.6,50.5c-1.4,0-2.7-.4-3.8-1.2-1.1-.8-1.8-1.7-2.2-2.8l2.4-.7c.2.7.7,1.3,1.4,1.8s1.4.7,2.3.7,1.4-.2,1.9-.5.7-.8.7-1.3-.1-.7-.4-.9-.7-.4-1.3-.6l-3.4-1c-2-.6-3-1.7-3-3.4s.5-1.9,1.4-2.7,2.1-1.1,3.5-1.1,2.5.3,3.5.9,1.7,1.4,2,2.4l-2.4.7c-.3-.5-.7-1-1.2-1.3s-1.2-.5-2-.5-1.2.2-1.6.5c-.4.3-.6.7-.6,1.1s.5,1,1.4,1.3l3.4,1c1.1.3,1.9.7,2.5,1.3.6.5.9,1.3.9,2.3s-.5,2.2-1.5,2.9-2.3,1.2-3.8,1.2h0Z"/>
        <path class="cls-2" d="M708,34.4c-.3-.3-.5-.7-.5-1.2s.2-.8.5-1.2c.3-.3.7-.5,1.2-.5s.9.2,1.2.5c.3.3.5.7.5,1.2s-.2.9-.5,1.2c-.3.3-.7.5-1.2.5s-.9-.2-1.2-.5ZM707.9,37h2.6v13.1h-2.6v-13.1Z"/>
        <path class="cls-2" d="M721.2,36.7c1.6,0,2.9.5,3.8,1.5.9,1,1.3,2.4,1.3,4.2v7.7h-2.6v-7.2c0-1.2-.3-2.1-.8-2.7s-1.3-1-2.3-1-2,.4-2.7,1.2c-.7.8-1,1.9-1,3.2v6.5h-2.7v-13.1h2.7v1.9c1.1-1.5,2.5-2.3,4.4-2.3h0Z"/>
        <path class="cls-2" d="M735.7,50.5c-2,0-3.7-.6-4.9-1.9-1.3-1.3-1.9-2.9-1.9-5s.6-3.6,1.8-4.9,2.8-2,4.7-2,3.6.6,4.8,1.9,1.7,2.8,1.7,4.7,0,.7,0,1.1h-10.4c0,1.1.5,2,1.2,2.7s1.7,1,3,1,3-.7,3.6-2.1l2.4.7c-.5,1-1.2,1.9-2.3,2.6s-2.3,1.1-3.9,1.1h0ZM739.3,42.6c0-1-.5-1.9-1.2-2.6s-1.6-1-2.7-1-2,.3-2.7,1-1.1,1.5-1.2,2.5h7.8Z"/>
        <path class="cls-2" d="M749.4,50.5c-1.4,0-2.7-.4-3.8-1.2-1.1-.8-1.8-1.7-2.2-2.8l2.4-.7c.2.7.7,1.3,1.4,1.8s1.4.7,2.3.7,1.4-.2,1.9-.5.7-.8.7-1.3-.1-.7-.4-.9-.7-.4-1.3-.6l-3.4-1c-2-.6-3-1.7-3-3.4s.5-1.9,1.4-2.7,2.1-1.1,3.5-1.1,2.5.3,3.5.9,1.7,1.4,2,2.4l-2.4.7c-.3-.5-.7-1-1.2-1.3s-1.2-.5-2-.5-1.2.2-1.6.5c-.4.3-.6.7-.6,1.1s.5,1,1.4,1.3l3.4,1c1.1.3,1.9.7,2.5,1.3.6.5.9,1.3.9,2.3s-.5,2.2-1.5,2.9-2.3,1.2-3.8,1.2h0Z"/>
        <path class="cls-2" d="M762.2,50.5c-1.4,0-2.7-.4-3.8-1.2-1.1-.8-1.8-1.7-2.2-2.8l2.4-.7c.2.7.7,1.3,1.4,1.8s1.4.7,2.3.7,1.4-.2,1.9-.5.7-.8.7-1.3-.1-.7-.4-.9-.7-.4-1.3-.6l-3.4-1c-2-.6-3-1.7-3-3.4s.5-1.9,1.4-2.7,2.1-1.1,3.5-1.1,2.5.3,3.5.9,1.7,1.4,2,2.4l-2.4.7c-.3-.5-.7-1-1.2-1.3s-1.2-.5-2-.5-1.2.2-1.6.5c-.4.3-.6.7-.6,1.1s.5,1,1.4,1.3l3.4,1c1.1.3,1.9.7,2.5,1.3.6.5.9,1.3.9,2.3s-.5,2.2-1.5,2.9-2.3,1.2-3.8,1.2h0Z"/>
        <path class="cls-2" d="M535.4,80.1l-1.8-2c-1.6,1.5-3.5,2.3-5.5,2.3-1.5,0-2.8-.5-3.9-1.5-1.1-1-1.6-2.2-1.6-3.8s.3-2,.9-3c.6-.9,1.4-1.7,2.6-2.4-1-1.2-1.5-2.4-1.5-3.5s.5-2.7,1.5-3.6c1-.9,2.3-1.3,3.8-1.3s2.5.4,3.5,1.2,1.5,1.8,1.7,2.9l-2.4.7c-.2-.7-.5-1.3-1-1.7-.5-.4-1.1-.6-1.8-.6s-1.4.2-1.9.7-.7,1-.7,1.8.4,1.6,1.3,2.6l5,5.4c.6-1,1-2.1,1.2-3.1l2.4.7c-.3,1.5-.9,3-1.8,4.3l3.5,3.8h-3.3ZM528.4,78c1.3,0,2.5-.5,3.6-1.6l-4.3-4.7c-1.6.9-2.4,2.1-2.4,3.4s.3,1.5.9,2.1,1.3.9,2.3.9h0Z"/>
        <path class="cls-2" d="M564.8,61.9v18.2h-2.8v-13.3l-6.1,8.7-6.1-8.7v13.3h-2.8v-18.2h2.6l6.2,9.2,6.2-9.2h2.6Z"/>
        <path class="cls-2" d="M573.9,80.4c-1.8,0-3.3-.7-4.5-2s-1.8-2.9-1.8-4.9.6-3.6,1.8-4.9,2.7-2,4.5-2,3.5.8,4.6,2.3v-2h2.6v13.1h-2.6v-2c-1.1,1.5-2.6,2.3-4.6,2.3h0ZM574.3,78c1.2,0,2.2-.4,3-1.3s1.2-1.9,1.2-3.2-.4-2.3-1.2-3.2-1.8-1.3-3-1.3-2.2.4-3,1.2-1.2,1.9-1.2,3.2.4,2.3,1.2,3.2c.8.8,1.8,1.3,3,1.3h0Z"/>
        <path class="cls-2" d="M591.7,66.7c1.6,0,2.9.5,3.8,1.5.9,1,1.3,2.4,1.3,4.2v7.7h-2.6v-7.2c0-1.2-.3-2.1-.8-2.7s-1.3-1-2.3-1-2,.4-2.7,1.2c-.7.8-1,1.9-1,3.2v6.5h-2.7v-13.1h2.7v1.9c1.1-1.5,2.5-2.3,4.4-2.3h0Z"/>
        <path class="cls-2" d="M605.8,80.4c-1.8,0-3.3-.7-4.5-2s-1.8-2.9-1.8-4.9.6-3.6,1.8-4.9,2.7-2,4.5-2,3.5.8,4.6,2.3v-2h2.6v13.1h-2.6v-2c-1.1,1.5-2.6,2.3-4.6,2.3h0ZM606.2,78c1.2,0,2.2-.4,3-1.3s1.2-1.9,1.2-3.2-.4-2.3-1.2-3.2-1.8-1.3-3-1.3-2.2.4-3,1.2-1.2,1.9-1.2,3.2.4,2.3,1.2,3.2c.8.8,1.8,1.3,3,1.3h0Z"/>
        <path class="cls-2" d="M629.3,67.1v12.6c0,1.8-.6,3.3-1.8,4.5-1.2,1.2-2.7,1.8-4.7,1.8-2.8,0-4.9-1.1-6.1-3.4l2.3-.9c.8,1.3,2,2,3.8,2,1.2,0,2.1-.4,2.7-1.1.7-.7,1-1.7,1-2.8v-1.9c-1.1,1.5-2.6,2.2-4.5,2.2s-3.4-.6-4.6-1.9-1.8-2.9-1.8-4.7.6-3.5,1.8-4.8c1.2-1.2,2.7-1.9,4.6-1.9s3.4.7,4.5,2.2v-1.8h2.7ZM622.5,77.6c1.2,0,2.2-.4,3-1.2s1.2-1.8,1.2-3-.4-2.2-1.2-3-1.8-1.2-3-1.2-2.2.4-3,1.2c-.8.8-1.2,1.8-1.2,3s.4,2.2,1.2,3c.8.8,1.8,1.2,3,1.2h0Z"/>
        <path class="cls-2" d="M638.8,80.5c-2,0-3.7-.6-4.9-1.9-1.3-1.3-1.9-2.9-1.9-5s.6-3.6,1.8-4.9,2.8-2,4.7-2,3.6.6,4.8,1.9,1.7,2.8,1.7,4.7,0,.7,0,1.1h-10.4c0,1.1.5,2,1.2,2.7s1.7,1,3,1,3-.7,3.6-2.1l2.4.7c-.5,1-1.2,1.9-2.3,2.6s-2.3,1.1-3.9,1.1h0ZM642.5,72.6c0-1-.5-1.9-1.2-2.6s-1.6-1-2.7-1-2,.3-2.7,1-1.1,1.5-1.2,2.5h7.8Z"/>
        <path class="cls-2" d="M662.8,66.7c1.5,0,2.7.5,3.6,1.5s1.4,2.4,1.4,4.1v7.8h-2.7v-7.3c0-1.1-.2-2-.7-2.6s-1.2-.9-2.2-.9-1.8.4-2.3,1.1-.9,1.7-.9,2.9v6.8h-2.6v-7.3c0-1.1-.2-2-.7-2.6-.5-.6-1.2-.9-2.1-.9s-1.8.4-2.4,1.1c-.6.8-.9,1.8-.9,3.1v6.6h-2.7v-13.1h2.7v1.8c1-1.4,2.3-2.2,4-2.2s3.2.7,3.9,2.2c1-1.5,2.5-2.2,4.5-2.2h0Z"/>
        <path class="cls-2" d="M677.3,80.5c-2,0-3.7-.6-4.9-1.9-1.3-1.3-1.9-2.9-1.9-5s.6-3.6,1.8-4.9,2.8-2,4.7-2,3.6.6,4.8,1.9,1.7,2.8,1.7,4.7,0,.7,0,1.1h-10.4c0,1.1.5,2,1.2,2.7s1.7,1,3,1,3-.7,3.6-2.1l2.4.7c-.5,1-1.2,1.9-2.3,2.6s-2.3,1.1-3.9,1.1h0ZM680.9,72.6c0-1-.5-1.9-1.2-2.6s-1.6-1-2.7-1-2,.3-2.7,1-1.1,1.5-1.2,2.5h7.8Z"/>
        <path class="cls-2" d="M693.3,66.7c1.6,0,2.9.5,3.8,1.5.9,1,1.3,2.4,1.3,4.2v7.7h-2.6v-7.2c0-1.2-.3-2.1-.8-2.7s-1.3-1-2.3-1-2,.4-2.7,1.2c-.7.8-1,1.9-1,3.2v6.5h-2.7v-13.1h2.7v1.9c1.1-1.5,2.5-2.3,4.4-2.3h0Z"/>
        <path class="cls-2" d="M709.6,79.7c-1,.4-1.9.6-2.8.6-1.3,0-2.3-.4-3-1.2s-1-1.9-1-3.3v-6.4h-2.3v-2.4h2.3v-4.4h2.6v4.4h4.1v2.4h-4.1v6.4c0,1.3.6,2,1.8,2s1.1-.1,1.7-.4l.7,2.2Z"/>
      </g>
      <path class="cls-1" d="M453.1,57.9h-2.5v-5.8h2.6c1.4,0,4.3,0,4.3,2.9,0,2.9-2.9,2.9-4.5,2.9ZM453.6,62.7h-2.9v6.4h3.3c2.3,0,5.6,0,5.6-3.1s-3.1-3.2-5.9-3.2ZM506.6,0v80s0,0,0,0h-80s0,0,0,0V0s0,0,0,0h80s0,0,0,0ZM443.9,21.4c0,5.6,4.8,7.5,8.6,8.8,3.5,1.2,5,1.8,5,3.5s-3.1,2.4-4,2.4c-3.9,0-6.9-1.9-9.2-3.3v5.7c.7.5,4.9,2.6,9.4,2.6s10.4-1.7,10.4-7.8-4-7.1-7.3-8.3c-3.8-1.4-6.4-2.3-6.4-3.9s.1-2.2,4-2.2,6.7,1.7,8.5,2.6v-5.4c-4.2-1.8-6.9-2.1-9-2.1-6.6,0-10,3.5-10,7.5ZM466.2,66.1c0-5.1-4.2-6.4-5.6-6.8,2.4-1.2,3.6-3.4,3.6-5.3s-1.6-5.1-5-6.1c-1.8-.5-3.3-.5-5.2-.5h-10.1v26.5h12.2c3,0,4.6-.2,6.4-1.2,2.9-1.6,3.8-4.2,3.8-6.5ZM499.5,47.4h-5.8l-8.5,10.1-8.4-10.1h-5.9v26.5h6.7v-16.2l7.1,8.5h1l7.1-8.5v16.2h6.7v-26.5h0ZM499.5,14.2h-6.6v10.6h-15.2v-10.6h-6.7v26.5h6.7v-10.7h15.2v10.7h6.6V14.2Z"/>
      <g>
        <g>
          <rect class="cls-3" y="0" width="80.1" height="80.1"/>
          <path class="cls-4" d="M61.4,16.2v28.1c0,6.3-1.9,11.4-5.6,15.2-3.7,3.8-9,5.7-15.7,5.7s-12-1.9-15.8-5.7c-3.7-3.8-5.6-8.9-5.6-15.2v-28.1h11.5v27.9c0,3.2.8,5.8,2.5,7.7,1.7,2,4.1,3,7.3,3s5.6-1,7.3-3c1.7-2,2.5-4.5,2.5-7.7v-27.9h11.5Z"/>
          <rect class="cls-3" x="88.2" y="0" width="80.1" height="80.1"/>
          <rect class="cls-3" x="176.4" y="0" width="80.1" height="80.1"/>
          <rect class="cls-3" x="264.5" y="0" width="80.1" height="80.1"/>
          <polygon class="cls-4" points="153.8 16 153.8 64.1 142.4 64.1 142.4 36 128.3 55.3 114.2 36 114.2 64.1 102.8 64.1 102.8 16 113.6 16 128.3 37.4 142.9 16 153.8 16"/>
          <path class="cls-4" d="M221.8,53.1c1.3-1.3,2-3,2-5.1s-.7-3.7-2-5c-1.3-1.4-3.1-2-5.4-2s-4,.7-5.3,2c-1.4,1.3-2.1,3-2.1,5.1s.7,3.8,2,5.1c1.4,1.3,3.2,2,5.4,2s4-.7,5.4-2M230.4,36.3c3.2,3.1,4.8,7,4.8,11.7s-1.8,9.1-5.3,12.4-8,4.9-13.4,4.9-9.8-1.6-13.4-4.9c-3.6-3.3-5.4-7.4-5.4-12.4s1.1-6.6,3.4-10.2l13.6-21.6h12.8l-9.4,14.9c5,.4,9.1,2.1,12.2,5.2"/>
          <path class="cls-4" d="M311.8,38.4c1.3-1.4,1.9-3.1,1.9-4.9s-.6-3.5-1.8-4.9c-1.2-1.4-2.8-2.1-4.6-2.1h-11.6v14.1h11.1c2,0,3.7-.7,5-2.1M320,21.3c3.2,3.5,4.8,7.5,4.8,12s-1.6,8.6-4.8,12.1c-3.2,3.5-7.5,5.3-12.9,5.3h-11.4v13.4h-11.3V16h23.1c5.1,0,9.3,1.8,12.5,5.3"/>
        </g>
        <rect class="cls-3" x="384.9" width="1" height="80.2"/>
      </g>
    </g>
  </g>
</svg>