<?xml version="1.0" encoding="UTF-8"?>
<svg id="Layer_2" data-name="Layer 2" xmlns="http://www.w3.org/2000/svg" viewBox="0 0 890.2 80.2">
  <defs>
    <style>
      .cls-1 {
        fill: #ea6e47;
      }

      .cls-1, .cls-2, .cls-3, .cls-4, .cls-5, .cls-6 {
        stroke-width: 0px;
      }

      .cls-2 {
        fill: #d1451e;
      }

      .cls-3 {
        fill: #263488;
      }

      .cls-4 {
        fill: #102ca0;
      }

      .cls-5 {
        fill: #d74a2a;
      }

      .cls-6 {
        fill: #fff;
      }
    </style>
  </defs>
  <g id="Layer_1-2" data-name="Layer 1">
    <g>
      <g>
        <g>
          <rect class="cls-5" y="0" width="80.1" height="80.1"/>
          <path class="cls-6" d="M61.4,16.2v28.1c0,6.3-1.9,11.4-5.6,15.2-3.7,3.8-9,5.7-15.7,5.7s-12-1.9-15.8-5.7c-3.7-3.8-5.6-8.9-5.6-15.2v-28.1h11.5v27.9c0,3.2.8,5.8,2.5,7.7,1.7,2,4.1,3,7.3,3s5.6-1,7.3-3c1.7-2,2.5-4.5,2.5-7.7v-27.9h11.5Z"/>
          <rect class="cls-5" x="88.2" y="0" width="80.1" height="80.1"/>
          <rect class="cls-5" x="176.4" y="0" width="80.1" height="80.1"/>
          <rect class="cls-5" x="264.5" y="0" width="80.1" height="80.1"/>
          <polygon class="cls-6" points="153.8 16 153.8 64.1 142.4 64.1 142.4 36 128.3 55.3 114.2 36 114.2 64.1 102.8 64.1 102.8 16 113.6 16 128.3 37.4 142.9 16 153.8 16"/>
          <path class="cls-6" d="M221.8,53.1c1.3-1.3,2-3,2-5.1s-.7-3.7-2-5c-1.3-1.4-3.1-2-5.4-2s-4,.7-5.3,2c-1.4,1.3-2.1,3-2.1,5.1s.7,3.8,2,5.1c1.4,1.3,3.2,2,5.4,2s4-.7,5.4-2M230.4,36.3c3.2,3.1,4.8,7,4.8,11.7s-1.8,9.1-5.3,12.4-8,4.9-13.4,4.9-9.8-1.6-13.4-4.9c-3.6-3.3-5.4-7.4-5.4-12.4s1.1-6.6,3.4-10.2l13.6-21.6h12.8l-9.4,14.9c5,.4,9.1,2.1,12.2,5.2"/>
          <path class="cls-6" d="M311.8,38.4c1.3-1.4,1.9-3.1,1.9-4.9s-.6-3.5-1.8-4.9c-1.2-1.4-2.8-2.1-4.6-2.1h-11.6v14.1h11.1c2,0,3.7-.7,5-2.1M320,21.3c3.2,3.5,4.8,7.5,4.8,12s-1.6,8.6-4.8,12.1c-3.2,3.5-7.5,5.3-12.9,5.3h-11.4v13.4h-11.3V16h23.1c5.1,0,9.3,1.8,12.5,5.3"/>
        </g>
        <rect class="cls-2" x="384.9" width="1" height="80.2"/>
      </g>
      <g>
        <g>
          <path class="cls-4" d="M446.8,46.7l10-23.4,10.1,23.4,3.8,9.1,5.9,14.1h10.9l-25.8-58.9h-9.5l-25.8,58.9h10.5l6-14.1"/>
          <path class="cls-4" d="M559.4,11.4h39.1v9.2h-28.8v19.8h28.8v9.2h-28.8v11.2h28.8v9.2h-39.1V11.4Z"/>
          <path class="cls-4" d="M607.1,11.4h15.8c7.4,0,13.1,2.2,16.9,5.9,3.2,3.4,5,7.9,4.8,12.6v.2c0,9.6-5.8,15.4-14,17.7l15.8,22.1h-12.1l-14.4-20.3h-12.9v-9.1h15c7.4,0,12-3.8,12-9.8v-.2c0-6.3-4.5-9.7-12.1-9.7h-15"/>
          <polyline class="cls-3" points="630.7 47.8 646.5 69.9 634.4 69.9 620 49.6"/>
          <path class="cls-1" d="M542.5,54c-1.8.4-3.5,1.3-4.8,2.6-2,2.1-2.4,5.3-1.1,7.9-2.6,1.6-5.4,2.8-8.3,3.5-1-3-3.9-4.9-7-4.8-2.7,0-4.7,1.6-6.2,4.8-3-.6-5.8-1.8-8.3-3.4.5-1.1.7-2.2.7-3.4-.1-3.8-3.3-6.8-7.1-6.7-.2,0-.4,0-.6,0-.7.1-1.4.3-2.1.6-.3,0-.4,0-.5-.2-1.5-2.4-2.6-5-3.3-7.7-.1-.4.2-.4.4-.5,2.4-.9,4.1-3,4.4-5.5.5-3.2-1.4-6.3-4.5-7.4l-.4-.2c.7-3,1.8-5.8,3.4-8.4,2.4,1.3,5.3,1.1,7.5-.5,0,0,.1-.1.2-.2.2-.2.4-.3.6-.5,2.1-2.2,2.6-5.5,1.1-8.2,1-1,6.1-3.2,8.3-3.6.6,2,2.1,3.6,4,4.5.3,0,.5.2.8.2h.6c.5.2,1,.2,1.5.2.4,0,.7,0,1.1,0h.1c2.6-.5,4.6-2.4,5.3-4.9,3,.7,5.8,1.9,8.4,3.5-1.5,2.8-1,6.2,1.3,8.4.3.3.7.6,1.2,1,3.7,2.4,8.7,1.3,11.1-2.4,2.4-3.7,1.3-8.7-2.4-11.1-2.2-1.4-5-1.7-7.4-.7h0c-.2.1-.4.2-.6.3h0c-3,1.3-6.5.6-8.8-1.7-.7-.7-1.3-1.6-1.7-2.5h0c0-.2-.1-.4-.2-.6h0c0-.2-.1-.3-.2-.5-.1-.3-.3-.6-.5-.9,0-.2-.2-.3-.3-.5-.2-.2-.3-.5-.5-.7-.1-.1-.2-.3-.4-.4-.3-.3-.6-.6-1-.8-.1,0-.2-.2-.4-.2-.3-.2-.6-.3-.9-.5-.2,0-.3-.1-.5-.2-.3-.1-.6-.2-.9-.3h-.5c-.5-.2-.9-.3-1.4-.3h0c-.5,0-.9,0-1.4.1h-.5c-.3.2-.6.3-.9.4-.2,0-.3.1-.5.2-.3.1-.6.3-.9.5-.1,0-.2.1-.4.2-.3.2-.7.5-1,.8-.1.1-.2.2-.4.4s-.4.4-.5.7-.2.3-.3.5c-.2.3-.3.6-.5.9,0,.1-.1.2-.2.4s0,0,0,0c0,.2-.1.4-.2.6h0c-.4,1-1.1,1.9-1.8,2.6-2.3,2.3-5.7,3-8.7,1.8h0c-.2,0-.4-.2-.6-.3h0c-.5-.2-.9-.3-1.4-.4-.1,0-.2,0-.3,0-.4,0-.7,0-1.1-.1h-.4c-.5,0-.9,0-1.4.1h0c-.4,0-.9.2-1.3.4l-.4.2c-.3.1-.6.3-.9.5l-.4.2c-.4.3-.8.6-1.1.9h0c-.3.3-.7.7-.9,1.1,0,.1-.2.2-.2.4-.2.3-.3.6-.5.9,0,.1-.1.2-.2.4-.3.9-.5,1.8-.5,2.7v.4c0,.4,0,.7.1,1.1v.3c.1.5.2.9.4,1.4h0c0,.2.2.4.3.6h0c1.7,4-.2,8.7-4.2,10.4h0c-.2,0-.4.2-.6.2h0l-.4.2c-.3.1-.6.3-.8.5-.2,0-.3.2-.5.3l-.7.5c-.1.1-.3.2-.4.4-.3.3-.6.6-.8,1,0,.1-.2.3-.2.4-.2.3-.3.6-.5.9,0,.2-.1.3-.2.5-.1.3-.2.6-.3.9,0,.2,0,.3-.1.5,0,.5-.1.9-.1,1.4h0c0,.5,0,1,.1,1.4,0,.2,0,.3.1.5,0,.3.2.6.3.9,0,.2.1.3.2.5.1.3.3.6.5.9l.2.4c.2.3.5.7.8,1,.1.1.3.2.4.4.2.2.4.4.7.5l.5.3c.3.2.6.3.8.5s.2.1.4.2h0c.2,0,.4.1.6.2h0c1,.4,1.8,1,2.5,1.7,2.3,2.3,3,5.7,1.8,8.7h0c0,.2-.2.4-.3.6h0c-.2.5-.4,1-.5,1.6v.3c0,.4,0,.7-.1,1.1v.4c0,.9.2,1.9.5,2.7,0,.1.1.3.2.4.1.3.3.6.5.9,0,.1.1.2.2.4.3.4.6.8.9,1.1h0c.3.3.7.6,1.1.9l.4.2c.3.2.6.3.9.5l.4.2c.4.2.9.3,1.3.4h0c.5,0,.9.1,1.4.1h.4c.4,0,.7,0,1.1,0h.3c.5,0,.9-.2,1.4-.4h0c.2-.1.4-.2.6-.3h0c3-1.2,6.4-.6,8.7,1.7.7.7,1.3,1.6,1.7,2.5h0c0,.2.1.4.2.5s0,0,0,0c0,0,.1.2.2.4.1.3.3.6.5.9,0,.2.2.3.3.5s.4.5.5.7l.4.4c.3.3.6.6,1,.8l.4.2c.3.2.6.3.9.5l.5.2c.3.1.6.2.9.3s.3,0,.5.1c.5,0,.9.1,1.4.1h0c.5,0,1,0,1.4-.1.2,0,.3,0,.5-.1s.6-.2.9-.3l.5-.2c.3-.1.6-.3.9-.5.1,0,.3-.1.4-.2.3-.2.7-.5,1-.8l.4-.4c.2-.2.4-.4.5-.7.1-.1.2-.3.3-.5.2-.3.3-.6.5-.9,0-.1.1-.2.2-.4h0c0-.2.1-.4.2-.5h0c1.7-4,6.3-6,10.4-4.3h0c.2,0,.4.2.6.3h0c4.1,1.7,8.8-.2,10.5-4.3,1.7-4.1-.2-8.8-4.3-10.5-1.3-.5-2.7-.7-4-.6h.3Z"/>
          <g id="BzPvMW">
            <path class="cls-4" d="M521.6,57.9c-.9,0-1.9,0-2.8-.2h-.3v-.3c0-.7,0-1.3-.3-1.9-.5-1-1.3-1.8-2.4-2.1-1-.3-2.1-.2-3.1.3-.3.2-.7.5-1,.8-.2.2-.5.3-.8,0,0,0,0,0,0,0-1.4-1.1-2.6-2.3-3.6-3.7-.2-.2-.2-.5,0-.7,0,0,0,0,0,0,1.6-1.4,1.7-3.9.2-5.4-.7-.8-1.8-1.3-2.9-1.2h-.7v-.3c-.3-1.9-.3-3.8,0-5.6v-.3h.3c2.1.3,4.1-1.2,4.3-3.4.2-1.3-.4-2.7-1.4-3.5l-.2-.2v-.2c1.2-1.6,2.5-3,4.1-4.1h.2c0-.1.2,0,.2,0,1.3,1.7,3.8,2,5.5.6,1.1-.8,1.6-2.2,1.4-3.5v-.3h.3c1.9-.3,3.8-.3,5.7,0h.3v.3c-.2,2.1,1.3,4.1,3.4,4.3,1.3.2,2.7-.4,3.5-1.5l.2-.2.2.2c1.5,1.1,2.9,2.4,4,4l-.5.4c-1-1.4-2.2-2.6-3.6-3.7-1.6,1.9-4.5,2.2-6.4.6-1.1-.9-1.7-2.3-1.6-3.8-1.6-.2-3.2-.2-4.8,0,.1,2.5-1.8,4.6-4.3,4.8-1.3,0-2.6-.5-3.6-1.5-1.3,1-2.4,2.1-3.4,3.5,1.4,1.3,1.9,3.3,1.2,5.1-.7,1.8-2.4,2.9-4.3,2.8h0c-.2,1.6-.2,3.2,0,4.9h.2c2.1,0,3.9,1.3,4.4,3.4.4,1.6,0,3.3-1.3,4.4h0c1,1.3,2.2,2.4,3.5,3.4.3-.3.7-.6,1.1-.8,2.2-1.2,4.9-.5,6.2,1.7,0,.1.1.3.2.4.3.6.4,1.3.4,1.9,1.6.2,3.3.2,4.9,0,.2-2.2,1-3.5,2.6-4.2,1.8-.9,3.9-.5,5.2.9,1.4-1,2.6-2.2,3.6-3.6l.5.4c-1.1,1.5-2.4,2.9-4,4l-.2.2-.2-.2c-1.1-1.4-3.1-1.8-4.7-1-1.4.6-2.1,1.8-2.2,3.8v.2h-.2c-1,.2-1.9.3-2.9.3Z"/>
          </g>
        </g>
        <g>
          <path class="cls-4" d="M673.5,22.8h-6.6l-1.3,3.5h-2.2l5.5-14.2h2.7l5.5,14.2h-2.2l-1.3-3.5ZM672.8,20.9l-2.6-6.7-2.6,6.7h5.1Z"/>
          <path class="cls-4" d="M684.2,15.8c1.4,0,2.6.5,3.5,1.5.9,1,1.4,2.3,1.4,3.8s-.5,2.8-1.4,3.8c-.9,1-2.1,1.5-3.5,1.5s-2.7-.6-3.6-1.8v5.8h-2.1v-14.5h2.1v1.5c.8-1.2,2-1.8,3.6-1.8h0ZM683.9,24.6c.9,0,1.7-.3,2.3-1s.9-1.5.9-2.5-.3-1.8-.9-2.5c-.6-.6-1.4-1-2.3-1s-1.7.3-2.3,1c-.6.7-1,1.5-1,2.5s.3,1.8,1,2.5c.6.7,1.4,1,2.3,1h0Z"/>
          <path class="cls-4" d="M697,15.8c1.4,0,2.6.5,3.5,1.5.9,1,1.4,2.3,1.4,3.8s-.5,2.8-1.4,3.8c-.9,1-2.1,1.5-3.5,1.5s-2.7-.6-3.6-1.8v5.8h-2.1v-14.5h2.1v1.5c.8-1.2,2-1.8,3.6-1.8h0ZM696.6,24.6c.9,0,1.7-.3,2.3-1s.9-1.5.9-2.5-.3-1.8-.9-2.5c-.6-.6-1.4-1-2.3-1s-1.7.3-2.3,1c-.6.7-1,1.5-1,2.5s.3,1.8,1,2.5c.6.7,1.4,1,2.3,1h0Z"/>
          <path class="cls-4" d="M704.1,11.4h2.1v14.8h-2.1v-14.8Z"/>
          <path class="cls-4" d="M709.1,14c-.3-.2-.4-.6-.4-.9s.1-.7.4-.9c.3-.3.6-.4.9-.4s.7.1.9.4c.3.3.4.6.4.9s-.1.7-.4.9c-.3.2-.6.4-.9.4s-.7-.1-.9-.4ZM709,16.1h2.1v10.2h-2.1v-10.2Z"/>
          <path class="cls-4" d="M718.6,26.6c-1.6,0-2.9-.5-3.8-1.5-1-1-1.5-2.3-1.5-3.9s.5-2.8,1.4-3.8,2.2-1.5,3.7-1.5,2.8.5,3.7,1.5,1.4,2.2,1.4,3.7,0,.5,0,.9h-8.1c0,.9.4,1.6,1,2.1s1.4.8,2.3.8,2.3-.5,2.8-1.6l1.9.6c-.4.8-.9,1.5-1.8,2.1s-1.8.9-3,.9h0ZM721.4,20.4c0-.8-.4-1.5-.9-2s-1.2-.8-2.1-.8-1.6.3-2.1.8-.9,1.2-1,2h6.1Z"/>
          <path class="cls-4" d="M735.5,11.4v14.8h-2.1v-1.5c-.8,1.2-2,1.8-3.6,1.8-1.4,0-2.6-.5-3.5-1.5s-1.4-2.3-1.4-3.8.5-2.8,1.4-3.8,2.1-1.5,3.5-1.5,2.8.6,3.6,1.8v-6.2h2.1ZM730.2,24.6c.9,0,1.7-.3,2.3-1s1-1.5,1-2.5-.3-1.8-1-2.5-1.4-1-2.3-1-1.7.3-2.3,1-.9,1.5-.9,2.5.3,1.8.9,2.5c.6.7,1.4,1,2.3,1h0Z"/>
          <path class="cls-4" d="M749.9,26.6c-2.1,0-3.8-.7-5.2-2.1-1.4-1.4-2.1-3.2-2.1-5.3s.7-3.9,2.1-5.3c1.4-1.4,3.1-2.1,5.1-2.1s3.1.4,4.3,1.3,2,1.9,2.3,3.2l-2.1.5c-.3-.8-.9-1.5-1.7-2.1s-1.8-.8-2.8-.8-2.7.5-3.6,1.5c-.9,1-1.4,2.3-1.4,3.7s.5,2.7,1.4,3.8c.9,1,2.1,1.6,3.6,1.6s2-.3,2.8-.8,1.4-1.2,1.6-2.1l2.1.5c-.4,1.2-1.2,2.3-2.3,3.1-1.2.9-2.6,1.3-4.2,1.3h0Z"/>
          <path class="cls-4" d="M764.2,15.8c1.3,0,2.2.4,2.9,1.2.7.8,1,1.9,1,3.3v6h-2.1v-5.6c0-.9-.2-1.6-.6-2.1s-1-.8-1.8-.8-1.6.3-2.1.9c-.5.6-.8,1.4-.8,2.5v5.1h-2.1v-14.8h2.1v6.1c.8-1.2,2-1.8,3.4-1.8h0Z"/>
          <path class="cls-4" d="M775.6,26.6c-1.6,0-2.9-.5-3.8-1.5-1-1-1.5-2.3-1.5-3.9s.5-2.8,1.4-3.8,2.2-1.5,3.7-1.5,2.8.5,3.7,1.5c.9,1,1.4,2.2,1.4,3.7s0,.5,0,.9h-8.1c0,.9.4,1.6,1,2.1s1.4.8,2.3.8,2.3-.5,2.8-1.6l1.9.6c-.4.8-.9,1.5-1.8,2.1s-1.8.9-3,.9h0ZM778.4,20.4c0-.8-.4-1.5-.9-2s-1.2-.8-2.1-.8-1.6.3-2.1.8-.9,1.2-1,2h6.1Z"/>
          <path class="cls-4" d="M794.3,15.8c1.2,0,2.1.4,2.8,1.2s1.1,1.8,1.1,3.2v6.1h-2.1v-5.7c0-.9-.2-1.6-.6-2.1s-.9-.7-1.7-.7-1.4.3-1.8.9-.7,1.3-.7,2.3v5.3h-2.1v-5.7c0-.9-.2-1.6-.6-2.1-.4-.5-.9-.7-1.6-.7s-1.4.3-1.9.9c-.5.6-.7,1.4-.7,2.4v5.2h-2.1v-10.2h2.1v1.4c.8-1.1,1.8-1.7,3.1-1.7s2.5.6,3.1,1.7c.8-1.2,1.9-1.7,3.5-1.7h0Z"/>
          <path class="cls-4" d="M801.1,14c-.3-.2-.4-.6-.4-.9s.1-.7.4-.9c.3-.3.6-.4.9-.4s.7.1.9.4c.3.3.4.6.4.9s-.1.7-.4.9c-.3.2-.6.4-.9.4s-.7-.1-.9-.4ZM800.9,16.1h2.1v10.2h-2.1v-10.2Z"/>
          <path class="cls-4" d="M809.5,26.6c-1.1,0-2.1-.3-3-.9-.9-.6-1.4-1.3-1.7-2.2l1.9-.6c.2.6.5,1,1.1,1.4s1.1.5,1.8.5,1.1-.1,1.5-.4.6-.6.6-1,0-.6-.3-.7-.5-.3-1-.5l-2.7-.8c-1.6-.5-2.4-1.4-2.4-2.6s.4-1.5,1.1-2.1,1.6-.9,2.7-.9,2,.2,2.7.7,1.3,1.1,1.6,1.9l-1.8.6c-.2-.4-.5-.7-1-1s-.9-.4-1.5-.4-.9.1-1.2.4c-.3.2-.5.5-.5.9s.4.8,1.1,1l2.6.8c.8.2,1.5.6,1.9,1,.5.4.7,1,.7,1.8s-.4,1.7-1.2,2.3-1.8.9-3,.9h0Z"/>
          <path class="cls-4" d="M821.9,25.9c-.8.3-1.5.5-2.2.5-1,0-1.8-.3-2.3-.9s-.8-1.5-.8-2.5v-5h-1.8v-1.9h1.8v-3.4h2.1v3.4h3.2v1.9h-3.2v5c0,1,.5,1.6,1.4,1.6s.9-.1,1.3-.3l.5,1.7Z"/>
          <path class="cls-4" d="M826,17.7c.3-.6.7-1.1,1.3-1.4s1.3-.4,2.1-.3v2c-1.1-.2-1.9,0-2.5.7s-.9,1.6-.9,3.1v4.6h-2.1v-10.2h2.1v1.6h0Z"/>
          <path class="cls-4" d="M841.1,16.1l-6.1,14.5h-2.1l1.9-4.5-4.6-10h2.3l3.3,7.6,3.1-7.6h2.2Z"/>
          <path class="cls-4" d="M674.4,48.2l-1.4-1.5c-1.3,1.2-2.7,1.8-4.3,1.8-1.2,0-2.2-.4-3-1.2-.8-.8-1.3-1.7-1.3-2.9s.2-1.6.7-2.3c.5-.7,1.1-1.3,2-1.9-.8-.9-1.2-1.9-1.2-2.7s.4-2.1,1.2-2.8c.8-.7,1.8-1,3-1s2,.3,2.7.9,1.2,1.4,1.4,2.3l-1.9.6c-.1-.6-.4-1-.8-1.4-.4-.3-.9-.5-1.4-.5s-1.1.2-1.5.5-.6.8-.6,1.4.3,1.2,1.1,2l3.9,4.2c.5-.8.8-1.6.9-2.4l1.8.5c-.2,1.2-.7,2.3-1.4,3.4l2.8,3h-2.6ZM668.9,46.5c1,0,1.9-.4,2.8-1.3l-3.4-3.7c-1.2.7-1.8,1.6-1.8,2.7s.2,1.2.7,1.6,1,.7,1.8.7h0Z"/>
          <path class="cls-4" d="M685.7,35.9v4h6.9v1.9h-6.9v4.3h7.8v2h-10v-14.2h10v2h-7.9Z"/>
          <path class="cls-4" d="M701.4,37.6c1.3,0,2.2.4,2.9,1.2.7.8,1,1.9,1,3.3v6h-2.1v-5.6c0-.9-.2-1.6-.6-2.1s-1-.8-1.8-.8-1.6.3-2.1.9c-.5.6-.8,1.4-.8,2.5v5.1h-2.1v-10.2h2.1v1.5c.8-1.2,2-1.8,3.4-1.8h0Z"/>
          <path class="cls-4" d="M718,38v9.8c0,1.4-.5,2.6-1.4,3.5-.9.9-2.1,1.4-3.7,1.4-2.2,0-3.8-.9-4.7-2.7l1.8-.7c.6,1,1.6,1.6,3,1.5.9,0,1.6-.3,2.1-.9.5-.6.8-1.3.8-2.2v-1.5c-.8,1.2-2,1.7-3.5,1.7s-2.6-.5-3.6-1.5-1.4-2.2-1.4-3.7.5-2.8,1.4-3.7c.9-1,2.1-1.5,3.6-1.5s2.7.6,3.5,1.7v-1.4h2.1ZM712.7,46.2c.9,0,1.7-.3,2.3-.9s.9-1.4.9-2.3-.3-1.7-.9-2.3-1.4-.9-2.3-.9-1.7.3-2.3.9c-.6.6-.9,1.4-.9,2.3s.3,1.7.9,2.4c.6.6,1.4.9,2.3.9h0Z"/>
          <path class="cls-4" d="M720.9,35.9c-.3-.2-.4-.6-.4-.9s.1-.7.4-.9c.3-.3.6-.4.9-.4s.7.1.9.4c.3.3.4.6.4.9s-.1.7-.4.9c-.3.2-.6.4-.9.4s-.7-.1-.9-.4ZM720.8,37.9h2.1v10.2h-2.1v-10.2Z"/>
          <path class="cls-4" d="M731.1,37.6c1.3,0,2.2.4,2.9,1.2.7.8,1,1.9,1,3.3v6h-2.1v-5.6c0-.9-.2-1.6-.6-2.1s-1-.8-1.8-.8-1.6.3-2.1.9c-.5.6-.8,1.4-.8,2.5v5.1h-2.1v-10.2h2.1v1.5c.8-1.2,2-1.8,3.4-1.8h0Z"/>
          <path class="cls-4" d="M742.5,48.4c-1.6,0-2.9-.5-3.8-1.5-1-1-1.5-2.3-1.5-3.9s.5-2.8,1.4-3.8,2.2-1.5,3.7-1.5,2.8.5,3.7,1.5c.9,1,1.4,2.2,1.4,3.7s0,.5,0,.9h-8.1c0,.9.4,1.6,1,2.1s1.4.8,2.3.8,2.3-.5,2.8-1.6l1.9.6c-.4.8-.9,1.5-1.8,2.1s-1.8.9-3,.9h0ZM745.3,42.3c0-.8-.4-1.5-.9-2s-1.2-.8-2.1-.8-1.6.3-2.1.8-.9,1.2-1,2h6.1Z"/>
          <path class="cls-4" d="M754.2,48.4c-1.6,0-2.9-.5-3.8-1.5-1-1-1.5-2.3-1.5-3.9s.5-2.8,1.4-3.8,2.2-1.5,3.7-1.5,2.8.5,3.7,1.5c.9,1,1.4,2.2,1.4,3.7s0,.5,0,.9h-8.1c0,.9.4,1.6,1,2.1s1.4.8,2.3.8,2.3-.5,2.8-1.6l1.9.6c-.4.8-.9,1.5-1.8,2.1s-1.8.9-3,.9h0ZM757.1,42.3c0-.8-.4-1.5-.9-2s-1.2-.8-2.1-.8-1.6.3-2.1.8-.9,1.2-1,2h6.1Z"/>
          <path class="cls-4" d="M763.3,39.6c.3-.6.7-1.1,1.3-1.4s1.3-.4,2.1-.3v2c-1.1-.2-1.9,0-2.5.7s-.9,1.6-.9,3.1v4.6h-2.1v-10.2h2.1v1.6h0Z"/>
          <path class="cls-4" d="M768.7,35.9c-.3-.2-.4-.6-.4-.9s.1-.7.4-.9c.3-.3.6-.4.9-.4s.7.1.9.4c.3.3.4.6.4.9s-.1.7-.4.9c-.3.2-.6.4-.9.4s-.7-.1-.9-.4ZM768.6,37.9h2.1v10.2h-2.1v-10.2Z"/>
          <path class="cls-4" d="M779,37.6c1.3,0,2.2.4,2.9,1.2.7.8,1,1.9,1,3.3v6h-2.1v-5.6c0-.9-.2-1.6-.6-2.1s-1-.8-1.8-.8-1.6.3-2.1.9c-.5.6-.8,1.4-.8,2.5v5.1h-2.1v-10.2h2.1v1.5c.8-1.2,2-1.8,3.4-1.8h0Z"/>
          <path class="cls-4" d="M795.5,38v9.8c0,1.4-.5,2.6-1.4,3.5-.9.9-2.1,1.4-3.7,1.4-2.2,0-3.8-.9-4.7-2.7l1.8-.7c.6,1,1.6,1.6,3,1.5.9,0,1.6-.3,2.1-.9.5-.6.8-1.3.8-2.2v-1.5c-.8,1.2-2,1.7-3.5,1.7s-2.6-.5-3.6-1.5-1.4-2.2-1.4-3.7.5-2.8,1.4-3.7c.9-1,2.1-1.5,3.6-1.5s2.7.6,3.5,1.7v-1.4h2.1ZM790.2,46.2c.9,0,1.7-.3,2.3-.9s.9-1.4.9-2.3-.3-1.7-.9-2.3-1.4-.9-2.3-.9-1.7.3-2.3.9c-.6.6-.9,1.4-.9,2.3s.3,1.7.9,2.4c.6.6,1.4.9,2.3.9h0Z"/>
          <path class="cls-4" d="M808.9,42.9h-3.5v5.3h-2.1v-14.2h6.6c1.4,0,2.5.5,3.3,1.4.8.9,1.2,2,1.2,3.1s-.3,1.9-.9,2.7c-.6.8-1.4,1.3-2.4,1.6l3.6,5.5h-2.5l-3.4-5.3ZM805.4,40.9h4.3c.8,0,1.4-.2,1.9-.7s.7-1.1.7-1.8-.2-1.3-.7-1.8c-.5-.5-1.1-.7-1.8-.7h-4.4v5Z"/>
          <path class="cls-4" d="M821.2,48.4c-1.6,0-2.9-.5-3.8-1.5-1-1-1.5-2.3-1.5-3.9s.5-2.8,1.4-3.8,2.2-1.5,3.7-1.5,2.8.5,3.7,1.5,1.4,2.2,1.4,3.7,0,.5,0,.9h-8.1c0,.9.4,1.6,1,2.1s1.4.8,2.3.8,2.3-.5,2.8-1.6l1.9.6c-.4.8-.9,1.5-1.8,2.1s-1.8.9-3,.9h0ZM824,42.3c0-.8-.4-1.5-.9-2s-1.2-.8-2.1-.8-1.6.3-2.1.8-.9,1.2-1,2h6.1Z"/>
          <path class="cls-4" d="M831.9,48.4c-1.1,0-2.1-.3-3-.9-.9-.6-1.4-1.3-1.7-2.2l1.9-.6c.2.6.5,1,1.1,1.4s1.1.5,1.8.5,1.1-.1,1.5-.4.6-.6.6-1,0-.6-.3-.7-.5-.3-1-.5l-2.7-.8c-1.6-.5-2.4-1.4-2.4-2.6s.4-1.5,1.1-2.1,1.6-.9,2.7-.9,2,.2,2.7.7,1.3,1.1,1.6,1.9l-1.8.6c-.2-.4-.5-.7-1-1s-.9-.4-1.5-.4-.9.1-1.2.4c-.3.2-.5.5-.5.9s.4.8,1.1,1l2.6.8c.8.2,1.5.6,1.9,1,.5.4.7,1,.7,1.8s-.4,1.7-1.2,2.3-1.8.9-3,.9h0Z"/>
          <path class="cls-4" d="M842.9,48.4c-1.6,0-2.9-.5-3.8-1.5-1-1-1.5-2.3-1.5-3.9s.5-2.8,1.4-3.8,2.2-1.5,3.7-1.5,2.8.5,3.7,1.5,1.4,2.2,1.4,3.7,0,.5,0,.9h-8.1c0,.9.4,1.6,1,2.1s1.4.8,2.3.8,2.3-.5,2.8-1.6l1.9.6c-.4.8-.9,1.5-1.8,2.1s-1.8.9-3,.9h0ZM845.8,42.3c0-.8-.4-1.5-.9-2s-1.2-.8-2.1-.8-1.6.3-2.1.8-.9,1.2-1,2h6.1Z"/>
          <path class="cls-4" d="M854.3,48.4c-1.4,0-2.6-.5-3.5-1.5-.9-1-1.4-2.3-1.4-3.8s.5-2.8,1.4-3.8c.9-1,2.1-1.5,3.5-1.5s2.8.6,3.6,1.8v-1.5h2.1v10.2h-2.1v-1.5c-.8,1.2-2,1.8-3.6,1.8h0ZM854.6,46.5c.9,0,1.7-.3,2.3-1,.6-.7,1-1.5,1-2.5s-.3-1.8-1-2.5c-.6-.7-1.4-1-2.3-1s-1.7.3-2.3,1-.9,1.5-.9,2.5.3,1.8.9,2.5c.6.7,1.4,1,2.3,1h0Z"/>
          <path class="cls-4" d="M864.7,39.6c.3-.6.7-1.1,1.3-1.4s1.3-.4,2.1-.3v2c-1.1-.2-1.9,0-2.5.7s-.9,1.6-.9,3.1v4.6h-2.1v-10.2h2.1v1.6h0Z"/>
          <path class="cls-4" d="M874,48.4c-1.5,0-2.7-.5-3.7-1.5s-1.5-2.3-1.5-3.8.5-2.8,1.5-3.8c1-1,2.2-1.5,3.7-1.5s2.3.3,3.1,1,1.4,1.4,1.6,2.2l-1.9.6c-.1-.5-.5-.9-1-1.3-.5-.4-1.1-.6-1.8-.6s-1.7.3-2.3,1c-.6.7-.9,1.5-.9,2.4s.3,1.8.9,2.4c.6.7,1.4,1,2.3,1s1.3-.2,1.8-.5c.5-.4.8-.8,1-1.3l1.9.5c-.2.8-.7,1.6-1.6,2.2-.8.7-1.9,1-3.1,1h0Z"/>
          <path class="cls-4" d="M886.3,37.6c1.3,0,2.2.4,2.9,1.2.7.8,1,1.9,1,3.3v6h-2.1v-5.6c0-.9-.2-1.6-.6-2.1s-1-.8-1.8-.8-1.6.3-2.1.9c-.5.6-.8,1.4-.8,2.5v5.1h-2.1v-14.8h2.1v6.1c.8-1.2,2-1.8,3.4-1.8h0Z"/>
          <path class="cls-1" d="M671.2,70.3c-2.1,0-3.8-.7-5.2-2.1-1.4-1.4-2.1-3.2-2.1-5.3s.7-3.9,2.1-5.3c1.4-1.4,3.1-2.1,5.1-2.1s3.1.4,4.3,1.3,2,1.9,2.3,3.2l-2.1.5c-.3-.8-.9-1.5-1.7-2.1s-1.8-.8-2.8-.8-2.7.5-3.6,1.5c-.9,1-1.4,2.3-1.4,3.7s.5,2.7,1.4,3.8c.9,1,2.1,1.6,3.6,1.6s2-.3,2.8-.8,1.4-1.2,1.6-2.1l2.1.5c-.4,1.2-1.2,2.3-2.3,3.1-1.2.9-2.6,1.3-4.2,1.3h0Z"/>
          <path class="cls-1" d="M684.5,70.3c-1.6,0-2.9-.5-3.8-1.5-1-1-1.5-2.3-1.5-3.9s.5-2.8,1.4-3.8,2.2-1.5,3.7-1.5,2.8.5,3.7,1.5,1.4,2.2,1.4,3.7,0,.5,0,.9h-8.1c0,.9.4,1.6,1,2.1s1.4.8,2.3.8,2.3-.5,2.8-1.6l1.9.6c-.4.8-.9,1.5-1.8,2.1s-1.8.9-3,.9h0ZM687.4,64.2c0-.8-.4-1.5-.9-2s-1.2-.8-2.1-.8-1.6.3-2.1.8-.9,1.2-1,2h6.1Z"/>
          <path class="cls-1" d="M697,59.5c1.3,0,2.2.4,2.9,1.2.7.8,1,1.9,1,3.3v6h-2.1v-5.6c0-.9-.2-1.6-.6-2.1s-1-.8-1.8-.8-1.6.3-2.1.9c-.5.6-.8,1.4-.8,2.5v5.1h-2.1v-10.2h2.1v1.5c.8-1.2,2-1.8,3.4-1.8h0Z"/>
          <path class="cls-1" d="M709.7,69.7c-.8.3-1.5.5-2.2.5-1,0-1.8-.3-2.3-.9s-.8-1.5-.8-2.5v-5h-1.8v-1.9h1.8v-3.4h2.1v3.4h3.2v1.9h-3.2v5c0,1,.5,1.6,1.4,1.6s.9-.1,1.3-.3l.5,1.7Z"/>
          <path class="cls-1" d="M713.8,61.4c.3-.6.7-1.1,1.3-1.4s1.3-.4,2.1-.3v2c-1.1-.2-1.9,0-2.5.7s-.9,1.6-.9,3.1v4.6h-2.1v-10.2h2.1v1.6h0Z"/>
          <path class="cls-1" d="M723.2,70.3c-1.6,0-2.9-.5-3.8-1.5-1-1-1.5-2.3-1.5-3.9s.5-2.8,1.4-3.8,2.2-1.5,3.7-1.5,2.8.5,3.7,1.5,1.4,2.2,1.4,3.7,0,.5,0,.9h-8.1c0,.9.4,1.6,1,2.1s1.4.8,2.3.8,2.3-.5,2.8-1.6l1.9.6c-.4.8-.9,1.5-1.8,2.1s-1.8.9-3,.9h0ZM726.1,64.2c0-.8-.4-1.5-.9-2s-1.2-.8-2.1-.8-1.6.3-2.1.8-.9,1.2-1,2h6.1Z"/>
          <path class="cls-1" d="M739.9,70.3c-1.5,0-2.8-.5-3.8-1.5s-1.5-2.3-1.5-3.8.5-2.8,1.5-3.8,2.3-1.5,3.8-1.5,2.8.5,3.8,1.5,1.5,2.3,1.5,3.8-.5,2.8-1.5,3.8-2.3,1.5-3.8,1.5h0ZM742.2,67.4c.6-.7.9-1.5.9-2.4s-.3-1.8-.9-2.5-1.4-1-2.3-1-1.7.3-2.3,1c-.6.7-.9,1.5-.9,2.5s.3,1.8.9,2.4c.6.7,1.4,1,2.3,1s1.7-.3,2.3-1Z"/>
          <path class="cls-1" d="M750.1,59.8h3.3v1.9h-3.3v8.3h-2.1v-8.3h-2v-1.9h2v-1.1c0-1.2.3-2.1.9-2.8.6-.7,1.4-1,2.5-1s1.5.1,2.1.4l-.5,1.7c-.4-.2-.9-.3-1.4-.3-1,0-1.5.6-1.5,1.9v1.1Z"/>
          <path class="cls-1" d="M762.2,57.8v4h6.9v1.9h-6.9v4.3h7.8v2h-10v-14.2h10v2h-7.9Z"/>
          <path class="cls-1" d="M779,70l-2.7-3.7-2.8,3.7h-2.4l3.8-5.2-3.7-5.1h2.4l2.6,3.5,2.6-3.5h2.4l-3.7,5.1,3.8,5.2h-2.4Z"/>
          <path class="cls-1" d="M787.2,70.3c-1.5,0-2.7-.5-3.7-1.5s-1.5-2.3-1.5-3.8.5-2.8,1.5-3.8c1-1,2.2-1.5,3.7-1.5s2.3.3,3.1,1,1.4,1.4,1.6,2.2l-1.9.6c-.1-.5-.5-.9-1-1.3-.5-.4-1.1-.6-1.8-.6s-1.7.3-2.3,1c-.6.7-.9,1.5-.9,2.4s.3,1.8.9,2.4c.6.7,1.4,1,2.3,1s1.3-.2,1.8-.5c.5-.4.8-.8,1-1.3l1.9.5c-.2.8-.7,1.6-1.6,2.2-.8.7-1.9,1-3.1,1h0Z"/>
          <path class="cls-1" d="M798.8,70.3c-1.6,0-2.9-.5-3.8-1.5-1-1-1.5-2.3-1.5-3.9s.5-2.8,1.4-3.8,2.2-1.5,3.7-1.5,2.8.5,3.7,1.5,1.4,2.2,1.4,3.7,0,.5,0,.9h-8.1c0,.9.4,1.6,1,2.1s1.4.8,2.3.8,2.3-.5,2.8-1.6l1.9.6c-.4.8-.9,1.5-1.8,2.1s-1.8.9-3,.9h0ZM801.6,64.2c0-.8-.4-1.5-.9-2s-1.2-.8-2.1-.8-1.6.3-2.1.8-.9,1.2-1,2h6.1Z"/>
          <path class="cls-1" d="M805.8,55.2h2.1v14.8h-2.1v-14.8Z"/>
          <path class="cls-1" d="M810.6,55.2h2.1v14.8h-2.1v-14.8Z"/>
          <path class="cls-1" d="M820.2,70.3c-1.6,0-2.9-.5-3.8-1.5-1-1-1.5-2.3-1.5-3.9s.5-2.8,1.4-3.8,2.2-1.5,3.7-1.5,2.8.5,3.7,1.5,1.4,2.2,1.4,3.7,0,.5,0,.9h-8.1c0,.9.4,1.6,1,2.1s1.4.8,2.3.8,2.3-.5,2.8-1.6l1.9.6c-.4.8-.9,1.5-1.8,2.1s-1.8.9-3,.9h0ZM823.1,64.2c0-.8-.4-1.5-.9-2s-1.2-.8-2.1-.8-1.6.3-2.1.8-.9,1.2-1,2h6.1Z"/>
          <path class="cls-1" d="M832.7,59.5c1.3,0,2.2.4,2.9,1.2.7.8,1,1.9,1,3.3v6h-2.1v-5.6c0-.9-.2-1.6-.6-2.1s-1-.8-1.8-.8-1.6.3-2.1.9c-.5.6-.8,1.4-.8,2.5v5.1h-2.1v-10.2h2.1v1.5c.8-1.2,2-1.8,3.4-1.8h0Z"/>
          <path class="cls-1" d="M844,70.3c-1.5,0-2.7-.5-3.7-1.5s-1.5-2.3-1.5-3.8.5-2.8,1.5-3.8c1-1,2.2-1.5,3.7-1.5s2.3.3,3.1,1,1.4,1.4,1.6,2.2l-1.9.6c-.1-.5-.5-.9-1-1.3-.5-.4-1.1-.6-1.8-.6s-1.7.3-2.3,1c-.6.7-.9,1.5-.9,2.4s.3,1.8.9,2.4c.6.7,1.4,1,2.3,1s1.3-.2,1.8-.5c.5-.4.8-.8,1-1.3l1.9.5c-.2.8-.7,1.6-1.6,2.2-.8.7-1.9,1-3.1,1h0Z"/>
          <path class="cls-1" d="M855.5,70.3c-1.6,0-2.9-.5-3.8-1.5-1-1-1.5-2.3-1.5-3.9s.5-2.8,1.4-3.8,2.2-1.5,3.7-1.5,2.8.5,3.7,1.5c.9,1,1.4,2.2,1.4,3.7s0,.5,0,.9h-8.1c0,.9.4,1.6,1,2.1s1.4.8,2.3.8,2.3-.5,2.8-1.6l1.9.6c-.4.8-.9,1.5-1.8,2.1s-1.8.9-3,.9h0ZM858.4,64.2c0-.8-.4-1.5-.9-2s-1.2-.8-2.1-.8-1.6.3-2.1.8-.9,1.2-1,2h6.1Z"/>
        </g>
      </g>
    </g>
  </g>
</svg>