<?xml version="1.0" encoding="UTF-8"?>
<svg id="Layer_2" data-name="Layer 2" xmlns="http://www.w3.org/2000/svg" viewBox="0 0 372.7 144">
  <defs>
    <style>
      .cls-1 {
        fill: #988981;
      }

      .cls-1, .cls-2 {
        stroke-width: 0px;
      }

      .cls-2 {
        fill: #d7664b;
      }
    </style>
  </defs>
  <g id="Layer_1-2" data-name="Layer 1">
    <g>
      <g>
        <polygon class="cls-2" points="230.7 .9 224.1 .9 224.1 38.3 249.7 38.3 249.7 32.7 230.7 32.7 230.7 .9"/>
        <polygon class="cls-2" points="269.8 .9 260.1 17.7 250.2 .9 242.6 .9 256.6 23.6 256.6 38.3 263.2 38.3 263.2 23.6 277.2 .9 269.8 .9"/>
        <polygon class="cls-2" points="318.9 21.7 337.8 21.7 337.8 16.4 318.9 16.4 318.9 6.6 339.3 6.6 339.3 .9 312.4 .9 312.4 38.3 339.7 38.3 339.7 32.7 318.9 32.7 318.9 21.7"/>
        <polygon class="cls-2" points="351.9 32.7 351.9 21.7 370.8 21.7 370.8 16.4 351.9 16.4 351.9 6.6 372.3 6.6 372.3 .9 345.4 .9 345.4 38.3 372.7 38.3 372.7 32.7 351.9 32.7"/>
        <path class="cls-2" d="M293.6,33.9c-8,0-11.4-7.1-11.4-14.3s3.4-14.3,11.4-14.3.2,0,.3,0l3-5.1c-1.1-.2-2.2-.3-3.3-.3-11.2,0-17.9,9-17.9,19.6s6.8,19.6,17.9,19.6,12.1-3.5,14.5-9.1l-5.8-2.4c-1.4,3.6-4.2,6.1-8.7,6.1Z"/>
      </g>
      <g>
        <polygon class="cls-1" points="38.8 90.7 38.8 53.3 29.7 53.3 19.6 82.6 19.5 82.6 9.2 53.3 0 53.3 0 90.7 6.2 90.7 6.2 61.8 6.3 61.8 16.7 90.7 22.1 90.7 32.5 61.8 32.6 61.8 32.6 90.7 38.8 90.7"/>
        <path class="cls-1" d="M62.6,52.4c-11.2,0-17.9,9-17.9,19.6s6.8,19.6,17.9,19.6,17.9-8.9,17.9-19.6-6.8-19.6-17.9-19.6ZM62.6,86.3c-8,0-11.4-7.1-11.4-14.3s3.4-14.3,11.4-14.3,11.4,7.1,11.4,14.3-3.4,14.3-11.4,14.3Z"/>
        <polygon class="cls-1" points="92.9 73.8 109.9 73.8 109.9 90.7 116.5 90.7 116.5 53.3 109.9 53.3 109.9 68.2 92.9 68.2 92.9 53.3 86.3 53.3 86.3 90.7 92.9 90.7 92.9 73.8"/>
        <path class="cls-1" d="M141.3,53.3h-7l-14.4,37.4h6.8l3.5-9.9h14.9l3.5,9.9h7l-14.4-37.4ZM132,75.8l5.7-16.1h.2l5.6,16.1h-11.4Z"/>
        <polygon class="cls-1" points="191.8 61.8 191.8 90.7 198 90.7 198 53.3 188.9 53.3 178.8 82.6 178.7 82.6 168.4 53.3 159.2 53.3 159.2 90.7 165.4 90.7 165.4 61.8 165.5 61.8 175.9 90.7 181.3 90.7 191.7 61.8 191.8 61.8"/>
        <polygon class="cls-1" points="244.6 90.7 244.6 53.3 235.5 53.3 225.4 82.6 225.3 82.6 215 53.3 205.8 53.3 205.8 90.7 212 90.7 212 61.8 212.1 61.8 222.5 90.7 227.9 90.7 238.2 61.8 238.3 61.8 238.3 90.7 244.6 90.7"/>
        <polygon class="cls-1" points="279.7 85 259 85 259 74.1 277.9 74.1 277.9 68.8 259 68.8 259 59 279.4 59 279.4 53.3 252.4 53.3 252.4 90.7 279.7 90.7 279.7 85"/>
        <path class="cls-1" d="M317.5,72c0-10.3-5-18.7-16.5-18.7h-15.5v37.4h15.5c11.5,0,16.5-8.4,16.5-18.7ZM292,85.4v-26.7h6.4c10.3,0,12.5,5.8,12.5,13.4s-2.2,13.4-12.5,13.4h-6.4Z"/>
        <polygon class="cls-1" points="347.3 90.7 360.1 53.3 353.5 53.3 343.9 82.9 343.8 82.9 334.4 53.3 327.6 53.3 340 90.7 347.3 90.7"/>
        <rect class="cls-1" x="363.8" y="53.3" width="6.5" height="37.4"/>
        <path class="cls-1" d="M15.5,105.7H0v37.4h15.5c11.5,0,16.5-8.4,16.5-18.7s-5-18.7-16.5-18.7ZM13,137.8h-6.4v-26.7h6.4c10.3,0,12.5,5.8,12.5,13.4s-2.2,13.4-12.5,13.4Z"/>
        <polygon class="cls-1" points="58.9 126.5 77.8 126.5 77.8 121.1 58.9 121.1 58.9 111.3 79.3 111.3 79.3 105.7 52.4 105.7 52.4 143.1 79.7 143.1 79.7 137.4 58.9 137.4 58.9 126.5"/>
        <polygon class="cls-1" points="108.8 114.2 101.6 114.2 98.5 118.9 90 105.7 82.2 105.7 94.5 123.7 81.3 143.1 88.8 143.1 98.2 128.8 107.6 143.1 115.5 143.1 102.3 123.7 108.8 114.2"/>
        <path class="cls-1" d="M131.1,138.7c-8,0-11.4-7.1-11.4-14.3s3.4-14.3,11.4-14.3.2,0,.3,0l3-5.1c-1.1-.2-2.2-.3-3.3-.3-11.2,0-17.9,9-17.9,19.6s6.8,19.6,17.9,19.6,12.1-3.5,14.5-9.1l-5.8-2.4c-1.4,3.6-4.2,6.1-8.7,6.1Z"/>
        <path class="cls-1" d="M327.7,138.7c-8,0-11.4-7.1-11.4-14.3s3.4-14.3,11.4-14.3.2,0,.3,0l3-5.1c-1.1-.2-2.2-.3-3.3-.3-11.2,0-17.9,9-17.9,19.6s6.8,19.6,17.9,19.6,12.1-3.5,14.5-9.1l-5.8-2.4c-1.4,3.6-4.2,6.1-8.7,6.1Z"/>
        <polygon class="cls-1" points="155.4 126.5 174.2 126.5 174.2 121.1 155.4 121.1 155.4 111.3 175.7 111.3 175.7 105.7 148.8 105.7 148.8 143.1 176.1 143.1 176.1 137.4 155.4 137.4 155.4 126.5"/>
        <polygon class="cls-1" points="188.4 105.7 181.8 105.7 181.8 143.1 207.4 143.1 207.4 137.4 188.4 137.4 188.4 105.7"/>
        <polygon class="cls-1" points="218.4 105.7 211.9 105.7 211.9 143.1 237.5 143.1 237.5 137.4 218.4 137.4 218.4 105.7"/>
        <polygon class="cls-1" points="248.5 126.5 267.4 126.5 267.4 121.1 248.5 121.1 248.5 111.3 268.9 111.3 268.9 105.7 242 105.7 242 143.1 269.3 143.1 269.3 137.4 248.5 137.4 248.5 126.5"/>
        <polygon class="cls-1" points="298.8 133.3 298.7 133.3 281.6 105.7 281.6 116.4 298.1 143.1 305 143.1 305 105.7 298.8 105.7 298.8 133.3"/>
        <rect class="cls-1" x="274.7" y="120.1" width="6.2" height="23"/>
        <polygon class="cls-1" points="351.9 137.4 351.9 126.5 370.8 126.5 370.8 121.1 351.9 121.1 351.9 111.3 372.3 111.3 372.3 105.7 345.4 105.7 345.4 143.1 372.7 143.1 372.7 137.4 351.9 137.4"/>
        <polygon class="cls-1" points="37.9 120.5 42.1 120.5 45 105.7 37.9 105.7 37.9 120.5"/>
      </g>
    </g>
  </g>
</svg>