<?xml version="1.0" encoding="UTF-8"?>
<svg id="Layer_2" data-name="Layer 2" xmlns="http://www.w3.org/2000/svg" viewBox="0 0 725.1 90.4">
  <defs>
    <style>
      .cls-1 {
        fill: #d1451e;
      }

      .cls-1, .cls-2, .cls-3, .cls-4 {
        stroke-width: 0px;
      }

      .cls-2 {
        fill: #d74a2a;
      }

      .cls-3 {
        fill: #3b3b3c;
      }

      .cls-4 {
        fill: #fff;
      }
    </style>
  </defs>
  <g id="Layer_1-2" data-name="Layer 1">
    <g>
      <g>
        <path class="cls-3" d="M438.3,22.4c-3.1,0-5.6-1-7.7-3.1s-3.1-4.7-3.1-7.8,1-5.7,3.1-7.8,4.6-3.1,7.6-3.1,4.8.7,6.5,2c1.7,1.3,2.9,2.9,3.4,4.8l-3.9,1c-.4-1.1-1.1-2-2.1-2.8-1.1-.8-2.3-1.1-3.8-1.1s-3.6.7-4.8,2c-1.2,1.4-1.8,3-1.8,5s.6,3.6,1.8,5,2.8,2.1,4.8,2.1,2.8-.4,3.8-1.1,1.8-1.7,2.1-2.8l3.9,1c-.5,1.8-1.6,3.4-3.4,4.7-1.7,1.3-3.9,2-6.4,2h0Z"/>
        <path class="cls-3" d="M457.8,22.3c-2.3,0-4.2-.8-5.7-2.3-1.5-1.5-2.2-3.4-2.2-5.7s.8-4.2,2.3-5.7c1.5-1.5,3.4-2.3,5.7-2.3s4.2.8,5.7,2.3c1.5,1.5,2.2,3.4,2.2,5.7s-.7,4.2-2.2,5.7c-1.5,1.5-3.4,2.3-5.7,2.3h0ZM460.8,17.5c.8-.8,1.2-1.9,1.2-3.2s-.4-2.3-1.2-3.2-1.8-1.2-3-1.2-2.2.4-3,1.2-1.2,1.9-1.2,3.2.4,2.3,1.2,3.2,1.8,1.2,3,1.2,2.2-.4,3-1.2Z"/>
        <path class="cls-3" d="M468.6,0h3.9v21.9h-3.9V0Z"/>
        <path class="cls-3" d="M476.3,0h3.9v21.9h-3.9V0Z"/>
        <path class="cls-3" d="M491,22.4c-2.4,0-4.3-.7-5.8-2.2-1.5-1.5-2.2-3.4-2.2-5.8s.7-4.2,2.1-5.7c1.4-1.5,3.3-2.3,5.6-2.3s4.2.7,5.6,2.2,2.1,3.3,2.1,5.6,0,1.1,0,1.4h-11.5c.1,1,.6,1.9,1.3,2.5s1.7.9,3,.9,2.9-.7,3.6-2l3.5,1.1c-.5,1.1-1.3,2.2-2.6,3-1.2.9-2.8,1.3-4.5,1.3h0ZM489.5,4.4l-3.2-4.2h4.3l2.2,4.2h-3.3ZM494.6,13.1c0-1-.5-1.8-1.2-2.4-.7-.6-1.6-1-2.7-1s-2,.3-2.7,1-1.1,1.5-1.2,2.4h7.8Z"/>
        <path class="cls-3" d="M516.3,6.7v14.6c0,2.1-.7,3.9-2.1,5.2-1.4,1.3-3.2,2-5.5,2-3.3,0-5.7-1.3-7.1-4l3.4-1.2c.8,1.3,2.1,2,3.9,2,1.2,0,2.1-.4,2.7-1.1.6-.7,1-1.7,1-2.9v-1.8c-1.2,1.5-2.7,2.2-4.7,2.2s-3.8-.7-5.2-2.2c-1.4-1.5-2.1-3.3-2.1-5.5s.7-4.1,2.1-5.5,3.1-2.2,5.3-2.2,3.5.7,4.7,2.2v-1.8h3.9ZM508.4,18.2c1.2,0,2.2-.4,2.9-1.2s1.2-1.8,1.2-3-.4-2.2-1.2-3-1.7-1.1-2.9-1.1-2.2.4-3,1.1c-.8.8-1.2,1.8-1.2,3s.4,2.2,1.2,3c.8.8,1.8,1.2,3,1.2h0Z"/>
        <path class="cls-3" d="M527.2,22.4c-2.4,0-4.3-.7-5.8-2.2-1.5-1.5-2.2-3.4-2.2-5.8s.7-4.2,2.1-5.7c1.4-1.5,3.3-2.3,5.6-2.3s4.2.7,5.6,2.2,2.1,3.3,2.1,5.6,0,1.1,0,1.4h-11.5c.1,1,.6,1.9,1.3,2.5s1.7.9,3,.9,2.9-.7,3.6-2l3.5,1.1c-.5,1.1-1.3,2.2-2.6,3s-2.8,1.3-4.5,1.3h0ZM530.7,13.1c0-1-.5-1.8-1.2-2.4-.7-.6-1.6-1-2.7-1s-2,.3-2.7,1-1.1,1.5-1.2,2.4h7.8Z"/>
        <path class="cls-3" d="M559.7,0v21.9h-3.9v-1.9c-1.2,1.5-2.7,2.3-4.8,2.3s-3.8-.8-5.2-2.3-2.1-3.4-2.1-5.7.7-4.2,2.1-5.7,3.1-2.3,5.2-2.3,3.6.7,4.8,2.3V0h3.9ZM551.7,18.8c1.2,0,2.2-.4,3-1.3.8-.8,1.2-1.9,1.2-3.2s-.4-2.3-1.2-3.2c-.8-.8-1.8-1.3-3-1.3s-2.2.4-3,1.2c-.8.8-1.2,1.9-1.2,3.2s.4,2.4,1.2,3.2c.8.8,1.8,1.3,3,1.3h0Z"/>
        <path class="cls-3" d="M564.2.9h4.1l-2.3,8.3h-3.1l1.3-8.3Z"/>
        <path class="cls-3" d="M582.4,17.4h-9.2l-1.7,4.6h-4.2l7.8-21h5.2l7.9,21h-4.2l-1.7-4.6ZM581.1,13.7l-3.3-8.9-3.3,8.9h6.6Z"/>
        <path class="cls-3" d="M604.7,6.7v14.6c0,2.1-.7,3.9-2.1,5.2-1.4,1.3-3.2,2-5.5,2-3.3,0-5.7-1.3-7.1-4l3.4-1.2c.8,1.3,2.1,2,3.9,2,1.2,0,2.1-.4,2.7-1.1.6-.7,1-1.7,1-2.9v-1.8c-1.2,1.5-2.7,2.2-4.7,2.2s-3.8-.7-5.2-2.2-2.1-3.3-2.1-5.5.7-4.1,2.1-5.5,3.1-2.2,5.3-2.2,3.5.7,4.7,2.2v-1.8h3.9ZM596.9,18.2c1.2,0,2.2-.4,2.9-1.2.8-.8,1.2-1.8,1.2-3s-.4-2.2-1.2-3c-.8-.8-1.7-1.1-2.9-1.1s-2.2.4-3,1.1-1.2,1.8-1.2,3,.4,2.2,1.2,3,1.8,1.2,3,1.2h0Z"/>
        <path class="cls-3" d="M612.4,9c1-2,2.6-2.8,4.9-2.5v3.7c-1.6-.3-2.8,0-3.6.8-.8.8-1.2,2.2-1.2,4.2v6.6h-3.9V6.7h3.9v2.2h0Z"/>
        <path class="cls-3" d="M621.8,4.6c-.6,0-1.2-.2-1.6-.7-.4-.5-.7-1-.7-1.7s.2-1.2.7-1.6c.4-.4,1-.7,1.6-.7s1.2.2,1.6.7.7,1,.7,1.6-.2,1.2-.7,1.7-1,.7-1.6.7h0ZM619.8,6.8h3.9v15.2h-3.9V6.8Z"/>
        <path class="cls-3" d="M634.4,22.4c-2.3,0-4.1-.8-5.6-2.3s-2.2-3.5-2.2-5.7.7-4.2,2.2-5.7,3.4-2.3,5.6-2.3,3.5.5,4.8,1.5,2.1,2.2,2.4,3.4l-3.6,1.1c-.2-.7-.6-1.3-1.2-1.8-.7-.5-1.4-.7-2.4-.7s-2.2.4-2.9,1.3c-.7.9-1.1,1.9-1.1,3.2s.4,2.3,1.1,3.2c.8.9,1.7,1.3,2.9,1.3s1.7-.2,2.4-.7c.7-.5,1.1-1.1,1.3-1.7l3.6,1c-.3,1.3-1.1,2.4-2.4,3.4s-2.9,1.5-4.8,1.5h0Z"/>
        <path class="cls-3" d="M658.8,6.8v15.2h-3.9v-1.9c-1.2,1.6-2.7,2.3-4.8,2.3s-3.4-.6-4.4-1.8-1.5-2.9-1.5-5V6.8h3.9v8.1c0,1.2.3,2.1.8,2.8.5.7,1.3,1,2.4,1s2-.4,2.6-1.2,1-1.9,1-3.3v-7.5h3.9Z"/>
        <path class="cls-3" d="M662.5,0h3.9v21.9h-3.9V0Z"/>
        <path class="cls-3" d="M679.6,21.4c-1.2.5-2.3.7-3.5.7-1.6,0-2.9-.5-3.7-1.4s-1.2-2.3-1.2-4v-6.5h-2.5v-3.5h2.5V1.8h3.9v4.9h4.3v3.5h-4.3v6.5c0,1.3.6,1.9,1.8,1.9s1.2-.1,1.8-.4l.9,3.2Z"/>
        <path class="cls-3" d="M696.4,6.8v15.2h-3.9v-1.9c-1.2,1.6-2.7,2.3-4.8,2.3s-3.4-.6-4.4-1.8c-1-1.2-1.5-2.9-1.5-5V6.8h3.9v8.1c0,1.2.3,2.1.8,2.8s1.3,1,2.4,1,2-.4,2.6-1.2c.6-.8,1-1.9,1-3.3v-7.5h3.9Z"/>
        <path class="cls-3" d="M704.1,9c1-2,2.6-2.8,4.9-2.5v3.7c-1.6-.3-2.8,0-3.6.8-.8.8-1.2,2.2-1.2,4.2v6.6h-3.9V6.7h3.9v2.2h0Z"/>
        <path class="cls-3" d="M717.8,22.4c-2.4,0-4.3-.7-5.8-2.2s-2.2-3.4-2.2-5.8.7-4.2,2.1-5.7c1.4-1.5,3.3-2.3,5.6-2.3s4.2.7,5.6,2.2,2.1,3.3,2.1,5.6,0,1.1,0,1.4h-11.5c.1,1,.6,1.9,1.3,2.5.7.6,1.7.9,3,.9s2.9-.7,3.6-2l3.5,1.1c-.5,1.1-1.3,2.2-2.6,3-1.2.9-2.8,1.3-4.5,1.3h0ZM721.4,13.1c-.1-1-.5-1.8-1.2-2.4s-1.6-1-2.7-1-2,.3-2.7,1c-.7.7-1.1,1.5-1.2,2.4h7.8Z"/>
        <path class="cls-3" d="M435.5,56.4c-2.4,0-4.3-.7-5.8-2.2s-2.2-3.4-2.2-5.8.7-4.2,2.1-5.7c1.4-1.5,3.3-2.3,5.6-2.3s4.2.7,5.6,2.2,2.1,3.3,2.1,5.6,0,1.1,0,1.4h-11.5c.1,1,.6,1.9,1.3,2.5s1.7.9,3,.9,2.9-.7,3.6-2l3.5,1.1c-.5,1.1-1.3,2.2-2.6,3-1.2.9-2.8,1.3-4.5,1.3h0ZM439.1,47.1c0-1-.5-1.8-1.2-2.4-.7-.6-1.6-1-2.7-1s-2,.3-2.7,1c-.7.7-1.1,1.5-1.2,2.4h7.8Z"/>
        <path class="cls-3" d="M454.7,55.4c-1.2.5-2.3.7-3.5.7-1.6,0-2.9-.5-3.7-1.4-.8-1-1.2-2.3-1.2-4v-6.5h-2.5v-3.5h2.5v-4.9h3.9v4.9h4.3v3.5h-4.3v6.5c0,1.3.6,1.9,1.8,1.9s1.2-.1,1.8-.4l.9,3.2Z"/>
        <path class="cls-3" d="M479.6,34v21.9h-3.9v-1.9c-1.2,1.5-2.7,2.3-4.8,2.3s-3.8-.8-5.2-2.3c-1.4-1.5-2.1-3.4-2.1-5.7s.7-4.2,2.1-5.7c1.4-1.5,3.1-2.3,5.2-2.3s3.6.7,4.8,2.3v-8.6h3.9ZM471.6,52.8c1.2,0,2.2-.4,3-1.3.8-.8,1.2-1.9,1.2-3.2s-.4-2.3-1.2-3.2c-.8-.8-1.8-1.3-3-1.3s-2.2.4-3,1.2-1.2,1.9-1.2,3.2.4,2.4,1.2,3.2,1.8,1.3,3,1.3h0Z"/>
        <path class="cls-3" d="M490.5,56.4c-2.4,0-4.3-.7-5.8-2.2-1.5-1.5-2.2-3.4-2.2-5.8s.7-4.2,2.1-5.7c1.4-1.5,3.3-2.3,5.6-2.3s4.2.7,5.6,2.2,2.1,3.3,2.1,5.6,0,1.1,0,1.4h-11.5c.1,1,.6,1.9,1.3,2.5s1.7.9,3,.9,2.9-.7,3.6-2l3.5,1.1c-.5,1.1-1.3,2.2-2.6,3s-2.8,1.3-4.5,1.3h0ZM494.1,47.1c0-1-.5-1.8-1.2-2.4-.7-.6-1.6-1-2.7-1s-2,.3-2.7,1-1.1,1.5-1.2,2.4h7.8Z"/>
        <path class="cls-3" d="M506.6,56.3c-1.8,0-3.3-.5-4.6-1.4s-2.2-2-2.6-3.3l3.5-1c.3.7.7,1.3,1.4,1.8s1.5.7,2.5.7,1.3-.1,1.8-.5.7-.7.7-1.1c0-.7-.5-1.2-1.6-1.5l-3.8-1.1c-2.4-.7-3.7-2.1-3.7-4s.6-2.3,1.7-3.2c1.2-.9,2.6-1.3,4.2-1.3s2.9.4,4.1,1.1c1.2.7,2,1.6,2.5,2.8l-3.4,1c-.6-1.2-1.7-1.8-3.2-1.8s-1.1.1-1.5.4-.6.6-.6,1c0,.6.4,1,1.2,1.2l3.7,1.1c1.3.4,2.4.9,3.1,1.5s1.1,1.5,1.1,2.8-.6,2.6-1.8,3.6-2.7,1.4-4.6,1.4h0Z"/>
        <path class="cls-3" d="M531.4,56.4c-2.4,0-4.4-.6-6-1.8s-2.8-2.7-3.4-4.5l3.8-1.2c.4,1.2,1.2,2.1,2.2,2.8s2.3,1.1,3.7,1.1,2.1-.3,2.8-.8,1.1-1.1,1.1-1.9-.2-1-.6-1.5c-.4-.4-1.1-.8-2.1-1.1l-5.2-1.7c-1.4-.5-2.6-1.1-3.4-2.1-.8-.9-1.3-2-1.2-3.3,0-1.7.7-3.1,2.1-4.2,1.4-1.2,3.2-1.8,5.3-1.8s4,.5,5.6,1.5,2.7,2.3,3.3,3.8l-3.7,1.1c-.4-.9-1.1-1.6-2-2.1-.9-.5-1.9-.8-3-.8s-1.8.2-2.4.7-.9,1-.9,1.6c0,.9.7,1.6,2,2l5.1,1.7c1.8.6,3.2,1.3,4.1,2.1.9.8,1.4,2.1,1.4,3.6s-.8,3.4-2.3,4.6-3.5,1.9-5.9,1.9h0Z"/>
        <path class="cls-3" d="M549.6,56.4c-2.3,0-4.1-.8-5.6-2.3s-2.2-3.5-2.2-5.7.7-4.2,2.2-5.7,3.4-2.3,5.6-2.3,3.5.5,4.8,1.5c1.3,1,2.1,2.2,2.4,3.4l-3.6,1.1c-.2-.7-.6-1.3-1.2-1.8s-1.4-.7-2.4-.7-2.2.4-2.9,1.3-1.1,1.9-1.1,3.2.4,2.3,1.1,3.2,1.7,1.3,2.9,1.3,1.7-.2,2.4-.7,1.1-1.1,1.3-1.7l3.6,1c-.3,1.3-1.1,2.4-2.4,3.4-1.3,1-2.9,1.5-4.8,1.5h0Z"/>
        <path class="cls-3" d="M561.6,38.6c-.6,0-1.2-.2-1.6-.7-.4-.5-.7-1-.7-1.7s.2-1.2.7-1.6c.4-.4,1-.7,1.6-.7s1.2.2,1.6.7.7,1,.7,1.6-.2,1.2-.7,1.7-1,.7-1.6.7h0ZM559.6,40.8h3.9v15.2h-3.9v-15.2Z"/>
        <path class="cls-3" d="M574.4,56.4c-2.4,0-4.3-.7-5.8-2.2s-2.2-3.4-2.2-5.8.7-4.2,2.1-5.7c1.4-1.5,3.3-2.3,5.6-2.3s4.2.7,5.6,2.2,2.1,3.3,2.1,5.6,0,1.1,0,1.4h-11.5c.1,1,.6,1.9,1.3,2.5s1.7.9,3,.9,2.9-.7,3.6-2l3.5,1.1c-.5,1.1-1.3,2.2-2.6,3-1.2.9-2.8,1.3-4.5,1.3h0ZM578,47.1c0-1-.5-1.8-1.2-2.4-.7-.6-1.6-1-2.7-1s-2,.3-2.7,1c-.7.7-1.1,1.5-1.2,2.4h7.8Z"/>
        <path class="cls-3" d="M593.4,40.3c1.9,0,3.3.6,4.3,1.8s1.5,2.8,1.5,4.9v8.9h-3.9v-8.1c0-1.2-.3-2.1-.8-2.8s-1.3-1-2.4-1-1.9.4-2.6,1.2c-.7.8-1,1.9-1,3.2v7.5h-3.9v-15.2h3.9v1.9c1.2-1.6,2.8-2.3,4.8-2.3h0Z"/>
        <path class="cls-3" d="M609.7,56.4c-2.3,0-4.1-.8-5.6-2.3s-2.2-3.5-2.2-5.7.7-4.2,2.2-5.7,3.4-2.3,5.6-2.3,3.5.5,4.8,1.5c1.3,1,2.1,2.2,2.4,3.4l-3.6,1.1c-.2-.7-.6-1.3-1.2-1.8s-1.4-.7-2.4-.7-2.2.4-2.9,1.3c-.7.9-1.1,1.9-1.1,3.2s.4,2.3,1.1,3.2,1.7,1.3,2.9,1.3,1.7-.2,2.4-.7c.7-.5,1.1-1.1,1.3-1.7l3.6,1c-.3,1.3-1.1,2.4-2.4,3.4-1.3,1-2.9,1.5-4.8,1.5h0Z"/>
        <path class="cls-3" d="M626.9,56.4c-2.4,0-4.3-.7-5.8-2.2-1.5-1.5-2.2-3.4-2.2-5.8s.7-4.2,2.1-5.7c1.4-1.5,3.3-2.3,5.6-2.3s4.2.7,5.6,2.2,2.1,3.3,2.1,5.6,0,1.1,0,1.4h-11.5c.1,1,.6,1.9,1.3,2.5s1.7.9,3,.9,2.9-.7,3.6-2l3.5,1.1c-.5,1.1-1.3,2.2-2.6,3-1.2.9-2.8,1.3-4.5,1.3h0ZM630.4,47.1c0-1-.5-1.8-1.2-2.4-.7-.6-1.6-1-2.7-1s-2,.3-2.7,1-1.1,1.5-1.2,2.4h7.8Z"/>
        <path class="cls-3" d="M642.9,56.3c-1.8,0-3.3-.5-4.6-1.4s-2.2-2-2.6-3.3l3.5-1c.3.7.7,1.3,1.4,1.8s1.5.7,2.5.7,1.3-.1,1.8-.5.7-.7.7-1.1c0-.7-.5-1.2-1.6-1.5l-3.8-1.1c-2.4-.7-3.7-2.1-3.7-4s.6-2.3,1.7-3.2,2.6-1.3,4.2-1.3,2.9.4,4.1,1.1,2,1.6,2.5,2.8l-3.4,1c-.6-1.2-1.7-1.8-3.2-1.8s-1.1.1-1.5.4-.6.6-.6,1c0,.6.4,1,1.2,1.2l3.7,1.1c1.3.4,2.4.9,3.1,1.5.7.6,1.1,1.5,1.1,2.8s-.6,2.6-1.8,3.6c-1.2.9-2.7,1.4-4.6,1.4h0Z"/>
        <path class="cls-3" d="M443.4,68v21.9h-3.9v-1.9c-1.2,1.5-2.7,2.3-4.8,2.3s-3.8-.8-5.2-2.3c-1.4-1.5-2.1-3.4-2.1-5.7s.7-4.2,2.1-5.7c1.4-1.5,3.1-2.3,5.2-2.3s3.6.7,4.8,2.3v-8.6h3.9ZM435.5,86.8c1.2,0,2.2-.4,3-1.3s1.2-1.9,1.2-3.2-.4-2.3-1.2-3.2-1.8-1.3-3-1.3-2.2.4-3,1.2c-.8.8-1.2,1.9-1.2,3.2s.4,2.4,1.2,3.2c.8.8,1.8,1.3,3,1.3h0Z"/>
        <path class="cls-3" d="M454.3,90.4c-2.4,0-4.3-.7-5.8-2.2-1.5-1.5-2.2-3.4-2.2-5.8s.7-4.2,2.1-5.7c1.4-1.5,3.3-2.3,5.6-2.3s4.2.7,5.6,2.2,2.1,3.3,2.1,5.6,0,1.1,0,1.4h-11.5c.1,1,.6,1.9,1.3,2.5s1.7.9,3,.9,2.9-.7,3.6-2l3.5,1.1c-.5,1.1-1.3,2.2-2.6,3-1.2.9-2.8,1.3-4.5,1.3h0ZM457.9,81.1c0-1-.5-1.8-1.2-2.4-.7-.6-1.6-1-2.7-1s-2,.3-2.7,1-1.1,1.5-1.2,2.4h7.8Z"/>
        <path class="cls-3" d="M471.8,68h3.9v21.9h-3.9v-21.9Z"/>
        <path class="cls-3" d="M480.2,68.9h4.1l-2.3,8.3h-3.1l1.3-8.3Z"/>
        <path class="cls-3" d="M491.4,72.6v4.8h9.7v3.6h-9.7v5.2h11.1v3.7h-15.1v-21h15.1v3.7h-11.2Z"/>
        <path class="cls-3" d="M514.4,74.3c1.9,0,3.3.6,4.3,1.8,1,1.2,1.5,2.8,1.5,4.9v8.9h-3.9v-8.1c0-1.2-.3-2.1-.8-2.8-.5-.7-1.3-1-2.4-1s-1.9.4-2.6,1.2c-.7.8-1,1.9-1,3.2v7.5h-3.9v-15.2h3.9v1.9c1.2-1.6,2.8-2.3,4.8-2.3h0Z"/>
        <path class="cls-3" d="M537.9,74.7l-6.1,15.2h-4.4l-6.1-15.2h4.2l4.1,10.8,4.1-10.8h4.2Z"/>
        <path class="cls-3" d="M541.9,72.6c-.6,0-1.2-.2-1.6-.7-.4-.5-.7-1-.7-1.7s.2-1.2.7-1.6c.4-.4,1-.7,1.6-.7s1.2.2,1.6.7.7,1,.7,1.6-.2,1.2-.7,1.7-1,.7-1.6.7h0ZM539.9,74.8h3.9v15.2h-3.9v-15.2Z"/>
        <path class="cls-3" d="M551.5,77c1-2,2.6-2.8,4.9-2.5v3.7c-1.6-.3-2.8,0-3.6.8-.8.8-1.2,2.2-1.2,4.2v6.6h-3.9v-15.2h3.9v2.2h0Z"/>
        <path class="cls-3" d="M565.1,90.3c-2.3,0-4.2-.8-5.7-2.3s-2.2-3.4-2.2-5.7.8-4.2,2.3-5.7c1.5-1.5,3.4-2.3,5.7-2.3s4.2.8,5.7,2.3c1.5,1.5,2.2,3.4,2.2,5.7s-.7,4.2-2.2,5.7c-1.5,1.5-3.4,2.3-5.7,2.3h0ZM568.1,85.5c.8-.8,1.2-1.9,1.2-3.2s-.4-2.3-1.2-3.2c-.8-.8-1.8-1.2-3-1.2s-2.2.4-3,1.2c-.8.8-1.2,1.9-1.2,3.2s.4,2.3,1.2,3.2c.8.8,1.8,1.2,3,1.2s2.2-.4,3-1.2Z"/>
        <path class="cls-3" d="M584.5,74.3c1.9,0,3.3.6,4.3,1.8s1.5,2.8,1.5,4.9v8.9h-3.9v-8.1c0-1.2-.3-2.1-.8-2.8s-1.3-1-2.4-1-1.9.4-2.6,1.2c-.7.8-1,1.9-1,3.2v7.5h-3.9v-15.2h3.9v1.9c1.2-1.6,2.8-2.3,4.8-2.3h0Z"/>
        <path class="cls-3" d="M602.6,74.3c1.9,0,3.3.6,4.3,1.8,1,1.2,1.5,2.8,1.5,4.9v8.9h-3.9v-8.1c0-1.2-.3-2.1-.8-2.8-.5-.7-1.3-1-2.4-1s-1.9.4-2.6,1.2c-.7.8-1,1.9-1,3.2v7.5h-3.9v-15.2h3.9v1.9c1.2-1.6,2.8-2.3,4.8-2.3h0Z"/>
        <path class="cls-3" d="M619.2,90.4c-2.4,0-4.3-.7-5.8-2.2s-2.2-3.4-2.2-5.8.7-4.2,2.1-5.7c1.4-1.5,3.3-2.3,5.6-2.3s4.2.7,5.6,2.2,2.1,3.3,2.1,5.6,0,1.1,0,1.4h-11.5c.1,1,.6,1.9,1.3,2.5s1.7.9,3,.9,2.9-.7,3.6-2l3.5,1.1c-.5,1.1-1.3,2.2-2.6,3-1.2.9-2.8,1.3-4.5,1.3h0ZM622.8,81.1c0-1-.5-1.8-1.2-2.4-.7-.6-1.6-1-2.7-1s-2,.3-2.7,1c-.7.7-1.1,1.5-1.2,2.4h7.8Z"/>
        <path class="cls-3" d="M647.2,74.3c1.8,0,3.2.6,4.3,1.7,1.1,1.2,1.6,2.8,1.6,4.8v9h-3.9v-8.2c0-2.5-.9-3.7-2.8-3.7s-1.8.4-2.3,1.1-.8,1.8-.8,3.1v7.7h-3.9v-8.2c0-2.5-.9-3.7-2.8-3.7s-1.8.4-2.4,1.1-.8,1.8-.8,3.2v7.6h-3.9v-15.2h3.9v1.8c1.1-1.5,2.6-2.2,4.4-2.2s3.5.8,4.5,2.3c1.2-1.5,2.8-2.3,5-2.3h0Z"/>
        <path class="cls-3" d="M663.8,90.4c-2.4,0-4.3-.7-5.8-2.2s-2.2-3.4-2.2-5.8.7-4.2,2.1-5.7c1.4-1.5,3.3-2.3,5.6-2.3s4.2.7,5.6,2.2,2.1,3.3,2.1,5.6,0,1.1,0,1.4h-11.5c.1,1,.6,1.9,1.3,2.5.7.6,1.7.9,3,.9s2.9-.7,3.6-2l3.5,1.1c-.5,1.1-1.3,2.2-2.6,3-1.2.9-2.8,1.3-4.5,1.3h0ZM667.3,81.1c-.1-1-.5-1.8-1.2-2.4s-1.6-1-2.7-1-2,.3-2.7,1c-.7.7-1.1,1.5-1.2,2.4h7.8Z"/>
        <path class="cls-3" d="M682.7,74.3c1.9,0,3.3.6,4.3,1.8,1,1.2,1.5,2.8,1.5,4.9v8.9h-3.9v-8.1c0-1.2-.3-2.1-.8-2.8-.5-.7-1.3-1-2.4-1s-1.9.4-2.6,1.2c-.7.8-1,1.9-1,3.2v7.5h-3.9v-15.2h3.9v1.9c1.2-1.6,2.8-2.3,4.8-2.3h0Z"/>
        <path class="cls-3" d="M701.5,89.4c-1.2.5-2.3.7-3.5.7-1.6,0-2.9-.5-3.7-1.4-.8-1-1.2-2.3-1.2-4v-6.5h-2.5v-3.5h2.5v-4.9h3.9v4.9h4.3v3.5h-4.3v6.5c0,1.3.6,1.9,1.8,1.9s1.2-.1,1.8-.4l.9,3.2Z"/>
      </g>
      <g>
        <g>
          <rect class="cls-2" y="4.9" width="80.1" height="80.1"/>
          <path class="cls-4" d="M61.4,21.1v28.1c0,6.3-1.9,11.4-5.6,15.2-3.7,3.8-9,5.7-15.7,5.7s-12-1.9-15.8-5.7c-3.7-3.8-5.6-8.9-5.6-15.2v-28.1h11.5v27.9c0,3.2.8,5.8,2.5,7.7,1.7,2,4.1,3,7.3,3s5.6-1,7.3-3c1.7-2,2.5-4.5,2.5-7.7v-27.9h11.5Z"/>
          <rect class="cls-2" x="88.2" y="4.9" width="80.1" height="80.1"/>
          <rect class="cls-2" x="176.4" y="4.9" width="80.1" height="80.1"/>
          <rect class="cls-2" x="264.5" y="4.9" width="80.1" height="80.1"/>
          <polygon class="cls-4" points="153.8 20.9 153.8 69 142.4 69 142.4 40.8 128.3 60.2 114.2 40.8 114.2 69 102.8 69 102.8 20.9 113.6 20.9 128.3 42.3 142.9 20.9 153.8 20.9"/>
          <path class="cls-4" d="M221.8,58c1.3-1.3,2-3,2-5.1s-.7-3.7-2-5c-1.3-1.4-3.1-2-5.4-2s-4,.7-5.3,2c-1.4,1.3-2.1,3-2.1,5.1s.7,3.8,2,5.1c1.4,1.3,3.2,2,5.4,2s4-.7,5.4-2M230.4,41.2c3.2,3.1,4.8,7,4.8,11.7s-1.8,9.1-5.3,12.4c-3.6,3.3-8,4.9-13.4,4.9s-9.8-1.6-13.4-4.9c-3.6-3.3-5.4-7.4-5.4-12.4s1.1-6.6,3.4-10.2l13.6-21.6h12.8l-9.4,14.9c5,.4,9.1,2.1,12.2,5.2"/>
          <path class="cls-4" d="M311.8,43.3c1.3-1.4,1.9-3.1,1.9-4.9s-.6-3.5-1.8-4.9c-1.2-1.4-2.8-2.1-4.6-2.1h-11.6v14.1h11.1c2,0,3.7-.7,5-2.1M320,26.2c3.2,3.5,4.8,7.5,4.8,12s-1.6,8.6-4.8,12.1c-3.2,3.5-7.5,5.3-12.9,5.3h-11.4v13.4h-11.3V20.9h23.1c5.1,0,9.3,1.8,12.5,5.3"/>
        </g>
        <rect class="cls-1" x="384.9" y="4.9" width="1" height="80.2"/>
      </g>
    </g>
  </g>
</svg>