<?xml version="1.0" encoding="UTF-8"?>
<svg id="Layer_2" data-name="Layer 2" xmlns="http://www.w3.org/2000/svg" xmlns:xlink="http://www.w3.org/1999/xlink" viewBox="0 0 612 97.7">
  <defs>
    <style>
      .cls-1 {
        fill: #97452e;
      }

      .cls-1, .cls-2, .cls-3, .cls-4, .cls-5, .cls-6, .cls-7, .cls-8, .cls-9 {
        stroke-width: 0px;
      }

      .cls-1, .cls-10 {
        opacity: .5;
      }

      .cls-2 {
        fill: #d1451e;
      }

      .cls-3 {
        fill: #015389;
      }

      .cls-4 {
        fill: #003b75;
      }

      .cls-5 {
        fill: #d74a2a;
      }

      .cls-6 {
        fill: #fff;
      }

      .cls-7 {
        fill: url(#Dégradé_sans_nom_77);
      }

      .cls-8 {
        fill: url(#Dégradé_sans_nom_45);
      }

      .cls-9 {
        fill: url(#Dégradé_sans_nom_13);
      }
    </style>
    <linearGradient id="Dégradé_sans_nom_77" data-name="Dégradé sans nom 77" x1="455.8" y1="53" x2="463.7" y2="104.2" gradientUnits="userSpaceOnUse">
      <stop offset=".5" stop-color="#db8c4a"/>
      <stop offset=".9" stop-color="#c66f3a"/>
    </linearGradient>
    <linearGradient id="Dégradé_sans_nom_13" data-name="Dégradé sans nom 13" x1="463.3" y1="80.8" x2="335.4" y2="-55.9" gradientUnits="userSpaceOnUse">
      <stop offset=".1" stop-color="#1c4b8b"/>
      <stop offset=".2" stop-color="#3f6aa6"/>
      <stop offset=".3" stop-color="#63b9d4"/>
      <stop offset=".6" stop-color="#78bdca"/>
    </linearGradient>
    <linearGradient id="Dégradé_sans_nom_45" data-name="Dégradé sans nom 45" x1="469.5" y1="49.6" x2="373.9" y2="-104.2" gradientUnits="userSpaceOnUse">
      <stop offset=".1" stop-color="#16326e"/>
      <stop offset=".2" stop-color="#3f6aa6"/>
      <stop offset=".3" stop-color="#63b9d4"/>
      <stop offset=".6" stop-color="#78bdca"/>
    </linearGradient>
  </defs>
  <g id="Layer_1-2" data-name="Layer 1">
    <g>
      <g>
        <g>
          <rect class="cls-5" y="8.8" width="80.1" height="80.1"/>
          <path class="cls-6" d="M61.4,25v28.1c0,6.3-1.9,11.4-5.6,15.2-3.7,3.8-9,5.7-15.7,5.7s-12-1.9-15.8-5.7c-3.7-3.8-5.6-8.9-5.6-15.2v-28.1h11.5v27.9c0,3.2.8,5.8,2.5,7.7,1.7,2,4.1,3,7.3,3s5.6-1,7.3-3c1.7-2,2.5-4.5,2.5-7.7v-27.9h11.5Z"/>
          <rect class="cls-5" x="88.2" y="8.8" width="80.1" height="80.1"/>
          <rect class="cls-5" x="176.4" y="8.8" width="80.1" height="80.1"/>
          <rect class="cls-5" x="264.5" y="8.8" width="80.1" height="80.1"/>
          <polygon class="cls-6" points="153.8 24.8 153.8 72.9 142.4 72.9 142.4 44.7 128.3 64 114.2 44.7 114.2 72.9 102.8 72.9 102.8 24.8 113.6 24.8 128.3 46.2 142.9 24.8 153.8 24.8"/>
          <path class="cls-6" d="M221.8,61.9c1.3-1.3,2-3,2-5.1s-.7-3.7-2-5c-1.3-1.4-3.1-2-5.4-2s-4,.7-5.3,2c-1.4,1.3-2.1,3-2.1,5.1s.7,3.8,2,5.1c1.4,1.3,3.2,2,5.4,2s4-.7,5.4-2M230.4,45c3.2,3.1,4.8,7,4.8,11.7s-1.8,9.1-5.3,12.4-8,4.9-13.4,4.9-9.8-1.6-13.4-4.9c-3.6-3.3-5.4-7.4-5.4-12.4s1.1-6.6,3.4-10.2l13.6-21.6h12.8l-9.4,14.9c5,.4,9.1,2.1,12.2,5.2"/>
          <path class="cls-6" d="M311.8,47.1c1.3-1.4,1.9-3.1,1.9-4.9s-.6-3.5-1.8-4.9c-1.2-1.4-2.8-2.1-4.6-2.1h-11.6v14.1h11.1c2,0,3.7-.7,5-2.1M320,30.1c3.2,3.5,4.8,7.5,4.8,12s-1.6,8.6-4.8,12.1c-3.2,3.5-7.5,5.3-12.9,5.3h-11.4v13.4h-11.3V24.8h23.1c5.1,0,9.3,1.8,12.5,5.3"/>
        </g>
        <rect class="cls-2" x="384.9" y="8.8" width="1" height="80.2"/>
      </g>
      <g>
        <g>
          <g>
            <polygon class="cls-7" points="470.9 78.3 442.8 95.7 441.9 50.2 473.1 38 473.1 77.9 470.9 78.3"/>
            <g>
              <g class="cls-10">
                <rect class="cls-1" x="449.2" y="81" width="1.9" height="2"/>
                <rect class="cls-1" x="452" y="81" width="1.9" height="2"/>
                <rect class="cls-1" x="454.9" y="81" width="1.9" height="2"/>
                <rect class="cls-1" x="457.7" y="81" width="1.9" height="2"/>
              </g>
              <g class="cls-10">
                <rect class="cls-1" x="449.2" y="77.7" width="1.9" height="2"/>
                <rect class="cls-1" x="452" y="77.7" width="1.9" height="2"/>
                <rect class="cls-1" x="454.9" y="77.7" width="1.9" height="2"/>
                <rect class="cls-1" x="457.7" y="77.7" width="1.9" height="2"/>
              </g>
              <g class="cls-10">
                <rect class="cls-1" x="449.2" y="74.3" width="1.9" height="2"/>
                <rect class="cls-1" x="452" y="74.3" width="1.9" height="2"/>
                <rect class="cls-1" x="454.9" y="74.3" width="1.9" height="2"/>
                <rect class="cls-1" x="457.7" y="74.3" width="1.9" height="2"/>
              </g>
              <g class="cls-10">
                <rect class="cls-1" x="449.2" y="71" width="1.9" height="2"/>
                <rect class="cls-1" x="452" y="71" width="1.9" height="2"/>
                <rect class="cls-1" x="454.9" y="71" width="1.9" height="2"/>
                <rect class="cls-1" x="457.7" y="71" width="1.9" height="2"/>
              </g>
              <g class="cls-10">
                <rect class="cls-1" x="449.2" y="67.7" width="1.9" height="2"/>
                <rect class="cls-1" x="452" y="67.7" width="1.9" height="2"/>
                <rect class="cls-1" x="454.9" y="67.7" width="1.9" height="2"/>
                <rect class="cls-1" x="457.7" y="67.7" width="1.9" height="2"/>
              </g>
              <g class="cls-10">
                <rect class="cls-1" x="449.2" y="64.3" width="1.9" height="2"/>
                <rect class="cls-1" x="452" y="64.3" width="1.9" height="2"/>
                <rect class="cls-1" x="454.9" y="64.3" width="1.9" height="2"/>
                <rect class="cls-1" x="457.7" y="64.3" width="1.9" height="2"/>
              </g>
              <g class="cls-10">
                <rect class="cls-1" x="449.2" y="61" width="1.9" height="2"/>
                <rect class="cls-1" x="452" y="61" width="1.9" height="2"/>
                <rect class="cls-1" x="454.9" y="61" width="1.9" height="2"/>
                <rect class="cls-1" x="457.7" y="61" width="1.9" height="2"/>
              </g>
              <g class="cls-10">
                <rect class="cls-1" x="449.2" y="57.7" width="1.9" height="2"/>
                <rect class="cls-1" x="452" y="57.7" width="1.9" height="2"/>
                <rect class="cls-1" x="454.9" y="57.7" width="1.9" height="2"/>
                <rect class="cls-1" x="457.7" y="57.7" width="1.9" height="2"/>
              </g>
              <g class="cls-10">
                <rect class="cls-1" x="449.2" y="54.4" width="1.9" height="2"/>
                <rect class="cls-1" x="452" y="54.4" width="1.9" height="2"/>
                <rect class="cls-1" x="454.9" y="54.4" width="1.9" height="2"/>
                <rect class="cls-1" x="457.7" y="54.4" width="1.9" height="2"/>
              </g>
              <g class="cls-10">
                <rect class="cls-1" x="449.2" y="51" width="1.9" height="2"/>
                <rect class="cls-1" x="452" y="51" width="1.9" height="2"/>
                <rect class="cls-1" x="454.9" y="51" width="1.9" height="2"/>
                <rect class="cls-1" x="457.7" y="51" width="1.9" height="2"/>
              </g>
              <g class="cls-10">
                <rect class="cls-1" x="461.9" y="51" width="1.9" height="2"/>
                <rect class="cls-1" x="464.8" y="51" width="1.9" height="2"/>
                <rect class="cls-1" x="467.6" y="51" width="1.9" height="2"/>
              </g>
              <g class="cls-10">
                <rect class="cls-1" x="461.9" y="54.4" width="1.9" height="2"/>
                <rect class="cls-1" x="464.8" y="54.4" width="1.9" height="2"/>
                <rect class="cls-1" x="467.6" y="54.4" width="1.9" height="2"/>
              </g>
              <g class="cls-10">
                <rect class="cls-1" x="461.9" y="57.8" width="1.9" height="2"/>
                <rect class="cls-1" x="464.8" y="57.8" width="1.9" height="2"/>
                <rect class="cls-1" x="467.6" y="57.8" width="1.9" height="2"/>
              </g>
              <g class="cls-10">
                <rect class="cls-1" x="461.9" y="61.2" width="1.9" height="2"/>
                <rect class="cls-1" x="464.8" y="61.2" width="1.9" height="2"/>
                <rect class="cls-1" x="467.6" y="61.2" width="1.9" height="2"/>
              </g>
              <g class="cls-10">
                <rect class="cls-1" x="461.9" y="64.6" width="1.9" height="2"/>
                <rect class="cls-1" x="464.8" y="64.6" width="1.9" height="2"/>
                <rect class="cls-1" x="467.6" y="64.6" width="1.9" height="2"/>
              </g>
              <g class="cls-10">
                <rect class="cls-1" x="461.9" y="68" width="1.9" height="2"/>
                <rect class="cls-1" x="464.8" y="68" width="1.9" height="2"/>
                <rect class="cls-1" x="467.6" y="68" width="1.9" height="2"/>
              </g>
              <g class="cls-10">
                <rect class="cls-1" x="461.9" y="71.4" width="1.9" height="2"/>
                <rect class="cls-1" x="464.8" y="71.4" width="1.9" height="2"/>
                <rect class="cls-1" x="467.6" y="71.4" width="1.9" height="2"/>
              </g>
              <g class="cls-10">
                <rect class="cls-1" x="461.9" y="74.8" width="1.9" height="2"/>
                <rect class="cls-1" x="464.8" y="74.8" width="1.9" height="2"/>
                <rect class="cls-1" x="467.6" y="74.8" width="1.9" height="2"/>
              </g>
            </g>
          </g>
          <path class="cls-9" d="M439.5,62.5v6l-15.1-6c-7.3-3.1-15.9-8-17-19.4-1.9-20.1,19.9-25.1,20.9-25.5,1.5-.6,3.3,0,3.9,1.6.6,1.5,0,3.3-1.6,3.9-.7.3-17.3,3.1-17.3,17.5s0,1.2,0,1.9c.6,6.6,4.5,10.7,13.3,14.4l12.8,5.5Z"/>
          <path class="cls-8" d="M446.7,8l1.3.3,59,14.4.2-3.9c0-1.5-1.1-2.8-2.6-3.2l-54.9-14.1h0l-5-1.5c-.9-.2-1.8,0-2.5.5-.7.5-1.2,1.4-1.2,2.3v91.9c0,1,.6,2,1.5,2.5.4.2.9.4,1.4.4s1-.1,1.5-.4l27.3-16.8c.9-.6,1.5-1.6,1.4-2.7,0-1.1-.8-2-1.8-2.4l-24.1-10v6.3l16.7,6.9-18,11.1V8Z"/>
          <path class="cls-3" d="M463,55.5l12.3-16.8,30.8-11.6-59.4-14.9v1.1l30.3,7.7-11.7,5.5h-.1s-18.4-4.4-18.4-4.4v.8l17.4,4.1-11.7,5.5-5.7-1.2v.8l4.5,1-4.5,2.1v1.2l6.3-2.9,10.1,2.2-6.1,23.2-10.3-10.7v5.1l8,7.7c1,1,1.8,2.1,2.3,3.5.6,1.6,1.3,4,1.8,7.5,1,6.8,1.3,9.4,1.3,9.4l4.6-2.9-3.7-9.8c-1.4-3.6-1.2-7.6.5-11.1.4-.7.9-1.5,1.4-2.2ZM478.6,21.5l23.2,5.9-13.2,4.9-17.9-4.4-3.6-.9,11.6-5.5ZM466.3,27.6l4.1,1,16.3,4.3-12.2,4.5-10-2.2,1.7-7.6ZM454.1,33l11-5.2-1.9,7.2-9.1-2ZM464.4,36l8.6,1.9-12.6,16.3,4-18.1Z"/>
        </g>
        <g>
          <g>
            <path class="cls-4" d="M498.6,50.3h-.5c0,0-.1,0-.1.1-.2,1-.6,1.8-1,2.3-.4.5-.8.9-1.3,1.1-.4.2-1,.3-1.7.3h-1c-1.1,0-1.4-.2-1.6-.4-.1-.2-.3-.8-.3-2.8v-3.1h1.4c.6,0,1,0,1.2.1.2,0,.4.2.5.4,0,.2.2.5.2,1.5s0,.1.1.1h.5c0,0,.1,0,.1-.1v-4.6c0,0,0-.1-.1-.1h-.5c0,0-.1,0-.1.1,0,.6,0,1.1-.1,1.3,0,.2-.2.3-.4.4-.2.1-.7.2-1.3.2h-1.3v-5.4h1.7c.9,0,1.6,0,2,.2.4,0,.7.3,1,.7.3.4.6,1,.8,2,0,0,0,.1.1.1h.5s0,0,0,0,0,0,0-.1l-.3-3.4c0,0,0-.1-.1-.1h-9.7c0,0-.1,0-.1.1v.5c0,0,0,.1.1.1.8,0,1.1,0,1.2.2.2.1.3.3.3.6,0,.3,0,1,0,2v6.6c0,1.1,0,1.8,0,2.1,0,.2-.2.5-.3.6-.1.1-.4.2-1.2.2h-.3c0,0-.1,0-.1.1v.5c0,0,0,.1.1.1h11.2c0,0,.1,0,.1-.1l.3-4.2s0,0,0,0c0,0,0,0,0,0Z"/>
            <path class="cls-4" d="M515.5,54.1c-.5,0-.9,0-1.3-.2-.2-.1-.8-.6-2.3-2.5l-3.4-4.2,2.1-2.6c.7-.9,1.4-1.6,1.9-2.1.6-.5,1.3-.7,2.1-.7s.1,0,.1-.1v-.5c0,0,0-.1-.1-.1h-5.1c0,0-.1,0-.1.1v.5c0,0,0,.1.1.1.6,0,1.1,0,1.3.2.2,0,.3.2.3.5s0,.3-.1.4c0,.2-.4.5-.9,1.1l-2.1,2.7-2.4-2.9c-.4-.5-.7-.8-.8-1-.1-.2-.2-.3-.2-.5s0-.5,1-.5h.2c0,0,.1,0,.1-.1v-.5c0,0,0-.1-.1-.1h-5.8c0,0-.1,0-.1.1v.5c0,0,0,.1.1.1.5,0,.9,0,1.1.3.3.2.5.4.8.7l4.6,5.6-2.2,2.6c-.7.9-1.3,1.5-1.6,1.9-.4.4-.8.7-1.2.9-.4.2-.9.3-1.5.4,0,0-.1,0-.1.1v.5c0,0,0,.1.1.1h5.2c0,0,.1,0,.1-.1v-.5c0,0,0-.1-.1-.1-1.4,0-1.4-.7-1.4-.9s0-.4.2-.6c.1-.2.5-.7,1-1.3l2-2.4,2.3,2.8c.5.6.8,1,.9,1.2.1.2.2.3.2.5,0,.2-.1.4-.3.5-.3.1-.7.2-1.4.2s-.1,0-.1.1v.5c0,0,0,.1.1.1h6.7c0,0,.1,0,.1-.1v-.5c0,0,0-.1-.1-.1Z"/>
            <path class="cls-4" d="M528.4,50.3h-.5c0,0-.1,0-.1.1-.2,1-.6,1.8-1,2.3-.4.5-.8.9-1.3,1.1-.4.2-1,.3-1.7.3h-1c-1.1,0-1.4-.2-1.6-.4-.1-.2-.3-.8-.3-2.8v-3.1h1.4c.6,0,1,0,1.2.1.2,0,.4.2.5.4.1.2.2.7.2,1.5s0,.1.1.1h.5c0,0,.1,0,.1-.1v-4.6c0,0,0-.1-.1-.1h-.5c0,0-.1,0-.1.1,0,.6,0,1.1-.1,1.3,0,.2-.2.3-.4.4-.2.1-.7.2-1.3.2h-1.3v-5.4h1.7c.9,0,1.6,0,2,.2.4,0,.7.3,1,.7.3.4.6,1,.8,2,0,0,0,.1.1.1h.5s0,0,0,0,0,0,0-.1l-.3-3.4c0,0,0-.1-.1-.1h-9.7c0,0-.1,0-.1.1v.5c0,0,0,.1.1.1.8,0,1.1,0,1.2.2.2.1.3.3.3.6,0,.3,0,1,0,2v6.6c0,1.1,0,1.8,0,2.1,0,.2-.2.4-.3.6-.1.1-.4.2-1.2.2h-.3c0,0-.1,0-.1.1v.5c0,0,0,.1.1.1h11.2c0,0,.1,0,.1-.1l.3-4.2s0,0,0,0c0,0,0,0,0,0Z"/>
            <path class="cls-4" d="M537.6,41.5c1.1,0,2.1.4,3,1,.9.7,1.5,1.9,1.8,3.7,0,0,0,.1.1.1h.4s0,0,0,0c0,0,0,0,0,0v-5.1c-.1,0-.2-.1-.3-.1h-.4c0,0-.1,0-.1.1,0,.5-.2,1-.4,1.5-.4-.5-1-.9-1.8-1.3-.8-.4-1.8-.6-2.8-.6s-2.4.3-3.4.9c-1,.6-1.9,1.5-2.4,2.7-.6,1.2-.9,2.5-.9,3.8,0,2.1.6,3.7,1.9,5,1.3,1.3,2.9,1.9,4.9,1.9s3.4-.7,4.5-1.9c.3.4.4.8.5,1.2,0,0,0,.1.1.1h.4c0,0,.1,0,.1-.1v-4.7c0,0,0-.1-.1-.1h-.4c0,0-.1,0-.1.1,0,.8-.3,1.6-.8,2.4-.4.8-1,1.4-1.7,1.7-.7.3-1.5.5-2.2.5-1.3,0-2.4-.5-3.3-1.6-.9-1.1-1.3-2.6-1.3-4.6s.4-3.7,1.2-4.9c.8-1.1,1.9-1.7,3.3-1.7Z"/>
            <path class="cls-4" d="M560.3,41h-4.5c0,0-.1,0-.1.1v.5c0,0,0,.1.1.1.6,0,1,.1,1.3.3.3.2.4.4.5.7,0,.3.1.8.1,1.6v4.6c0,1,0,1.8-.1,2.3,0,.5-.3.9-.6,1.4-.3.4-.8.8-1.5,1.1-.7.3-1.4.5-2.2.5s-1.8-.2-2.4-.7c-.6-.4-1-1-1.1-1.5-.1-.6-.2-1.7-.2-3.1v-4.3c0-1.1,0-1.8.1-2.1,0-.3.2-.4.3-.5.1,0,.4-.1,1.2-.1h.3c0,0,.1,0,.1-.1v-.5c0,0,0-.1-.1-.1h-6.2c0,0-.1,0-.1.1v.5c0,0,0,.1.1.1h.3c.8,0,1.1,0,1.3.2.2.1.3.3.3.6,0,.3,0,1,0,2.1v5.6c0,1.1.2,2,.5,2.7.4.7,1,1.2,1.8,1.6.8.4,1.9.6,3.1.6s2-.2,2.7-.5c.8-.3,1.4-.8,1.9-1.3.4-.6.7-1.1.8-1.7,0-.6.1-1.4.1-2.6v-4.5c0-.8,0-1.4,0-1.6,0-.3.2-.5.5-.7.3-.2.7-.3,1.3-.4,0,0,.1,0,.1-.1v-.5c0,0,0-.1-.1-.1Z"/>
            <path class="cls-4" d="M575.1,41h-13.1c0,0-.1,0-.1.1v3.3c0,0,0,0,0,0,0,0,0,0,0,0h.5c0,0,.1,0,.1-.1.1-.8.3-1.5.6-1.9.2-.4.5-.6.8-.7.3,0,.9-.1,1.7-.1h1.9v9.4c0,1.1,0,1.8,0,2.1,0,.3-.2.5-.4.6-.2.1-.6.2-1.1.2h-.7c0,0-.1,0-.1.1v.5c0,0,0,.1.1.1h6.7c0,0,.1,0,.1-.1v-.5c0,0,0-.1-.1-.1h-.7c-.7,0-1-.1-1.2-.2-.2-.1-.3-.4-.4-.7,0-.3,0-1,0-2.1v-9.4h2c.7,0,1.2,0,1.5.1.3,0,.5.3.8.7.3.4.5,1,.6,1.9,0,0,0,.1.1.1h.4s0,0,0,0c0,0,0,0,0,0v-3.3c0,0-.1-.1-.2-.1Z"/>
            <path class="cls-4" d="M583,41h-6.2c0,0-.1,0-.1.1v.5c0,0,0,.1.1.1h.3c.8,0,1.1,0,1.3.2.2.1.3.3.3.6,0,.3,0,1,0,2.1v6.6c0,1.1,0,1.8,0,2.1,0,.3-.2.5-.4.6-.2.1-.6.2-1.1.2h-.4c0,0-.1,0-.1.1v.5c0,0,0,.1.1.1h6.2c0,0,.1,0,.1-.1v-.5c0,0,0-.1-.1-.1h-.4c-.7,0-1-.1-1.2-.2-.2-.1-.3-.4-.3-.6,0-.3,0-1,0-2.1v-6.6c0-1.1,0-1.8.1-2.1,0-.3.2-.4.3-.5.1,0,.4-.1,1.2-.1h.3c0,0,.1,0,.1-.1v-.5c0,0,0-.1-.1-.1Z"/>
            <path class="cls-4" d="M599,41h-4.1c0,0-.1,0-.1.1v.5c0,0,0,.1.1.1,1,0,1.5.4,1.5,1.1s-.3,1.2-.8,2.4l-3,7.2-3.8-8.7c-.4-.9-.5-1.2-.5-1.3,0-.2,0-.4.3-.5.2,0,.7-.1,1.4-.1s.1,0,.1-.1v-.5c0,0,0-.1-.1-.1h-5.8c0,0-.1,0-.1.1v.5c0,0,0,.1.1.1.6,0,1,.1,1.3.3.3.2.5.6.8,1.2.2.5.3.8.4,1l4.7,10.8s0,0,.1,0h.6c0,0,.1,0,.1,0l4-9.6.9-2.1c.2-.5.5-.9.8-1.2.3-.3.6-.4,1-.4,0,0,.1,0,.1-.1v-.5c0,0,0-.1-.1-.1Z"/>
            <path class="cls-4" d="M612,50.4s0,0,0,0h-.5c0,0-.1,0-.1.1-.2,1-.6,1.8-1,2.3-.4.5-.8.9-1.3,1.1-.4.2-1,.3-1.7.3h-1c-1.1,0-1.4-.2-1.6-.4-.1-.2-.3-.8-.3-2.8v-3.1h1.4c.6,0,1,0,1.2.1.2,0,.4.2.5.4,0,.2.2.5.2,1.5s0,.1.1.1h.5c0,0,.1,0,.1-.1v-4.6c0,0,0-.1-.1-.1h-.5c0,0-.1,0-.1.1,0,.6,0,1.1-.1,1.3,0,.2-.2.3-.4.4-.2.1-.7.2-1.3.2h-1.3v-5.4h1.7c.9,0,1.6,0,2,.2.4,0,.7.3,1,.7.3.4.6,1,.8,2,0,0,0,.1.1.1h.5s0,0,0,0,0,0,0-.1l-.3-3.4c0,0,0-.1-.1-.1h-9.7c0,0-.1,0-.1.1v.5c0,0,0,.1.1.1.8,0,1.1,0,1.2.2.2.1.3.3.3.6,0,.3,0,1,0,2v6.6c0,1.1,0,1.8,0,2.1,0,.2-.2.5-.3.6-.1.1-.4.2-1.2.2h-.3c0,0-.1,0-.1.1v.5c0,0,0,.1.1.1h11.2c0,0,.1,0,.1-.1l.3-4.2s0,0,0,0Z"/>
          </g>
          <g>
            <path class="cls-4" d="M498.6,68.3h-.5c0,0-.1,0-.1.1-.2,1-.6,1.8-1,2.3-.4.5-.8.9-1.3,1.1-.4.2-1,.3-1.7.3h-1c-1.1,0-1.4-.2-1.6-.4-.1-.2-.3-.8-.3-2.8v-3.1h1.4c.6,0,1,0,1.2.1.2,0,.4.2.5.4,0,.2.2.5.2,1.5s0,.1.1.1h.5c0,0,.1,0,.1-.1v-4.6c0,0,0-.1-.1-.1h-.5c0,0-.1,0-.1.1,0,.6,0,1.1-.1,1.3,0,.2-.2.3-.4.4-.2.1-.7.2-1.3.2h-1.3v-5.4h1.7c.9,0,1.6,0,2,.2.4,0,.7.3,1,.7.3.4.6,1,.8,2,0,0,0,.1.1.1h.5s0,0,0,0,0,0,0-.1l-.3-3.4c0,0,0-.1-.1-.1h-9.7c0,0-.1,0-.1.1v.5c0,0,0,.1.1.1.8,0,1.1,0,1.2.2.2.1.3.3.3.6,0,.3,0,1,0,2v6.6c0,1.1,0,1.8,0,2.1,0,.2-.2.5-.3.6-.1.1-.4.2-1.2.2h-.3c0,0-.1,0-.1.1v.5c0,0,0,.1.1.1h11.2c0,0,.1,0,.1-.1l.3-4.2s0,0,0,0c0,0,0,0,0,0Z"/>
            <path class="cls-4" d="M510.9,59.8c-1.1-.6-2.7-.9-4.8-.9s-1.9,0-3.8.1h-2.2c0,.1-.1.2-.1.2v.5c0,0,0,.1.1.1h.4c.8,0,1.1,0,1.3.2.2,0,.3.3.3.6,0,.3,0,1,0,2.1v6.5c0,1.1,0,1.8,0,2.1,0,.3-.2.5-.4.6-.2.1-.6.2-1.1.2h-.6c0,0-.1,0-.1.1v.5c0,0,0,.1.1.1h6c1.1,0,2,0,2.6-.1.6,0,1.3-.3,2-.5.7-.3,1.3-.7,1.9-1.3.5-.6,1-1.3,1.3-2.1.3-.8.5-1.8.5-2.8s-.3-2.6-.8-3.7c-.6-1.1-1.4-1.9-2.6-2.5ZM504.5,68.6v-8.9c.5,0,.9,0,1.4,0,1,0,1.9.1,2.5.3.6.2,1.2.6,1.8,1.1.5.5,1,1.3,1.2,2.1.3.9.4,1.9.4,3s-.3,2.6-.7,3.6c-.5.9-1.1,1.5-1.8,1.8-.7.3-1.7.5-2.9.5s-1.4-.1-1.5-.2c-.2-.1-.3-.4-.4-.7,0-.4,0-1.2,0-2.6Z"/>
            <path class="cls-4" d="M530.4,59h-4.5c0,0-.1,0-.1.1v.5c0,0,0,.1.1.1.6,0,1,.1,1.3.3.3.2.4.4.5.7,0,.3.1.8.1,1.6v4.6c0,1,0,1.8-.1,2.3,0,.5-.3.9-.6,1.4-.3.4-.8.8-1.5,1.1-.7.3-1.4.5-2.2.5s-1.8-.2-2.4-.7c-.6-.4-1-1-1.1-1.5-.1-.6-.2-1.7-.2-3.1v-4.3c0-1.1,0-1.8.1-2.1,0-.3.2-.4.3-.5.1,0,.4-.1,1.2-.1h.3c0,0,.1,0,.1-.1v-.5c0,0,0-.1-.1-.1h-6.2c0,0-.1,0-.1.1v.5c0,0,0,.1.1.1h.3c.8,0,1.1,0,1.3.2.2.1.3.3.3.6,0,.3,0,1,0,2.1v5.6c0,1.1.2,2,.5,2.7.4.7,1,1.2,1.8,1.6.8.4,1.9.6,3.1.6s2-.2,2.7-.5c.8-.3,1.4-.8,1.9-1.3.4-.6.7-1.1.8-1.7,0-.6.1-1.4.1-2.6v-4.5c0-.8,0-1.4,0-1.6,0-.3.2-.5.5-.7.3-.2.7-.3,1.3-.4,0,0,.1,0,.1-.1v-.5c0,0,0-.1-.1-.1Z"/>
            <path class="cls-4" d="M537.7,59.5c1.1,0,2.1.4,3,1,.9.7,1.5,1.9,1.8,3.7,0,0,0,.1.1.1h.4s0,0,0,0c0,0,0,0,0,0v-5.1c-.1,0-.2-.1-.3-.1h-.4c0,0-.1,0-.1.1,0,.5-.2,1-.4,1.5-.4-.5-1-.9-1.8-1.3-.8-.4-1.8-.6-2.8-.6s-2.4.3-3.4.9c-1,.6-1.9,1.5-2.4,2.7-.6,1.2-.9,2.5-.9,3.8,0,2.1.6,3.7,1.9,5,1.3,1.3,2.9,1.9,4.9,1.9s3.4-.7,4.5-1.9c.3.4.4.8.5,1.2,0,0,0,.1.1.1h.4c0,0,.1,0,.1-.1v-4.7c0,0,0-.1-.1-.1h-.4c0,0-.1,0-.1.1,0,.8-.3,1.6-.8,2.4-.4.8-1,1.4-1.7,1.7-.7.3-1.5.5-2.2.5-1.3,0-2.4-.5-3.3-1.6-.9-1.1-1.3-2.6-1.3-4.6s.4-3.7,1.2-4.9c.8-1.1,1.9-1.7,3.3-1.7Z"/>
            <path class="cls-4" d="M559.4,72.1c-.4,0-.8-.2-1-.3-.2-.2-.4-.4-.5-.7l-.6-1.4-4.5-10.7s0,0-.1,0h-.4c0,0-.1,0-.1,0l-3.9,9.4c-.3.7-.4,1.1-.5,1.2-.4,1-.8,1.7-1,2-.3.3-.7.5-1.3.6,0,0-.1,0-.1.1v.5c0,0,0,.1.1.1h4c0,0,.1,0,.1-.1v-.5c0,0,0-.1-.1-.1-.4,0-.7,0-1-.3-.2-.2-.4-.5-.4-.8s.3-1.2.8-2.4l.3-.8h5l1,2.4c.4.9.4,1.2.4,1.3,0,.2,0,.4-.3.5-.2,0-.6.1-1.3.1s-.1,0-.1.1v.5c0,0,0,.1.1.1h5.3c0,0,.1,0,.1-.1v-.5c0,0,0-.1-.1-.1ZM549.5,67.1l2.2-5.3,2.2,5.3h-4.4Z"/>
            <path class="cls-4" d="M572.1,59h-13.1c0,0-.1,0-.1.1v3.3c0,0,0,0,0,0,0,0,0,0,0,0h.5c0,0,.1,0,.1-.1.1-.8.3-1.5.6-1.9.2-.4.5-.6.8-.7.3,0,.9-.1,1.7-.1h1.9v9.4c0,1.1,0,1.8,0,2.1,0,.3-.2.5-.4.6-.2.1-.6.2-1.1.2h-.7c0,0-.1,0-.1.1v.5c0,0,0,.1.1.1h6.7c0,0,.1,0,.1-.1v-.5c0,0,0-.1-.1-.1h-.7c-.7,0-1-.1-1.2-.2-.2-.1-.3-.4-.4-.7,0-.3,0-1,0-2.1v-9.4h2c.7,0,1.2,0,1.5.1.3,0,.5.3.8.7.3.4.5,1,.6,1.9,0,0,0,.1.1.1h.4s0,0,0,0c0,0,0,0,0,0v-3.3c0,0-.1-.1-.2-.1Z"/>
            <path class="cls-4" d="M579.5,59h-6.2c0,0-.1,0-.1.1v.5c0,0,0,.1.1.1h.3c.8,0,1.1,0,1.3.2.2.1.3.3.3.6,0,.3,0,1,0,2.1v6.6c0,1.1,0,1.8,0,2.1,0,.3-.2.5-.4.6-.2.1-.6.2-1.1.2h-.4c0,0-.1,0-.1.1v.5c0,0,0,.1.1.1h6.2c0,0,.1,0,.1-.1v-.5c0,0,0-.1-.1-.1h-.4c-.7,0-1-.1-1.2-.2-.2-.1-.3-.4-.3-.6,0-.3,0-1,0-2.1v-6.6c0-1.1,0-1.8.1-2.1,0-.3.2-.4.3-.5.1,0,.4-.1,1.2-.1h.3c0,0,.1,0,.1-.1v-.5c0,0,0-.1-.1-.1Z"/>
            <path class="cls-4" d="M593.9,60.7c-1.4-1.3-3.2-1.9-5.4-1.9s-3.9.6-5.3,1.9c-1.4,1.3-2.1,3-2.1,5.1s.7,3.9,2.1,5.3c1.4,1.3,3.2,2,5.4,2s4.1-.7,5.4-2c1.4-1.3,2.1-3.1,2.1-5.2s-.7-3.9-2.2-5.2ZM592.3,70.7c-.9,1.1-2,1.6-3.5,1.6s-3-.5-3.8-1.6c-.8-1.1-1.3-2.7-1.3-4.8s.4-3.7,1.3-4.8c.8-1.1,2.1-1.6,3.6-1.6s2.8.5,3.7,1.6c.8,1.1,1.3,2.7,1.3,4.8s-.4,3.7-1.3,4.8Z"/>
            <path class="cls-4" d="M611.9,59h-4.9c0,0-.1,0-.1.1v.5c0,0,0,.1.1.1.5,0,1,0,1.3.2.3.1.6.3.7.5.1.2.2.6.2,1.2v7.7l-7.8-10.3s0,0-.1,0h-4c0,0-.1,0-.1.1v.5c0,0,0,.1.1.1.9,0,1.2,0,1.3.1.2,0,.3.3.4.6,0,.3.1,1,.1,2.1v7.2c0,.8,0,1.3,0,1.5,0,.2-.2.4-.5.5-.3.2-.8.3-1.4.3,0,0-.1,0-.1.1v.5c0,0,0,.1.1.1h5c0,0,.1,0,.1-.1v-.5c0,0,0-.1-.1-.1-.7,0-1.2,0-1.6-.3-.3-.2-.5-.4-.6-.6,0-.2-.1-.7-.1-1.5v-9l9.3,12.4s0,0,.1,0h.4c0,0,.1,0,.1-.1v-11.2c0-.6,0-1,.1-1.2,0-.2.3-.4.6-.6.3-.2.7-.3,1.3-.3,0,0,.1,0,.1-.1v-.5c0,0,0-.1-.1-.1Z"/>
          </g>
        </g>
      </g>
    </g>
  </g>
</svg>