<?xml version="1.0" encoding="UTF-8"?>
<svg id="Layer_2" data-name="Layer 2" xmlns="http://www.w3.org/2000/svg" xmlns:xlink="http://www.w3.org/1999/xlink" viewBox="0 0 663 91.4">
  <defs>
    <style>
      .cls-1 {
        fill: #d1451e;
      }

      .cls-1, .cls-2, .cls-3, .cls-4, .cls-5, .cls-6, .cls-7, .cls-8, .cls-9, .cls-10, .cls-11, .cls-12, .cls-13, .cls-14, .cls-15 {
        stroke-width: 0px;
      }

      .cls-2 {
        fill: url(#linear-gradient);
      }

      .cls-3 {
        fill: url(#linear-gradient-11);
      }

      .cls-4 {
        fill: url(#linear-gradient-10);
      }

      .cls-5 {
        fill: #58595b;
      }

      .cls-6 {
        fill: #d74a2a;
      }

      .cls-7 {
        fill: url(#linear-gradient-4);
      }

      .cls-8 {
        fill: url(#linear-gradient-2);
      }

      .cls-9 {
        fill: url(#linear-gradient-3);
      }

      .cls-10 {
        fill: url(#linear-gradient-8);
      }

      .cls-11 {
        fill: url(#linear-gradient-9);
      }

      .cls-12 {
        fill: url(#linear-gradient-7);
      }

      .cls-13 {
        fill: url(#linear-gradient-5);
      }

      .cls-14 {
        fill: url(#linear-gradient-6);
      }

      .cls-15 {
        fill: #fff;
      }
    </style>
    <linearGradient id="linear-gradient" x1="2579.1" y1="6483.5" x2="2485.7" y2="6486.1" gradientTransform="translate(-2069 -6452.4)" gradientUnits="userSpaceOnUse">
      <stop offset="0" stop-color="#70c2d6"/>
      <stop offset="1" stop-color="#70c2d6" stop-opacity="0"/>
    </linearGradient>
    <linearGradient id="linear-gradient-2" x1="-7930.9" y1="-3005.1" x2="-8024.3" y2="-3002.5" gradientTransform="translate(-7514.5 -2944.7) rotate(-180)" gradientUnits="userSpaceOnUse">
      <stop offset="0" stop-color="#53abdd"/>
      <stop offset="1" stop-color="#53abdd" stop-opacity="0"/>
    </linearGradient>
    <linearGradient id="linear-gradient-3" x1="-8019" y1="-2961.1" x2="-7907.5" y2="-3015.8" gradientTransform="translate(-7514.5 -2944.7) rotate(-180)" gradientUnits="userSpaceOnUse">
      <stop offset="0" stop-color="#70c2d6"/>
      <stop offset=".8" stop-color="#091d2f"/>
    </linearGradient>
    <linearGradient id="linear-gradient-4" x1="-7931.2" y1="-2999.7" x2="-8016.3" y2="-2994.1" gradientTransform="translate(-7514.5 -2944.7) rotate(-180)" gradientUnits="userSpaceOnUse">
      <stop offset="0" stop-color="#53abdd"/>
      <stop offset="1" stop-color="#3b68aa"/>
    </linearGradient>
    <linearGradient id="linear-gradient-5" x1="531.8" y1="100.5" x2="531.8" y2="16" gradientTransform="matrix(1,0,0,1,0,0)" xlink:href="#linear-gradient-4"/>
    <linearGradient id="linear-gradient-6" x1="557.3" y1="100.5" x2="557.3" y2="16" gradientTransform="matrix(1,0,0,1,0,0)" xlink:href="#linear-gradient-4"/>
    <linearGradient id="linear-gradient-7" x1="581.2" y1="100.5" x2="581.2" y2="16" gradientTransform="matrix(1,0,0,1,0,0)" xlink:href="#linear-gradient-4"/>
    <linearGradient id="linear-gradient-8" x1="601.3" y1="100.5" x2="601.3" y2="16" gradientTransform="matrix(1,0,0,1,0,0)" xlink:href="#linear-gradient-4"/>
    <linearGradient id="linear-gradient-9" x1="616.5" y1="100.5" x2="616.5" y2="16" gradientTransform="matrix(1,0,0,1,0,0)" xlink:href="#linear-gradient-4"/>
    <linearGradient id="linear-gradient-10" x1="636.5" y1="100.5" x2="636.5" y2="16" gradientTransform="matrix(1,0,0,1,0,0)" xlink:href="#linear-gradient-4"/>
    <linearGradient id="linear-gradient-11" x1="655.7" y1="100.5" x2="655.7" y2="16" gradientTransform="matrix(1,0,0,1,0,0)" xlink:href="#linear-gradient-4"/>
  </defs>
  <g id="Layer_1-2" data-name="Layer 1">
    <g>
      <g>
        <path class="cls-2" d="M512.2,27.4c-29.8-14.9-73.4,3.1-97.8,36.7,0-27.4,0-42.8,0-42.8L463.3,2l48.9,25.4Z"/>
        <path class="cls-8" d="M414.4,64.1c29.8,14.9,73.4-3.1,97.8-36.7,0,27.4,0,42.8,0,42.8l-48.9,19.3-48.9-25.4Z"/>
        <path class="cls-9" d="M451.5,64.4c.2-.3,0-.7-.3-.9l-35-17.5c-1.2-.6-1.9-1.8-1.9-3.1v-2.4s36.3,18.1,36.3,18.1c.3.2.7,0,.9-.3.2-.3,0-.7-.3-.9l-35-17.5c-1.2-.6-1.9-1.8-1.9-3.1v-2.4s36.3,18.1,36.3,18.1c.3.2.7,0,.9-.3.2-.3,0-.7-.3-.9l-35-17.5c-1.2-.6-1.9-1.8-1.9-3.1v-2.5s36.3,18.1,36.3,18.1c.3.2.7,0,.9-.3.2-.3,0-.7-.3-.9l-36.9-18.4v-5.4s36.7-18.4,36.7-18.4c.1,0,.3-.1.5-.2,0,0,.2,0,.3-.1,7.3-3.4,15.6-3.4,22.9,0,0,0,.2,0,.3.1.1,0,.3.1.5.2l36.7,18.4v6.1s-36.8-18.4-36.8-18.4c-7.7-3.8-16.7-3.8-24.3,0l-30.6,15.3,30.3,15.2c3.9,1.9,6.3,5.9,6.3,10.3v29.6s-36.9-18.5-36.9-18.5c-3.2-1.6-5.4-4.7-5.8-8.2l36.2,18.1c.3.2.7,0,.9-.3.2-.3,0-.7-.3-.9l-35-17.5c-1.2-.6-1.9-1.8-1.9-3.1v-2.4s36.3,18.1,36.3,18.1c.3.2.7,0,.9-.3Z"/>
        <path class="cls-7" d="M414.4,70.2v-6.1s36.8,18.4,36.8,18.4c7.7,3.8,16.7,3.8,24.3,0l30.6-15.3-30.3-15.2c-3.9-1.9-6.3-5.9-6.3-10.3V12.1s36.9,18.5,36.9,18.5c3.2,1.6,5.4,4.7,5.8,8.3l-36.3-18.2c-.1,0-.2,0-.3,0-.3,0-.5.1-.6.4-.2.3,0,.7.3.9l35.1,17.5c1.2.6,1.9,1.8,1.9,3.1v2.4s-36.4-18.2-36.4-18.2c-.1,0-.2,0-.3,0-.3,0-.5.1-.6.4-.2.3,0,.7.3.9l35.1,17.5c1.2.6,1.9,1.8,1.9,3.1v2.4s-36.4-18.2-36.4-18.2c-.1,0-.2,0-.3,0-.3,0-.5.1-.6.4-.2.3,0,.7.3.9l35.1,17.5c1.2.6,1.9,1.8,1.9,3.1v2.4s-36.4-18.2-36.4-18.2c-.1,0-.2,0-.3,0-.3,0-.5.1-.6.4-.2.3,0,.7.3.9l35.1,17.5c1.2.6,1.9,1.8,1.9,3.1v2.4s-36.4-18.2-36.4-18.2c-.1,0-.2,0-.3,0-.3,0-.5.1-.6.4-.2.3,0,.7.3.9l35.1,17.5c1.2.6,1.9,1.8,1.9,3.1v3.2s-36.7,18.4-36.7,18.4c-7.7,3.8-16.7,3.8-24.3,0l-36.7-18.4Z"/>
      </g>
      <g>
        <g>
          <rect class="cls-6" y="5.6" width="80.2" height="80.2"/>
          <path class="cls-15" d="M61.4,21.8v28.1c0,6.3-1.9,11.4-5.6,15.2-3.7,3.8-9,5.7-15.7,5.7s-12-1.9-15.8-5.7c-3.7-3.8-5.6-8.9-5.6-15.2v-28.1h11.5v27.9c0,3.2.8,5.8,2.5,7.7,1.7,2,4.1,3,7.3,3s5.6-1,7.3-3c1.7-2,2.5-4.6,2.5-7.7v-27.9h11.5Z"/>
          <rect class="cls-6" x="88.3" y="5.6" width="80.2" height="80.2"/>
          <rect class="cls-6" x="176.4" y="5.6" width="80.2" height="80.2"/>
          <rect class="cls-6" x="264.6" y="5.6" width="80.2" height="80.2"/>
          <polygon class="cls-15" points="153.9 21.7 153.9 69.8 142.5 69.8 142.5 41.6 128.3 60.9 114.2 41.6 114.2 69.8 102.8 69.8 102.8 21.7 113.6 21.7 128.4 43 143 21.7 153.9 21.7"/>
          <path class="cls-15" d="M221.9,58.7c1.3-1.3,2-3,2-5.1s-.7-3.7-2-5c-1.3-1.4-3.1-2-5.4-2s-4,.7-5.3,2c-1.4,1.3-2.1,3-2.1,5.1s.7,3.8,2,5.1c1.4,1.3,3.2,2,5.4,2s4-.7,5.4-2M230.5,41.9c3.2,3.1,4.8,7,4.8,11.7s-1.8,9.1-5.3,12.4-8,4.9-13.4,4.9-9.8-1.6-13.4-4.9c-3.6-3.3-5.4-7.4-5.4-12.4s1.1-6.6,3.4-10.2l13.7-21.6h12.8l-9.4,14.9c5,.4,9.1,2.1,12.2,5.2"/>
          <path class="cls-15" d="M311.9,44c1.3-1.4,1.9-3.1,1.9-4.9s-.6-3.5-1.8-4.9c-1.2-1.4-2.8-2.1-4.6-2.1h-11.6v14.1h11.1c2,0,3.7-.7,5-2.1M320.1,27c3.2,3.5,4.8,7.5,4.8,12s-1.6,8.6-4.8,12.1c-3.2,3.5-7.5,5.3-12.9,5.3h-11.4v13.4h-11.3V21.7h23.1c5.1,0,9.3,1.8,12.5,5.3"/>
        </g>
        <rect class="cls-1" x="385.1" y="5.6" width="1" height="80.2"/>
      </g>
      <g>
        <g>
          <g>
            <path class="cls-13" d="M540.1,34.4c0,1.2-.2,2.4-.6,3.4-.4,1-1,1.8-1.7,2.5-.7.7-1.6,1.2-2.6,1.6-1,.4-2.1.6-3.3.6s-2.3-.2-3.3-.6c-1-.4-1.9-.9-2.6-1.6-.7-.7-1.3-1.5-1.7-2.5-.4-1-.6-2.1-.6-3.4v-13h3.7v12.9c0,.6,0,1.2.2,1.8s.4,1.1.8,1.6c.4.5.8.8,1.4,1.1.6.3,1.3.4,2.2.4s1.6-.1,2.2-.4c.6-.3,1.1-.7,1.4-1.1.4-.5.6-1,.8-1.6.2-.6.2-1.2.2-1.8v-12.9h3.7v13Z"/>
            <path class="cls-14" d="M546.2,21.4h5.7l5.3,14.6h0l5.3-14.6h5.7v20.6h-3.6v-16.5h0l-6.2,16.5h-2.6l-6.2-16.5h0v16.5h-3.5v-20.6Z"/>
            <path class="cls-12" d="M585.2,21.4l-5.3,7.6h0c.3,0,.6-.2,1-.2.4,0,.8,0,1.1,0,.9,0,1.8.2,2.6.5s1.5.8,2.1,1.4c.6.6,1.1,1.3,1.4,2.1.3.8.5,1.7.5,2.6s-.2,2.1-.6,3-.9,1.6-1.6,2.3c-.7.6-1.5,1.1-2.4,1.5-.9.3-1.9.5-2.9.5s-2.1-.2-3-.5c-.9-.4-1.7-.9-2.4-1.5s-1.2-1.4-1.6-2.2-.6-1.8-.6-2.8,0-1.1.1-1.6c0-.5.2-1,.4-1.5.2-.5.4-1,.7-1.4.3-.5.6-1,.9-1.5l5.1-8h4.2ZM577.2,35.5c0,.5,0,1.1.3,1.5.2.5.4.9.8,1.3.3.4.8.7,1.2.9.5.2,1,.3,1.6.3,1.2,0,2.1-.4,2.9-1.1.7-.7,1.1-1.7,1.1-2.9s0-1.1-.3-1.6c-.2-.5-.4-.9-.8-1.3s-.8-.6-1.2-.8-1-.3-1.6-.3-1.1,0-1.6.3c-.5.2-.9.5-1.3.8s-.6.8-.8,1.3c-.2.5-.3,1.1-.3,1.7Z"/>
            <path class="cls-10" d="M594.1,21.4h6.7c1.2,0,2.2.1,3.2.3.9.2,1.8.6,2.4,1s1.2,1.1,1.6,1.9c.4.8.6,1.7.6,2.7s-.2,2.1-.6,2.9c-.4.8-1,1.4-1.7,1.9-.7.5-1.6.8-2.5,1-1,.2-2,.3-3.1.3h-2.8v8.5h-3.7v-20.6ZM600.3,30.4c.6,0,1.2,0,1.7-.1.5,0,1-.2,1.5-.5.4-.2.8-.5,1-.9.3-.4.4-.9.4-1.5s-.1-1.1-.4-1.5-.6-.7-1-.9c-.4-.2-.9-.4-1.4-.4-.5,0-1.1-.1-1.6-.1h-2.7v5.9h2.6Z"/>
            <path class="cls-11" d="M620,36.3h-7v-3h7v3Z"/>
            <path class="cls-4" d="M642.9,26.3c-.5-.7-1.2-1.3-2.1-1.6-.9-.3-1.7-.5-2.6-.5s-2,.2-2.9.6c-.9.4-1.6.9-2.2,1.6-.6.7-1.1,1.5-1.5,2.4-.3.9-.5,1.9-.5,3s.2,2.1.5,3.1.8,1.7,1.4,2.4c.6.7,1.3,1.2,2.2,1.6.9.4,1.8.6,2.9.6s2.1-.2,2.9-.7c.9-.4,1.5-1,2.1-1.7l2.9,2.1c-.9,1.1-2,2-3.3,2.7-1.3.6-2.9.9-4.6.9s-3.1-.3-4.4-.8c-1.3-.5-2.5-1.3-3.5-2.2-1-1-1.7-2.1-2.3-3.4-.5-1.3-.8-2.8-.8-4.4s.3-3.1.9-4.5c.6-1.3,1.4-2.5,2.4-3.4,1-.9,2.2-1.6,3.5-2.1,1.4-.5,2.8-.8,4.4-.8s1.3,0,2.1.2c.7.1,1.4.3,2.1.6.7.3,1.3.6,1.9,1,.6.4,1.1.9,1.5,1.4l-2.8,2.2Z"/>
            <path class="cls-3" d="M660.5,25.7c-.4-.5-.9-.9-1.6-1.3-.7-.3-1.4-.5-2.1-.5s-.9,0-1.3.2-.8.3-1.2.5-.6.5-.9.9c-.2.4-.3.8-.3,1.3s0,.9.3,1.2c.2.3.5.6.8.8.3.2.7.4,1.2.6s1,.3,1.6.5c.7.2,1.3.5,2,.7.7.3,1.4.6,1.9,1.1.6.4,1.1,1,1.5,1.7.4.7.6,1.5.6,2.5s-.2,2.1-.6,2.9c-.4.8-.9,1.5-1.6,2-.7.5-1.5.9-2.4,1.2-.9.3-1.9.4-2.9.4s-2.6-.2-3.9-.7c-1.3-.5-2.3-1.2-3.1-2.2l2.6-2.4c.5.7,1.2,1.2,2,1.7.8.4,1.7.6,2.5.6s.9,0,1.3-.2c.4-.1.8-.3,1.2-.5.4-.3.6-.6.9-.9s.3-.8.3-1.4-.1-1-.4-1.3c-.3-.4-.6-.7-1-.9s-.9-.5-1.5-.7c-.6-.2-1.2-.4-1.8-.6-.6-.2-1.2-.4-1.9-.7-.6-.3-1.2-.6-1.7-1.1-.5-.4-.9-1-1.2-1.6-.3-.6-.5-1.5-.5-2.4s.2-1.9.7-2.7c.4-.8,1-1.4,1.7-1.9.7-.5,1.5-.9,2.4-1.1.9-.2,1.8-.4,2.7-.4s2.1.2,3.2.6c1.1.4,2,.9,2.8,1.7l-2.4,2.6Z"/>
          </g>
          <g>
            <path class="cls-5" d="M523.6,54.2c.1-.2.2-.4.3-.5.1-.2.3-.2.4-.1,0,0,1.1.9,2.1.9s1.5-.6,1.5-1.2-.7-1.3-2-1.8c-1.3-.6-2.4-1.3-2.4-2.8s.8-2.4,2.9-2.4,2.3.7,2.4.8c.1,0,.2.3,0,.4-.1.2-.2.3-.3.5-.1.2-.3.3-.5.1,0,0-1-.7-1.8-.7-1.1,0-1.5.7-1.5,1.2,0,.8.6,1.2,1.7,1.7,1.5.6,2.8,1.3,2.8,3s-1.2,2.5-2.9,2.5-2.6-.8-2.8-1c-.1-.1-.2-.2,0-.4Z"/>
            <path class="cls-5" d="M543.5,46.2c1.3,0,2.3.4,3.2,1.2.1.1.1.3,0,.4l-.6.6c0,.1-.2.1-.3,0-.6-.5-1.5-.9-2.3-.9-1.9,0-3.3,1.6-3.3,3.4s1.4,3.4,3.3,3.4,1.6-.4,2.3-.9c.1,0,.2,0,.3,0l.6.6c.1,0,0,.3,0,.4-.9.9-2,1.3-3.2,1.3-2.6,0-4.8-2.1-4.8-4.7s2.1-4.8,4.8-4.8Z"/>
            <path class="cls-5" d="M556.8,46.5c0-.1.1-.3.3-.3h.9c.1,0,.3.1.3.3v3.7h4.8v-3.7c0-.1.1-.3.3-.3h.9c.1,0,.3.1.3.3v8.7c0,.1-.1.3-.3.3h-.9c-.1,0-.3-.1-.3-.3v-3.8h-4.8v3.8c0,.1-.1.3-.3.3h-.9c-.1,0-.3-.1-.3-.3v-8.7Z"/>
            <path class="cls-5" d="M579.1,46.2c2.6,0,4.7,2.1,4.7,4.8s-2.1,4.7-4.7,4.7-4.7-2.1-4.7-4.7,2.1-4.8,4.7-4.8ZM579.1,54.3c1.9,0,3.4-1.5,3.4-3.4s-1.5-3.4-3.4-3.4-3.4,1.6-3.4,3.4,1.5,3.4,3.4,3.4Z"/>
            <path class="cls-5" d="M598,46.2c2.6,0,4.7,2.1,4.7,4.8s-2.1,4.7-4.7,4.7-4.7-2.1-4.7-4.7,2.1-4.8,4.7-4.8ZM598,54.3c1.9,0,3.4-1.5,3.4-3.4s-1.5-3.4-3.4-3.4-3.4,1.6-3.4,3.4,1.5,3.4,3.4,3.4Z"/>
            <path class="cls-5" d="M612.8,46.5c0-.1.1-.3.3-.3h.9c.1,0,.3.1.3.3v7.7h3.6c.1,0,.3.1.3.3v.7c0,.1-.1.3-.3.3h-4.7c-.1,0-.3-.1-.3-.3v-8.7Z"/>
            <path class="cls-5" d="M642.4,46.2c2.6,0,4.7,2.1,4.7,4.8s-2.1,4.7-4.7,4.7-4.7-2.1-4.7-4.7,2.1-4.8,4.7-4.8ZM642.4,54.3c1.9,0,3.4-1.5,3.4-3.4s-1.5-3.4-3.4-3.4-3.4,1.6-3.4,3.4,1.5,3.4,3.4,3.4Z"/>
            <path class="cls-5" d="M657.2,46.5c0-.1.1-.3.3-.3h5.3c.1,0,.3.1.3.3v.7c0,.1-.1.3-.3.3h-4.2v3h3.5c.1,0,.3.1.3.3v.7c0,.1-.1.3-.3.3h-3.5v3.5c0,.1-.1.3-.3.3h-.9c-.1,0-.3-.1-.3-.3v-8.7Z"/>
          </g>
        </g>
        <g>
          <g>
            <path class="cls-5" d="M528.3,61c1.3,0,2.3.4,3.2,1.2.1.1.1.3,0,.4l-.6.6c0,.1-.2.1-.3,0-.6-.5-1.5-.9-2.3-.9-1.9,0-3.3,1.6-3.3,3.4s1.4,3.4,3.3,3.4,1.6-.4,2.3-.9c.1,0,.2,0,.3,0l.6.6c.1,0,0,.3,0,.4-.9.9-2,1.3-3.2,1.3-2.6,0-4.7-2.1-4.7-4.7s2.1-4.7,4.7-4.7Z"/>
            <path class="cls-5" d="M538,61c2.6,0,4.7,2.1,4.7,4.7s-2.1,4.7-4.7,4.7-4.7-2.1-4.7-4.7,2.1-4.7,4.7-4.7ZM538,69.2c1.9,0,3.4-1.5,3.4-3.4s-1.5-3.4-3.4-3.4-3.4,1.6-3.4,3.4,1.5,3.4,3.4,3.4Z"/>
            <path class="cls-5" d="M546.3,61.2c0-.1.1-.2.2-.2h.2c0,0,.2,0,.2.1l2.7,6.7h0l2.7-6.7c0,0,.1-.1.2-.1h.2c.1,0,.2,0,.2.2l1.6,8.8c0,.2,0,.3-.2.3h-.9c-.1,0-.2,0-.2-.2l-1-5.9h0l-2.4,6c0,0-.1.1-.2.1h-.2c-.1,0-.2,0-.2-.1l-2.4-6h0l-.9,5.9c0,0-.1.2-.2.2h-.9c-.2,0-.3-.1-.2-.3l1.6-8.8Z"/>
            <path class="cls-5" d="M557.3,61.4c0-.1.1-.2.2-.2h3c1.6,0,2.9,1.3,2.9,2.9s-1.3,3-2.9,3h-1.9v3.1c0,.1-.1.2-.2.2h-.9c-.1,0-.2-.1-.2-.2v-8.7ZM560.5,65.7c.9,0,1.7-.7,1.7-1.7s-.8-1.6-1.7-1.6h-1.8v3.3h1.8Z"/>
            <path class="cls-5" d="M565.7,61.4c0-.1.1-.2.2-.2h.9c.1,0,.2.1.2.2v5.4c0,1.3.8,2.3,2.2,2.3s2.2-1,2.2-2.3v-5.5c0-.1.1-.2.2-.2h.9c.1,0,.2.1.2.2v5.5c0,2-1.5,3.6-3.6,3.6s-3.6-1.6-3.6-3.6v-5.5Z"/>
            <path class="cls-5" d="M577.2,62.4h-2.1c-.1,0-.2-.1-.2-.2v-.7c0-.1.1-.2.2-.2h5.6c.1,0,.2.1.2.2v.7c0,.1-.1.2-.2.2h-2.1v7.7c0,.1-.1.2-.2.2h-.9c-.1,0-.2-.1-.2-.2v-7.7Z"/>
            <path class="cls-5" d="M583,61.4c0-.1.1-.2.2-.2h5.3c.1,0,.2.1.2.2v.7c0,.1-.1.2-.2.2h-4.1v2.7h3.5c.1,0,.2.1.2.2v.7c0,.1-.1.2-.2.2h-3.5v2.8h4.1c.1,0,.2.1.2.2v.7c0,.1-.1.2-.2.2h-5.3c-.1,0-.2-.1-.2-.2v-8.7Z"/>
            <path class="cls-5" d="M591.4,61.4c0-.1.1-.2.2-.2h3.6c1.6,0,2.9,1.2,2.9,2.8s-.8,2.2-1.9,2.7l1.8,3.3c0,.2,0,.4-.2.4h-1c-.1,0-.2,0-.2-.1l-1.7-3.5h-2v3.3c0,.1-.1.2-.2.2h-.9c-.1,0-.2-.1-.2-.2v-8.7ZM595.1,65.6c.9,0,1.6-.7,1.6-1.6s-.7-1.6-1.6-1.6h-2.3v3.2h2.3Z"/>
          </g>
          <g>
            <path class="cls-5" d="M605.5,69c.1-.2.2-.4.3-.5.1-.2.3-.2.4-.1,0,0,1.1.9,2.1.9s1.5-.6,1.5-1.2-.7-1.3-2-1.8c-1.3-.6-2.4-1.3-2.4-2.8s.8-2.4,2.9-2.4,2.3.7,2.4.8c.1,0,.2.2,0,.4-.1.2-.2.3-.3.5-.1.2-.3.2-.5.1,0,0-1-.7-1.8-.7-1.1,0-1.5.7-1.5,1.2,0,.7.6,1.2,1.7,1.7,1.5.6,2.8,1.3,2.8,2.9s-1.2,2.5-2.9,2.5-2.6-.8-2.8-1c-.1-.1-.2-.2,0-.4Z"/>
            <path class="cls-5" d="M617.9,61c1.3,0,2.3.4,3.2,1.2.1.1.1.3,0,.4l-.6.6c0,.1-.2.1-.3,0-.6-.5-1.5-.9-2.3-.9-1.9,0-3.3,1.6-3.3,3.4s1.4,3.4,3.3,3.4,1.6-.4,2.3-.9c.1,0,.2,0,.3,0l.6.6c.1,0,0,.3,0,.4-.9.9-2,1.3-3.2,1.3-2.6,0-4.7-2.1-4.7-4.7s2.1-4.7,4.7-4.7Z"/>
            <path class="cls-5" d="M623.6,61.4c0-.1.1-.2.2-.2h.9c.1,0,.2.1.2.2v8.7c0,.1-.1.2-.2.2h-.9c-.1,0-.2-.1-.2-.2v-8.7Z"/>
            <path class="cls-5" d="M628.2,61.4c0-.1.1-.2.2-.2h5.3c.1,0,.2.1.2.2v.7c0,.1-.1.2-.2.2h-4.1v2.7h3.5c.1,0,.2.1.2.2v.7c0,.1-.1.2-.2.2h-3.5v2.8h4.1c.1,0,.2.1.2.2v.7c0,.1-.1.2-.2.2h-5.3c-.1,0-.2-.1-.2-.2v-8.7Z"/>
            <path class="cls-5" d="M636.6,61.3c0-.1.1-.2.2-.2h.3l5.7,6.6h0v-6.2c0-.1.1-.2.2-.2h.8c.1,0,.2.1.2.2v8.8c0,.1-.1.2-.2.2h-.3l-5.7-6.8h0v6.4c0,.1-.1.2-.2.2h-.8c-.1,0-.2-.1-.2-.2v-8.8Z"/>
            <path class="cls-5" d="M651.5,61c1.3,0,2.3.4,3.2,1.2.1.1.1.3,0,.4l-.6.6c0,.1-.2.1-.3,0-.6-.5-1.5-.9-2.3-.9-1.9,0-3.3,1.6-3.3,3.4s1.4,3.4,3.3,3.4,1.6-.4,2.3-.9c.1,0,.2,0,.3,0l.6.6c.1,0,0,.3,0,.4-.9.9-2,1.3-3.2,1.3-2.6,0-4.7-2.1-4.7-4.7s2.1-4.7,4.7-4.7Z"/>
            <path class="cls-5" d="M657.2,61.4c0-.1.1-.2.2-.2h5.3c.1,0,.2.1.2.2v.7c0,.1-.1.2-.2.2h-4.1v2.7h3.5c.1,0,.2.1.2.2v.7c0,.1-.1.2-.2.2h-3.5v2.8h4.1c.1,0,.2.1.2.2v.7c0,.1-.1.2-.2.2h-5.3c-.1,0-.2-.1-.2-.2v-8.7Z"/>
          </g>
        </g>
      </g>
    </g>
  </g>
</svg>