<?xml version="1.0" encoding="UTF-8"?>
<svg id="Layer_2" data-name="Layer 2" xmlns="http://www.w3.org/2000/svg" viewBox="0 0 631 83.3">
  <defs>
    <style>
      .cls-1 {
        fill: #d1451e;
      }

      .cls-1, .cls-2, .cls-3, .cls-4, .cls-5 {
        stroke-width: 0px;
      }

      .cls-2 {
        fill: #d74a2a;
      }

      .cls-3 {
        fill: #5772f2;
      }

      .cls-4 {
        fill: #3b3b3c;
      }

      .cls-5 {
        fill: #fff;
      }
    </style>
  </defs>
  <g id="Layer_1-2" data-name="Layer 1">
    <g>
      <g>
        <g>
          <rect class="cls-2" y="0" width="80.2" height="80.2"/>
          <path class="cls-5" d="M61.4,16.2v28.1c0,6.3-1.9,11.4-5.6,15.2-3.7,3.8-9,5.7-15.7,5.7s-12-1.9-15.8-5.7-5.6-8.9-5.6-15.2v-28.1h11.5v27.9c0,3.2.8,5.8,2.5,7.7,1.7,2,4.1,3,7.3,3s5.6-1,7.3-3c1.7-2,2.5-4.6,2.5-7.7v-27.9h11.5Z"/>
          <rect class="cls-2" x="88.3" y="0" width="80.2" height="80.2"/>
          <rect class="cls-2" x="176.4" y="0" width="80.2" height="80.2"/>
          <rect class="cls-2" x="264.6" y="0" width="80.2" height="80.2"/>
          <polygon class="cls-5" points="153.9 16 153.9 64.1 142.5 64.1 142.5 36 128.3 55.3 114.2 36 114.2 64.1 102.8 64.1 102.8 16 113.6 16 128.4 37.4 143 16 153.9 16"/>
          <path class="cls-5" d="M221.9,53.1c1.3-1.3,2-3,2-5.1s-.7-3.7-2-5c-1.3-1.4-3.1-2-5.4-2s-4,.7-5.3,2c-1.4,1.3-2.1,3-2.1,5.1s.7,3.8,2,5.1c1.4,1.3,3.2,2,5.4,2s4-.7,5.4-2M230.5,36.3c3.2,3.1,4.8,7,4.8,11.7s-1.8,9.1-5.3,12.4c-3.6,3.3-8,4.9-13.4,4.9s-9.8-1.6-13.4-4.9c-3.6-3.3-5.4-7.4-5.4-12.4s1.1-6.6,3.4-10.2l13.7-21.6h12.8l-9.4,14.9c5,.4,9.1,2.1,12.2,5.2"/>
          <path class="cls-5" d="M311.9,38.4c1.3-1.4,1.9-3.1,1.9-4.9s-.6-3.5-1.8-4.9c-1.2-1.4-2.8-2.1-4.6-2.1h-11.6v14.1h11.1c2,0,3.7-.7,5-2.1M320.1,21.3c3.2,3.5,4.8,7.5,4.8,12s-1.6,8.6-4.8,12.1c-3.2,3.5-7.5,5.3-12.9,5.3h-11.4v13.4h-11.3V16h23.1c5.1,0,9.3,1.8,12.5,5.3"/>
        </g>
        <rect class="cls-1" x="385.1" width="1" height="80.2"/>
      </g>
      <g>
        <g>
          <path class="cls-4" d="M418.8,65.3c-1.1,0-2.1-.3-2.8-.9-.8-.6-1.3-1.3-1.6-2.1l1.8-.6c.2.5.5,1,1,1.3s1.1.5,1.7.5,1-.1,1.3-.4c.3-.2.5-.5.5-.9s0-.5-.3-.7-.5-.4-1-.5l-2.5-.8c-.7-.2-1.2-.5-1.6-1-.4-.4-.6-.9-.6-1.6,0-.8.3-1.4,1-2s1.5-.8,2.5-.8,1.9.2,2.6.7c.7.5,1.3,1.1,1.5,1.8l-1.8.5c-.2-.4-.5-.7-.9-1-.4-.2-.9-.4-1.4-.4s-.8.1-1.1.3c-.3.2-.4.5-.4.8,0,.4.3.7.9.9l2.4.8c.8.3,1.5.6,1.9,1,.4.4.7,1,.7,1.7s-.4,1.6-1.1,2.2c-.7.6-1.6.9-2.8.9h0Z"/>
          <path class="cls-4" d="M428.3,64.9c-.6.2-1.1.3-1.6.3-.8,0-1.4-.2-1.7-.7s-.6-1.1-.6-1.9v-3.1h-1.2v-1.6h1.2v-2.3h1.8v2.3h2v1.6h-2v3.1c0,.6.3.9.9.9s.6,0,.8-.2l.4,1.5Z"/>
          <path class="cls-4" d="M436.3,58v7.1h-1.8v-.9c-.5.7-1.3,1.1-2.2,1.1s-1.6-.3-2.1-.8c-.5-.6-.7-1.3-.7-2.3v-4.2h1.8v3.8c0,.6.1,1,.4,1.3.3.3.6.5,1.1.5s.9-.2,1.2-.6c.3-.4.5-.9.5-1.5v-3.5h1.8Z"/>
          <path class="cls-4" d="M445.2,54.8v10.3h-1.8v-.9c-.5.7-1.3,1.1-2.2,1.1s-1.8-.4-2.4-1.1c-.7-.7-1-1.6-1-2.7s.3-2,1-2.7c.7-.7,1.5-1.1,2.5-1.1s1.7.4,2.2,1.1v-4h1.8ZM441.4,63.6c.6,0,1-.2,1.4-.6.4-.4.6-.9.6-1.5s-.2-1.1-.6-1.5c-.4-.4-.9-.6-1.4-.6s-1,.2-1.4.6c-.4.4-.6.9-.6,1.5s.2,1.1.6,1.5c.4.4.8.6,1.4.6h0Z"/>
          <path class="cls-4" d="M450.3,65.3c-1.1,0-2-.3-2.7-1-.7-.7-1-1.6-1-2.7s.3-2,1-2.7,1.6-1.1,2.6-1.1,2,.3,2.6,1c.6.7,1,1.6,1,2.6s0,.5,0,.7h-5.4c0,.5.3.9.6,1.2.3.3.8.4,1.4.4s1.4-.3,1.7-.9l1.6.5c-.2.5-.6,1-1.2,1.4-.6.4-1.3.6-2.1.6h0ZM452,60.9c0-.4-.2-.8-.6-1.1-.3-.3-.8-.5-1.3-.5s-.9.2-1.3.5c-.3.3-.5.7-.6,1.1h3.7Z"/>
          <path class="cls-4" d="M459.2,57.8c.9,0,1.6.3,2,.8.5.6.7,1.3.7,2.3v4.2h-1.8v-3.8c0-.6-.1-1-.4-1.3-.2-.3-.6-.5-1.1-.5s-.9.2-1.2.6c-.3.4-.5.9-.5,1.5v3.5h-1.8v-7.1h1.8v.9c.6-.7,1.3-1.1,2.2-1.1h0Z"/>
          <path class="cls-4" d="M468.1,64.9c-.6.2-1.1.3-1.6.3-.8,0-1.4-.2-1.7-.7s-.6-1.1-.6-1.9v-3.1h-1.2v-1.6h1.2v-2.3h1.8v2.3h2v1.6h-2v3.1c0,.6.3.9.9.9s.6,0,.8-.2l.4,1.5Z"/>
          <path class="cls-4" d="M477.4,65.3c-1.5,0-2.7-.5-3.6-1.5-1-1-1.4-2.2-1.4-3.7s.5-2.7,1.4-3.7c1-1,2.2-1.5,3.6-1.5s2.7.5,3.6,1.5c1,1,1.4,2.2,1.4,3.7s-.5,2.7-1.4,3.7c-1,1-2.2,1.5-3.6,1.5h0ZM477.4,63.5c.9,0,1.7-.3,2.3-1s.9-1.4.9-2.4-.3-1.7-.9-2.4-1.3-1-2.3-1-1.7.3-2.3,1-.9,1.4-.9,2.4.3,1.8.9,2.4,1.3,1,2.3,1h0Z"/>
          <path class="cls-4" d="M485.6,59c.5-.9,1.2-1.3,2.3-1.2v1.8c-.8-.1-1.3,0-1.7.4-.4.4-.6,1-.6,2v3.1h-1.8v-7.1h1.8v1.1h0Z"/>
          <path class="cls-4" d="M495.8,58v6.9c0,1-.3,1.8-1,2.5s-1.5,1-2.6,1c-1.6,0-2.7-.6-3.4-1.9l1.6-.6c.4.6,1,.9,1.8.9.6,0,1-.2,1.3-.5.3-.4.5-.8.5-1.4v-.9c-.5.7-1.3,1-2.2,1s-1.8-.4-2.5-1c-.7-.7-1-1.6-1-2.6s.3-1.9,1-2.6c.6-.7,1.5-1,2.5-1s1.7.3,2.2,1v-.8h1.8ZM492.1,63.4c.6,0,1-.2,1.4-.5.4-.4.5-.8.5-1.4s-.2-1-.5-1.4c-.4-.4-.8-.5-1.4-.5s-1,.2-1.4.5-.5.8-.5,1.4.2,1,.5,1.4.8.5,1.4.5h0Z"/>
          <path class="cls-4" d="M500.6,65.3c-1,0-1.8-.4-2.4-1.1-.7-.7-1-1.6-1-2.7s.3-2,1-2.7c.7-.7,1.5-1.1,2.5-1.1s1.7.4,2.2,1.1v-.9h1.8v7.1h-1.8v-.9c-.5.7-1.3,1.1-2.2,1.1h0ZM500.9,63.6c.6,0,1-.2,1.4-.6.4-.4.6-.9.6-1.5s-.2-1.1-.6-1.5c-.4-.4-.9-.6-1.4-.6s-1,.2-1.4.6c-.4.4-.6.9-.6,1.5s.2,1.1.6,1.5c.4.4.8.6,1.4.6h0Z"/>
          <path class="cls-4" d="M510.5,57.8c.9,0,1.6.3,2,.8.5.6.7,1.3.7,2.3v4.2h-1.8v-3.8c0-.6-.1-1-.4-1.3-.2-.3-.6-.5-1.1-.5s-.9.2-1.2.6c-.3.4-.5.9-.5,1.5v3.5h-1.8v-7.1h1.8v.9c.6-.7,1.3-1.1,2.2-1.1h0Z"/>
          <path class="cls-4" d="M515.9,57c-.3,0-.6-.1-.8-.3-.2-.2-.3-.5-.3-.8s.1-.6.3-.8c.2-.2.5-.3.8-.3s.6.1.8.3c.2.2.3.5.3.8s-.1.6-.3.8-.5.3-.8.3h0ZM514.9,58h1.8v7.1h-1.8v-7.1Z"/>
          <path class="cls-4" d="M524.5,63.6v1.6h-6.2v-1.2l3.7-4.4h-3.6v-1.5h6v1.2l-3.7,4.4h3.8Z"/>
          <path class="cls-4" d="M528.6,65.3c-1,0-1.8-.4-2.4-1.1-.7-.7-1-1.6-1-2.7s.3-2,1-2.7c.7-.7,1.5-1.1,2.5-1.1s1.7.4,2.2,1.1v-.9h1.8v7.1h-1.8v-.9c-.5.7-1.3,1.1-2.2,1.1h0ZM529,63.6c.6,0,1-.2,1.4-.6.4-.4.6-.9.6-1.5s-.2-1.1-.6-1.5c-.4-.4-.9-.6-1.4-.6s-1,.2-1.4.6c-.4.4-.6.9-.6,1.5s.2,1.1.6,1.5c.4.4.8.6,1.4.6h0Z"/>
          <path class="cls-4" d="M538.9,64.9c-.6.2-1.1.3-1.6.3-.8,0-1.4-.2-1.7-.7s-.6-1.1-.6-1.9v-3.1h-1.2v-1.6h1.2v-2.3h1.8v2.3h2v1.6h-2v3.1c0,.6.3.9.9.9s.6,0,.8-.2l.4,1.5Z"/>
          <path class="cls-4" d="M541.1,57c-.3,0-.6-.1-.8-.3-.2-.2-.3-.5-.3-.8s.1-.6.3-.8c.2-.2.5-.3.8-.3s.6.1.8.3c.2.2.3.5.3.8s-.1.6-.3.8-.5.3-.8.3h0ZM540.2,58h1.8v7.1h-1.8v-7.1Z"/>
          <path class="cls-4" d="M547.1,65.3c-1.1,0-2-.4-2.7-1.1s-1.1-1.6-1.1-2.7.4-2,1.1-2.7c.7-.7,1.6-1.1,2.7-1.1s2,.4,2.7,1.1c.7.7,1.1,1.6,1.1,2.7s-.3,2-1.1,2.7c-.7.7-1.6,1.1-2.7,1.1h0ZM548.5,63c.4-.4.5-.9.5-1.5s-.2-1.1-.5-1.5c-.4-.4-.8-.6-1.4-.6s-1,.2-1.4.6c-.4.4-.5.9-.5,1.5s.2,1.1.5,1.5c.4.4.8.6,1.4.6s1-.2,1.4-.6Z"/>
          <path class="cls-4" d="M556.3,57.8c.9,0,1.6.3,2,.8.5.6.7,1.3.7,2.3v4.2h-1.8v-3.8c0-.6-.1-1-.4-1.3-.2-.3-.6-.5-1.1-.5s-.9.2-1.2.6c-.3.4-.5.9-.5,1.5v3.5h-1.8v-7.1h1.8v.9c.6-.7,1.3-1.1,2.2-1.1h0Z"/>
          <path class="cls-4" d="M563.4,65.3c-.8,0-1.6-.2-2.2-.7s-1-1-1.2-1.6l1.6-.5c.1.4.3.6.7.9.3.2.7.3,1.2.3s.6,0,.8-.2c.2-.1.3-.3.3-.5,0-.3-.3-.5-.8-.7l-1.8-.5c-1.2-.3-1.7-1-1.7-1.9s.3-1.1.8-1.5,1.2-.6,2-.6,1.4.2,1.9.5c.6.3.9.8,1.2,1.3l-1.6.5c-.3-.6-.8-.8-1.5-.8s-.5,0-.7.2c-.2.1-.3.3-.3.5,0,.3.2.4.6.6l1.7.5c.6.2,1.1.4,1.5.7.3.3.5.7.5,1.3s-.3,1.2-.8,1.7-1.3.7-2.2.7h0Z"/>
          <path class="cls-4" d="M568.1,63.1h1.9l-1.1,3.9h-1.4l.6-3.9Z"/>
          <path class="cls-4" d="M421.6,78.4v1.8h-6.7v-9.9h1.9v8.1h4.8Z"/>
          <path class="cls-4" d="M426,80.4c-1.1,0-2-.3-2.7-1-.7-.7-1-1.6-1-2.7s.3-2,1-2.7c.7-.7,1.6-1.1,2.6-1.1s2,.3,2.6,1,1,1.6,1,2.6,0,.5,0,.7h-5.4c0,.5.3.9.6,1.2.3.3.8.4,1.4.4s1.4-.3,1.7-.9l1.6.5c-.2.5-.6,1-1.2,1.4-.6.4-1.3.6-2.1.6h0ZM427.7,76c0-.4-.2-.8-.6-1.1-.3-.3-.8-.5-1.3-.5s-.9.2-1.3.5c-.3.3-.5.7-.6,1.1h3.7Z"/>
          <path class="cls-4" d="M433.9,80.4c-1,0-1.8-.4-2.4-1.1-.7-.7-1-1.6-1-2.7s.3-2,1-2.7c.7-.7,1.5-1.1,2.5-1.1s1.7.4,2.2,1.1v-.9h1.8v7.1h-1.8v-.9c-.5.7-1.3,1.1-2.2,1.1h0ZM434.2,78.7c.6,0,1-.2,1.4-.6.4-.4.6-.9.6-1.5s-.2-1.1-.6-1.5c-.4-.4-.9-.6-1.4-.6s-1,.2-1.4.6c-.4.4-.6.9-.6,1.5s.2,1.1.6,1.5c.4.4.8.6,1.4.6h0Z"/>
          <path class="cls-4" d="M446.8,69.9v10.3h-1.8v-.9c-.5.7-1.3,1.1-2.2,1.1s-1.8-.4-2.4-1.1c-.7-.7-1-1.6-1-2.7s.3-2,1-2.7c.7-.7,1.5-1.1,2.5-1.1s1.7.4,2.2,1.1v-4h1.8ZM443,78.7c.6,0,1-.2,1.4-.6.4-.4.6-.9.6-1.5s-.2-1.1-.6-1.5c-.4-.4-.9-.6-1.4-.6s-1,.2-1.4.6c-.4.4-.6.9-.6,1.5s.2,1.1.6,1.5c.4.4.8.6,1.4.6h0Z"/>
          <path class="cls-4" d="M451.9,80.4c-1.1,0-2-.3-2.7-1-.7-.7-1-1.6-1-2.7s.3-2,1-2.7,1.6-1.1,2.6-1.1,2,.3,2.6,1,1,1.6,1,2.6,0,.5,0,.7h-5.4c0,.5.3.9.6,1.2.3.3.8.4,1.4.4s1.4-.3,1.7-.9l1.6.5c-.2.5-.6,1-1.2,1.4-.6.4-1.3.6-2.1.6h0ZM453.6,76c0-.4-.2-.8-.6-1.1-.3-.3-.8-.5-1.3-.5s-.9.2-1.3.5c-.3.3-.5.7-.6,1.1h3.7Z"/>
          <path class="cls-4" d="M458.6,74.1c.5-.9,1.2-1.3,2.3-1.2v1.8c-.8-.1-1.3,0-1.7.4-.4.4-.6,1-.6,2v3.1h-1.8v-7.1h1.8v1.1h0Z"/>
          <path class="cls-4" d="M464.8,80.4c-.8,0-1.6-.2-2.2-.7s-1-1-1.2-1.6l1.6-.5c.1.4.3.6.7.9.3.2.7.3,1.2.3s.6,0,.8-.2c.2-.1.3-.3.3-.5,0-.3-.3-.5-.8-.7l-1.8-.5c-1.1-.3-1.7-1-1.7-1.9s.3-1.1.8-1.5,1.2-.6,2-.6,1.4.2,1.9.5c.6.3.9.8,1.2,1.3l-1.6.5c-.3-.6-.8-.8-1.5-.8s-.5,0-.7.2c-.2.1-.3.3-.3.5,0,.3.2.4.6.6l1.7.5c.6.2,1.1.4,1.5.7.3.3.5.7.5,1.3s-.3,1.2-.8,1.7-1.3.7-2.2.7h0Z"/>
          <path class="cls-4" d="M473.2,72.8c.9,0,1.6.3,2,.8.5.6.7,1.3.7,2.3v4.2h-1.8v-3.8c0-.6-.1-1-.4-1.3-.2-.3-.6-.5-1.1-.5s-.9.2-1.2.6c-.3.4-.5.9-.5,1.5v3.5h-1.8v-10.3h1.8v4.1c.6-.7,1.3-1.1,2.2-1.1h0Z"/>
          <path class="cls-4" d="M478.6,72c-.3,0-.6-.1-.8-.3-.2-.2-.3-.5-.3-.8s.1-.6.3-.8c.2-.2.5-.3.8-.3s.6.1.8.3c.2.2.3.5.3.8s-.1.6-.3.8-.5.3-.8.3h0ZM477.7,73h1.8v7.1h-1.8v-7.1Z"/>
          <path class="cls-4" d="M485.4,72.8c1,0,1.8.4,2.4,1.1.7.7,1,1.6,1,2.7s-.3,2-1,2.7c-.7.7-1.5,1.1-2.4,1.1s-1.7-.4-2.3-1.1v3.8h-1.8v-10.1h1.8v.9c.6-.7,1.3-1.1,2.3-1.1h0ZM485.1,78.7c.6,0,1-.2,1.4-.6.4-.4.6-.9.6-1.5s-.2-1.1-.6-1.5c-.4-.4-.8-.6-1.4-.6s-1,.2-1.4.6c-.4.4-.6.9-.6,1.5s.2,1.1.6,1.5c.4.4.9.6,1.4.6h0Z"/>
          <path class="cls-4" d="M500.3,80.2l-.9-.9c-.8.8-1.8,1.1-2.9,1.1s-1.6-.3-2.2-.8-.9-1.2-.9-2.1.1-1.1.4-1.6c.3-.5.7-.9,1.3-1.3-.5-.6-.7-1.2-.7-1.8,0-.9.3-1.5.8-2,.6-.5,1.3-.7,2.2-.7s1.4.2,2,.7c.5.4.8,1,.9,1.6l-1.6.5c-.2-.8-.6-1.1-1.3-1.1s-.6.1-.9.3c-.2.2-.3.5-.3.8s.2.7.7,1.2l2.4,2.6c.3-.5.5-1,.6-1.5l1.6.5c-.2.8-.5,1.6-1,2.3l2,2.2h-2.2ZM496.8,78.7c.5,0,1.1-.2,1.6-.6l-2-2.2c-.7.4-1,.9-1,1.5,0,.4.1.7.4.9s.6.4,1.1.4h0Z"/>
          <path class="cls-4" d="M508.7,72v2.3h4.6v1.7h-4.6v2.4h5.2v1.8h-7.1v-9.9h7.1v1.8h-5.3Z"/>
          <path class="cls-4" d="M519.5,72.8c.9,0,1.6.3,2,.8.5.6.7,1.3.7,2.3v4.2h-1.8v-3.8c0-.6-.1-1-.4-1.3-.2-.3-.6-.5-1.1-.5s-.9.2-1.2.6c-.3.4-.5.9-.5,1.5v3.5h-1.8v-7.1h1.8v.9c.6-.7,1.3-1.1,2.2-1.1h0Z"/>
          <path class="cls-4" d="M531,73v6.9c0,1-.3,1.8-1,2.5s-1.5,1-2.6,1c-1.6,0-2.7-.6-3.4-1.9l1.6-.6c.4.6,1,.9,1.8.9.6,0,1-.2,1.3-.5.3-.4.5-.8.5-1.4v-.9c-.5.7-1.3,1-2.2,1s-1.8-.4-2.5-1c-.7-.7-1-1.6-1-2.6s.3-1.9,1-2.6c.6-.7,1.5-1,2.5-1s1.7.3,2.2,1v-.8h1.8ZM527.3,78.4c.6,0,1-.2,1.4-.5.4-.4.5-.8.5-1.4s-.2-1-.5-1.4c-.4-.4-.8-.5-1.4-.5s-1,.2-1.4.5c-.4.4-.5.8-.5,1.4s.2,1,.5,1.4c.4.4.8.5,1.4.5h0Z"/>
          <path class="cls-4" d="M535.8,80.4c-1,0-1.8-.4-2.4-1.1-.7-.7-1-1.6-1-2.7s.3-2,1-2.7c.7-.7,1.5-1.1,2.5-1.1s1.7.4,2.2,1.1v-.9h1.8v7.1h-1.8v-.9c-.5.7-1.3,1.1-2.2,1.1h0ZM536.1,78.7c.6,0,1-.2,1.4-.6.4-.4.6-.9.6-1.5s-.2-1.1-.6-1.5c-.4-.4-.9-.6-1.4-.6s-1,.2-1.4.6c-.4.4-.6.9-.6,1.5s.2,1.1.6,1.5c.4.4.8.6,1.4.6h0Z"/>
          <path class="cls-4" d="M548.7,73v6.9c0,1-.3,1.8-1,2.5s-1.5,1-2.6,1c-1.6,0-2.7-.6-3.4-1.9l1.6-.6c.4.6,1,.9,1.8.9.6,0,1-.2,1.3-.5.3-.4.5-.8.5-1.4v-.9c-.5.7-1.3,1-2.2,1s-1.8-.4-2.5-1c-.7-.7-1-1.6-1-2.6s.3-1.9,1-2.6c.6-.7,1.5-1,2.5-1s1.7.3,2.2,1v-.8h1.8ZM545,78.4c.6,0,1-.2,1.4-.5.4-.4.5-.8.5-1.4s-.2-1-.5-1.4c-.4-.4-.8-.5-1.4-.5s-1,.2-1.4.5-.5.8-.5,1.4.2,1,.5,1.4.8.5,1.4.5h0Z"/>
          <path class="cls-4" d="M553.8,80.4c-1.1,0-2-.3-2.7-1-.7-.7-1-1.6-1-2.7s.3-2,1-2.7,1.6-1.1,2.6-1.1,2,.3,2.6,1,1,1.6,1,2.6,0,.5,0,.7h-5.4c0,.5.3.9.6,1.2.3.3.8.4,1.4.4s1.4-.3,1.7-.9l1.6.5c-.2.5-.6,1-1.2,1.4-.6.4-1.3.6-2.1.6h0ZM555.5,76c0-.4-.2-.8-.6-1.1-.3-.3-.8-.5-1.3-.5s-.9.2-1.3.5c-.3.3-.5.7-.6,1.1h3.7Z"/>
          <path class="cls-4" d="M567,72.8c.8,0,1.5.3,2,.8s.7,1.3.7,2.3v4.2h-1.8v-3.9c0-1.2-.4-1.8-1.3-1.8s-.8.2-1.1.5c-.3.3-.4.8-.4,1.5v3.6h-1.8v-3.9c0-1.2-.4-1.8-1.3-1.8s-.9.2-1.1.5c-.3.4-.4.8-.4,1.5v3.6h-1.8v-7.1h1.8v.8c.5-.7,1.2-1,2.1-1s1.6.4,2.1,1.1c.6-.7,1.3-1.1,2.4-1.1h0Z"/>
          <path class="cls-4" d="M574.8,80.4c-1.1,0-2-.3-2.7-1-.7-.7-1-1.6-1-2.7s.3-2,1-2.7,1.6-1.1,2.6-1.1,2,.3,2.6,1,1,1.6,1,2.6,0,.5,0,.7h-5.4c0,.5.3.9.6,1.2.3.3.8.4,1.4.4s1.4-.3,1.7-.9l1.6.5c-.2.5-.6,1-1.2,1.4-.6.4-1.3.6-2.1.6h0ZM576.5,76c0-.4-.2-.8-.6-1.1-.3-.3-.8-.5-1.3-.5s-.9.2-1.3.5c-.3.3-.5.7-.6,1.1h3.7Z"/>
          <path class="cls-4" d="M583.7,72.8c.9,0,1.6.3,2,.8.5.6.7,1.3.7,2.3v4.2h-1.8v-3.8c0-.6-.1-1-.4-1.3-.2-.3-.6-.5-1.1-.5s-.9.2-1.2.6c-.3.4-.5.9-.5,1.5v3.5h-1.8v-7.1h1.8v.9c.6-.7,1.3-1.1,2.2-1.1h0Z"/>
          <path class="cls-4" d="M592.6,79.9c-.6.2-1.1.3-1.6.3-.8,0-1.4-.2-1.7-.7s-.6-1.1-.6-1.9v-3.1h-1.2v-1.6h1.2v-2.3h1.8v2.3h2v1.6h-2v3.1c0,.6.3.9.9.9s.6,0,.8-.2l.4,1.5Z"/>
        </g>
        <rect class="cls-3" x="414.4" width="50.4" height="50.4"/>
        <rect class="cls-3" x="469.8" width="50.4" height="50.4"/>
        <rect class="cls-3" x="525.2" width="50.4" height="50.4"/>
        <rect class="cls-3" x="580.6" width="50.4" height="50.4"/>
        <path class="cls-5" d="M440.5,41.8c-3.6,0-6.6-.9-9.1-2.8-2.5-1.9-4.2-4.2-5.2-6.9l5.8-1.8c.6,1.8,1.8,3.2,3.3,4.3,1.6,1.1,3.4,1.7,5.6,1.7s3.2-.4,4.3-1.2c1.1-.8,1.6-1.7,1.6-2.8s-.3-1.6-.9-2.2-1.7-1.2-3.2-1.6l-7.9-2.6c-2.2-.7-3.9-1.7-5.2-3.1-1.3-1.4-1.9-3-1.9-5,0-2.5,1-4.7,3.2-6.4,2.1-1.8,4.8-2.7,8-2.7s6,.8,8.4,2.3c2.4,1.6,4,3.5,4.9,5.8l-5.7,1.7c-.6-1.3-1.7-2.4-3-3.2-1.4-.8-2.9-1.2-4.6-1.2s-2.7.3-3.6,1c-.9.7-1.4,1.5-1.4,2.4,0,1.4,1,2.4,3,3l7.7,2.6c2.7.8,4.8,1.9,6.2,3.2,1.4,1.3,2.1,3.1,2.1,5.5s-1.1,5.1-3.4,7c-2.3,1.9-5.3,2.9-8.9,2.9h-.1Z"/>
        <path class="cls-5" d="M495,41.7c-4.7,0-8.6-1.6-11.6-4.8-3.1-3.2-4.7-7.1-4.7-11.9s1.6-8.6,4.7-11.8c3.1-3.2,7-4.7,11.7-4.7s8.6,1.6,11.6,4.7c3.1,3.2,4.6,7.1,4.6,11.8s-1.5,8.7-4.6,11.9c-3.1,3.2-7,4.8-11.6,4.8h0ZM495,36c3,0,5.5-1,7.3-3.1,1.9-2.1,2.8-4.6,2.8-7.7s-.9-5.6-2.8-7.7c-1.9-2.1-4.3-3.1-7.3-3.1s-5.5,1-7.3,3.1c-1.9,2.1-2.8,4.6-2.8,7.7s.9,5.7,2.8,7.7c1.9,2.1,4.3,3.1,7.3,3.1h0Z"/>
        <path class="cls-5" d="M561.2,35.3v5.7h-21.5V9.2h6.1v26.1h15.5Z"/>
        <path class="cls-5" d="M600.3,14.9v7.3h14.7v5.5h-14.7v7.8h16.9v5.6h-22.8V9.2h22.9v5.6h-16.9Z"/>
      </g>
    </g>
  </g>
</svg>