<?xml version="1.0" encoding="UTF-8"?>
<svg id="Layer_2" data-name="Layer 2" xmlns="http://www.w3.org/2000/svg" viewBox="0 0 733.5 80.6">
  <defs>
    <style>
      .cls-1 {
        fill: #d1451e;
      }

      .cls-1, .cls-2, .cls-3, .cls-4, .cls-5, .cls-6 {
        stroke-width: 0px;
      }

      .cls-2 {
        fill: #1b3671;
      }

      .cls-3 {
        fill: #2a4f9d;
      }

      .cls-4 {
        fill: #d74a2a;
      }

      .cls-5 {
        fill: #515353;
      }

      .cls-6 {
        fill: #fff;
      }
    </style>
  </defs>
  <g id="Layer_1-2" data-name="Layer 1">
    <g>
      <g>
        <g>
          <path class="cls-3" d="M453.3,7.6v16.3c-2.8-2.1-5.8-4.1-8.9-5.7V7.6h8.9Z"/>
          <path class="cls-3" d="M444.3,24.5c3.1,2.3,6.1,4.7,8.9,7.4v16.7c-2.8,2.7-5.8,5.1-8.9,7.4v-31.5Z"/>
          <path class="cls-3" d="M444.3,62.3c3.1-1.7,6.1-3.6,8.9-5.7v16.3h-8.9v-10.6Z"/>
          <path class="cls-3" d="M471.1,13.7v17.1l-1,1c-1.3,1.3-2.6,2.6-3.9,3.8-1-1-2-2-3-3l-1-1V13.7h8.9Z"/>
          <path class="cls-3" d="M470,48.7l1,1v17.1h-8.9v-17.9c.3-.3.7-.7,1-1,1-1,2-2,3-3,1.3,1.3,2.6,2.6,3.9,3.8Z"/>
          <path class="cls-3" d="M488.9,7.6v9.7c-3.1,1.7-6.1,3.6-8.9,5.7V7.6h8.9Z"/>
          <path class="cls-3" d="M480,57.4c2.8,2.1,5.8,4.1,8.9,5.7v9.7h-8.9v-15.5Z"/>
          <path class="cls-3" d="M506.7.1v11.2c-3,.5-6,1.2-8.9,2.1V.1h8.9Z"/>
          <path class="cls-3" d="M506.7,14.5v51.4c-3.1-1-6-2.2-8.9-3.7V18.2c2.9-1.4,5.9-2.7,8.9-3.6Z"/>
          <path class="cls-3" d="M497.8,67c2.9,1,5.9,1.7,8.9,2.1v11.2h-8.9v-13.3Z"/>
          <path class="cls-3" d="M435.4.1v14.1c-2.9-1-5.9-1.7-8.9-2.1V.1h8.9Z"/>
          <path class="cls-3" d="M426.6,15.4c3,1,6,2.2,8.8,3.7v42.4c-2.8,1.4-5.8,2.7-8.8,3.7h0V15.4h0Z"/>
          <path class="cls-3" d="M426.5,68.3c3-.5,6-1.2,8.9-2.1v14.1h-8.9v-12Z"/>
          <path class="cls-3" d="M488.9,23.6v33.2c-3.1-2.3-6.1-4.8-8.9-7.4v-18.3c2.8-2.7,5.8-5.1,8.9-7.4Z"/>
        </g>
        <g>
          <path class="cls-5" d="M526.7,18.3c-1.5,0-2.6-.2-3.4-.7-.8-.4-1.4-1.1-1.7-2.1-.3-.9-.5-2.1-.5-3.6s.2-2.6.5-3.6c.3-.9.9-1.6,1.7-2.1.8-.4,2-.7,3.4-.7h5.2v11.6h-2V6.6l1,.9h-4.3c-1,0-1.7.1-2.3.3-.5.2-.9.7-1.1,1.3-.2.6-.3,1.6-.3,2.8s.1,2.2.3,2.8c.2.6.6,1.1,1.1,1.3s1.3.3,2.3.3h7.9v1.8h-7.9ZM524.3,3.4V1.1h2v2.3h-2ZM527.7,3.4V1.1h2v2.3h-2ZM534.7,18.3v-1.8c.2,0,.4,0,.4.2,0,.2,0,.4,0,.6s0,.5,0,.7-.2.3-.4.3h0Z"/>
          <path class="cls-5" d="M534.7,18.3c-.2,0-.4,0-.4-.3,0-.2,0-.4,0-.7s0-.5,0-.6c0-.2.2-.2.4-.2v1.8h0ZM534.7,18.3v-1.8h3.6l-.9.7V5.7h2v12.6h-4.7,0ZM535.7,22.8v-2.3h2v2.3h-2ZM539.1,22.8v-2.3h2v2.3h-2ZM539.4,18.3v-1.8h2.7v1.8h-2.7ZM542.1,18.3v-1.8c.2,0,.4,0,.4.2,0,.2,0,.4,0,.6s0,.5,0,.7-.2.3-.4.3h0Z"/>
          <path class="cls-5" d="M542.1,18.3c-.2,0-.4,0-.4-.3,0-.2,0-.4,0-.7s0-.5,0-.6c0-.2.2-.2.4-.2v1.8h0ZM542.1,18.3v-1.8h3.6l-.9.7V5.7h2v12.6h-4.7ZM544.8,22.8v-2.3h2v2.3h-2ZM546.8,18.3v-1.8h2.7v1.8h-2.7ZM549.5,18.3v-1.8c.2,0,.4,0,.4.2,0,.2,0,.4,0,.6s0,.5,0,.7-.2.3-.4.3h0Z"/>
          <path class="cls-5" d="M549.5,18.3c-.2,0-.4,0-.4-.3,0-.2,0-.4,0-.7s0-.5,0-.6c0-.2.2-.2.4-.2v1.8h0ZM549.5,18.3v-1.8h16.7l-1.8,1.6v-5.9c0-1.1-.1-1.9-.4-2.6-.3-.7-.7-1.2-1.3-1.6-.6-.3-1.3-.5-2.2-.5s-1.4.1-2.1.4-1.2.6-1.8,1c-.5.4-1,.8-1.5,1.3s-.9,1-1.3,1.4-.7.9-1.1,1.3l-.7-1.8c.5-.7,1-1.3,1.6-1.9s1.1-1.2,1.8-1.7c.6-.5,1.4-.9,2.2-1.3.8-.3,1.7-.5,2.8-.5s2.2.2,2.9.6c.8.4,1.4.9,1.8,1.6s.7,1.4.9,2.1c.2.8.3,1.5.3,2.2v6.1h-16.8,0ZM551.2,16.5V.2h2v16.3h-2ZM565.7,18.3v-1.8h2.7v1.8h-2.7ZM568.4,18.3v-1.8c.2,0,.4,0,.4.2,0,.2,0,.4,0,.6s0,.5,0,.7-.2.3-.4.3h0Z"/>
          <path class="cls-5" d="M568.4,18.3c-.2,0-.4,0-.4-.3,0-.2,0-.4,0-.7s0-.5,0-.6c0-.2.2-.2.4-.2v1.8h0ZM568.4,18.3v-1.8h3.1v1.8h-3.1ZM571.4,18.3V.2h2v18.1h-2Z"/>
          <path class="cls-5" d="M577.7,18.3V.2h1.9v18.1h-1.9Z"/>
          <path class="cls-5" d="M589.3,26.6c-.2-1-.3-1.9-.4-2.7-.1-.9-.2-1.6-.2-2.2,0-1.1.2-2,.6-2.8.4-.8.9-1.4,1.6-1.8.7-.4,1.6-.6,2.6-.6h7.6l-1.5,1.3v-5.7c0-1.2-.1-2.1-.4-2.8-.3-.7-.7-1.1-1.4-1.4s-1.5-.4-2.6-.4-1.4,0-2.1.2-1.2.2-1.6.4l1.2-1.2c-.1.4-.2.9-.3,1.5-.1.6-.2,1.3-.2,2s0,1.4,0,2.1,0,1.4,0,2.1c0,.7.1,1.3.2,1.8s.2.9.2,1.1l-1.9.5c0-.2-.1-.6-.2-1.1,0-.5-.2-1.2-.3-1.9s-.1-1.6-.1-2.4,0-1.6.1-2.4c0-.8.2-1.5.3-2.1.1-.6.2-1.1.3-1.5.4-.2,1-.3,1.8-.5.8-.2,1.7-.2,2.7-.2s1.6,0,2.3.2c.7.1,1.3.4,1.8.7s.9.7,1.3,1.2c.3.5.6,1.1.8,1.8.2.7.3,1.5.3,2.5v6.2h-8.1c-.3,0-.6,0-.9.1-.3,0-.6.2-.9.5-.3.2-.5.6-.7,1-.2.5-.3,1.1-.3,1.9s0,1.4.2,2.2c.1.8.3,1.7.4,2.7h-1.9Z"/>
          <path class="cls-5" d="M609.3,23.8c-.6,0-1.2,0-1.9-.1-.7,0-1.4-.2-2.2-.4l.3-1.6c.9.1,1.6.2,2.2.3s1.1,0,1.5,0c1.4,0,2.4-.3,3.1-.8.6-.5,1-1.3,1-2.3V6.8l1,.7h-4.3c-1,0-1.7.1-2.3.3-.5.2-.9.7-1.1,1.3-.2.6-.3,1.6-.3,2.8s.1,2.2.3,2.8c.2.6.6,1.1,1.1,1.3s1.3.3,2.3.3h3.3v1.8h-3.3c-1.5,0-2.6-.2-3.4-.7-.8-.4-1.4-1.1-1.7-2.1s-.5-2.1-.5-3.6.2-2.6.5-3.6c.3-.9.9-1.6,1.7-2.1.8-.4,2-.7,3.4-.7h5.2v13.3c0,1-.2,1.9-.7,2.7-.5.7-1.2,1.3-2.1,1.7-.9.4-2,.6-3.2.6h0ZM615.3,18.3v-1.8h2.7v1.8h-2.7ZM618,18.3v-1.8c.2,0,.4,0,.4.2s0,.4,0,.6,0,.5,0,.7-.2.3-.4.3h0Z"/>
          <path class="cls-5" d="M618,18.3c-.2,0-.4,0-.4-.3,0-.2,0-.4,0-.7s0-.5,0-.6c0-.2.2-.2.4-.2v1.8h0ZM618,18.3v-1.8h3v1.8h-3ZM621,18.3V.2h2v18.1h-2ZM623,18.3v-1.8h2.7v1.8h-2.7ZM625.7,18.3v-1.8c.2,0,.4,0,.4.2s0,.4,0,.6,0,.5,0,.7-.2.3-.4.3h0Z"/>
          <path class="cls-5" d="M625.7,18.3c-.2,0-.4,0-.4-.3,0-.2,0-.4,0-.7s0-.5,0-.6c0-.2.2-.2.4-.2v1.8h0ZM625.7,18.3v-1.8h3.4c1,0,2-.2,2.9-.5s1.8-.8,2.5-1.3,1.4-1.1,2-1.8c.6-.7,1-1.3,1.3-2s.5-1.3.5-1.9v-1.5l1.1,1.6c-1-.5-1.9-.9-2.9-1.1-.9-.3-1.9-.4-2.7-.4s-1.8.1-2.7.4c-.9.3-1.9.6-2.9,1.1l1.1-1.6v1.5c0,.6.2,1.3.5,1.9s.8,1.4,1.3,2c.6.7,1.2,1.3,2,1.8.8.5,1.6,1,2.5,1.3s1.9.5,2.9.5h3.2v1.8h-3.2c-1.3,0-2.5-.2-3.7-.6s-2.2-1-3.1-1.7c-.9-.7-1.7-1.5-2.4-2.3-.7-.8-1.2-1.7-1.5-2.5-.4-.8-.5-1.6-.5-2.3v-1.5c.7-.4,1.5-.7,2.2-1s1.5-.4,2.2-.6c.7-.1,1.4-.2,2.1-.2s1.4,0,2.1.2,1.5.3,2.2.6c.7.3,1.5.6,2.2,1v1.5c0,.7-.2,1.4-.5,2.3-.3.8-.9,1.7-1.5,2.5-.7.8-1.5,1.6-2.4,2.3-.9.7-2,1.3-3.1,1.7-1.1.4-2.4.6-3.7.6h-3.4ZM641.8,18.3v-1.8c.2,0,.4,0,.4.2s0,.4,0,.6,0,.5,0,.7-.2.3-.4.3h0Z"/>
          <path class="cls-5" d="M641.8,18.3c-.2,0-.4,0-.4-.3,0-.2,0-.4,0-.7s0-.5,0-.6c0-.2.2-.2.4-.2v1.8h0ZM641.8,18.3v-1.8h3.1v1.8h-3.1ZM644.8,18.3V.2h2v18.1h-2Z"/>
          <path class="cls-5" d="M651.1,18.3V.2h1.9v18.1h-1.9Z"/>
          <path class="cls-5" d="M667.7,18.3c-1.5,0-2.6-.2-3.4-.7s-1.4-1.1-1.7-2.1-.5-2.1-.5-3.6.2-2.6.5-3.6c.3-.9.9-1.6,1.7-2.1.8-.4,1.9-.7,3.4-.7h5.2v11.6h-2V6.6l1,.9h-4.3c-1,0-1.7.1-2.3.3-.5.2-.9.7-1.1,1.3-.2.6-.3,1.6-.3,2.8s.1,2.2.3,2.8c.2.6.6,1.1,1.1,1.3.5.2,1.3.3,2.3.3h7.9v1.8h-7.9ZM665.2,3.4V1.1h2v2.3h-2ZM668.7,3.4V1.1h2v2.3h-2ZM675.6,18.3v-1.8c.2,0,.4,0,.4.2s0,.4,0,.6,0,.5,0,.7-.2.3-.4.3h0Z"/>
          <path class="cls-5" d="M675.6,18.3c-.2,0-.4,0-.4-.3,0-.2,0-.4,0-.7s0-.5,0-.6c0-.2.2-.2.4-.2v1.8h0ZM675.6,18.3v-1.8h3.6l-.9.7V5.7h2v12.6h-4.7ZM676.6,22.8v-2.3h2v2.3h-2ZM680.1,22.8v-2.3h2v2.3h-2ZM680.3,18.3v-1.8h2.7v1.8h-2.7ZM683,18.3v-1.8c.2,0,.4,0,.4.2s0,.4,0,.6,0,.5,0,.7-.2.3-.4.3h0Z"/>
          <path class="cls-5" d="M683,18.3c-.2,0-.4,0-.4-.3,0-.2,0-.4,0-.7s0-.5,0-.6c0-.2.2-.2.4-.2v1.8h0ZM683,18.3v-1.8h3.1v1.8h-3.1ZM686.1,18.3V.2h2v18.1h-2ZM688,18.3v-1.8h2.7v1.8h-2.7ZM690.8,18.3v-1.8c.2,0,.4,0,.4.2s0,.4,0,.6,0,.5,0,.7-.2.3-.4.3h0Z"/>
          <path class="cls-5" d="M690.8,18.3c-.2,0-.4,0-.4-.3,0-.2,0-.4,0-.7s0-.5,0-.6c0-.2.2-.2.4-.2v1.8h0ZM690.8,18.3v-1.8h12.6l-.7.6v-4.5c0-.9-.1-1.7-.4-2.3-.2-.6-.6-1-1.1-1.3-.5-.3-1.1-.4-1.8-.4h-5.5l-1.4-2.2,1.1-2.1c.2-.4.4-.7.6-1.1s.5-.8.8-1.3c.3-.5.7-1.1,1.2-1.8l1.6,1c-.5.7-.9,1.4-1.2,1.8s-.6.9-.8,1.3-.4.7-.6,1.1l-1.3,2.4-.5-.8h5.9c1.1,0,1.9.2,2.6.5.7.4,1.2.8,1.6,1.4.4.6.6,1.2.8,1.9s.2,1.3.2,2v5.7h-13.9Z"/>
        </g>
        <g>
          <path class="cls-2" d="M525.6,34.6v5.5h8.5v2.5h-8.5v7.7h-2.8v-18.2h12.6v2.6h-9.8Z"/>
          <path class="cls-2" d="M542.6,50.6c-1.8,0-3.3-.7-4.5-2s-1.8-2.9-1.8-4.9.6-3.6,1.8-4.9,2.7-2,4.5-2,3.5.8,4.6,2.3v-2h2.6v13.1h-2.6v-2c-1.1,1.5-2.6,2.3-4.6,2.3h0ZM543,48.1c1.2,0,2.2-.4,3-1.3s1.2-1.9,1.2-3.2-.4-2.3-1.2-3.2-1.8-1.3-3-1.3-2.2.4-3,1.2-1.2,1.9-1.2,3.2.4,2.3,1.2,3.2c.8.8,1.8,1.3,3,1.3h0Z"/>
          <path class="cls-2" d="M559.3,50.6c-1.9,0-3.5-.7-4.8-2s-1.9-3-1.9-4.9.6-3.6,1.9-4.9c1.3-1.3,2.9-2,4.8-2s2.9.4,4,1.3,1.8,1.8,2,2.9l-2.5.7c-.2-.6-.6-1.2-1.3-1.7-.7-.5-1.4-.7-2.3-.7s-2.2.4-3,1.3c-.8.9-1.2,1.9-1.2,3.1s.4,2.2,1.2,3.1c.8.9,1.8,1.3,3,1.3s1.6-.2,2.3-.7c.7-.5,1.1-1,1.3-1.7l2.5.7c-.3,1.1-.9,2-2,2.8-1.1.8-2.4,1.3-4,1.3h0Z"/>
          <path class="cls-2" d="M580,37.2v13.1h-2.6v-2c-1,1.5-2.5,2.3-4.4,2.3-1.6,0-2.9-.5-3.8-1.5-.9-1-1.3-2.4-1.3-4.2v-7.7h2.7v7.2c0,1.2.3,2.1.8,2.7s1.3,1,2.3,1,2-.4,2.7-1.2,1-1.9,1-3.2v-6.5h2.6Z"/>
          <path class="cls-2" d="M583.6,31.3h2.7v19h-2.7v-19Z"/>
          <path class="cls-2" d="M597.6,49.8c-1,.4-1.9.6-2.8.6-1.3,0-2.3-.4-3-1.2s-1-1.9-1-3.3v-6.4h-2.3v-2.4h2.3v-4.4h2.6v4.4h4.1v2.4h-4.1v6.4c0,1.3.6,2,1.8,2s1.1-.1,1.7-.4l.7,2.2Z"/>
          <path class="cls-2" d="M612.4,37.2l-7.8,18.5h-2.7l2.4-5.8-5.8-12.8h2.9l4.3,9.7,3.9-9.7h2.8Z"/>
          <path class="cls-2" d="M626.7,50.6c-1.9,0-3.6-.7-4.8-2s-1.9-2.9-1.9-4.9.6-3.6,1.9-4.9,2.9-2,4.8-2,3.6.6,4.9,2,1.9,2.9,1.9,4.9-.6,3.6-1.9,4.9-2.9,2-4.8,2h0ZM629.7,46.8c.8-.8,1.2-1.9,1.2-3.1s-.4-2.3-1.2-3.2-1.8-1.3-3-1.3-2.2.4-3,1.3c-.8.8-1.2,1.9-1.2,3.2s.4,2.3,1.2,3.1c.8.8,1.8,1.3,3,1.3s2.2-.4,3-1.3Z"/>
          <path class="cls-2" d="M639.9,37.2h4.2v2.4h-4.2v10.7h-2.7v-10.7h-2.5v-2.4h2.5v-1.5c0-1.5.4-2.7,1.1-3.5.7-.8,1.8-1.3,3.2-1.3s2,.2,2.7.5l-.6,2.2c-.6-.3-1.1-.4-1.7-.4-1.3,0-1.9.8-1.9,2.5v1.4Z"/>
          <path class="cls-2" d="M540.5,62v18.2h-2.8v-13.3l-6.1,8.7-6.1-8.7v13.3h-2.8v-18.2h2.6l6.2,9.2,6.2-9.2h2.6Z"/>
          <path class="cls-2" d="M550.1,80.6c-2,0-3.7-.6-4.9-1.9-1.3-1.3-1.9-2.9-1.9-5s.6-3.6,1.8-4.9,2.8-2,4.7-2,3.6.6,4.8,1.9,1.7,2.8,1.7,4.7,0,.7,0,1.1h-10.4c0,1.1.5,2,1.2,2.7s1.7,1,3,1,3-.7,3.6-2.1l2.4.7c-.5,1-1.2,1.9-2.3,2.6s-2.3,1.1-3.9,1.1h0ZM553.8,72.7c0-1-.5-1.9-1.2-2.6s-1.6-1-2.7-1-2,.3-2.7,1-1.1,1.5-1.2,2.5h7.8Z"/>
          <path class="cls-2" d="M571.9,61.2v19h-2.6v-2c-1.1,1.5-2.6,2.3-4.6,2.3-1.8,0-3.3-.7-4.5-2s-1.8-2.9-1.8-4.9.6-3.6,1.8-4.9,2.7-2,4.5-2,3.5.8,4.6,2.3v-7.9h2.6ZM565,78.1c1.2,0,2.2-.4,3-1.3s1.2-1.9,1.2-3.2-.4-2.3-1.2-3.2-1.8-1.3-3-1.3-2.2.4-3,1.2-1.2,1.9-1.2,3.2.4,2.3,1.2,3.2c.8.8,1.8,1.3,3,1.3h0Z"/>
          <path class="cls-2" d="M575.6,64.5c-.3-.3-.5-.7-.5-1.2s.2-.8.5-1.2c.3-.3.7-.5,1.2-.5s.9.2,1.2.5c.3.3.5.7.5,1.2s-.2.9-.5,1.2c-.3.3-.7.5-1.2.5s-.9-.2-1.2-.5ZM575.4,67.2h2.6v13.1h-2.6v-13.1Z"/>
          <path class="cls-2" d="M587.6,80.6c-1.9,0-3.5-.7-4.8-2s-1.9-3-1.9-4.9.6-3.6,1.9-4.9c1.3-1.3,2.9-2,4.8-2s2.9.4,4,1.3,1.8,1.8,2,2.9l-2.5.7c-.2-.6-.6-1.2-1.3-1.7-.7-.5-1.4-.7-2.3-.7s-2.2.4-3,1.3c-.8.9-1.2,1.9-1.2,3.1s.4,2.2,1.2,3.1c.8.9,1.8,1.3,3,1.3s1.6-.2,2.3-.7c.7-.5,1.1-1,1.3-1.7l2.5.7c-.3,1.1-.9,2-2,2.8-1.1.8-2.4,1.3-4,1.3h0Z"/>
          <path class="cls-2" d="M601.9,80.6c-1.8,0-3.3-.7-4.5-2s-1.8-2.9-1.8-4.9.6-3.6,1.8-4.9,2.7-2,4.5-2,3.5.8,4.6,2.3v-2h2.6v13.1h-2.6v-2c-1.1,1.5-2.6,2.3-4.6,2.3h0ZM602.3,78.1c1.2,0,2.2-.4,3-1.3s1.2-1.9,1.2-3.2-.4-2.3-1.2-3.2-1.8-1.3-3-1.3-2.2.4-3,1.2-1.2,1.9-1.2,3.2.4,2.3,1.2,3.2c.8.8,1.8,1.3,3,1.3h0Z"/>
          <path class="cls-2" d="M612.7,61.3h2.7v19h-2.7v-19Z"/>
          <path class="cls-2" d="M632.2,80.6c-2,0-3.7-.5-5.1-1.6s-2.4-2.4-2.9-3.9l2.6-.8c.4,1.1,1.1,2,2.1,2.7s2.1,1.1,3.5,1.1,2.1-.3,2.9-.9,1.1-1.2,1.1-2-.2-1.1-.6-1.5c-.4-.4-1.2-.8-2.2-1.1l-4.5-1.5c-2.7-.9-4-2.3-4-4.5s.6-2.6,1.7-3.5,2.6-1.5,4.4-1.5,3.4.4,4.7,1.3c1.3.9,2.2,1.9,2.8,3.2l-2.6.8c-.4-.9-1.1-1.5-1.9-2.1-.9-.5-1.8-.8-3-.8s-1.8.2-2.4.7-1,1.1-1,1.7.2,1,.5,1.3c.4.3.9.6,1.7.9l4.4,1.4c1.5.5,2.7,1.1,3.5,1.8s1.2,1.7,1.2,3-.6,2.9-1.9,3.9-3,1.6-5,1.6h0Z"/>
          <path class="cls-2" d="M648,80.6c-1.9,0-3.5-.7-4.8-2s-1.9-3-1.9-4.9.6-3.6,1.9-4.9c1.3-1.3,2.9-2,4.8-2s2.9.4,4,1.3,1.8,1.8,2,2.9l-2.5.7c-.2-.6-.6-1.2-1.3-1.7-.7-.5-1.4-.7-2.3-.7s-2.2.4-3,1.3c-.8.9-1.2,1.9-1.2,3.1s.4,2.2,1.2,3.1c.8.9,1.8,1.3,3,1.3s1.6-.2,2.3-.7c.7-.5,1.1-1,1.3-1.7l2.5.7c-.3,1.1-.9,2-2,2.8-1.1.8-2.4,1.3-4,1.3h0Z"/>
          <path class="cls-2" d="M657,64.5c-.3-.3-.5-.7-.5-1.2s.2-.8.5-1.2c.3-.3.7-.5,1.2-.5s.9.2,1.2.5c.3.3.5.7.5,1.2s-.2.9-.5,1.2c-.3.3-.7.5-1.2.5s-.9-.2-1.2-.5ZM656.8,67.2h2.6v13.1h-2.6v-13.1Z"/>
          <path class="cls-2" d="M669.1,80.6c-2,0-3.7-.6-4.9-1.9-1.3-1.3-1.9-2.9-1.9-5s.6-3.6,1.8-4.9,2.8-2,4.7-2,3.6.6,4.8,1.9,1.7,2.8,1.7,4.7,0,.7,0,1.1h-10.4c0,1.1.5,2,1.2,2.7s1.7,1,3,1,3-.7,3.6-2.1l2.4.7c-.5,1-1.2,1.9-2.3,2.6s-2.3,1.1-3.9,1.1h0ZM672.8,72.7c0-1-.5-1.9-1.2-2.6s-1.6-1-2.7-1-2,.3-2.7,1-1.1,1.5-1.2,2.5h7.8Z"/>
          <path class="cls-2" d="M685.1,66.8c1.6,0,2.9.5,3.8,1.5.9,1,1.3,2.4,1.3,4.2v7.7h-2.6v-7.2c0-1.2-.3-2.1-.8-2.7s-1.3-1-2.3-1-2,.4-2.7,1.2c-.7.8-1,1.9-1,3.2v6.5h-2.7v-13.1h2.7v1.9c1.1-1.5,2.5-2.3,4.4-2.3h0Z"/>
          <path class="cls-2" d="M699.5,80.6c-1.9,0-3.5-.7-4.8-2s-1.9-3-1.9-4.9.6-3.6,1.9-4.9c1.3-1.3,2.9-2,4.8-2s2.9.4,4,1.3,1.8,1.8,2,2.9l-2.5.7c-.2-.6-.6-1.2-1.3-1.7-.7-.5-1.4-.7-2.3-.7s-2.2.4-3,1.3c-.8.9-1.2,1.9-1.2,3.1s.4,2.2,1.2,3.1c.8.9,1.8,1.3,3,1.3s1.6-.2,2.3-.7c.7-.5,1.1-1,1.3-1.7l2.5.7c-.3,1.1-.9,2-2,2.8-1.1.8-2.4,1.3-4,1.3h0Z"/>
          <path class="cls-2" d="M714.3,80.6c-2,0-3.7-.6-4.9-1.9-1.3-1.3-1.9-2.9-1.9-5s.6-3.6,1.8-4.9,2.8-2,4.7-2,3.6.6,4.8,1.9,1.7,2.8,1.7,4.7,0,.7,0,1.1h-10.4c0,1.1.5,2,1.2,2.7s1.7,1,3,1,3-.7,3.6-2.1l2.4.7c-.5,1-1.2,1.9-2.3,2.6s-2.3,1.1-3.9,1.1h0ZM718,72.7c0-1-.5-1.9-1.2-2.6s-1.6-1-2.7-1-2,.3-2.7,1-1.1,1.5-1.2,2.5h7.8Z"/>
          <path class="cls-2" d="M728.1,80.6c-1.4,0-2.7-.4-3.8-1.2-1.1-.8-1.8-1.7-2.2-2.8l2.4-.7c.2.7.7,1.3,1.4,1.8s1.4.7,2.3.7,1.4-.2,1.9-.5.7-.8.7-1.3-.1-.7-.4-.9-.7-.4-1.3-.6l-3.4-1c-2-.6-3-1.7-3-3.4s.5-1.9,1.4-2.7,2.1-1.1,3.5-1.1,2.5.3,3.5.9,1.7,1.4,2,2.4l-2.4.7c-.3-.5-.7-1-1.2-1.3s-1.2-.5-2-.5-1.2.2-1.6.5c-.4.3-.6.7-.6,1.1s.5,1,1.4,1.3l3.4,1c1.1.3,1.9.7,2.5,1.3.6.5.9,1.3.9,2.3s-.5,2.2-1.5,2.9-2.3,1.2-3.8,1.2h0Z"/>
        </g>
      </g>
      <g>
        <g>
          <rect class="cls-4" y=".2" width="80.1" height="80.1"/>
          <path class="cls-6" d="M61.4,16.3v28.1c0,6.3-1.9,11.4-5.6,15.2-3.7,3.8-9,5.7-15.7,5.7s-12-1.9-15.8-5.7c-3.7-3.8-5.6-8.9-5.6-15.2v-28.1h11.5v27.9c0,3.2.8,5.8,2.5,7.7,1.7,2,4.1,3,7.3,3s5.6-1,7.3-3c1.7-2,2.5-4.5,2.5-7.7v-27.9h11.5Z"/>
          <rect class="cls-4" x="88.2" y=".2" width="80.1" height="80.1"/>
          <rect class="cls-4" x="176.4" y=".2" width="80.1" height="80.1"/>
          <rect class="cls-4" x="264.5" y=".2" width="80.1" height="80.1"/>
          <polygon class="cls-6" points="153.8 16.2 153.8 64.3 142.4 64.3 142.4 36.1 128.3 55.4 114.2 36.1 114.2 64.3 102.8 64.3 102.8 16.2 113.6 16.2 128.3 37.5 142.9 16.2 153.8 16.2"/>
          <path class="cls-6" d="M221.8,53.2c1.3-1.3,2-3,2-5.1s-.7-3.7-2-5c-1.3-1.4-3.1-2-5.4-2s-4,.7-5.3,2c-1.4,1.3-2.1,3-2.1,5.1s.7,3.8,2,5.1c1.4,1.3,3.2,2,5.4,2s4-.7,5.4-2M230.4,36.4c3.2,3.1,4.8,7,4.8,11.7s-1.8,9.1-5.3,12.4-8,4.9-13.4,4.9-9.8-1.6-13.4-4.9c-3.6-3.3-5.4-7.4-5.4-12.4s1.1-6.6,3.4-10.2l13.6-21.6h12.8l-9.4,14.9c5,.4,9.1,2.1,12.2,5.2"/>
          <path class="cls-6" d="M311.8,38.5c1.3-1.4,1.9-3.1,1.9-4.9s-.6-3.5-1.8-4.9c-1.2-1.4-2.8-2.1-4.6-2.1h-11.6v14.1h11.1c2,0,3.7-.7,5-2.1M320,21.5c3.2,3.5,4.8,7.5,4.8,12s-1.6,8.6-4.8,12.1c-3.2,3.5-7.5,5.3-12.9,5.3h-11.4v13.4h-11.3V16.2h23.1c5.1,0,9.3,1.8,12.5,5.3"/>
        </g>
        <rect class="cls-1" x="384.9" y=".1" width="1" height="80.2"/>
      </g>
    </g>
  </g>
</svg>