<?xml version="1.0" encoding="UTF-8"?>
<svg id="Layer_2" data-name="Layer 2" xmlns="http://www.w3.org/2000/svg" viewBox="0 0 718.2 96">
  <defs>
    <style>
      .cls-1 {
        fill: #d1451e;
      }

      .cls-1, .cls-2, .cls-3, .cls-4, .cls-5 {
        stroke-width: 0px;
      }

      .cls-2 {
        fill: #d74a2a;
      }

      .cls-3 {
        fill: #fff;
      }

      .cls-4 {
        fill: #4da691;
      }

      .cls-5 {
        fill: #2566a4;
      }
    </style>
  </defs>
  <g id="Layer_1-2" data-name="Layer 1">
    <g>
      <g>
        <g>
          <rect class="cls-2" y="8" width="80.1" height="80.1"/>
          <path class="cls-3" d="M61.4,24.1v28.1c0,6.3-1.9,11.4-5.6,15.2-3.7,3.8-9,5.7-15.7,5.7s-12-1.9-15.8-5.7c-3.7-3.8-5.6-8.9-5.6-15.2v-28.1h11.5v27.9c0,3.2.8,5.8,2.5,7.7,1.7,2,4.1,3,7.3,3s5.6-1,7.3-3c1.7-2,2.5-4.5,2.5-7.7v-27.9h11.5Z"/>
          <rect class="cls-2" x="88.2" y="8" width="80.1" height="80.1"/>
          <rect class="cls-2" x="176.4" y="8" width="80.1" height="80.1"/>
          <rect class="cls-2" x="264.5" y="8" width="80.1" height="80.1"/>
          <polygon class="cls-3" points="153.8 24 153.8 72.1 142.4 72.1 142.4 43.9 128.3 63.2 114.2 43.9 114.2 72.1 102.8 72.1 102.8 24 113.6 24 128.3 45.3 142.9 24 153.8 24"/>
          <path class="cls-3" d="M221.8,61c1.3-1.3,2-3,2-5.1s-.7-3.7-2-5c-1.3-1.4-3.1-2-5.4-2s-4,.7-5.3,2c-1.4,1.3-2.1,3-2.1,5.1s.7,3.8,2,5.1c1.4,1.3,3.2,2,5.4,2s4-.7,5.4-2M230.4,44.2c3.2,3.1,4.8,7,4.8,11.7s-1.8,9.1-5.3,12.4c-3.6,3.3-8,4.9-13.4,4.9s-9.8-1.6-13.4-4.9c-3.6-3.3-5.4-7.4-5.4-12.4s1.1-6.6,3.4-10.2l13.6-21.6h12.8l-9.4,14.9c5,.4,9.1,2.1,12.2,5.2"/>
          <path class="cls-3" d="M311.8,46.3c1.3-1.4,1.9-3.1,1.9-4.9s-.6-3.5-1.8-4.9c-1.2-1.4-2.8-2.1-4.6-2.1h-11.6v14.1h11.1c2,0,3.7-.7,5-2.1M320,29.3c3.2,3.5,4.8,7.5,4.8,12s-1.6,8.6-4.8,12.1c-3.2,3.5-7.5,5.3-12.9,5.3h-11.4v13.4h-11.3V24h23.1c5.1,0,9.3,1.8,12.5,5.3"/>
        </g>
        <rect class="cls-1" x="384.9" y="7.9" width="1" height="80.2"/>
      </g>
      <g>
        <path class="cls-4" d="M470.9,70c0-.2.1-.4.2-.5v-.4c0-.2,0-.2,0-.3,0-.1-.1-.3-.3-.4l-.8-.4c0,0-.2,0-.4-.2-.2,0-.3-.1-.4-.2-.2,0-.4,0-.5,0,0,0-.1.1-.3.4,0,.1,0,.3-.2.5,0,.2-.1.4-.1.5-.1.4-.2.8-.2.9,0,.2,0,.3,0,.3,0,0,0,.1,0,.1.2,0,.6.2,1.1.5,0,0,.4.2,1.1.5.1,0,.2,0,.3-.3,0,0,0,0,0,0,0,0,.1-.3.4-.8,0-.1,0-.3.1-.5Z"/>
        <path class="cls-4" d="M479.3,77.3c.4,0,.8-.2,1.1-.4.3-.2.7-.5,1.1-1,.5-.6.9-1,1.2-1.3.4-.5.8-.9,1.3-1.3.5-.4.9-.8,1.5-1,.5-.3,1-.5,1.7-.6.1-.2.2-.4.3-.7l.2-1c0-.2,0-.5.1-.9v-.5c-.1-.2-.3-.3-.5-.3,0,0-.2,0-.2,0-.4,0-.8.2-1.2.3-.1,0-.4.1-.7.2-.3.1-.5.2-.7.2-.4.1-.9.2-1.3.2,0-.3.3-.6.6-.9.3-.3.7-.6,1.2-1,.6-.4,1.1-.8,1.4-1.1.4-.3.9-.8,1.4-1.4.4-.6.8-1.2,1.1-1.9.3-.6.5-1.4.6-2.4,0-.6,0-1.2-.2-2.1-.2-.7-.4-1.5-.6-2.4-.2-.5-.5-1.3-.9-2.3-.2-.5-.5-1.2-1-2-.3-.5-.6-1-.9-1.4-.2-.3-.5-.4-.6-.4h0c-.3.9-.5,1.9-.6,2.8-.1.9-.2,1.8-.2,2.9,0,.3,0,.5,0,.8,0,.7,0,1.4,0,2.1.1,1.8.2,2.7.2,2.9,0,.1,0,.2,0,.2h0c0,0,.1,0,.1-.2,0-.4.1-.9.2-1.6,0-.2,0-.5,0-1,0-.4,0-.8,0-1,0-.5,0-1.1.1-1.9,0-.6.1-1.1.3-1.5.3.2.6.6.9,1.2.3.5.6,1.1.9,1.9.3.6.5,1.3.7,2,.2.8.3,1.3.3,1.6,0,.4-.2.8-.4,1.2-.3.4-.7.8-1,1.2-.4.4-.8.8-1.3,1.3-.5.5-1,.9-1.4,1.4-.4.4-.8.9-1.3,1.5-.4.5-.6,1-.8,1.4-.1.4-.2.9-.2,1.5,0,.4,0,.9.1,1.3-.2.3-.5.7-.9,1.1-.4.4-.7.7-.9.8-.3.2-.6.3-.9.3h0c0,.1-.5.1-.5.1.1-.2.2-.5.4-.9.1-.3.2-.6.3-1,0-.2,0-.5,0-.6,0-.2,0-.4,0-.5,0-.3-.2-.5-.4-.7-.2-.2-.5-.3-.8-.4-.4,0-.8-.1-1.2-.2-.6,0-1.2,0-1.7.3-.4.2-.9.6-1.2,1-.4.5-.6.9-.8,1.4-.2.6-.3,1.2-.3,1.7,0,.2,0,.3.1.3h0c0,0,.3,0,.6-.2h.3c0-.1.3-.3.3-.3.2,0,.3,0,.4,0,0,0,.1,0,.2,0,.2,0,.4.2.6.4.2.2.2.4.2.6,0,.2-.1.5-.3.7-.2.3-.4.6-.7.9-.3.3-.6.5-.9.7-.3.2-.7.3-.9.3h0c-.6,0-1-.2-1.2-.4-.3-.4-.4-.7-.5-.9,0-.2-.2-.5-.4-.9-.2-.3-.6-.4-1.1-.4-.8,0-1.5.2-2.2.7-.7.6-1.4,1.2-2,2-.6.8-1.1,1.7-1.4,2.5-.5.9-.8,1.9-1.1,3.1,0,.4-.2.7-.2,1,0,.7.1,1.2.4,1.6.2.3,1.4.7,3.4,1.2.7.2,1.1.4,1.1.8,0,.1,0,.2,0,.3,0,.4-.1.9-.4,1.4-.5,1.1-1.3,1.9-2.3,2.5-1.1.6-2.1.9-3.1.9-.2,0-.4,0-.6,0-1.3-.3-2.3-.9-3-1.8-.9-1.3-1.3-2.9-1.2-4.9,0-.8.1-1.6.3-2.5.3-1.6.8-3.2,1.5-4.9.6-1.1,1.4-2.6,2.5-4.5,1.7-2.9,3.1-6.2,4.3-9.7.6-1.8,1.1-3.5,1.5-5.1.2-1,.4-1.9.6-2.8,0-.4.1-.9.2-1.3,0-.3,0-.4,0-.4,0,0-.1,0-.3.3l-.3,1.3c0,.4-.2.8-.3,1.2-.2.8-.5,1.5-.7,2.2-.5,1.5-1.2,2.9-2,4.4-1.7,2.9-3.7,5.6-6.2,7.9-2.1,2-4.9,4-8.3,6-.4.2-.8.5-1.3.7-.7.4-1,.6-1.1.6-.1.1-.2.2-.2.3,0,0,0,0,.1,0s.2,0,.4,0c.1,0,.5-.2,1.1-.4,1.5-.5,3-1.2,4.5-2,3-1.6,5.7-3.7,8.2-6.3-2.5,4.1-4.2,7.5-5,10.3-.5,1.7-.8,3.4-.9,5.1v.5c0,1.9,0,3.4.5,4.5.6,1.6,1.5,2.9,2.7,3.7.8.6,1.7.9,2.6.9.6,0,1.3,0,2-.3,3.3-1.1,5.2-3.7,5.5-7.6v-.4c0-1.6-.3-2.7-1.1-3.5-.4-.4-1.1-.7-2-.9-1-.2-1.6-.5-1.5-.9.2-.6.4-1.2.7-1.7.2-.5.6-1,1.2-1.5.4-.4.9-.8,1.5-1.1.5-.3.9-.4,1.3-.4,0,0,.2,0,.2,0,.5,0,.7.2.9.5.2.3.4.6.5,1,.2.4.4.7.7.9.2.3.7.5,1.4.5h0s0,0,0,0c0,0,0,0,0,0h0c.3,0,.6-.2.9-.4.3-.2.7-.5,1-.8.4-.4.7-.8.9-1,.3-.4.5-.7.7-1,.3-.4.5-.6.5-.8.1-.2.2-.3.3-.3l.5.5c.2.2.8.4,1.6.5h0Z"/>
        <path class="cls-4" d="M493.3,47.7c-.2,2.4-.2,3.6-.2,3.7.2,2.2.4,5.5.6,9.7.3,4.9.5,8.2.6,9.7,0,.6.2.4.3-.5.2-1.3.3-1.9.2-1.7,0-.3-.1-5.5-.6-15.5,2.4,3.6,3.8,6.6,4.2,9,.5,2.9,0,6.1-1.8,9.6-.2.5-.9,1.2-2.1,2.2-2,1.7-4.7,3.3-8,4.7-.2,0-2.5.7-6.9,1.7-1.2.3-1.7.5-1.6.6.1.2,1.1.3,3.1.4,4.7.2,8.7-1.1,12-3.8,3-2.4,5-5.8,6.2-10,1-3.5.9-7.2-.3-11.1-1.2-3.9-3-6.8-5.7-8.8Z"/>
        <path class="cls-4" d="M436,70.8c.1,0,.2,0,.4-.4.1-.3.3-.6.4-1,0,0,.1-.3.3-.6.1-.3.2-.5.3-.6.2-.5.4-.9.7-1.3.3-.4.6-.7.8-.9.3-.2.6-.3.8-.2h.1c.3,0,.6.2.7.4.2.3.3.5.3.7,0,0,0,.2.1.6,0,.2,0,.3.2.3h0c.1,0,.3,0,.4-.2.2-.2.3-.5.5-.9.1-.3.2-.7.3-1.2,0-.5,0-.9,0-1.3,0-.4-.2-.8-.4-1.1-.2-.3-.5-.6-.9-.7h-.1c-.4,0-.8,0-1.2.3-.3.2-.7.6-1.1,1.1-.3.4-.6,1-1,1.6-.6,1.2-.9,1.8-.9,1.8h0c-.3.7-.5,1.2-.6,1.4-.3.7-.4,1-.4,1.1,0,0,0,0,.1-.2,0,.1,0,.4-.1.7,0,.2,0,.4.2.5Z"/>
        <path class="cls-4" d="M488.3,37.5c-.3,0-.4-.2-.5-.2,0,0-.1.1-.3.4,0,.2-.2.5-.4.9,0,.2-.2.5-.3.9,0,.2,0,.3,0,.4h0c.2.1.5.3,1.1.7.5.3.8.5,1.1.7h0c0,0,.1,0,.3-.2,0-.1.2-.3.4-.7.2-.4.3-.7.4-.8.1-.4.2-.6.2-.7,0-.1,0-.3-.3-.4-.3-.2-.5-.4-.7-.5-.4-.2-.7-.4-.8-.4Z"/>
        <path class="cls-4" d="M504.3,24.1c-.7-4-2.3-7.1-4.7-9.3-.4,2.3-.6,3.6-.6,3.7,0,2.2-.2,5.5-.4,9.7-.2,5-.4,8.2-.4,9.7,0,.6.1.4.3-.5.3-1.3.4-1.8.4-1.7.1-.3.5-5.5,1-15.5,2,3.8,3.1,6.9,3.3,9.4.2,2.9-.7,6.1-2.8,9.4-.2.4-1,1.1-2.3,2-2.2,1.5-5,2.8-8.5,3.9-.2,0-2.6.4-7.1,1-1.2.2-1.7.3-1.7.5,0,.2,1.1.4,3,.7,4.7.7,8.8-.2,12.3-2.5,3.2-2.1,5.6-5.2,7.2-9.3,1.3-3.4,1.6-7.1.9-11.1Z"/>
        <path class="cls-4" d="M443.3,37.7c-2.2,1.7-4.5,3.3-7,4.8-.1,0-.2.1-.2.2s0,0,0,.1c0,0,.1,0,.2,0,.1,0,.3,0,.5-.1,2.6-1,5.1-2.5,7.6-4.2,2.4-1.7,4.6-3.7,6.5-5.8-.3.6-.5,1.1-.8,1.5-.3.5-.7,1-1,1.4-.4.5-.7.9-1.1,1.3-.3.3-.6.7-1.1,1.3-.3.3-.7.9-1.3,1.6-.5.7-1,1.2-1.2,1.5-.8.9-1.5,1.9-2,2.9-.6,1.1-1.1,2.2-1.3,3.3-.3,1.1-.5,2.4-.5,4.1s.2,2.3.5,3.4c.3,1,.8,2,1.4,2.8.6.8,1.3,1.4,2.1,1.8.7.4,1.5.6,2.3.6h.2c.9,0,1.7-.3,2.4-.6.7-.4,1.3-.8,1.8-1.3.5-.5.9-1.1,1.2-1.8.3-.7.6-1.3.8-2.1.5-1.7.7-3.6.7-5.5h.3c.7,0,1.4-.1,2.2-.4.8-.3,1.4-.6,2-1,.5-.3,1-.8,1.6-1.3.5-.5.9-.9,1.4-1.4,0,0,0,0,.1.2,0,0,0,.1,0,.3,0,.1,0,.2,0,.3l.3.8c.1.3.3.6.4.8,0,0,.1.1.2.1,0,0,0,0,0-.2s0,0,0-.1c-.2-.5-.2-1.1-.3-1.6,0-.3,0-.6,0-.9s0-.6,0-.9l2-2.3c.7-.7,1.3-1.5,1.9-2.4.2-.8.2-1.3.3-1.5,0-.1,0-.3,0-.6,0-.2,0-.4,0-.5,0-.4,0-.6-.1-.7,0,0,0,0-.1,0,0,0-.1,0-.1,0-.1.2-.4.5-.8.9-.3.4-.6.7-.9,1-.3.4-.7.8-1.2,1.2-.4.4-1,.8-1.6,1.2,0,0,0-.2,0-.3,0-.3,0-.7-.2-1.2,0-.5-.3-.9-.5-1.3-.2-.4-.5-.8-.8-1-.3-.2-.7-.4-1.2-.4-.7,0-1.3.1-1.9.4-.5.2-1,.6-1.4,1-.4.4-.7.9-.9,1.5-.2.5-.3,1.1-.3,1.6v.2c0,.6,0,1,.3,1.5.2.4.5.7.7.9.3.3.6.5.9.6.3.1.5.3.9.3.2,0,.4.1.7.2.1,0,.2,0,.3,0-.3.2-.5.4-.9.6-.8.3-1.6.6-2.3.7-.5,0-.8,0-1,0h-.2c-.2,0-.6,0-.9-.1-.4-.1-.8-.3-1-.4-.4-.2-.7-.3-.9-.4,0,0-.2-.1-.3-.2-.1,0-.2-.1-.2-.1-.1,0-.2-.1-.2-.1s0,0,0,0c0,0,0,.1,0,.2v2.8c0,.1.1.2.4.3.3,0,.6.2.9.4.4.3.6.6.8,1,.3.4.4,1.1.4,1.9s-.2,1.3-.5,2.1c-.3.8-.7,1.4-1.2,2-.4.6-1,1.1-1.7,1.5-.7.4-1.4.6-2.1.6s-1.6-.2-2.2-.5c-.6-.3-1.1-.8-1.6-1.4-.4-.6-.8-1.3-.9-1.9-.2-.7-.3-1.4-.3-2.2,0-1.5.3-2.8.8-3.9.5-1.1,1.1-2.2,1.9-3.4.7-1.1,1.6-2.1,2.5-3.1,1-1.1,1.8-2.1,2.5-3.1,1.2-1.6,2.3-3.3,3.1-5.1.9-1.9,1.6-3.6,2.1-5.2.6-1.9,1-3.6,1.3-5.2.3-1.7.5-3.4.7-5.1,0-.2,0-.3-.2-.3-.1,0-.2,0-.2.3-.4,2.8-1.3,5.6-2.6,8.2-1.3,2.5-2.8,4.8-4.6,7-1.7,2-3.8,4-6.1,5.8ZM457.5,40.6c-.5,0-.8-.3-1.1-.6.1-.4.4-.8.8-1,.4-.2.8-.3,1.2-.3h.2c.5,0,.9.2,1.3.4.4.3.6.7.6,1.3-.5.1-1,.2-1.6.2-.6,0-1.1,0-1.4-.1Z"/>
        <path class="cls-4" d="M446.6,49.1c-.6,1.1-.9,1.9-.9,2.3s.1.4.3.4c0,0,.5.2,1.5.6.3.1.6.2.8.2s.2,0,.2-.1c.2-.2.3-.7.6-1.5,0-.3.1-.5.1-.6s0-.4-.2-.5c-.8-.7-1.4-1-1.9-1s-.4.1-.5.3Z"/>
        <path class="cls-4" d="M443.6,77.7c1.4-.3,2.7-.8,3.9-1.3,1.9-.9,3.6-2,5.3-3.3,1.6-1.3,3.1-2.7,4.5-4.3,1.4-1.6,2.6-3.3,3.8-5.1,1-1.5,2.1-3.3,3.3-5.4.5-.9,1-1.9,1.5-3,.2-.4.4-1,.8-1.7.4-.8.7-1.4.8-1.8.8-1.7,1.4-2.9,1.8-3.7.5-1.1,1.1-2.2,1.8-3.3.6-1,1.2-1.9,1.7-2.5.5-.7,1.1-1.1,1.6-1.3,0,0,0,0,.1,0,.2,0,.3.1.4.3.1.3.2.6.3.8.1.3.3.6.5.9.2.3.6.5,1.1.7h0s0,0,0,0c0,0,0,0,0,0h0c.7.1,1.6,0,2.6-.4,1-.3,1.9-1,3-1.9,1-.9,2-2,2.8-3.4.9-1.4,1.5-3,2-4.9,0-.3,0-.5,0-.6,0,0-.3-.1-.8-.2-.3,0-.6,0-1.1,0-.4,0-.9,0-1.5,0-.2,0-.4,0-.8,0-.4,0-.6,0-.8,0-.5,0-.8,0-1.1,0,.2-.4.4-.7.7-1.2.3-.4.8-.9,1.4-1.4.5-.4,1.1-.7,1.6-1,.6-.2,1.1-.3,1.6-.2.4,0,.7.3.8.6.1.3.3.6.4,1,.1.4.3.7.6,1,.2.3.7.5,1.3.6h0s0,0,0,0c.7,0,1.3-.2,1.9-.5.6-.4,1.2-.9,1.7-1.5.5-.7.9-1.4,1.2-2.3.3-.7.5-1.6.8-2.7v-.6c.2-.7.3-1.5.3-2.3,0-.9,0-2-.2-3.4,0,0,0-.3,0-.5,0-.2,0-.4-.1-.6-.1-.6-.3-1-.3-1.3,0-.3-.2-.7-.4-1.2-.2-.5-.4-.8-.5-1-.2-.3-.4-.4-.6-.4-.2,0-.3.3-.5.8-.2.6-.4,1.4-.5,2.3-.1.6-.3,1.6-.5,3,0,.4-.1.9-.2,1.6l-.2,1.5c-.1,1-.2,1.9-.3,2.5,0,.8-.1,1.2-.1,1.2,0,.4,0,.6.1.6,0,0,0,0,0,0,.1-.1.2-.5.4-1,0,0,.2-.7.5-1.9.1-.5.3-1.3.5-2.4,0-.2.1-.6.2-1.1,0-.5.1-.8.2-1.1.2-.9.3-1.4.3-1.4.3.5.6,1.1.8,1.8.2.8.3,1.5.3,2.3,0,.6,0,1.2-.1,1.8,0,.2,0,.3,0,.5-.2.8-.5,1.5-.8,2.1-.3.6-.8,1.1-1.3,1.4-.6.4-1.2.5-1.9.5h-.1s0,0,0,0c-.5,0-.9-.3-1-.6-.2-.3-.3-.6-.4-.9,0-.3-.2-.6-.3-.9-.1-.3-.5-.5-1.1-.6-.8-.1-1.5,0-2.3.5-.7.4-1.4,1-2.1,1.8-.7.7-1.2,1.5-1.7,2.4-.4.8-.8,1.4-1,1.9h-.1c0,.1-.2.4-.3.7,0,.3-.2.6-.3.9-.1.4-.2.8-.2,1v1c-.2.3-.2.5-.1.5,0,0,0,0,0,0,0,0,.2,0,.2,0,.6-.2,1.4-.4,2.3-.7.8-.2,1.8-.3,2.9-.3-.6.9-1.3,1.7-2,2.4-.8.7-1.5,1.2-2,1.5-.6.4-1.2.7-1.8.8-.5.1-.9.2-1.3.1-.4,0-.6-.2-.8-.5-.2-.2-.3-.5-.4-.8,0-.2-.2-.5-.4-.8-.1-.2-.3-.4-.6-.4-.7,0-1.3,0-2,.6-.7.6-1.3,1.3-1.9,2.2-.6.9-1.3,2-1.9,3.3-.6,1.1-1.3,2.5-2.1,4.1-1,2-1.8,3.6-2.3,4.7-.9,1.9-1.8,3.5-2.6,4.8-.9,1.5-1.9,3.1-3,4.7-1.1,1.5-2.2,2.9-3.5,4.2-1.8,1.8-3.5,3.2-5.1,4.3-1.7,1.1-3.3,1.8-4.9,2.5-1.1.5-2.2.8-3.5,1.1-5.7,1.3-12.5-1.5-16.5-5.7-10.9-12.2-4.6-30.2,9.6-36.7,8.5-4,17.3-8.6,15.5-19.7-.7-4.5-3.1-8.5-5.7-12.1-.1-.2-.3-.2-.5,0-.2.1-.2.4,0,.5,0,0,0,0,0,.1,3.3,8.1,2.9,15.9-5.1,20.9,1-.4,2-.8,2.9-1.3,5.8-3.1,6.9-10.2,4.6-15.8,3.4,6.3,4.7,14.1-1.2,19.3-3.1,2.9-7.3,4.5-11.3,6.4-4.1,1.9-8,4.6-10.9,8.1-7.7,9-8.2,23.2-.1,32.2,4.4,4.8,11,8.4,17.6,7.5h0s0,0,0,0c.6,0,1.2-.2,1.7-.3.1,0,.2,0,.3-.1Z"/>
      </g>
      <g>
        <path class="cls-5" d="M529.1,32.2c0,.6-.1,1.3-.4,2-.3.7-.7,1.4-1.3,2.1s-1.3,1.2-2.1,1.6-1.8.6-2.9.6-2.2-.2-3.3-.7c-1.1-.5-2-1.2-2.8-2.1-.3.8-.5,1.5-.6,2.1h-1.4v-7.1h1.4c.3,1,.6,2,1.1,2.9.4.9,1.1,1.7,1.9,2.3s1.8,1,3,1,1.9-.3,2.5-.9c.6-.6.9-1.3.9-2.2s0-.9-.3-1.3-.5-.7-.8-1-.9-.6-1.5-.9c-.6-.3-1.4-.7-2.2-1.1-1.3-.6-2.3-1.2-3.1-1.8-.8-.6-1.4-1.2-1.8-1.8-.4-.6-.7-1.1-.9-1.6-.2-.5-.2-1-.2-1.5,0-.9.3-1.8.8-2.8s1.2-1.6,2.2-2.2c1-.6,2.1-.9,3.4-.9s1.9.2,2.8.7c.9.4,1.6,1,2.3,1.8.2-.4.4-1,.5-1.8h1.4v5.8h-1.4c-1-3.2-2.8-4.7-5.3-4.7s-1.7.2-2.2.7c-.6.5-.8,1.1-.8,1.9s.2,1.1.5,1.6c.3.4.8.8,1.4,1.1.6.3,1.5.8,2.8,1.4,1.5.7,2.7,1.4,3.6,1.9.9.5,1.6,1.2,2.2,2,.6.8.9,1.8.9,2.9Z"/>
        <path class="cls-5" d="M545.1,35.1c-1.2,2.4-3.2,3.6-6,3.6s-2.5-.3-3.6-.8c-1.1-.5-2.1-1.3-2.7-2.3-.7-1-1-2.2-1-3.5s.2-1.8.6-2.6c.4-.8.9-1.6,1.6-2.3.7-.7,1.5-1.2,2.5-1.6,1-.4,2-.6,3.1-.6s2.7.3,3.7.8c1.1.6,1.6,1.3,1.6,2.3s-.2.8-.5,1.2c-.3.3-.7.5-1.2.5s-.7,0-1-.3c-.2-.2-.4-.4-.4-.6,0-.2-.2-.6-.3-1.1-.1-.5-.4-.9-.7-1.1s-.7-.3-1.3-.3c-.9,0-1.8.3-2.5,1-.7.7-1.1,2-1.1,3.9s.1,1.9.4,2.8c.3.8.8,1.5,1.4,2,.6.5,1.4.7,2.3.7s1.8-.3,2.3-.8c.5-.5,1-1.1,1.4-1.8l1.3.6Z"/>
        <path class="cls-5" d="M554.9,38.2h-8.3v-1.4h.4c.6,0,1,0,1.3-.2.3-.2.4-.4.5-.7,0-.3,0-.7,0-1.3v-4.6c0-.6,0-1.1-.1-1.4,0-.3-.3-.5-.6-.6-.3-.1-.9-.2-1.6-.2v-1.4l6.3-1.3v9.4c0,.9.1,1.4.3,1.8.2.3.8.5,1.7.5v1.4ZM553.2,19.1c0,.6-.2,1.1-.7,1.6s-1,.7-1.6.7-1.1-.2-1.6-.7c-.4-.4-.7-1-.7-1.6s.2-1.1.7-1.6c.4-.4,1-.7,1.6-.7s1.2.2,1.6.6.6,1,.6,1.6Z"/>
        <path class="cls-5" d="M570.6,31.5h-9.4c0,.2,0,.6,0,1.2s.2,1.3.4,1.9c.2.7.7,1.2,1.2,1.7.6.5,1.4.7,2.4.7s1.2-.1,2-.4c.8-.3,1.4-.8,2-1.6l1.2.8c-1.2,1.9-3.1,2.9-5.8,2.9s-2.2-.2-3.2-.5-1.8-.8-2.5-1.4c-.7-.6-1.2-1.3-1.5-2.1-.4-.8-.5-1.7-.5-2.6s.3-2.4.9-3.4c.6-1.1,1.5-1.9,2.6-2.5,1.1-.6,2.4-.9,3.8-.9s2.6.3,3.6.9,1.7,1.4,2.1,2.3c.5,1,.7,2,.7,3.1ZM566.8,30.1c0-2.3-.9-3.5-2.8-3.5s-1.6.3-2,1-.7,1.5-.8,2.5h5.6Z"/>
        <path class="cls-5" d="M589.8,38.2h-7.9v-1.4c.6,0,1,0,1.3-.2.3-.2.4-.4.5-.7s0-.8,0-1.5v-4.3c0-.9-.1-1.6-.4-2.1-.3-.5-.8-.8-1.6-.8s-1.9.4-2.4,1.2c-.5.8-.8,1.8-.8,2.8v3.4c0,.8.1,1.4.4,1.7.2.3.7.4,1.5.4v1.4h-8.1v-1.4c.7,0,1.2,0,1.5-.2.3-.1.5-.3.6-.6.1-.3.2-.8.2-1.4v-5c0-.7-.1-1.2-.4-1.4-.3-.2-.9-.3-1.8-.3v-1.4l6-1.3c0,.6.1,1.1.1,1.7s0,.2,0,.3c0,0,0,.2,0,.3.6-.7,1.3-1.2,2-1.7.7-.4,1.6-.7,2.6-.7s1.7.2,2.4.5c.7.3,1.2.8,1.6,1.4.4.6.6,1.4.6,2.3v5.2c0,.9.1,1.4.3,1.8.2.3.8.5,1.8.5v1.4Z"/>
        <path class="cls-5" d="M605,35.1c-1.2,2.4-3.2,3.6-6,3.6s-2.5-.3-3.6-.8c-1.1-.5-2.1-1.3-2.7-2.3-.7-1-1-2.2-1-3.5s.2-1.8.6-2.6c.4-.8.9-1.6,1.6-2.3.7-.7,1.5-1.2,2.5-1.6,1-.4,2-.6,3.1-.6s2.7.3,3.7.8c1.1.6,1.6,1.3,1.6,2.3s-.2.8-.5,1.2c-.3.3-.7.5-1.2.5s-.7,0-1-.3c-.2-.2-.4-.4-.4-.6,0-.2-.2-.6-.3-1.1-.1-.5-.4-.9-.7-1.1s-.7-.3-1.3-.3c-.9,0-1.8.3-2.5,1-.7.7-1.1,2-1.1,3.9s.1,1.9.4,2.8c.3.8.8,1.5,1.4,2,.6.5,1.4.7,2.3.7s1.8-.3,2.3-.8c.5-.5,1-1.1,1.4-1.8l1.3.6Z"/>
        <path class="cls-5" d="M620.7,31.5h-9.4c0,.2,0,.6,0,1.2s.2,1.3.4,1.9c.2.7.7,1.2,1.2,1.7.6.5,1.4.7,2.4.7s1.2-.1,2-.4c.8-.3,1.4-.8,2-1.6l1.2.8c-1.2,1.9-3.1,2.9-5.8,2.9s-2.2-.2-3.2-.5-1.8-.8-2.5-1.4c-.7-.6-1.2-1.3-1.5-2.1-.4-.8-.5-1.7-.5-2.6s.3-2.4.9-3.4c.6-1.1,1.5-1.9,2.6-2.5,1.1-.6,2.4-.9,3.8-.9s2.6.3,3.6.9,1.7,1.4,2.1,2.3c.5,1,.7,2,.7,3.1ZM616.9,30.1c0-2.3-.9-3.5-2.8-3.5s-1.6.3-2,1-.7,1.5-.8,2.5h5.6Z"/>
        <path class="cls-5" d="M652.3,33.5c0,.8-.2,1.6-.6,2.4-.3.8-.8,1.4-1.4,1.9-.6.5-1.4.8-2.4.8s-1,0-1.4-.2c-.5-.2-1-.4-1.5-.8-.5-.4-1.2-1-2-1.8-1,1-2.1,1.7-3.1,2.2s-2.1.7-3,.7-2.1-.3-3-.8-1.6-1.2-2-2.1-.7-1.8-.7-2.7,0-1.2.3-1.9.6-1.4,1.4-2.3,1.7-1.7,3.1-2.4c-.5-.9-.9-1.7-1.2-2.4-.3-.7-.4-1.4-.4-2.3s.1-1.5.4-2.1c.3-.6.7-1.1,1.1-1.5.5-.4,1-.7,1.6-.9.6-.2,1.2-.3,1.8-.3.9,0,1.7.2,2.3.6.7.4,1.2.9,1.5,1.5.3.6.5,1.3.5,1.9s-.3,1.8-1,2.6c-.6.9-1.6,1.6-2.8,2.2l4.7,6.2c.6-.7,1.1-1.4,1.5-2.2.4-.7.7-1.4.7-2.1s0-.5-.3-.8-.6-.5-1.3-.5v-1.4h6.3v1.4c-.6.1-1,.3-1.4.5-.3.2-.6.5-.9.9-.3.4-.7,1-1.4,2l-.7,1.1c-.6.9-1.1,1.6-1.7,2.3.5.7,1.1,1.4,1.7,1.9.7.6,1.3.9,1.8.9s.5,0,.8-.2c.3-.1.5-.4.7-.8.2-.4.3-.9.4-1.5h1.4ZM642.1,34.7l-5.4-7c-1.5.9-2.3,2.1-2.3,3.4s.2,1.5.6,2.3c.4.8,1,1.4,1.6,1.9.7.5,1.4.7,2.2.7s1.2-.1,1.7-.4c.5-.3,1-.6,1.5-1ZM641.5,21c0-.4,0-.8-.2-1.2-.2-.4-.4-.7-.7-.9-.3-.2-.7-.3-1.2-.3-.6,0-1.2.2-1.5.6-.4.4-.6.9-.6,1.4,0,1.2.6,2.6,1.7,4.1.7-.6,1.3-1.1,1.8-1.6.5-.5.7-1.2.7-2.1Z"/>
        <path class="cls-5" d="M542.1,74.8c-.4.8-.8,1.4-1.3,2-.4.6-1.1,1.1-2,1.6-.9.5-2.1.7-3.5.7s-1.8-.1-2.6-.4-1.4-.5-1.9-.8c-.5-.3-1-.7-1.6-1.2-.9-.8-1.7-1.4-2.3-1.6-.6-.3-1.2-.4-1.7-.4-.9,0-1.7.4-2.5,1.1-.4.4-.7.7-.9.8-.2.2-.5.2-.7.2s-.4,0-.6-.2c-.2-.2-.3-.4-.3-.6s.2-.6.5-.9c.3-.3.8-.6,1.3-1,.5-.4,1.2-.8,2-1.3s1.3-.8,1.5-.9c-2,0-3.7-.4-5.2-1s-2.7-1.5-3.6-2.6c-.9-1.1-1.6-2.2-2-3.5-.4-1.3-.6-2.5-.6-3.7s.2-2.6.7-3.8c.5-1.3,1.2-2.4,2.1-3.5,1-1,2.2-1.9,3.7-2.5,1.5-.6,3.2-.9,5.2-.9s3.8.3,5.3,1c1.5.7,2.7,1.6,3.6,2.6s1.5,2.2,2,3.5c.4,1.3.6,2.5.6,3.7,0,2.2-.6,4.2-1.9,6.2s-3.2,3.3-5.9,4.1c-1.5.8-2.6,1.4-3.2,1.9,1.2,0,2.4.3,3.5.8,1.7.7,3,1.2,3.9,1.4.9.2,1.8.4,2.7.4,1.6,0,3-.4,4-1.1h1.6ZM532.2,61.2c0-1.2,0-2.3-.3-3.3s-.5-2-1.1-2.8-1.2-1.5-2.1-2c-.9-.5-1.9-.7-3.2-.7s-2.5.3-3.4.8c-.9.5-1.6,1.2-2,2.1-.5.8-.8,1.8-1,2.8-.2,1-.3,2.1-.3,3.2s0,1.7.2,2.6c.1.9.4,1.9.8,2.9.4,1,1.1,1.8,2,2.5.9.7,2.2,1,3.7,1s2.7-.3,3.6-1,1.6-1.5,2-2.5c.4-1,.7-1.9.8-2.9.1-.9.2-1.8.2-2.6Z"/>
        <path class="cls-5" d="M556.6,71.5c-.3,0-.8,0-1.5,0s-1.6.1-2.5.2c-.9,0-1.6.2-2.2.3v-2.2c-1.3,1.5-2.9,2.3-4.7,2.3s-2.3-.3-3-.9c-.6-.6-1-1.2-1.2-1.9s-.2-1.4-.2-2.2v-4.5c0-.6,0-1-.1-1.3,0-.3-.3-.5-.6-.6s-.8-.2-1.5-.2v-1.4h6.2v8.5c0,1.7.7,2.6,2,2.6s1.4-.3,1.9-.8c.5-.5.9-1.1,1.2-1.6v-5.1c0-.6,0-1.1-.1-1.4,0-.3-.3-.5-.6-.6-.3-.1-.8-.2-1.6-.2v-1.4h6.2v9.2c0,.5,0,.8.1,1.1,0,.2.3.4.6.5.3.1.8.2,1.5.2v1.4Z"/>
        <path class="cls-5" d="M572.2,64.9h-9.4c0,.2,0,.6,0,1.2,0,.6.2,1.3.4,1.9.2.7.7,1.2,1.2,1.7.6.5,1.4.7,2.4.7s1.2-.1,2-.4c.8-.3,1.4-.8,2-1.6l1.2.8c-1.2,1.9-3.1,2.9-5.8,2.9s-2.2-.2-3.2-.5-1.8-.8-2.5-1.4c-.7-.6-1.2-1.3-1.5-2.1-.4-.8-.5-1.7-.5-2.6s.3-2.4.9-3.4c.6-1.1,1.5-1.9,2.6-2.5,1.1-.6,2.4-.9,3.8-.9s2.6.3,3.6.9c1,.6,1.7,1.4,2.1,2.3.5,1,.7,2,.7,3.1ZM569.8,56.8h-.9l-3.6-3.3-3.6,3.3h-.9l2.7-5.8h3.6l2.7,5.8ZM568.4,63.5c0-2.3-.9-3.5-2.8-3.5s-1.6.3-2,1c-.5.6-.7,1.5-.8,2.5h5.6Z"/>
        <path class="cls-5" d="M584.5,68.9c-.6,1.2-1.2,2-1.9,2.5s-1.6.8-2.6.8-2.1-.2-2.7-.7c-.6-.5-.9-1-1.1-1.6s-.2-1.3-.2-2v-7.2h-2.3v-1.4c1,0,1.8-.2,2.5-.6s1.3-.9,1.7-1.5.7-1.3.8-2h1.3v4h4.3v1.4h-4.3v7.3c0,.9,0,1.5.2,1.9.1.4.4.6.9.6s.9-.2,1.2-.6c.3-.4.6-.9.9-1.4l1.3.6Z"/>
        <path class="cls-5" d="M599.7,64.9h-9.4c0,.2,0,.6,0,1.2,0,.6.2,1.3.4,1.9.2.7.7,1.2,1.2,1.7.6.5,1.4.7,2.4.7s1.2-.1,2-.4c.8-.3,1.4-.8,2-1.6l1.2.8c-1.2,1.9-3.1,2.9-5.8,2.9s-2.2-.2-3.2-.5-1.8-.8-2.5-1.4c-.7-.6-1.2-1.3-1.5-2.1-.4-.8-.5-1.7-.5-2.6s.3-2.4.9-3.4c.6-1.1,1.5-1.9,2.6-2.5,1.1-.6,2.4-.9,3.8-.9s2.6.3,3.6.9c1,.6,1.7,1.4,2.1,2.3.5,1,.7,2,.7,3.1ZM595.9,63.5c0-2.3-.9-3.5-2.8-3.5s-1.6.3-2,1c-.5.6-.7,1.5-.8,2.5h5.6Z"/>
        <path class="cls-5" d="M627.2,71.5c-2.2,0-4.1.3-5.9.7-.1-.3-.2-.8-.3-1.6-1.3,1.1-2.7,1.6-4.3,1.6s-2.3-.3-3.4-.9c-1-.6-1.8-1.5-2.5-2.6-.6-1.1-.9-2.3-.9-3.5s.1-1.6.4-2.3c.3-.8.7-1.5,1.3-2.1s1.3-1.2,2.1-1.5c.8-.4,1.8-.6,2.9-.6s1.5,0,2,.3,1,.4,1.4.7c.3.3.7.6,1,.9v-5c0-.7,0-1.2-.2-1.5-.1-.3-.3-.5-.6-.6-.3,0-.8-.1-1.5-.2v-1.4l6.3-1.3v17.2c0,.7,0,1.2,0,1.5,0,.3.3.5.6.6.3.1.8.2,1.6.2v1.4ZM621,68.6v-6.2c-.4-.5-.9-1-1.5-1.4s-1.3-.6-2.1-.6-1,.1-1.4.4c-.4.3-.8.6-1.1,1.1-.5.7-.7,1.9-.7,3.6s.3,3,1,3.8c.6.9,1.4,1.3,2.4,1.3s1.3-.2,1.9-.5c.6-.3,1.1-.8,1.5-1.4Z"/>
        <path class="cls-5" d="M642.5,64.9h-9.4c0,.2,0,.6,0,1.2,0,.6.2,1.3.4,1.9.2.7.7,1.2,1.2,1.7.6.5,1.4.7,2.4.7s1.2-.1,2-.4c.8-.3,1.4-.8,2-1.6l1.2.8c-1.2,1.9-3.1,2.9-5.8,2.9s-2.2-.2-3.2-.5-1.8-.8-2.5-1.4c-.7-.6-1.2-1.3-1.5-2.1-.4-.8-.5-1.7-.5-2.6s.3-2.4.9-3.4c.6-1.1,1.5-1.9,2.6-2.5,1.1-.6,2.4-.9,3.8-.9s2.6.3,3.6.9c1,.6,1.7,1.4,2.1,2.3.5,1,.7,2,.7,3.1ZM638.7,63.5c0-2.3-.9-3.5-2.8-3.5s-1.6.3-2,1c-.5.6-.7,1.5-.8,2.5h5.6Z"/>
        <path class="cls-5" d="M668.1,65.7c0,.6-.1,1.3-.4,2-.3.7-.7,1.4-1.3,2.1-.6.7-1.3,1.2-2.1,1.6-.8.4-1.8.6-2.9.6s-2.2-.2-3.3-.7c-1.1-.5-2-1.2-2.8-2.1-.3.8-.5,1.5-.6,2.1h-1.4v-7.1h1.4c.3,1,.6,2,1.1,2.9.4.9,1.1,1.7,1.9,2.3.8.7,1.8,1,3,1s1.9-.3,2.5-.9c.6-.6.9-1.3.9-2.2s0-.9-.3-1.3-.5-.7-.8-1c-.4-.3-.9-.6-1.5-.9-.6-.3-1.4-.7-2.2-1.1-1.3-.6-2.3-1.2-3.1-1.8-.8-.6-1.4-1.2-1.8-1.8-.4-.6-.7-1.1-.9-1.6-.2-.5-.2-1-.2-1.5,0-.9.3-1.8.8-2.8s1.2-1.6,2.2-2.2c1-.6,2.1-.9,3.4-.9s1.9.2,2.8.7c.9.4,1.6,1,2.3,1.8.2-.4.4-1,.5-1.8h1.4v5.8h-1.4c-1-3.2-2.8-4.7-5.3-4.7s-1.7.2-2.2.7c-.6.5-.8,1.1-.8,1.9s.2,1.1.5,1.6c.3.4.8.8,1.4,1.1.6.3,1.5.8,2.8,1.4,1.5.7,2.7,1.4,3.6,1.9.9.5,1.6,1.2,2.2,2,.6.8.9,1.8.9,2.9Z"/>
        <path class="cls-5" d="M684.4,64.9h-9.4c0,.2,0,.6,0,1.2,0,.6.2,1.3.4,1.9.2.7.7,1.2,1.2,1.7.6.5,1.4.7,2.4.7s1.2-.1,2-.4c.8-.3,1.4-.8,2-1.6l1.2.8c-1.2,1.9-3.1,2.9-5.8,2.9s-2.2-.2-3.2-.5-1.8-.8-2.5-1.4c-.7-.6-1.2-1.3-1.5-2.1-.4-.8-.5-1.7-.5-2.6s.3-2.4.9-3.4c.6-1.1,1.5-1.9,2.6-2.5,1.1-.6,2.4-.9,3.8-.9s2.6.3,3.6.9c1,.6,1.7,1.4,2.1,2.3.5,1,.7,2,.7,3.1ZM680.6,63.5c0-2.3-.9-3.5-2.8-3.5s-1.6.3-2,1c-.5.6-.7,1.5-.8,2.5h5.6Z"/>
        <path class="cls-5" d="M703.6,71.6h-7.9v-1.4c.6,0,1,0,1.3-.2.3-.2.4-.4.5-.7,0-.3,0-.8,0-1.5v-4.3c0-.9-.1-1.6-.4-2.1-.3-.5-.8-.8-1.6-.8s-1.9.4-2.4,1.2c-.5.8-.8,1.8-.8,2.8v3.4c0,.8.1,1.4.4,1.7.2.3.7.4,1.5.4v1.4h-8.1v-1.4c.7,0,1.2,0,1.5-.2.3-.1.5-.3.6-.6.1-.3.2-.8.2-1.4v-5c0-.7-.1-1.2-.4-1.4-.3-.2-.9-.3-1.8-.3v-1.4l6-1.3c0,.6.1,1.1.1,1.7s0,.2,0,.3c0,0,0,.2,0,.3.6-.7,1.3-1.2,2-1.7s1.6-.7,2.6-.7,1.7.2,2.4.5c.7.3,1.2.8,1.6,1.4.4.6.6,1.4.6,2.3v5.2c0,.9.1,1.4.3,1.8.2.3.8.5,1.8.5v1.4Z"/>
        <path class="cls-5" d="M718.2,68c0,.9-.3,1.6-.8,2.3-.5.6-1.2,1.1-2.2,1.4-.9.3-2,.5-3.2.5s-1.6,0-2.4-.2c-.8-.2-1.5-.4-2.1-.7l-.6.9h-1.2l-.2-4h1.3c.2.7.7,1.3,1.5,1.8s2,.8,3.5.8.8,0,1.3,0c.4,0,.9-.2,1.3-.5s.6-.6.6-1.2-.2-.8-.6-1c-.4-.2-1.2-.5-2.4-.8-1.4-.4-2.6-.7-3.5-1-.9-.3-1.7-.8-2.3-1.4-.6-.6-.9-1.4-.9-2.3s.6-2.2,1.7-2.9c1.1-.7,2.6-1.1,4.4-1.1s2,0,2.7.3c.7.2,1.2.4,1.7.6l.4-.8h1.2v3.6h-1.3c-.1-.4-.4-.8-.8-1.2-.4-.3-.9-.6-1.6-.8-.7-.2-1.4-.3-2.3-.3s-1.4,0-2.1.2c-.7.2-1.1.5-1.1,1.1s0,.4.2.6c.1.2.4.3.7.4.3.1.9.3,1.8.5s1.4.3,1.5.4c1.7.4,3,.9,4.1,1.5,1.1.6,1.6,1.7,1.6,3.2Z"/>
      </g>
    </g>
  </g>
</svg>