<?xml version="1.0" encoding="UTF-8"?>
<svg id="Layer_2" data-name="Layer 2" xmlns="http://www.w3.org/2000/svg" xmlns:xlink="http://www.w3.org/1999/xlink" viewBox="0 0 854.8 93.8">
  <defs>
    <style>
      .cls-1 {
        fill: #d1451e;
      }

      .cls-1, .cls-2, .cls-3, .cls-4, .cls-5, .cls-6, .cls-7, .cls-8, .cls-9 {
        stroke-width: 0px;
      }

      .cls-2 {
        fill: url(#linear-gradient);
      }

      .cls-3 {
        fill: #d74a2a;
      }

      .cls-4 {
        fill: #243e8b;
      }

      .cls-5 {
        fill: url(#linear-gradient-4);
      }

      .cls-6 {
        fill: url(#linear-gradient-2);
      }

      .cls-7 {
        fill: url(#linear-gradient-3);
      }

      .cls-8 {
        fill: url(#linear-gradient-5);
      }

      .cls-9 {
        fill: #fff;
      }
    </style>
    <linearGradient id="linear-gradient" x1="449.6" y1="-.8" x2="449.6" y2="100.6" gradientUnits="userSpaceOnUse">
      <stop offset="0" stop-color="#097abb"/>
      <stop offset="1" stop-color="#21428d"/>
    </linearGradient>
    <linearGradient id="linear-gradient-2" x1="512.7" y1="97.6" x2="511.6" y2="21.6" xlink:href="#linear-gradient"/>
    <linearGradient id="linear-gradient-3" x1="568.4" y1="25.8" x2="576.2" y2="199.2" xlink:href="#linear-gradient"/>
    <linearGradient id="linear-gradient-4" x1="598.3" y1="24.2" x2="606.1" y2="197.6" xlink:href="#linear-gradient"/>
    <linearGradient id="linear-gradient-5" x1="467.4" y1="-4.6" x2="467.4" y2="96.9" xlink:href="#linear-gradient"/>
  </defs>
  <g id="Layer_1-2" data-name="Layer 1">
    <g>
      <g>
        <g>
          <rect class="cls-3" y="12.4" width="80.1" height="80.1"/>
          <path class="cls-9" d="M61.4,28.6v28.1c0,6.3-1.9,11.4-5.6,15.2-3.7,3.8-9,5.7-15.7,5.7s-12-1.9-15.8-5.7c-3.7-3.8-5.6-8.9-5.6-15.2v-28.1h11.5v27.9c0,3.2.8,5.8,2.5,7.7,1.7,2,4.1,3,7.3,3s5.6-1,7.3-3c1.7-2,2.5-4.5,2.5-7.7v-27.9h11.5Z"/>
          <rect class="cls-3" x="88.2" y="12.4" width="80.1" height="80.1"/>
          <rect class="cls-3" x="176.4" y="12.4" width="80.1" height="80.1"/>
          <rect class="cls-3" x="264.5" y="12.4" width="80.1" height="80.1"/>
          <polygon class="cls-9" points="153.8 28.4 153.8 76.5 142.4 76.5 142.4 48.3 128.3 67.7 114.2 48.3 114.2 76.5 102.8 76.5 102.8 28.4 113.6 28.4 128.3 49.8 142.9 28.4 153.8 28.4"/>
          <path class="cls-9" d="M221.8,65.5c1.3-1.3,2-3,2-5.1s-.7-3.7-2-5c-1.3-1.4-3.1-2-5.4-2s-4,.7-5.3,2c-1.4,1.3-2.1,3-2.1,5.1s.7,3.8,2,5.1c1.4,1.3,3.2,2,5.4,2s4-.7,5.4-2M230.4,48.7c3.2,3.1,4.8,7,4.8,11.7s-1.8,9.1-5.3,12.4c-3.6,3.3-8,4.9-13.4,4.9s-9.8-1.6-13.4-4.9c-3.6-3.3-5.4-7.4-5.4-12.4s1.1-6.6,3.4-10.2l13.6-21.6h12.8l-9.4,14.9c5,.4,9.1,2.1,12.2,5.2"/>
          <path class="cls-9" d="M311.8,50.8c1.3-1.4,1.9-3.1,1.9-4.9s-.6-3.5-1.8-4.9c-1.2-1.4-2.8-2.1-4.6-2.1h-11.6v14.1h11.1c2,0,3.7-.7,5-2.1M320,33.7c3.2,3.5,4.8,7.5,4.8,12s-1.6,8.6-4.8,12.1c-3.2,3.5-7.5,5.3-12.9,5.3h-11.4v13.4h-11.3V28.4h23.1c5.1,0,9.3,1.8,12.5,5.3"/>
        </g>
        <rect class="cls-1" x="384.9" y="12.4" width="1" height="80.2"/>
      </g>
      <path class="cls-2" d="M422.7,46.2c.5,0,.8,0,1.2,0,3.7-.4,7,.4,10.1,2.5.6.4,1.1.8,1.7,1.1,3.2,1.9,6.4,1.9,9.6,0,.8-.4,1.5-1,2.2-1.4,2.3-1.5,4.8-2.2,7.5-2.3.5,0,.8.1.8.7,0,1.7,0,3.4,0,5.2,0,.5-.1.7-.6.7-1.9,0-3.5.7-5,1.8-1.9,1.3-3.9,2.5-6.2,2.9-4.1.8-8,.3-11.6-1.9-.8-.5-1.6-1.1-2.5-1.6-3-1.7-6-1.7-8.9,0-.3.2-.6.6-.7,1-.4,1.8-.6,3.5-1,5.4.4-.1.6-.2.9-.3,4.6-1.5,9.1-1.2,13.3,1.4.8.5,1.6,1.1,2.4,1.6,3.1,1.8,6.2,1.8,9.3,0,.7-.4,1.4-.9,2.1-1.4,2.4-1.5,5-2.4,7.8-2.4.1,0,.3,0,.4,0,0,0,0,0,.2,0,0,2.1,0,4.2,0,6.3-.7,0-1.4,0-2.1.3-1.2.5-2.4.9-3.5,1.6-2,1.3-4.1,2.5-6.5,2.9-3.9.6-7.7.2-11.1-1.9-.9-.6-1.7-1.1-2.6-1.7-3.1-1.8-7.4-1.5-10.1.7-.1,0-.3.3-.2.4.3,1.6.7,3.2,1,4.8,1.3-.2,2.5-.4,3.6-.5,3.6-.3,7,.6,10,2.6,1.3.9,2.6,1.9,4.2,2.2,2.5.5,4.8.2,6.9-1.2,1.7-1.1,3.4-2.4,5.4-2.9,1.6-.4,3.2-.6,4.9-1,0,.4,0,.6.1.8,0,1.7,0,3.4,0,5.2,0,.5-.1.7-.7.7-1.8,0-3.4.7-4.8,1.7-1.8,1.2-3.5,2.3-5.6,2.8-4.4,1.1-8.6.6-12.5-1.9-.6-.4-1.2-.8-1.8-1.2-2-1.4-4.2-1.6-6.5-1.4-.2,0-.3,0-.6.2.2.3.3.6.5.9,5.1,7.9,12.3,12.6,21.7,14,15.9,2.2,31-8.6,33.9-24.4.9-4.9.5-9.7-.5-14.6-2.6-12-8.4-22.3-16.4-31.5-3.7-4.2-7.8-8-12.3-11.5-.4-.3-.6-.5-1.1-.1-10.4,8.2-18.9,17.9-24.5,30-.6,1.3-1.1,2.6-1.7,3.9,0,.2-.1.5-.2.8Z"/>
      <g>
        <path class="cls-6" d="M475,26.5c.7,0,1.3,0,1.9,0,3.4,0,6.8,0,10.2,0,.6,0,.9.2,1,.8,2.1,9.6,4.2,19.1,6.2,28.7.6,2.6,1.1,5.1,1.7,7.7,0,.2.2.4.4.7.1-.2.4-.4.4-.7,3-12.1,5.9-24.1,8.8-36.2.2-.8.5-1,1.3-1,3.6,0,7.1,0,10.7,0,.3,0,.6,0,.9,0,.5,2.1,1,4.1,1.5,6.1,2.5,10.3,5,20.7,7.6,31,0,0,0,.2,0,.3,0,.1.2.3.3.4.1-.2.3-.3.4-.5.4-1.7.7-3.3,1-5,2.1-10.1,4.2-20.3,6.3-30.4.1-.6.3-1.3.4-2h12.3c-.3,1.4-.6,2.8-1,4.1-3.4,14.5-6.8,29-10.2,43.5-.4,1.8-.8,3.5-1.2,5.3-.1.5-.4.7-.9.7-4.8,0-9.7,0-14.5,0-.6,0-.8-.2-.9-.7-2.5-9.6-4.9-19.1-7.4-28.6,0,0,0-.2,0-.3-.2-.2-.4-.4-.6-.6-.2.2-.5.4-.5.6-.5,1.9-1,3.8-1.5,5.7-2,7.7-4.1,15.5-6.1,23.2-.1.6-.4.7-1,.7-4.8,0-9.5,0-14.3,0-.7,0-1-.3-1.1-.9-1.6-7.1-3.3-14.2-5-21.3-2.4-10.3-4.8-20.5-7.2-30.8,0-.2,0-.4-.1-.8Z"/>
        <path class="cls-7" d="M592,80.1h-.9c-3.9,0-7.9,0-11.8,0-.7,0-1-.2-1.3-.8-2.3-5-4.7-10-7-15-.3-.6-.6-.9-1.3-.9-2.3,0-4.6,0-6.9,0-.7,0-.9.2-.9.9,0,4.9,0,9.9,0,14.8,0,.7-.2.9-.9.9-3.4,0-6.9,0-10.3,0-.6,0-.8-.2-.8-.8,0-17.3,0-34.7,0-52,0-.6.2-.8.8-.8,6.7,0,13.3,0,20,0,3.5,0,6.9.6,10.1,2,4.4,1.9,7.3,5,8.7,9.6,1.5,5.3,1.4,10.5-1.1,15.5-1.2,2.4-2.9,4.5-5.1,6.1-.6.4-.7.8-.4,1.4,2.9,5.9,5.7,11.8,8.6,17.6.2.4.4.8.6,1.4ZM561.8,45c0,2.5,0,5,0,7.5,0,.6.2.8.8.8,2.4,0,4.9,0,7.3,0,1.1,0,2.2-.3,3.1-.7,4.8-1.9,6-8.6,3.4-12.5-1.6-2.4-4-3.2-6.7-3.3-2.4,0-4.7,0-7.1,0-.7,0-.9.2-.9.9,0,2.5,0,4.9,0,7.4Z"/>
        <path class="cls-9" d="M461.3,53.3c0-8.6,0-17.2,0-25.8q0-1,1-1c3.4,0,6.9,0,10.3,0,.7,0,.9.2.9.9,0,17.3,0,34.6,0,51.9,0,.7-.2.9-.9.9-3.4,0-6.9,0-10.3,0-.7,0-.9-.2-.9-.9,0-8.6,0-17.3,0-25.9Z"/>
        <path class="cls-5" d="M593.5,53.3c0-8.6,0-17.2,0-25.8q0-1,1-1c3.4,0,6.7,0,10.1,0,.7,0,1,.2,1,.9,0,17.3,0,34.5,0,51.8,0,.7-.2.9-.9.9-3.3,0-6.7,0-10,0q-1.1,0-1.1-1.1c0-8.6,0-17.2,0-25.8Z"/>
      </g>
      <g>
        <path class="cls-4" d="M619.3,29.6h2.8v18.2h-2.8v-18.2Z"/>
        <path class="cls-4" d="M632.6,34.4c1.6,0,2.9.5,3.8,1.5.9,1,1.3,2.4,1.3,4.2v7.7h-2.6v-7.2c0-1.2-.3-2.1-.8-2.7s-1.3-1-2.3-1-2,.4-2.7,1.2c-.7.8-1,1.9-1,3.2v6.5h-2.7v-13.1h2.7v1.9c1.1-1.5,2.5-2.3,4.4-2.3h0Z"/>
        <path class="cls-4" d="M648.9,47.4c-1,.4-1.9.6-2.8.6-1.3,0-2.3-.4-3-1.2s-1-1.9-1-3.3v-6.4h-2.3v-2.4h2.3v-4.4h2.6v4.4h4.1v2.4h-4.1v6.4c0,1.3.6,2,1.8,2s1.1-.1,1.7-.4l.7,2.2Z"/>
        <path class="cls-4" d="M656.9,48.2c-2,0-3.7-.6-4.9-1.9-1.3-1.3-1.9-2.9-1.9-5s.6-3.6,1.8-4.9,2.8-2,4.7-2,3.6.6,4.8,1.9,1.7,2.8,1.7,4.7,0,.7,0,1.1h-10.4c0,1.1.5,2,1.2,2.7s1.7,1,3,1,3-.7,3.6-2.1l2.4.7c-.5,1-1.2,1.9-2.3,2.6s-2.3,1.1-3.9,1.1h0ZM660.5,40.3c0-1-.5-1.9-1.2-2.6s-1.6-1-2.7-1-2,.3-2.7,1-1.1,1.5-1.2,2.5h7.8Z"/>
        <path class="cls-4" d="M668.5,36.8c.4-.8,1-1.4,1.7-1.8s1.6-.5,2.7-.4v2.5c-1.4-.2-2.5,0-3.2.8s-1.1,2.1-1.1,3.9v5.9h-2.7v-13.1h2.7v2.1h0Z"/>
        <path class="cls-4" d="M682.2,34.4c1.6,0,2.9.5,3.8,1.5.9,1,1.3,2.4,1.3,4.2v7.7h-2.6v-7.2c0-1.2-.3-2.1-.8-2.7s-1.3-1-2.3-1-2,.4-2.7,1.2c-.7.8-1,1.9-1,3.2v6.5h-2.7v-13.1h2.7v1.9c1.1-1.5,2.5-2.3,4.4-2.3h0Z"/>
        <path class="cls-4" d="M696.3,48.1c-1.8,0-3.3-.7-4.5-2s-1.8-2.9-1.8-4.9.6-3.6,1.8-4.9,2.7-2,4.5-2,3.5.8,4.6,2.3v-2h2.6v13.1h-2.6v-2c-1.1,1.5-2.6,2.3-4.6,2.3h0ZM696.7,45.7c1.2,0,2.2-.4,3-1.3.8-.8,1.2-1.9,1.2-3.2s-.4-2.3-1.2-3.2c-.8-.8-1.8-1.3-3-1.3s-2.2.4-3,1.2-1.2,1.9-1.2,3.2.4,2.3,1.2,3.2c.8.8,1.8,1.3,3,1.3h0Z"/>
        <path class="cls-4" d="M714.8,47.4c-1,.4-1.9.6-2.8.6-1.3,0-2.3-.4-3-1.2s-1-1.9-1-3.3v-6.4h-2.3v-2.4h2.3v-4.4h2.6v4.4h4.1v2.4h-4.1v6.4c0,1.3.6,2,1.8,2s1.1-.1,1.7-.4l.7,2.2Z"/>
        <path class="cls-4" d="M717.7,32.1c-.3-.3-.5-.7-.5-1.2s.2-.8.5-1.2c.3-.3.7-.5,1.2-.5s.9.2,1.2.5c.3.3.5.7.5,1.2s-.2.9-.5,1.2c-.3.3-.7.5-1.2.5s-.9-.2-1.2-.5ZM717.5,34.7h2.6v13.1h-2.6v-13.1Z"/>
        <path class="cls-4" d="M729.7,48.1c-1.9,0-3.6-.7-4.8-2s-1.9-2.9-1.9-4.9.6-3.6,1.9-4.9,2.9-2,4.8-2,3.6.6,4.9,2,1.9,2.9,1.9,4.9-.6,3.6-1.9,4.9-2.9,2-4.8,2h0ZM732.7,44.4c.8-.8,1.2-1.9,1.2-3.1s-.4-2.3-1.2-3.2-1.8-1.3-3-1.3-2.2.4-3,1.3c-.8.8-1.2,1.9-1.2,3.2s.4,2.3,1.2,3.1c.8.8,1.8,1.3,3,1.3s2.2-.4,3-1.3Z"/>
        <path class="cls-4" d="M746.3,34.4c1.6,0,2.9.5,3.8,1.5.9,1,1.3,2.4,1.3,4.2v7.7h-2.6v-7.2c0-1.2-.3-2.1-.8-2.7s-1.3-1-2.3-1-2,.4-2.7,1.2c-.7.8-1,1.9-1,3.2v6.5h-2.7v-13.1h2.7v1.9c1.1-1.5,2.5-2.3,4.4-2.3h0Z"/>
        <path class="cls-4" d="M760.3,48.1c-1.8,0-3.3-.7-4.5-2s-1.8-2.9-1.8-4.9.6-3.6,1.8-4.9,2.7-2,4.5-2,3.5.8,4.6,2.3v-2h2.6v13.1h-2.6v-2c-1.1,1.5-2.6,2.3-4.6,2.3h0ZM760.7,45.7c1.2,0,2.2-.4,3-1.3s1.2-1.9,1.2-3.2-.4-2.3-1.2-3.2-1.8-1.3-3-1.3-2.2.4-3,1.2-1.2,1.9-1.2,3.2.4,2.3,1.2,3.2c.8.8,1.8,1.3,3,1.3h0Z"/>
        <path class="cls-4" d="M771.1,28.8h2.7v19h-2.7v-19Z"/>
        <path class="cls-4" d="M806.1,29.6l-5.5,18.2h-2.9l-3.9-13.5-4,13.5h-2.9l-5.5-18.2h2.9l4.1,14.3,4.1-14.3h2.5l4.1,14.3,4.1-14.3h2.9Z"/>
        <path class="cls-4" d="M812.3,48.1c-1.8,0-3.3-.7-4.5-2s-1.8-2.9-1.8-4.9.6-3.6,1.8-4.9,2.7-2,4.5-2,3.5.8,4.6,2.3v-2h2.6v13.1h-2.6v-2c-1.1,1.5-2.6,2.3-4.6,2.3h0ZM812.7,45.7c1.2,0,2.2-.4,3-1.3.8-.8,1.2-1.9,1.2-3.2s-.4-2.3-1.2-3.2c-.8-.8-1.8-1.3-3-1.3s-2.2.4-3,1.2-1.2,1.9-1.2,3.2.4,2.3,1.2,3.2c.8.8,1.8,1.3,3,1.3h0Z"/>
        <path class="cls-4" d="M830.9,47.4c-1,.4-1.9.6-2.8.6-1.3,0-2.3-.4-3-1.2s-1-1.9-1-3.3v-6.4h-2.3v-2.4h2.3v-4.4h2.6v4.4h4.1v2.4h-4.1v6.4c0,1.3.6,2,1.8,2s1.1-.1,1.7-.4l.7,2.2Z"/>
        <path class="cls-4" d="M838.8,48.2c-2,0-3.7-.6-4.9-1.9-1.3-1.3-1.9-2.9-1.9-5s.6-3.6,1.8-4.9,2.8-2,4.7-2,3.6.6,4.8,1.9,1.7,2.8,1.7,4.7,0,.7,0,1.1h-10.4c0,1.1.5,2,1.2,2.7s1.7,1,3,1,3-.7,3.6-2.1l2.4.7c-.5,1-1.2,1.9-2.3,2.6s-2.3,1.1-3.9,1.1h0ZM842.5,40.3c0-1-.5-1.9-1.2-2.6s-1.6-1-2.7-1-2,.3-2.7,1-1.1,1.5-1.2,2.5h7.8Z"/>
        <path class="cls-4" d="M850.4,36.8c.4-.8,1-1.4,1.7-1.8s1.6-.5,2.7-.4v2.5c-1.4-.2-2.5,0-3.2.8s-1.1,2.1-1.1,3.9v5.9h-2.7v-13.1h2.7v2.1h0Z"/>
        <path class="cls-4" d="M626.5,71h-4.5v6.8h-2.7v-18.2h8.4c1.8,0,3.2.6,4.2,1.8,1.1,1.2,1.6,2.5,1.6,4s-.4,2.4-1.1,3.4c-.7,1-1.7,1.7-3,2.1l4.6,7h-3.2l-4.3-6.8ZM622,68.5h5.5c1,0,1.8-.3,2.4-.9s.9-1.4.9-2.2-.3-1.6-.9-2.3c-.6-.6-1.4-1-2.3-1h-5.6v6.4Z"/>
        <path class="cls-4" d="M642.2,78.2c-2,0-3.7-.6-4.9-1.9-1.3-1.3-1.9-2.9-1.9-5s.6-3.6,1.8-4.9,2.8-2,4.7-2,3.6.6,4.8,1.9,1.7,2.8,1.7,4.7,0,.7,0,1.1h-10.4c0,1.1.5,2,1.2,2.7s1.7,1,3,1,3-.7,3.6-2.1l2.4.7c-.5,1-1.2,1.9-2.3,2.6s-2.3,1.1-3.9,1.1h0ZM645.8,70.3c0-1-.5-1.9-1.2-2.6s-1.6-1-2.7-1-2,.3-2.7,1-1.1,1.5-1.2,2.5h7.8Z"/>
        <path class="cls-4" d="M655.9,78.2c-1.4,0-2.7-.4-3.8-1.2-1.1-.8-1.8-1.7-2.2-2.8l2.4-.7c.2.7.7,1.3,1.4,1.8s1.4.7,2.3.7,1.4-.2,1.9-.5.7-.8.7-1.3-.1-.7-.4-.9-.7-.4-1.3-.6l-3.4-1c-2-.6-3-1.7-3-3.4s.5-1.9,1.4-2.7,2.1-1.1,3.5-1.1,2.5.3,3.5.9,1.7,1.4,2,2.4l-2.4.7c-.3-.5-.7-1-1.2-1.3s-1.2-.5-2-.5-1.2.2-1.6.5c-.4.3-.6.7-.6,1.1s.5,1,1.4,1.3l3.4,1c1.1.3,1.9.7,2.5,1.3.6.5.9,1.3.9,2.3s-.5,2.2-1.5,2.9-2.3,1.2-3.8,1.2h0Z"/>
        <path class="cls-4" d="M670,78.2c-2,0-3.7-.6-4.9-1.9-1.3-1.3-1.9-2.9-1.9-5s.6-3.6,1.8-4.9,2.8-2,4.7-2,3.6.6,4.8,1.9,1.7,2.8,1.7,4.7,0,.7,0,1.1h-10.4c0,1.1.5,2,1.2,2.7s1.7,1,3,1,3-.7,3.6-2.1l2.4.7c-.5,1-1.2,1.9-2.3,2.6s-2.3,1.1-3.9,1.1h0ZM673.7,70.3c0-1-.5-1.9-1.2-2.6s-1.6-1-2.7-1-2,.3-2.7,1-1.1,1.5-1.2,2.5h7.8Z"/>
        <path class="cls-4" d="M684.5,78.1c-1.8,0-3.3-.7-4.5-2s-1.8-2.9-1.8-4.9.6-3.6,1.8-4.9,2.7-2,4.5-2,3.5.8,4.6,2.3v-2h2.6v13.1h-2.6v-2c-1.1,1.5-2.6,2.3-4.6,2.3h0ZM684.9,75.7c1.2,0,2.2-.4,3-1.3s1.2-1.9,1.2-3.2-.4-2.3-1.2-3.2-1.8-1.3-3-1.3-2.2.4-3,1.2-1.2,1.9-1.2,3.2.4,2.3,1.2,3.2c.8.8,1.8,1.3,3,1.3h0Z"/>
        <path class="cls-4" d="M697.9,66.8c.4-.8,1-1.4,1.7-1.8s1.6-.5,2.7-.4v2.5c-1.4-.2-2.5,0-3.2.8s-1.1,2.1-1.1,3.9v5.9h-2.7v-13.1h2.7v2.1h0Z"/>
        <path class="cls-4" d="M709.8,78.2c-1.9,0-3.5-.7-4.8-2s-1.9-3-1.9-4.9.6-3.6,1.9-4.9c1.3-1.3,2.9-2,4.8-2s2.9.4,4,1.3,1.8,1.8,2,2.9l-2.5.7c-.2-.6-.6-1.2-1.3-1.7-.7-.5-1.4-.7-2.3-.7s-2.2.4-3,1.3c-.8.9-1.2,1.9-1.2,3.1s.4,2.2,1.2,3.1c.8.9,1.8,1.3,3,1.3s1.6-.2,2.3-.7c.7-.5,1.1-1,1.3-1.7l2.5.7c-.3,1.1-.9,2-2,2.8-1.1.8-2.4,1.3-4,1.3h0Z"/>
        <path class="cls-4" d="M725.5,64.4c1.6,0,2.9.5,3.8,1.5.9,1,1.3,2.4,1.3,4.2v7.7h-2.6v-7.2c0-1.2-.3-2.1-.8-2.7s-1.3-1-2.3-1-2,.4-2.7,1.2c-.7.8-1,1.9-1,3.2v6.5h-2.7v-19h2.7v7.8c1.1-1.5,2.5-2.3,4.4-2.3h0Z"/>
        <path class="cls-4" d="M740.4,59.6h2.8v18.2h-2.8v-18.2Z"/>
        <path class="cls-4" d="M753.8,64.4c1.6,0,2.9.5,3.8,1.5.9,1,1.3,2.4,1.3,4.2v7.7h-2.6v-7.2c0-1.2-.3-2.1-.8-2.7s-1.3-1-2.3-1-2,.4-2.7,1.2c-.7.8-1,1.9-1,3.2v6.5h-2.7v-13.1h2.7v1.9c1.1-1.5,2.5-2.3,4.4-2.3h0Z"/>
        <path class="cls-4" d="M767,78.2c-1.4,0-2.7-.4-3.8-1.2-1.1-.8-1.8-1.7-2.2-2.8l2.4-.7c.2.7.7,1.3,1.4,1.8s1.4.7,2.3.7,1.4-.2,1.9-.5.7-.8.7-1.3-.1-.7-.4-.9-.7-.4-1.3-.6l-3.4-1c-2-.6-3-1.7-3-3.4s.5-1.9,1.4-2.7,2.1-1.1,3.5-1.1,2.5.3,3.5.9,1.7,1.4,2,2.4l-2.4.7c-.3-.5-.7-1-1.2-1.3s-1.2-.5-2-.5-1.2.2-1.6.5c-.4.3-.6.7-.6,1.1s.5,1,1.4,1.3l3.4,1c1.1.3,1.9.7,2.5,1.3.6.5.9,1.3.9,2.3s-.5,2.2-1.5,2.9-2.3,1.2-3.8,1.2h0Z"/>
        <path class="cls-4" d="M782.8,77.4c-1,.4-1.9.6-2.8.6-1.3,0-2.3-.4-3-1.2s-1-1.9-1-3.3v-6.4h-2.3v-2.4h2.3v-4.4h2.6v4.4h4.1v2.4h-4.1v6.4c0,1.3.6,2,1.8,2s1.1-.1,1.7-.4l.7,2.2Z"/>
        <path class="cls-4" d="M785.7,62.1c-.3-.3-.5-.7-.5-1.2s.2-.8.5-1.2c.3-.3.7-.5,1.2-.5s.9.2,1.2.5c.3.3.5.7.5,1.2s-.2.9-.5,1.2c-.3.3-.7.5-1.2.5s-.9-.2-1.2-.5ZM785.5,64.7h2.6v13.1h-2.6v-13.1Z"/>
        <path class="cls-4" d="M799.6,77.4c-1,.4-1.9.6-2.8.6-1.3,0-2.3-.4-3-1.2s-1-1.9-1-3.3v-6.4h-2.3v-2.4h2.3v-4.4h2.6v4.4h4.1v2.4h-4.1v6.4c0,1.3.6,2,1.8,2s1.1-.1,1.7-.4l.7,2.2Z"/>
        <path class="cls-4" d="M814,64.7v13.1h-2.6v-2c-1,1.5-2.5,2.3-4.4,2.3-1.6,0-2.9-.5-3.8-1.5-.9-1-1.3-2.4-1.3-4.2v-7.7h2.7v7.2c0,1.2.3,2.1.8,2.7s1.3,1,2.3,1,2-.4,2.7-1.2,1-1.9,1-3.2v-6.5h2.6Z"/>
        <path class="cls-4" d="M825.4,77.4c-1,.4-1.9.6-2.8.6-1.3,0-2.3-.4-3-1.2s-1-1.9-1-3.3v-6.4h-2.3v-2.4h2.3v-4.4h2.6v4.4h4.1v2.4h-4.1v6.4c0,1.3.6,2,1.8,2s1.1-.1,1.7-.4l.7,2.2Z"/>
        <path class="cls-4" d="M833.3,78.2c-2,0-3.7-.6-4.9-1.9-1.3-1.3-1.9-2.9-1.9-5s.6-3.6,1.8-4.9,2.8-2,4.7-2,3.6.6,4.8,1.9,1.7,2.8,1.7,4.7,0,.7,0,1.1h-10.4c0,1.1.5,2,1.2,2.7s1.7,1,3,1,3-.7,3.6-2.1l2.4.7c-.5,1-1.2,1.9-2.3,2.6s-2.3,1.1-3.9,1.1h0ZM837,70.3c0-1-.5-1.9-1.2-2.6s-1.6-1-2.7-1-2,.3-2.7,1-1.1,1.5-1.2,2.5h7.8Z"/>
      </g>
      <circle class="cls-8" cx="467.4" cy="7.6" r="7.6"/>
    </g>
  </g>
</svg>