<?xml version="1.0" encoding="UTF-8"?>
<svg id="Layer_2" data-name="Layer 2" xmlns="http://www.w3.org/2000/svg" viewBox="0 0 344.6 80.1">
  <defs>
    <style>
      .cls-1 {
        fill: #1d416e;
        stroke-width: 0px;
      }
    </style>
  </defs>
  <g id="Layer_1-2" data-name="Layer 1">
    <g>
      <polygon class="cls-1" points="80.1 0 80.1 17.8 37.1 17.8 37.1 56.3 0 56.3 0 0 80.1 0"/>
      <polygon class="cls-1" points="43.1 23.8 80.1 23.8 80.1 80.1 0 80.1 0 62.3 43.1 62.3 43.1 23.8"/>
      <g>
        <g>
          <path class="cls-1" d="M106,10.3v12.8c0,2.7-.8,5-2.3,6.6-1.6,1.7-3.7,2.5-6.5,2.5s-5-.8-6.5-2.5c-1.6-1.7-2.3-3.9-2.3-6.6v-12.8h3.3v12.8c0,1.8.5,3.3,1.4,4.4,1,1.1,2.3,1.7,4.1,1.7s3.2-.6,4.1-1.7,1.4-2.6,1.4-4.4v-12.8h3.3Z"/>
          <path class="cls-1" d="M131.1,10.3v21.5h-3.3v-15.8l-7.2,10.4-7.2-10.4v15.8h-3.3V10.3h3.1l7.4,10.8,7.3-10.8h3.1Z"/>
          <path class="cls-1" d="M142.4,17.4c2.2,0,4,.8,5.3,2.2,1.4,1.4,2.1,3.1,2.1,5.2s-.7,3.9-2.2,5.3-3.3,2.2-5.6,2.2-4.1-.7-5.6-2.1-2.2-3.2-2.2-5.3.6-3.1,1.7-4.8l6.2-9.7h3.7l-4.7,7.2c.3,0,.8-.1,1.3-.1h0ZM142,29.2c1.3,0,2.4-.4,3.3-1.3.8-.8,1.2-1.9,1.2-3.2s-.4-2.3-1.3-3.2c-.8-.8-1.9-1.3-3.3-1.3s-2.4.4-3.2,1.3-1.3,1.9-1.3,3.2.4,2.3,1.3,3.2,1.9,1.3,3.3,1.3h0Z"/>
          <path class="cls-1" d="M162.5,10.2c2.2,0,3.9.7,5.2,2.2s1.9,3.2,1.9,5-.7,3.6-2,5c-1.3,1.5-3.1,2.2-5.3,2.2h-6.1v7.1h-3.3V10.3h9.5ZM165.3,20.4c.8-.8,1.1-1.8,1.1-2.9s-.4-2.1-1.1-3-1.7-1.3-2.9-1.3h-6.2v8.4h6.1c1.3,0,2.3-.4,3-1.2Z"/>
        </g>
        <g>
          <path class="cls-1" d="M122.3,36.2l-12.8,33.7h-8.6l-12.8-33.7h8.6l8.4,23.5,8.5-23.5h8.6Z"/>
          <path class="cls-1" d="M133,43.4v5.9h14.7v7h-14.7v6.4h17.1v7.2h-24.7v-33.7h24.7v7.2h-17.1Z"/>
          <path class="cls-1" d="M184.1,36.2v33.7h-6.3l-14.8-19.3v19.3h-7.8v-33.7h6.3l14.8,19.3v-19.3h7.8Z"/>
          <path class="cls-1" d="M216.7,43.4h-10.5v26.5h-7.8v-26.5h-10.5v-7.2h28.7v7.2Z"/>
          <path class="cls-1" d="M249.4,36.2v19.7c0,4.4-1.3,8-3.9,10.7s-6.1,4-10.8,4-8.2-1.3-10.8-4c-2.5-2.7-3.8-6.2-3.8-10.7v-19.7h7.9v19.6c0,2.2.6,4,1.7,5.4,1.1,1.4,2.8,2.1,5,2.1s3.9-.7,5-2.1c1.1-1.4,1.7-3.2,1.7-5.4v-19.6h7.8Z"/>
          <path class="cls-1" d="M268.5,58.8h-5.6v11.1h-7.7v-33.7h16.4c3.5,0,6.3,1.2,8.4,3.5,2.2,2.3,3.2,4.9,3.2,7.9s-.6,4.3-1.8,6.1c-1.2,1.9-2.8,3.2-5,4.1l7.9,12.1h-9l-7-11.1ZM262.8,51.8h8.2c1.4,0,2.5-.4,3.3-1.2.9-.8,1.3-1.8,1.3-3s-.4-2.1-1.3-3-1.9-1.2-3-1.2h-8.5v8.5Z"/>
          <path class="cls-1" d="M296.1,43.4v5.9h14.7v7h-14.7v6.4h17.1v7.2h-24.7v-33.7h24.7v7.2h-17.1Z"/>
          <path class="cls-1" d="M331.2,70.7c-3.9,0-7.2-1-9.8-3-2.7-2-4.5-4.4-5.6-7.3l7.4-2.4c.7,1.7,1.7,3,3.2,4s3.2,1.6,5.3,1.6,2.8-.3,3.7-.9c.9-.6,1.4-1.4,1.4-2.3,0-1.4-1.2-2.5-3.5-3.2l-8.5-2.7c-2.3-.7-4.1-1.9-5.5-3.4s-2-3.4-2-5.5c0-2.8,1.1-5.2,3.4-7.1,2.3-2,5.2-2.9,8.7-2.9s6.5.8,9.2,2.6,4.4,3.8,5.3,6.3l-7.2,2.2c-.7-1.2-1.7-2.2-3-2.9s-2.8-1.1-4.3-1.1-2.4.3-3.2.8-1.2,1.2-1.2,2c0,1.2.7,2,2.2,2.4l8.3,2.7c2.9.9,5.1,2.1,6.6,3.5s2.3,3.4,2.3,6-1.2,5.6-3.7,7.6c-2.5,2-5.8,3.1-9.8,3.1h0Z"/>
        </g>
      </g>
    </g>
  </g>
</svg>