<?xml version="1.0" encoding="UTF-8"?>
<svg id="Layer_2" data-name="Layer 2" xmlns="http://www.w3.org/2000/svg" viewBox="0 0 684.7 80.2">
  <defs>
    <style>
      .cls-1 {
        fill: #221f20;
      }

      .cls-1, .cls-2, .cls-3, .cls-4 {
        stroke-width: 0px;
      }

      .cls-2 {
        fill: #d74a2a;
      }

      .cls-3 {
        fill: #d14933;
      }

      .cls-4 {
        fill: #fff;
      }
    </style>
  </defs>
  <g id="Layer_1-2" data-name="Layer 1">
    <g>
      <g>
        <path class="cls-1" d="M514.3,64.4c-2.2,0-4.1-.8-5.6-2.3s-2.2-3.4-2.2-5.6.7-4.1,2.2-5.6c1.5-1.5,3.4-2.2,5.6-2.2s3.2.4,4.5,1.3c1.3.9,2.1,1.9,2.6,3.3l-1.7.4c-.4-1-1.1-1.8-2-2.4-1-.6-2.1-1-3.4-1s-3.2.6-4.4,1.8c-1.1,1.2-1.7,2.7-1.7,4.4s.6,3.3,1.7,4.5c1.1,1.2,2.6,1.8,4.4,1.8s2.5-.3,3.4-.9c1-.6,1.6-1.4,2-2.4l1.6.4c-.5,1.3-1.4,2.4-2.6,3.3-1.3.9-2.7,1.3-4.4,1.3h0Z"/>
        <path class="cls-1" d="M544,50.6v5.1h7.9v1.5h-7.9v5.4h8.9v1.6h-10.6v-15.1h10.7v1.6h-9Z"/>
        <path class="cls-1" d="M586.3,49v15.1h-1.5l-9.2-12.1v12.1h-1.7v-15.1h1.5l9.2,12.1v-12.1h1.7Z"/>
        <path class="cls-1" d="M620.1,50.6h-5.6v13.6h-1.7v-13.6h-5.6v-1.6h12.9v1.6Z"/>
        <path class="cls-1" d="M642.8,50.6v5.1h7.9v1.5h-7.9v5.4h8.9v1.6h-10.6v-15.1h10.7v1.6h-9Z"/>
        <path class="cls-1" d="M678.8,58.2h-4.4v5.9h-1.7v-15.1h7c1.5,0,2.6.5,3.5,1.4.9.9,1.3,2,1.3,3.2s-.3,2-1,2.9-1.6,1.4-2.8,1.6l4.1,6h-2l-3.9-5.9ZM674.4,56.7h5.2c1,0,1.7-.3,2.3-.9.6-.6.9-1.3.9-2.2s-.3-1.5-.9-2.1c-.6-.6-1.4-.9-2.3-.9h-5.3v6.1Z"/>
      </g>
      <g>
        <g>
          <rect class="cls-2" y="0" width="80.1" height="80.1"/>
          <path class="cls-4" d="M61.4,16.2v28.1c0,6.3-1.9,11.4-5.6,15.2-3.7,3.8-9,5.7-15.7,5.7s-12-1.9-15.8-5.7-5.6-8.9-5.6-15.2v-28.1h11.5v27.9c0,3.2.8,5.8,2.5,7.7,1.7,2,4.1,3,7.3,3s5.6-1,7.3-3c1.7-2,2.5-4.5,2.5-7.7v-27.9h11.5Z"/>
          <rect class="cls-2" x="88.2" y="0" width="80.1" height="80.1"/>
          <rect class="cls-2" x="176.4" y="0" width="80.1" height="80.1"/>
          <rect class="cls-2" x="264.5" y="0" width="80.1" height="80.1"/>
          <polygon class="cls-4" points="153.8 16 153.8 64.1 142.4 64.1 142.4 36 128.3 55.3 114.2 36 114.2 64.1 102.8 64.1 102.8 16 113.6 16 128.3 37.4 142.9 16 153.8 16"/>
          <path class="cls-4" d="M221.8,53.1c1.3-1.3,2-3,2-5.1s-.7-3.7-2-5c-1.3-1.4-3.1-2-5.4-2s-4,.7-5.3,2c-1.4,1.3-2.1,3-2.1,5.1s.7,3.8,2,5.1c1.4,1.3,3.2,2,5.4,2s4-.7,5.4-2M230.4,36.3c3.2,3.1,4.8,7,4.8,11.7s-1.8,9.1-5.3,12.4c-3.6,3.3-8,4.9-13.4,4.9s-9.8-1.6-13.4-4.9c-3.6-3.3-5.4-7.4-5.4-12.4s1.1-6.6,3.4-10.2l13.6-21.6h12.8l-9.4,14.9c5,.4,9.1,2.1,12.2,5.2"/>
          <path class="cls-4" d="M311.8,38.4c1.3-1.4,1.9-3.1,1.9-4.9s-.6-3.5-1.8-4.9c-1.2-1.4-2.8-2.1-4.6-2.1h-11.6v14.1h11.1c2,0,3.7-.7,5-2.1M320,21.3c3.2,3.5,4.8,7.5,4.8,12s-1.6,8.6-4.8,12.1c-3.2,3.5-7.5,5.3-12.9,5.3h-11.4v13.4h-11.3V16h23.1c5.1,0,9.3,1.8,12.5,5.3"/>
        </g>
        <rect class="cls-3" x="384.9" width="1" height="80.2"/>
      </g>
      <g>
        <rect class="cls-2" x="426.3" y="0" width="64.1" height="64.1"/>
        <polygon class="cls-2" points="453.8 62.6 483.7 80.1 473 62.6 453.8 62.6"/>
      </g>
      <g>
        <path class="cls-4" d="M490.8,36.9v5.8h-18.9V16h6.3v20.9h12.5Z"/>
        <path class="cls-1" d="M511.6,37.5h-11.3l-1.9,5.1h-6.5l9.9-26.7h8.3l9.9,26.7h-6.5l-1.9-5.1ZM509.6,32l-3.6-10-3.6,10h7.2Z"/>
        <path class="cls-1" d="M545.7,16v26.7h-5.1l-12-15.3v15.3h-6.3V16h5.1l12,15.3v-15.3h6.3Z"/>
        <path class="cls-1" d="M577.2,30.6c0,3.7-1.2,6.7-3.7,9-2.5,2.3-5.8,3.5-9.8,3.5s-7.6-1.3-10.3-4c-2.7-2.7-4.1-6-4.1-9.9s1.3-7.2,4-9.9c2.7-2.7,6-4,10-4s6,.8,8.2,2.4c2.3,1.6,3.9,3.6,4.7,5.9l-5.9,1.7c-1.4-2.7-3.7-4-7-4s-4.1.8-5.5,2.3c-1.5,1.5-2.2,3.4-2.2,5.6s.7,4.1,2.2,5.7c1.5,1.6,3.6,2.4,6.2,2.4s3.3-.4,4.4-1.3c1.1-.9,1.8-1.9,2.1-3.1h-7s0-5.4,0-5.4h13.6v3.1Z"/>
        <path class="cls-1" d="M604.2,16v15.6c0,3.5-1,6.3-3.1,8.4-2.1,2.1-5,3.2-8.7,3.2s-6.7-1.1-8.7-3.2c-2.1-2.1-3.1-4.9-3.1-8.4v-15.6h6.4v15.5c0,1.8.5,3.2,1.4,4.3.9,1.1,2.3,1.6,4.1,1.6s3.1-.5,4.1-1.6c.9-1.1,1.4-2.5,1.4-4.3v-15.5h6.4Z"/>
        <path class="cls-1" d="M624.9,37.5h-11.3l-1.9,5.1h-6.5l9.9-26.7h8.3l9.9,26.7h-6.5l-1.9-5.1ZM622.9,32l-3.6-10-3.6,10h7.2Z"/>
        <path class="cls-1" d="M661.1,30.6c0,3.7-1.2,6.7-3.7,9-2.5,2.3-5.8,3.5-9.8,3.5s-7.6-1.3-10.3-4c-2.7-2.7-4.1-6-4.1-9.9s1.3-7.2,4-9.9c2.7-2.7,6-4,10-4s6,.8,8.2,2.4c2.3,1.6,3.9,3.6,4.7,5.9l-5.9,1.7c-1.4-2.7-3.7-4-7-4s-4.1.8-5.5,2.3c-1.5,1.5-2.2,3.4-2.2,5.6s.7,4.1,2.2,5.7c1.5,1.6,3.6,2.4,6.2,2.4s3.3-.4,4.4-1.3c1.1-.9,1.8-1.9,2.1-3.1h-7s0-5.4,0-5.4h13.6v3.1Z"/>
        <path class="cls-1" d="M670.8,21.7v4.6h12v5.5h-12v5.1h13.9v5.7h-20V16h20.1v5.7h-13.9Z"/>
      </g>
    </g>
  </g>
</svg>