<?xml version="1.0" encoding="UTF-8"?>
<svg id="Layer_2" data-name="Layer 2" xmlns="http://www.w3.org/2000/svg" xmlns:xlink="http://www.w3.org/1999/xlink" viewBox="0 0 747.1 96.2">
  <defs>
    <style>
      .cls-1 {
        fill: #333;
      }

      .cls-1, .cls-2, .cls-3, .cls-4, .cls-5, .cls-6, .cls-7, .cls-8, .cls-9, .cls-10, .cls-11, .cls-12, .cls-13 {
        stroke-width: 0px;
      }

      .cls-2 {
        fill: #d1451e;
      }

      .cls-3 {
        fill: url(#radial-gradient);
      }

      .cls-4 {
        fill: #d74a2a;
      }

      .cls-5 {
        fill: url(#radial-gradient-2);
      }

      .cls-6 {
        fill: url(#radial-gradient-3);
      }

      .cls-7 {
        fill: url(#radial-gradient-4);
      }

      .cls-8 {
        fill: url(#radial-gradient-6);
      }

      .cls-9 {
        fill: url(#radial-gradient-9);
      }

      .cls-10 {
        fill: url(#radial-gradient-8);
      }

      .cls-11 {
        fill: url(#radial-gradient-5);
      }

      .cls-12 {
        fill: url(#radial-gradient-7);
      }

      .cls-13 {
        fill: #fff;
      }
    </style>
    <radialGradient id="radial-gradient" cx="717.3" cy="90.8" fx="717.3" fy="90.8" r="167.8" gradientUnits="userSpaceOnUse">
      <stop offset="0" stop-color="#cbec0a"/>
      <stop offset="1" stop-color="#48864b"/>
    </radialGradient>
    <radialGradient id="radial-gradient-2" cx="717.3" cy="90.8" fx="717.3" fy="90.8" r="167.8" xlink:href="#radial-gradient"/>
    <radialGradient id="radial-gradient-3" cx="717.3" fx="717.3" r="167.8" xlink:href="#radial-gradient"/>
    <radialGradient id="radial-gradient-4" cx="631.6" cy="7.8" fx="631.6" fy="7.8" r="156.7" gradientUnits="userSpaceOnUse">
      <stop offset="0" stop-color="#0a278b"/>
      <stop offset="1" stop-color="#0d80d5"/>
    </radialGradient>
    <radialGradient id="radial-gradient-5" cx="631.6" cy="7.8" fx="631.6" fy="7.8" r="156.7" xlink:href="#radial-gradient-4"/>
    <radialGradient id="radial-gradient-6" cx="631.6" cy="7.8" fx="631.6" fy="7.8" r="156.7" xlink:href="#radial-gradient-4"/>
    <radialGradient id="radial-gradient-7" cx="631.6" cy="7.8" fx="631.6" fy="7.8" r="156.7" xlink:href="#radial-gradient-4"/>
    <radialGradient id="radial-gradient-8" cx="468.7" cy="-9.9" fx="468.7" fy="-9.9" r="90.4" xlink:href="#radial-gradient-4"/>
    <radialGradient id="radial-gradient-9" cx="425.9" cy="132.8" fx="425.9" fy="132.8" r="119.8" xlink:href="#radial-gradient"/>
  </defs>
  <g id="Layer_1-2" data-name="Layer 1">
    <g>
      <g>
        <g>
          <rect class="cls-4" y="8" width="80" height="80"/>
          <path class="cls-13" d="M61.3,24.1v28c0,6.3-1.9,11.4-5.6,15.2-3.7,3.8-9,5.7-15.7,5.7s-12-1.9-15.7-5.7c-3.7-3.8-5.6-8.9-5.6-15.2v-28h11.5v27.8c0,3.2.8,5.8,2.5,7.7,1.7,2,4.1,2.9,7.3,2.9s5.6-1,7.3-2.9c1.7-2,2.5-4.5,2.5-7.7v-27.8h11.5Z"/>
          <rect class="cls-4" x="88" y="8" width="80" height="80"/>
          <rect class="cls-4" x="176" y="8" width="80" height="80"/>
          <rect class="cls-4" x="264" y="8" width="80" height="80"/>
          <polygon class="cls-13" points="153.5 24 153.5 72 142.1 72 142.1 43.9 128 63.1 113.9 43.9 113.9 72 102.6 72 102.6 24 113.4 24 128.1 45.3 142.6 24 153.5 24"/>
          <path class="cls-13" d="M221.4,61c1.3-1.3,2-3,2-5.1s-.7-3.7-2-5c-1.3-1.3-3.1-2-5.4-2s-4,.7-5.3,2c-1.4,1.3-2.1,3-2.1,5.1s.7,3.8,2,5.1c1.3,1.3,3.1,2,5.4,2s4-.7,5.4-2M229.9,44.2c3.2,3.1,4.8,7,4.8,11.7s-1.8,9-5.3,12.3c-3.6,3.3-8,4.9-13.4,4.9s-9.8-1.6-13.4-4.9c-3.6-3.3-5.4-7.4-5.4-12.4s1.1-6.6,3.4-10.2l13.6-21.5h12.8l-9.4,14.8c5,.4,9,2.1,12.2,5.2"/>
          <path class="cls-13" d="M311.1,46.3c1.3-1.4,1.9-3,1.9-4.9s-.6-3.5-1.8-4.9c-1.2-1.4-2.8-2.1-4.6-2.1h-11.6v14.1h11.1c2,0,3.7-.7,5-2.1M319.3,29.3c3.2,3.5,4.8,7.5,4.8,12s-1.6,8.5-4.8,12c-3.2,3.5-7.5,5.3-12.8,5.3h-11.4v13.4h-11.2V24h23.1c5.1,0,9.3,1.8,12.4,5.3"/>
        </g>
        <rect class="cls-2" x="384.2" y="8" width="1" height="80"/>
      </g>
      <g>
        <g>
          <path class="cls-3" d="M536,35.7l4.9,2.4c4.6,2.2,8.2,5.1,8.2,10.9s-5.2,11.3-13.5,11.3-12.4-4.6-13.7-9.8l6.1-3.4c.7,3.2,3.3,6.5,7.8,6.5s5.4-1.6,5.4-4.6-1.5-3.5-5-5.2l-4.4-2.1c-4.6-2.1-8.3-4.8-8.3-11.1s5.2-10.8,12.3-10.8,11.2,3.8,13.2,8.6l-5.7,3.2c-1.3-2.9-3.8-5.2-7.4-5.2s-5,1.6-5,4.1,1.5,3.5,5,5.2Z"/>
          <path class="cls-5" d="M583.4,21.1v23.1c0,6.3-3.1,11.3-7.8,13.6-1.8.9-3.8,1.3-6,1.3h-3.7c-2.2,0-4.2-.5-5.9-1.3-4.8-2.2-7.9-7.3-7.9-13.6v-23.1h7.9v23c0,4.7,3.3,7.9,7.7,7.9s7.9-3.2,7.9-7.9v-23h7.8Z"/>
          <path class="cls-6" d="M600.7,35.7l4.9,2.4c4.6,2.2,8.2,5.1,8.2,10.9s-5.2,11.3-13.5,11.3-12.4-4.6-13.7-9.8l6.1-3.4c.7,3.2,3.3,6.5,7.8,6.5s5.4-1.6,5.4-4.6-1.5-3.5-5-5.2l-4.4-2.1c-4.6-2.1-8.3-4.8-8.3-11.1s5.2-10.8,12.3-10.8,11.2,3.8,13.2,8.6l-5.7,3.2c-1.3-2.9-3.8-5.2-7.4-5.2s-5,1.6-5,4.1,1.5,3.5,5,5.2Z"/>
          <path class="cls-7" d="M718.7,21.1v6.9h10.1v31.1h8v-31.1h10.3v-6.9h-28.4Z"/>
          <path class="cls-11" d="M709,21.1l13.2,38h-8.6s-9.8-31-9.8-31h-.3s-9.8,31-9.8,31h-8.5s13.1-38,13.1-38h10.6Z"/>
          <g>
            <path class="cls-8" d="M669,21.1l13.2,38h-8.6s-9.8-31-9.8-31h-.3s-9.8,31-9.8,31h-8.5s13.1-38,13.1-38h10.6Z"/>
            <path class="cls-12" d="M640.5,21.1l13.2,38h-8.6s-9.8-31-9.8-31h-.3s-9.8,31-9.8,31h-8.5s13.1-38,13.1-38h10.6Z"/>
          </g>
        </g>
        <g>
          <path class="cls-1" d="M526.6,67.9c0-1-.4-1.7-1.5-1.7s-1.6.5-1.6,1.5c0,2.7,4.4,1.1,4.4,4.5s-1.6,2.8-2.9,2.8c-2.2,0-2.8-1.1-2.8-3.1h1.2c0,1.1,0,2.2,1.8,2.2s1.6-.7,1.6-1.7c0-2.7-4.4-1.1-4.4-4.6s.4-2.6,2.8-2.6,2.6.9,2.6,2.6h-1.2Z"/>
          <path class="cls-1" d="M529.1,65.4h1.2v6.6c0,1.4.4,2,1.6,2s1.6-.7,1.6-2v-6.6h1.2v6.6c0,1.8-.9,3-2.8,3s-2.8-1-2.8-3v-6.6Z"/>
          <path class="cls-1" d="M540,67.9c0-1-.4-1.7-1.5-1.7s-1.6.5-1.6,1.5c0,2.7,4.4,1.1,4.4,4.5s-1.6,2.8-2.9,2.8c-2.2,0-2.8-1.1-2.8-3.1h1.2c0,1.1,0,2.2,1.8,2.2s1.6-.7,1.6-1.7c0-2.7-4.4-1.1-4.4-4.6s.4-2.6,2.8-2.6,2.6.9,2.6,2.6h-1.2Z"/>
          <path class="cls-1" d="M545.5,74.8h-1.2v-8.4h-2.4v-1h5.9v1h-2.4v8.4Z"/>
          <path class="cls-1" d="M549.9,65.4h1.6l2.5,9.4h-1.2l-.7-2.6h-3l-.7,2.6h-1.2l2.7-9.4ZM549.3,71.3h2.5l-1.2-4.6h0l-1.3,4.6Z"/>
          <path class="cls-1" d="M554.6,65.4h1.2v9.4h-1.2v-9.4Z"/>
          <path class="cls-1" d="M557.3,65.4h1.5l3.1,7.9h0v-7.9h1.2v9.4h-1.6l-3-7.6h0v7.6h-1.2v-9.4Z"/>
          <path class="cls-1" d="M566.5,65.4h1.6l2.5,9.4h-1.2l-.7-2.6h-3l-.7,2.6h-1.2l2.7-9.4ZM565.9,71.3h2.5l-1.2-4.6h0l-1.3,4.6Z"/>
          <path class="cls-1" d="M571.2,65.4h2.9c1.2,0,2.4.6,2.4,2.4s-.5,1.7-1.4,2h0c1.2.3,1.7,1.2,1.7,2.3,0,1.9-1.1,2.7-3,2.7h-2.6v-9.4ZM572.4,69.5h1.3c.5,0,1.6-.1,1.6-1.6s-.5-1.5-1.6-1.5h-1.3v3.1ZM572.4,73.9h1.6c1.2,0,1.6-.8,1.6-1.7,0-1.3-.8-1.8-1.8-1.8h-1.4v3.5Z"/>
          <path class="cls-1" d="M578.1,65.4h1.2v8.4h3.8v1h-5v-9.4Z"/>
          <path class="cls-1" d="M583.9,65.4h4.9v1h-3.7v3h3.5v1h-3.5v3.4h3.9v1h-5v-9.4Z"/>
          <path class="cls-1" d="M593.2,65.4h2l1.9,7.5h0l1.9-7.5h2v9.4h-1.2v-8.2h0l-2.1,8.2h-1.2l-2.1-8.2h0v8.2h-1.2v-9.4Z"/>
          <path class="cls-1" d="M604.3,65.4h1.6l2.5,9.4h-1.2l-.7-2.6h-3l-.7,2.6h-1.2l2.7-9.4ZM603.8,71.3h2.5l-1.2-4.6h0l-1.3,4.6Z"/>
          <path class="cls-1" d="M611.2,74.8h-1.2v-8.4h-2.4v-1h5.9v1h-2.4v8.4Z"/>
          <path class="cls-1" d="M614.5,65.4h4.9v1h-3.7v3h3.5v1h-3.5v3.4h3.9v1h-5v-9.4Z"/>
          <path class="cls-1" d="M620.6,65.4h3c1.5,0,2.4.9,2.4,2.4s-.4,2.1-1.5,2.4h0c.8.1,1.3.8,1.3,1.6v1.6c.1,1,.3,1.3.6,1.5h-1.4c-.2-.2-.3-.9-.3-1.4v-1.5c-.2-1.3-.9-1.4-1.5-1.4h-1.6v4.2h-1.2v-9.4ZM621.7,69.7h1.1c.7,0,1.9,0,1.9-1.8s-.6-1.5-1.7-1.5h-1.4v3.3Z"/>
          <path class="cls-1" d="M627.4,65.4h1.2v9.4h-1.2v-9.4Z"/>
          <path class="cls-1" d="M631.9,65.4h1.6l2.5,9.4h-1.2l-.7-2.6h-3l-.7,2.6h-1.2l2.7-9.4ZM631.4,71.3h2.5l-1.2-4.6h0l-1.3,4.6Z"/>
          <path class="cls-1" d="M636.7,65.4h1.2v8.4h3.8v1h-5v-9.4Z"/>
          <path class="cls-1" d="M646.5,67.9c0-1-.4-1.7-1.5-1.7s-1.6.5-1.6,1.5c0,2.7,4.4,1.1,4.4,4.5s-1.6,2.8-2.9,2.8c-2.2,0-2.8-1.1-2.8-3.1h1.2c0,1.1,0,2.2,1.8,2.2s1.6-.7,1.6-1.7c0-2.7-4.4-1.1-4.4-4.6s.4-2.6,2.8-2.6,2.6.9,2.6,2.6h-1.2Z"/>
          <path class="cls-1" d="M652.3,65.4h3c1.5,0,2.4.9,2.4,2.4s-.4,2.1-1.5,2.4h0c.8.1,1.3.8,1.3,1.6v1.6c.1,1,.3,1.3.6,1.5h-1.4c-.2-.2-.3-.9-.3-1.4v-1.5c-.2-1.3-.9-1.4-1.5-1.4h-1.6v4.2h-1.2v-9.4ZM653.5,69.7h1.1c.7,0,1.9,0,1.9-1.8s-.6-1.5-1.7-1.5h-1.4v3.3Z"/>
          <path class="cls-1" d="M659.1,65.4h4.9v1h-3.7v3h3.5v1h-3.5v3.4h3.9v1h-5v-9.4Z"/>
          <path class="cls-1" d="M669.3,67.9c0-1-.4-1.7-1.5-1.7s-1.6.5-1.6,1.5c0,2.7,4.4,1.1,4.4,4.5s-1.6,2.8-2.9,2.8c-2.2,0-2.8-1.1-2.8-3.1h1.2c0,1.1,0,2.2,1.8,2.2s1.6-.7,1.6-1.7c0-2.7-4.4-1.1-4.4-4.6s.4-2.6,2.8-2.6,2.6.9,2.6,2.6h-1.2Z"/>
          <path class="cls-1" d="M671.8,65.4h4.9v1h-3.7v3h3.5v1h-3.5v3.4h3.9v1h-5v-9.4Z"/>
          <path class="cls-1" d="M679.8,65.4h1.6l2.5,9.4h-1.2l-.7-2.6h-3l-.7,2.6h-1.2l2.7-9.4ZM679.2,71.3h2.5l-1.2-4.6h0l-1.3,4.6Z"/>
          <path class="cls-1" d="M684.6,65.4h3c1.5,0,2.4.9,2.4,2.4s-.4,2.1-1.5,2.4h0c.8.1,1.3.8,1.3,1.6v1.6c.1,1,.3,1.3.6,1.5h-1.4c-.2-.2-.3-.9-.3-1.4v-1.5c-.2-1.3-.9-1.4-1.5-1.4h-1.6v4.2h-1.2v-9.4ZM685.7,69.7h1.1c.7,0,1.9,0,1.9-1.8s-.6-1.5-1.7-1.5h-1.4v3.3Z"/>
          <path class="cls-1" d="M697.2,71.6c-.1,1.8-.8,3.4-2.9,3.4s-3-2.5-3-4.9.4-4.9,3-4.9,2.7,1.1,2.8,2.9h-1.2c0-1.1-.4-2-1.6-2s-1.8,1.8-1.8,3.9.2,3.9,1.8,3.9,1.6-1.3,1.6-2.5h1.2Z"/>
          <path class="cls-1" d="M703.8,74.8h-1.2v-4.5h-3.2v4.5h-1.2v-9.4h1.2v3.9h3.2v-3.9h1.2v9.4Z"/>
          <path class="cls-1" d="M714.3,71.6c-.1,1.8-.8,3.4-2.9,3.4s-3-2.5-3-4.9.4-4.9,3-4.9,2.7,1.1,2.8,2.9h-1.2c0-1.1-.4-2-1.6-2s-1.8,1.8-1.8,3.9.2,3.9,1.8,3.9,1.6-1.3,1.6-2.5h1.2Z"/>
          <path class="cls-1" d="M715.3,65.4h4.9v1h-3.7v3h3.5v1h-3.5v3.4h3.9v1h-5v-9.4Z"/>
          <path class="cls-1" d="M721.4,65.4h1.5l3.1,7.9h0v-7.9h1.2v9.4h-1.6l-3-7.6h0v7.6h-1.2v-9.4Z"/>
          <path class="cls-1" d="M731.6,74.8h-1.2v-8.4h-2.4v-1h5.9v1h-2.4v8.4Z"/>
          <path class="cls-1" d="M734.9,65.4h4.9v1h-3.7v3h3.5v1h-3.5v3.4h3.9v1h-5v-9.4Z"/>
          <path class="cls-1" d="M741,65.4h3c1.5,0,2.4.9,2.4,2.4s-.4,2.1-1.5,2.4h0c.8.1,1.3.8,1.3,1.6v1.6c.1,1,.3,1.3.6,1.5h-1.4c-.2-.2-.3-.9-.3-1.4v-1.5c-.2-1.3-.9-1.4-1.5-1.4h-1.6v4.2h-1.2v-9.4ZM742.1,69.7h1.1c.7,0,1.9,0,1.9-1.8s-.6-1.5-1.7-1.5h-1.4v3.3Z"/>
        </g>
      </g>
      <path class="cls-10" d="M440.3,28.7c-1,.6-1.6,1.5-1.8,2.6,0,.5,0,1.1,0,1.6v1.6s0,6.6,0,6.6c0,4.4.1,8.8.2,13.2,0,2.2,0,4.4.1,6.6v1.6c0,.3,0,.6,0,.8,0,.2,0,.5.2.7.1.5.4.9.7,1.3.2.2.4.3.6.5.1,0,.2.1.3.2l.4.2,11.6,6.3,11.6,6.3,2.9,1.6c.5.2,1,.6,1.3.7.4.1.7.2,1.1.1.4,0,.7-.1,1.1-.3l1.4-.8,2.8-1.7,11.3-6.7,11.4-6.6c.6-.3,1-.9,1.1-1.6,0,0,0-.2,0-.2h0c0-.1,0-.3,0-.3v-.8s0-1.6,0-1.6v-6.6c0-4.4.1-8.8.2-13.2,0-2.2,0-4.4.1-6.6v-1.6c0-.6,0-.9,0-1.3,0-.4-.3-.7-.5-1-.1-.2-.3-.3-.4-.4,0,0-.2-.1-.3-.2l-.4-.2-11.3-6.9-11.3-6.9-2.8-1.7c-.5-.3-.9-.6-1.4-.8-.5-.2-1-.3-1.5-.3-.5,0-1,.1-1.4.4l-1.4.8-2.9,1.6c-3.8,2.2-7.7,4.3-11.5,6.5l-11.4,6.5ZM438.9,27.8l12-7c4-2.3,8-4.7,11.9-7.1l3-1.8,1.5-.9c.5-.3,1.2-.5,1.8-.5.6,0,1.3,0,1.9.3.6.2,1.1.6,1.6.8l3,1.7,12.2,6.7,12.2,6.7.4.2c.1,0,.3.2.5.3.3.2.6.5.8.7.5.6.9,1.2,1.1,1.9.1.4.2.7.2,1.1,0,.4,0,.7,0,1v1.7c0,2.3.1,4.6.2,6.9,0,4.6.1,9.2.2,13.9v6.9s0,1.7,0,1.7v.9s0,.2,0,.2v.3c0,.2,0,.4,0,.6-.3,1.6-1.3,3.1-2.7,3.9l-12,6.9-12.1,6.8-3,1.7-1.5.9c-.7.4-1.4.6-2.2.6-.8,0-1.5,0-2.2-.4-.3-.1-.7-.4-.9-.5l-.7-.4-3-1.8-11.9-7.2-11.9-7.2-.4-.2c-.1,0-.3-.2-.4-.3-.3-.2-.5-.4-.7-.7-.4-.5-.7-1.1-.9-1.7,0-.3-.1-.6-.2-.9,0-.3,0-.6,0-.9v-1.7c0-2.3.1-4.6.2-6.9,0-4.6.1-9.2.2-13.9v-6.9s0-1.7,0-1.7c0-.6,0-1.2,0-1.7.2-1.1.9-2.2,1.9-2.8Z"/>
      <path class="cls-9" d="M508.3,22.1c1.3.7,2.2,2.1,2.5,3.5,0,.4,0,.7,0,1.1v1.1s0,2.2,0,2.2v8.9s.2,17.8.2,17.8v8.9c.1,0,.2,2.2.2,2.2,0,.4,0,.7,0,1.1,0,.4,0,.8-.2,1.2-.2.8-.6,1.5-1.1,2.1-.3.3-.6.6-.9.8-.2.1-.3.2-.5.3l-.5.3-15.3,9.2-15.3,9.2-3.8,2.3-1,.6c-.3.2-.7.4-1.1.6-.9.4-1.8.5-2.7.5-.9,0-1.9-.3-2.7-.7l-2-1.1-3.9-2.2-15.5-8.8-15.5-8.8c-1.7-1-2.9-2.8-3.3-4.7,0-.2,0-.5,0-.7v-.4s0-.3,0-.3v-1.1s0-2.2,0-2.2v-8.9c0-5.9.1-11.9.2-17.8v-8.9c.1,0,.2-2.2.2-2.2,0-.4,0-.7,0-1.2,0-.5.1-.9.3-1.4.3-.9.8-1.7,1.4-2.4.3-.3.7-.6,1-.9.2-.1.4-.3.6-.4l.5-.3,15.6-8.6,15.6-8.6,3.9-2.2,1-.5c.3-.2.7-.4,1.1-.5.7-.3,1.6-.4,2.3-.3.8,0,1.6.3,2.3.7l1.9,1.1,3.8,2.3,15.3,9.1,15.4,9ZM506.8,23.1l-14.8-8.5-14.9-8.4-3.7-2.1-1.9-1c-.6-.3-1.2-.5-1.9-.5-.7,0-1.3,0-1.9.3-.6.2-1.2.7-1.8,1l-3.7,2.2-14.7,8.8-14.7,8.8-.5.3c-.1,0-.2.1-.4.2-.2.2-.4.3-.6.6-.4.4-.6.9-.8,1.4,0,.3-.1.5-.1.8,0,.2,0,.6,0,1v2.1s.2,8.6.2,8.6c0,5.7.1,11.4.2,17.1v8.6s0,2.1,0,2.1v1.1s0,.3,0,.3v.2c0,.1,0,.2,0,.4.2.9.8,1.8,1.6,2.3l14.8,8.6,14.7,8.7,3.7,2.2,1.8,1.1c.5.3,1,.4,1.5.5.5,0,1.1,0,1.6-.2.4-.2,1.1-.6,1.7-.9l3.7-2.1,15-8.3,15-8.3.5-.3c.1,0,.3-.2.4-.3.3-.2.5-.4.7-.6.4-.5.8-1,1-1.7,0-.3.2-.6.2-1,0-.3,0-.7,0-1v-2.1s.2-8.6.2-8.6l.2-17.1v-8.6s0-2.1,0-2.1v-1.1c0-.4,0-.7,0-1.1-.2-1.4-1.1-2.7-2.4-3.4Z"/>
    </g>
  </g>
</svg>