<?xml version="1.0" encoding="UTF-8"?>
<svg id="Layer_2" data-name="Layer 2" xmlns="http://www.w3.org/2000/svg" viewBox="0 0 836.1 85.8">
  <defs>
    <style>
      .cls-1 {
        fill: #d74a2a;
      }

      .cls-1, .cls-2, .cls-3, .cls-4 {
        stroke-width: 0px;
      }

      .cls-2 {
        fill: #3b3b3c;
      }

      .cls-3 {
        fill: #c75436;
        fill-rule: evenodd;
      }

      .cls-4 {
        fill: #fff;
      }
    </style>
  </defs>
  <g id="Layer_1-2" data-name="Layer 1">
    <g>
      <g>
        <path class="cls-3" d="M549.4,23.4c-2.9-.8-5.9-1.4-9-1.8-1.9-.2-3.9-.4-5.8-.5-1.6,0-3.2,0-4.8,0-1.8,0-3.6.2-5.4.4-3.2.3-6.3.8-9.5,1.5-1.4.3-2.7.6-4.1,1-.1,0-.2,0-.2,0,0,0,0,0,.1,0,0,0,0,0-.1,0-.5-1.2-1.1-2.6-1.3-3-.3-.7-1.4-3.8-1.4-3.8l-1.6-4.4v1.9c0,0,0,.8,0,.8v2.2s0,1,0,1v1.7c.1,0,.3,1.3.3,1.3l.2,1.3.3,1.8.3,1.3.3,1.5.4,1.4.4,1.5.4,1.2.5,1.5.6,1.6s.4,1.1.7,1.7c.3.6.9.4.9.4,0,0,3.5-1.3,3.7-1.5s0-.8-.1-1.5c-.2-.7-.3-.9-.5-1.2-.2-.3-.4-.5-.7-.7-.2-.1-.5-.4-.7-.6s-.3-.5-.5-.8c-.1-.2-.3-1-.3-1.2,0-.2,0-.3,0-.8,0-.6.6-1.1.6-1.1l.2-.2h.2c0-.1.2-.3.4-.3.1,0,.3-.1.3-.1l3.8-1.2c1.3-.4,2.6-.7,3.9-1,1.1-.2,2.2-.4,3.2-.6.9-.1,1.7-.3,2.6-.4,2.3-.3,4.6-.5,7-.6,1.2,0,2.5,0,3.7,0,2.1,0,4.2.2,6.2.4,1.3.2,2.5.3,3.8.6,3.2.6,6.4,1.5,9.4,2.7,0,0,.2,0,.3,0,0,0,0,0,.2,0-.7-.3-1.3-.6-2-.9-2.3-1-4.6-1.8-7-2.5Z"/>
        <path class="cls-3" d="M560,21.9c-2.3-1.6-4.7-3-7.2-4.1,0-1.2-.1-2.4-.3-3.5.8-.8,1-2.4.5-4-.6-1.9-2.1-3.2-3.4-2.9-1.5-2.1-3.4-3.8-5.7-5.1-5.6-3.2-12.4-3.1-17.9.1-5.5,3.3-8.8,9.2-8.7,15.6-1.7.8-3.4,1.6-5.1,2.6,15.5-4.4,32-3.6,47.1,2.2.8.3,1.5-.4.7-1ZM521.8,16.4c-.2-5.1,2.4-9.9,6.7-12.7,4.7-3,10.8-2.9,15.5.1,1.8,1.2,3.3,2.7,4.4,4.4-.6.9-.7,2.3-.3,3.7.5,1.4,1.4,2.5,2.4,2.8,0,.7,0,1.4,0,2.1-9.2-3.4-19.3-3.5-28.7-.5ZM551.4,13.7c-.9.3-2.1-.6-2.5-2-.5-1.4,0-2.8.9-3.1.9-.3,2.1.6,2.5,2,.5,1.4,0,2.8-.9,3.1Z"/>
        <path class="cls-3" d="M543,26.5c-1.9-.2-3.9-.3-5.9-.3-1.6,0-3.2,0-4.8.1-1.8.1-3.6.3-5.4.5-3.2.4-6.3,1-9.4,1.8-.8.2-1.5.4-2.3.6h0s0,0,0,0c0,0,.7.8,2.6,3,1.1,1.3,2.6,3,4.5,5.3,0,0,.9-1.1,2.6-3.2,0,0,2.8,3.9,8.3,11.6,0,0,2.5-4,7.6-12.1,0,0,1.4,1.1,4.3,3.4,0,0,3.8-2.5,11.5-7.7.2-.1.3-.2.5-.3-1.7-.6-3.4-1.1-5.1-1.5-3-.7-6-1.2-9-1.5Z"/>
        <path class="cls-3" d="M449.8,60.1h6.2c0,0,1.8.1,1.8.1h3.3c1.9,0,3.5,1.7,3.5,3.7v.2s0,0,0,0v11.9c-2.2,1.2-4.7,2.1-7.6,2.8-.3,0-.6.1-.9.2v-11.4c0-.3,0-.7.2-1,0,0,0,0,0-.1h-3.8c-1.1-1.6-2-3.4-2.6-5.5l-.2-1ZM510.6,46.3v33.9h3.9c2.6,0,4.8-2.2,4.8-4.8v-13.4c0-.9-.2-1.7-.7-2.5l-8-13.2ZM495.1,47.4c2.4.9,5.1-.3,6.1-2.7l1-2.4c-1.8-1.1-4-2-6.4-2.6-2.4-.6-4.9-.9-7.5-.9-3.7,0-6.8.6-9.3,1.7-2.5,1.1-4.4,2.6-5.7,4.5-.3.4-.5.8-.7,1.3h15.7c2.3,0,4.6.4,6.9,1.2ZM566.5,47.7c-1.2-2.7-1-5.6-1.3-8.5.6,3,1.7,5.9,3.4,8.4,8.6-6.6-2-11.5-2.7-15.1-6.6,5.4-5.8,13,.7,15.1ZM458.1,40.5c-2.9-1.2-6-1.8-9.6-1.8s-8,.9-11.3,2.7c-3.4,1.8-6,4.2-7.9,7.4-1.9,3.1-2.8,6.7-2.8,10.7s.9,7.5,2.8,10.7c1.9,3.1,4.5,5.6,7.8,7.4,3.3,1.8,7.1,2.7,11.2,2.7s.7,0,1,0c2.6,0,4.6-2.2,4.6-4.8v-3.9c-1.6.5-3.3.8-5.2.8s-4.8-.5-6.7-1.6c-2-1.1-3.5-2.6-4.6-4.6-1.1-1.9-1.7-4.2-1.7-6.6s.6-4.8,1.7-6.7c1.1-1.9,2.7-3.5,4.6-4.5,2-1.1,4.3-1.6,6.8-1.6s5.3.7,7.6,2.2c1.9,1.2,4.2,1,5.9-.5l2.9-2.6c-1.9-2.3-4.4-4-7.2-5.2ZM496.8,57.9c-1.9-.7-4.4-1.5-7.5-2.2-2.9-.6-5.1-1.3-6.6-2-1.4-.7-2.1-1.7-2.1-3.1s.3-1.8.9-2.5h-5.1c-1.5,0-2.9.6-3.8,1.9-.9,1.2-1.2,2.7-.9,4.1.3,1.3.9,2.4,1.7,3.4,1.4,1.6,3.1,2.8,5,3.5,1.9.7,4.4,1.5,7.5,2.2,2,.5,3.6.9,4.7,1.3,1.2.4,2.1.9,2.9,1.5.7.6,1.1,1.4,1.1,2.4s-.6,2.3-1.9,3.1c-1.3.8-3.2,1.2-5.8,1.2s-4.7-.4-7.1-1.1c-.7-.2-1.4-.5-2-.7-2.4-1-5.2,0-6.2,2.5l-1,2.2c1.8,1.4,4.2,2.5,7.1,3.3,3,.9,6,1.3,9.2,1.3s6.8-.6,9.3-1.7c2.6-1.1,4.5-2.6,5.8-4.5,1.3-1.9,1.9-4,1.9-6.3s-.7-4.8-2.1-6.4c-1.4-1.6-3.1-2.7-5-3.4ZM562.4,54.2v26h4.1c2.6,0,4.8-2.2,4.8-4.8v-26h-4.1c-2.6,0-4.8,2.2-4.8,4.8ZM550.7,40.1c-1.7,0-3.2.9-4.1,2.4l-13.4,22.5-13.6-22.6c-.9-1.5-2.4-2.3-4.1-2.3h-5v.9c0,.9.2,1.7.7,2.5l8,13.2,1.6,2.7,9.5,15.6c.4.6,1,1,1.8,1h1.8c.7,0,1.4-.4,1.8-1l11.2-18.8v19.2c0,2.6,2.2,4.8,4.9,4.8h3.9v-40.1h-5Z"/>
      </g>
      <g>
        <g>
          <rect class="cls-1" y="0" width="80.1" height="80.1"/>
          <path class="cls-4" d="M61.4,16.2v28.1c0,6.3-1.9,11.4-5.6,15.2-3.7,3.8-9,5.7-15.7,5.7s-12-1.9-15.8-5.7c-3.7-3.8-5.6-8.9-5.6-15.2v-28.1h11.5v27.9c0,3.2.8,5.8,2.5,7.7,1.7,2,4.1,3,7.3,3s5.6-1,7.3-3c1.7-2,2.5-4.5,2.5-7.7v-27.9h11.5Z"/>
          <rect class="cls-1" x="88.2" y="0" width="80.1" height="80.1"/>
          <rect class="cls-1" x="176.4" y="0" width="80.1" height="80.1"/>
          <rect class="cls-1" x="264.5" y="0" width="80.1" height="80.1"/>
          <polygon class="cls-4" points="153.8 16 153.8 64.1 142.4 64.1 142.4 36 128.3 55.3 114.2 36 114.2 64.1 102.8 64.1 102.8 16 113.6 16 128.3 37.4 142.9 16 153.8 16"/>
          <path class="cls-4" d="M221.8,53.1c1.3-1.3,2-3,2-5.1s-.7-3.7-2-5c-1.3-1.4-3.1-2-5.4-2s-4,.7-5.3,2c-1.4,1.3-2.1,3-2.1,5.1s.7,3.8,2,5.1c1.4,1.3,3.2,2,5.4,2s4-.7,5.4-2M230.4,36.3c3.2,3.1,4.8,7,4.8,11.7s-1.8,9.1-5.3,12.4-8,4.9-13.4,4.9-9.8-1.6-13.4-4.9c-3.6-3.3-5.4-7.4-5.4-12.4s1.1-6.6,3.4-10.2l13.6-21.6h12.8l-9.4,14.9c5,.4,9.1,2.1,12.2,5.2"/>
          <path class="cls-4" d="M311.8,38.4c1.3-1.4,1.9-3.1,1.9-4.9s-.6-3.5-1.8-4.9c-1.2-1.4-2.8-2.1-4.6-2.1h-11.6v14.1h11.1c2,0,3.7-.7,5-2.1M320,21.3c3.2,3.5,4.8,7.5,4.8,12s-1.6,8.6-4.8,12.1c-3.2,3.5-7.5,5.3-12.9,5.3h-11.4v13.4h-11.3V16h23.1c5.1,0,9.3,1.8,12.5,5.3"/>
        </g>
        <rect class="cls-1" x="384.9" width="1" height="80.2"/>
      </g>
      <g>
        <g>
          <path class="cls-2" d="M600.7,42c0,2.6-.8,4.6-2.3,6.1-1.5,1.5-3.4,2.3-5.8,2.3s-4.5-.9-6.1-2.6c-1.6-1.7-2.4-3.9-2.4-6.5s.8-4.7,2.4-6.4c1.6-1.7,3.6-2.6,6-2.6s3.4.5,4.8,1.5,2.3,2.2,2.8,3.8l-2.3.7c-.4-1-1.1-1.9-2-2.5s-2-.9-3.3-.9-3.1.6-4.2,1.9c-1.1,1.3-1.6,2.8-1.6,4.6s.6,3.4,1.7,4.7c1.1,1.3,2.6,1.9,4.5,1.9s2.8-.5,3.7-1.4c1-.9,1.5-2.1,1.6-3.6h-5.6s0-2.3,0-2.3h8.2v1.4Z"/>
          <path class="cls-2" d="M608.7,50.5c-1.8,0-3.3-.6-4.5-1.8-1.1-1.2-1.7-2.8-1.7-4.8s.5-3.5,1.6-4.7c1.1-1.3,2.5-1.9,4.3-1.9s3.3.6,4.3,1.8c1.1,1.2,1.6,2.7,1.6,4.6s0,.7,0,1.1h-9.4c0,1.1.4,1.9,1.1,2.6.7.6,1.6,1,2.7,1s2.7-.7,3.3-2l2.2.7c-.4,1-1.1,1.8-2.1,2.5s-2.1,1-3.5,1h0ZM612,43c0-1-.4-1.8-1-2.5-.6-.6-1.4-1-2.5-1s-1.8.3-2.5,1c-.7.7-1,1.5-1.1,2.4h7.1Z"/>
          <path class="cls-2" d="M622.2,50.5c-1.8,0-3.2-.6-4.4-1.9-1.2-1.3-1.7-2.8-1.7-4.7s.6-3.5,1.7-4.7c1.2-1.3,2.6-1.9,4.4-1.9s3.2.6,4.4,1.9c1.2,1.3,1.7,2.8,1.7,4.7s-.6,3.5-1.7,4.7c-1.2,1.3-2.6,1.9-4.4,1.9h0ZM624.9,46.9c.7-.8,1.1-1.8,1.1-3s-.4-2.2-1.1-3c-.7-.8-1.6-1.2-2.7-1.2s-2,.4-2.7,1.2c-.7.8-1.1,1.8-1.1,3s.4,2.2,1.1,3c.7.8,1.6,1.2,2.7,1.2s2-.4,2.7-1.2Z"/>
          <path class="cls-2" d="M630.8,31.9h2.4v18.2h-2.4v-18.2Z"/>
          <path class="cls-2" d="M641.8,50.5c-1.8,0-3.2-.6-4.4-1.9-1.2-1.3-1.7-2.8-1.7-4.7s.6-3.5,1.7-4.7c1.2-1.3,2.6-1.9,4.4-1.9s3.2.6,4.4,1.9c1.2,1.3,1.7,2.8,1.7,4.7s-.6,3.5-1.7,4.7c-1.2,1.3-2.6,1.9-4.4,1.9h0ZM644.6,46.9c.7-.8,1.1-1.8,1.1-3s-.4-2.2-1.1-3c-.7-.8-1.6-1.2-2.7-1.2s-2,.4-2.7,1.2c-.7.8-1.1,1.8-1.1,3s.4,2.2,1.1,3c.7.8,1.6,1.2,2.7,1.2s2-.4,2.7-1.2Z"/>
          <path class="cls-2" d="M662,37.6v12.1c0,1.8-.5,3.2-1.6,4.3-1.1,1.1-2.5,1.7-4.2,1.7-2.6,0-4.4-1.1-5.5-3.3l2.1-.8c.7,1.3,1.9,1.9,3.4,1.9,1.1,0,1.9-.4,2.5-1.1.6-.7.9-1.6.9-2.7v-1.8c-1,1.4-2.3,2.1-4.1,2.1s-3.1-.6-4.1-1.8-1.6-2.7-1.6-4.6.5-3.4,1.6-4.6c1.1-1.2,2.5-1.8,4.1-1.8s3.1.7,4.1,2.1v-1.8h2.4ZM655.9,47.7c1.1,0,2-.4,2.7-1.1s1.1-1.7,1.1-2.9-.4-2.1-1.1-2.9-1.6-1.1-2.7-1.1-2,.4-2.7,1.1c-.7.7-1.1,1.7-1.1,2.9s.4,2.1,1.1,2.9c.7.8,1.6,1.1,2.7,1.1h0Z"/>
          <path class="cls-2" d="M676.3,37.6l-7,17.8h-2.5l2.2-5.5-5.3-12.3h2.6l3.9,9.4,3.6-9.4h2.6Z"/>
          <path class="cls-2" d="M695.3,50.2l-1.6-1.9c-1.5,1.5-3.1,2.2-5,2.2-1.4,0-2.6-.5-3.5-1.4s-1.5-2.1-1.5-3.6.3-2,.8-2.9c.5-.9,1.3-1.7,2.3-2.3-.9-1.2-1.4-2.3-1.4-3.4s.4-2.6,1.3-3.4c.9-.8,2.1-1.2,3.5-1.2s2.3.4,3.1,1.1c.9.8,1.4,1.7,1.6,2.8l-2.2.7c-.2-.7-.5-1.3-.9-1.7-.4-.4-1-.6-1.6-.6s-1.3.2-1.7.7c-.4.4-.7,1-.7,1.7s.4,1.5,1.2,2.5l4.5,5.2c.5-1,.9-2,1.1-3l2.1.6c-.3,1.5-.8,2.8-1.6,4.1l3.2,3.7h-3ZM688.9,48.1c1.2,0,2.2-.5,3.2-1.5l-3.9-4.5c-1.4.9-2.1,2-2.1,3.3s.3,1.4.8,2c.5.5,1.2.8,2,.8h0Z"/>
          <path class="cls-2" d="M712.2,50.5c-1.8,0-3.3-.5-4.6-1.5s-2.2-2.3-2.6-3.8l2.4-.8c.4,1.1,1,1.9,1.9,2.6.9.7,1.9,1,3.1,1s1.9-.3,2.6-.8c.7-.5,1-1.2,1-1.9s-.2-1.1-.6-1.5c-.4-.4-1-.8-2-1.1l-4-1.4c-2.4-.8-3.6-2.2-3.6-4.3s.5-2.5,1.6-3.4c1.1-.9,2.4-1.4,4-1.4s3,.4,4.2,1.2c1.2.8,2,1.9,2.5,3.1l-2.3.8c-.4-.8-1-1.5-1.7-2-.8-.5-1.7-.7-2.7-.7s-1.6.2-2.2.7-.9,1-.9,1.6.2.9.5,1.2c.3.3.9.6,1.6.8l3.9,1.4c1.4.5,2.4,1.1,3.2,1.8.7.7,1.1,1.7,1.1,2.9s-.6,2.8-1.8,3.8-2.7,1.5-4.5,1.5h0Z"/>
          <path class="cls-2" d="M731.6,37.6v12.6h-2.4v-1.9c-.9,1.5-2.3,2.2-4,2.2-1.5,0-2.6-.5-3.4-1.5-.8-1-1.2-2.3-1.2-4.1v-7.4h2.4v6.9c0,1.1.2,2,.7,2.6.5.6,1.2.9,2.1.9s1.8-.4,2.4-1.1c.6-.8.9-1.8.9-3.1v-6.2h2.4Z"/>
          <path class="cls-2" d="M739.2,50.5c-1.3,0-2.5-.4-3.5-1.1-1-.7-1.7-1.6-2-2.7l2.2-.7c.2.7.6,1.2,1.2,1.7.6.5,1.3.7,2.1.7s1.3-.2,1.7-.5c.4-.3.7-.7.7-1.2s-.1-.7-.3-.9-.6-.4-1.1-.6l-3.1-1c-1.8-.6-2.8-1.7-2.8-3.2s.4-1.9,1.3-2.6c.9-.7,1.9-1.1,3.1-1.1s2.3.3,3.2.9c.9.6,1.5,1.4,1.9,2.3l-2.1.7c-.2-.5-.6-.9-1.1-1.3-.5-.3-1.1-.5-1.8-.5s-1.1.2-1.4.5c-.4.3-.6.7-.6,1.1s.4,1,1.2,1.2l3.1,1c1,.3,1.7.7,2.2,1.2s.8,1.2.8,2.2-.5,2.1-1.4,2.8c-.9.8-2.1,1.1-3.5,1.1h0Z"/>
          <path class="cls-2" d="M753.5,49.8c-.9.4-1.7.6-2.5.6-1.2,0-2.1-.4-2.7-1.1-.6-.8-.9-1.8-.9-3.1v-6.2h-2.1v-2.3h2.1v-4.2h2.4v4.2h3.7v2.3h-3.7v6.2c0,1.3.5,1.9,1.7,1.9s1-.1,1.5-.4l.6,2.1Z"/>
          <path class="cls-2" d="M760.3,50.5c-1.6,0-3-.6-4.1-1.9-1.1-1.3-1.6-2.8-1.6-4.7s.5-3.5,1.6-4.7c1.1-1.3,2.5-1.9,4.1-1.9s3.2.7,4.2,2.2v-1.9h2.4v12.6h-2.4v-1.9c-1,1.5-2.4,2.2-4.2,2.2h0ZM760.6,48.1c1.1,0,2-.4,2.7-1.2.7-.8,1.1-1.8,1.1-3.1s-.4-2.2-1.1-3c-.7-.8-1.6-1.2-2.7-1.2s-2,.4-2.7,1.2c-.7.8-1.1,1.8-1.1,3s.4,2.3,1.1,3.1c.7.8,1.6,1.2,2.7,1.2h0Z"/>
          <path class="cls-2" d="M770.2,35.1c-.3-.3-.4-.7-.4-1.2s.1-.8.4-1.1c.3-.3.7-.5,1.1-.5s.8.2,1.1.5c.3.3.4.7.4,1.1s-.1.9-.4,1.2c-.3.3-.7.5-1.1.5s-.8-.2-1.1-.5ZM770,37.6h2.4v12.6h-2.4v-12.6Z"/>
          <path class="cls-2" d="M782.1,37.2c1.5,0,2.6.5,3.4,1.5.8,1,1.2,2.3,1.2,4.1v7.4h-2.4v-6.9c0-1.1-.2-2-.7-2.6s-1.2-.9-2.1-.9-1.8.4-2.4,1.1c-.6.8-.9,1.8-.9,3.1v6.2h-2.4v-12.6h2.4v1.9c1-1.5,2.3-2.2,4-2.2h0Z"/>
          <path class="cls-2" d="M794.8,50.5c-1.6,0-3-.6-4.1-1.9-1.1-1.3-1.6-2.8-1.6-4.7s.5-3.5,1.6-4.7c1.1-1.3,2.5-1.9,4.1-1.9s3.2.7,4.2,2.2v-1.9h2.4v12.6h-2.4v-1.9c-1,1.5-2.4,2.2-4.2,2.2h0ZM795.2,48.1c1.1,0,2-.4,2.7-1.2s1.1-1.8,1.1-3.1-.4-2.2-1.1-3-1.6-1.2-2.7-1.2-2,.4-2.7,1.2c-.7.8-1.1,1.8-1.1,3s.4,2.3,1.1,3.1c.7.8,1.6,1.2,2.7,1.2h0Z"/>
          <path class="cls-2" d="M811.1,37.3c1.6,0,3,.6,4.1,1.9,1.1,1.3,1.6,2.8,1.6,4.7s-.5,3.5-1.6,4.7c-1.1,1.3-2.5,1.9-4.1,1.9s-3.2-.7-4.1-2.2v1.9h-2.4v-18.2h2.4v7.6c1-1.5,2.3-2.2,4.1-2.2h0ZM810.7,48.1c1.1,0,2-.4,2.7-1.2.7-.8,1.1-1.8,1.1-3.1s-.3-2.2-1.1-3c-.7-.8-1.6-1.2-2.7-1.2s-2,.4-2.7,1.2c-.7.8-1.1,1.8-1.1,3s.4,2.3,1.1,3.1c.7.8,1.6,1.2,2.7,1.2h0Z"/>
          <path class="cls-2" d="M819.3,31.9h2.4v18.2h-2.4v-18.2Z"/>
          <path class="cls-2" d="M830.4,50.5c-1.8,0-3.3-.6-4.5-1.8-1.1-1.2-1.7-2.8-1.7-4.8s.5-3.5,1.6-4.7c1.1-1.3,2.5-1.9,4.3-1.9s3.3.6,4.3,1.8c1.1,1.2,1.6,2.7,1.6,4.6s0,.7,0,1.1h-9.4c0,1.1.4,1.9,1.1,2.6.7.6,1.6,1,2.7,1s2.7-.7,3.3-2l2.2.7c-.4,1-1.1,1.8-2.1,2.5s-2.1,1-3.5,1h0ZM833.7,43c0-1-.4-1.8-1-2.5-.6-.6-1.4-1-2.5-1s-1.8.3-2.5,1c-.7.7-1,1.5-1.1,2.4h7.1Z"/>
        </g>
        <g>
          <path class="cls-2" d="M600.2,62.7v17.5h-2.5v-12.8l-5.5,8.4-5.5-8.4v12.8h-2.5v-17.5h2.4l5.6,8.8,5.6-8.8h2.4Z"/>
          <path class="cls-2" d="M603.5,65.1c-.3-.3-.4-.7-.4-1.2s.1-.8.4-1.1c.3-.3.7-.5,1.1-.5s.8.2,1.1.5c.3.3.4.7.4,1.1s-.1.9-.4,1.2c-.3.3-.7.5-1.1.5s-.8-.2-1.1-.5ZM603.4,67.6h2.4v12.6h-2.4v-12.6Z"/>
          <path class="cls-2" d="M615.4,67.2c1.5,0,2.6.5,3.4,1.5.8,1,1.2,2.3,1.2,4.1v7.4h-2.4v-6.9c0-1.1-.2-2-.7-2.6s-1.2-.9-2.1-.9-1.8.4-2.4,1.1c-.6.8-.9,1.8-.9,3.1v6.2h-2.4v-12.6h2.4v1.9c1-1.5,2.3-2.2,4-2.2h0Z"/>
          <path class="cls-2" d="M623.3,65.1c-.3-.3-.4-.7-.4-1.2s.1-.8.4-1.1c.3-.3.7-.5,1.1-.5s.8.2,1.1.5c.3.3.4.7.4,1.1s-.1.9-.4,1.2c-.3.3-.7.5-1.1.5s-.8-.2-1.1-.5ZM623.2,67.6h2.4v12.6h-2.4v-12.6Z"/>
          <path class="cls-2" d="M635.2,67.2c1.5,0,2.6.5,3.4,1.5.8,1,1.2,2.3,1.2,4.1v7.4h-2.4v-6.9c0-1.1-.2-2-.7-2.6s-1.2-.9-2.1-.9-1.8.4-2.4,1.1c-.6.8-.9,1.8-.9,3.1v6.2h-2.4v-12.6h2.4v1.9c1-1.5,2.3-2.2,4-2.2h0Z"/>
          <path class="cls-2" d="M654.4,67.6v12.1c0,1.8-.5,3.2-1.6,4.3-1.1,1.1-2.5,1.7-4.2,1.7-2.6,0-4.4-1.1-5.5-3.3l2.1-.8c.7,1.3,1.9,1.9,3.4,1.9,1.1,0,1.9-.4,2.5-1.1.6-.7.9-1.6.9-2.7v-1.8c-1,1.4-2.3,2.1-4.1,2.1s-3.1-.6-4.1-1.8-1.6-2.7-1.6-4.6.5-3.4,1.6-4.6c1.1-1.2,2.5-1.8,4.1-1.8s3.1.7,4.1,2.1v-1.8h2.4ZM648.3,77.7c1.1,0,2-.4,2.7-1.1s1.1-1.7,1.1-2.9-.4-2.1-1.1-2.9-1.6-1.1-2.7-1.1-2,.4-2.7,1.1c-.7.7-1.1,1.7-1.1,2.9s.4,2.1,1.1,2.9c.7.8,1.6,1.1,2.7,1.1h0Z"/>
          <path class="cls-2" d="M663.4,62.7h2.5v17.5h-2.5v-17.5Z"/>
          <path class="cls-2" d="M675.6,67.2c1.5,0,2.6.5,3.4,1.5.8,1,1.2,2.3,1.2,4.1v7.4h-2.4v-6.9c0-1.1-.2-2-.7-2.6s-1.2-.9-2.1-.9-1.8.4-2.4,1.1c-.6.8-.9,1.8-.9,3.1v6.2h-2.4v-12.6h2.4v1.9c1-1.5,2.3-2.2,4-2.2h0Z"/>
          <path class="cls-2" d="M687.6,80.5c-1.3,0-2.5-.4-3.5-1.1-1-.7-1.7-1.6-2-2.7l2.2-.7c.2.7.6,1.2,1.2,1.7.6.5,1.3.7,2.1.7s1.3-.2,1.7-.5c.4-.3.7-.7.7-1.2s-.1-.7-.3-.9-.6-.4-1.1-.6l-3.1-1c-1.8-.6-2.8-1.7-2.8-3.2s.4-1.9,1.3-2.6c.9-.7,1.9-1.1,3.1-1.1s2.3.3,3.2.9c.9.6,1.5,1.4,1.9,2.3l-2.1.7c-.2-.5-.6-.9-1.1-1.3-.5-.3-1.1-.5-1.8-.5s-1.1.2-1.4.5c-.4.3-.6.7-.6,1.1s.4,1,1.2,1.2l3.1,1c1,.3,1.7.7,2.2,1.2s.8,1.2.8,2.2-.5,2.1-1.4,2.8c-.9.8-2.1,1.1-3.5,1.1h0Z"/>
          <path class="cls-2" d="M701.9,79.8c-.9.4-1.7.6-2.5.6-1.2,0-2.1-.4-2.7-1.1-.6-.8-.9-1.8-.9-3.1v-6.2h-2.1v-2.3h2.1v-4.2h2.4v4.2h3.7v2.3h-3.7v6.2c0,1.3.5,1.9,1.7,1.9s1-.1,1.5-.4l.6,2.1Z"/>
          <path class="cls-2" d="M704.5,65.1c-.3-.3-.4-.7-.4-1.2s.1-.8.4-1.1c.3-.3.7-.5,1.1-.5s.8.2,1.1.5c.3.3.4.7.4,1.1s-.1.9-.4,1.2c-.3.3-.7.5-1.1.5s-.8-.2-1.1-.5ZM704.3,67.6h2.4v12.6h-2.4v-12.6Z"/>
          <path class="cls-2" d="M717,79.8c-.9.4-1.7.6-2.5.6-1.2,0-2.1-.4-2.7-1.1-.6-.8-.9-1.8-.9-3.1v-6.2h-2.1v-2.3h2.1v-4.2h2.4v4.2h3.7v2.3h-3.7v6.2c0,1.3.5,1.9,1.7,1.9s1-.1,1.5-.4l.6,2.1Z"/>
          <path class="cls-2" d="M730.2,67.6v12.6h-2.4v-1.9c-.9,1.5-2.3,2.2-4,2.2-1.5,0-2.6-.5-3.4-1.5-.8-1-1.2-2.3-1.2-4.1v-7.4h2.4v6.9c0,1.1.2,2,.7,2.6.5.6,1.2.9,2.1.9s1.8-.4,2.4-1.1c.6-.8.9-1.8.9-3.1v-6.2h2.4Z"/>
          <path class="cls-2" d="M740.4,79.8c-.9.4-1.7.6-2.5.6-1.2,0-2.1-.4-2.7-1.1-.6-.8-.9-1.8-.9-3.1v-6.2h-2.1v-2.3h2.1v-4.2h2.4v4.2h3.7v2.3h-3.7v6.2c0,1.3.5,1.9,1.7,1.9s1-.1,1.5-.4l.6,2.1Z"/>
          <path class="cls-2" d="M747.6,80.5c-1.8,0-3.3-.6-4.5-1.8-1.1-1.2-1.7-2.8-1.7-4.8s.5-3.5,1.6-4.7c1.1-1.3,2.5-1.9,4.3-1.9s3.3.6,4.3,1.8c1.1,1.2,1.6,2.7,1.6,4.6s0,.7,0,1.1h-9.4c0,1.1.4,1.9,1.1,2.6.7.6,1.6,1,2.7,1s2.7-.7,3.3-2l2.2.7c-.4,1-1.1,1.8-2.1,2.5s-2.1,1-3.5,1h0ZM750.9,73c0-1-.4-1.8-1-2.5-.6-.6-1.4-1-2.5-1s-1.8.3-2.5,1c-.7.7-1,1.5-1.1,2.4h7.1Z"/>
        </g>
      </g>
    </g>
  </g>
</svg>