<?xml version="1.0" encoding="UTF-8"?>
<svg id="Layer_2" data-name="Layer 2" xmlns="http://www.w3.org/2000/svg" viewBox="0 0 743.9 80.2">
  <defs>
    <style>
      .cls-1 {
        fill: #d1451e;
      }

      .cls-1, .cls-2, .cls-3, .cls-4 {
        stroke-width: 0px;
      }

      .cls-2 {
        fill: #d74a2a;
      }

      .cls-3 {
        fill: #3b3b3c;
      }

      .cls-4 {
        fill: #fff;
      }
    </style>
  </defs>
  <g id="Layer_1-2" data-name="Layer 1">
    <g>
      <g>
        <g>
          <rect class="cls-2" y="0" width="80.1" height="80.1"/>
          <path class="cls-4" d="M61.4,16.2v28.1c0,6.3-1.9,11.4-5.6,15.2-3.7,3.8-9,5.7-15.7,5.7s-12-1.9-15.8-5.7c-3.7-3.8-5.6-8.9-5.6-15.2v-28.1h11.5v27.9c0,3.2.8,5.8,2.5,7.7,1.7,2,4.1,3,7.3,3s5.6-1,7.3-3c1.7-2,2.5-4.5,2.5-7.7v-27.9h11.5Z"/>
          <rect class="cls-2" x="88.2" y="0" width="80.1" height="80.1"/>
          <rect class="cls-2" x="176.4" y="0" width="80.1" height="80.1"/>
          <rect class="cls-2" x="264.5" y="0" width="80.1" height="80.1"/>
          <polygon class="cls-4" points="153.8 16 153.8 64.1 142.4 64.1 142.4 36 128.3 55.3 114.2 36 114.2 64.1 102.8 64.1 102.8 16 113.6 16 128.3 37.4 142.9 16 153.8 16"/>
          <path class="cls-4" d="M221.8,53.1c1.3-1.3,2-3,2-5.1s-.7-3.7-2-5c-1.3-1.4-3.1-2-5.4-2s-4,.7-5.3,2c-1.4,1.3-2.1,3-2.1,5.1s.7,3.8,2,5.1c1.4,1.3,3.2,2,5.4,2s4-.7,5.4-2M230.4,36.3c3.2,3.1,4.8,7,4.8,11.7s-1.8,9.1-5.3,12.4c-3.6,3.3-8,4.9-13.4,4.9s-9.8-1.6-13.4-4.9c-3.6-3.3-5.4-7.4-5.4-12.4s1.1-6.6,3.4-10.2l13.6-21.6h12.8l-9.4,14.9c5,.4,9.1,2.1,12.2,5.2"/>
          <path class="cls-4" d="M311.8,38.4c1.3-1.4,1.9-3.1,1.9-4.9s-.6-3.5-1.8-4.9c-1.2-1.4-2.8-2.1-4.6-2.1h-11.6v14.1h11.1c2,0,3.7-.7,5-2.1M320,21.3c3.2,3.5,4.8,7.5,4.8,12s-1.6,8.6-4.8,12.1c-3.2,3.5-7.5,5.3-12.9,5.3h-11.4v13.4h-11.3V16h23.1c5.1,0,9.3,1.8,12.5,5.3"/>
        </g>
        <rect class="cls-1" x="384.9" width="1" height="80.2"/>
      </g>
      <g>
        <path class="cls-3" d="M535.8,14.5h3.8v19.6h-3.8V14.5Z"/>
        <path class="cls-3" d="M551.1,19.6c1.8,0,3.1.6,4,1.7s1.4,2.7,1.4,4.6v8.3h-3.6v-7.6c0-1.1-.3-2-.7-2.6-.5-.6-1.2-.9-2.2-.9s-1.8.4-2.4,1.1-.9,1.8-.9,3v7h-3.6v-14.2h3.6v1.8c1.1-1.5,2.6-2.2,4.4-2.2h0Z"/>
        <path class="cls-3" d="M565.4,34.5c-1.6,0-3.1-.4-4.3-1.3-1.2-.9-2-1.9-2.4-3.1l3.2-1c.2.7.7,1.3,1.3,1.7.6.4,1.4.7,2.3.7s1.2-.1,1.7-.4c.4-.3.6-.6.6-1,0-.6-.5-1.1-1.5-1.4l-3.5-1.1c-2.3-.7-3.4-1.9-3.4-3.8s.5-2.2,1.6-3,2.4-1.2,3.9-1.2,2.7.3,3.8,1c1.1.7,1.9,1.5,2.3,2.6l-3.2,1c-.6-1.1-1.6-1.7-2.9-1.7s-1,.1-1.4.4c-.4.3-.6.6-.6.9,0,.5.4.9,1.1,1.1l3.4,1c1.2.4,2.2.8,2.9,1.4s1,1.4,1,2.6-.6,2.4-1.7,3.3-2.5,1.3-4.3,1.3h0Z"/>
        <path class="cls-3" d="M582.6,33.7c-1.1.5-2.2.7-3.2.7-1.5,0-2.7-.5-3.5-1.3s-1.2-2.1-1.2-3.7v-6.1h-2.3v-3.2h2.3v-4.6h3.6v4.6h4v3.2h-4v6.1c0,1.2.6,1.8,1.7,1.8s1.1-.1,1.6-.4l.9,3Z"/>
        <path class="cls-3" d="M586.9,18c-.6,0-1.1-.2-1.5-.6s-.6-.9-.6-1.6.2-1.1.6-1.5.9-.6,1.5-.6,1.1.2,1.5.6.6.9.6,1.5-.2,1.1-.6,1.5-.9.6-1.5.6h0ZM585.1,20h3.6v14.2h-3.6v-14.2Z"/>
        <path class="cls-3" d="M601.1,33.7c-1.1.5-2.2.7-3.2.7-1.5,0-2.7-.5-3.5-1.3s-1.2-2.1-1.2-3.7v-6.1h-2.3v-3.2h2.3v-4.6h3.6v4.6h4v3.2h-4v6.1c0,1.2.6,1.8,1.7,1.8s1.1-.1,1.6-.4l.9,3Z"/>
        <path class="cls-3" d="M616.8,20v14.2h-3.6v-1.8c-1.1,1.5-2.6,2.2-4.4,2.2s-3.1-.6-4.1-1.7-1.4-2.7-1.4-4.6v-8.3h3.6v7.6c0,1.1.3,2,.8,2.6s1.2.9,2.2.9,1.8-.4,2.4-1.1.9-1.8.9-3v-7h3.6Z"/>
        <path class="cls-3" d="M629.1,33.7c-1.1.5-2.2.7-3.2.7-1.5,0-2.7-.5-3.5-1.3s-1.2-2.1-1.2-3.7v-6.1h-2.3v-3.2h2.3v-4.6h3.6v4.6h4v3.2h-4v6.1c0,1.2.6,1.8,1.7,1.8s1.1-.1,1.6-.4l.9,3Z"/>
        <path class="cls-3" d="M637.5,34.5c-2.2,0-4-.7-5.4-2.1-1.4-1.4-2.1-3.2-2.1-5.4s.7-3.9,2-5.4,3.1-2.1,5.2-2.1,3.9.7,5.2,2.1c1.3,1.4,1.9,3.1,1.9,5.2s0,1,0,1.3h-10.7c.1,1,.5,1.8,1.2,2.3.7.6,1.6.9,2.8.9s2.7-.6,3.4-1.9l3.2,1c-.5,1.1-1.3,2-2.4,2.8-1.2.8-2.6,1.2-4.2,1.2h0ZM640.9,25.9c0-.9-.5-1.6-1.1-2.2-.7-.6-1.5-.9-2.5-.9s-1.8.3-2.5.9-1.1,1.4-1.2,2.2h7.3Z"/>
        <path class="cls-3" d="M660.4,34.5c-2.1,0-3.9-.7-5.3-2.1s-2.1-3.2-2.1-5.3.7-3.9,2.1-5.3c1.4-1.4,3.2-2.1,5.3-2.1s3.9.7,5.3,2.1,2.1,3.2,2.1,5.3-.7,3.9-2.1,5.3-3.2,2.1-5.3,2.1h0ZM663.2,30c.7-.8,1.1-1.8,1.1-3s-.4-2.2-1.1-3c-.7-.8-1.7-1.2-2.8-1.2s-2.1.4-2.8,1.2c-.7.8-1.1,1.8-1.1,3s.4,2.2,1.1,3c.7.8,1.7,1.2,2.8,1.2s2.1-.4,2.8-1.2Z"/>
        <path class="cls-3" d="M675.1,20h4.2v3.2h-4.2v10.9h-3.6v-10.9h-2.7v-3.2h2.7v-1.3c0-1.7.4-3,1.2-4s2-1.4,3.6-1.4,2.3.2,3.1.6l-.9,3c-.5-.2-1.1-.4-1.7-.4-.6,0-1,.2-1.3.6s-.5.9-.5,1.6v1.3Z"/>
        <path class="cls-3" d="M548.2,59.9h-8.6l-1.6,4.3h-3.9l7.3-19.6h4.9l7.3,19.6h-3.9l-1.6-4.3ZM546.9,56.5l-3.1-8.3-3,8.3h6.1Z"/>
        <path class="cls-3" d="M563.5,49.6c1.9,0,3.5.7,4.8,2.1,1.3,1.4,2,3.2,2,5.3s-.7,3.9-2,5.3c-1.3,1.4-2.9,2.1-4.8,2.1s-3.4-.7-4.5-2.1v7.6h-3.6v-20h3.6v1.7c1.1-1.4,2.6-2.1,4.5-2.1h0ZM562.9,61.2c1.1,0,2.1-.4,2.8-1.2.7-.8,1.1-1.8,1.1-3s-.4-2.2-1.1-3c-.7-.8-1.7-1.2-2.8-1.2s-2,.4-2.8,1.2c-.8.8-1.1,1.8-1.1,3s.4,2.2,1.1,3c.8.8,1.7,1.2,2.8,1.2h0Z"/>
        <path class="cls-3" d="M581.1,49.6c1.9,0,3.5.7,4.8,2.1,1.3,1.4,2,3.2,2,5.3s-.7,3.9-2,5.3c-1.3,1.4-2.9,2.1-4.8,2.1s-3.4-.7-4.5-2.1v7.6h-3.6v-20h3.6v1.7c1.1-1.4,2.6-2.1,4.5-2.1h0ZM580.5,61.2c1.1,0,2.1-.4,2.8-1.2.7-.8,1.1-1.8,1.1-3s-.4-2.2-1.1-3c-.7-.8-1.7-1.2-2.8-1.2s-2,.4-2.8,1.2c-.8.8-1.1,1.8-1.1,3s.4,2.2,1.1,3c.8.8,1.7,1.2,2.8,1.2h0Z"/>
        <path class="cls-3" d="M590.7,43.7h3.6v20.4h-3.6v-20.4Z"/>
        <path class="cls-3" d="M599.6,48c-.6,0-1.1-.2-1.5-.6s-.6-.9-.6-1.6.2-1.1.6-1.5.9-.6,1.5-.6,1.1.2,1.5.6.6.9.6,1.5-.2,1.1-.6,1.5-.9.6-1.5.6h0ZM597.8,50h3.6v14.2h-3.6v-14.2Z"/>
        <path class="cls-3" d="M611.6,64.5c-2.2,0-4-.7-5.4-2.1-1.4-1.4-2.1-3.2-2.1-5.4s.7-3.9,2-5.4,3.1-2.1,5.2-2.1,3.9.7,5.2,2.1c1.3,1.4,1.9,3.1,1.9,5.2s0,1,0,1.3h-10.7c.1,1,.5,1.8,1.2,2.3.7.6,1.6.9,2.8.9s2.7-.6,3.4-1.9l3.2,1c-.5,1.1-1.3,2-2.4,2.8s-2.6,1.2-4.2,1.2h0ZM615,55.9c0-.9-.5-1.6-1.1-2.2-.7-.6-1.5-.9-2.5-.9s-1.8.3-2.5.9-1.1,1.4-1.2,2.2h7.3Z"/>
        <path class="cls-3" d="M635.3,43.7v20.4h-3.6v-1.7c-1.1,1.4-2.6,2.1-4.4,2.1s-3.5-.7-4.8-2.1-2-3.2-2-5.3.7-3.9,2-5.4,2.9-2.1,4.9-2.1,3.4.7,4.4,2.1v-8h3.6ZM627.8,61.2c1.1,0,2-.4,2.8-1.2.8-.8,1.1-1.8,1.1-3s-.4-2.2-1.1-3c-.8-.8-1.7-1.2-2.8-1.2s-2.1.4-2.8,1.2-1.1,1.8-1.1,3,.4,2.2,1.1,3,1.7,1.2,2.8,1.2h0Z"/>
        <path class="cls-3" d="M654.4,44.5c2,0,3.6.7,4.8,2.1s1.8,3,1.8,4.7-.6,3.4-1.8,4.7-2.9,2.1-4.9,2.1h-5.1v6h-3.7v-19.6h9,0ZM654.1,54.7c1,0,1.8-.3,2.4-1,.6-.7.9-1.4.9-2.3s-.3-1.7-.9-2.3c-.6-.7-1.3-1-2.2-1h-5.1v6.7h5,0Z"/>
        <path class="cls-3" d="M671.5,49.6c1.8,0,3.1.6,4,1.7s1.4,2.7,1.4,4.6v8.3h-3.6v-7.6c0-1.1-.3-2-.7-2.6-.5-.6-1.2-.9-2.2-.9s-1.8.4-2.4,1.1-.9,1.8-.9,3v7h-3.6v-20.4h3.6v8.1c1.1-1.5,2.6-2.2,4.4-2.2h0Z"/>
        <path class="cls-3" d="M693.7,50l-8.3,20h-3.7l2.5-6.2-6.2-13.8h4l4.1,9.6,3.8-9.6h3.8Z"/>
        <path class="cls-3" d="M700.5,64.5c-1.6,0-3.1-.4-4.3-1.3-1.2-.9-2-1.9-2.4-3.1l3.2-1c.2.7.7,1.3,1.3,1.7.6.4,1.4.7,2.3.7s1.2-.1,1.7-.4c.4-.3.6-.6.6-1,0-.6-.5-1.1-1.5-1.4l-3.5-1.1c-2.3-.7-3.4-1.9-3.4-3.8s.5-2.2,1.6-3,2.4-1.2,3.9-1.2,2.7.3,3.8,1c1.1.7,1.9,1.5,2.3,2.6l-3.2,1c-.6-1.1-1.6-1.7-2.9-1.7s-1,.1-1.4.4c-.4.3-.6.6-.6.9,0,.5.4.9,1.1,1.1l3.4,1c1.2.4,2.2.8,2.9,1.4s1,1.4,1,2.6-.6,2.4-1.7,3.3-2.5,1.3-4.3,1.3h0Z"/>
        <path class="cls-3" d="M711,48c-.6,0-1.1-.2-1.5-.6s-.6-.9-.6-1.6.2-1.1.6-1.5.9-.6,1.5-.6,1.1.2,1.5.6.6.9.6,1.5-.2,1.1-.6,1.5-.9.6-1.5.6h0ZM709.2,50h3.6v14.2h-3.6v-14.2Z"/>
        <path class="cls-3" d="M722.9,64.6c-2.1,0-3.9-.7-5.2-2.2-1.4-1.4-2.1-3.2-2.1-5.4s.7-3.9,2.1-5.3c1.4-1.4,3.1-2.1,5.2-2.1s3.3.5,4.5,1.4c1.2,1,2,2,2.3,3.2l-3.4,1c-.2-.6-.5-1.2-1.2-1.7-.6-.5-1.3-.7-2.2-.7s-2,.4-2.7,1.2c-.7.8-1,1.8-1,3s.3,2.1,1.1,3,1.6,1.2,2.7,1.2,1.6-.2,2.2-.7,1-1,1.2-1.6l3.4,1c-.3,1.2-1.1,2.3-2.3,3.2-1.2.9-2.7,1.4-4.4,1.4h0Z"/>
        <path class="cls-3" d="M737.9,64.5c-1.6,0-3.1-.4-4.3-1.3-1.2-.9-2-1.9-2.4-3.1l3.2-1c.2.7.7,1.3,1.3,1.7.6.4,1.4.7,2.3.7s1.2-.1,1.7-.4c.4-.3.6-.6.6-1,0-.6-.5-1.1-1.5-1.4l-3.5-1.1c-2.3-.7-3.4-1.9-3.4-3.8s.5-2.2,1.6-3,2.4-1.2,3.9-1.2,2.7.3,3.8,1c1.1.7,1.9,1.5,2.3,2.6l-3.2,1c-.6-1.1-1.6-1.7-2.9-1.7s-1,.1-1.4.4c-.4.3-.6.6-.6.9,0,.5.4.9,1.1,1.1l3.4,1c1.2.4,2.2.8,2.9,1.4s1,1.4,1,2.6-.6,2.4-1.7,3.3-2.5,1.3-4.3,1.3h0Z"/>
      </g>
      <g>
        <path class="cls-3" d="M426.3,16h9.3v48h-9.3V16Z"/>
        <path class="cls-3" d="M471.5,53.6h-21l-3.9,10.4h-9.5l15.9-42.5c1.2-3.3,4.4-5.5,7.9-5.5h6l18,48h-9.6l-3.8-10.4ZM468.5,45.3l-7.5-20.3-7.5,20.3h15Z"/>
        <path class="cls-3" d="M508.2,16.1c4.9,0,8.8,1.7,11.8,5.1,3,3.4,4.5,7.3,4.5,11.5s-1.5,8.3-4.5,11.6c-3,3.3-7,5-12.1,5h-12.4v14.6h-9.1V16h21.9,0ZM507.5,41c2.4,0,4.3-.8,5.8-2.5s2.2-3.5,2.2-5.7-.7-4.1-2.2-5.7c-1.4-1.6-3.2-2.5-5.4-2.5h-12.6v16.5h12.1,0Z"/>
      </g>
    </g>
  </g>
</svg>