<?xml version="1.0" encoding="UTF-8"?>
<svg id="Layer_2" data-name="Layer 2" xmlns="http://www.w3.org/2000/svg" xmlns:xlink="http://www.w3.org/1999/xlink" viewBox="0 0 659.7 88.4">
  <defs>
    <style>
      .cls-1 {
        fill: #d1451e;
      }

      .cls-1, .cls-2, .cls-3, .cls-4, .cls-5, .cls-6, .cls-7, .cls-8, .cls-9 {
        stroke-width: 0px;
      }

      .cls-2 {
        fill: #009f7f;
      }

      .cls-3 {
        fill: url(#linear-gradient);
      }

      .cls-4 {
        fill: #1d1d1b;
      }

      .cls-5 {
        fill: #d74a2a;
      }

      .cls-6 {
        fill: url(#linear-gradient-4);
      }

      .cls-7 {
        fill: url(#linear-gradient-2);
      }

      .cls-8 {
        fill: url(#linear-gradient-3);
      }

      .cls-9 {
        fill: #fff;
      }
    </style>
    <linearGradient id="linear-gradient" x1="469" y1="39.6" x2="438.7" y2="68.4" gradientUnits="userSpaceOnUse">
      <stop offset="0" stop-color="#5ebfdc"/>
      <stop offset=".1" stop-color="#59bdd7"/>
      <stop offset=".3" stop-color="#4db9cb"/>
      <stop offset=".4" stop-color="#38b2b7"/>
      <stop offset=".6" stop-color="#1ba89a"/>
      <stop offset=".7" stop-color="#009f7f"/>
    </linearGradient>
    <linearGradient id="linear-gradient-2" x1="484.1" y1="59.1" x2="443.8" y2="30.5" gradientUnits="userSpaceOnUse">
      <stop offset="0" stop-color="#5ebfdc"/>
      <stop offset=".3" stop-color="#3eb4bc"/>
      <stop offset=".8" stop-color="#009f7f"/>
    </linearGradient>
    <linearGradient id="linear-gradient-3" x1="-3463.9" y1="708.3" x2="-3494.2" y2="737" gradientTransform="translate(-3035.4 757.1) rotate(-180)" gradientUnits="userSpaceOnUse">
      <stop offset=".3" stop-color="#009f7f"/>
      <stop offset=".4" stop-color="#1ca89b"/>
      <stop offset=".4" stop-color="#34b0b3"/>
      <stop offset=".5" stop-color="#47b7c5"/>
      <stop offset=".6" stop-color="#54bbd2"/>
      <stop offset=".7" stop-color="#5bbed9"/>
      <stop offset="1" stop-color="#5ebfdc"/>
    </linearGradient>
    <linearGradient id="linear-gradient-4" x1="-3448.9" y1="727.7" x2="-3489.2" y2="699.1" gradientTransform="translate(-3035.4 757.1) rotate(-180)" gradientUnits="userSpaceOnUse">
      <stop offset=".3" stop-color="#009f7f"/>
      <stop offset=".3" stop-color="#03a082"/>
      <stop offset=".4" stop-color="#24aba2"/>
      <stop offset=".6" stop-color="#3db3bb"/>
      <stop offset=".7" stop-color="#4fbacd"/>
      <stop offset=".8" stop-color="#5abdd8"/>
      <stop offset="1" stop-color="#5ebfdc"/>
    </linearGradient>
  </defs>
  <g id="Layer_1-2" data-name="Layer 1">
    <g>
      <g>
        <g>
          <path class="cls-3" d="M483.8,56.1c0,1.1-.2,2.3-.6,3.4-.6,1.4-1.5,2.5-2.6,3.4,0,0-.1.1-.2.2-.1,0-.2.2-.3.2,0,0-.1,0-.2.1-2.2,1.5-5.1,2.5-7.4,3.5-4.4,2-8,5.5-10,10-2.3,5.1-4.1,11.5-10.9,11.5s-8.8-4-8.8-8.8,2.3-6.9,5.5-8.2c2-.8,4-1.8,6-2.7,5.1-2.3,9.5-6.7,9.5-12.6,0-11.8-15.3-11.5-19.8-18.9,0,0,0-.1,0-.2,0,0,0-.1-.1-.2-.6-1.2-1-2.6-1-4.2h0c0-.8.1-1.6.3-2.3,1.2-4.1,5.6-7,10-6.4,5,.7,6.6,5.4,8.3,9.4.8,1.8,1.8,3.5,3,5.1,1.3,1.7,2.8,3.3,4.6,4.6,2.9,2.2,6.6,3.2,9.7,5.1.7.4,1.3.8,1.9,1.3,2.1,1.6,3.2,4.2,3.3,6.8Z"/>
          <path class="cls-7" d="M483.8,56.1c0,2.7-1.2,5.2-3.2,6.8,0,0-.1.1-.2.2-.1,0-.2.2-.3.2,0,0-.1,0-.2.1-1.4.9-3.1,1.5-4.9,1.5-6.8,0-8.6-6.4-10.9-11.5-2-4.4-5.5-8-10-10-3.5-1.6-8-2.9-10.2-6.3,0,0,0-.1,0-.2,0,0,0-.1-.1-.2-.2-.3-.3-.6-.4-.9-.4-1.1-.6-2.2-.6-3.4h0c0-.8.1-1.5.3-2.3,1.2-4.1,5.6-7,10-6.4,5,.7,6.6,5.4,8.3,9.4.8,1.8,1.8,3.5,3,5.1,1.7,3,4.7,5.4,7.9,6.8,2,.9,4,1.9,6,2.7.1,0,.2,0,.3.2,3,1.4,5.2,4.5,5.2,8Z"/>
          <g>
            <path class="cls-8" d="M413.7,32.4c0-1.1.2-2.3.6-3.4.6-1.4,1.5-2.5,2.6-3.4,0,0,.1-.1.2-.2.1,0,.2-.2.3-.2,0,0,.1,0,.2-.1,2.2-1.5,5.1-2.5,7.4-3.5,4.4-2,8-5.5,10-10,2.3-5.1,4.1-11.5,10.9-11.5s8.8,4,8.8,8.8-2.3,6.9-5.5,8.2c-2,.8-4,1.8-6,2.7-5.1,2.3-9.5,6.7-9.5,12.6,0,11.8,15.3,11.5,19.8,18.9,0,0,0,.1,0,.2,0,0,0,.1.1.2.6,1.2,1,2.6,1,4.2h0c0,.8-.1,1.6-.3,2.3-1.2,4.1-5.6,7-10,6.4-5-.7-6.6-5.4-8.3-9.4-.8-1.8-1.8-3.5-3-5.1-1.3-1.7-2.8-3.3-4.6-4.6-2.9-2.2-6.6-3.2-9.7-5.1-.7-.4-1.3-.8-1.9-1.3-2.1-1.6-3.2-4.2-3.3-6.8Z"/>
            <path class="cls-6" d="M413.7,32.4c0-2.7,1.2-5.2,3.2-6.8,0,0,.1-.1.2-.2.1,0,.2-.2.3-.2,0,0,.1,0,.2-.1,1.4-.9,3.1-1.5,4.9-1.5,6.8,0,8.6,6.4,10.9,11.5,2,4.4,5.5,8,10,10,3.5,1.6,8,2.9,10.2,6.3,0,0,0,.1,0,.2,0,0,0,.1.1.2.2.3.3.6.4.9.4,1.1.6,2.2.6,3.4h0c0,.8-.1,1.5-.3,2.3-1.2,4.1-5.6,7-10,6.4-5-.7-6.6-5.4-8.3-9.4-.8-1.8-1.8-3.5-3-5.1-1.7-3-4.7-5.4-7.9-6.8-2-.9-4-1.9-6-2.7-.1,0-.2,0-.3-.2-3-1.4-5.2-4.5-5.2-8Z"/>
          </g>
        </g>
        <g>
          <g>
            <path class="cls-4" d="M489,61.8c0-.2.1-.3.3-.3h3.5c1.8,0,3.2,1.2,3.2,2.8s-1,2.1-1.7,2.4c.8.3,2,1.1,2,2.5s-1.5,3-3.3,3h-3.7c-.2,0-.3-.1-.3-.3v-10.1ZM492.6,66c.8,0,1.3-.6,1.3-1.4s-.5-1.3-1.3-1.3h-1.6v2.7h1.6ZM492.9,70.4c.8,0,1.4-.6,1.4-1.4s-.8-1.3-1.6-1.3h-1.7v2.7h1.8Z"/>
            <path class="cls-4" d="M498,61.8c0-.2.1-.3.3-.3h1.4c.2,0,.3.1.3.3v10.1c0,.2-.1.3-.3.3h-1.4c-.2,0-.3-.1-.3-.3v-10.1Z"/>
            <path class="cls-4" d="M507.1,61.3c3.1,0,5.5,2.5,5.5,5.5s-2.4,5.5-5.5,5.5-5.5-2.4-5.5-5.5,2.4-5.5,5.5-5.5ZM507.1,70.4c1.9,0,3.5-1.6,3.5-3.5s-1.6-3.5-3.5-3.5-3.5,1.6-3.5,3.5,1.6,3.5,3.5,3.5Z"/>
            <path class="cls-4" d="M519,61.3c1.5,0,2.7.5,3.7,1.4.1.1.1.3,0,.4l-.9,1c-.1.1-.3.1-.4,0-.6-.6-1.5-.9-2.4-.9-2,0-3.4,1.6-3.4,3.6s1.5,3.5,3.4,3.5,1.7-.4,2.3-.9c.1-.1.3,0,.4,0l.9,1c.1.1,0,.3,0,.4-1,1-2.4,1.5-3.7,1.5-3.1,0-5.5-2.4-5.5-5.5s2.5-5.5,5.5-5.5Z"/>
            <path class="cls-4" d="M524.3,61.8c0-.2.1-.3.3-.3h1.4c.2,0,.3.1.3.3v4.1h5v-4.1c0-.2.1-.3.3-.3h1.4c.2,0,.3.1.3.3v10.1c0,.2-.1.3-.3.3h-1.4c-.2,0-.3-.1-.3-.3v-4.2h-5v4.2c0,.2-.1.3-.3.3h-1.4c-.2,0-.3-.1-.3-.3v-10.1Z"/>
            <path class="cls-4" d="M535.6,61.8c0-.2.1-.3.3-.3h6.2c.2,0,.3.1.3.3v1.3c0,.2-.1.3-.3.3h-4.5v2.5h3.8c.2,0,.3.1.3.3v1.3c0,.2-.1.3-.3.3h-3.8v2.7h4.5c.2,0,.3.1.3.3v1.3c0,.2-.1.3-.3.3h-6.2c-.2,0-.3-.1-.3-.3v-10.1Z"/>
            <path class="cls-4" d="M545.3,61.6c0-.1.1-.2.3-.2h.2c.1,0,.2,0,.3.2l3.4,7.2h0l3.4-7.2c0,0,.1-.2.3-.2h.2c.2,0,.3.1.3.2l1.8,10.3c0,.2,0,.4-.3.4h-1.4c-.1,0-.3-.1-.3-.2l-.9-5.8h0l-2.7,6c0,0-.1.2-.3.2h-.3c-.1,0-.2,0-.3-.2l-2.7-6h0l-.9,5.8c0,.1-.1.2-.3.2h-1.4c-.2,0-.3-.1-.3-.4l1.8-10.3Z"/>
            <path class="cls-4" d="M557.1,61.8c0-.2.1-.3.3-.3h1.4c.2,0,.3.1.3.3v10.1c0,.2-.1.3-.3.3h-1.4c-.2,0-.3-.1-.3-.3v-10.1Z"/>
            <path class="cls-4" d="M566.2,61.3c1.5,0,2.7.5,3.7,1.4.1.1.1.3,0,.4l-.9,1c-.1.1-.3.1-.4,0-.6-.6-1.5-.9-2.4-.9-2,0-3.4,1.6-3.4,3.6s1.5,3.5,3.4,3.5,1.7-.4,2.3-.9c.1-.1.3,0,.4,0l.9,1c.1.1,0,.3,0,.4-1,1-2.4,1.5-3.7,1.5-3.1,0-5.5-2.4-5.5-5.5s2.5-5.5,5.5-5.5Z"/>
            <path class="cls-4" d="M570.2,71.8l4.8-10.3c0,0,.1-.2.3-.2h.2c.2,0,.2,0,.3.2l4.7,10.3c0,.2,0,.4-.3.4h-1.3c-.2,0-.3,0-.4-.3l-.7-1.7h-4.6l-.7,1.7c0,.2-.2.3-.4.3h-1.3c-.2,0-.4-.2-.3-.4ZM576.8,68.5l-1.5-3.4h0l-1.5,3.4h3.1Z"/>
            <path class="cls-4" d="M581.3,61.8c0-.2.1-.3.3-.3h1.4c.2,0,.3.1.3.3v8.6h3.9c.2,0,.3.1.3.3v1.3c0,.2-.1.3-.3.3h-5.6c-.2,0-.3-.1-.3-.3v-10.1Z"/>
          </g>
          <g>
            <path class="cls-4" d="M591.9,70.7l.5-.9c.1-.2.4-.2.5-.1,0,0,1.3.9,2.3.9s1.4-.5,1.4-1.2-.7-1.3-1.9-1.8c-1.4-.6-2.9-1.5-2.9-3.3s1-2.9,3.4-2.9,2.8.8,3.1,1c.2,0,.2.4,0,.5l-.6.9c-.1.2-.4.3-.5.2-.1,0-1.3-.8-2.1-.8s-1.3.6-1.3,1.1c0,.7.6,1.2,1.8,1.7,1.5.6,3.2,1.5,3.2,3.5s-1.4,3-3.5,3-3.1-.9-3.4-1.2c-.1-.1-.2-.2,0-.5Z"/>
            <path class="cls-4" d="M605.1,61.3c1.5,0,2.7.5,3.7,1.4.1.1.1.3,0,.4l-.9,1c-.1.1-.3.1-.4,0-.6-.6-1.5-.9-2.4-.9-2,0-3.4,1.6-3.4,3.6s1.5,3.5,3.4,3.5,1.7-.4,2.3-.9c.1-.1.3,0,.4,0l.9,1c.1.1,0,.3,0,.4-1,1-2.4,1.5-3.7,1.5-3.1,0-5.5-2.4-5.5-5.5s2.5-5.5,5.5-5.5Z"/>
            <path class="cls-4" d="M610.4,61.8c0-.2.1-.3.3-.3h1.4c.2,0,.3.1.3.3v10.1c0,.2-.1.3-.3.3h-1.4c-.2,0-.3-.1-.3-.3v-10.1Z"/>
            <path class="cls-4" d="M614.8,61.8c0-.2.1-.3.3-.3h6.2c.2,0,.3.1.3.3v1.3c0,.2-.1.3-.3.3h-4.5v2.5h3.8c.2,0,.3.1.3.3v1.3c0,.2-.1.3-.3.3h-3.8v2.7h4.5c.2,0,.3.1.3.3v1.3c0,.2-.1.3-.3.3h-6.2c-.2,0-.3-.1-.3-.3v-10.1Z"/>
            <path class="cls-4" d="M623.4,61.6c0-.2.1-.3.3-.3h.4l6.4,6.8h0v-6.3c0-.2.1-.3.3-.3h1.4c.2,0,.3.1.3.3v10.3c0,.2-.1.3-.3.3h-.4l-6.4-7h0v6.6c0,.2-.1.3-.3.3h-1.4c-.2,0-.3-.1-.3-.3v-10.3Z"/>
            <path class="cls-4" d="M639.5,61.3c1.5,0,2.7.5,3.7,1.4.1.1.1.3,0,.4l-.9,1c-.1.1-.3.1-.4,0-.6-.6-1.5-.9-2.4-.9-2,0-3.4,1.6-3.4,3.6s1.5,3.5,3.4,3.5,1.7-.4,2.3-.9c.1-.1.3,0,.4,0l.9,1c.1.1,0,.3,0,.4-1,1-2.4,1.5-3.7,1.5-3.1,0-5.5-2.4-5.5-5.5s2.5-5.5,5.5-5.5Z"/>
            <path class="cls-4" d="M644.8,61.8c0-.2.1-.3.3-.3h6.2c.2,0,.3.1.3.3v1.3c0,.2-.1.3-.3.3h-4.5v2.5h3.8c.2,0,.3.1.3.3v1.3c0,.2-.1.3-.3.3h-3.8v2.7h4.5c.2,0,.3.1.3.3v1.3c0,.2-.1.3-.3.3h-6.2c-.2,0-.3-.1-.3-.3v-10.1Z"/>
            <path class="cls-4" d="M652.8,70.7l.5-.9c.1-.2.4-.2.5-.1,0,0,1.3.9,2.3.9s1.4-.5,1.4-1.2-.7-1.3-1.9-1.8c-1.4-.6-2.9-1.5-2.9-3.3s1-2.9,3.4-2.9,2.8.8,3.1,1c.2,0,.2.4,0,.5l-.6.9c-.1.2-.4.3-.5.2-.1,0-1.3-.8-2.1-.8s-1.3.6-1.3,1.1c0,.7.6,1.2,1.8,1.7,1.5.6,3.2,1.5,3.2,3.5s-1.4,3-3.5,3-3.1-.9-3.4-1.2c-.1-.1-.2-.2,0-.5Z"/>
          </g>
          <g>
            <g>
              <path class="cls-4" d="M494.5,46.2c1.5,0,2.7.5,3.7,1.4.1.1.1.3,0,.4l-.9,1c-.1.1-.3.1-.4,0-.6-.6-1.5-.9-2.4-.9-2,0-3.4,1.6-3.4,3.6s1.5,3.5,3.4,3.5,1.7-.4,2.3-.9c.1-.1.3,0,.4,0l.9,1c.1.1,0,.3,0,.4-1,1-2.4,1.5-3.7,1.5-3.1,0-5.5-2.4-5.5-5.5s2.5-5.5,5.5-5.5Z"/>
              <path class="cls-4" d="M500.6,46.6c0-.2.1-.3.3-.3h1.4c.2,0,.3.1.3.3v4.1h5v-4.1c0-.2.1-.3.3-.3h1.4c.2,0,.3.1.3.3v10.1c0,.2-.1.3-.3.3h-1.4c-.2,0-.3-.1-.3-.3v-4.2h-5v4.2c0,.2-.1.3-.3.3h-1.4c-.2,0-.3-.1-.3-.3v-10.1Z"/>
              <path class="cls-4" d="M512.6,46.6c0-.2.1-.3.3-.3h6.2c.2,0,.3.1.3.3v1.3c0,.2-.1.3-.3.3h-4.5v2.5h3.8c.2,0,.3.1.3.3v1.3c0,.2-.1.3-.3.3h-3.8v2.7h4.5c.2,0,.3.1.3.3v1.3c0,.2-.1.3-.3.3h-6.2c-.2,0-.3-.1-.3-.3v-10.1Z"/>
              <path class="cls-4" d="M523,46.4c0-.1.1-.2.3-.2h.2c.1,0,.2,0,.3.2l3.4,7.2h0l3.4-7.2c0,0,.1-.2.3-.2h.2c.2,0,.3.1.3.2l1.8,10.3c0,.2,0,.4-.3.4h-1.4c-.1,0-.3-.1-.3-.2l-.9-5.8h0l-2.7,6c0,0-.1.2-.3.2h-.3c-.1,0-.2,0-.3-.2l-2.7-6h0l-.9,5.8c0,.1-.1.2-.3.2h-1.4c-.2,0-.3-.1-.3-.4l1.8-10.3Z"/>
              <path class="cls-4" d="M535.6,46.6c0-.2.1-.3.3-.3h1.4c.2,0,.3.1.3.3v10.1c0,.2-.1.3-.3.3h-1.4c-.2,0-.3-.1-.3-.3v-10.1Z"/>
              <path class="cls-4" d="M545.4,46.2c1.5,0,2.7.5,3.7,1.4.1.1.1.3,0,.4l-.9,1c-.1.1-.3.1-.4,0-.6-.6-1.5-.9-2.4-.9-2,0-3.4,1.6-3.4,3.6s1.5,3.5,3.4,3.5,1.7-.4,2.3-.9c.1-.1.3,0,.4,0l.9,1c.1.1,0,.3,0,.4-1,1-2.4,1.5-3.7,1.5-3.1,0-5.5-2.4-5.5-5.5s2.5-5.5,5.5-5.5Z"/>
              <path class="cls-4" d="M550,56.6l4.8-10.3c0,0,.1-.2.3-.2h.2c.2,0,.2,0,.3.2l4.7,10.3c0,.2,0,.4-.3.4h-1.3c-.2,0-.3,0-.4-.3l-.7-1.7h-4.6l-.7,1.7c0,.2-.2.3-.4.3h-1.3c-.2,0-.4-.2-.3-.4ZM556.6,53.4l-1.5-3.4h0l-1.5,3.4h3.1Z"/>
              <path class="cls-4" d="M561.9,46.6c0-.2.1-.3.3-.3h1.4c.2,0,.3.1.3.3v8.6h3.9c.2,0,.3.1.3.3v1.3c0,.2-.1.3-.3.3h-5.6c-.2,0-.3-.1-.3-.3v-10.1Z"/>
            </g>
            <path class="cls-4" d="M573.7,51.2h0s-.3-.4-.3-.4c-.6-.6-1.1-1.3-1-2.2,0-1.2,1-2.5,2.9-2.5s2.9,1.1,2.9,2.5-1.6,2.5-1.9,2.8l1.8,1.8c.2-.5.4-1.1.5-1.7,0-.3.2-.5.5-.4l.8.2c.4.1.3.4.3.6-.3,1.1-.7,2.1-.9,2.4l1.4,1.3c.2.2.3.4,0,.7l-.6.6c-.2.2-.4.2-.7,0l-1.1-1.1c-.3.3-1.3,1.3-3.3,1.3s-3.2-1.3-3.2-2.9,1.8-2.9,2.1-3.1ZM575.1,55.6c1.1,0,1.7-.6,2-.9l-2.3-2.4c-.2.2-1.3.7-1.3,1.9s.7,1.4,1.6,1.4ZM576.5,48.8c0-.6-.5-1.1-1.3-1.1s-1.1.5-1.1,1c0,.5.3.9.8,1.4l.3.3c.2-.1,1.3-.7,1.3-1.6Z"/>
          </g>
        </g>
        <g>
          <g>
            <path class="cls-2" d="M493.2,76.5c1.1,0,2,.4,2.8,1.1,0,0,.1.2,0,.3-.2.2-.3.4-.5.5,0,.1-.2,0-.3,0-.5-.5-1.3-.8-2-.8-1.6,0-2.9,1.4-2.9,3s1.3,3,2.9,3,1.6-.3,1.7-.4v-1.3h-1.1c-.1,0-.2,0-.2-.2v-.7c0-.1,0-.2.2-.2h2.1c.1,0,.2.1.2.2,0,.9,0,1.9,0,2.8s0,.1,0,.2c0,0-1.2.8-2.9.8s-4.2-1.8-4.2-4.2,1.9-4.2,4.2-4.2Z"/>
            <path class="cls-2" d="M497.9,76.8c0-.1,0-.2.2-.2h3.1c1.4,0,2.5,1.1,2.5,2.5s-.7,1.9-1.7,2.3l1.6,2.9c0,.1,0,.3-.2.3h-.9c0,0-.2,0-.2-.1l-1.5-3.1h-1.7v2.9c0,.1-.1.2-.2.2h-.8c-.1,0-.2-.1-.2-.2v-7.7ZM501.2,80.6c.8,0,1.4-.6,1.4-1.4s-.7-1.4-1.4-1.4h-2.1v2.8h2.1Z"/>
            <path class="cls-2" d="M505.5,76.8c0-.1,0-.2.2-.2h4.6c.1,0,.2.1.2.2v.6c0,.1,0,.2-.2.2h-3.7v2.4h3.1c.1,0,.2.1.2.2v.6c0,.1-.1.2-.2.2h-3.1v2.5h3.7c.1,0,.2.1.2.2v.6c0,.1,0,.2-.2.2h-4.6c-.1,0-.2-.1-.2-.2v-7.7Z"/>
            <path class="cls-2" d="M512.3,76.8c0-.1,0-.2.2-.2h4.6c.1,0,.2.1.2.2v.6c0,.1,0,.2-.2.2h-3.7v2.4h3.1c.1,0,.2.1.2.2v.6c0,.1-.1.2-.2.2h-3.1v2.5h3.7c.1,0,.2.1.2.2v.6c0,.1,0,.2-.2.2h-4.6c-.1,0-.2-.1-.2-.2v-7.7Z"/>
            <path class="cls-2" d="M519,76.7c0-.1.1-.2.2-.2h.3l5,5.8h0v-5.5c0-.1,0-.2.2-.2h.7c.1,0,.2.1.2.2v7.8c0,.1-.1.2-.2.2h-.3l-5-6h0v5.6c0,.1,0,.2-.2.2h-.7c-.1,0-.2-.1-.2-.2v-7.8Z"/>
          </g>
          <g>
            <path class="cls-2" d="M530.2,76.8c0-.1,0-.2.2-.2h2.6c1.4,0,2.6,1.2,2.6,2.6s-1.2,2.6-2.6,2.6h-1.7v2.7c0,.1-.1.2-.2.2h-.8c-.1,0-.2-.1-.2-.2v-7.7ZM533,80.6c.8,0,1.5-.6,1.5-1.5s-.7-1.4-1.5-1.4h-1.6v2.9h1.6Z"/>
            <path class="cls-2" d="M537,76.8c0-.1,0-.2.2-.2h3.1c1.4,0,2.5,1.1,2.5,2.5s-.7,1.9-1.7,2.3l1.6,2.9c0,.1,0,.3-.2.3h-.9c0,0-.2,0-.2-.1l-1.5-3.1h-1.7v2.9c0,.1-.1.2-.2.2h-.8c-.1,0-.2-.1-.2-.2v-7.7ZM540.2,80.6c.8,0,1.4-.6,1.4-1.4s-.7-1.4-1.4-1.4h-2.1v2.8h2.1Z"/>
            <path class="cls-2" d="M548.2,76.5c2.3,0,4.2,1.9,4.2,4.2s-1.9,4.2-4.2,4.2-4.2-1.8-4.2-4.2,1.8-4.2,4.2-4.2ZM548.2,83.7c1.7,0,3-1.3,3-3s-1.4-3-3-3-3,1.4-3,3,1.4,3,3,3Z"/>
            <path class="cls-2" d="M557.5,76.5c1.2,0,2,.4,2.8,1.1.1,0,.1.2,0,.3l-.5.5c0,.1-.2.1-.3,0-.5-.5-1.3-.8-2-.8-1.7,0-2.9,1.4-2.9,3s1.3,3,2.9,3,1.4-.3,2-.8c.1,0,.2,0,.3,0l.5.5c0,0,0,.2,0,.3-.8.8-1.8,1.1-2.8,1.1-2.3,0-4.2-1.8-4.2-4.2s1.9-4.2,4.2-4.2Z"/>
            <path class="cls-2" d="M561.9,76.8c0-.1,0-.2.2-.2h4.6c.1,0,.2.1.2.2v.6c0,.1,0,.2-.2.2h-3.7v2.4h3.1c.1,0,.2.1.2.2v.6c0,.1-.1.2-.2.2h-3.1v2.5h3.7c.1,0,.2.1.2.2v.6c0,.1,0,.2-.2.2h-4.6c-.1,0-.2-.1-.2-.2v-7.7Z"/>
            <path class="cls-2" d="M568.1,83.6c.1-.2.2-.3.3-.5.1-.2.3-.2.4,0,0,0,1,.8,1.8.8s1.3-.5,1.3-1.1-.6-1.1-1.7-1.6c-1.2-.5-2.1-1.1-2.1-2.5s.7-2.1,2.5-2.1,2,.6,2.1.7c0,0,.2.2,0,.4,0,.1-.2.3-.3.4,0,.2-.2.2-.4.1,0,0-.9-.6-1.6-.6-1,0-1.3.6-1.3,1,0,.7.5,1.1,1.5,1.5,1.3.5,2.5,1.2,2.5,2.6s-1.1,2.2-2.6,2.2-2.3-.7-2.5-.9c-.1,0-.2-.2,0-.4Z"/>
            <path class="cls-2" d="M574.3,83.6c.1-.2.2-.3.3-.5.1-.2.3-.2.4,0,0,0,1,.8,1.9.8s1.3-.5,1.3-1.1-.6-1.1-1.7-1.6c-1.2-.5-2.1-1.1-2.1-2.5s.7-2.1,2.5-2.1,2,.6,2.1.7c0,0,.2.2,0,.4,0,.1-.2.3-.3.4,0,.2-.2.2-.4.1,0,0-.9-.6-1.6-.6-1,0-1.3.6-1.3,1,0,.7.5,1.1,1.5,1.5,1.3.5,2.5,1.2,2.5,2.6s-1.1,2.2-2.6,2.2-2.3-.7-2.5-.9c-.1,0-.2-.2,0-.4Z"/>
          </g>
          <g>
            <path class="cls-2" d="M583.2,76.8c0-.1,0-.2.2-.2h4.6c.1,0,.2.1.2.2v.6c0,.1,0,.2-.2.2h-3.7v2.4h3.1c.1,0,.2.1.2.2v.6c0,.1-.1.2-.2.2h-3.1v2.5h3.7c.1,0,.2.1.2.2v.6c0,.1,0,.2-.2.2h-4.6c-.1,0-.2-.1-.2-.2v-7.7Z"/>
            <path class="cls-2" d="M589.9,76.7c0-.1.1-.2.2-.2h.3l5,5.8h0v-5.5c0-.1,0-.2.2-.2h.7c.1,0,.2.1.2.2v7.8c0,.1-.1.2-.2.2h-.3l-5-6h0v5.6c0,.1,0,.2-.2.2h-.7c-.1,0-.2-.1-.2-.2v-7.8Z"/>
            <path class="cls-2" d="M602.4,76.5c1.1,0,2,.4,2.8,1.1,0,0,.1.2,0,.3-.2.2-.3.4-.5.5,0,.1-.2,0-.3,0-.5-.5-1.3-.8-2-.8-1.6,0-2.9,1.4-2.9,3s1.3,3,2.9,3,1.6-.3,1.7-.4v-1.3h-1.1c-.1,0-.2,0-.2-.2v-.7c0-.1,0-.2.2-.2h2.1c.1,0,.2.1.2.2,0,.9,0,1.9,0,2.8s0,.1,0,.2c0,0-1.2.8-2.9.8s-4.2-1.8-4.2-4.2,1.9-4.2,4.2-4.2Z"/>
            <path class="cls-2" d="M607.1,76.8c0-.1.1-.2.2-.2h.8c.1,0,.2.1.2.2v7.7c0,.1-.1.2-.2.2h-.8c-.1,0-.2-.1-.2-.2v-7.7Z"/>
            <path class="cls-2" d="M610.5,76.7c0-.1.1-.2.2-.2h.3l5,5.8h0v-5.5c0-.1,0-.2.2-.2h.7c.1,0,.2.1.2.2v7.8c0,.1-.1.2-.2.2h-.3l-5-6h0v5.6c0,.1,0,.2-.2.2h-.7c-.1,0-.2-.1-.2-.2v-7.8Z"/>
            <path class="cls-2" d="M619.4,76.8c0-.1,0-.2.2-.2h4.6c.1,0,.2.1.2.2v.6c0,.1,0,.2-.2.2h-3.7v2.4h3.1c.1,0,.2.1.2.2v.6c0,.1-.1.2-.2.2h-3.1v2.5h3.7c.1,0,.2.1.2.2v.6c0,.1,0,.2-.2.2h-4.6c-.1,0-.2-.1-.2-.2v-7.7Z"/>
            <path class="cls-2" d="M626.1,76.8c0-.1,0-.2.2-.2h4.6c.1,0,.2.1.2.2v.6c0,.1,0,.2-.2.2h-3.7v2.4h3.1c.1,0,.2.1.2.2v.6c0,.1-.1.2-.2.2h-3.1v2.5h3.7c.1,0,.2.1.2.2v.6c0,.1,0,.2-.2.2h-4.6c-.1,0-.2-.1-.2-.2v-7.7Z"/>
            <path class="cls-2" d="M632.9,76.8c0-.1,0-.2.2-.2h3.1c1.4,0,2.5,1.1,2.5,2.5s-.7,1.9-1.7,2.3l1.6,2.9c0,.1,0,.3-.2.3h-.9c0,0-.2,0-.2-.1l-1.5-3.1h-1.7v2.9c0,.1-.1.2-.2.2h-.8c-.1,0-.2-.1-.2-.2v-7.7ZM636.1,80.6c.8,0,1.4-.6,1.4-1.4s-.7-1.4-1.4-1.4h-2.1v2.8h2.1Z"/>
            <path class="cls-2" d="M640.5,76.8c0-.1.1-.2.2-.2h.8c.1,0,.2.1.2.2v7.7c0,.1-.1.2-.2.2h-.8c-.1,0-.2-.1-.2-.2v-7.7Z"/>
            <path class="cls-2" d="M643.9,76.7c0-.1.1-.2.2-.2h.3l5,5.8h0v-5.5c0-.1,0-.2.2-.2h.7c.1,0,.2.1.2.2v7.8c0,.1-.1.2-.2.2h-.3l-5-6h0v5.6c0,.1,0,.2-.2.2h-.7c-.1,0-.2-.1-.2-.2v-7.8Z"/>
            <path class="cls-2" d="M656.4,76.5c1.1,0,2,.4,2.8,1.1,0,0,.1.2,0,.3-.2.2-.3.4-.5.5,0,.1-.2,0-.3,0-.5-.5-1.3-.8-2-.8-1.6,0-2.9,1.4-2.9,3s1.3,3,2.9,3,1.6-.3,1.7-.4v-1.3h-1.1c-.1,0-.2,0-.2-.2v-.7c0-.1,0-.2.2-.2h2.1c.1,0,.2.1.2.2,0,.9,0,1.9,0,2.8s0,.1,0,.2c0,0-1.2.8-2.9.8s-4.2-1.8-4.2-4.2,1.9-4.2,4.2-4.2Z"/>
          </g>
        </g>
        <g>
          <path class="cls-2" d="M489,21.8h0c0-9.6,7.2-17.4,17.5-17.4s10.1,2.1,13.2,5.2l-4.7,5.4c-2.6-2.3-5.2-3.8-8.6-3.8-5.6,0-9.7,4.7-9.7,10.4h0c0,5.8,4,10.6,9.7,10.6s6.2-1.5,8.8-3.9l4.7,4.7c-3.4,3.7-7.3,6-13.7,6-9.9,0-17.2-7.6-17.2-17.2Z"/>
          <path class="cls-2" d="M523.5,5h15.5c3.8,0,6.8,1.1,8.8,3,1.5,1.5,2.3,3.4,2.3,5.7h0c0,3.9-2,6-4.4,7.3,3.9,1.5,6.3,3.7,6.3,8.2h0c0,6.2-5,9.3-12.5,9.3h-15.9V5ZM537.4,18.5c3.3,0,5.3-1.1,5.3-3.5h0c0-2.3-1.7-3.5-4.8-3.5h-7.3v7.1h6.8ZM539.4,32c3.3,0,5.2-1.1,5.2-3.6h0c0-2.3-1.7-3.7-5.5-3.7h-8.5v7.4h8.8Z"/>
          <path class="cls-2" d="M554.3,33.6l4.4-5.2c3,2.5,6.2,4.1,10,4.1s4.8-1.2,4.8-3.2h0c0-2-1.1-2.9-6.7-4.4-6.7-1.7-11.1-3.6-11.1-10.2h0c0-6.2,4.9-10.2,11.7-10.2s9,1.5,12.4,4.3l-3.8,5.5c-3-2.1-5.9-3.3-8.7-3.3s-4.3,1.3-4.3,2.9h0c0,2.3,1.4,3,7.2,4.5,6.8,1.8,10.6,4.2,10.6,10h0c0,6.7-5.1,10.5-12.3,10.5s-10.2-1.8-14.2-5.4Z"/>
        </g>
      </g>
      <g>
        <g>
          <rect class="cls-5" y="4.3" width="80.1" height="80.1"/>
          <path class="cls-9" d="M61.4,20.5v28.1c0,6.3-1.9,11.4-5.6,15.2-3.7,3.8-9,5.7-15.7,5.7s-12-1.9-15.8-5.7c-3.7-3.8-5.6-8.9-5.6-15.2v-28.1h11.5v27.9c0,3.2.8,5.8,2.5,7.7,1.7,2,4.1,3,7.3,3s5.6-1,7.3-3c1.7-2,2.5-4.5,2.5-7.7v-27.9h11.5Z"/>
          <rect class="cls-5" x="88.2" y="4.3" width="80.1" height="80.1"/>
          <rect class="cls-5" x="176.4" y="4.3" width="80.1" height="80.1"/>
          <rect class="cls-5" x="264.5" y="4.3" width="80.1" height="80.1"/>
          <polygon class="cls-9" points="153.8 20.4 153.8 68.4 142.4 68.4 142.4 40.3 128.3 59.6 114.2 40.3 114.2 68.4 102.8 68.4 102.8 20.4 113.6 20.4 128.3 41.7 142.9 20.4 153.8 20.4"/>
          <path class="cls-9" d="M221.8,57.4c1.3-1.3,2-3,2-5.1s-.7-3.7-2-5c-1.3-1.4-3.1-2-5.4-2s-4,.7-5.3,2c-1.4,1.3-2.1,3-2.1,5.1s.7,3.8,2,5.1c1.4,1.3,3.2,2,5.4,2s4-.7,5.4-2M230.4,40.6c3.2,3.1,4.8,7,4.8,11.7s-1.8,9.1-5.3,12.4c-3.6,3.3-8,4.9-13.4,4.9s-9.8-1.6-13.4-4.9c-3.6-3.3-5.4-7.4-5.4-12.4s1.1-6.6,3.4-10.2l13.6-21.6h12.8l-9.4,14.9c5,.4,9.1,2.1,12.2,5.2"/>
          <path class="cls-9" d="M311.8,42.7c1.3-1.4,1.9-3.1,1.9-4.9s-.6-3.5-1.8-4.9c-1.2-1.4-2.8-2.1-4.6-2.1h-11.6v14.1h11.1c2,0,3.7-.7,5-2.1M320,25.7c3.2,3.5,4.8,7.5,4.8,12s-1.6,8.6-4.8,12.1c-3.2,3.5-7.5,5.3-12.9,5.3h-11.4v13.4h-11.3V20.4h23.1c5.1,0,9.3,1.8,12.5,5.3"/>
        </g>
        <rect class="cls-1" x="384.9" y="4.3" width="1" height="80.2"/>
      </g>
    </g>
  </g>
</svg>