<?xml version="1.0" encoding="UTF-8"?>
<svg id="Layer_2" data-name="Layer 2" xmlns="http://www.w3.org/2000/svg" xmlns:xlink="http://www.w3.org/1999/xlink" viewBox="0 0 679.3 89">
  <defs>
    <style>
      .cls-1 {
        fill: #d1451e;
      }

      .cls-1, .cls-2, .cls-3, .cls-4, .cls-5, .cls-6, .cls-7, .cls-8, .cls-9, .cls-10, .cls-11, .cls-12 {
        stroke-width: 0px;
      }

      .cls-2 {
        fill: url(#radial-gradient);
      }

      .cls-3 {
        fill: #58595b;
      }

      .cls-4 {
        fill: #d74a2a;
      }

      .cls-5 {
        fill: #7eac54;
      }

      .cls-6 {
        fill: url(#radial-gradient-2);
      }

      .cls-7 {
        fill: url(#radial-gradient-3);
      }

      .cls-8 {
        fill: url(#radial-gradient-4);
      }

      .cls-9 {
        fill: url(#radial-gradient-6);
      }

      .cls-10 {
        fill: url(#radial-gradient-5);
      }

      .cls-11 {
        fill: #fff;
      }

      .cls-12 {
        fill: #4ba9d5;
      }
    </style>
    <radialGradient id="radial-gradient" cx="465.6" cy="2030.2" fx="465.6" fy="2030.2" r="35.9" gradientTransform="translate(0 2073.4) scale(1 -1)" gradientUnits="userSpaceOnUse">
      <stop offset="0" stop-color="#efb556"/>
      <stop offset="1" stop-color="#804d29"/>
    </radialGradient>
    <radialGradient id="radial-gradient-2" cx="465.6" fx="465.6" r="35.9" xlink:href="#radial-gradient"/>
    <radialGradient id="radial-gradient-3" cx="465.6" cy="2030.2" fx="465.6" fy="2030.2" r="35.9" xlink:href="#radial-gradient"/>
    <radialGradient id="radial-gradient-4" cx="465.6" cy="2030.2" fx="465.6" fy="2030.2" r="35.9" xlink:href="#radial-gradient"/>
    <radialGradient id="radial-gradient-5" cx="465.6" cy="2030.2" fx="465.6" fy="2030.2" r="35.9" xlink:href="#radial-gradient"/>
    <radialGradient id="radial-gradient-6" cx="465.6" cy="2030.2" fx="465.6" fy="2030.2" r="35.9" xlink:href="#radial-gradient"/>
  </defs>
  <g id="Layer_1-2" data-name="Layer 1">
    <g>
      <g>
        <g>
          <rect class="cls-4" y="4.4" width="80.1" height="80.1"/>
          <path class="cls-11" d="M61.4,20.6v28.1c0,6.3-1.9,11.4-5.6,15.2-3.7,3.8-9,5.7-15.7,5.7s-12-1.9-15.8-5.7c-3.7-3.8-5.6-8.9-5.6-15.2v-28.1h11.5v27.9c0,3.2.8,5.8,2.5,7.7,1.7,2,4.1,3,7.3,3s5.6-1,7.3-3c1.7-2,2.5-4.5,2.5-7.7v-27.9h11.5Z"/>
          <rect class="cls-4" x="88.2" y="4.4" width="80.1" height="80.1"/>
          <rect class="cls-4" x="176.4" y="4.4" width="80.1" height="80.1"/>
          <rect class="cls-4" x="264.5" y="4.4" width="80.1" height="80.1"/>
          <polygon class="cls-11" points="153.8 20.5 153.8 68.5 142.4 68.5 142.4 40.4 128.3 59.7 114.2 40.4 114.2 68.5 102.8 68.5 102.8 20.5 113.6 20.5 128.3 41.8 142.9 20.5 153.8 20.5"/>
          <path class="cls-11" d="M221.8,57.5c1.3-1.3,2-3,2-5.1s-.7-3.7-2-5c-1.3-1.4-3.1-2-5.4-2s-4,.7-5.3,2c-1.4,1.3-2.1,3-2.1,5.1s.7,3.8,2,5.1c1.4,1.3,3.2,2,5.4,2s4-.7,5.4-2M230.4,40.7c3.2,3.1,4.8,7,4.8,11.7s-1.8,9.1-5.3,12.4c-3.6,3.3-8,4.9-13.4,4.9s-9.8-1.6-13.4-4.9c-3.6-3.3-5.4-7.4-5.4-12.4s1.1-6.6,3.4-10.2l13.6-21.6h12.8l-9.4,14.9c5,.4,9.1,2.1,12.2,5.2"/>
          <path class="cls-11" d="M311.8,42.8c1.3-1.4,1.9-3.1,1.9-4.9s-.6-3.5-1.8-4.9c-1.2-1.4-2.8-2.1-4.6-2.1h-11.6v14.1h11.1c2,0,3.7-.7,5-2.1M320,25.8c3.2,3.5,4.8,7.5,4.8,12s-1.6,8.6-4.8,12.1c-3.2,3.5-7.5,5.3-12.9,5.3h-11.4v13.4h-11.3V20.5h23.1c5.1,0,9.3,1.8,12.5,5.3"/>
        </g>
        <rect class="cls-1" x="384.9" y="4.4" width="1" height="80.2"/>
      </g>
      <g>
        <g>
          <path class="cls-12" d="M501.8,22.4c-.5,0-.9-.2-1.2-.6-12.5-19.2-38.2-24.7-57.4-12.2-4.9,3.2-9,7.3-12.2,12.2-.4.7-1.3.8-2,.4s-.8-1.3-.4-2h0c13.3-20.5,40.8-26.4,61.4-13,5.2,3.4,9.7,7.8,13,13,.4.6.3,1.5-.4,2-.2.2-.5.2-.8.2Z"/>
          <path class="cls-2" d="M489.7,81.7c-.9,0-1.7-.7-1.7-1.6-.4-8-5.2-11.8-10.9-16-5.6-4.3-12.1-9.2-13.1-19.5,0-.9.6-1.8,1.5-1.9.9,0,1.8.6,1.9,1.5.8,8.8,6.1,12.8,11.7,17.1,5.8,4.4,11.8,9,12.2,18.6,0,.9-.7,1.7-1.6,1.8,0,0,0,0,0,0h0Z"/>
          <path class="cls-6" d="M506,61c-.5,0-.9-.2-1.2-.5-1.9-1.9-5.9-1.8-10.6-1.7-9.1.2-21.6.4-29.9-13.6-.5-.8-.2-1.9.6-2.3.8-.5,1.9-.2,2.3.6,3.2,5.5,7.4,8.9,12.8,10.6,4.7,1.5,9.7,1.4,14.1,1.3,5.5,0,10.2-.2,13.1,2.7.7.7.7,1.7,0,2.4-.3.3-.8.5-1.2.5Z"/>
          <path class="cls-7" d="M475.4,87.9c-.9,0-1.7-.8-1.7-1.7h0c0-4.4-1.7-9-3.7-14.4-2.8-7.6-5.9-16.2-5.9-27.5,0-.9.6-1.8,1.6-1.8.9,0,1.8.6,1.8,1.6,0,0,0,.2,0,.3,0,10.8,3,19,5.7,26.3,2.1,5.7,3.9,10.6,3.9,15.5s-.8,1.7-1.7,1.7Z"/>
          <path class="cls-8" d="M441.8,81.7h0c-.9,0-1.7-.8-1.6-1.8h0c.5-9.6,6.4-14.2,12.2-18.6s10.9-8.3,11.7-17.1c0-.9.9-1.6,1.9-1.5.9,0,1.6.9,1.5,1.9h0c-.9,10.2-7.4,15.2-13,19.5-5.6,4.3-10.5,8-10.9,16.1,0,.9-.8,1.6-1.8,1.6Z"/>
          <path class="cls-10" d="M425.5,61c-.9,0-1.7-.8-1.7-1.7,0-.4.2-.9.5-1.2,2.9-2.9,7.6-2.8,13.1-2.7,4.4,0,9.4.2,14.1-1.3,5.3-1.7,9.5-5.2,12.8-10.6.5-.8,1.5-1.1,2.3-.6.8.5,1.1,1.5.6,2.3h0c-8.3,14-20.8,13.8-29.9,13.6-4.7,0-8.8-.2-10.6,1.7-.3.3-.8.5-1.2.5Z"/>
          <path class="cls-9" d="M456.2,87.9c-.9,0-1.7-.8-1.7-1.7h0c0-5,1.8-9.9,3.9-15.5,2.7-7.3,5.7-15.6,5.7-26.3,0-.9.6-1.8,1.6-1.8.9,0,1.8.6,1.8,1.6,0,0,0,.2,0,.3,0,11.3-3.1,19.9-5.9,27.5-2,5.4-3.7,10-3.7,14.3s-.8,1.7-1.7,1.7Z"/>
          <ellipse class="cls-5" cx="465.8" cy="22.7" rx="6.6" ry="11.4"/>
          <ellipse class="cls-5" cx="481.1" cy="29.1" rx="11.4" ry="6.6" transform="translate(120.4 348.7) rotate(-45)"/>
          <ellipse class="cls-5" cx="487.4" cy="44.4" rx="11.4" ry="6.6"/>
          <ellipse class="cls-5" cx="444.1" cy="44.4" rx="11.4" ry="6.6"/>
          <ellipse class="cls-5" cx="450.5" cy="29.1" rx="6.6" ry="11.4" transform="translate(111.4 327) rotate(-45)"/>
          <path class="cls-3" d="M465.8,89c-24.6,0-44.6-20-44.6-44.7,0-.9.8-1.7,1.7-1.7.9,0,1.7.8,1.7,1.7h0c.4,22.8,19.1,40.9,41.9,40.6,22.3-.3,40.2-18.3,40.6-40.6,0-.9.8-1.7,1.7-1.7.9,0,1.7.8,1.7,1.7h0c0,24.6-20,44.6-44.6,44.7Z"/>
        </g>
        <g>
          <path class="cls-3" d="M530.5,41.5c-1.2,0-2.5-.2-3.6-.7-1.1-.4-2-1.1-2.8-1.9-.8-.9-1.4-1.9-1.8-3.1-.4-1.4-.7-2.8-.6-4.2,0-1.4.2-2.9.7-4.2.4-1.2,1.1-2.2,2-3.1.8-.8,1.8-1.5,2.9-1.9,1.1-.4,2.3-.7,3.5-.7,1.3,0,2.5.2,3.8.6.4.1.8.3,1.1.4l.6.3-.8,2.2c-.2-.1-.5-.3-.7-.4-.3-.1-.7-.2-1-.4-.4-.1-.8-.2-1.3-.3-.5,0-.9-.1-1.4-.1-.9,0-1.8.2-2.7.5-.8.3-1.5.9-2,1.5-.6.7-1,1.5-1.3,2.4-.3,1-.5,2.1-.5,3.2,0,1,.1,2.1.4,3.1.2.9.6,1.7,1.2,2.4.5.7,1.2,1.2,2,1.5.9.4,1.8.6,2.8.5,1,0,2-.1,3-.4.6-.2,1.2-.4,1.8-.7l.7,2.2c-.2.1-.4.2-.7.3-.4.2-.8.3-1.2.4-.6.1-1.1.3-1.7.3-.7.1-1.4.2-2.2.2Z"/>
          <path class="cls-3" d="M539.1,41.1v-20.7l2.5-.4v7.2c.5-.2,1-.3,1.5-.4.5,0,1.1-.1,1.6-.2,1,0,1.9.1,2.8.5.7.3,1.3.7,1.8,1.3.5.6.8,1.3.9,2.1.2.9.3,1.8.3,2.6v8h-2.5v-7.4c0-.7,0-1.5-.2-2.2,0-.5-.3-1-.6-1.5-.3-.4-.6-.7-1.1-.8-.5-.2-1.1-.3-1.7-.3-.3,0-.6,0-.9,0-.3,0-.6,0-.8.1-.2,0-.5,0-.7.2-.2,0-.4,0-.5.1v11.8h-2.5Z"/>
          <path class="cls-3" d="M559.2,26.5c.9,0,1.8.1,2.6.4.6.2,1.2.6,1.7,1.1.4.5.7,1.1.9,1.7.2.7.3,1.5.3,2.2v8.8l-.9.2c-.4,0-.8.1-1.3.2l-1.6.2c-.6,0-1.1,0-1.7,0-.7,0-1.5,0-2.2-.2-.6-.1-1.2-.4-1.8-.7-.5-.4-.9-.8-1.1-1.4-.3-.7-.4-1.4-.4-2.1,0-.7.2-1.4.5-2,.3-.6.8-1,1.3-1.4.6-.4,1.2-.6,1.9-.8.8-.2,1.5-.3,2.3-.2h1.6c0,.1.6.2.6.2h.4c0,0,0-.6,0-.6,0-.4,0-.8-.1-1.2,0-.4-.3-.8-.5-1.1-.3-.3-.6-.6-1-.8-.5-.2-1.1-.3-1.6-.3-.7,0-1.5,0-2.2.2-.5,0-.9.2-1.4.4l-.3-2.1c.5-.2,1.1-.3,1.6-.4.8-.2,1.7-.2,2.5-.2ZM559.4,39.2h1.6c.4,0,.8,0,1.1-.2v-4.2c-.3-.1-.6-.2-.9-.2-.5,0-1-.1-1.5,0-.4,0-.8,0-1.2,0-.4,0-.8.2-1.2.3-.3.2-.6.4-.9.7-.2.3-.4.8-.4,1.2,0,.7.2,1.5.9,1.9.7.4,1.6.5,2.4.5Z"/>
          <path class="cls-3" d="M570.1,24.4c-.4,0-.8-.2-1.2-.4-.6-.7-.6-1.7,0-2.4.7-.6,1.7-.6,2.3,0,.6.7.6,1.7,0,2.4-.3.3-.7.5-1.1.4ZM571.4,41.1h-2.6v-14.2h2.5v14.2Z"/>
          <path class="cls-3" d="M581,26.6c.2,0,.5,0,.8,0,.3,0,.5,0,.8.1h.8c.2.2.3.2.5.3l-.4,2.2c-.3-.1-.7-.2-1-.3-.6-.1-1.2-.2-1.8-.2-.5,0-.9,0-1.4.2l-.9.2v11.9h-2.5v-13.5c.7-.3,1.5-.5,2.2-.6,1-.2,2-.3,3-.3Z"/>
          <path class="cls-3" d="M605,34c0,1-.2,2-.5,3-.3.9-.8,1.7-1.4,2.4-.6.7-1.3,1.2-2.1,1.5-1.7.7-3.6.7-5.3,0-.8-.3-1.5-.9-2.1-1.5-.6-.7-1.1-1.5-1.4-2.3-.7-2-.7-4.1,0-6.1.3-.9.8-1.7,1.4-2.3.6-.7,1.3-1.2,2.1-1.5,1.7-.7,3.6-.7,5.3,0,.8.3,1.5.9,2.1,1.5.6.7,1.1,1.5,1.4,2.3.3,1,.5,2,.5,3ZM602.4,34c0-1.4-.3-2.7-1.1-3.8-1.3-1.6-3.7-1.9-5.3-.6-.2.2-.4.4-.6.6-1.4,2.3-1.4,5.3,0,7.6,1.3,1.6,3.7,1.9,5.3.6.2-.2.4-.4.6-.6.8-1.1,1.2-2.4,1.1-3.8Z"/>
          <path class="cls-3" d="M614.1,19.9c.6,0,1.3,0,1.9.2.4,0,.7.2,1.1.3l-.5,2.2c-.3-.1-.6-.2-.9-.3-.5-.1-1-.2-1.5-.2-.9,0-1.9.3-2.5,1-.5.8-.8,1.7-.7,2.6v1.2h5.4v2.1h-5.4v12h-2.5v-15.4c-.1-1.5.4-3.1,1.3-4.2,1.1-1.1,2.7-1.6,4.2-1.4Z"/>
          <path class="cls-3" d="M526.9,65.7c.9,0,1.9-.1,2.7-.6.6-.4.9-1.1.9-1.8,0-.4,0-.8-.3-1.2-.2-.3-.5-.7-.8-.9-.4-.3-.8-.5-1.3-.7-.5-.2-1.1-.4-1.7-.7s-1.3-.5-1.9-.8c-.6-.3-1.1-.6-1.6-1-.5-.4-.8-.9-1.1-1.5-.3-.7-.4-1.4-.4-2.1,0-1.5.6-3,1.8-4,1.4-1,3.1-1.6,4.8-1.5,1.1,0,2.1.1,3.1.4.8.2,1.5.5,2.2.8l-1.1,2.8c-.6-.3-1.3-.6-2-.8-.7-.2-1.5-.3-2.3-.3-.8,0-1.5.2-2.2.6-.5.4-.8,1-.8,1.6,0,.4,0,.7.2,1.1.2.3.4.6.7.8.3.2.7.5,1.1.6.4.2.9.4,1.4.6.9.3,1.7.7,2.4,1,.7.3,1.2.7,1.8,1.2.5.5.9,1,1.1,1.6.3.7.4,1.5.4,2.3,0,1.6-.6,3-1.8,4-1.6,1-3.4,1.5-5.3,1.4-.7,0-1.4,0-2.1-.1-.6,0-1.2-.2-1.7-.4-.5-.1-.9-.3-1.3-.4s-.6-.3-.9-.4l1-2.8c.6.3,1.3.6,2,.8,1,.3,2,.4,3,.3Z"/>
          <path class="cls-3" d="M549.7,61.1c0,1-.2,2.1-.5,3.1-.3.9-.8,1.7-1.4,2.4-.6.7-1.3,1.2-2.2,1.5-.9.4-1.8.6-2.8.6-1,0-1.9-.2-2.8-.6-.8-.3-1.5-.9-2.1-1.5-.6-.7-1.1-1.5-1.4-2.4-.4-1-.5-2-.5-3.1,0-1,.2-2.1.5-3.1.3-.9.8-1.7,1.4-2.4.6-.6,1.3-1.2,2.2-1.5.9-.4,1.8-.5,2.8-.5.9,0,1.9.2,2.8.5.8.3,1.6.9,2.2,1.5.6.7,1.1,1.5,1.4,2.4.3,1,.5,2,.5,3.1ZM546.3,61.1c0-1.2-.3-2.4-.9-3.4-1.1-1.4-3.1-1.7-4.5-.6-.2.2-.4.3-.6.6-.7,1-1,2.2-.9,3.4,0,1.2.3,2.4.9,3.4,1.1,1.4,3.1,1.7,4.5.6.2-.2.4-.4.6-.6.7-1,1-2.2.9-3.4Z"/>
          <path class="cls-3" d="M556.8,49.9c0,.6-.2,1.1-.6,1.5-.4.4-.9.6-1.4.5-.5,0-1.1-.2-1.5-.5-.4-.4-.6-.9-.6-1.5,0-.6.2-1.1.6-1.5.4-.4.9-.6,1.5-.5.5,0,1,.2,1.4.5.4.4.7.9.6,1.5ZM556.4,68.3h-3.3v-14.2h3.3v14.2Z"/>
          <path class="cls-3" d="M565.6,68.6c-.8,0-1.6-.1-2.4-.3-.6-.2-1.1-.5-1.5-.9-.4-.4-.7-.9-.8-1.4-.2-.6-.2-1.3-.2-1.9v-16.4l3.3-.5v16.3c0,.3,0,.7,0,1,0,.3.2.5.3.7.2.2.4.3.7.4.4.1.7.2,1.1.2l-.5,2.7Z"/>
          <path class="cls-3" d="M579.8,65.7c.9,0,1.9-.1,2.7-.6.6-.4.9-1.1.9-1.8,0-.4,0-.8-.3-1.2-.2-.3-.5-.7-.8-.9-.4-.3-.8-.5-1.3-.7-.5-.2-1.1-.4-1.7-.7s-1.3-.5-1.9-.8c-.6-.2-1.1-.6-1.6-1-.5-.4-.8-.9-1.1-1.5-.3-.7-.4-1.4-.4-2.1,0-1.5.6-3,1.8-4,1.4-1,3.1-1.6,4.8-1.5,1.1,0,2.1.1,3.1.4.8.2,1.5.5,2.2.8l-1.1,2.8c-.6-.3-1.3-.6-2-.8-.7-.2-1.5-.3-2.3-.3-.8,0-1.5.2-2.2.6-.5.4-.8,1-.8,1.6,0,.4,0,.7.2,1.1.2.3.4.6.7.8.3.2.7.5,1.1.6.4.2.9.4,1.4.6.9.3,1.7.7,2.4,1,.7.3,1.2.7,1.8,1.2.5.5.9,1,1.1,1.6.3.7.4,1.5.4,2.3,0,1.6-.6,3-1.8,4-1.6,1-3.4,1.5-5.3,1.4-.7,0-1.4,0-2.1-.1-.6,0-1.1-.2-1.7-.4-.5-.1-.9-.3-1.3-.4s-.6-.3-.9-.4l1-2.8c.6.3,1.3.6,2,.8,1,.3,2,.4,3,.3Z"/>
          <path class="cls-3" d="M589,61.2c0-1,.2-2,.5-2.9.3-.9.8-1.7,1.4-2.4.6-.7,1.4-1.2,2.2-1.6.9-.4,1.9-.6,3-.6,1.3,0,2.6.2,3.8.7l-.7,2.7c-.4-.2-.8-.3-1.3-.4-.5-.1-1-.2-1.5-.2-1.1,0-2.2.4-2.9,1.2-.7,1-1.1,2.2-1,3.4,0,1.2.3,2.4,1,3.4.8.9,2,1.4,3.2,1.2.6,0,1.1,0,1.7-.2.5,0,1-.2,1.4-.4l.5,2.7c-.5.2-1.1.4-1.6.5-.8.1-1.5.2-2.3.2-1.1,0-2.2-.2-3.2-.6-.9-.3-1.6-.9-2.2-1.6-.6-.7-1.1-1.5-1.3-2.4-.3-1-.5-2-.4-3Z"/>
          <path class="cls-3" d="M606.3,49.9c0,.6-.2,1.1-.6,1.5-.4.4-.9.6-1.4.5-.5,0-1.1-.2-1.5-.5-.4-.4-.6-.9-.6-1.5,0-.6.2-1.1.6-1.5.4-.4.9-.6,1.5-.5.5,0,1,.2,1.4.5.4.4.6.9.6,1.5ZM605.9,68.3h-3.3v-14.2h3.3v14.2Z"/>
          <path class="cls-3" d="M609.3,61.2c0-1.1.2-2.2.6-3.3.3-.9.8-1.7,1.5-2.4.6-.6,1.3-1.1,2.1-1.4.8-.3,1.6-.5,2.5-.5,1.7,0,3.4.6,4.6,1.8,1.2,1.5,1.8,3.5,1.6,5.4v1.2h-9.4c0,1,.5,2,1.2,2.6.9.7,2,1,3.1.9.7,0,1.5,0,2.2-.2.5-.1,1.1-.3,1.6-.5l.4,2.7c-.2.1-.5.2-.8.3-.4.1-.7.2-1.1.3-.4,0-.9.1-1.3.2-.5,0-1,0-1.4,0-1.1,0-2.2-.2-3.3-.6-.9-.3-1.7-.9-2.3-1.6-.6-.7-1.1-1.5-1.3-2.3-.3-1-.5-2-.5-3ZM618.9,59.8c0-.4,0-.9-.2-1.3-.1-.4-.3-.8-.6-1.1-.2-.3-.6-.5-.9-.7-.4-.2-.8-.3-1.3-.3-.5,0-.9,0-1.3.3-.4.2-.7.4-1,.8-.3.3-.5.7-.6,1.1-.1.4-.2.8-.3,1.2h6.2Z"/>
          <path class="cls-3" d="M625.7,54.5c.8-.2,1.6-.4,2.5-.5,1.1-.2,2.2-.2,3.4-.2,1,0,2,.1,2.9.5.7.3,1.4.7,1.9,1.3.5.6.8,1.3,1,2.1.2.9.3,1.8.3,2.6v8h-3.3v-7.5c0-.7,0-1.3-.1-2,0-.5-.2-.9-.5-1.3-.2-.3-.5-.6-.9-.7-.5-.2-.9-.2-1.4-.2-.4,0-.9,0-1.3,0-.5,0-.8.1-1,.1v11.5h-3.3v-13.7Z"/>
          <path class="cls-3" d="M640.8,61.2c0-1,.2-2,.5-2.9.3-.9.8-1.7,1.4-2.4.6-.7,1.4-1.2,2.2-1.6.9-.4,1.9-.6,2.9-.6,1.3,0,2.6.2,3.8.7l-.7,2.7c-.4-.2-.8-.3-1.3-.4-.5-.1-1-.2-1.5-.2-1.1,0-2.2.4-2.9,1.2-.7,1-1.1,2.2-1,3.4,0,1.2.3,2.4,1,3.4.8.9,2,1.4,3.2,1.2.6,0,1.1,0,1.7-.2.5,0,1-.2,1.4-.4l.5,2.7c-.5.2-1.1.4-1.6.5-.7.1-1.5.2-2.3.2-1.1,0-2.2-.2-3.2-.6-.9-.3-1.6-.9-2.2-1.6-.6-.7-1.1-1.5-1.3-2.4-.3-1-.4-2-.4-3Z"/>
          <path class="cls-3" d="M653.7,61.2c0-1.1.2-2.2.6-3.3.3-.9.8-1.7,1.5-2.4.6-.6,1.3-1.1,2.1-1.4.8-.3,1.6-.5,2.5-.5,1.7,0,3.4.6,4.6,1.8,1.2,1.5,1.8,3.5,1.6,5.4v.6c0,.2,0,.4,0,.6h-9.4c0,1,.5,2,1.2,2.6.9.7,2,1,3.1.9.7,0,1.5,0,2.2-.2.5-.1,1.1-.3,1.6-.5l.4,2.7c-.2.1-.5.2-.7.3-.4.1-.7.2-1.1.3-.4,0-.8.1-1.3.2-.5,0-1,0-1.5,0-1.1,0-2.2-.2-3.3-.6-.9-.3-1.7-.9-2.3-1.6-.6-.7-1.1-1.5-1.3-2.3-.3-1-.5-2-.5-3ZM663.2,59.8c0-.4,0-.9-.2-1.3-.1-.4-.3-.7-.5-1.1-.2-.3-.6-.5-.9-.7-.8-.4-1.8-.4-2.6,0-.4.2-.7.4-1,.8-.3.3-.5.7-.6,1.1-.1.4-.2.8-.3,1.2h6.1Z"/>
          <path class="cls-3" d="M673.5,66c.9,0,1.5-.1,1.9-.3.4-.2.6-.6.6-1.1s-.2-.9-.6-1.2c-.4-.3-1.1-.6-2.1-1-.6-.2-1.1-.4-1.6-.7-.5-.2-.9-.5-1.3-.9-.4-.3-.6-.7-.9-1.2-.2-.5-.3-1-.3-1.7,0-1.3.5-2.3,1.4-3.1s2.3-1.1,3.9-1.1,1.6,0,2.4.2c.8.2,1.3.3,1.7.5l-.6,2.7c-.4-.2-.8-.3-1.4-.4-.6-.1-1.2-.2-2-.2s-1.2.1-1.6.3c-.4.2-.6.6-.6,1s0,.4.1.6.2.3.4.5.5.3.8.5c.3.2.7.3,1.2.5.8.3,1.4.6,2,.9.5.3,1,.6,1.3,1,.4.4.6.8.8,1.2.2.5.2,1,.2,1.6,0,1.4-.5,2.4-1.5,3.1-1,.7-2.4,1-4.3,1s-2.3-.1-3-.3c-.8-.2-1.3-.4-1.6-.5l.6-2.7c.5.2,1.1.4,1.8.6s1.5.3,2.3.3Z"/>
        </g>
      </g>
    </g>
  </g>
</svg>