<?xml version="1.0" encoding="UTF-8"?>
<svg id="Layer_2" data-name="Layer 2" xmlns="http://www.w3.org/2000/svg" viewBox="0 0 873.8 80.2">
  <defs>
    <style>
      .cls-1 {
        fill: #d1451e;
      }

      .cls-1, .cls-2, .cls-3, .cls-4, .cls-5 {
        stroke-width: 0px;
      }

      .cls-2 {
        fill: #4e87ba;
      }

      .cls-3 {
        fill: #d74a2a;
      }

      .cls-4 {
        fill: #fff;
      }

      .cls-5 {
        fill: #3a4e87;
      }
    </style>
  </defs>
  <g id="Layer_1-2" data-name="Layer 1">
    <g>
      <g>
        <path class="cls-2" d="M523.5,40.6v-1.1c0-3.5,2.9-6.4,6.4-6.4h49.3c3.5,0,6.4,2.9,6.4,6.4v1.1c0,3.5-2.9,6.4-6.4,6.4h-49.3c-3.5,0-6.4-2.9-6.4-6.4h0ZM523.5,9.5v-1.1c0-3.5,2.9-6.4,6.4-6.4h49.3c3.5,0,6.4,2.9,6.4,6.4v1.1c0,3.5-2.9,6.4-6.4,6.4h-49.3c-3.5,0-6.4-2.9-6.4-6.4h0ZM585.6,70.6v1.2c0,3.5-2.9,6.4-6.4,6.4h-40.2c-3.5,0-6.4-2.9-6.4-6.4v-1.3c0-3.5,2.9-6.4,6.4-6.4h17.4c.1,0,.3.1.4.1h22.3c3.5,0,6.4,2.8,6.4,6.4h0Z"/>
        <path class="cls-5" d="M547.9,70.5v.4c0,3.9-3.2,7.2-7.2,7.2h-9.9c-21.1-.8-36.4-16.7-36.4-37.9s15.6-37.5,36.3-38.2h10c3.9,0,7.2,3.2,7.2,7.2s-3.2,7.2-7.2,7.2h-10s0,0,0,0c-10.4.7-20.9,8.4-20.9,23.9s10.8,22.4,21,23.2h10c3.9,0,7.2,3.2,7.2,7.2h0Z"/>
        <path class="cls-5" d="M475.6,40.2c0,21.2-15.3,37.1-36.3,37.9h-10c-3.9,0-7.2-3.2-7.2-7.2v-.4c0-3.9,3.2-7.2,7.2-7.2h10c10.1-.7,20.9-8.3,20.9-23.2s-10.5-23.2-21-23.9h-10c-3.9,0-7.2-3.2-7.2-7.2s3.2-7.2,7.2-7.2h9.9c20.7.7,36.4,17.2,36.4,38.2h0Z"/>
        <path class="cls-5" d="M492.2,11v58.1c0,4.1-3.4,7.5-7.5,7.5s-7.5-3.4-7.5-7.5V11c0-4.1,3.4-7.5,7.5-7.5s7.5,3.4,7.5,7.5h0Z"/>
        <path class="cls-5" d="M611.5,40.9c0,0,0,.3,0,.6,0,.4,0,.7-.1,1.2h-.4c-2.1,0-3.9-.3-5.5-.8-1.6-.5-2.9-1.3-4-2.3-.7-.7-1.3-1.5-1.7-2.5-.4-1-.6-2.1-.6-3.3s.2-2.1.6-3c.4-.9,1-1.7,1.6-2.4,1-1,2.3-1.8,3.9-2.3,1.6-.6,3.4-.9,5.3-.9h.6c0,.2,0,.4,0,.7,0,.3,0,.7,0,1.1h-.4c-1.1,0-2.2.1-3.3.4-1.1.2-2.1.6-2.9,1-1.1.6-1.9,1.4-2.5,2.3-.6,1-.9,2-.9,3.1s.3,2.2.8,3.1c.5.9,1.3,1.7,2.5,2.4.9.5,1.9.9,3.1,1.1,1.1.2,2.3.4,3.4.4h.2c.1,0,.2,0,.4,0h0Z"/>
        <path class="cls-5" d="M643.2,42.5c0,0-.6,0-1.7,0-1.1,0-2.4,0-3.9,0s-2.1,0-3,0c-.9,0-1.7,0-2.3,0,0-.5,0-1.6,0-3.2,0-1.6,0-3.3,0-5.1s0-2.2,0-3.8c0-1.6,0-3.2,0-4.9.6,0,1.4,0,2.3,0,.9,0,1.8,0,2.8,0,1.6,0,2.9,0,4,0,1,0,1.6,0,1.7,0v1.8c0,0-.6,0-1.6,0-1,0-2.2,0-3.7,0s-1.3,0-1.9,0c-.6,0-1.1,0-1.4,0,0,1,0,1.9,0,2.9,0,1,0,1.9,0,2.7.4,0,.8,0,1.4,0,.5,0,1,0,1.4,0,1.5,0,2.8,0,4,0,1.2,0,1.8,0,1.9,0v1.8c0,0-.8,0-2.1,0-1.3,0-2.5,0-3.7,0s-.9,0-1.5,0c-.6,0-1,0-1.4,0,0,1.6,0,2.9,0,3.8,0,.9,0,1.7,0,2.4.5,0,1.1,0,1.8,0,.7,0,1.5,0,2.3,0,1.3,0,2.3,0,3.2,0,.9,0,1.3,0,1.4,0v1.8h0Z"/>
        <path class="cls-5" d="M680,25.5c0,1.3,0,2.9,0,4.6,0,1.7,0,2.9,0,3.7,0,2.4,0,4.3,0,5.7,0,1.4,0,2.2,0,2.3l-1.7.8c-2.6-3.5-5-6.6-7.2-9.4-2.2-2.8-3.5-4.4-3.9-4.8h0c0,2.3,0,5.1,0,8.4,0,3.3,0,5.2,0,5.7h-2c0-.2,0-1,0-2.3,0-1.3,0-3.1,0-5.4s0-2.2,0-3.7c0-1.5,0-3.2,0-4.9l1.9-.9c.2.2,1.5,1.8,3.9,4.9,2.4,3.1,4.8,6,6.9,8.6h0c0-1.3,0-3.5,0-6.6,0-3.1,0-5.4,0-6.9h2Z"/>
        <path class="cls-5" d="M714.9,27.3c-.1,0-.7,0-1.7,0-1,0-2.5,0-4.5,0,0,1.7,0,3.1,0,4,0,.9,0,2.1,0,3.7s0,3,0,4.6c0,1.5,0,2.6,0,3.1h-2.1c0-.5,0-1.5,0-3.1,0-1.6,0-3.1,0-4.6v-3.5c0-.9,0-2.2,0-4-1.8,0-3.3,0-4.4,0-1.1,0-1.7,0-1.9,0v-1.8c.9,0,1.9,0,3.2,0,1.3,0,2.6,0,4,0,2.1,0,3.8,0,5.1,0,1.4,0,2.1,0,2.2,0v1.8h0Z"/>
        <path class="cls-5" d="M746,42.5c0,0-.6,0-1.7,0-1.1,0-2.4,0-3.9,0s-2.1,0-3,0c-.9,0-1.7,0-2.3,0,0-.5,0-1.6,0-3.2,0-1.6,0-3.3,0-5.1s0-2.2,0-3.8c0-1.6,0-3.2,0-4.9.6,0,1.4,0,2.3,0,.9,0,1.8,0,2.8,0,1.6,0,2.9,0,4,0,1,0,1.6,0,1.7,0v1.8c0,0-.6,0-1.6,0-1,0-2.2,0-3.7,0s-1.3,0-1.9,0c-.6,0-1.1,0-1.4,0,0,1,0,1.9,0,2.9,0,1,0,1.9,0,2.7.4,0,.8,0,1.4,0,.5,0,1,0,1.4,0,1.5,0,2.8,0,4,0,1.2,0,1.8,0,1.9,0v1.8c0,0-.8,0-2.1,0-1.3,0-2.5,0-3.7,0s-.9,0-1.5,0c-.6,0-1,0-1.4,0,0,1.6,0,2.9,0,3.8,0,.9,0,1.7,0,2.4.5,0,1.1,0,1.8,0,.7,0,1.5,0,2.3,0,1.3,0,2.3,0,3.2,0,.9,0,1.3,0,1.4,0v1.8h0Z"/>
        <path class="cls-5" d="M781.2,41.5l-1.6,1.3c-.2-.2-.8-.9-2-2.2-1.1-1.3-2.9-3.3-5.2-6h0c.3-.2.8-.4,1.3-.7.5-.3,1-.6,1.3-.9.3-.3.6-.6.8-1.1.2-.4.4-1,.4-1.7s-.2-1.2-.5-1.7c-.3-.5-.8-.8-1.4-1-.5-.2-1-.3-1.6-.3-.5,0-1,0-1.5,0s-.5,0-.7,0c-.2,0-.3,0-.4,0,0,1.6,0,3,0,4.3,0,1.2,0,2.1,0,2.6,0,1.2,0,2.7,0,4.7,0,2,0,3.2,0,3.8h-2.1c0-.5,0-1.5,0-3,0-1.5,0-3.3,0-5.5v-2.4c0-1.1,0-3.2,0-6.3,0,0,.5,0,1.3,0,.8,0,1.5,0,2.1,0s1.5,0,2.1.1c.7,0,1.4.3,2,.5.8.4,1.5.9,2,1.6.5.7.7,1.5.7,2.4s-.4,2.2-1.1,3c-.7.8-1.4,1.4-2.1,1.8h0c1.2,1.4,2.4,2.8,3.8,4.3,1.4,1.4,2.1,2.2,2.2,2.3h0Z"/>
        <path class="cls-5" d="M838.4,34.2c0-1.1-.2-2.2-.6-3.3-.4-1.1-.9-2-1.7-2.7-.5-.5-1.1-.9-1.7-1.1-.6-.3-1.3-.4-2.1-.4s-1.5.1-2.1.4c-.7.3-1.3.7-1.8,1.2-.7.7-1.2,1.5-1.6,2.5-.4,1-.6,2-.6,3.1s.2,2.3.6,3.3c.4,1,.9,1.8,1.6,2.5.5.5,1.1.8,1.7,1.1s1.4.4,2.1.4,1.5-.1,2.1-.4c.7-.3,1.3-.7,1.8-1.2.6-.6,1.2-1.4,1.6-2.3.4-.9.6-2,.6-3.1h0ZM840.6,34c0,1.4-.2,2.6-.7,3.8-.5,1.1-1.1,2.1-1.8,2.8-.8.8-1.7,1.4-2.7,1.8-.9.4-1.9.6-3,.6s-2-.2-3-.5c-.9-.4-1.8-.9-2.5-1.6-.8-.8-1.5-1.7-2-2.9-.5-1.2-.8-2.5-.8-4s.2-2.5.6-3.6c.4-1.1,1-2,1.8-2.9.7-.8,1.6-1.4,2.6-1.9,1-.4,2.1-.7,3.2-.7s2.2.2,3.2.6c1,.4,1.8,1,2.5,1.7.8.8,1.5,1.8,1.9,3,.4,1.1.6,2.4.6,3.7h0Z"/>
        <path class="cls-5" d="M872.8,27.3c-.1,0-.7,0-1.7,0-1,0-2.2,0-3.6,0s-1.2,0-1.7,0c-.5,0-1,0-1.4,0,0,1,0,2,0,3.1,0,1.1,0,2.1,0,3,.1,0,.4,0,.9,0,.5,0,.9,0,1.4,0,1.4,0,2.7,0,3.9,0,1.2,0,1.9,0,2.1,0v1.8c-.2,0-.9,0-2.3,0-1.4,0-2.7,0-3.8,0s-.8,0-1.2,0c-.5,0-.8,0-.9,0,0,1.5,0,2.9,0,4.3,0,1.3,0,2.4,0,3.2h-2.1c0-.5,0-1.4,0-2.7,0-1.3,0-3.2,0-5.6s0-2.2,0-3.8c0-1.6,0-3.2,0-4.9.6,0,1.4,0,2.3,0,.9,0,1.8,0,2.8,0,1.5,0,2.7,0,3.7,0,1,0,1.5,0,1.7,0v1.8h0Z"/>
        <path class="cls-5" d="M617.9,77c-.4,0-1.7,0-3.9,0-2.2,0-4.5,0-6.9,0s-3.9,0-5.6,0c-1.8,0-3.2,0-4.1,0,0-.8,0-2.5,0-5.1,0-2.6,0-5.8,0-9.4s0-3.8,0-6.4c0-2.6,0-5.3,0-8,1,0,2.4,0,4.1,0,1.7,0,3.5,0,5.3,0,2.6,0,5,0,7.2,0,2.2,0,3.4,0,3.7,0v4.6c-.2,0-1.1,0-2.8,0-1.7,0-3.4,0-5.4,0s-2.1,0-3.3,0c-1.2,0-2.2,0-2.9,0,0,1.3,0,2.6,0,3.9,0,1.3,0,2.6,0,3.7.7,0,1.6,0,2.7,0,1.1,0,2,0,2.7,0,2.1,0,4,0,5.7,0,1.7,0,2.8,0,3.1,0v4c-.2,0-1.4,0-3.4,0-2,0-3.8,0-5.3,0s-1.6,0-2.8,0c-1.1,0-2.1,0-2.8,0,0,2,0,3.7,0,5,0,1.3,0,2.4,0,3.3.9,0,2,0,3.4,0,1.4,0,2.7,0,3.9,0,1.8,0,3.4,0,4.8,0,1.4,0,2.2,0,2.6,0v4.7h0Z"/>
        <path class="cls-5" d="M649.9,75l-5.6,2.6c-.4-.7-1.2-2-2.6-3.9-1.4-1.9-3.3-4.6-5.7-8h0c-2,2.8-3.8,5.3-5.5,7.6-1.6,2.3-2.6,3.8-2.8,4.3l-5.4-2.4c.3-.5,1.2-1.7,2.7-3.8,1.5-2,3.7-5,6.7-9h0c-1.6-2.5-3.4-5-5.4-7.6-2-2.7-3.1-4.3-3.5-4.9l5.6-2.4c.3.6,1.2,2,2.7,4,1.4,2,3.2,4.4,5.2,7.2h0c1.7-2.5,3.4-4.8,5-7.1,1.6-2.3,2.5-3.6,2.8-4l5.3,2.2c-.3.5-1.5,2.1-3.5,4.8-2.1,2.7-3.9,5.2-5.5,7.5h0c2.2,3.1,4.2,5.7,6,8.1,1.8,2.4,2.9,4,3.5,5h0Z"/>
        <path class="cls-5" d="M675.8,72.3c-.1.6-.2,1.3-.3,2.2-.1.9-.2,1.9-.3,2.9h-.9c-3.6,0-6.8-.4-9.6-1.2-2.8-.8-5.1-2.1-7.1-3.7-1.4-1.2-2.6-2.7-3.4-4.3-.8-1.7-1.2-3.6-1.2-5.7s.4-3.8,1.2-5.4c.8-1.6,1.9-3,3.3-4.2,1.9-1.6,4.2-2.9,7.1-3.8,2.9-.9,5.9-1.3,9.2-1.3h1c0,.5.1,1.3.2,2.2.1.9.2,1.9.4,3h-.9c-1.4,0-3,.2-4.8.5-1.8.3-3.4.8-4.7,1.4-1.8.8-3.2,1.9-4.2,3.3-1,1.3-1.5,2.8-1.5,4.5s.5,3.2,1.4,4.5c.9,1.3,2.3,2.4,4.2,3.3,1.4.7,3,1.2,4.8,1.5,1.8.3,3.5.5,4.9.5h.5c.2,0,.4,0,.7,0h0Z"/>
        <path class="cls-5" d="M702.5,77c-.4,0-1.7,0-3.9,0-2.2,0-4.5,0-6.9,0s-3.9,0-5.6,0c-1.8,0-3.2,0-4.1,0,0-.8,0-2.5,0-5.1,0-2.6,0-5.8,0-9.4s0-3.8,0-6.4c0-2.6,0-5.3,0-8,1,0,2.4,0,4.1,0,1.7,0,3.5,0,5.3,0,2.6,0,5,0,7.2,0,2.2,0,3.4,0,3.7,0v4.6c-.2,0-1.1,0-2.8,0-1.7,0-3.4,0-5.4,0s-2.1,0-3.3,0c-1.2,0-2.2,0-2.9,0,0,1.3,0,2.6,0,3.9,0,1.3,0,2.6,0,3.7.7,0,1.6,0,2.7,0,1.1,0,2,0,2.7,0,2.1,0,4,0,5.7,0,1.7,0,2.8,0,3.1,0v4c-.2,0-1.4,0-3.4,0-2,0-3.8,0-5.3,0s-1.6,0-2.8,0c-1.1,0-2.1,0-2.8,0,0,2,0,3.7,0,5,0,1.3,0,2.4,0,3.3.9,0,2,0,3.4,0,1.4,0,2.7,0,3.9,0,1.8,0,3.4,0,4.8,0,1.4,0,2.2,0,2.6,0v4.7h0Z"/>
        <path class="cls-5" d="M730.3,77c-.4,0-1.7,0-3.8,0-2.1,0-4.3,0-6.6,0s-3.3,0-4.9,0c-1.6,0-3.1,0-4.5,0,0-2.4,0-5,0-7.8,0-2.7,0-5.2,0-7.4,0-3.9,0-7,0-9.2,0-2.2,0-3.8,0-4.6h6.1c0,1.8,0,3.8,0,6.1,0,2.2,0,4.2,0,6,0,3.1,0,5.8,0,8.1,0,2.3,0,3.6,0,3.9.6,0,1.4,0,2.2,0,.8,0,1.6,0,2.3,0,2.1,0,4.1,0,6,0,1.9,0,3,0,3.3,0v5.1h0Z"/>
        <path class="cls-5" d="M755.3,77c-.4,0-1.7,0-3.8,0-2.1,0-4.3,0-6.6,0s-3.3,0-4.9,0c-1.6,0-3.1,0-4.5,0,0-2.4,0-5,0-7.8,0-2.7,0-5.2,0-7.4,0-3.9,0-7,0-9.2,0-2.2,0-3.8,0-4.6h6.1c0,1.8,0,3.8,0,6.1,0,2.2,0,4.2,0,6,0,3.1,0,5.8,0,8.1,0,2.3,0,3.6,0,3.9.6,0,1.4,0,2.2,0,.8,0,1.6,0,2.3,0,2.1,0,4.1,0,6,0,1.9,0,3,0,3.3,0v5.1h0Z"/>
        <path class="cls-5" d="M781.8,77c-.4,0-1.7,0-3.9,0-2.2,0-4.5,0-6.9,0s-3.9,0-5.6,0c-1.8,0-3.2,0-4.1,0,0-.8,0-2.5,0-5.1,0-2.6,0-5.8,0-9.4s0-3.8,0-6.4c0-2.6,0-5.3,0-8,1,0,2.4,0,4.1,0,1.7,0,3.5,0,5.3,0,2.6,0,5,0,7.2,0,2.2,0,3.4,0,3.7,0v4.6c-.2,0-1.1,0-2.8,0-1.7,0-3.4,0-5.4,0s-2.1,0-3.3,0c-1.2,0-2.2,0-2.9,0,0,1.3,0,2.6,0,3.9,0,1.3,0,2.6,0,3.7.7,0,1.6,0,2.7,0,1.1,0,2,0,2.7,0,2.1,0,4,0,5.7,0,1.7,0,2.8,0,3.1,0v4c-.2,0-1.4,0-3.4,0-2,0-3.8,0-5.3,0s-1.6,0-2.8,0c-1.1,0-2.1,0-2.8,0,0,2,0,3.7,0,5,0,1.3,0,2.4,0,3.3.9,0,2,0,3.4,0,1.4,0,2.7,0,3.9,0,1.8,0,3.4,0,4.8,0,1.4,0,2.2,0,2.6,0v4.7h0Z"/>
        <path class="cls-5" d="M816.7,47.9c0,2.4,0,5,0,7.7,0,2.7,0,4.7,0,6.1,0,3.5,0,6.6,0,9.1,0,2.5,0,4.1,0,4.6l-4.5,1.9c-3.9-5.2-7.5-9.8-10.8-13.9-3.3-4.1-5.3-6.5-6-7.3h0c0,3.4,0,7.5,0,12.3,0,4.8,0,7.7,0,8.7h-5.7c0-.6,0-2.1,0-4.5,0-2.4,0-5.5,0-9.2s0-3.5,0-5.9c0-2.4,0-5,0-7.8l4.9-2c.5.6,2.5,3.1,6,7.4,3.5,4.3,6.9,8.6,10.4,12.7h0c0-2.1,0-5.3,0-9.6,0-4.3,0-7.7,0-10.2h5.7Z"/>
        <path class="cls-5" d="M847.1,72.3c-.1.6-.2,1.3-.3,2.2-.1.9-.2,1.9-.3,2.9h-.9c-3.6,0-6.8-.4-9.6-1.2-2.8-.8-5.1-2.1-7.1-3.7-1.4-1.2-2.6-2.7-3.4-4.3-.8-1.7-1.2-3.6-1.2-5.7s.4-3.8,1.2-5.4c.8-1.6,1.9-3,3.3-4.2,1.9-1.6,4.2-2.9,7.1-3.8,2.9-.9,5.9-1.3,9.2-1.3h1c0,.5.1,1.3.2,2.2.1.9.2,1.9.4,3h-.9c-1.4,0-3,.2-4.8.5-1.8.3-3.4.8-4.7,1.4-1.8.8-3.2,1.9-4.2,3.3-1,1.3-1.5,2.8-1.5,4.5s.5,3.2,1.4,4.5c.9,1.3,2.3,2.4,4.2,3.3,1.4.7,3,1.2,4.8,1.5,1.8.3,3.5.5,4.9.5h.5c.2,0,.4,0,.7,0h0Z"/>
        <path class="cls-5" d="M873.8,77c-.4,0-1.7,0-3.9,0-2.2,0-4.5,0-6.9,0s-3.9,0-5.6,0c-1.8,0-3.2,0-4.1,0,0-.8,0-2.5,0-5.1,0-2.6,0-5.8,0-9.4s0-3.8,0-6.4c0-2.6,0-5.3,0-8,1,0,2.4,0,4.1,0,1.7,0,3.5,0,5.3,0,2.6,0,5,0,7.2,0,2.2,0,3.4,0,3.7,0v4.6c-.2,0-1.1,0-2.8,0-1.7,0-3.4,0-5.4,0s-2.1,0-3.3,0c-1.2,0-2.2,0-2.9,0,0,1.3,0,2.6,0,3.9,0,1.3,0,2.6,0,3.7.7,0,1.6,0,2.7,0,1.1,0,2,0,2.7,0,2.1,0,4,0,5.7,0,1.7,0,2.8,0,3.1,0v4c-.2,0-1.4,0-3.4,0-2,0-3.8,0-5.3,0s-1.6,0-2.8,0c-1.1,0-2.1,0-2.8,0,0,2,0,3.7,0,5,0,1.3,0,2.4,0,3.3.9,0,2,0,3.4,0,1.4,0,2.7,0,3.9,0,1.8,0,3.4,0,4.8,0,1.4,0,2.2,0,2.6,0v4.7h0Z"/>
        <path class="cls-5" d="M610.6,11.8c0-1-.2-1.9-.6-2.7-.4-.8-1-1.5-1.9-2.1-.8-.5-1.6-.9-2.6-1.1-1-.2-1.8-.3-2.7-.3h-.5c0,1.1,0,2.1,0,2.9v4.6c0,1.2,0,2.9,0,4.9h.5c.9,0,1.8-.1,2.7-.3.9-.2,1.7-.5,2.4-.9.9-.6,1.5-1.3,2-2.1.5-.8.7-1.8.7-2.9h0ZM614.1,11.9c0,1.5-.4,2.9-1.1,4-.7,1.2-1.7,2.1-2.8,2.8-1,.6-2.1,1.1-3.4,1.4-1.3.3-2.7.5-4.3.5s-1.4,0-2.2,0c-.8,0-1.2,0-1.3,0,0-.1,0-1.1,0-2.9,0-1.8,0-3.8,0-5.9s0-2.2,0-3.7c0-1.5,0-3.2,0-5.1.1,0,.6,0,1.4,0,.8,0,1.4,0,1.6,0,1.8,0,3.4.2,4.7.5,1.4.3,2.6.8,3.6,1.5,1.2.8,2.1,1.8,2.7,2.9.6,1.1.9,2.5.9,4h0Z"/>
        <path class="cls-5" d="M621.9,20.6h-3.3c0-.6,0-1.6,0-3,0-1.4,0-3.3,0-5.8s0-2.3,0-3.9c0-1.6,0-3.2,0-4.9h3.3c0,1.3,0,2.7,0,4.3,0,1.6,0,3,0,4.1,0,2.5,0,4.4,0,5.9,0,1.5,0,2.6,0,3.3h0Z"/>
        <path class="cls-5" d="M640.8,11.6c0,.7,0,1.4,0,2.2,0,.8,0,1.5,0,2.1,0,.8,0,1.7,0,2.7,0,1,0,1.6,0,2,0,0-.4,0-1,0-.6,0-1.1,0-1.5,0-1.9,0-3.7-.2-5.2-.6-1.5-.4-2.9-1.2-4.1-2.2-.8-.7-1.4-1.6-1.9-2.6-.5-1-.7-2.2-.7-3.5s.4-2.9,1.1-4.1c.7-1.2,1.8-2.2,3.1-3,1-.6,2.2-1.1,3.5-1.4,1.3-.3,2.8-.5,4.4-.5s.4,0,.6,0c.2,0,.3,0,.5,0l.3,2.8c0,0-.2,0-.4,0-.2,0-.4,0-.6,0-1,0-2.1,0-3.1.3-1,.2-1.9.5-2.7.9-1.1.5-1.9,1.2-2.5,2.1-.6.9-.9,1.9-.9,3s.3,2.3.8,3.1c.5.8,1.2,1.5,2.1,2,.7.4,1.5.7,2.3.9.8.2,1.7.3,2.6.3,0-.2,0-.9,0-2,0-1.2,0-2.7,0-4.7h3.2Z"/>
        <path class="cls-5" d="M649,20.6h-3.3c0-.6,0-1.6,0-3,0-1.4,0-3.3,0-5.8s0-2.3,0-3.9c0-1.6,0-3.2,0-4.9h3.3c0,1.3,0,2.7,0,4.3,0,1.6,0,3,0,4.1,0,2.5,0,4.4,0,5.9,0,1.5,0,2.6,0,3.3h0Z"/>
        <path class="cls-5" d="M666.9,5.8c-.3,0-.9,0-1.8,0-1,0-2.3,0-4,0,0,1.5,0,2.7,0,3.6,0,.9,0,2.1,0,3.5s0,3,0,4.6c0,1.5,0,2.6,0,3.1h-3.3c0-.6,0-1.6,0-3,0-1.5,0-3,0-4.7v-3.4c0-.9,0-2.2,0-3.7-1.6,0-2.9,0-3.9,0-1.1,0-1.7,0-1.9,0v-2.8c.7,0,1.8,0,3.1,0,1.4,0,2.8,0,4.2,0s3.4,0,4.9,0c1.5,0,2.3,0,2.6,0v2.8h0Z"/>
        <path class="cls-5" d="M677.1,12.9c-.4-1-.8-2-1.2-3.2-.4-1.1-.9-2.2-1.3-3.3h0c-.4.9-.8,2-1.3,3.3-.5,1.3-.9,2.4-1.2,3.2h0s5,0,5,0h0ZM683.4,19.8l-3.2,1.1c0-.2-.3-.9-.7-2-.4-1.1-.9-2.4-1.5-3.9h-6.7c-.6,1.6-1.2,2.9-1.6,3.9-.4,1-.6,1.7-.7,1.9l-3-1.1c.2-.5,1.1-2.6,2.6-6.3,1.5-3.7,3-7.2,4.5-10.8h3.2c1.5,3.7,3,7.4,4.6,11,1.5,3.7,2.4,5.7,2.5,5.9h0Z"/>
        <path class="cls-5" d="M697.7,20.6c-.3,0-1,0-2.2,0-1.2,0-2.4,0-3.7,0s-1.9,0-2.9,0c-.9,0-1.8,0-2.5,0,0-1.3,0-2.8,0-4.4,0-1.6,0-3.2,0-4.8s0-4,0-5.3c0-1.4,0-2.4,0-3h3.3c0,1,0,2.2,0,3.6,0,1.4,0,2.7,0,3.8,0,1.9,0,3.6,0,5,0,1.5,0,2.3,0,2.4.4,0,.8,0,1.3,0,.5,0,.9,0,1.4,0,1.2,0,2.4,0,3.4,0,1,0,1.7,0,1.9,0v2.7h0Z"/>
        <path class="cls-5" d="M711.2,20.6h-3.3c0-.6,0-1.6,0-3,0-1.4,0-3.3,0-5.8s0-2.3,0-3.9c0-1.6,0-3.2,0-4.9h3.3c0,1.3,0,2.7,0,4.3,0,1.6,0,3,0,4.1,0,2.5,0,4.4,0,5.9,0,1.5,0,2.6,0,3.3h0Z"/>
        <path class="cls-5" d="M732.1,3c0,1.5,0,3,0,4.7,0,1.7,0,2.9,0,3.7,0,2.1,0,4,0,5.5,0,1.6,0,2.5,0,2.8l-2.5,1c-2.2-3.1-4.3-5.9-6.2-8.5-1.9-2.5-3.1-4-3.5-4.6h0c0,2.1,0,4.6,0,7.6,0,2.9,0,4.7,0,5.3h-3.1c0-.4,0-1.2,0-2.6,0-1.4,0-3.3,0-5.6s0-2.2,0-3.7c0-1.5,0-3.1,0-4.8l2.8-1.1c.3.4,1.4,1.9,3.5,4.7,2.1,2.8,4.1,5.3,6,7.7h0c0-1.3,0-3.3,0-6,0-2.7,0-4.7,0-6.2h3.1Z"/>
        <path class="cls-5" d="M753,3c0,1.5,0,3,0,4.7,0,1.7,0,2.9,0,3.7,0,2.1,0,4,0,5.5,0,1.6,0,2.5,0,2.8l-2.5,1c-2.2-3.1-4.3-5.9-6.2-8.5-1.9-2.5-3.1-4-3.5-4.6h0c0,2.1,0,4.6,0,7.6,0,2.9,0,4.7,0,5.3h-3.1c0-.4,0-1.2,0-2.6,0-1.4,0-3.3,0-5.6s0-2.2,0-3.7c0-1.5,0-3.1,0-4.8l2.8-1.1c.3.4,1.4,1.9,3.5,4.7,2.1,2.8,4.1,5.3,6,7.7h0c0-1.3,0-3.3,0-6,0-2.7,0-4.7,0-6.2h3.1Z"/>
        <path class="cls-5" d="M770.9,12c0-1-.2-2-.5-3-.3-1-.8-1.8-1.4-2.4-.4-.4-.9-.8-1.4-1-.5-.2-1.1-.4-1.8-.4s-1.2.1-1.8.4c-.5.2-1,.6-1.5,1.1-.6.6-1,1.4-1.3,2.3-.3.9-.5,1.9-.5,2.9s.2,2.1.5,3c.3.9.8,1.7,1.4,2.3.4.4.9.7,1.4,1,.6.2,1.1.4,1.8.4s1.2-.1,1.8-.4c.5-.2,1-.6,1.5-1,.6-.6,1-1.3,1.4-2.2.3-.9.5-1.9.5-2.9h0ZM774.3,11.9c0,1.4-.2,2.7-.7,3.9-.5,1.2-1.1,2.2-1.9,3-.8.8-1.7,1.4-2.7,1.8-1,.4-2,.6-3.2.6s-2.2-.2-3.1-.6c-1-.4-1.8-.9-2.6-1.7-.9-.8-1.5-1.9-2-3.1-.5-1.2-.7-2.5-.7-4s.2-2.6.6-3.7c.4-1.1,1-2.1,1.9-3,.8-.8,1.7-1.4,2.7-1.9,1-.4,2.2-.7,3.3-.7s2.3.2,3.3.6c1,.4,1.9,1,2.6,1.8.9.9,1.5,1.9,1.9,3.1.4,1.2.6,2.4.6,3.8h0Z"/>
        <path class="cls-5" d="M793.5,3.8c-.1.3-1,2.3-2.6,6.2-1.6,3.9-3.1,7.5-4.5,10.8h-3.1c-1.5-3.6-2.9-7-4.3-10.3s-2.3-5.5-2.7-6.7l3.2-1.1c0,.3.8,2,2,5.2,1.2,3.2,2.4,6.1,3.5,8.7h0c1.1-2.8,2.3-5.7,3.6-8.9,1.2-3.2,1.9-4.8,1.9-5.1l3,1.1h0Z"/>
        <path class="cls-5" d="M804.9,12.9c-.4-1-.8-2-1.2-3.2-.4-1.1-.9-2.2-1.3-3.3h0c-.4.9-.8,2-1.3,3.3-.5,1.3-.9,2.4-1.2,3.2h0s5,0,5,0h0ZM811.2,19.8l-3.2,1.1c0-.2-.3-.9-.7-2-.4-1.1-.9-2.4-1.5-3.9h-6.7c-.6,1.6-1.2,2.9-1.6,3.9-.4,1-.6,1.7-.7,1.9l-3-1.1c.2-.5,1.1-2.6,2.6-6.3,1.5-3.7,3.1-7.2,4.5-10.8h3.2c1.5,3.7,3,7.4,4.6,11,1.5,3.7,2.4,5.7,2.5,5.9h0Z"/>
        <path class="cls-5" d="M825.1,5.8c-.3,0-.9,0-1.8,0-1,0-2.3,0-4,0,0,1.5,0,2.7,0,3.6,0,.9,0,2.1,0,3.5s0,3,0,4.6c0,1.5,0,2.6,0,3.1h-3.3c0-.6,0-1.6,0-3,0-1.5,0-3,0-4.7v-3.4c0-.9,0-2.2,0-3.7-1.6,0-2.9,0-3.9,0-1.1,0-1.7,0-1.9,0v-2.8c.7,0,1.8,0,3.1,0,1.4,0,2.8,0,4.2,0s3.4,0,4.9,0c1.5,0,2.3,0,2.6,0v2.8h0Z"/>
        <path class="cls-5" d="M831.5,20.6h-3.3c0-.6,0-1.6,0-3,0-1.4,0-3.3,0-5.8s0-2.3,0-3.9c0-1.6,0-3.2,0-4.9h3.3c0,1.3,0,2.7,0,4.3,0,1.6,0,3,0,4.1,0,2.5,0,4.4,0,5.9,0,1.5,0,2.6,0,3.3h0Z"/>
        <path class="cls-5" d="M849.4,12c0-1-.2-2-.5-3-.3-1-.8-1.8-1.4-2.4-.4-.4-.9-.8-1.4-1-.5-.2-1.1-.4-1.8-.4s-1.2.1-1.8.4c-.5.2-1,.6-1.5,1.1-.6.6-1,1.4-1.3,2.3-.3.9-.5,1.9-.5,2.9s.2,2.1.5,3c.3.9.8,1.7,1.4,2.3.4.4.9.7,1.4,1s1.1.4,1.8.4,1.2-.1,1.8-.4c.5-.2,1-.6,1.5-1,.6-.6,1-1.3,1.4-2.2.3-.9.5-1.9.5-2.9h0ZM852.9,11.9c0,1.4-.2,2.7-.7,3.9-.5,1.2-1.1,2.2-1.9,3-.8.8-1.7,1.4-2.7,1.8-1,.4-2,.6-3.2.6s-2.2-.2-3.1-.6c-1-.4-1.8-.9-2.6-1.7-.9-.8-1.5-1.9-2-3.1-.5-1.2-.7-2.5-.7-4s.2-2.6.6-3.7c.4-1.1,1-2.1,1.9-3,.8-.8,1.7-1.4,2.7-1.9,1-.4,2.2-.7,3.3-.7s2.3.2,3.3.6c1,.4,1.9,1,2.6,1.8.9.9,1.5,1.9,1.9,3.1.4,1.2.6,2.4.6,3.8h0Z"/>
        <path class="cls-5" d="M872.6,3c0,1.5,0,3,0,4.7,0,1.7,0,2.9,0,3.7,0,2.1,0,4,0,5.5,0,1.6,0,2.5,0,2.8l-2.5,1c-2.2-3.1-4.3-5.9-6.2-8.5-1.9-2.5-3.1-4-3.5-4.6h0c0,2.1,0,4.6,0,7.6,0,2.9,0,4.7,0,5.3h-3.1c0-.4,0-1.2,0-2.6,0-1.4,0-3.3,0-5.6s0-2.2,0-3.7c0-1.5,0-3.1,0-4.8l2.8-1.1c.3.4,1.4,1.9,3.5,4.7,2.1,2.8,4.1,5.3,6,7.7h0c0-1.3,0-3.3,0-6,0-2.7,0-4.7,0-6.2h3.1Z"/>
        <path class="cls-2" d="M423,40.1c0-4.1,3.3-7.4,7.4-7.4s7.4,3.3,7.4,7.4-3.3,7.4-7.4,7.4-7.4-3.3-7.4-7.4h0Z"/>
      </g>
      <g>
        <g>
          <rect class="cls-3" y="0" width="80.1" height="80.1"/>
          <path class="cls-4" d="M61.4,16.2v28.1c0,6.3-1.9,11.4-5.6,15.2-3.7,3.8-9,5.7-15.7,5.7s-12-1.9-15.8-5.7c-3.7-3.8-5.6-8.9-5.6-15.2v-28.1h11.5v27.9c0,3.2.8,5.8,2.5,7.7,1.7,2,4.1,3,7.3,3s5.6-1,7.3-3c1.7-2,2.5-4.5,2.5-7.7v-27.9h11.5Z"/>
          <rect class="cls-3" x="88.2" y="0" width="80.1" height="80.1"/>
          <rect class="cls-3" x="176.4" y="0" width="80.1" height="80.1"/>
          <rect class="cls-3" x="264.5" y="0" width="80.1" height="80.1"/>
          <polygon class="cls-4" points="153.8 16 153.8 64.1 142.4 64.1 142.4 36 128.3 55.3 114.2 36 114.2 64.1 102.8 64.1 102.8 16 113.6 16 128.3 37.4 142.9 16 153.8 16"/>
          <path class="cls-4" d="M221.8,53.1c1.3-1.3,2-3,2-5.1s-.7-3.7-2-5c-1.3-1.4-3.1-2-5.4-2s-4,.7-5.3,2c-1.4,1.3-2.1,3-2.1,5.1s.7,3.8,2,5.1c1.4,1.3,3.2,2,5.4,2s4-.7,5.4-2M230.4,36.3c3.2,3.1,4.8,7,4.8,11.7s-1.8,9.1-5.3,12.4c-3.6,3.3-8,4.9-13.4,4.9s-9.8-1.6-13.4-4.9c-3.6-3.3-5.4-7.4-5.4-12.4s1.1-6.6,3.4-10.2l13.6-21.6h12.8l-9.4,14.9c5,.4,9.1,2.1,12.2,5.2"/>
          <path class="cls-4" d="M311.8,38.4c1.3-1.4,1.9-3.1,1.9-4.9s-.6-3.5-1.8-4.9c-1.2-1.4-2.8-2.1-4.6-2.1h-11.6v14.1h11.1c2,0,3.7-.7,5-2.1M320,21.3c3.2,3.5,4.8,7.5,4.8,12s-1.6,8.6-4.8,12.1c-3.2,3.5-7.5,5.3-12.9,5.3h-11.4v13.4h-11.3V16h23.1c5.1,0,9.3,1.8,12.5,5.3"/>
        </g>
        <rect class="cls-1" x="384.9" width="1" height="80.2"/>
      </g>
    </g>
  </g>
</svg>