<?xml version="1.0" encoding="UTF-8"?>
<svg id="Layer_2" data-name="Layer 2" xmlns="http://www.w3.org/2000/svg" viewBox="0 0 570.5 80.3">
  <defs>
    <style>
      .cls-1 {
        fill: #d1451e;
      }

      .cls-1, .cls-2, .cls-3, .cls-4 {
        stroke-width: 0px;
      }

      .cls-2 {
        fill: #d74a2a;
      }

      .cls-3 {
        fill: #1d1652;
      }

      .cls-4 {
        fill: #fff;
      }
    </style>
  </defs>
  <g id="Layer_1-2" data-name="Layer 1">
    <g>
      <g id="Layer_2-2" data-name="Layer 2">
        <g id="Layer_1-2" data-name="Layer 1-2">
          <path class="cls-3" d="M426.5,55.5h0c0-3.4,2.6-6.3,6.1-6.4,0,0,.2,0,.2,0,1.8,0,3.6.7,4.8,2l-1,1.1c-1-1.1-2.4-1.7-3.9-1.7-2.7,0-4.8,2.2-4.8,4.9,0,0,0,.1,0,.2h0c-.1,2.7,2,5,4.7,5.1,0,0,0,0,.1,0,1.5,0,3-.6,4-1.8l.9.9c-1.3,1.4-3.1,2.2-4.9,2.2-3.4,0-6.2-2.7-6.3-6.1,0,0,0-.2,0-.3Z"/>
          <path class="cls-3" d="M443.7,60.7c1.1,0,2.2-.5,2.9-1.3l.8.8c-.9,1.1-2.3,1.8-3.8,1.7-2.6-.2-4.7-2.4-4.5-5.1.1-2.4,2-4.2,4.3-4.5,2.7,0,4.3,2.2,4.3,4.8,0,.2,0,.3,0,.5h-7.2c0,1.7,1.5,3.1,3.2,3ZM446.4,56.5c-.2-1.7-1.1-3.1-2.9-3.1-1.6,0-2.9,1.4-3,3.1h5.9Z"/>
          <path class="cls-3" d="M450.1,52.5h1.3v1.6c.6-1.1,1.8-1.8,3.2-1.8,1.8,0,3.4,1.3,3.5,3.2,0,.2,0,.3,0,.5v5.7h-1.4v-5.3c.2-1.3-.8-2.6-2.1-2.7-.1,0-.3,0-.4,0-1.5,0-2.7,1.1-2.7,2.6,0,0,0,.2,0,.2v5.3h-1.4v-9.2Z"/>
          <path class="cls-3" d="M461.5,59.2v-5.5h-1.3v-1.2h1.3v-2.8h1.4v2.8h2.9v1.2h-2.9v5.3c-.1.7.4,1.4,1.2,1.5.1,0,.2,0,.4,0,.5,0,.9-.1,1.3-.3v1.2c-.5.3-1.1.4-1.6.4-1.3.1-2.4-.8-2.6-2,0-.2,0-.4,0-.5Z"/>
          <path class="cls-3" d="M471.9,60.7c1.1,0,2.2-.5,2.9-1.3l.8.8c-.9,1.1-2.3,1.8-3.8,1.7-2.6-.2-4.7-2.4-4.5-5.1.1-2.4,2-4.2,4.3-4.5,2.7,0,4.3,2.2,4.3,4.8,0,.2,0,.3,0,.5h-7.2c0,1.7,1.5,3.1,3.2,3ZM474.6,56.5c-.2-1.7-1.1-3.1-2.9-3.1-1.6,0-2.9,1.4-3,3.1h5.9Z"/>
          <path class="cls-3" d="M478.4,52.5h1.4v2.4c.6-1.6,2.1-2.6,3.7-2.5v1.5h-.1c-2,0-3.6,1.4-3.6,4.2v3.6h-1.4v-9.2Z"/>
          <path class="cls-3" d="M491.4,53.7h-1.3v-1.2h1.3v-.7c0-.9.2-1.7.8-2.4.5-.5,1.2-.7,2-.7.5,0,1,0,1.5.2v1.2c-.4-.1-.9-.2-1.3-.2-1.1,0-1.6.6-1.6,1.9v.7h2.9v1.2h-2.9v7.9h-1.3v-8Z"/>
          <path class="cls-3" d="M496.6,57.1h0c.1-2.6,2.4-4.7,5-4.5,2.5.1,4.4,2.1,4.5,4.5h0c0,2.6-2.1,4.8-4.7,4.8,0,0,0,0,0,0-2.6,0-4.7-2-4.7-4.6,0,0,0-.1,0-.2ZM504.8,57.1h0c0-1.9-1.4-3.5-3.3-3.6,0,0,0,0,0,0-1.9,0-3.4,1.5-3.3,3.4,0,0,0,0,0,.1h0c0,1.9,1.4,3.5,3.3,3.5,0,0,0,0,0,0,1.9,0,3.3-1.6,3.3-3.4,0,0,0,0,0,0h0Z"/>
          <path class="cls-3" d="M508.6,52.5h1.4v2.4c.6-1.6,2.1-2.6,3.7-2.5v1.5h-.1c-2,0-3.6,1.4-3.6,4.2v3.6h-1.4v-9.2Z"/>
          <path class="cls-3" d="M427,67.7h4.3c3.9,0,6.6,2.7,6.6,6.2h0c0,3.5-2.7,6.2-6.6,6.2h-4.3v-12.3ZM431.3,78.8c2.6.2,4.9-1.8,5.1-4.4,0-.1,0-.3,0-.4h0c0-2.7-2.1-4.9-4.7-4.9-.1,0-.3,0-.4,0h-2.9v9.8h2.9Z"/>
          <path class="cls-3" d="M440.1,75.6h0c.1-2.6,2.4-4.7,5-4.5,2.5.1,4.4,2.1,4.5,4.5h0c0,2.6-2.1,4.8-4.7,4.8,0,0,0,0,0,0-2.6,0-4.7-2-4.7-4.6,0,0,0-.1,0-.2ZM448.2,75.6h0c0-1.9-1.4-3.5-3.3-3.6,0,0,0,0,0,0-1.9,0-3.4,1.5-3.3,3.4,0,0,0,0,0,.1h0c0,1.9,1.4,3.5,3.3,3.5,0,0,0,0,0,0,1.9,0,3.4-1.5,3.4-3.4,0,0,0,0,0-.1Z"/>
          <path class="cls-3" d="M451.5,75.6h0c0-2.6,2.1-4.8,4.7-4.8,1.4,0,2.7.6,3.6,1.6l-.9,1c-.7-.8-1.7-1.3-2.8-1.4-1.9,0-3.3,1.6-3.3,3.5,0,0,0,0,0,0h0c0,1.9,1.4,3.5,3.3,3.5,0,0,0,0,0,0,1.1,0,2.1-.5,2.8-1.4l.9.8c-1.6,2-4.6,2.3-6.6.7-1.1-.9-1.8-2.2-1.8-3.7h0Z"/>
          <path class="cls-3" d="M462.6,77.7v-5.5h-1.3v-1.2h1.3v-2.8h1.4v2.8h2.9v1.2h-2.9v5.3c-.1.7.4,1.4,1.1,1.5.1,0,.3,0,.4,0,.5,0,.9-.1,1.3-.3v1.2c-.5.3-1.1.4-1.6.4-1.3.1-2.4-.8-2.6-2.1,0-.2,0-.3,0-.5Z"/>
          <path class="cls-3" d="M468.5,75.6h0c.1-2.6,2.4-4.7,5-4.5,2.5.1,4.4,2.1,4.5,4.5h0c0,2.6-2.1,4.8-4.7,4.8,0,0,0,0,0,0-2.6,0-4.7-2-4.7-4.6,0,0,0-.1,0-.2ZM476.6,75.6h0c0-1.9-1.4-3.5-3.3-3.6,0,0,0,0,0,0-1.9,0-3.4,1.5-3.3,3.4,0,0,0,0,0,.1h0c0,1.9,1.4,3.5,3.3,3.5,0,0,0,0,0,0,1.9,0,3.4-1.5,3.4-3.4,0,0,0,0,0-.1Z"/>
          <path class="cls-3" d="M480.4,70.9h1.4v2.4c.6-1.6,2.1-2.6,3.7-2.5v1.5h-.1c-2,0-3.6,1.4-3.6,4.2v3.7h-1.4v-9.2Z"/>
          <path class="cls-3" d="M486.5,77.4h0c0-2,1.6-3,3.9-3,.9,0,1.9.1,2.8.4v-.3c0-1.6-1-2.5-2.7-2.5-1,0-1.9.2-2.8.7l-.4-1.1c1-.5,2.2-.8,3.3-.8,1.1,0,2.2.3,3,1.1.7.7,1,1.7,1,2.7v5.6h-1.3v-1.4c-.8,1-2,1.6-3.3,1.6-1.7,0-3.4-1-3.4-2.9ZM493.2,76.7v-.8c-.9-.3-1.8-.4-2.7-.4-1.7,0-2.7.7-2.7,1.8h0c0,1.1,1.1,1.8,2.3,1.8,1.7,0,3-1,3-2.5Z"/>
          <path class="cls-3" d="M497.5,67.2h1.4v13h-1.4v-13Z"/>
          <path class="cls-3" d="M506.8,78.3l.9-1.1c1.1,1.1,2.6,1.7,4.2,1.7,1.7,0,2.8-.9,2.8-2.1h0c0-1.1-.6-1.8-3.2-2.4-2.8-.6-4.2-1.5-4.2-3.6h0c0-1.9,1.7-3.4,4.1-3.4,1.6,0,3.1.5,4.3,1.5l-.8,1.1c-1-.9-2.3-1.3-3.6-1.3-1.6,0-2.6.9-2.6,2h0c0,1.2.6,1.8,3.4,2.4s4,1.6,4,3.5h0c0,2.1-1.8,3.5-4.2,3.5-1.8,0-3.6-.7-5-1.9Z"/>
          <path class="cls-3" d="M519.1,77.7v-5.5h-1.3v-1.2h1.3v-2.8h1.4v2.8h2.9v1.2h-2.9v5.3c-.1.7.4,1.4,1.1,1.5.1,0,.3,0,.4,0,.5,0,.9-.1,1.3-.3v1.2c-.5.3-1.1.4-1.6.4-1.3.2-2.4-.8-2.6-2,0-.2,0-.4,0-.5Z"/>
          <path class="cls-3" d="M525.6,76.6v-5.7h1.4v5.3c-.2,1.3.8,2.6,2.1,2.7.1,0,.3,0,.4,0,1.5,0,2.7-1.2,2.7-2.7,0,0,0-.1,0-.2v-5.3h1.3v9.2h-1.3v-1.6c-.6,1.1-1.8,1.8-3.2,1.8-1.8,0-3.4-1.3-3.5-3.2,0-.2,0-.4,0-.5Z"/>
          <path class="cls-3" d="M536.1,75.5h0c-.1-2.5,1.7-4.6,4.2-4.7,0,0,.1,0,.2,0,1.4,0,2.7.7,3.5,1.9v-5.5h1.4v12.9h-1.4v-1.9c-.7,1.2-2.1,2-3.5,2-2.5,0-4.4-2.1-4.3-4.6,0,0,0-.1,0-.2ZM544,75.5h0c0-1.9-1.4-3.4-3.3-3.5,0,0,0,0,0,0-1.8,0-3.2,1.4-3.2,3.2,0,0,0,.2,0,.3h0c-.1,1.8,1.2,3.4,3,3.5,0,0,.1,0,.2,0,1.9,0,3.4-1.6,3.3-3.5,0,0,0,0,0,0h0Z"/>
          <path class="cls-3" d="M548.4,67.4h1.6v1.5h-1.6v-1.5ZM548.5,70.9h1.4v9.2h-1.4v-9.2Z"/>
          <path class="cls-3" d="M557,79.1c1.1,0,2.2-.5,2.9-1.3l.9.8c-.9,1.1-2.3,1.8-3.8,1.7-2.6-.1-4.7-2.4-4.6-5,.1-2.4,2-4.4,4.4-4.5,2.7,0,4.3,2.2,4.3,4.8,0,.2,0,.3,0,.5h-7.2c0,1.7,1.5,3.1,3.2,3ZM559.7,74.9c-.2-1.7-1.1-3.1-2.9-3.1-1.6,0-2.9,1.4-3,3.1h5.9Z"/>
          <path class="cls-3" d="M562.7,78.9l.7-1c.9.7,2,1.1,3.2,1.2,1.1,0,1.9-.6,1.9-1.4h0c0-.9-1.1-1.3-2.3-1.6-1.4-.4-3-.9-3-2.6h0c0-1.6,1.3-2.6,3.2-2.6,1.2,0,2.3.4,3.3,1.1l-.6,1.1c-.8-.5-1.7-.9-2.7-.9-1.1,0-1.8.6-1.8,1.3h0c0,.9,1.1,1.2,2.3,1.6,1.4.4,2.9,1,2.9,2.6h0c0,1.7-1.4,2.7-3.3,2.7-1.4,0-2.7-.5-3.8-1.4Z"/>
          <path class="cls-3" d="M426.5,16.8h0c-.2-9.1,7-16.6,16-16.8.2,0,.5,0,.7,0,4.7-.2,9.3,1.7,12.6,5l-3.6,4.2c-2.6-2.4-5.3-4-9-4-6.2,0-10.7,5.1-10.7,11.4h0c0,6.4,4.5,11.6,10.7,11.6s6.5-1.6,9.3-4.2l3.6,3.7c-3.3,3.8-8.1,5.9-13.1,5.7-9,0-16.3-7.1-16.4-16.1,0-.2,0-.3,0-.5Z"/>
          <path class="cls-3" d="M459.7.6h23.9v5.1h-18.3v8.4h16.2v5.1h-16.2v8.7h18.5v5.1h-24.2V.6Z"/>
          <path class="cls-3" d="M488.2.6h12c10.1,0,17.2,7,17.2,16.1h0c0,9.2-7,16.2-17.2,16.2h-12V.6ZM500.3,27.7c6.8,0,11.2-4.6,11.2-10.9h0c0-6.4-4.4-11.1-11.2-11.1h-6.4v22h6.4Z"/>
          <path class="cls-3" d="M520,16.8h0c0-7.3,5.8-13.1,13-13.1s13,5.8,13,13h0c0,7.1-5.7,12.8-12.8,12.8,0,0-.2,0-.3,0-7,.2-12.7-5.3-12.9-12.3,0-.1,0-.2,0-.3ZM540.4,16.8h0c.2-4.3-3.1-7.8-7.2-7.9,0,0-.2,0-.3,0-4.5,0-7.4,3.5-7.4,7.8h0c-.2,4.3,3.1,7.8,7.3,7.9,0,0,.1,0,.2,0,4.5,0,7.4-3.6,7.4-7.8Z"/>
          <path class="cls-3" d="M548,16.8h0c0-7.1,5.5-12.8,12.5-12.8,0,0,0,0,.1,0,3.7-.2,7.3,1.4,9.7,4.2l-3.5,3.7c-1.5-1.9-3.9-3-6.3-3-4.1,0-7,3.5-7,7.8h0c0,4.4,3,7.9,7.3,7.9,2.4,0,4.7-1.2,6.3-3l3.4,3.3c-2.4,3-6.1,4.7-10,4.6-6.9,0-12.5-5.5-12.6-12.3,0,0,0-.2,0-.3Z"/>
          <path class="cls-3" d="M488.2.6h12c10.1,0,17.2,7,17.2,16.1h0c0,9.2-7,16.2-17.2,16.2h-12V.6ZM500.3,27.7c6.8,0,11.2-4.6,11.2-10.9h0c0-6.4-4.4-11.1-11.2-11.1h-6.4v22h6.4Z"/>
        </g>
      </g>
      <g>
        <g>
          <rect class="cls-2" y=".1" width="80.1" height="80.1"/>
          <path class="cls-4" d="M61.4,16.3v28.1c0,6.3-1.9,11.4-5.6,15.2-3.7,3.8-9,5.7-15.7,5.7s-12-1.9-15.8-5.7c-3.7-3.8-5.6-8.9-5.6-15.2v-28.1h11.5v27.9c0,3.2.8,5.8,2.5,7.7,1.7,2,4.1,3,7.3,3s5.6-1,7.3-3c1.7-2,2.5-4.5,2.5-7.7v-27.9h11.5Z"/>
          <rect class="cls-2" x="88.2" y=".1" width="80.1" height="80.1"/>
          <rect class="cls-2" x="176.4" y=".1" width="80.1" height="80.1"/>
          <rect class="cls-2" x="264.5" y=".1" width="80.1" height="80.1"/>
          <polygon class="cls-4" points="153.8 16.1 153.8 64.2 142.4 64.2 142.4 36 128.3 55.4 114.2 36 114.2 64.2 102.8 64.2 102.8 16.1 113.6 16.1 128.3 37.5 142.9 16.1 153.8 16.1"/>
          <path class="cls-4" d="M221.8,53.2c1.3-1.3,2-3,2-5.1s-.7-3.7-2-5c-1.3-1.4-3.1-2-5.4-2s-4,.7-5.3,2c-1.4,1.3-2.1,3-2.1,5.1s.7,3.8,2,5.1c1.4,1.3,3.2,2,5.4,2s4-.7,5.4-2M230.4,36.4c3.2,3.1,4.8,7,4.8,11.7s-1.8,9.1-5.3,12.4c-3.6,3.3-8,4.9-13.4,4.9s-9.8-1.6-13.4-4.9c-3.6-3.3-5.4-7.4-5.4-12.4s1.1-6.6,3.4-10.2l13.6-21.6h12.8l-9.4,14.9c5,.4,9.1,2.1,12.2,5.2"/>
          <path class="cls-4" d="M311.8,38.5c1.3-1.4,1.9-3.1,1.9-4.9s-.6-3.5-1.8-4.9c-1.2-1.4-2.8-2.1-4.6-2.1h-11.6v14.1h11.1c2,0,3.7-.7,5-2.1M320,21.4c3.2,3.5,4.8,7.5,4.8,12s-1.6,8.6-4.8,12.1c-3.2,3.5-7.5,5.3-12.9,5.3h-11.4v13.4h-11.3V16.1h23.1c5.1,0,9.3,1.8,12.5,5.3"/>
        </g>
        <rect class="cls-1" x="384.9" y="0" width="1" height="80.2"/>
      </g>
    </g>
  </g>
</svg>