<?xml version="1.0" encoding="UTF-8"?>
<svg id="Layer_2" data-name="Layer 2" xmlns="http://www.w3.org/2000/svg" viewBox="0 0 600.9 80.2">
  <defs>
    <style>
      .cls-1 {
        fill: #d1451e;
      }

      .cls-1, .cls-2, .cls-3, .cls-4, .cls-5 {
        stroke-width: 0px;
      }

      .cls-2 {
        fill: #7a24a9;
      }

      .cls-3 {
        fill: #d74a2a;
      }

      .cls-4 {
        fill: #3b3b3c;
      }

      .cls-5 {
        fill: #fff;
      }
    </style>
  </defs>
  <g id="Layer_1-2" data-name="Layer 1">
    <g>
      <g>
        <g>
          <rect class="cls-3" y="0" width="79.9" height="79.9"/>
          <path class="cls-5" d="M61.3,16.2v28c0,6.3-1.9,11.4-5.6,15.2-3.7,3.8-9,5.7-15.7,5.7s-12-1.9-15.7-5.7-5.6-8.9-5.6-15.2v-28h11.5v27.8c0,3.2.8,5.8,2.5,7.7,1.7,2,4.1,2.9,7.3,2.9s5.6-1,7.3-2.9c1.7-2,2.5-4.5,2.5-7.7v-27.8h11.5Z"/>
          <rect class="cls-3" x="88" y="0" width="79.9" height="79.9"/>
          <rect class="cls-3" x="175.9" y="0" width="79.9" height="79.9"/>
          <rect class="cls-3" x="263.9" y="0" width="79.9" height="79.9"/>
          <polygon class="cls-5" points="153.4 16 153.4 64 142.1 64 142.1 35.9 127.9 55.1 113.9 35.9 113.9 64 102.5 64 102.5 16 113.3 16 128 37.3 142.6 16 153.4 16"/>
          <path class="cls-5" d="M221.3,53c1.3-1.3,2-3,2-5.1s-.7-3.7-2-5c-1.3-1.3-3.1-2-5.4-2s-4,.7-5.3,2c-1.4,1.3-2.1,3-2.1,5.1s.7,3.8,2,5.1c1.3,1.3,3.1,2,5.4,2s4-.7,5.4-2M229.9,36.2c3.2,3.1,4.7,7,4.7,11.7s-1.8,9-5.3,12.3c-3.6,3.3-8,4.9-13.3,4.9s-9.8-1.6-13.4-4.9c-3.6-3.3-5.4-7.4-5.4-12.4s1.1-6.6,3.4-10.2l13.6-21.5h12.8l-9.4,14.8c5,.4,9,2.1,12.2,5.2"/>
          <path class="cls-5" d="M311,38.3c1.3-1.4,1.9-3,1.9-4.9s-.6-3.5-1.8-4.9c-1.2-1.4-2.8-2.1-4.6-2.1h-11.6v14.1h11.1c2,0,3.7-.7,4.9-2.1M319.2,21.3c3.2,3.5,4.8,7.5,4.8,12s-1.6,8.5-4.8,12c-3.2,3.5-7.5,5.3-12.8,5.3h-11.4v13.4h-11.2V16h23.1c5.1,0,9.2,1.8,12.4,5.3"/>
        </g>
        <rect class="cls-1" x="384" width="1" height="80"/>
      </g>
      <g>
        <rect class="cls-2" x="413.2" y="0" width="58.6" height="58.6"/>
        <rect class="cls-2" x="477.8" y="0" width="58.6" height="58.6"/>
        <rect class="cls-2" x="542.3" y="0" width="58.6" height="58.6"/>
      </g>
      <g>
        <path class="cls-4" d="M421.7,71.3h-3.5v8.7h-1.5v-8.7h-3.5v-1.4h8.4v1.4Z"/>
        <path class="cls-4" d="M426.7,72.5c.9,0,1.6.3,2.1.9.5.6.7,1.3.7,2.3v4.2h-1.5v-4c0-.6-.1-1.1-.4-1.5s-.7-.5-1.3-.5-1.1.2-1.5.7c-.4.4-.6,1-.6,1.8v3.6h-1.5v-10.5h1.5v4.3c.6-.8,1.4-1.3,2.4-1.3h0Z"/>
        <path class="cls-4" d="M434.8,80.2c-1.1,0-2-.4-2.7-1.1-.7-.7-1-1.6-1-2.8s.3-2,1-2.7c.7-.7,1.5-1.1,2.6-1.1s2,.3,2.6,1c.6.7,1,1.6,1,2.6s0,.4,0,.6h-5.7c0,.6.3,1.1.7,1.5.4.4,1,.6,1.7.6s1.6-.4,2-1.2l1.3.4c-.3.6-.7,1.1-1.3,1.5-.6.4-1.3.6-2.1.6h0ZM436.8,75.8c0-.6-.3-1-.6-1.4-.4-.4-.9-.5-1.5-.5s-1.1.2-1.5.6c-.4.4-.6.8-.7,1.4h4.3Z"/>
        <path class="cls-4" d="M447.1,80.2c-1.1,0-2-.3-2.8-.9-.8-.6-1.3-1.3-1.6-2.2l1.4-.4c.2.6.6,1.1,1.2,1.5s1.2.6,1.9.6,1.2-.2,1.6-.5c.4-.3.6-.7.6-1.1s-.1-.6-.4-.9c-.2-.2-.6-.4-1.2-.6l-2.5-.8c-1.5-.5-2.2-1.3-2.2-2.5s.3-1.4,1-2c.6-.5,1.5-.8,2.4-.8s1.9.2,2.6.7,1.2,1.1,1.5,1.8l-1.4.4c-.2-.5-.6-.9-1.1-1.1-.5-.3-1-.4-1.6-.4s-1,.1-1.3.4-.5.6-.5.9.1.5.3.7c.2.2.5.4,1,.5l2.4.8c.9.3,1.5.6,1.9,1s.7,1,.7,1.7-.4,1.6-1.1,2.2c-.7.6-1.6.9-2.8.9h0Z"/>
        <path class="cls-4" d="M456.7,79.7c-.5.2-1.1.3-1.6.3-.7,0-1.3-.2-1.7-.7-.4-.4-.5-1-.5-1.8v-3.6h-1.3v-1.3h1.3v-2.4h1.5v2.4h2.2v1.3h-2.2v3.6c0,.7.3,1.1,1,1.1s.6,0,.9-.2l.4,1.2Z"/>
        <path class="cls-4" d="M464.7,72.7v7.2h-1.5v-1.1c-.6.9-1.4,1.3-2.4,1.3-.9,0-1.6-.3-2.1-.9-.5-.6-.7-1.3-.7-2.3v-4.2h1.5v4c0,.6.2,1.1.4,1.5.3.4.7.5,1.3.5s1.1-.2,1.5-.7c.4-.4.6-1,.6-1.8v-3.6h1.5Z"/>
        <path class="cls-4" d="M473.7,69.4v10.5h-1.5v-1.1c-.6.9-1.4,1.3-2.5,1.3-1,0-1.8-.4-2.5-1.1-.7-.7-1-1.6-1-2.7s.3-2,1-2.7c.7-.7,1.5-1.1,2.5-1.1s2,.4,2.5,1.3v-4.4h1.5ZM469.9,78.8c.7,0,1.2-.2,1.7-.7.5-.5.7-1.1.7-1.8s-.2-1.3-.7-1.7c-.5-.5-1-.7-1.7-.7s-1.2.2-1.7.7c-.4.5-.6,1-.6,1.7s.2,1.3.7,1.8c.4.5,1,.7,1.7.7h0Z"/>
        <path class="cls-4" d="M479,80.2c-1.1,0-2-.4-2.7-1.1s-1-1.6-1-2.8.3-2,1-2.7c.7-.7,1.5-1.1,2.6-1.1s2,.3,2.6,1c.6.7,1,1.6,1,2.6s0,.4,0,.6h-5.7c0,.6.3,1.1.7,1.5.4.4,1,.6,1.7.6s1.6-.4,2-1.2l1.3.4c-.3.6-.7,1.1-1.3,1.5-.6.4-1.3.6-2.1.6h0ZM481,75.8c0-.6-.3-1-.6-1.4-.4-.4-.9-.5-1.5-.5s-1.1.2-1.5.6c-.4.4-.6.8-.7,1.4h4.3Z"/>
        <path class="cls-4" d="M487.9,72.5c.9,0,1.6.3,2.1.9.5.6.7,1.3.7,2.3v4.2h-1.5v-4c0-.6-.1-1.1-.4-1.5s-.7-.5-1.3-.5-1.1.2-1.5.7c-.4.4-.6,1-.6,1.8v3.6h-1.5v-7.2h1.5v1.1c.6-.8,1.4-1.3,2.4-1.3h0Z"/>
        <path class="cls-4" d="M496.9,79.7c-.5.2-1.1.3-1.6.3-.7,0-1.3-.2-1.7-.7-.4-.4-.5-1-.5-1.8v-3.6h-1.3v-1.3h1.3v-2.4h1.5v2.4h2.2v1.3h-2.2v3.6c0,.7.3,1.1,1,1.1s.6,0,.9-.2l.4,1.2Z"/>
        <path class="cls-4" d="M508.2,77.5h-4.7l-.9,2.4h-1.6l3.9-10.1h1.9l3.9,10.1h-1.6l-.9-2.4ZM507.7,76.1l-1.8-4.8-1.8,4.8h3.6Z"/>
        <path class="cls-4" d="M518.5,72.7h2.3v1.3h-2.3v5.9h-1.5v-5.9h-3v5.9h-1.5v-5.9h-1.4v-1.3h1.4v-.8c0-.8.2-1.5.6-2,.4-.5,1-.7,1.8-.7s1.1,0,1.5.3l-.3,1.2c-.3-.1-.6-.2-1-.2-.7,0-1.1.5-1.1,1.4v.8h3v-.8c0-.8.2-1.5.6-2,.4-.5,1-.7,1.8-.7s1.1,0,1.5.3l-.4,1.2c-.3-.1-.6-.2-.9-.2-.7,0-1.1.4-1.1,1.4v.8Z"/>
        <path class="cls-4" d="M524.5,80.1c-1,0-1.8-.4-2.5-1.1-.7-.7-1-1.6-1-2.7s.3-2,1-2.7c.7-.7,1.5-1.1,2.5-1.1s2,.4,2.5,1.3v-1.1h1.5v7.2h-1.5v-1.1c-.6.9-1.4,1.3-2.5,1.3h0ZM524.8,78.8c.7,0,1.2-.2,1.7-.7.5-.5.7-1.1.7-1.8s-.2-1.3-.7-1.7c-.5-.5-1-.7-1.7-.7s-1.2.2-1.7.7c-.4.5-.6,1-.6,1.7s.2,1.3.7,1.8,1,.7,1.7.7h0Z"/>
        <path class="cls-4" d="M530.6,71.3c-.2-.2-.3-.4-.3-.7s0-.5.3-.6c.2-.2.4-.3.7-.3s.5,0,.7.3c.2.2.3.4.3.6s0,.5-.3.7-.4.3-.7.3-.5,0-.7-.3ZM530.5,72.7h1.5v7.2h-1.5v-7.2Z"/>
        <path class="cls-4" d="M535.4,73.9c.2-.4.5-.8.9-1,.4-.2.9-.3,1.5-.2v1.4c-.8-.1-1.4,0-1.8.5s-.6,1.2-.6,2.2v3.3h-1.5v-7.2h1.5v1.2h0Z"/>
        <path class="cls-4" d="M541.7,80.2c-.8,0-1.5-.2-2.1-.6-.6-.4-1-.9-1.2-1.6l1.3-.4c.1.4.4.7.8,1s.8.4,1.3.4.8,0,1.1-.3.4-.4.4-.7,0-.4-.2-.5c-.1-.1-.4-.2-.7-.3l-1.9-.6c-1.1-.3-1.7-1-1.7-1.9s.3-1.1.8-1.5c.5-.4,1.2-.6,1.9-.6s1.4.2,1.9.5c.5.3.9.8,1.1,1.3l-1.3.4c-.1-.3-.4-.5-.7-.7-.3-.2-.7-.3-1.1-.3s-.7,0-.9.3c-.2.2-.3.4-.3.6s.3.6.8.7l1.9.6c.6.2,1,.4,1.4.7.3.3.5.7.5,1.3s-.3,1.2-.8,1.6c-.6.4-1.3.7-2.1.7h0Z"/>
        <path class="cls-4" d="M553.8,69.9c1.4,0,2.6.5,3.5,1.4.9.9,1.3,2.1,1.3,3.6s-.4,2.7-1.3,3.6c-.9.9-2,1.4-3.5,1.4h-4v-10.1h4ZM553.8,78.6c1,0,1.8-.3,2.4-1,.6-.7.9-1.6.9-2.6s-.3-1.9-.9-2.6-1.4-1-2.4-1h-2.5v7.2h2.5Z"/>
        <path class="cls-4" d="M560.2,71.3c-.2-.2-.3-.4-.3-.7s0-.5.3-.6c.2-.2.4-.3.7-.3s.5,0,.7.3c.2.2.3.4.3.6s0,.5-.3.7-.4.3-.7.3-.5,0-.7-.3ZM560.1,72.7h1.5v7.2h-1.5v-7.2Z"/>
        <path class="cls-4" d="M570.4,72.7l-3,7.2h-1.6l-3-7.2h1.6l2.2,5.6,2.2-5.6h1.6Z"/>
        <path class="cls-4" d="M571.5,71.3c-.2-.2-.3-.4-.3-.7s0-.5.3-.6c.2-.2.4-.3.7-.3s.5,0,.7.3c.2.2.3.4.3.6s0,.5-.3.7-.4.3-.7.3-.5,0-.7-.3ZM571.5,72.7h1.5v7.2h-1.5v-7.2Z"/>
        <path class="cls-4" d="M577.6,80.2c-.8,0-1.5-.2-2.1-.6-.6-.4-1-.9-1.2-1.6l1.3-.4c.1.4.4.7.8,1s.8.4,1.3.4.8,0,1.1-.3.4-.4.4-.7,0-.4-.2-.5c-.1-.1-.4-.2-.7-.3l-1.9-.6c-1.1-.3-1.7-1-1.7-1.9s.3-1.1.8-1.5c.5-.4,1.2-.6,1.9-.6s1.4.2,1.9.5c.5.3.9.8,1.1,1.3l-1.3.4c-.1-.3-.4-.5-.7-.7-.3-.2-.7-.3-1.1-.3s-.7,0-.9.3c-.2.2-.3.4-.3.6s.3.6.8.7l1.9.6c.6.2,1,.4,1.4.7.3.3.5.7.5,1.3s-.3,1.2-.8,1.6c-.6.4-1.3.7-2.1.7h0Z"/>
        <path class="cls-4" d="M582.2,71.3c-.2-.2-.3-.4-.3-.7s0-.5.3-.6c.2-.2.4-.3.7-.3s.5,0,.7.3c.2.2.3.4.3.6s0,.5-.3.7-.4.3-.7.3-.5,0-.7-.3ZM582.2,72.7h1.5v7.2h-1.5v-7.2Z"/>
        <path class="cls-4" d="M588.9,80.1c-1.1,0-2-.4-2.7-1.1s-1.1-1.6-1.1-2.7.4-2,1.1-2.7c.7-.7,1.6-1.1,2.7-1.1s2,.4,2.7,1.1c.7.7,1.1,1.6,1.1,2.7s-.4,2-1.1,2.7c-.7.7-1.6,1.1-2.7,1.1h0ZM590.6,78.1c.4-.5.7-1,.7-1.7s-.2-1.3-.7-1.7c-.4-.5-1-.7-1.7-.7s-1.2.2-1.7.7c-.4.5-.7,1-.7,1.7s.2,1.3.7,1.7c.4.5,1,.7,1.7.7s1.2-.2,1.7-.7Z"/>
        <path class="cls-4" d="M598.1,72.5c.9,0,1.6.3,2.1.9.5.6.7,1.3.7,2.3v4.2h-1.5v-4c0-.6-.1-1.1-.4-1.5s-.7-.5-1.3-.5-1.1.2-1.5.7c-.4.4-.6,1-.6,1.8v3.6h-1.5v-7.2h1.5v1.1c.6-.8,1.4-1.3,2.4-1.3h0Z"/>
      </g>
      <g>
        <path class="cls-5" d="M443.6,49.1c-4.2,0-7.9-1.1-10.8-3.3-3-2.2-5-4.9-6.2-8.1l6.9-2.1c.8,2.1,2.1,3.8,3.9,5.1,1.8,1.3,4.1,2,6.6,2s3.8-.5,5.1-1.4c1.3-.9,1.9-2.1,1.9-3.3s-.4-1.9-1.1-2.6c-.7-.7-2-1.4-3.8-1.9l-9.4-3c-2.6-.8-4.6-2.1-6.1-3.7-1.5-1.6-2.3-3.6-2.2-5.9,0-3,1.2-5.5,3.7-7.6,2.5-2.1,5.7-3.2,9.4-3.2s7.2.9,10,2.8c2.8,1.8,4.8,4.1,5.8,6.9l-6.7,2c-.8-1.6-2-2.8-3.6-3.7-1.6-.9-3.4-1.4-5.5-1.4s-3.2.4-4.3,1.2c-1.1.8-1.6,1.8-1.6,2.9,0,1.7,1.2,2.8,3.5,3.6l9.1,3c3.2,1,5.7,2.3,7.4,3.8,1.7,1.5,2.5,3.7,2.5,6.6s-1.4,6.1-4.1,8.3c-2.7,2.3-6.3,3.4-10.6,3.4h-.1Z"/>
        <path class="cls-5" d="M515.4,40h-16.5l-3.1,8.2h-7.5l14.1-37.7h9.4l14.1,37.7h-7.5l-3-8.2ZM512.9,33.5l-5.9-15.9-5.9,15.9h11.8Z"/>
        <path class="cls-5" d="M570.8,10.5c5.3,0,9.6,1.7,12.8,5.2,3.2,3.5,4.8,8.1,4.8,13.7s-1.6,10.1-4.8,13.6c-3.2,3.5-7.5,5.3-12.8,5.3h-16V10.5h16,0ZM570.6,41.5c3.2,0,5.7-1.1,7.6-3.4,1.9-2.3,2.9-5.3,2.9-8.9s-.9-6.5-2.9-8.8c-1.9-2.2-4.5-3.3-7.6-3.3h-8.7v24.4h8.7,0Z"/>
      </g>
    </g>
  </g>
</svg>