<?xml version="1.0" encoding="UTF-8"?>
<svg id="Layer_2" data-name="Layer 2" xmlns="http://www.w3.org/2000/svg" viewBox="0 0 574.2 80.2">
  <defs>
    <style>
      .cls-1 {
        fill: #d1451e;
      }

      .cls-1, .cls-2, .cls-3, .cls-4, .cls-5 {
        stroke-width: 0px;
      }

      .cls-2 {
        fill: #2b6480;
      }

      .cls-3 {
        fill: #d74a2a;
      }

      .cls-4 {
        fill: #7d9eaf;
      }

      .cls-5 {
        fill: #fff;
      }
    </style>
  </defs>
  <g id="Layer_1-2" data-name="Layer 1">
    <g>
      <g>
        <g id="_1M8CDT" data-name="1M8CDT">
          <g>
            <path class="cls-4" d="M443.1,6.8c1,0,1.8.3,2.6.7.3.1.5.3.8.4.2,0,.3-.1.5-.2.4-.3.4-.6.2-1,0,0-.1-.2-.2-.3.2-.4.5-.8.9-1,.7-.4,1.4-.6,2.3-.4,0,0,0,0,0,0,.4.1.5.3.4.7,0,0,0,0,0,.1.7.2,1.3.2,2,.4,0,.1-.2,0-.2.1,0,0-.1,0-.2,0,0,0,.1,0,.2,0,.5,0,.9,0,1.4,0,.3,0,.5,0,.8.2.2,0,.4.2.5.5,0,0,.2,0,.2,0,.6-.1,1.1,0,1.6.3.5-.3,1-.5,1.6-.6.2,0,.4,0,.6-.2.2,0,.4,0,.6,0,.3.2.7.2,1,.3.5,0,1,0,1.6,0,0,0,.1,0,.2,0,.2.3.3.6.4,1,.2.7.3,1.4,0,2.1,0,.2-.1.3-.2.4,0,0-.1.2-.2.3-.2,0-.3-.1-.4-.3-.2-.2-.5-.4-.7-.7-.3-.4-.5-.7-.8-1.1,0,0-.1-.2-.2-.3,0,.1-.2.2-.2.4.2.3.3.6.5.9,0,0,0,0,0,.1.2.2.4.4.5.7.5.7.9,1.4,1.3,2.2.2.4.4.8.7,1.1.2.3.5.6.9.8,0,.6,0,1.2.2,1.9.6.1,1.1.5,1.5,1,.1.1.2.2.2.4,0,.4.1.9.2,1.3,0,.4.1.8.2,1.2,0,.2,0,.2.2.3.4.2.7.5,1.1.7.2.1.3.2.4.4.3.6.6,1.3.9,1.9.2.3.3.5.5.8.1.2.3.3.5.4.6.3,1.2.6,1.7,1,.4.3.9.6,1.3,1,.3.3.6.6.8,1,0,.1.2.2.2.4-.2.2-.4.4-.6.6,0,.1,0,0,.1,0,.4,0,.7.1,1.1.3.3.2.5.4.7.7,0,0,.1.2.2.3.1,0,.2-.1.3-.2.2-.2.5-.3.8-.3.3,0,.6,0,.9.1.2-.1.5-.3.7-.4.1,0,.2-.1.3,0,.7,0,1.3,0,2-.3.4-.2.8-.4,1.2-.5,0,0,.2,0,.3-.1.2.1.2.3.3.4,0,0,0,.2,0,.3,0,1.1-.2,2.1-.5,3.1-.3,1-.8,2-1.3,3-.9,1.6-2.1,3.1-3.4,4.4-.2.2-.3.3-.6.3-.7.2-1.3.5-1.9.9-.9.6-1.7,1.4-2.3,2.3-.3.4-.6.7-1,1-1.5,1.3-2.5,2.8-3.1,4.7,0,.1,0,.3,0,.4,0,0,.2.1.2.2.5.4.6.9.4,1.5,0,.2-.2.3-.3.5,0,0,0,.1-.1.2.5.7.5.6.7,1.8.1,0,.2.1.3.2.2.1.3.2.4.3.2.3.2.5,0,.8,0,0,0,0,0,.1,0,0,0,.1,0,.2,0,0,0,0,0,.1,0,1.1,0,2.2,0,3.3,0,.3,0,.6-.2.9-.2.4-.5.8-.9,1.1-.4.3-.9.6-1.4.8-.5.2-.9.4-1.4.5,0,0-.2,0-.3,0-.2.4-.4.7-.8,1-.2.2-.4.3-.6.4-.3.2-.6.3-.9.5-.2.1-.4.3-.5.5-.2.3-.2.6,0,.8,0,0,.1.2.2.3.1.5.2,1.1.2,1.6,0,.5,0,.9-.2,1.4-.3.8-.9,1.3-1.7,1.4,0,0-.2,0-.3,0-.6,0-.9.4-1.2.9,0,0,0,.2,0,.3.3.5.2.9,0,1.4-.1.5-.3.9-.6,1.2,0,.1-.2.2-.3.3-.4.3-.8.6-1.1.9-.2.1-.3.3-.4.5-.7,1.1-1.6,2.2-2.7,3-.5.4-1,.8-1.6,1-.6.3-1.2.4-1.8.4-.2,0-.4,0-.6,0-1.5-.3-3-.2-4.4.4-.3.1-.5.1-.8,0-.3-.1-.6-.3-.9-.5-.3-.4-.5-.8-.6-1.2,0-.1,0-.3,0-.4.1-.1.2-.3.2-.5,0-.3,0-.6-.3-.8-.2-.2-.3-.4-.4-.7-.1-.4-.3-.7-.5-1.1-.1-.3-.3-.5-.4-.8-.2-.4-.4-.7-.7-1.1-.7-.8-1.2-1.8-1.4-2.9-.2-.9-.3-1.8-.2-2.7,0-.2,0-.4,0-.6-.1-.4-.3-.7-.4-1.1-.5-1-1-1.9-1.6-2.8-.3-.4-.5-.8-.8-1.2-.1-.2-.2-.3-.1-.5,0-.9,0-1.8.2-2.7,0-.5.2-1,.4-1.5.2-.5.4-.9.8-1.2.1,0,.2-.2.3-.3.2-.2.4-.5.4-.9,0-.4,0-.9-.2-1.3-.2-.5-.4-1-.6-1.5,0-.1-.1-.2-.2-.3,0,0,.2-.2.3-.2.2-.1.2-.3.2-.4,0-.3-.1-.7-.2-1-.2-.6-.5-1.2-.8-1.7-.6-1.1-1.4-2-2.2-2.9-.4-.5-.9-1-1.4-1.5-.1-.1-.2-.3-.3-.5,0-.3-.2-.6-.2-.8,0-.1,0-.2,0-.3.3-.4.4-.9.5-1.4,0-.2,0-.4,0-.6,0-.2,0-.4.1-.6.2-.3.3-.6.4-1,0-.4,0-.7,0-1-.2-.6-.6-1-1.1-1.4-.5.1-1,.2-1.5.3-.4,0-.9.1-1.3.1-.2,0-.3,0-.5,0,0,0-.2,0-.2-.2,0,0,0-.1,0-.2-.3-1-.9-1.6-1.9-1.8-.6-.1-1.1-.1-1.7,0-1.4.2-2.7.6-3.9,1.2-.3.1-.5.2-.8.4,0,0-.2,0-.3.1,0,0,0,0-.1,0-.3-.2-.7-.4-1.2-.5-.3,0-.6,0-.9,0-1,0-2,0-2.9.3-.7.1-1.3.3-2,.4-.2,0-.3,0-.4,0-1.6-1.2-3.3-2.3-4.9-3.5-.2-.1-.2-.2-.3-.4-.2-.9-.5-1.8-.9-2.6-.3-.7-.7-1.3-1.2-1.8-.4-.4-.9-.8-1.4-1.1,0,0-.1,0-.2-.1.2-.5.4-1.1.6-1.6-.3-.5-.5-.9-.8-1.4,0,0,.1-.2.2-.3.6-.9,1.1-1.8,1.4-2.8.2-.7.4-1.4.5-2.1,0-.8,0-1.7-.3-2.4.1-.3.3-.7.5-1,.4-.6.8-1.1,1.3-1.6.3-.3.7-.6,1-.9.1-.1.2-.2.3-.4.1-.4.3-.7.5-1,.3-.4.7-.7,1.2-.9.1,0,.2,0,.2-.2.2-.6.6-1,1-1.4.1-.1.3-.2.4-.2,1.2-.3,2.2-.9,3.1-1.8.1-.1.2-.3.2-.4,0-.9.4-1.7,1-2.3,0,0,.2-.1.2-.2,1-.3,1.8-.8,2.7-1.3.2-.1.3-.2.4-.4.2-.4.4-.7.7-1,.2-.2.4-.3.6-.4,0,0,.2.2.3.2.4.4.9.7,1.4.8.8.2,1.6.1,2.3-.3.2-.1.5-.2.7-.2,0,0,0,0,0,0,.5,0,.9,0,1.3-.3.7-.3,1.5-.5,2.2-.5.8,0,1.6,0,2.4.3.2,0,.3,0,.5,0,.3,0,.6-.2.8-.2.6-.1,1.3,0,1.9.2.3-.2.7-.4,1.1-.5.2,0,.4,0,.6,0,.2,0,.5,0,.7.2,0,.2,0,.4-.1.6,0,.2-.2.3-.4.4.1,0,.2.2.3.2.3.3.4.6.4,1,0,.1,0,.3-.2.3-.1,0-.2.1-.3.2-.1,0-.2.2-.3.3-.2.3-.2.5,0,.8.1.1.2.2.4.4.8-.2,1.4.2,1.9.8,0,0,.2,0,.2,0,.7-.1,1.4,0,2,.3,0,0,.2,0,.2.2,0,.5.4.9.7,1.2Z"/>
            <path class="cls-4" d="M480,60.6c-.2-.1-.1-.4-.3-.5,0,0,0,.2,0,.3-.2,1-.5,1.9-1,2.7,0,.2-.2.3-.2.5-.9,2.3-1.9,4.5-2.9,6.7,0,0,0,.2-.2.3-.7,0-1.2.3-1.8.5-.1,0-.3.1-.4.2,0,0,0-.1-.2-.1-.2-.2-.4-.3-.6-.5-.2-.1-.3-.3-.4-.5-.1-.3-.2-.6-.1-.9.1-.4,0-.8,0-1.3,0-.6,0-1.1.2-1.7.1-.3.3-.6.5-.8.4-.4.6-1,.7-1.6,0-.6,0-1.2-.1-1.8-.1-.5,0-1.2.7-1.5.2,0,.4-.2.5-.2,1.1-.2,2.1-.8,3-1.5.6-.5,1.1-1.1,1.5-1.8,0-.1.2-.3.2-.5,0-.2.2-.3.3-.3.2,0,.3,0,.3.1.4.7.7,1.4.7,2.2,0,.5,0,1-.3,1.5,0,0-.1.2-.2.2Z"/>
          </g>
        </g>
        <g>
          <g>
            <path class="cls-2" d="M480.6,9.2c-1.2-1-2.7-1.6-4.2-1.6-3.6,0-6.4,3-6.4,6.6s2.7,6.5,6.3,6.5,3.1-.6,4.3-1.7v2.4c-1.2.7-2.8,1.1-4.2,1.1-4.6,0-8.4-3.6-8.4-8.3s3.8-8.5,8.6-8.5,2.8.3,4.1,1.1v2.3Z"/>
            <path class="cls-2" d="M483,6.1h8.6v1.8h-6.6v4.5h6.4v1.8h-6.4v6.1h6.6v1.8h-8.6V6.1Z"/>
            <path class="cls-2" d="M493.9,5.4l12.1,12.7V6.1h2v16.8l-12.1-12.7v12h-2V5.4Z"/>
            <path class="cls-2" d="M515.2,22.2h-2V8h-3.8v-1.8h9.6v1.8h-3.8v14.3Z"/>
            <path class="cls-2" d="M520.6,6.1h8.6v1.8h-6.6v4.5h6.4v1.8h-6.4v6.1h6.6v1.8h-8.6V6.1Z"/>
            <path class="cls-2" d="M541.7,22.2h-2.4l-4.7-6.8h-.8v6.8h-2V6.1h2.4c1.4,0,3,0,4.2.7,1.3.8,2.1,2.3,2.1,3.8,0,2.3-1.5,4.2-3.9,4.5l5.1,7ZM533.7,13.8h.6c2,0,4.3-.4,4.3-2.9s-2.4-2.9-4.4-2.9h-.5v5.8Z"/>
          </g>
          <g>
            <path class="cls-2" d="M490.8,53.2c-.6-1-1.4-1.5-2.6-1.5s-2.7.9-2.7,2.3,1.2,1.9,2.2,2.3l1.2.4c2.3.9,4,2.2,4,4.8s-2.3,5-5.1,5-4.6-1.9-5-4.5l2-.4c0,1.8,1.4,3.1,3.1,3.1s3-1.5,3-3.1-1.4-2.5-2.8-3.1l-1.1-.5c-1.8-.8-3.5-1.8-3.5-4.1s2.3-4.2,4.7-4.2,3.3.9,4.1,2.4l-1.6,1Z"/>
            <path class="cls-2" d="M499.4,66.2h-2v-14.3h-3.8v-1.8h9.6v1.8h-3.8v14.3Z"/>
            <path class="cls-2" d="M506.5,50.1v9.5c0,2.6.8,5.1,3.9,5.1s3.9-2.4,3.9-5.1v-9.5h2v10.2c0,3.5-2.2,6.3-5.9,6.3s-5.9-2.7-5.9-6.3v-10.2h2Z"/>
            <path class="cls-2" d="M518.9,50.1h3.3c4.9,0,9,2.6,9,8s-4,8.1-9.1,8.1h-3.3v-16.1ZM520.9,64.4h.7c4.1,0,7.6-1.5,7.6-6.2s-3.5-6.2-7.6-6.2h-.7v12.4Z"/>
            <path class="cls-2" d="M535.2,66.2h-2v-16.1h2v16.1Z"/>
            <path class="cls-2" d="M538.2,50.1h8.6v1.8h-6.6v4.5h6.4v1.8h-6.4v6.1h6.6v1.8h-8.6v-16.1Z"/>
            <path class="cls-2" d="M556.5,53.2c-.6-1-1.4-1.5-2.6-1.5s-2.7.9-2.7,2.3,1.2,1.9,2.2,2.3l1.2.4c2.3.9,4,2.2,4,4.8s-2.3,5-5.1,5-4.6-1.9-5-4.5l2-.4c0,1.8,1.4,3.1,3.1,3.1s3-1.5,3-3.1-1.4-2.5-2.8-3.1l-1.1-.5c-1.8-.8-3.5-1.8-3.5-4.1s2.3-4.2,4.7-4.2,3.3.9,4.1,2.4l-1.6,1Z"/>
          </g>
        </g>
        <rect class="cls-2" x="448.9" y="27.4" width="34.2" height="16.9"/>
        <g>
          <path class="cls-5" d="M454.4,31.6v3.1h3.8v1.3h-3.8v5.4h-1.4v-11h5.3v1.3h-4Z"/>
          <path class="cls-5" d="M470.7,35.8c0,3.3-2.6,5.7-5.8,5.7s-5.8-2.5-5.8-5.7,2.6-5.7,5.8-5.7,5.8,2.6,5.8,5.7ZM469.4,35.8c0-2.4-1.8-4.5-4.4-4.5s-4.4,2-4.4,4.5,2,4.5,4.4,4.5,4.4-1.9,4.4-4.5Z"/>
          <path class="cls-5" d="M478.9,41.3h-1.7l-3.2-4.7h-.6v4.7h-1.4v-11h1.7c1,0,2,0,2.9.5.9.5,1.4,1.6,1.4,2.6,0,1.6-1.1,2.9-2.6,3.1l3.5,4.8ZM473.4,35.5h.4c1.4,0,2.9-.3,2.9-2s-1.6-2-3-2h-.4v4Z"/>
        </g>
        <g>
          <path class="cls-2" d="M491.8,40.2l-1.8,4h-2.2l7.7-16.8,7.7,16.8h-2.2l-1.8-4h-7.4ZM495.5,31.8l-2.9,6.5h5.7l-2.9-6.5Z"/>
          <path class="cls-2" d="M506.5,30v4.5h5.6v1.8h-5.6v7.9h-2v-16.1h7.8v1.8h-5.8Z"/>
          <path class="cls-2" d="M524.6,44.2h-2.4l-4.7-6.8h-.8v6.8h-2v-16.1h2.4c1.4,0,3,0,4.2.7,1.3.8,2.1,2.3,2.1,3.8,0,2.3-1.5,4.2-3.9,4.5l5.1,7ZM516.6,35.7h.6c2,0,4.3-.4,4.3-2.9s-2.4-2.9-4.4-2.9h-.5v5.8Z"/>
          <path class="cls-2" d="M528.2,44.2h-2v-16.1h2v16.1Z"/>
          <path class="cls-2" d="M542.9,31.2c-1.2-1-2.7-1.6-4.2-1.6-3.6,0-6.4,3-6.4,6.6s2.7,6.5,6.3,6.5,3.1-.6,4.3-1.7v2.4c-1.2.7-2.8,1.1-4.2,1.1-4.6,0-8.4-3.6-8.4-8.3s3.8-8.5,8.6-8.5,2.8.3,4.1,1.1v2.3Z"/>
          <path class="cls-2" d="M547.6,40.2l-1.8,4h-2.2l7.7-16.8,7.7,16.8h-2.2l-1.8-4h-7.4ZM551.2,31.8l-2.9,6.5h5.7l-2.9-6.5Z"/>
          <path class="cls-2" d="M560.1,27.4l12.1,12.7v-11.9h2v16.8l-12.1-12.7v12h-2v-16.9Z"/>
        </g>
      </g>
      <g>
        <g>
          <rect class="cls-3" y="0" width="80.1" height="80.1"/>
          <path class="cls-5" d="M61.4,16.2v28.1c0,6.3-1.9,11.4-5.6,15.2-3.7,3.8-9,5.7-15.7,5.7s-12-1.9-15.8-5.7c-3.7-3.8-5.6-8.9-5.6-15.2v-28.1h11.5v27.9c0,3.2.8,5.8,2.5,7.7,1.7,2,4.1,3,7.3,3s5.6-1,7.3-3c1.7-2,2.5-4.5,2.5-7.7v-27.9h11.5Z"/>
          <rect class="cls-3" x="88.2" y="0" width="80.1" height="80.1"/>
          <rect class="cls-3" x="176.4" y="0" width="80.1" height="80.1"/>
          <rect class="cls-3" x="264.5" y="0" width="80.1" height="80.1"/>
          <polygon class="cls-5" points="153.8 16 153.8 64.1 142.4 64.1 142.4 36 128.3 55.3 114.2 36 114.2 64.1 102.8 64.1 102.8 16 113.6 16 128.3 37.4 142.9 16 153.8 16"/>
          <path class="cls-5" d="M221.8,53.1c1.3-1.3,2-3,2-5.1s-.7-3.7-2-5c-1.3-1.4-3.1-2-5.4-2s-4,.7-5.3,2c-1.4,1.3-2.1,3-2.1,5.1s.7,3.8,2,5.1c1.4,1.3,3.2,2,5.4,2s4-.7,5.4-2M230.4,36.3c3.2,3.1,4.8,7,4.8,11.7s-1.8,9.1-5.3,12.4c-3.6,3.3-8,4.9-13.4,4.9s-9.8-1.6-13.4-4.9c-3.6-3.3-5.4-7.4-5.4-12.4s1.1-6.6,3.4-10.2l13.6-21.6h12.8l-9.4,14.9c5,.4,9.1,2.1,12.2,5.2"/>
          <path class="cls-5" d="M311.8,38.4c1.3-1.4,1.9-3.1,1.9-4.9s-.6-3.5-1.8-4.9c-1.2-1.4-2.8-2.1-4.6-2.1h-11.6v14.1h11.1c2,0,3.7-.7,5-2.1M320,21.3c3.2,3.5,4.8,7.5,4.8,12s-1.6,8.6-4.8,12.1c-3.2,3.5-7.5,5.3-12.9,5.3h-11.4v13.4h-11.3V16h23.1c5.1,0,9.3,1.8,12.5,5.3"/>
        </g>
        <rect class="cls-1" x="384.9" width="1" height="80.2"/>
      </g>
    </g>
  </g>
</svg>