<?xml version="1.0" encoding="UTF-8"?>
<svg id="Layer_2" data-name="Layer 2" xmlns="http://www.w3.org/2000/svg" viewBox="0 0 640.8 81.9">
  <defs>
    <style>
      .cls-1 {
        fill: #d1451e;
      }

      .cls-1, .cls-2, .cls-3, .cls-4 {
        stroke-width: 0px;
      }

      .cls-2 {
        fill: #d74a2a;
      }

      .cls-3 {
        fill: #3b3b3c;
      }

      .cls-4 {
        fill: #fff;
      }
    </style>
  </defs>
  <g id="Layer_1-2" data-name="Layer 1">
    <g>
      <g>
        <path class="cls-3" d="M69.1,30.7c-1.4,0-2.7-.1-3.8-.4-1.1-.3-1.9-.9-2.4-1.8-.5.2-1.1.5-1.9.7-.8.2-1.8.3-2.9.3s-1.9-.1-2.8-.4c-.9-.2-1.7-.6-2.4-1.2-.7-.6-1.3-1.3-1.7-2.2s-.7-2-.7-3.3.2-2.4.6-3.3c.4-1,1-1.8,1.7-2.5.8-.7,1.6-1.2,2.6-1.5,1-.3,2.1-.5,3.3-.5h7.2v10c0,1.1.2,1.9.7,2.3s1.3.6,2.5.6h.3c.3,0,.6.1.8.4.2.2.3.7.3,1.3s0,1.1,0,1.3c0,.2-.2.3-.4.3h-1ZM54,8.7c0-.6.2-1.2.6-1.6.4-.4.9-.6,1.6-.6s1.1.2,1.5.6c.4.4.6.9.6,1.6s-.2,1.2-.6,1.6c-.4.4-.9.6-1.5.6s-1.1-.2-1.6-.6c-.4-.4-.6-.9-.6-1.6ZM54.4,22.2c0,.8.1,1.5.4,2,.3.5.6.9,1,1.2.4.3.8.5,1.3.6.5,0,.9.1,1.3.1.9,0,1.5,0,2-.2s1-.3,1.6-.6v-7.4h-3c-.6,0-1.2,0-1.8.2-.6.1-1.1.4-1.5.7s-.7.8-1,1.3c-.2.6-.4,1.3-.4,2.1ZM59.4,8.7c0-.6.2-1.2.6-1.6.4-.4.9-.6,1.6-.6s1.1.2,1.5.6c.4.4.6.9.6,1.6s-.2,1.2-.6,1.6c-.4.4-.9.6-1.5.6s-1.1-.2-1.6-.6c-.4-.4-.6-.9-.6-1.6Z"/>
        <path class="cls-3" d="M73.6,27.4c-.6-.8-1.1-1.6-1.4-2.5-.3-.9-.5-1.8-.5-2.7s.2-2.3.6-3.3,1.1-1.9,1.9-2.6c.8-.7,1.8-1.2,2.8-1.6,1.1-.3,2.2-.5,3.5-.5s1.6,0,2.5.2c.9.1,1.6.3,2.2.5l-.6,3.1c-.3,0-.8-.2-1.4-.3s-1.3-.2-2.1-.2c-.7,0-1.4,0-2,.3-.6.2-1.2.5-1.7.9s-.9.9-1.2,1.5c-.3.6-.4,1.3-.4,2.1s.1,1.3.3,1.9c.2.6.6,1.1,1,1.6.5.5,1,.8,1.8,1.1.7.3,1.6.4,2.5.4h4.5v3.3h-16c-.5,0-.8-.1-1.1-.3-.3-.2-.5-.6-.5-1.3,0-1.1.4-1.7,1.2-1.7h4.1Z"/>
        <path class="cls-3" d="M94.2,3.5v27.2h-3.9V3.5h3.9Z"/>
        <path class="cls-3" d="M99.1,37.2c-.5,0-1,0-1.6,0-.5,0-.9-.1-1.3-.2l.5-3.3c.6.1,1.1.2,1.6.2,1.1,0,1.9-.4,2.3-1,.4-.7.6-1.7.6-3v-15.2h3.9v15.4c0,1.3-.1,2.4-.4,3.3-.3.9-.7,1.7-1.2,2.2s-1.2,1-1.9,1.2c-.8.3-1.6.4-2.5.4Z"/>
        <path class="cls-3" d="M110,37.2c-.5,0-1,0-1.6,0-.5,0-.9-.1-1.3-.2l.5-3.3c.6.1,1.1.2,1.6.2,1.1,0,1.8-.3,2.3-1,.4-.6.7-1.7.7-3.1v-15.2h3.9v12.9h3.2c.4,0,.6.1.8.4.2.2.3.7.3,1.4s0,1.1-.1,1.3c0,.2-.2.3-.3.3h-3.8c0,1.2-.2,2.2-.6,3-.3.9-.8,1.5-1.3,2.1-.6.5-1.2.9-1.9,1.1-.7.2-1.5.3-2.4.3ZM112.2,8.7c0-.6.2-1.2.6-1.6.4-.4.9-.6,1.6-.6s1.1.2,1.5.6c.4.4.6.9.6,1.6s-.2,1.2-.6,1.6c-.4.4-.9.6-1.5.6s-1.1-.2-1.6-.6c-.4-.4-.6-.9-.6-1.6Z"/>
        <path class="cls-3" d="M119.5,27.4c1.5,0,2.6-.3,3.2-.9.6-.6.9-1.6.9-3V3.5h3.9v20.7c0,2.2-.6,3.9-1.8,5s-3.1,1.6-5.7,1.6c-.5,0-.9-.1-1.3-.3-.3-.2-.5-.6-.5-1.3s0-.8.2-1.2c.2-.4.5-.5,1-.5Z"/>
        <path class="cls-3" d="M136.9,3.5v27.2h-3.9V3.5h3.9Z"/>
        <path class="cls-3" d="M168.8,30.7c-1.4,0-2.7-.1-3.8-.4-1.1-.3-1.9-.9-2.4-1.8-.5.2-1.1.5-1.9.7-.8.2-1.8.3-2.9.3s-1.9-.1-2.8-.4-1.7-.6-2.4-1.2c-.7-.6-1.3-1.3-1.7-2.2-.4-.9-.7-2-.7-3.3s.2-2.4.6-3.3c.4-1,1-1.8,1.7-2.5.8-.7,1.6-1.2,2.6-1.5,1-.3,2.1-.5,3.3-.5h7.2v10c0,1.1.2,1.9.7,2.3.5.4,1.3.6,2.5.6h.3c.3,0,.6.1.8.4s.3.7.3,1.3,0,1.1,0,1.3c0,.2-.2.3-.4.3h-1ZM153.7,8.7c0-.6.2-1.2.6-1.6.4-.4.9-.6,1.6-.6s1.1.2,1.5.6c.4.4.6.9.6,1.6s-.2,1.2-.6,1.6c-.4.4-.9.6-1.5.6s-1.1-.2-1.6-.6c-.4-.4-.6-.9-.6-1.6ZM154.1,22.2c0,.8.1,1.5.4,2,.3.5.6.9,1,1.2.4.3.8.5,1.3.6s.9.1,1.3.1c.9,0,1.5,0,2-.2.5-.1,1-.3,1.6-.6v-7.4h-3c-.6,0-1.2,0-1.8.2-.6.1-1.1.4-1.5.7-.4.3-.7.8-1,1.3-.2.6-.4,1.3-.4,2.1ZM159.1,8.7c0-.6.2-1.2.6-1.6.4-.4.9-.6,1.6-.6s1.1.2,1.5.6c.4.4.6.9.6,1.6s-.2,1.2-.6,1.6c-.4.4-.9.6-1.5.6s-1.1-.2-1.6-.6c-.4-.4-.6-.9-.6-1.6Z"/>
        <path class="cls-3" d="M169.2,27.4c1.1,0,1.9-.1,2.6-.3.6-.2,1.1-.5,1.5-1s.6-1,.7-1.6c.1-.6.2-1.4.2-2.2v-7.7h3.9v9.3c0,1.1.3,2,1,2.6.7.6,1.7.9,3,.9s.6.1.8.4c.2.2.3.7.3,1.3s0,1.1-.1,1.3-.2.3-.4.3c-.5,0-1,0-1.6-.1-.6,0-1.1-.2-1.6-.4-.5-.2-1-.5-1.4-.8-.4-.3-.8-.7-1.1-1.2-.6.9-1.5,1.5-2.7,1.9s-2.7.6-4.5.6-1-.1-1.3-.4c-.3-.2-.4-.7-.4-1.3s0-.9.3-1.2.5-.5.9-.5ZM171.1,35.9c0-.6.2-1.2.6-1.6s.9-.6,1.6-.6,1.1.2,1.5.6c.4.4.6.9.6,1.6s-.2,1.2-.6,1.6c-.4.4-.9.6-1.5.6s-1.1-.2-1.6-.6c-.4-.4-.6-1-.6-1.6ZM176.5,35.9c0-.6.2-1.2.6-1.6s.9-.6,1.6-.6,1.1.2,1.5.6.6.9.6,1.6-.2,1.2-.6,1.6c-.4.4-.9.6-1.5.6s-1.1-.2-1.6-.6c-.4-.4-.6-1-.6-1.6Z"/>
        <path class="cls-3" d="M182,27.4c1.6,0,2.6-.3,3.2-1,.6-.6.9-1.6.9-3V3.5h3.9v20.4c0,1.1.3,2,1,2.6.7.6,1.7.9,2.9.9s.6.1.8.4.3.7.3,1.3,0,1.1-.1,1.3-.2.3-.4.3c-.5,0-1,0-1.6-.1-.5,0-1.1-.2-1.5-.4-.5-.2-.9-.4-1.4-.8s-.8-.7-1.1-1.1c-.6.9-1.4,1.5-2.5,1.9-1,.4-2.4.6-4,.6s-1-.1-1.3-.4c-.3-.2-.4-.7-.4-1.3s0-.9.3-1.2.5-.5.9-.5Z"/>
        <path class="cls-3" d="M194.5,30.7c-.5,0-.9-.1-1.2-.3-.3-.2-.5-.6-.5-1.3,0-1.1.4-1.7,1.2-1.7h10.6c1.4,0,2.4-.3,3-.9.6-.6.8-1.6.8-3v-.9c0-1.6-.4-2.8-1.2-3.5-.8-.8-2.2-1.2-4.1-1.2h-7.3v-3.4l10-10.9,2.7,2.5-7.8,8.5h3.5c1.4,0,2.7.2,3.7.5,1,.4,1.9.9,2.6,1.5.7.6,1.1,1.4,1.5,2.3.3.9.5,1.8.5,2.9v2.3c0,2.4-.5,4.1-1.5,5.1-1,1-2.7,1.5-4.9,1.5h-11.4Z"/>
        <path class="cls-3" d="M18.6,72.7c-1.4,0-2.7-.1-3.8-.4s-1.9-.9-2.4-1.8c-.5.2-1.1.5-1.9.7-.8.2-1.8.3-2.9.3s-1.9-.1-2.8-.4c-.9-.2-1.7-.6-2.4-1.2-.7-.6-1.3-1.3-1.7-2.2-.4-.9-.7-2-.7-3.3s.2-2.4.6-3.3c.4-1,1-1.8,1.7-2.5s1.6-1.2,2.6-1.5,2.1-.5,3.3-.5h7.2v10c0,1.1.2,1.9.7,2.3.5.4,1.3.6,2.5.6h.3c.3,0,.6.1.8.4s.3.7.3,1.3,0,1.1,0,1.3c0,.2-.2.3-.4.3h-1ZM3.5,50.7c0-.6.2-1.2.6-1.6.4-.4.9-.6,1.6-.6s1.1.2,1.5.6c.4.4.6.9.6,1.6s-.2,1.2-.6,1.6c-.4.4-.9.6-1.5.6s-1.1-.2-1.6-.6c-.4-.4-.6-.9-.6-1.6ZM3.9,64.2c0,.8.1,1.5.4,2,.3.5.6.9,1,1.2.4.3.8.5,1.3.6s.9.1,1.3.1c.9,0,1.5,0,2-.2.5-.1,1-.3,1.6-.6v-7.4h-3c-.6,0-1.2,0-1.8.2-.6.1-1.1.4-1.5.7-.4.3-.7.8-1,1.3-.2.6-.4,1.3-.4,2.1ZM8.9,50.7c0-.6.2-1.2.6-1.6.4-.4.9-.6,1.6-.6s1.1.2,1.5.6c.4.4.6.9.6,1.6s-.2,1.2-.6,1.6c-.4.4-.9.6-1.5.6s-1.1-.2-1.6-.6c-.4-.4-.6-.9-.6-1.6Z"/>
        <path class="cls-3" d="M19,69.4c1.1,0,1.9-.1,2.6-.3.6-.2,1.1-.5,1.5-1,.3-.4.6-1,.7-1.6.1-.6.2-1.4.2-2.2v-7.7h3.9v9.3c0,1.1.3,2,1,2.6.7.6,1.7.9,3,.9s.6.1.8.4.3.7.3,1.3,0,1.1-.1,1.3-.2.3-.4.3c-.5,0-1,0-1.6-.1-.6,0-1.1-.2-1.6-.4s-1-.5-1.4-.8c-.4-.3-.8-.7-1.1-1.2-.6.9-1.5,1.5-2.7,1.9-1.2.4-2.7.6-4.5.6s-1-.1-1.3-.4c-.3-.2-.4-.7-.4-1.3s0-.9.3-1.2c.2-.3.5-.5.9-.5ZM20.8,77.9c0-.6.2-1.2.6-1.6.4-.4.9-.6,1.6-.6s1.1.2,1.5.6c.4.4.6.9.6,1.6s-.2,1.2-.6,1.6c-.4.4-.9.6-1.5.6s-1.1-.2-1.6-.6c-.4-.4-.6-1-.6-1.6ZM26.3,77.9c0-.6.2-1.2.6-1.6s.9-.6,1.6-.6,1.1.2,1.5.6.6.9.6,1.6-.2,1.2-.6,1.6c-.4.4-.9.6-1.5.6s-1.1-.2-1.6-.6c-.4-.4-.6-1-.6-1.6Z"/>
        <path class="cls-3" d="M31.8,69.4c1.5,0,2.5-.3,3.2-.9s.9-1.6.9-3v-9h3.9v9.3c0,1.1.3,2,1,2.6s1.7.9,3,.9.6.1.8.4c.2.2.3.7.3,1.3s0,1.1-.1,1.3-.2.3-.4.3c-.5,0-1,0-1.6-.1-.5,0-1.1-.2-1.6-.4-.5-.2-.9-.4-1.4-.8-.4-.3-.8-.7-1-1.1-.6.8-1.4,1.5-2.4,1.9-1.1.4-2.4.6-4.1.6s-1-.1-1.3-.4c-.3-.2-.4-.7-.4-1.3s0-.9.3-1.2c.2-.3.5-.5.9-.5ZM35.3,51.6c-.2-.3-.4-.7-.5-1.1-.1-.4-.2-.9-.2-1.3,0-1.2.4-2.2,1.1-3,.8-.8,1.9-1.2,3.3-1.2s.8,0,1.3.1c.4,0,.8.2,1.2.3l-.4,2c-.2,0-.5-.1-.8-.2-.3,0-.7-.1-1-.1-.7,0-1.2.2-1.6.6-.4.4-.6.9-.6,1.5s0,.6.1.9c0,.3.3.5.5.8.2.2.5.4.9.6.4.1.8.2,1.4.2h2v2.2h-8.2v-2.2h1.7Z"/>
        <path class="cls-3" d="M43.8,69.4c1.1,0,1.9-.1,2.6-.3s1.1-.5,1.5-1,.6-1,.7-1.6c.1-.6.2-1.4.2-2.2v-7.7h3.9v9.3c0,1.1.3,2,1,2.6.7.6,1.7.9,3,.9s.6.1.8.4.3.7.3,1.3,0,1.1-.1,1.3-.2.3-.4.3c-.5,0-1,0-1.6-.1-.6,0-1.1-.2-1.6-.4-.5-.2-1-.5-1.4-.8-.4-.3-.8-.7-1.1-1.2-.6.9-1.5,1.5-2.7,1.9s-2.7.6-4.5.6-1-.1-1.3-.4-.4-.7-.4-1.3,0-.9.3-1.2c.2-.3.5-.5.9-.5ZM45.7,77.9c0-.6.2-1.2.6-1.6.4-.4.9-.6,1.6-.6s1.1.2,1.5.6c.4.4.6.9.6,1.6s-.2,1.2-.6,1.6c-.4.4-.9.6-1.5.6s-1.1-.2-1.6-.6c-.4-.4-.6-1-.6-1.6ZM51.1,77.9c0-.6.2-1.2.6-1.6.4-.4.9-.6,1.6-.6s1.1.2,1.5.6.6.9.6,1.6-.2,1.2-.6,1.6c-.4.4-.9.6-1.5.6s-1.1-.2-1.6-.6c-.4-.4-.6-1-.6-1.6Z"/>
        <path class="cls-3" d="M56.6,69.4c1.5,0,2.5-.3,3.2-.9s.9-1.6.9-3v-9h3.9v9.3c0,1.1.3,2,1,2.6.7.6,1.7.9,3,.9s.6.1.8.4.3.7.3,1.3,0,1.1-.1,1.3c0,.2-.2.3-.4.3-.5,0-1,0-1.6-.1-.5,0-1.1-.2-1.6-.4-.5-.2-.9-.4-1.4-.8s-.8-.7-1-1.1c-.6.8-1.4,1.5-2.4,1.9-1.1.4-2.4.6-4.1.6s-1-.1-1.3-.4-.4-.7-.4-1.3,0-.9.3-1.2.5-.5.9-.5ZM60.4,77.7c0-.6.2-1.2.6-1.6.4-.4.9-.6,1.6-.6s1.1.2,1.5.6c.4.4.6.9.6,1.6s-.2,1.2-.6,1.6c-.4.4-.9.6-1.5.6s-1.1-.2-1.6-.6c-.4-.4-.6-1-.6-1.6Z"/>
        <path class="cls-3" d="M68.6,69.4c1.5,0,2.6-.3,3.2-.9.6-.6.9-1.6.9-3v-20h3.9v20.7c0,2.2-.6,3.9-1.8,5-1.2,1.1-3.1,1.6-5.7,1.6-.5,0-.9-.1-1.3-.3s-.5-.6-.5-1.3,0-.8.2-1.2c.2-.4.5-.5,1-.5Z"/>
        <path class="cls-3" d="M86.1,45.5v27.2h-3.9v-27.2h3.9Z"/>
        <path class="cls-3" d="M104.7,65.1c.1-1.3.4-2.5.8-3.6.4-1.1.9-2,1.6-2.8.6-.8,1.4-1.4,2.4-1.8.9-.4,2-.7,3.2-.7s2.6.2,3.6.7c1,.4,1.8,1,2.5,1.8.6.8,1.1,1.6,1.4,2.6s.5,2,.5,3.1-.2,2.6-.6,3.6c-.4,1-.9,1.9-1.6,2.6-.7.7-1.5,1.2-2.4,1.6-.9.4-1.9.5-2.9.5s-2-.2-3-.5c-1-.3-2-1-3-2-.4.6-.9,1.1-1.5,1.6-.4.2-.7.5-1,.7s-.5.5-.7.8-.3.7-.4,1.2c0,.5-.1,1.1-.1,1.7v5.5h-3.9v-6.9c0-.7,0-1.3.2-1.8s.3-.9.5-1.4c.2-.4.5-.8.8-1.1.3-.3.7-.6,1.1-.9.6-.4,1-.7,1.4-1.1.3-.4.6-.7.8-1.1.2-.4.3-.8.4-1.2s.1-.9.2-1.4ZM112.7,59.7c-1.4,0-2.4.7-3.2,2.1-.8,1.3-1.2,3.1-1.4,5.4.7.7,1.4,1.2,2.2,1.6.7.4,1.6.6,2.5.6s1.2-.1,1.7-.4c.5-.3.8-.7,1.1-1.1.3-.5.5-1,.6-1.5s.2-1.1.2-1.7c0-1.7-.3-3-1-3.8s-1.6-1.2-2.8-1.2Z"/>
        <path class="cls-3" d="M131.6,76c1.4,0,2.5-.2,3.3-.7.8-.5,1.2-1.3,1.2-2.6h-3c-1.5,0-2.9-.2-4-.6-1.1-.4-2-.9-2.7-1.6-.7-.7-1.2-1.5-1.6-2.4s-.5-2-.5-3.1.2-2.3.5-3.4c.4-1.1.9-2,1.6-2.8.7-.8,1.6-1.4,2.6-1.9,1-.5,2.2-.7,3.5-.7s2.1.2,3,.5c.9.3,1.7.8,2.4,1.5s1.2,1.4,1.6,2.4c.4,1,.6,2,.6,3.3v5.5h2.7c.3,0,.6.1.8.4s.3.7.3,1.4,0,1.1-.1,1.3c0,.2-.2.3-.3.3h-3.4c-.5,4.3-3.3,6.5-8.3,6.5s-1.5,0-2.3-.2c-.8-.1-1.6-.3-2.3-.4l.6-3.1c.6.1,1.2.2,1.8.4.7.1,1.4.2,2.1.2ZM128.5,64.7c0,.9.1,1.7.4,2.3.3.6.6,1.1,1,1.4.4.4,1,.6,1.6.8.6.1,1.3.2,2.1.2h2.5v-4.7c0-.7,0-1.3-.2-2-.1-.6-.3-1.1-.6-1.6-.3-.4-.7-.8-1.1-1.1-.5-.3-1-.4-1.7-.4s-.8,0-1.3.2c-.5.1-.9.4-1.3.8-.4.4-.7.9-1,1.5-.3.6-.4,1.5-.4,2.5Z"/>
        <path class="cls-3" d="M142.9,69.4c1.6,0,2.6-.3,3.2-1,.6-.6.9-1.6.9-3v-20h3.9v20.4c0,1.1.3,2,1,2.6.7.6,1.7.9,2.9.9s.6.1.8.4.3.7.3,1.3,0,1.1-.1,1.3-.2.3-.4.3c-.5,0-1,0-1.6-.1-.5,0-1.1-.2-1.5-.4-.5-.2-.9-.4-1.4-.8s-.8-.7-1.1-1.1c-.6.9-1.4,1.5-2.5,1.9-1,.4-2.4.6-4,.6s-1-.1-1.3-.4c-.3-.2-.4-.7-.4-1.3s0-.9.3-1.2.5-.5.9-.5Z"/>
        <path class="cls-3" d="M170.1,72.7c-1.3,0-2.4-.1-3.3-.4-.9-.3-1.6-.6-2.3-1-.9.4-1.9.8-3,1-1.1.3-2.2.4-3.4.4h-2.8c-.5,0-.9-.1-1.2-.3-.3-.2-.5-.6-.5-1.3,0-1.1.4-1.7,1.2-1.7h3.8c.7,0,1.4,0,2-.2.6-.1,1.2-.3,1.6-.5-.5-.6-.9-1.2-1.4-1.8-.4-.6-.9-1.1-1.4-1.6-.5-.5-1-1-1.5-1.5-.5-.5-1.2-1-1.9-1.4,0-.2,0-.6.1-.9s.1-.7.2-1.1.1-.7.2-1c0-.3.1-.6.2-.8.4-.2.9-.5,1.4-.8.6-.3,1.2-.5,1.9-.8.7-.2,1.4-.4,2.1-.6s1.5-.2,2.4-.2c1.2,0,2.2.1,3.2.4,1,.2,1.8.6,2.5,1.1.7.5,1.2,1.1,1.6,1.8.4.7.6,1.5.6,2.4s-.4,2.5-1.3,3.8-2.1,2.4-3.5,3.4c.5.1.9.2,1.3.3.4,0,.9,0,1.5,0h3.9c.3,0,.6.1.8.4.2.2.3.7.3,1.4s0,1.1-.1,1.3c0,.2-.2.3-.4.3h-4.7ZM164.5,59.7c-.6,0-1.1,0-1.5.1s-.8.2-1.3.3c-.5.1-.9.3-1.2.4s-.5.3-.7.4c1.2,1,2.1,2.1,2.9,3.1.8,1,1.5,2.1,2.2,3.2,1-.7,1.8-1.5,2.5-2.3.7-.9,1-1.7,1-2.5s-.3-1.5-1-2c-.6-.5-1.7-.8-3-.8Z"/>
        <path class="cls-3" d="M174.2,69.4c1.5,0,2.6-.3,3.2-.9.6-.6.9-1.6.9-3v-20h3.9v20.7c0,2.2-.6,3.9-1.8,5s-3.1,1.6-5.7,1.6c-.5,0-.9-.1-1.3-.3-.3-.2-.5-.6-.5-1.3s0-.8.2-1.2c.2-.4.5-.5,1-.5Z"/>
        <path class="cls-3" d="M191.7,45.5v27.2h-3.9v-27.2h3.9Z"/>
        <path class="cls-3" d="M203.5,76c1.4,0,2.6-.3,3.3-.9.8-.6,1.2-1.6,1.2-3-.5.2-1,.3-1.5.4-.5.1-1.2.2-2.1.2-2.5,0-4.5-.7-6-2-1.4-1.4-2.2-3.2-2.2-5.6s.2-2.3.5-3.4c.4-1.1.9-2,1.6-2.8.7-.8,1.6-1.4,2.6-1.9,1-.5,2.2-.7,3.5-.7s2.1.2,3,.5c.9.3,1.7.8,2.4,1.5s1.2,1.4,1.6,2.4c.4,1,.6,2,.6,3.3v7.3c0,2.6-.7,4.6-2.1,6-1.4,1.3-3.5,2-6.3,2s-1.5,0-2.3-.2c-.8-.1-1.6-.3-2.3-.4l.6-3.1c.6.1,1.2.2,1.8.4.7.1,1.4.2,2.1.2ZM200.4,64.7c0,.9.1,1.6.4,2.3.3.6.6,1.1,1,1.5.4.4.9.6,1.4.8.5.1,1.1.2,1.7.2s1.4,0,1.8-.2c.5-.1.9-.3,1.3-.4v-4.1c0-.7,0-1.3-.2-2-.1-.6-.3-1.1-.6-1.6-.3-.4-.7-.8-1.1-1.1-.5-.3-1.1-.4-1.8-.4s-.8,0-1.3.2c-.5.1-.9.4-1.3.8-.4.4-.7.9-1,1.5s-.4,1.5-.4,2.5Z"/>
      </g>
      <g>
        <g>
          <rect class="cls-2" x="296.2" y="0" width="80.1" height="80.1"/>
          <path class="cls-4" d="M357.6,16.2v28.1c0,6.3-1.9,11.4-5.6,15.2-3.7,3.8-9,5.7-15.7,5.7s-12-1.9-15.8-5.7c-3.7-3.8-5.6-8.9-5.6-15.2v-28.1h11.5v27.9c0,3.2.8,5.8,2.5,7.7,1.7,2,4.1,3,7.3,3s5.6-1,7.3-3c1.7-2,2.5-4.5,2.5-7.7v-27.9h11.5Z"/>
          <rect class="cls-2" x="384.4" y="0" width="80.1" height="80.1"/>
          <rect class="cls-2" x="472.6" y="0" width="80.1" height="80.1"/>
          <rect class="cls-2" x="560.7" y="0" width="80.1" height="80.1"/>
          <polygon class="cls-4" points="450 16 450 64.1 438.6 64.1 438.6 36 424.4 55.3 410.4 36 410.4 64.1 399 64.1 399 16 409.8 16 424.5 37.4 439.1 16 450 16"/>
          <path class="cls-4" d="M518,53.1c1.3-1.3,2-3,2-5.1s-.7-3.7-2-5c-1.3-1.4-3.1-2-5.4-2s-4,.7-5.3,2c-1.4,1.3-2.1,3-2.1,5.1s.7,3.8,2,5.1c1.4,1.3,3.2,2,5.4,2s4-.7,5.4-2M526.6,36.3c3.2,3.1,4.8,7,4.8,11.7s-1.8,9.1-5.3,12.4-8,4.9-13.4,4.9-9.8-1.6-13.4-4.9c-3.6-3.3-5.4-7.4-5.4-12.4s1.1-6.6,3.4-10.2l13.6-21.6h12.8l-9.4,14.9c5,.4,9.1,2.1,12.2,5.2"/>
          <path class="cls-4" d="M607.9,38.4c1.3-1.4,1.9-3.1,1.9-4.9s-.6-3.5-1.8-4.9c-1.2-1.4-2.8-2.1-4.6-2.1h-11.6v14.1h11.1c2,0,3.7-.7,5-2.1M616.2,21.3c3.2,3.5,4.8,7.5,4.8,12s-1.6,8.6-4.8,12.1c-3.2,3.5-7.5,5.3-12.9,5.3h-11.4v13.4h-11.3V16h23.1c5.1,0,9.3,1.8,12.5,5.3"/>
        </g>
        <rect class="cls-1" x="254.8" y="0" width="1" height="80.2"/>
      </g>
    </g>
  </g>
</svg>