<?xml version="1.0" encoding="UTF-8"?>
<svg xmlns="http://www.w3.org/2000/svg" xmlns:xlink="http://www.w3.org/1999/xlink" viewBox="0 0 674.3 90.8">
  <defs>
    <style>
      .cls-1 {
        fill: #d1451e;
      }

      .cls-1, .cls-2, .cls-3, .cls-4, .cls-5, .cls-6, .cls-7, .cls-8, .cls-9, .cls-10, .cls-11, .cls-12, .cls-13, .cls-14, .cls-15, .cls-16, .cls-17, .cls-18, .cls-19, .cls-20, .cls-21, .cls-22 {
        stroke-width: 0px;
      }

      .cls-23 {
        clip-path: url(#clippath);
      }

      .cls-2 {
        fill: none;
      }

      .cls-24 {
        mask: url(#mask);
      }

      .cls-3 {
        fill: url(#linear-gradient);
      }

      .cls-4 {
        fill: url(#radial-gradient);
      }

      .cls-5 {
        fill: url(#linear-gradient-11);
      }

      .cls-6 {
        fill: url(#linear-gradient-12);
      }

      .cls-7 {
        fill: url(#linear-gradient-10);
      }

      .cls-8 {
        fill: #b7b9bb;
      }

      .cls-25 {
        clip-path: url(#clippath-1);
      }

      .cls-26 {
        clip-path: url(#clippath-4);
      }

      .cls-27 {
        clip-path: url(#clippath-3);
      }

      .cls-28 {
        clip-path: url(#clippath-2);
      }

      .cls-29 {
        mix-blend-mode: overlay;
      }

      .cls-9 {
        fill: #d74a2a;
      }

      .cls-10 {
        fill: url(#radial-gradient-2);
      }

      .cls-11 {
        fill: url(#radial-gradient-3);
      }

      .cls-12 {
        fill: #3f3f3f;
      }

      .cls-13 {
        fill: #3b3b3c;
      }

      .cls-14 {
        fill: url(#linear-gradient-4);
      }

      .cls-15 {
        fill: url(#linear-gradient-2);
      }

      .cls-16 {
        fill: url(#linear-gradient-3);
      }

      .cls-17 {
        fill: url(#linear-gradient-8);
      }

      .cls-18 {
        fill: url(#linear-gradient-9);
      }

      .cls-19 {
        fill: url(#linear-gradient-7);
      }

      .cls-20 {
        fill: url(#linear-gradient-5);
      }

      .cls-21 {
        fill: url(#linear-gradient-6);
      }

      .cls-30 {
        isolation: isolate;
      }

      .cls-22 {
        fill: #fff;
      }
    </style>
    <clipPath id="clippath">
      <path class="cls-2" d="M465.1,3.5c-11.6,0-19.2,18.8-19.2,41.9s7.7,41.9,19.2,41.9h10.8c-11.6,0-23.4-18.8-23.4-41.9s11.9-41.9,23.4-41.9h-10.8Z"/>
    </clipPath>
    <linearGradient id="linear-gradient" x1="-1415" y1="1517.6" x2="-1413.8" y2="1517.6" gradientTransform="translate(-110923.1 103854.1) rotate(90) scale(73.4 -73.4)" gradientUnits="userSpaceOnUse">
      <stop offset="0" stop-color="#787878"/>
      <stop offset="0" stop-color="#787878"/>
      <stop offset="0" stop-color="#838383"/>
      <stop offset=".2" stop-color="#a2a2a2"/>
      <stop offset=".3" stop-color="#d5d4d5"/>
      <stop offset=".4" stop-color="#e9e8e9"/>
      <stop offset=".5" stop-color="#cdcdcd"/>
      <stop offset=".7" stop-color="#9f9f9f"/>
      <stop offset=".9" stop-color="#828282"/>
      <stop offset="1" stop-color="#787878"/>
    </linearGradient>
    <clipPath id="clippath-1">
      <path class="cls-2" d="M450,46.2c0,9.6,7.8,17.4,17.4,17.4s17.4-7.8,17.4-17.4-7.8-17.4-17.4-17.4-17.4,7.8-17.4,17.4"/>
    </clipPath>
    <radialGradient id="radial-gradient" cx="-1250.6" cy="1556.5" fx="-1250.6" fy="1556.5" r="1.2" gradientTransform="translate(18302.6 14789.6) scale(14.3 -9.5)" gradientUnits="userSpaceOnUse">
      <stop offset="0" stop-color="#5dc4e2"/>
      <stop offset=".7" stop-color="#2889c1"/>
      <stop offset="1" stop-color="#1271b4"/>
    </radialGradient>
    <clipPath id="clippath-2">
      <rect class="cls-2" x="450" y="33.4" width="34.9" height="30.3"/>
    </clipPath>
    <clipPath id="clippath-3">
      <path class="cls-2" d="M484.9,46.2c0,9.6-7.8,17.4-17.4,17.4s-17.4-7.8-17.4-17.4,0-1.8.2-2.6c3.1,2.8,7.2,4.6,11.8,4.6,8.7,0,16-6.4,17.2-14.8,3.5,3.2,5.6,7.8,5.6,12.8"/>
    </clipPath>
    <radialGradient id="radial-gradient-2" cx="-1354" cy="1423.5" fx="-1354" fy="1423.5" r="1.2" gradientTransform="translate(37132 -34793.5) rotate(-90) scale(25.7 -25.7)" gradientUnits="userSpaceOnUse">
      <stop offset="0" stop-color="#fff"/>
      <stop offset="1" stop-color="#000"/>
    </radialGradient>
    <mask id="mask" x="444.3" y="26.8" width="46.2" height="43.4" maskUnits="userSpaceOnUse">
      <rect class="cls-10" x="447.4" y="30.3" width="40" height="36.4" transform="translate(-.6 90.4) rotate(-11)"/>
    </mask>
    <radialGradient id="radial-gradient-3" cx="-1354" cy="1423.5" fx="-1354" fy="1423.5" r="1.2" gradientTransform="translate(37132 -34793.5) rotate(-90) scale(25.7 -25.7)" gradientUnits="userSpaceOnUse">
      <stop offset="0" stop-color="#fff"/>
      <stop offset="1" stop-color="#fff"/>
    </radialGradient>
    <clipPath id="clippath-4">
      <path class="cls-2" d="M493.1,45.4c0-17.8-3.9-33.2-10.6-40.7,16.2,4.5,29.4,21.1,29.4,40.7s-13.2,36.1-29.4,40.7c6.7-7.4,10.6-22.9,10.6-40.7M425.6,45.4c0-23.7,18.2-43.2,38.5-45.2,11.7,2,22.4,21.5,22.4,45.2s-10.7,43.2-22.4,45.2c-20.3-2-38.5-21.5-38.5-45.2M473.5,0c-.2,0-.4,0-.7,0h-11.5c-21.7,0-39.3,20.4-39.3,45.4s17.6,45.4,39.3,45.4h11.5c.2,0,.4,0,.7,0h0c21.7,0,39.3-20.3,39.3-45.4S495.2,0,473.5,0h0Z"/>
    </clipPath>
    <linearGradient id="linear-gradient-2" x1="-1415" y1="1517.6" x2="-1413.8" y2="1517.6" gradientTransform="translate(-110917.6 103854) rotate(90) scale(73.4 -73.4)" xlink:href="#linear-gradient"/>
    <linearGradient id="linear-gradient-3" x1="547" y1="75.8" x2="670.8" y2="75.8" gradientUnits="userSpaceOnUse">
      <stop offset="0" stop-color="#274d80"/>
      <stop offset="1" stop-color="#5d94cc"/>
    </linearGradient>
    <linearGradient id="linear-gradient-4" y1="78.2" x2="670.8" y2="78.2" xlink:href="#linear-gradient-3"/>
    <linearGradient id="linear-gradient-5" y1="78.2" x2="670.8" y2="78.2" xlink:href="#linear-gradient-3"/>
    <linearGradient id="linear-gradient-6" y1="78.3" y2="78.3" xlink:href="#linear-gradient-3"/>
    <linearGradient id="linear-gradient-7" y1="78.3" y2="78.3" xlink:href="#linear-gradient-3"/>
    <linearGradient id="linear-gradient-8" y1="78.3" x2="670.8" y2="78.3" xlink:href="#linear-gradient-3"/>
    <linearGradient id="linear-gradient-9" y1="76.3" x2="670.8" y2="76.3" xlink:href="#linear-gradient-3"/>
    <linearGradient id="linear-gradient-10" y1="75.6" x2="670.8" y2="75.6" xlink:href="#linear-gradient-3"/>
    <linearGradient id="linear-gradient-11" y1="78.3" y2="78.3" xlink:href="#linear-gradient-3"/>
    <linearGradient id="linear-gradient-12" y1="78.2" x2="670.8" y2="78.2" xlink:href="#linear-gradient-3"/>
  </defs>
  <g class="cls-30">
    <g id="Layer_2" data-name="Layer 2">
      <g id="Layer_1-2" data-name="Layer 1">
        <g>
          <g>
            <g>
              <rect class="cls-9" y="5.3" width="80.1" height="80.1"/>
              <path class="cls-22" d="M61.4,21.5v28.1c0,6.3-1.9,11.4-5.6,15.2-3.7,3.8-9,5.7-15.7,5.7s-12-1.9-15.8-5.7c-3.7-3.8-5.6-8.9-5.6-15.2v-28.1h11.5v27.9c0,3.2.8,5.8,2.5,7.7,1.7,2,4.1,3,7.3,3s5.6-1,7.3-3c1.7-2,2.5-4.5,2.5-7.7v-27.9h11.5Z"/>
              <rect class="cls-9" x="88.2" y="5.3" width="80.1" height="80.1"/>
              <rect class="cls-9" x="176.4" y="5.3" width="80.1" height="80.1"/>
              <rect class="cls-9" x="264.5" y="5.3" width="80.1" height="80.1"/>
              <polygon class="cls-22" points="153.8 21.4 153.8 69.4 142.4 69.4 142.4 41.3 128.3 60.6 114.2 41.3 114.2 69.4 102.8 69.4 102.8 21.4 113.6 21.4 128.3 42.7 142.9 21.4 153.8 21.4"/>
              <path class="cls-22" d="M221.8,58.4c1.3-1.3,2-3,2-5.1s-.7-3.7-2-5c-1.3-1.4-3.1-2-5.4-2s-4,.7-5.3,2c-1.4,1.3-2.1,3-2.1,5.1s.7,3.8,2,5.1c1.4,1.3,3.2,2,5.4,2s4-.7,5.4-2M230.4,41.6c3.2,3.1,4.8,7,4.8,11.7s-1.8,9.1-5.3,12.4c-3.6,3.3-8,4.9-13.4,4.9s-9.8-1.6-13.4-4.9c-3.6-3.3-5.4-7.4-5.4-12.4s1.1-6.6,3.4-10.2l13.6-21.6h12.8l-9.4,14.9c5,.4,9.1,2.1,12.2,5.2"/>
              <path class="cls-22" d="M311.8,43.7c1.3-1.4,1.9-3.1,1.9-4.9s-.6-3.5-1.8-4.9c-1.2-1.4-2.8-2.1-4.6-2.1h-11.6v14.1h11.1c2,0,3.7-.7,5-2.1M320,26.7c3.2,3.5,4.8,7.5,4.8,12s-1.6,8.6-4.8,12.1c-3.2,3.5-7.5,5.3-12.9,5.3h-11.4v13.4h-11.3V21.4h23.1c5.1,0,9.3,1.8,12.5,5.3"/>
            </g>
            <rect class="cls-1" x="384.9" y="5.3" width="1" height="80.2"/>
          </g>
          <g>
            <g class="cls-23">
              <rect class="cls-3" x="445.9" y="3.5" width="30" height="83.8"/>
            </g>
            <path class="cls-12" d="M451.3,67.5c-.2,0-.4,0-.6,0-1.2-.3-1.9-1.6-1.5-2.8,0,0,1.6-2.5,8.2-28.8,6.6-26.3,7.4-33.5,7.4-33.5.3-1.2,1.6-1.9,2.8-1.5,1.2.3,1.9,1.6,1.5,2.8,0,0-2.8,11.6-8.9,33.3-2.6,9.4-4.3,16.1-5.3,20.7-1.3,6-1.6,8.4-1.6,8.4-.3,1-1.2,1.6-2.1,1.6"/>
            <g class="cls-25">
              <rect class="cls-4" x="444.2" y="23" width="46.5" height="46.5" transform="translate(26 206.9) rotate(-25.6)"/>
            </g>
            <g>
              <g class="cls-29">
                <g class="cls-28">
                  <g class="cls-27">
                    <g class="cls-24">
                      <rect class="cls-11" x="447.4" y="30.3" width="40" height="36.4" transform="translate(-.6 90.4) rotate(-11)"/>
                    </g>
                  </g>
                </g>
              </g>
              <path class="cls-12" d="M475.3,8.6l-6.2-6.2s0,0,0,0l-4.1-.6s-.6,3.6-18.4,34.2c-15.3,26.3-16.9,28.2-16.9,28.2l1.9,3.4h73.5l1.9-3.4-31.9-55.5ZM481.2,30l-2.6-.3h-.9c0,0-.4-.1-.4-.1l-3.5-11.6,7.4,12ZM466.2,8.6s1.8,1.4,7.8,21.2c-3.3.1-7.3.2-12.1.2s-6.6,0-8.9,0c8.4-14.2,13.1-21.3,13.1-21.3M447.3,63.5h0s-11.9,0-11.9,0c0,0,2-6.3,12-24,0,2.6,0,5.5,0,8.6,0,6,0,11.2-.2,15.4M475,63.4h-23.9v-.2s-.4-4.1-.4-15.6.2-11.2.3-13.4c0-.3,0-.5,0-.7,0,0,.1,0,.2,0,1.2-.2,4.1-.5,11-.5s11.4.4,12.7.5h.1c0,.3,0,.9.1,1.8.1,2.1.3,6.1.3,12.9s0,10.7-.4,15.2M478.8,63.6s0,0,0,0c-.2-4.2-.2-9.4-.2-15.4s0-1.5,0-2.2c4.8,17.2,5,17.6,5,17.6h-4.8ZM487.4,63l-8.6-28.6c0-.3,0-.5,0-.8h4.6l18,29.4h-14Z"/>
              <path class="cls-12" d="M467.3,3.5h6.2c20,0,38.3,18.8,38.3,41.9s-18.3,41.9-38.3,41.9h-6.2c20,0,40.8-18.8,40.8-41.9S487.3,3.5,467.3,3.5"/>
            </g>
            <g class="cls-26">
              <rect class="cls-15" x="422.1" y="0" width="90.8" height="90.8"/>
            </g>
            <path class="cls-12" d="M467.6,1.3c-.8-.4-1.7-.7-2.5-.9-.3,0-.7-.2-1-.2-.7,0-1.4.2-2,.3,0,0-.1,0-.2,0-19.4,3.2-36.3,22.1-36.3,44.9s16.9,41.7,36.3,44.9c0,0,.1,0,.2,0,.7.1,1.4.2,2,.3.3,0,.7-.1,1-.2.8-.2,1.7-.5,2.5-.9,10.3-4.9,18.9-22.8,18.9-44.1s-8.6-39.2-18.9-44.1M426.8,45.4c0-18,12.5-33.3,27.5-39.3-6,7.9-9.5,22.5-9.5,39.3s3.4,31.4,9.5,39.3c-15-6-27.5-21.3-27.5-39.3M464.1,87.1c-.7,0-1.5-.2-2.2-.3-9.8-3.1-16-20.5-16-41.4s6.3-38.3,16-41.4c.7-.1,1.5-.2,2.2-.3,10.9,2,21.4,20,21.4,41.7s-10.5,39.7-21.4,41.7"/>
          </g>
          <g>
            <path class="cls-8" d="M536.7,9.2c1.6,1.7,2.3,3.9,2.3,6.6s-.8,4.8-2.3,6.6-3.7,2.6-6.4,2.6h-6.7V6.7h6.7c2.7,0,4.8.9,6.4,2.6ZM530.3,22.9c2.1,0,3.8-.7,5-2,1.2-1.3,1.8-3.1,1.8-5.2s-.6-3.8-1.8-5.1c-1.2-1.3-2.8-2-4.9-2h-4.7v14.4h4.7,0Z"/>
            <path class="cls-8" d="M543.1,9.5c-.4,0-.7-.1-1-.4-.3-.3-.4-.6-.4-1s.1-.7.4-.9.6-.4,1-.4.7.1,1,.4.4.6.4.9-.1.7-.4,1-.6.4-1,.4h0ZM542.1,11.9h1.9v13h-1.9v-13Z"/>
            <path class="cls-8" d="M559.5,11.9l-5.5,13h-2.2l-5.5-13h2.1l4.5,10.8,4.5-10.8h2.1Z"/>
            <path class="cls-8" d="M562.7,9.5c-.4,0-.7-.1-1-.4-.3-.3-.4-.6-.4-1s.1-.7.4-.9.6-.4,1-.4.7.1,1,.4.4.6.4.9-.1.7-.4,1-.6.4-1,.4h0ZM561.8,11.9h1.9v13h-1.9v-13Z"/>
            <path class="cls-8" d="M572.3,25.3c-1.4,0-2.6-.4-3.7-1.1-1.1-.8-1.8-1.7-2.1-2.8l1.8-.5c.2.8.7,1.4,1.4,1.9.7.5,1.6.8,2.6.8s1.7-.2,2.3-.6c.6-.4.9-.9.9-1.5s-.1-.9-.4-1.1c-.3-.3-.8-.5-1.4-.7l-3.6-1.1c-2-.6-2.9-1.7-2.9-3.2,0-1,.4-1.8,1.3-2.6.9-.7,2-1.1,3.3-1.1s2.4.3,3.4.9,1.6,1.4,2,2.3l-1.8.5c-.2-.6-.7-1.1-1.3-1.5s-1.4-.6-2.3-.6-1.4.2-1.9.6-.7.8-.7,1.3c0,.7.6,1.2,1.7,1.6l3.6,1.1c1,.3,1.7.7,2.3,1.2.5.5.8,1.2.8,2.2s-.5,2.1-1.5,2.9-2.2,1.1-3.7,1.1h0Z"/>
            <path class="cls-8" d="M581.6,9.5c-.4,0-.7-.1-1-.4-.3-.3-.4-.6-.4-1s.1-.7.4-.9.6-.4,1-.4.7.1,1,.4.4.6.4.9-.1.7-.4,1-.6.4-1,.4h0ZM580.7,11.9h1.9v13h-1.9v-13Z"/>
            <path class="cls-8" d="M592.4,25.2c-1.9,0-3.5-.7-4.8-2s-1.9-2.9-1.9-4.9.6-3.6,1.9-4.8c1.3-1.3,2.9-1.9,4.8-1.9s3.5.6,4.8,1.9c1.3,1.3,1.9,2.9,1.9,4.8s-.6,3.6-1.9,4.9c-1.3,1.3-2.8,2-4.8,2h0ZM592.4,23.4c1.3,0,2.5-.5,3.4-1.4s1.4-2.1,1.4-3.5-.4-2.6-1.3-3.6-2-1.4-3.4-1.4-2.5.5-3.4,1.4-1.4,2.1-1.4,3.6.5,2.6,1.4,3.5,2.1,1.4,3.4,1.4h0Z"/>
            <path class="cls-8" d="M608.7,11.6c1.6,0,2.8.5,3.7,1.5s1.4,2.4,1.4,4.2v7.6h-2v-7.3c0-1.3-.3-2.3-.9-3-.6-.7-1.5-1.1-2.6-1.1s-2.3.4-3.1,1.3-1.2,2.1-1.2,3.5v6.5h-1.9v-13h1.9v2.3c.5-.8,1.1-1.4,1.9-1.9.8-.5,1.7-.7,2.8-.7h0Z"/>
            <path class="cls-13" d="M529.5,55.2c-1.9,0-3.6-.7-4.8-2s-1.9-2.9-1.9-4.9.6-3.6,1.9-4.9,2.9-2,4.8-2,3.6.6,4.9,2,1.9,2.9,1.9,4.9-.6,3.6-1.9,4.9-2.9,2-4.8,2h0ZM532.5,51.5c.8-.8,1.2-1.9,1.2-3.1s-.4-2.3-1.2-3.2-1.8-1.3-3-1.3-2.2.4-3,1.3c-.8.8-1.2,1.9-1.2,3.2s.4,2.3,1.2,3.1c.8.8,1.8,1.3,3,1.3s2.2-.4,3-1.3Z"/>
            <path class="cls-13" d="M542.6,41.8h4.2v2.4h-4.2v10.7h-2.7v-10.7h-2.5v-2.4h2.5v-1.5c0-1.5.4-2.7,1.1-3.5.7-.8,1.8-1.3,3.2-1.3s2,.2,2.7.5l-.6,2.2c-.6-.3-1.1-.4-1.7-.4-1.3,0-1.9.8-1.9,2.5v1.4Z"/>
            <path class="cls-13" d="M562.5,48.1h-4.5v6.8h-2.7v-18.2h8.4c1.8,0,3.2.6,4.2,1.8,1.1,1.2,1.6,2.5,1.6,4s-.4,2.4-1.1,3.4c-.7,1-1.7,1.7-3,2.1l4.6,7h-3.2l-4.3-6.8ZM558,45.6h5.5c1,0,1.8-.3,2.4-.9s.9-1.4.9-2.2-.3-1.6-.9-2.3c-.6-.6-1.4-1-2.3-1h-5.6v6.4Z"/>
            <path class="cls-13" d="M578.2,55.2c-2,0-3.7-.6-4.9-1.9-1.3-1.3-1.9-2.9-1.9-5s.6-3.6,1.8-4.9,2.8-2,4.7-2,3.6.6,4.8,1.9,1.7,2.8,1.7,4.7,0,.7,0,1.1h-10.4c0,1.1.5,2,1.2,2.7s1.7,1,3,1,3-.7,3.6-2.1l2.4.7c-.5,1-1.2,1.9-2.3,2.6s-2.3,1.1-3.9,1.1h0ZM581.9,47.4c0-1-.5-1.9-1.2-2.6s-1.6-1-2.7-1-2,.3-2.7,1-1.1,1.5-1.2,2.5h7.8Z"/>
            <path class="cls-13" d="M591.9,55.2c-1.4,0-2.7-.4-3.8-1.2-1.1-.8-1.8-1.7-2.2-2.8l2.4-.7c.2.7.7,1.3,1.4,1.8s1.4.7,2.3.7,1.4-.2,1.9-.5.7-.8.7-1.3-.1-.7-.4-.9-.7-.4-1.3-.6l-3.4-1c-2-.6-3-1.7-3-3.4s.5-1.9,1.4-2.7,2.1-1.1,3.5-1.1,2.5.3,3.5.9,1.7,1.4,2,2.4l-2.4.7c-.3-.5-.7-1-1.2-1.3s-1.2-.5-2-.5-1.2.2-1.6.5c-.4.3-.6.7-.6,1.1s.5,1,1.4,1.3l3.4,1c1.1.3,1.9.7,2.5,1.3.6.5.9,1.3.9,2.3s-.5,2.2-1.5,2.9-2.3,1.2-3.8,1.2h0Z"/>
            <path class="cls-13" d="M606,55.2c-2,0-3.7-.6-4.9-1.9-1.3-1.3-1.9-2.9-1.9-5s.6-3.6,1.8-4.9,2.8-2,4.7-2,3.6.6,4.8,1.9,1.7,2.8,1.7,4.7,0,.7,0,1.1h-10.4c0,1.1.5,2,1.2,2.7s1.7,1,3,1,3-.7,3.6-2.1l2.4.7c-.5,1-1.2,1.9-2.3,2.6s-2.3,1.1-3.9,1.1h0ZM609.7,47.4c0-1-.5-1.9-1.2-2.6s-1.6-1-2.7-1-2,.3-2.7,1-1.1,1.5-1.2,2.5h7.8Z"/>
            <path class="cls-13" d="M620.6,55.2c-1.8,0-3.3-.7-4.5-2s-1.8-2.9-1.8-4.9.6-3.6,1.8-4.9,2.7-2,4.5-2,3.5.8,4.6,2.3v-2h2.6v13.1h-2.6v-2c-1.1,1.5-2.6,2.3-4.6,2.3h0ZM621,52.8c1.2,0,2.2-.4,3-1.3s1.2-1.9,1.2-3.2-.4-2.3-1.2-3.2-1.8-1.3-3-1.3-2.2.4-3,1.2-1.2,1.9-1.2,3.2.4,2.3,1.2,3.2c.8.8,1.8,1.3,3,1.3h0Z"/>
            <path class="cls-13" d="M634,43.9c.4-.8,1-1.4,1.7-1.8s1.6-.5,2.7-.4v2.5c-1.4-.2-2.5,0-3.2.8s-1.1,2.1-1.1,3.9v5.9h-2.7v-13.1h2.7v2.1h0Z"/>
            <path class="cls-13" d="M645.8,55.3c-1.9,0-3.5-.7-4.8-2s-1.9-3-1.9-4.9.6-3.6,1.9-4.9c1.3-1.3,2.9-2,4.8-2s2.9.4,4,1.3,1.8,1.8,2,2.9l-2.5.7c-.2-.6-.6-1.2-1.3-1.7-.7-.5-1.4-.7-2.3-.7s-2.2.4-3,1.3c-.8.9-1.2,1.9-1.2,3.1s.4,2.2,1.2,3.1c.8.9,1.8,1.3,3,1.3s1.6-.2,2.3-.7c.7-.5,1.1-1,1.3-1.7l2.5.7c-.3,1.1-.9,2-2,2.8-1.1.8-2.4,1.3-4,1.3h0Z"/>
            <path class="cls-13" d="M661.5,41.4c1.6,0,2.9.5,3.8,1.5.9,1,1.3,2.4,1.3,4.2v7.7h-2.6v-7.2c0-1.2-.3-2.1-.8-2.7s-1.3-1-2.3-1-2,.4-2.7,1.2c-.7.8-1,1.9-1,3.2v6.5h-2.7v-19h2.7v7.8c1.1-1.5,2.5-2.3,4.4-2.3h0Z"/>
            <path class="cls-13" d="M536.1,84.9l-1.8-2c-1.6,1.5-3.5,2.3-5.5,2.3-1.5,0-2.8-.5-3.9-1.5-1.1-1-1.6-2.2-1.6-3.8s.3-2,.9-3c.6-.9,1.4-1.7,2.6-2.4-1-1.2-1.5-2.4-1.5-3.5s.5-2.7,1.5-3.6c1-.9,2.3-1.3,3.8-1.3s2.5.4,3.5,1.2,1.5,1.8,1.7,2.9l-2.4.7c-.2-.7-.5-1.3-1-1.7-.5-.4-1.1-.6-1.8-.6s-1.4.2-1.9.7-.7,1-.7,1.8.4,1.6,1.3,2.6l5,5.4c.6-1,1-2.1,1.2-3.1l2.4.7c-.3,1.5-.9,3-1.8,4.3l3.5,3.8h-3.3ZM529,82.8c1.3,0,2.5-.5,3.6-1.6l-4.3-4.7c-1.6.9-2.4,2.1-2.4,3.4s.3,1.5.9,2.1,1.3.9,2.3.9h0Z"/>
            <path class="cls-16" d="M547.8,66.7h2.8v18.2h-2.8v-18.2Z"/>
            <path class="cls-14" d="M561.2,71.4c1.6,0,2.9.5,3.8,1.5.9,1,1.3,2.4,1.3,4.2v7.7h-2.6v-7.2c0-1.2-.3-2.1-.8-2.7s-1.3-1-2.3-1-2,.4-2.7,1.2c-.7.8-1,1.9-1,3.2v6.5h-2.7v-13.1h2.7v1.9c1.1-1.5,2.5-2.3,4.4-2.3h0Z"/>
            <path class="cls-20" d="M576.7,71.4c1.6,0,2.9.5,3.8,1.5.9,1,1.3,2.4,1.3,4.2v7.7h-2.6v-7.2c0-1.2-.3-2.1-.8-2.7s-1.3-1-2.3-1-2,.4-2.7,1.2c-.7.8-1,1.9-1,3.2v6.5h-2.7v-13.1h2.7v1.9c1.1-1.5,2.5-2.3,4.4-2.3h0Z"/>
            <path class="cls-21" d="M591.2,85.2c-1.9,0-3.6-.7-4.8-2s-1.9-2.9-1.9-4.9.6-3.6,1.9-4.9,2.9-2,4.8-2,3.6.6,4.9,2,1.9,2.9,1.9,4.9-.6,3.6-1.9,4.9-2.9,2-4.8,2h0ZM594.2,81.5c.8-.8,1.2-1.9,1.2-3.1s-.4-2.3-1.2-3.2-1.8-1.3-3-1.3-2.2.4-3,1.3c-.8.8-1.2,1.9-1.2,3.2s.4,2.3,1.2,3.1c.8.8,1.8,1.3,3,1.3s2.2-.4,3-1.3Z"/>
            <path class="cls-19" d="M612.2,71.8l-5.4,13.1h-3l-5.4-13.1h2.9l4,10.1,4-10.1h2.9Z"/>
            <path class="cls-17" d="M619.3,85.2c-1.8,0-3.3-.7-4.5-2s-1.8-2.9-1.8-4.9.6-3.6,1.8-4.9,2.7-2,4.5-2,3.5.8,4.6,2.3v-2h2.6v13.1h-2.6v-2c-1.1,1.5-2.6,2.3-4.6,2.3h0ZM619.7,82.8c1.2,0,2.2-.4,3-1.3s1.2-1.9,1.2-3.2-.4-2.3-1.2-3.2-1.8-1.3-3-1.3-2.2.4-3,1.2-1.2,1.9-1.2,3.2.4,2.3,1.2,3.2c.8.8,1.8,1.3,3,1.3h0Z"/>
            <path class="cls-18" d="M637.8,84.5c-1,.4-1.9.6-2.8.6-1.3,0-2.3-.4-3-1.2s-1-1.9-1-3.3v-6.4h-2.3v-2.4h2.3v-4.4h2.6v4.4h4.1v2.4h-4.1v6.4c0,1.3.6,2,1.8,2s1.1-.1,1.7-.4l.7,2.2Z"/>
            <path class="cls-7" d="M640.6,69.2c-.3-.3-.5-.7-.5-1.2s.2-.8.5-1.2c.3-.3.7-.5,1.2-.5s.9.2,1.2.5c.3.3.5.7.5,1.2s-.2.9-.5,1.2c-.3.3-.7.5-1.2.5s-.9-.2-1.2-.5ZM640.5,71.8h2.6v13.1h-2.6v-13.1Z"/>
            <path class="cls-5" d="M652.7,85.2c-1.9,0-3.6-.7-4.8-2s-1.9-2.9-1.9-4.9.6-3.6,1.9-4.9,2.9-2,4.8-2,3.6.6,4.9,2,1.9,2.9,1.9,4.9-.6,3.6-1.9,4.9-2.9,2-4.8,2h0ZM655.7,81.5c.8-.8,1.2-1.9,1.2-3.1s-.4-2.3-1.2-3.2-1.8-1.3-3-1.3-2.2.4-3,1.3c-.8.8-1.2,1.9-1.2,3.2s.4,2.3,1.2,3.1c.8.8,1.8,1.3,3,1.3s2.2-.4,3-1.3Z"/>
            <path class="cls-6" d="M669.3,71.4c1.6,0,2.9.5,3.8,1.5.9,1,1.3,2.4,1.3,4.2v7.7h-2.6v-7.2c0-1.2-.3-2.1-.8-2.7s-1.3-1-2.3-1-2,.4-2.7,1.2c-.7.8-1,1.9-1,3.2v6.5h-2.7v-13.1h2.7v1.9c1.1-1.5,2.5-2.3,4.4-2.3h0Z"/>
          </g>
        </g>
      </g>
    </g>
  </g>
</svg>