<?xml version="1.0" encoding="UTF-8"?>
<svg id="Layer_2" data-name="Layer 2" xmlns="http://www.w3.org/2000/svg" viewBox="0 0 555.9 80.1">
  <defs>
    <style>
      .cls-1 {
        fill: #d74a2a;
      }

      .cls-1, .cls-2, .cls-3 {
        stroke-width: 0px;
      }

      .cls-2 {
        fill: #3b3b3c;
      }

      .cls-3 {
        fill: #fff;
      }
    </style>
  </defs>
  <g id="Layer_1-2" data-name="Layer 1">
    <g>
      <g>
        <path class="cls-2" d="M442,36.3c-4.1,0-7.5-1.4-10.2-4.2-2.7-2.8-4.1-6.3-4.1-10.4s1.4-7.6,4.1-10.3,6.1-4.2,10.2-4.2,6.3.9,8.7,2.7c2.3,1.8,3.8,3.9,4.5,6.4l-5.2,1.3c-.5-1.5-1.4-2.7-2.9-3.7s-3.1-1.5-5.1-1.5-4.8.9-6.4,2.7c-1.6,1.8-2.4,4-2.4,6.6s.8,4.8,2.5,6.7c1.6,1.9,3.8,2.8,6.4,2.8s3.7-.5,5.1-1.5,2.4-2.2,2.9-3.7l5.2,1.4c-.7,2.4-2.2,4.5-4.5,6.3-2.3,1.8-5.2,2.7-8.5,2.7h0Z"/>
        <path class="cls-2" d="M467.3,36.3c-2.8,0-5.1-1-6.9-3.1s-2.8-4.6-2.8-7.6.9-5.6,2.8-7.7c1.9-2,4.2-3,6.9-3s4.8,1,6.3,3v-2.4h5.2v20.2h-5.2v-2.5c-1.5,2-3.6,3-6.3,3h0ZM468.1,31.5c1.6,0,2.9-.6,4-1.7,1.1-1.1,1.6-2.6,1.6-4.3s-.5-3.1-1.6-4.2c-1.1-1.1-2.4-1.7-4-1.7s-3,.5-4,1.7c-1,1.1-1.6,2.5-1.6,4.3s.5,3.2,1.6,4.3,2.4,1.7,4,1.7h0Z"/>
        <path class="cls-2" d="M489,18.4c1.3-2.6,3.5-3.7,6.5-3.3v5c-2.2-.4-3.8,0-4.9,1.1s-1.6,3-1.6,5.6v8.8h-5.1V15.4h5.1v3h0Z"/>
        <path class="cls-2" d="M507.2,36.3c-3.2,0-5.7-1-7.7-2.9s-3-4.5-3-7.7,1-5.6,2.9-7.7c1.9-2,4.4-3,7.5-3s5.6,1,7.5,2.9c1.8,2,2.7,4.5,2.7,7.4s0,1.4-.1,1.9h-15.3c.2,1.4.7,2.5,1.7,3.3s2.3,1.2,4,1.2,3.9-.9,4.8-2.7l4.6,1.4c-.6,1.5-1.8,2.9-3.4,4-1.7,1.2-3.7,1.7-6.1,1.7h0ZM512,23.9c-.1-1.3-.7-2.3-1.6-3.2s-2.1-1.3-3.6-1.3-2.6.4-3.6,1.3c-1,.9-1.5,1.9-1.7,3.2h10.4Z"/>
        <path class="cls-2" d="M530.4,36.3c-3.2,0-5.7-1-7.7-2.9-2-2-3-4.5-3-7.7s1-5.6,2.9-7.7c1.9-2,4.4-3,7.5-3s5.6,1,7.5,2.9,2.7,4.5,2.7,7.4,0,1.4-.1,1.9h-15.3c.2,1.4.7,2.5,1.7,3.3s2.3,1.2,4,1.2,3.9-.9,4.8-2.7l4.6,1.4c-.6,1.5-1.8,2.9-3.4,4s-3.7,1.7-6.1,1.7h0ZM535.2,23.9c-.1-1.3-.7-2.3-1.6-3.2s-2.1-1.3-3.6-1.3-2.6.4-3.6,1.3-1.5,1.9-1.7,3.2h10.4Z"/>
        <path class="cls-2" d="M549.2,18.4c1.3-2.6,3.5-3.7,6.5-3.3v5c-2.2-.4-3.8,0-4.9,1.1s-1.6,3-1.6,5.6v8.8h-5.1V15.4h5.1v3h0Z"/>
        <path class="cls-2" d="M442,74.2c-4.1,0-7.5-1.4-10.2-4.2s-4.1-6.3-4.1-10.4,1.4-7.6,4.1-10.3c2.7-2.8,6.1-4.2,10.2-4.2s6.3.9,8.7,2.7c2.3,1.8,3.8,3.9,4.5,6.4l-5.2,1.3c-.5-1.5-1.4-2.7-2.9-3.7-1.4-1-3.1-1.5-5.1-1.5s-4.8.9-6.4,2.7-2.4,4-2.4,6.6.8,4.8,2.5,6.7c1.6,1.9,3.8,2.8,6.4,2.8s3.7-.5,5.1-1.5c1.4-1,2.4-2.2,2.9-3.7l5.2,1.4c-.7,2.4-2.2,4.5-4.5,6.3-2.3,1.8-5.2,2.7-8.5,2.7h0Z"/>
        <path class="cls-2" d="M468.2,74.2c-3.2,0-5.7-1-7.7-2.9-2-2-3-4.5-3-7.7s1-5.6,2.9-7.7c1.9-2,4.4-3,7.5-3s5.6,1,7.5,2.9c1.8,2,2.7,4.5,2.7,7.4s0,1.4-.1,1.9h-15.3c.2,1.4.7,2.5,1.7,3.3,1,.8,2.3,1.2,4,1.2s3.9-.9,4.8-2.7l4.6,1.4c-.6,1.5-1.8,2.9-3.4,4s-3.7,1.7-6.1,1.7h0ZM473,61.8c-.1-1.3-.7-2.3-1.6-3.2s-2.1-1.3-3.6-1.3-2.6.4-3.6,1.3-1.5,1.9-1.7,3.2h10.4Z"/>
        <path class="cls-2" d="M493.4,52.9c2.5,0,4.5.8,5.8,2.4,1.3,1.6,2,3.8,2,6.6v11.8h-5.2v-10.8c0-1.6-.4-2.8-1.1-3.7s-1.8-1.3-3.1-1.3-2.6.5-3.4,1.6-1.3,2.5-1.3,4.3v10h-5.1v-20.2h5.1v2.6c1.6-2.1,3.7-3.1,6.3-3.1h0Z"/>
        <path class="cls-2" d="M518.5,73c-1.6.6-3.1,1-4.6,1-2.2,0-3.8-.6-4.9-1.9-1.1-1.3-1.7-3-1.7-5.3v-8.7h-3.3v-4.6h3.3v-6.6h5.2v6.6h5.8v4.6h-5.8v8.7c0,1.7.8,2.6,2.4,2.6s1.6-.2,2.3-.6l1.3,4.3Z"/>
        <path class="cls-2" d="M530.6,74.2c-3.2,0-5.7-1-7.7-2.9-2-2-3-4.5-3-7.7s1-5.6,2.9-7.7c1.9-2,4.4-3,7.5-3s5.6,1,7.5,2.9c1.8,2,2.7,4.5,2.7,7.4s0,1.4-.1,1.9h-15.3c.2,1.4.7,2.5,1.7,3.3,1,.8,2.3,1.2,4,1.2s3.9-.9,4.8-2.7l4.6,1.4c-.6,1.5-1.8,2.9-3.4,4-1.7,1.2-3.7,1.7-6.1,1.7h0ZM535.4,61.8c-.1-1.3-.7-2.3-1.6-3.2-.9-.9-2.1-1.3-3.6-1.3s-2.6.4-3.6,1.3-1.5,1.9-1.7,3.2h10.4Z"/>
        <path class="cls-2" d="M549.4,56.4c1.3-2.6,3.5-3.7,6.5-3.3v5c-2.2-.4-3.8,0-4.9,1.1s-1.6,3-1.6,5.6v8.8h-5.1v-20.2h5.1v3h0Z"/>
      </g>
      <g>
        <g>
          <rect class="cls-1" y="0" width="80.1" height="80.1"/>
          <path class="cls-3" d="M61.4,16.2v28.1c0,6.3-1.9,11.4-5.6,15.2-3.7,3.8-9,5.7-15.7,5.7s-12-1.9-15.8-5.7c-3.7-3.8-5.6-8.9-5.6-15.2v-28.1h11.5v27.9c0,3.2.8,5.8,2.5,7.7,1.7,2,4.1,2.9,7.3,2.9s5.6-1,7.3-2.9c1.7-2,2.5-4.5,2.5-7.7v-27.9h11.5Z"/>
          <rect class="cls-1" x="88.2" y="0" width="80.1" height="80.1"/>
          <rect class="cls-1" x="176.3" y="0" width="80.1" height="80.1"/>
          <rect class="cls-1" x="264.4" y="0" width="80.1" height="80.1"/>
          <polygon class="cls-3" points="153.7 16 153.7 64.1 142.4 64.1 142.4 35.9 128.2 55.2 114.1 35.9 114.1 64.1 102.7 64.1 102.7 16 113.6 16 128.3 37.4 142.9 16 153.7 16"/>
          <path class="cls-3" d="M221.8,53.1c1.3-1.3,2-3,2-5.1s-.7-3.7-2-5c-1.3-1.4-3.1-2-5.4-2s-4,.7-5.3,2c-1.4,1.3-2.1,3-2.1,5.1s.7,3.8,2,5.1c1.4,1.3,3.2,2,5.4,2s4-.7,5.4-2M230.3,36.3c3.2,3.1,4.8,7,4.8,11.7s-1.8,9.1-5.3,12.4-8,4.9-13.4,4.9-9.8-1.6-13.4-4.9c-3.6-3.3-5.4-7.4-5.4-12.4s1.1-6.6,3.4-10.2l13.6-21.6h12.8l-9.4,14.8c5,.4,9.1,2.1,12.2,5.2"/>
          <path class="cls-3" d="M311.6,38.4c1.3-1.4,1.9-3,1.9-4.9s-.6-3.5-1.8-4.9c-1.2-1.4-2.8-2.1-4.6-2.1h-11.6v14.1h11.1c2,0,3.7-.7,5-2.1M319.9,21.3c3.2,3.5,4.8,7.5,4.8,12s-1.6,8.6-4.8,12.1c-3.2,3.5-7.5,5.3-12.9,5.3h-11.4v13.4h-11.3V16h23.1c5.1,0,9.3,1.8,12.5,5.3"/>
        </g>
        <rect class="cls-1" x="384.8" width="1" height="80.1"/>
      </g>
    </g>
  </g>
</svg>