<?xml version="1.0" encoding="UTF-8"?>
<svg id="Layer_2" data-name="Layer 2" xmlns="http://www.w3.org/2000/svg" viewBox="0 0 496.2 80.2">
  <defs>
    <style>
      .cls-1 {
        fill: #d74a2a;
      }

      .cls-1, .cls-2, .cls-3, .cls-4, .cls-5, .cls-6 {
        stroke-width: 0px;
      }

      .cls-2 {
        fill: #6283bc;
      }

      .cls-3 {
        fill: #6280b9;
      }

      .cls-4 {
        fill: #6086bf;
      }

      .cls-5 {
        fill: #fff;
      }

      .cls-6 {
        fill: #243e84;
      }
    </style>
  </defs>
  <g id="Layer_1-2" data-name="Layer 1">
    <g>
      <g>
        <g>
          <path class="cls-3" d="M458.3,19.7c-.2,0-.4,0-.4-.2,0-.1,0-.2-.1-.3-1.2-.7-2.4-1.2-3.5-1.4-.3,0-.5-.2-.6-.4l11.1-8.6c0,0,.1-.2,0-.3,0,0,0,0,0,0l-.8-1c-.1-.2,0-.3.1-.3l6.5-.3c.2,0,.3.1.3.3,0,0,0,0,0,.1l-1.9,5.9c0,.1-.1.2-.2.2-.2,0-.4,0-.5-.4-.2-.5-.5-.6-1-.2l-9.1,6.8Z"/>
          <path class="cls-2" d="M474.1,22.6v-7.8c0,0,0-.2.2-.2,0,0,0,0,0,0l5.5,2.2c.2,0,.3.2.3.4v7.7c0,.1,0,.2.2.3l9.3,3.5c.2,0,.3.2.3.4.9,8.9-1.3,16.5-6.6,23-1.7,2-3.5,3.7-5.5,5.2-3.7,2.7-7.9,4.4-12.6,5.2-.1,0-.3,0-.3-.2,0,0,0,0,0,0V19.6c0-.1.1-.2.2-.2,0,0,0,0,0,0l8.8,3.3c0,0,.1,0,.2,0,0,0,0,0,0,0Z"/>
          <path class="cls-6" d="M452.8,32.3v-5.1c0,0,.1-.2.2-.2,0,0,0,0,0,0l4.2,1.7c.1,0,.2.2.2.3v5.1c0,.2.2.4.4.5l5.2,2.1c.1,0,.2.2.2.3v25.6c0,.1,0,.2-.1.2-5.9.6-11.4-.5-16.6-3.3-.2,0-.3-.3-.3-.5v-28.6c0-.2.2-.3.4-.3,0,0,0,0,.1,0l5.9,2.3c0,0,.1,0,.2,0,0,0,0,0,0,0Z"/>
          <path class="cls-2" d="M444.4,40.7c.3.1.5.4.5.8v16.7c0,.4,0,.5-.4.3-8.1-5.5-12.7-13-13.6-22.6,0-.1,0-.3.2-.3,0,0,0,0,.1,0l13.1,5.2Z"/>
          <path class="cls-6" d="M453.8,17.4l-1.7-.5c0,.1-.1.2,0,.4,0,.1,0,.2,0,.3l-1.3,1.1-1-.6-2.1,2.5,6.5,2.1c.2,0,.4,0,.5,0,1.5-1.1,3-2.2,4.5-3.3-1.7-.6-3.4-1.2-5.1-1.8Z"/>
          <path class="cls-3" d="M452.7,17.1c-1.5,1.1-2.9,2.3-4.4,3.4-4.6,3.5-9.2,7.1-13.8,10.7-.1,0-.1,0-.1,0,0,0,0,0,0,0,4.4-5.2,8.7-10.4,13.1-15.7.1-.2.3-.2.5-.1,1.5.6,3.1,1.2,4.6,1.8Z"/>
          <g>
            <path class="cls-6" d="M430.5,33.4c0-.1,0-.1,0-.1,0,0,0,0-.2,0h-1.1c-.2,0-.2.1-.2.2h0s0-.8,0-.8c0-.2,0-.7.5-.7,0,0,.3,0,.4.2,0,.2,0,.3.1.6h.5c.2,0,.2,0,.2-.2h0s0,.9,0,.9h0ZM429.7,32.8h0c0-.3,0-.4-.4-.4-.3,0-.4,0-.4.3,0,0,0,.1,0,.1h.7Z"/>
            <path class="cls-6" d="M430.7,29.6v.5s-.9.5-.9.5h0c0,0,.5,0,.5,0,.2,0,.2,0,.2-.2h0s0,.9,0,.9h0c0-.2,0-.2-.2-.2h-1.1c-.2,0-.2,0-.2.1h0s0-.8,0-.8c0-.2,0-.7.5-.7.3,0,.4.3.4.4l.8-.5s0,0,0-.1h0ZM429.8,30.7c0-.3,0-.5-.4-.5-.3,0-.4,0-.4.3,0,.1,0,.1,0,.2h.7Z"/>
            <path class="cls-6" d="M430.1,27.2c.5,0,.8.5.8,1,0,.5-.5.8-1,.8-.6,0-.8-.5-.8-1,0-.5.5-.9,1-.8ZM430,28.6c.2,0,.8,0,.9-.3,0-.4-.5-.5-.8-.6-.4,0-.8,0-.9.3,0,.4.4.5.8.6Z"/>
            <path class="cls-6" d="M429.8,24.8c0,.1,0,.2.2.3l1.4.9h0c0,0-1.6.4-1.6.4-.2,0-.2,0-.2.2h0s.2-.9.2-.9h0c0,.2,0,.2,0,.3,0,0,.2,0,.2,0l.9-.2-.8-.5c0,0-.1,0-.2,0,0,0-.1,0-.2.2h0s.1-.5.1-.5h0Z"/>
            <path class="cls-6" d="M431.8,23.8l-.2.9h0c0-.2,0-.3-.1-.3l-1.2-.3c-.2,0-.2,0-.2.2h0s.2-.9.2-.9h0c0,.1,0,.3.1.3l1.2.3c.2,0,.2,0,.2-.2h0Z"/>
            <path class="cls-6" d="M431.9,23.3c0-.2,0-.2-.1-.3l-1.2-.4c-.2,0-.2.1-.2.1h0s.2-.5.2-.5l1.3-.5h0s-.7-.3-.7-.3c-.1,0-.2,0-.3.1h0s.2-.5.2-.5h0c0,.2,0,.2.1.3l1.4.5h0c0,0-1.7.7-1.7.7h0s1,.3,1,.3c.2,0,.2,0,.3-.1h0s-.2.6-.2.6h0Z"/>
            <path class="cls-6" d="M432.9,19.1c0,.2,0,.2.1.3h.3c0,.3,0,.6-.1.8-.3.6-.8.7-1.2.5-.5-.2-.7-.7-.5-1.2,0-.2.3-.3.3-.4,0,0,0-.1,0-.2h0c0,0,.5.2.5.2h0c-.2,0-.6.1-.7.4-.1.3.2.6.6.8.2,0,.8.3.9-.1,0-.2,0-.3,0-.3h-.2c-.1-.2-.2,0-.3,0h0s.4-.8.4-.8h0Z"/>
            <path class="cls-6" d="M433.5,15.7s0,.1,0,.2l.5.8.4.2c.2.1.2,0,.3,0h0s-.4.8-.4.8h0c0-.2,0-.3,0-.4l-.3-.2h-1s-.2,0-.2.1h0s.4-.8.4-.8h0c0,.2,0,.2,0,.3,0,0,.1,0,.2,0h.7s-.3-.5-.3-.5c0,0,0-.2-.2-.2,0,0-.1,0-.2.1h0s.3-.5.3-.5h0Z"/>
            <path class="cls-6" d="M435.5,14.2c.4.3.5.8.3,1.3-.3.4-.8.5-1.3.2-.5-.3-.5-.8-.3-1.3.3-.4.8-.6,1.3-.2ZM434.8,15.3c.2.1.7.4.9,0s-.2-.7-.4-.8c-.3-.2-.7-.4-.9,0-.2.3.1.6.4.8Z"/>
            <path class="cls-6" d="M436.4,11.8c0,.1,0,.2,0,.3l.6.5c.1,0,.3.3.3.4,0,.2,0,.4-.2.5,0,0-.2.3-.4.3-.1,0-.3,0-.5-.1l-.7-.5c-.2-.1-.2,0-.3,0h0s.5-.7.5-.7h0c0,.2-.1.2,0,.4l.7.5c.1,0,.4.3.6,0s0-.6-.2-.7l-.6-.5c-.1,0-.2-.1-.4,0h0s.3-.5.3-.5h0Z"/>
            <path class="cls-6" d="M439.2,11.1l-.4.4h-1c0-.1,0,0,0,0l.4.3c.2.1.2.1.3,0h0s-.6.7-.6.7h0c.1-.2.1-.2,0-.4l-.8-.8c-.2-.1-.2,0-.3,0h0s.6-.7.6-.7c.1-.1.5-.5.8-.2.2.2.1.5,0,.6h.9c0,.1,0,0,.1,0h0ZM437.8,11.3c.2-.3.3-.4,0-.6-.2-.2-.3-.2-.5,0,0,.1,0,.1,0,.2l.5.4Z"/>
            <path class="cls-6" d="M441,9.4l-.7.6h0c0-.1.2-.2,0-.3l-.8-.9c-.1-.1-.2,0-.3,0h0s.7-.7.7-.7h0c0,.1-.2.2,0,.3l.8.9c.1.1.2,0,.3,0h0Z"/>
            <path class="cls-6" d="M441.4,9c.1-.1.2-.2,0-.3l-.8-.9c-.2,0-.3,0-.3,0h0s.4-.4.4-.4l1.4.3h0s-.5-.6-.5-.6c0-.1-.2-.2-.3,0h0c0,0,.4-.4.4-.4h0c-.1.2-.1.2,0,.3l.9,1.2h0s-1.8-.3-1.8-.3h0s.6.8.6.8c.1.1.2.1.3,0h0s-.5.4-.5.4h0Z"/>
            <path class="cls-6" d="M443.2,7.6c.1-.1.2-.2,0-.3l-.7-1c-.2,0-.3,0-.3,0h0c0,0,.4-.4.4-.4l1.3.4h0s-.4-.6-.4-.6c0-.1-.2-.2-.3,0h0c0,0,.5-.4.5-.4h0c-.1.2-.1.2,0,.3l.9,1.2h0s-1.7-.5-1.7-.5h0s.6.8.6.8c.1.2.2.2.3,0h0c0,0-.5.4-.5.4h0Z"/>
            <path class="cls-6" d="M446.3,4.7c.3.5.1,1-.3,1.2-.5.3-1,.1-1.2-.3-.3-.5,0-1,.3-1.2.4-.2,1-.1,1.2.3ZM445.1,5.3c.1.2.4.7.8.5.4-.2,0-.7,0-.9-.2-.3-.5-.7-.8-.5-.3.2-.2.6,0,.9Z"/>
            <path class="cls-6" d="M448,2.9c-.1,0-.1.1-.1.3v1.6c.1,0,0,0,0,0l-1.3-1.1c-.1-.1-.2,0-.3,0h0c0,0,.8-.4.8-.4h0c-.1.1-.2.2-.2.2s.1.1.2.2l.7.6v-.9c0,0,0-.1-.1-.2,0,0-.1,0-.2,0h0c0,0,.5-.3.5-.3h0Z"/>
            <path class="cls-6" d="M450.4,3.7l-.8.3h0c.1-.1.2-.1.2-.2,0,0-.2-.2-.2-.3l-.5.2c0,.2,0,.3,0,.3,0,0,.2,0,.2,0h0c0,0-.5.3-.5.3h0c.1-.1.1-.2.1-.4v-1.5h0s1,1,1,1c.2.2.3.3.4.2h0s0,0,0,0ZM449.5,3.5l-.5-.5v.7s.5-.2.5-.2Z"/>
            <path class="cls-6" d="M451.9,3.2l-.9.3h0c.2-.1.2-.2.2-.4l-.4-1.3c-.2,0-.4.2-.3.6h0s-.2-.5-.2-.5l1.5-.5.2.5h0c-.2-.3-.4-.3-.6-.2l.4,1.3c0,.2.1.2.3.1h0Z"/>
            <path class="cls-6" d="M453.6,2.7l-.9.2h0c.1-.1.2-.1.2-.3l-.3-1.2c0-.2-.2-.1-.3-.1h0c0,0,.9-.3.9-.3h0c-.1,0-.2.1-.2.3l.3,1.2c0,.2.1.1.3.1h0Z"/>
            <path class="cls-6" d="M455.8,1.4c.1.5-.2,1-.7,1.1-.5.1-1-.2-1.1-.7-.1-.5.2-1,.7-1.1s1,.2,1.1.7ZM454.5,1.6c0,.2.2.8.6.7.4,0,.3-.7.3-.9,0-.4-.3-.8-.6-.7s-.4.5-.3.9Z"/>
            <path class="cls-6" d="M456.5,2.1c.1,0,.2,0,.2-.2l-.2-1.2c-.2-.2-.2-.2-.2-.2h0c0,0,.5-.1.5-.1l1,1h0s0-.8,0-.8c0-.2,0-.2-.3-.2h0c0,0,.5-.1.5-.1h0c-.2.1-.2.2-.2.3l.2,1.5h0s-1.3-1.2-1.3-1.2h0s.1,1,.1,1c0,.2,0,.2.3.2h0c0,0-.6.1-.6.1h0Z"/>
            <path class="cls-6" d="M460.8,1.8h-.9s0,0,0,0c.1,0,.2,0,.2-.2V.3c0-.2-.2-.2-.3-.2h0c0,0,.9,0,.9,0h0c-.1,0-.2,0-.2.3v1.2c0,.2.1.2.3.2h0Z"/>
            <path class="cls-6" d="M461.4,1.7c.2,0,.2,0,.2-.2V.3c0-.2-.1-.2-.2-.2h0c0,0,.5,0,.5,0l.9,1.1h0s0-.8,0-.8c0-.2,0-.2-.2-.3h0c0,0,.5,0,.5,0h0c-.2,0-.2.1-.2.3v1.5c0,0-.1,0-.1,0l-1.1-1.4h0s0,1,0,1c0,.2,0,.2.2.3h0c0,0-.6,0-.6,0h0Z"/>
            <path class="cls-6" d="M465,.3l1.5.2v.5c0,0-.1,0-.1,0,0-.4-.2-.5-.5-.5-.1,0-.2,0-.2,0v.6c0,0,0,0,0,0,.2,0,.4,0,.5-.3h0s-.1.9-.1.9h0c0-.3-.1-.4-.4-.5v.6c-.1.1,0,.1.1.2.2,0,.5,0,.7-.4h0s-.2.5-.2.5l-1.5-.2h0c.1,0,.2,0,.2-.2l.2-1.2c0-.2,0-.2-.2-.2h0Z"/>
            <path class="cls-6" d="M466.9,2.2c.2,0,.2,0,.3-.2l.3-1.2c-.1-.2-.1-.2-.2-.2h0c0,0,.5,0,.5,0l.6,1.3h0s.2-.8.2-.8c0-.1,0-.2-.2-.3h0c0,0,.5,0,.5,0h0c-.2,0-.2,0-.2.2l-.3,1.5h0s-.8-1.6-.8-1.6h0s-.2,1-.2,1c0,.2,0,.2.2.3h0c0,0-.6,0-.6,0h0Z"/>
            <path class="cls-6" d="M471,2.7c-.2,0-.2,0-.3.2v.3c-.2,0-.6,0-.8,0-.6-.2-.8-.7-.6-1.1.1-.5.6-.8,1.1-.6.2,0,.4.2.4.3,0,0,.1,0,.1,0h0s-.2.6-.2.6h0c0-.3-.1-.6-.4-.7-.4-.1-.6.2-.7.7,0,.2-.2.8.2.9.2,0,.3,0,.3-.1v-.3c.1-.2,0-.2-.1-.2h0c0,0,.8.2.8.2h0Z"/>
            <path class="cls-6" d="M472.2,3.9l-.8-.3h0c.1,0,.2,0,.3-.1l.4-1.2c0-.2,0-.2-.2-.3h0c0,0,.8.3.8.3h0c-.1,0-.2,0-.3.1l-.4,1.2c0,.2,0,.2.2.3h0Z"/>
            <path class="cls-6" d="M472.8,4c.1,0,.2,0,.3,0l.5-1.1c0-.2,0-.2-.1-.3h0c0,0,.5.2.5.2l.4,1.4h0s.3-.7.3-.7c0-.1,0-.2-.1-.3h0c0,0,.5.2.5.2h0c-.2,0-.2,0-.3.2l-.6,1.4h0s-.5-1.8-.5-1.8h0s-.4.9-.4.9c0,.2,0,.2.1.3h0c0,0-.5-.2-.5-.2h0Z"/>
            <path class="cls-6" d="M475.6,3.4l1.3.7-.2.5h0c.1-.4,0-.5-.3-.7-.1,0-.2,0-.2,0l-.3.5h0c.2.1.4.1.5-.1h0s-.4.8-.4.8h0c.1-.3,0-.5-.2-.6l-.3.5c0,0,0,.1.1.2.2.1.5.2.8,0h0s-.3.5-.3.5l-1.3-.7h0c.1,0,.2,0,.3-.1l.6-1.1c0-.1,0-.2-.1-.3h0Z"/>
            <path class="cls-6" d="M477.6,4.5l1.3.8-.3.4h0c.1-.4,0-.5-.3-.7-.1,0-.2,0-.2,0l-.3.5h0c.2.1.3.1.5-.1h0s-.5.8-.5.8h0c.1-.3,0-.5-.1-.6l-.3.5c0,0,0,.1.1.2.2.1.5.2.8,0h0s-.4.4-.4.4l-1.3-.8h0c.1,0,.2,0,.3,0l.7-1.1c0-.1,0-.2,0-.3h0Z"/>
            <path class="cls-6" d="M479.9,8.2l-.4-.3v-1s0,0,0,0l-.3.4c-.1.2,0,.2,0,.3h0c0,0-.7-.5-.7-.5h0c.2,0,.2,0,.3-.1l.7-.9c.1-.2,0-.2,0-.3h0c0,0,.7.4.7.4.1.1.6.4.3.8-.2.3-.4.2-.6.1v.9c0,0,0,0,0,.1h0ZM479.6,6.8c.3.2.4.2.6,0,.2-.2.1-.4,0-.5-.1,0-.1,0-.2,0l-.4.5Z"/>
            <path class="cls-6" d="M481,9.1l-.7-.6h0c.1,0,.2,0,.3,0l.8-1c.1-.1,0-.2,0-.3h0s.7.5.7.5h0c0,0-.2-.1-.3,0l-.8,1c-.1.1,0,.2,0,.3h0Z"/>
            <path class="cls-6" d="M481.5,9.4c.1,0,.2.1.3,0l.8-.9c0-.2,0-.3,0-.3h0s.4.3.4.3v1.4c0,0,0,0,0,0l.5-.6c.1-.1.1-.2,0-.3h0s.4.3.4.3h0c-.2,0-.2,0-.3,0l-1,1.1h0s.1-1.8.1-1.8h0s-.7.7-.7.7c-.1.1-.1.2,0,.4h0s-.4-.3-.4-.3h0Z"/>
            <path class="cls-6" d="M484.8,12c-.1-.1-.2-.1-.3,0l-.2.2c-.1,0-.4-.2-.6-.4-.4-.5-.3-1,0-1.3.4-.3.9-.4,1.3,0,.2.2.2.4.2.5,0,0,.1,0,.2,0h0c0,0-.4.5-.4.5h0c.1-.3.2-.6,0-.8-.3-.3-.6,0-.9.2-.1.1-.6.6-.3.9.2.2.2.1.3,0l.2-.2c.1-.1,0-.2,0-.3h0s.6.6.6.6h0Z"/>
            <path class="cls-6" d="M487,13.8c.1-.1.3-.4,0-.7,0-.1-.2-.2-.4,0-.1,0-.1.2,0,.4v.4c0,0,0,.3-.1.5-.2.1-.5.2-.8-.2-.1-.2-.1-.3-.2-.4,0,0,0,0-.1,0h0c0,0,.5-.4.5-.4h0c-.2.3-.3.5-.1.8.2.2.4.1.4,0,.1-.1.1-.2,0-.4v-.2c-.1-.5,0-.6.1-.7.1,0,.5-.2.7.2.1.2.1.3.2.4,0,0,0,0,.1,0h0c0,0-.4.4-.4.4h0Z"/>
            <path class="cls-6" d="M487.7,16.4c-.3,0-.5-.1-.7-.4-.3-.5-.1-1,.3-1.3.4-.3,1-.2,1.3.3.1.2.1.4.2.5,0,0,0,0,.2,0h0c0,0-.5.4-.5.4h0c.1-.2.3-.6.1-.8-.2-.3-.6-.2-.9,0-.1,0-.3.2-.4.4,0,.2,0,.4,0,.4.1.2.3.3.6.3h0Z"/>
            <path class="cls-6" d="M488.5,18.6l-.4-.7h0c0,.1.1.1.2.1,0,0,.2-.2.2-.3l-.3-.5c-.2,0-.3,0-.3,0,0,0,0,.2,0,.2h0s-.2-.4-.2-.4h0c0,0,.2,0,.4,0l1.5-.2h0c0,0-.9,1.2-.9,1.2-.2.2-.2.3-.2.4h0s0,0,0,0ZM488.7,17.6l.4-.5h-.7c0,0,.2.5.2.5Z"/>
            <path class="cls-6" d="M489.4,20.5l-.6-1.4h0c0,0,.1.2.3.1l1.1-.5c.2,0,.1-.2,0-.3h0s.4.8.4.8h0c0-.1-.1-.2-.3-.1l-1.1.5c-.1,0-.1.1,0,.3.2.4.4.4.7.4h0c0,0-.6.2-.6.2Z"/>
            <path class="cls-6" d="M491.2,20.5l.5,1.4-.5.2h0c.3-.2.3-.4.2-.8,0-.1,0-.2-.2-.1l-.6.2h0c0,.2.2.3.5.3h0c0,0-.8.4-.8.4h0c.3-.2.3-.3.2-.6l-.6.2c-.1,0-.1,0,0,.3,0,.2.2.5.7.5h0c0,0-.5.2-.5.2l-.5-1.4h0c0,.1,0,.2.2.1l1.2-.4c.2,0,.1-.2,0-.3h0Z"/>
          </g>
        </g>
        <g>
          <path class="cls-4" d="M429.5,79.2c1.6,0,2-.2,2-1.7v-11h-1.8c-1.7,0-2.3.7-2.8,2.6h-.6l.3-3.7h12.6l.3,3.7h-.6c-.5-1.9-1.1-2.6-2.8-2.6h-1.8v11c0,1.5.4,1.7,2,1.7v.6h-6.9v-.6Z"/>
          <path class="cls-6" d="M442.4,75.3c0,2.1.8,3.2,2.3,3.2s1.7-.5,2.3-1.3l.3.3c-.6,1.2-1.5,2.5-3.4,2.5s-3.5-1.8-3.5-3.9,1.5-4.4,3.5-4.4,3.2,1.6,3.3,3.6h-4.8ZM445.1,74.6c0-1-.2-2.2-1.4-2.2s-1.4,1.2-1.4,2.2h2.7Z"/>
          <path class="cls-6" d="M454.8,77.5c-.6,1.1-1.5,2.4-3.4,2.4s-3.5-1.8-3.5-3.9,1.7-4.4,3.8-4.4,2.7.8,2.7,1.7-.4,1-.9,1-.8-.3-1.1-1c-.3-.7-.6-1-1.2-1s-1.5.9-1.5,2.6,1.1,3.5,2.5,3.5,1.8-.4,2.4-1.2l.3.3Z"/>
          <path class="cls-6" d="M458.3,78.3c0,.9.1,1,1,1v.4h-4v-.4c.9,0,1-.2,1-1.1v-8.4c0-.7-.3-.9-1-.9v-.4c.9-.1,2.8-.7,2.9-.7s.1,0,.1.2v4.7c.7-.6,1.6-1,2.4-1,1.7,0,2.4.8,2.4,2.6v4c0,.9.1,1,1,1v.4h-4v-.4c.9,0,1-.2,1-1v-4.1c0-1.1-.4-1.3-1-1.3s-1.3.3-1.8.7v4.8Z"/>
          <path class="cls-4" d="M478.7,76.4c-1.5,2.6-3.5,3.7-6.5,3.7-4.7,0-7.5-3.1-7.5-7.7s2.6-7.4,7.6-7.4,3.6.8,4,.8.6-.2.9-.8h.7l.3,4.8h-.6c-.8-2.2-2.3-3.8-4.9-3.8s-4.9,3.7-4.9,6.4,1.7,6.5,5.2,6.5,4.3-2.1,5-3l.6.4Z"/>
          <path class="cls-6" d="M482,75.3c0,2.1.8,3.2,2.3,3.2s1.7-.5,2.3-1.3l.3.3c-.6,1.2-1.5,2.5-3.4,2.5s-3.5-1.8-3.5-3.9,1.5-4.4,3.5-4.4,3.2,1.6,3.3,3.6h-4.8ZM484.7,74.6c0-1-.2-2.2-1.4-2.2s-1.4,1.2-1.4,2.2h2.7Z"/>
          <path class="cls-6" d="M487.4,79.8v-.4c.9,0,1-.3,1-1.4v-7.9c0-.8-.2-1-1-1v-.4c.5,0,2.8-.7,2.9-.7s.1,0,.1.2v9.9c0,1.1.1,1.4,1,1.4v.4h-4.1Z"/>
          <path class="cls-6" d="M492.1,79.8v-.4c.9,0,1-.3,1-1.4v-7.9c0-.8-.2-1-1-1v-.4c.5,0,2.8-.7,2.9-.7s.1,0,.1.2v9.9c0,1.1.1,1.4,1,1.4v.4h-4.1Z"/>
        </g>
      </g>
      <g>
        <g>
          <rect class="cls-1" y="0" width="80.1" height="80.1"/>
          <path class="cls-5" d="M61.4,16.2v28.1c0,6.3-1.9,11.4-5.6,15.2-3.7,3.8-9,5.7-15.7,5.7s-12-1.9-15.8-5.7-5.6-8.9-5.6-15.2v-28.1h11.5v27.9c0,3.2.8,5.8,2.5,7.7,1.7,2,4.1,3,7.3,3s5.6-1,7.3-3c1.7-2,2.5-4.5,2.5-7.7v-27.9h11.5Z"/>
          <rect class="cls-1" x="88.2" y="0" width="80.1" height="80.1"/>
          <rect class="cls-1" x="176.4" y="0" width="80.1" height="80.1"/>
          <rect class="cls-1" x="264.5" y="0" width="80.1" height="80.1"/>
          <polygon class="cls-5" points="153.8 16 153.8 64.1 142.4 64.1 142.4 36 128.3 55.3 114.2 36 114.2 64.1 102.8 64.1 102.8 16 113.6 16 128.3 37.4 142.9 16 153.8 16"/>
          <path class="cls-5" d="M221.8,53.1c1.3-1.3,2-3,2-5.1s-.7-3.7-2-5c-1.3-1.4-3.1-2-5.4-2s-4,.7-5.3,2c-1.4,1.3-2.1,3-2.1,5.1s.7,3.8,2,5.1c1.4,1.3,3.2,2,5.4,2s4-.7,5.4-2M230.4,36.3c3.2,3.1,4.8,7,4.8,11.7s-1.8,9.1-5.3,12.4c-3.6,3.3-8,4.9-13.4,4.9s-9.8-1.6-13.4-4.9c-3.6-3.3-5.4-7.4-5.4-12.4s1.1-6.6,3.4-10.2l13.6-21.6h12.8l-9.4,14.9c5,.4,9.1,2.1,12.2,5.2"/>
          <path class="cls-5" d="M311.8,38.4c1.3-1.4,1.9-3.1,1.9-4.9s-.6-3.5-1.8-4.9c-1.2-1.4-2.8-2.1-4.6-2.1h-11.6v14.1h11.1c2,0,3.7-.7,5-2.1M320,21.3c3.2,3.5,4.8,7.5,4.8,12s-1.6,8.6-4.8,12.1c-3.2,3.5-7.5,5.3-12.9,5.3h-11.4v13.4h-11.3V16h23.1c5.1,0,9.3,1.8,12.5,5.3"/>
        </g>
        <rect class="cls-1" x="384.9" width="1" height="80.2"/>
      </g>
    </g>
  </g>
</svg>