<?xml version="1.0" encoding="UTF-8"?>
<svg id="Layer_2" data-name="Layer 2" xmlns="http://www.w3.org/2000/svg" viewBox="0 0 768.9 80.2">
  <defs>
    <style>
      .cls-1 {
        fill: #d1451e;
      }

      .cls-1, .cls-2, .cls-3, .cls-4 {
        stroke-width: 0px;
      }

      .cls-2 {
        fill: #d74a2a;
      }

      .cls-3 {
        fill: #000;
      }

      .cls-4 {
        fill: #fff;
      }
    </style>
  </defs>
  <g id="Layer_1-2" data-name="Layer 1">
    <g>
      <g>
        <rect class="cls-2" y="0" width="80.1" height="80.1"/>
        <path class="cls-4" d="M61.4,16.2v28.1c0,6.3-1.9,11.4-5.6,15.2-3.7,3.8-9,5.7-15.7,5.7s-12-1.9-15.8-5.7c-3.7-3.8-5.6-8.9-5.6-15.2v-28.1h11.5v27.9c0,3.2.8,5.8,2.5,7.7,1.7,2,4.1,3,7.3,3s5.6-1,7.3-3c1.7-2,2.5-4.5,2.5-7.7v-27.9h11.5Z"/>
        <rect class="cls-2" x="88.2" y="0" width="80.1" height="80.1"/>
        <rect class="cls-2" x="176.4" y="0" width="80.1" height="80.1"/>
        <rect class="cls-2" x="264.5" y="0" width="80.1" height="80.1"/>
        <polygon class="cls-4" points="153.8 16 153.8 64.1 142.4 64.1 142.4 36 128.3 55.3 114.2 36 114.2 64.1 102.8 64.1 102.8 16 113.6 16 128.3 37.4 142.9 16 153.8 16"/>
        <path class="cls-4" d="M221.8,53.1c1.3-1.3,2-3,2-5.1s-.7-3.7-2-5c-1.3-1.4-3.1-2-5.4-2s-4,.7-5.3,2c-1.4,1.3-2.1,3-2.1,5.1s.7,3.8,2,5.1c1.4,1.3,3.2,2,5.4,2s4-.7,5.4-2M230.4,36.3c3.2,3.1,4.8,7,4.8,11.7s-1.8,9.1-5.3,12.4c-3.6,3.3-8,4.9-13.4,4.9s-9.8-1.6-13.4-4.9c-3.6-3.3-5.4-7.4-5.4-12.4s1.1-6.6,3.4-10.2l13.6-21.6h12.8l-9.4,14.9c5,.4,9.1,2.1,12.2,5.2"/>
        <path class="cls-4" d="M311.8,38.4c1.3-1.4,1.9-3.1,1.9-4.9s-.6-3.5-1.8-4.9c-1.2-1.4-2.8-2.1-4.6-2.1h-11.6v14.1h11.1c2,0,3.7-.7,5-2.1M320,21.3c3.2,3.5,4.8,7.5,4.8,12s-1.6,8.6-4.8,12.1c-3.2,3.5-7.5,5.3-12.9,5.3h-11.4v13.4h-11.3V16h23.1c5.1,0,9.3,1.8,12.5,5.3"/>
      </g>
      <path class="cls-3" d="M571.7,60.3l-11.9-15.9c3.2-.6,5.7-1.8,7.7-3.6,2.8-2.7,4.2-6.5,4.2-11.3s-1.4-8.6-4.2-11.3c-2.8-2.7-6.8-4-12.2-4h-19.9c-2,0-3.5,1.6-3.5,3.5v28.9c0,2,1.6,3.5,3.5,3.5h0c2,0,3.5-1.6,3.5-3.5s.7-1.7,2.6-1.7h9.6c.1.3.3.6.5.9l14.3,19c1.2,1.6,3.5,1.9,5.1.7,1.6-1.2,1.9-3.5.7-5.1M538.9,35.4v-12c0-2,1.6-3.5,3.5-3.5h10.4c4,0,7,.8,8.9,2.4,1.9,1.6,2.8,4,2.8,7.1s-.9,5.5-2.8,7.1c-1.9,1.7-4.8,2.4-8.9,2.4h-10.4c-2,0-3.5-1.6-3.5-3.5M465.4,45.4c1,1.7,1.5,3.8,1.5,6.4s-.6,5.1-1.9,7.1c-1.3,2-2.9,3.6-4.9,4.8-2,1.2-4.2,2.1-6.7,2.7-2.5.6-4.9.8-7.4.8s-5.8-.4-8.5-1.1c-2.7-.7-5-1.8-7-3.3-2-1.5-3.6-3.4-4.8-5.7-.7-1.3-1.2-2.8-1.5-4.5-.3-1.9,1.1-3.7,3.1-3.7h.5c1.5,0,2.8,1.1,3.1,2.6.2,1.1.6,2.1,1.1,3,.9,1.6,2,2.9,3.4,3.9,1.4,1,3.1,1.8,5,2.3,1.9.5,3.8.7,5.8.7s3.2-.1,4.8-.4c1.6-.3,3.1-.8,4.4-1.5,1.3-.7,2.3-1.7,3.1-2.9.8-1.2,1.2-2.8,1.2-4.7s-.5-3.2-1.5-4.4c-1-1.1-2.3-2-3.9-2.7-1.6-.7-3.5-1.3-5.5-1.7-2-.4-4.1-.9-6.2-1.3-2.1-.5-4.2-1-6.2-1.6-2-.6-3.9-1.4-5.5-2.4-1.6-1-2.9-2.3-3.9-3.9-1-1.6-1.5-3.6-1.5-5.9s.5-4.9,1.6-6.8c1.1-1.9,2.6-3.5,4.4-4.7,1.8-1.2,3.9-2.2,6.2-2.8,2.3-.6,4.7-.9,7.1-.9s.1,0,.2,0c.7,0,3.3.3,3.3,2.9s-2.7,2.9-3.8,2.9-3,.1-4.4.4c-1.4.3-2.7.8-3.9,1.5-1.1.7-2,1.6-2.7,2.7-.7,1.1-1,2.6-1,4.3s.5,2.9,1.5,3.9c1,1,2.3,1.8,3.9,2.4,1.6.6,3.5,1.2,5.5,1.6,2,.4,4.1.9,6.2,1.3,2.1.5,4.2,1.1,6.2,1.7,2,.7,3.9,1.5,5.5,2.7,1.6,1.1,2.9,2.5,3.9,4.2M494.9,14.1c1.6,0,2.9,1.3,2.9,2.9s-1.3,2.9-2.9,2.9h-12c-1.6,0-2.9,1.3-2.9,2.9v23.7c0,2-1.6,3.5-3.5,3.5h0c-2,0-3.5-1.6-3.5-3.5v-23.7c0-1.6-1.3-2.9-2.9-2.9h-12c-1.6,0-2.9-1.3-2.9-2.9s1.3-2.9,2.9-2.9h36.9M476.5,59c2,0,3.5,1.6,3.5,3.5,0,1.9-1.6,3.5-3.5,3.5h0c-2,0-3.5-1.6-3.5-3.5,0-1.9,1.6-3.5,3.5-3.5h0M611.6,14.1c1.6,0,2.9,1.3,2.9,2.9s-1.3,2.9-2.9,2.9h-12c-1.6,0-2.9,1.3-2.9,2.9v23.7c0,2-1.6,3.5-3.5,3.5h0c-2,0-3.5-1.6-3.5-3.5v-23.7c0-1.6-1.3-2.9-2.9-2.9h-12c-1.6,0-2.9-1.3-2.9-2.9s1.3-2.9,2.9-2.9h36.9M593.2,59c2,0,3.5,1.6,3.5,3.5,0,1.9-1.6,3.5-3.5,3.5h0c-2,0-3.5-1.6-3.5-3.5,0-1.9,1.6-3.5,3.5-3.5h0M717.4,59c2,0,3.5,1.6,3.5,3.5,0,1.9-1.6,3.5-3.5,3.5h0c-1.9,0-3.5-1.6-3.5-3.5,0-1.9,1.6-3.5,3.5-3.5h0M660.3,43.9c.4,16.5-9.7,23.2-21.4,23.4-4,0-9.1-.7-12.2-2.1-3.1-1.4-5.8-3.4-8-5.8-2.2-2.4-3.9-5.2-5-8.4-1.1-3.2-1.7-6.4-1.7-9.8s.5-7.4,1.6-10.8c1.1-3.4,2.7-6.4,4.8-9,2.1-2.6,4.8-4.6,7.9-6.1,3.2-1.5,6.9-2.3,11.1-2.3s5.6.3,8.2,1c2.6.7,4.9,1.7,6.9,3.1,2,1.4,3.7,3.2,5.1,5.3.8,1.2,1.4,2.5,1.9,4,.6,1.9-.8,3.8-2.8,3.8h-1.1c-1.2,0-2.4-.8-2.8-2-.4-1.2-.9-2.2-1.5-3.2-.9-1.4-2.1-2.6-3.5-3.5-1.4-.9-3-1.6-4.7-2.1-1.8-.5-3.7-.7-5.6-.7-3.2,0-6,.6-8.3,1.9-2.3,1.3-4.2,2.9-5.7,5-1.5,2.1-2.6,4.4-3.3,7.1-.7,2.6-1,5.3-1,8.1s.4,5.3,1.2,7.8c.8,2.5,2,4.7,3.5,6.6,1.5,1.9,3.5,3.4,5.7,4.6,2.3,1.1,6.4,1.8,9.4,1.7,13.5-.6,15.3-12.5,15.5-13.7.2-1.7-1.2-3.2-2.9-3.2h-3.6c-1.6,0-2.9-1.3-2.9-2.9s1.3-2.9,2.9-2.9h7.2c2.5,0,5.1,1.7,5.2,5.1M636.1,38.7c1.6,0,3,1.3,3,3,0,1.6-1.3,3-3,3h0c-1.6,0-3-1.3-3-3,0-1.6,1.3-3,3-3h0M532.2,61.6c.9,2.1-.8,4.5-3.1,4.5h-.6c-1.4,0-2.7-.9-3.2-2.2l-14.7-39.1c-.6-1.5-2.8-1.5-3.3,0l-14.8,39.1c-.5,1.3-1.7,2.1-3.2,2.1-2.4,0-4-2.3-3.1-4.5l17.7-44.2c.8-2,2.8-3.3,5-3.3h.5c2.2,0,4.2,1.3,5,3.3l17.7,44.2M707.2,61.6c.9,2.1-.8,4.5-3.1,4.5h-.6c-1.4,0-2.7-.9-3.2-2.2l-14.7-39.1c-.6-1.5-2.8-1.5-3.3,0l-14.8,39.1c-.5,1.3-1.7,2.1-3.2,2.1-2.4,0-4-2.3-3.1-4.5l17.7-44.2c.8-2,2.8-3.3,5-3.3h.5c2.2,0,4.2,1.3,5,3.3l17.7,44.2M766.2,60.3c1.5,0,2.7,1.2,2.7,2.7v.5c0,1.5-1.2,2.7-2.7,2.7h-31.7c-1.5,0-2.7-1.2-2.7-2.7v-10.9h0s0-23.8,0-23.8c0-2,1.6-3.5,3.5-3.5h0c2,0,3.5,1.6,3.5,3.5v5.1c0,1.5,1.3,2.7,2.7,2.7h22.4c1.5,0,2.7,1.2,2.7,2.7v.5c0,1.5-1.2,2.7-2.7,2.7h-22.4c-1.5,0-2.7,1.2-2.7,2.7v12.6c0,1.5,1.2,2.7,2.7,2.7h24.6ZM765.5,14.1c1.6,0,2.9,1.3,2.9,2.9s-1.3,2.9-2.9,2.9h-31.3c0,0-.1,0-.2,0h-10.3c-1.6,0-2.9,1.3-2.9,2.9v23.7c0,2-1.6,3.5-3.5,3.5h0c-2,0-3.5-1.6-3.5-3.5v-23.7c0-1.6-1.3-2.9-2.9-2.9h-12c-1.6,0-2.9-1.3-2.9-2.9s1.3-2.9,2.9-2.9h36.9c.2,0,.4,0,.6,0h25.7s3.5,0,3.5,0h0Z"/>
      <rect class="cls-1" x="384.9" width="1" height="80.2"/>
    </g>
  </g>
</svg>