<?xml version="1.0" encoding="UTF-8"?>
<svg id="Layer_2" data-name="Layer 2" xmlns="http://www.w3.org/2000/svg" xmlns:xlink="http://www.w3.org/1999/xlink" viewBox="0 0 882.8 90.3">
  <defs>
    <style>
      .cls-1 {
        fill: #d1451e;
      }

      .cls-1, .cls-2, .cls-3, .cls-4, .cls-5, .cls-6, .cls-7, .cls-8, .cls-9, .cls-10, .cls-11, .cls-12, .cls-13, .cls-14, .cls-15, .cls-16, .cls-17 {
        stroke-width: 0px;
      }

      .cls-2 {
        fill: url(#linear-gradient);
      }

      .cls-3 {
        fill: #82c000;
      }

      .cls-4 {
        fill: url(#linear-gradient-11);
      }

      .cls-5 {
        fill: url(#linear-gradient-10);
      }

      .cls-6 {
        fill: #3c3c3b;
      }

      .cls-7 {
        fill: #d74a2a;
      }

      .cls-8 {
        fill: #3b3b3c;
      }

      .cls-9 {
        fill: url(#linear-gradient-4);
      }

      .cls-10 {
        fill: url(#linear-gradient-2);
      }

      .cls-11 {
        fill: url(#linear-gradient-3);
      }

      .cls-12 {
        fill: url(#linear-gradient-8);
      }

      .cls-13 {
        fill: url(#linear-gradient-9);
      }

      .cls-14 {
        fill: url(#linear-gradient-7);
      }

      .cls-15 {
        fill: url(#linear-gradient-5);
      }

      .cls-16 {
        fill: url(#linear-gradient-6);
      }

      .cls-17 {
        fill: #fff;
      }
    </style>
    <linearGradient id="linear-gradient" x1="479.9" y1="72.5" x2="479.1" y2="104" gradientUnits="userSpaceOnUse">
      <stop offset="0" stop-color="#c28b3d"/>
      <stop offset="1" stop-color="#8c6d34"/>
    </linearGradient>
    <linearGradient id="linear-gradient-2" x1="455.7" y1="72" x2="454.9" y2="103.5" xlink:href="#linear-gradient"/>
    <linearGradient id="linear-gradient-3" x1="457.2" y1="3.7" x2="486.1" y2="53.1" gradientUnits="userSpaceOnUse">
      <stop offset="0" stop-color="#00aed3"/>
      <stop offset="1" stop-color="#8cd4f0"/>
    </linearGradient>
    <linearGradient id="linear-gradient-4" x1="449.5" y1="18.7" x2="431.7" y2="46.4" xlink:href="#linear-gradient-3"/>
    <linearGradient id="linear-gradient-5" x1="479.3" y1="41.4" x2="456.1" y2="33.5" gradientUnits="userSpaceOnUse">
      <stop offset="0" stop-color="#009d3a"/>
      <stop offset="1" stop-color="#82c000"/>
    </linearGradient>
    <linearGradient id="linear-gradient-6" x1="473.3" y1="60.2" x2="477.5" y2="41.2" gradientUnits="userSpaceOnUse">
      <stop offset="0" stop-color="#82c000"/>
      <stop offset="1" stop-color="#009d3a"/>
    </linearGradient>
    <linearGradient id="linear-gradient-7" x1="503.8" y1="13.8" x2="602.5" y2="13.8" xlink:href="#linear-gradient-5"/>
    <linearGradient id="linear-gradient-8" x1="507.8" y1="13.8" x2="606.5" y2="13.8" xlink:href="#linear-gradient-5"/>
    <linearGradient id="linear-gradient-9" x1="511.8" y1="13.8" x2="610.5" y2="13.8" xlink:href="#linear-gradient-5"/>
    <linearGradient id="linear-gradient-10" x1="515.8" y1="13.8" x2="614.5" y2="13.8" xlink:href="#linear-gradient-5"/>
    <linearGradient id="linear-gradient-11" x1="519.8" y1="13.8" x2="618.5" y2="13.8" xlink:href="#linear-gradient-5"/>
  </defs>
  <g id="Layer_1-2" data-name="Layer 1">
    <g>
      <g>
        <g>
          <rect class="cls-7" y="8.2" width="80.1" height="80.1"/>
          <path class="cls-17" d="M61.4,24.4v28.1c0,6.3-1.9,11.4-5.6,15.2-3.7,3.8-9,5.7-15.7,5.7s-12-1.9-15.8-5.7c-3.7-3.8-5.6-8.9-5.6-15.2v-28.1h11.5v27.9c0,3.2.8,5.8,2.5,7.7,1.7,2,4.1,3,7.3,3s5.6-1,7.3-3c1.7-2,2.5-4.5,2.5-7.7v-27.9h11.5Z"/>
          <rect class="cls-7" x="88.2" y="8.2" width="80.1" height="80.1"/>
          <rect class="cls-7" x="176.4" y="8.2" width="80.1" height="80.1"/>
          <rect class="cls-7" x="264.5" y="8.2" width="80.1" height="80.1"/>
          <polygon class="cls-17" points="153.8 24.2 153.8 72.3 142.4 72.3 142.4 44.1 128.3 63.4 114.2 44.1 114.2 72.3 102.8 72.3 102.8 24.2 113.6 24.2 128.3 45.6 142.9 24.2 153.8 24.2"/>
          <path class="cls-17" d="M221.8,61.3c1.3-1.3,2-3,2-5.1s-.7-3.7-2-5c-1.3-1.4-3.1-2-5.4-2s-4,.7-5.3,2c-1.4,1.3-2.1,3-2.1,5.1s.7,3.8,2,5.1c1.4,1.3,3.2,2,5.4,2s4-.7,5.4-2M230.4,44.4c3.2,3.1,4.8,7,4.8,11.7s-1.8,9.1-5.3,12.4-8,4.9-13.4,4.9-9.8-1.6-13.4-4.9c-3.6-3.3-5.4-7.4-5.4-12.4s1.1-6.6,3.4-10.2l13.6-21.6h12.8l-9.4,14.9c5,.4,9.1,2.1,12.2,5.2"/>
          <path class="cls-17" d="M311.8,46.5c1.3-1.4,1.9-3.1,1.9-4.9s-.6-3.5-1.8-4.9c-1.2-1.4-2.8-2.1-4.6-2.1h-11.6v14.1h11.1c2,0,3.7-.7,5-2.1M320,29.5c3.2,3.5,4.8,7.5,4.8,12s-1.6,8.6-4.8,12.1c-3.2,3.5-7.5,5.3-12.9,5.3h-11.4v13.4h-11.3V24.2h23.1c5.1,0,9.3,1.8,12.5,5.3"/>
        </g>
        <rect class="cls-1" x="384.9" y="8.2" width="1" height="80.2"/>
      </g>
      <g>
        <path class="cls-2" d="M480.6,68.1c-1.1,0-2,.7-2.1,1.8-.2,2.1-.5,4-1.1,5.6,0,0,0,.2,0,.3.6,1.5,1.5,3.3,2.2,4.6,0,0,0-.1,0-.2,1.4-2.6,2.4-5.9,2.7-10,0-1.1-.7-2-1.8-2.1Z"/>
        <path class="cls-10" d="M480.9,88.6c-.8.6-2,.5-2.7-.4-.8-1-1.5-2.1-2.2-3.1-1.4,1.4-2.8,2.4-3.9,3.1-2.4,1.4-4.9,2.2-6.9,2.2s-1.6-.1-2.3-.4c-1.8-.8-3.4-1.7-5-2.7-1.6-1-3.1-2.1-4.5-3.3l2.1-3.3s0,0,0,0c2.6,2.3,5.6,4.2,9,5.8.5.2,3,0,5.9-1.7,1-.6,2.3-1.6,3.6-3.1-2.2-4.5-3.5-9-4.6-12.9-1.9-6.7-3.2-10.6-6.4-11.5-.8,3.4-2.8,11-4.8,15.5-1,2.1-1.9,3.9-2.8,5.5-.9,1.5-2.2,3.8-4.2,6.5-1.8,2.3-2.9,3.2-3,3.3-.1.1-.3.2-.4.3-1.4.6-5.5.8-11.8-10.2-2.9-5.2-4.5-9-5.3-11.6-.5-1.5-1.8-2.6-3.4-2.6h-.4c-2.3,0-4.3-1.5-4.9-3.7l-.3-1.3c-.4-1.4-.1-2.9.8-4.1.9-1.2,2.2-1.8,3.7-1.8h9.3l1.4-2.5c.4-.6,1.1-1,1.8-1,.7,0,1.4.5,1.7,1.2,0,0,3.7,12.4,5.3,16-.9,1.6-1.7,2.8-2.4,3.9-1.5-3-2.7-6.2-3.7-9.6,0-.3-.2-.6-.2-.9,0,0,0,0,0-.1,0,0,0-.1,0-.2-.8-2.7-3.1-2.8-4.3-2.8h-8.7c-.3,0-.5.2-.6.3,0,.1-.2.3-.1.7l.3,1.3c.1.5.6.9,1.2.9,5.7,0,5.7,1.1,8.4,7.8,0,0,0,0,0,0,.8,2.1,2.1,4.8,4,8.2,3.7,6.6,6.1,8,6.9,8.3.6-.6,2.3-3,3.3-4.3,1-1.3,2.1-3.4,2.1-3.4,0,0,1.9-3.5,2.9-5.7.4-.9.8-2,1.3-3.2,2-5.6,3.7-13.2,3.7-13.3.1-.6.5-1,1-1.3.3-.2.6-.2.9-.2,7.5,0,9.5,7,11.7,14.5.7,2.4,1.4,4.9,2.3,7.4h0c.6,1.9,2,4.9,3.2,6.9,0,0,0,.1,0,.2.2.3.4.6.6.9,0,0,0,0,0,0h0c.2.4.5.8.7,1.1,2.4-2.3,6.7-7.4,6-14-.1-1.1.7-2,1.7-2.1,1.1-.1,2,.7,2.1,1.7,1.1,11.1-8.6,18.4-9.1,18.8Z"/>
        <path class="cls-11" d="M488.4,65c-1.1,0-1.9-.9-1.9-1.9-.1-15.4-6.1-22.8-13.1-31.3-5.8-7.1-12.4-15.2-16.8-29.2-.3-1,.2-2.1,1.3-2.4,1-.3,2.1.2,2.4,1.3,4.2,13.3,10.5,21.1,16.1,27.9,7.1,8.7,13.8,17,13.9,33.7,0,1.1-.9,1.9-1.9,2h0Z"/>
        <path class="cls-9" d="M432.1,46.9c-.3,0-.5,0-.8-.2-1-.4-1.4-1.6-1-2.6,2.6-5.7,6.2-10.2,10.1-14.9,1.8-2.2,3.6-4.4,5.4-6.9.6-.9,1.8-1.1,2.7-.4.9.6,1.1,1.8.4,2.7-1.9,2.5-3.7,4.8-5.5,7-3.7,4.5-7.2,8.8-9.6,14.1-.3.7-1,1.1-1.8,1.1Z"/>
        <path class="cls-15" d="M465.7,44.2c-2.3,0-4.6-.5-6.6-1.6-3.9-2-6.3-5.8-6.5-10.2,0-.8.4-1.6,1.2-1.9,6-2.5,11.1-2.8,15.1-.9,3.4,1.6,6,4.9,7.3,9.3.3.8,0,1.7-.8,2.2-3.1,2-6.5,3-9.7,3ZM456.7,33.6c.5,2.4,2,4.4,4.3,5.6,3.2,1.7,7.2,1.5,11.1-.5-.9-2.1-2.3-4.3-4.8-5.5-2.7-1.3-6.3-1.1-10.6.4Z"/>
        <path class="cls-16" d="M474.3,58.9c-.4,0-.8-.1-1.1-.3-2.5-1.7-3.8-4.6-3.6-7.6.3-3.7,2.8-7,6.6-8.9.8-.4,1.7-.2,2.3.5,2.1,2.4,3.1,5.1,2.8,7.7-.3,3-2.3,5.8-5.9,8.4-.3.2-.7.4-1.1.4ZM476.6,46.3c-1.8,1.3-3,3.1-3.1,4.9,0,1.2.2,2.3.9,3.2,1.8-1.6,2.9-3.2,3-4.7.1-1.1-.2-2.2-.9-3.4Z"/>
        <path class="cls-3" d="M479.3,83c-.2-.3-.4-.6-.6-.9.2.3.4.6.6.9Z"/>
        <path class="cls-6" d="M439.5,60.9c0-.2-.2-.5-.2-.9,0,.3.2.6.2.9Z"/>
      </g>
      <g>
        <path class="cls-8" d="M512.6,53.5h-8.4l-1.7,4.4h-2.9l7-18.2h3.5l7,18.2h-2.9l-1.7-4.4ZM511.7,51l-3.3-8.6-3.3,8.6h6.6Z"/>
        <path class="cls-8" d="M522.7,44.8h4.2v2.4h-4.2v10.7h-2.7v-10.7h-2.5v-2.4h2.5v-1.5c0-1.5.4-2.7,1.1-3.5.7-.8,1.8-1.3,3.2-1.3s2,.2,2.7.5l-.6,2.2c-.6-.3-1.1-.4-1.7-.4-1.3,0-1.9.8-1.9,2.5v1.4Z"/>
        <path class="cls-8" d="M531.4,46.9c.4-.8,1-1.4,1.7-1.8s1.6-.5,2.7-.4v2.5c-1.4-.2-2.5,0-3.2.8s-1.1,2.1-1.1,3.9v5.9h-2.7v-13.1h2.7v2.1h0Z"/>
        <path class="cls-8" d="M538.3,42.2c-.3-.3-.5-.7-.5-1.2s.2-.8.5-1.2c.3-.3.7-.5,1.2-.5s.9.2,1.2.5c.3.3.5.7.5,1.2s-.2.9-.5,1.2c-.3.3-.7.5-1.2.5s-.9-.2-1.2-.5ZM538.1,44.8h2.6v13.1h-2.6v-13.1Z"/>
        <path class="cls-8" d="M550.3,58.3c-1.9,0-3.5-.7-4.8-2s-1.9-3-1.9-4.9.6-3.6,1.9-4.9c1.3-1.3,2.9-2,4.8-2s2.9.4,4,1.3,1.8,1.8,2,2.9l-2.5.7c-.2-.6-.6-1.2-1.3-1.7-.7-.5-1.4-.7-2.3-.7s-2.2.4-3,1.3c-.8.9-1.2,1.9-1.2,3.1s.4,2.2,1.2,3.1c.8.9,1.8,1.3,3,1.3s1.6-.2,2.3-.7c.7-.5,1.1-1,1.3-1.7l2.5.7c-.3,1.1-.9,2-2,2.8-1.1.8-2.4,1.3-4,1.3h0Z"/>
        <path class="cls-8" d="M564.6,58.2c-1.8,0-3.3-.7-4.5-2s-1.8-2.9-1.8-4.9.6-3.6,1.8-4.9,2.7-2,4.5-2,3.5.8,4.6,2.3v-2h2.6v13.1h-2.6v-2c-1.1,1.5-2.6,2.3-4.6,2.3h0ZM565,55.8c1.2,0,2.2-.4,3-1.3s1.2-1.9,1.2-3.2-.4-2.3-1.2-3.2-1.8-1.3-3-1.3-2.2.4-3,1.2-1.2,1.9-1.2,3.2.4,2.3,1.2,3.2c.8.8,1.8,1.3,3,1.3h0Z"/>
        <path class="cls-8" d="M582.4,44.4c1.6,0,2.9.5,3.8,1.5.9,1,1.3,2.4,1.3,4.2v7.7h-2.6v-7.2c0-1.2-.3-2.1-.8-2.7s-1.3-1-2.3-1-2,.4-2.7,1.2c-.7.8-1,1.9-1,3.2v6.5h-2.7v-13.1h2.7v1.9c1.1-1.5,2.5-2.3,4.4-2.3h0Z"/>
        <path class="cls-8" d="M604.2,58.2c-2,0-3.7-.5-5.1-1.6s-2.4-2.4-2.9-3.9l2.6-.8c.4,1.1,1.1,2,2.1,2.7s2.1,1.1,3.5,1.1,2.1-.3,2.9-.9,1.1-1.2,1.1-2-.2-1.1-.6-1.5c-.4-.4-1.2-.8-2.2-1.1l-4.5-1.5c-2.7-.9-4-2.3-4-4.5s.6-2.6,1.7-3.5,2.6-1.5,4.4-1.5,3.4.4,4.7,1.3c1.3.9,2.2,1.9,2.8,3.2l-2.6.8c-.4-.9-1.1-1.5-1.9-2.1-.9-.5-1.8-.8-3-.8s-1.8.2-2.4.7-1,1.1-1,1.7.2,1,.5,1.3c.4.3.9.6,1.7.9l4.4,1.4c1.5.5,2.7,1.1,3.5,1.8s1.2,1.7,1.2,3-.6,2.9-1.9,3.9-3,1.6-5,1.6h0Z"/>
        <path class="cls-8" d="M625.7,44.8v13.1h-2.6v-2c-1,1.5-2.5,2.3-4.4,2.3-1.6,0-2.9-.5-3.8-1.5-.9-1-1.3-2.4-1.3-4.2v-7.7h2.7v7.2c0,1.2.3,2.1.8,2.7s1.3,1,2.3,1,2-.4,2.7-1.2,1-1.9,1-3.2v-6.5h2.6Z"/>
        <path class="cls-8" d="M634.1,58.2c-1.4,0-2.7-.4-3.8-1.2-1.1-.8-1.8-1.7-2.2-2.8l2.4-.7c.2.7.7,1.3,1.4,1.8s1.4.7,2.3.7,1.4-.2,1.9-.5.7-.8.7-1.3-.1-.7-.4-.9-.7-.4-1.3-.6l-3.4-1c-2-.6-3-1.7-3-3.4s.5-1.9,1.4-2.7,2.1-1.1,3.5-1.1,2.5.3,3.5.9,1.7,1.4,2,2.4l-2.4.7c-.3-.5-.7-1-1.2-1.3s-1.2-.5-2-.5-1.2.2-1.6.5c-.4.3-.6.7-.6,1.1s.5,1,1.4,1.3l3.4,1c1.1.3,1.9.7,2.5,1.3.6.5.9,1.3.9,2.3s-.5,2.2-1.5,2.9-2.3,1.2-3.8,1.2h0Z"/>
        <path class="cls-8" d="M649.9,57.5c-1,.4-1.9.6-2.8.6-1.3,0-2.3-.4-3-1.2s-1-1.9-1-3.3v-6.4h-2.3v-2.4h2.3v-4.4h2.6v4.4h4.1v2.4h-4.1v6.4c0,1.3.6,2,1.8,2s1.1-.1,1.7-.4l.7,2.2Z"/>
        <path class="cls-8" d="M657.3,58.2c-1.8,0-3.3-.7-4.5-2s-1.8-2.9-1.8-4.9.6-3.6,1.8-4.9,2.7-2,4.5-2,3.5.8,4.6,2.3v-2h2.6v13.1h-2.6v-2c-1.1,1.5-2.6,2.3-4.6,2.3h0ZM657.7,55.8c1.2,0,2.2-.4,3-1.3.8-.8,1.2-1.9,1.2-3.2s-.4-2.3-1.2-3.2c-.8-.8-1.8-1.3-3-1.3s-2.2.4-3,1.2-1.2,1.9-1.2,3.2.4,2.3,1.2,3.2c.8.8,1.8,1.3,3,1.3h0Z"/>
        <path class="cls-8" d="M668.3,42.2c-.3-.3-.5-.7-.5-1.2s.2-.8.5-1.2c.3-.3.7-.5,1.2-.5s.9.2,1.2.5c.3.3.5.7.5,1.2s-.2.9-.5,1.2c-.3.3-.7.5-1.2.5s-.9-.2-1.2-.5ZM668.1,44.8h2.6v13.1h-2.6v-13.1Z"/>
        <path class="cls-8" d="M681.4,44.4c1.6,0,2.9.5,3.8,1.5.9,1,1.3,2.4,1.3,4.2v7.7h-2.6v-7.2c0-1.2-.3-2.1-.8-2.7s-1.3-1-2.3-1-2,.4-2.7,1.2c-.7.8-1,1.9-1,3.2v6.5h-2.7v-13.1h2.7v1.9c1.1-1.5,2.5-2.3,4.4-2.3h0Z"/>
        <path class="cls-8" d="M695.5,58.2c-1.8,0-3.3-.7-4.5-2s-1.8-2.9-1.8-4.9.6-3.6,1.8-4.9,2.7-2,4.5-2,3.5.8,4.6,2.3v-2h2.6v13.1h-2.6v-2c-1.1,1.5-2.6,2.3-4.6,2.3h0ZM695.9,55.8c1.2,0,2.2-.4,3-1.3s1.2-1.9,1.2-3.2-.4-2.3-1.2-3.2-1.8-1.3-3-1.3-2.2.4-3,1.2-1.2,1.9-1.2,3.2.4,2.3,1.2,3.2c.8.8,1.8,1.3,3,1.3h0Z"/>
        <path class="cls-8" d="M713.5,44.5c1.8,0,3.3.6,4.5,2,1.2,1.3,1.8,2.9,1.8,4.9s-.6,3.6-1.8,4.9c-1.2,1.3-2.7,2-4.5,2s-3.5-.8-4.6-2.3v2h-2.7v-19h2.7v7.9c1.1-1.5,2.6-2.3,4.6-2.3h0ZM713,55.8c1.2,0,2.2-.4,3-1.3s1.2-1.9,1.2-3.2-.4-2.3-1.2-3.2c-.8-.8-1.8-1.2-3-1.2s-2.2.4-3,1.3c-.8.8-1.2,1.9-1.2,3.2s.4,2.3,1.2,3.2c.8.8,1.8,1.3,3,1.3h0Z"/>
        <path class="cls-8" d="M722.5,38.9h2.7v19h-2.7v-19Z"/>
        <path class="cls-8" d="M734.8,58.3c-2,0-3.7-.6-4.9-1.9-1.3-1.3-1.9-2.9-1.9-5s.6-3.6,1.8-4.9,2.8-2,4.7-2,3.6.6,4.8,1.9,1.7,2.8,1.7,4.7,0,.7,0,1.1h-10.4c0,1.1.5,2,1.2,2.7s1.7,1,3,1,3-.7,3.6-2.1l2.4.7c-.5,1-1.2,1.9-2.3,2.6s-2.3,1.1-3.9,1.1h0ZM738.4,50.4c0-1-.5-1.9-1.2-2.6s-1.6-1-2.7-1-2,.3-2.7,1-1.1,1.5-1.2,2.5h7.8Z"/>
        <path class="cls-8" d="M761.6,53.5h-8.4l-1.7,4.4h-2.9l7-18.2h3.5l7,18.2h-2.9l-1.7-4.4ZM760.6,51l-3.3-8.6-3.3,8.6h6.6Z"/>
        <path class="cls-8" d="M780.5,44.9v12.6c0,1.8-.6,3.3-1.8,4.5-1.2,1.2-2.7,1.8-4.7,1.8-2.8,0-4.9-1.1-6.1-3.4l2.3-.9c.8,1.3,2,2,3.8,2,1.2,0,2.1-.4,2.7-1.1.7-.7,1-1.7,1-2.8v-1.9c-1.1,1.5-2.6,2.2-4.5,2.2s-3.4-.6-4.6-1.9-1.8-2.9-1.8-4.7.6-3.5,1.8-4.8c1.2-1.2,2.7-1.9,4.6-1.9s3.4.7,4.5,2.2v-1.8h2.7ZM773.8,55.3c1.2,0,2.2-.4,3-1.2s1.2-1.8,1.2-3-.4-2.2-1.2-3-1.8-1.2-3-1.2-2.2.4-3,1.2c-.8.8-1.2,1.8-1.2,3s.4,2.2,1.2,3c.8.8,1.8,1.2,3,1.2h0Z"/>
        <path class="cls-8" d="M786.7,46.9c.4-.8,1-1.4,1.7-1.8s1.6-.5,2.7-.4v2.5c-1.4-.2-2.5,0-3.2.8s-1.1,2.1-1.1,3.9v5.9h-2.7v-13.1h2.7v2.1h0Z"/>
        <path class="cls-8" d="M793.6,42.2c-.3-.3-.5-.7-.5-1.2s.2-.8.5-1.2c.3-.3.7-.5,1.2-.5s.9.2,1.2.5c.3.3.5.7.5,1.2s-.2.9-.5,1.2c-.3.3-.7.5-1.2.5s-.9-.2-1.2-.5ZM793.5,44.8h2.6v13.1h-2.6v-13.1Z"/>
        <path class="cls-8" d="M805.6,58.3c-1.9,0-3.5-.7-4.8-2s-1.9-3-1.9-4.9.6-3.6,1.9-4.9c1.3-1.3,2.9-2,4.8-2s2.9.4,4,1.3,1.8,1.8,2,2.9l-2.5.7c-.2-.6-.6-1.2-1.3-1.7-.7-.5-1.4-.7-2.3-.7s-2.2.4-3,1.3c-.8.9-1.2,1.9-1.2,3.1s.4,2.2,1.2,3.1c.8.9,1.8,1.3,3,1.3s1.6-.2,2.3-.7c.7-.5,1.1-1,1.3-1.7l2.5.7c-.3,1.1-.9,2-2,2.8-1.1.8-2.4,1.3-4,1.3h0Z"/>
        <path class="cls-8" d="M826.4,44.8v13.1h-2.6v-2c-1,1.5-2.5,2.3-4.4,2.3-1.6,0-2.9-.5-3.8-1.5-.9-1-1.3-2.4-1.3-4.2v-7.7h2.7v7.2c0,1.2.3,2.1.8,2.7s1.3,1,2.3,1,2-.4,2.7-1.2,1-1.9,1-3.2v-6.5h2.6Z"/>
        <path class="cls-8" d="M829.9,38.9h2.7v19h-2.7v-19Z"/>
        <path class="cls-8" d="M843.9,57.5c-1,.4-1.9.6-2.8.6-1.3,0-2.3-.4-3-1.2s-1-1.9-1-3.3v-6.4h-2.3v-2.4h2.3v-4.4h2.6v4.4h4.1v2.4h-4.1v6.4c0,1.3.6,2,1.8,2s1.1-.1,1.7-.4l.7,2.2Z"/>
        <path class="cls-8" d="M858.4,44.8v13.1h-2.6v-2c-1,1.5-2.5,2.3-4.4,2.3-1.6,0-2.9-.5-3.8-1.5-.9-1-1.3-2.4-1.3-4.2v-7.7h2.7v7.2c0,1.2.3,2.1.8,2.7s1.3,1,2.3,1,2-.4,2.7-1.2,1-1.9,1-3.2v-6.5h2.6Z"/>
        <path class="cls-8" d="M864.6,46.9c.4-.8,1-1.4,1.7-1.8s1.6-.5,2.7-.4v2.5c-1.4-.2-2.5,0-3.2.8s-1.1,2.1-1.1,3.9v5.9h-2.7v-13.1h2.7v2.1h0Z"/>
        <path class="cls-8" d="M876.6,58.3c-2,0-3.7-.6-4.9-1.9-1.3-1.3-1.9-2.9-1.9-5s.6-3.6,1.8-4.9,2.8-2,4.7-2,3.6.6,4.8,1.9,1.7,2.8,1.7,4.7,0,.7,0,1.1h-10.4c0,1.1.5,2,1.2,2.7s1.7,1,3,1,3-.7,3.6-2.1l2.4.7c-.5,1-1.2,1.9-2.3,2.6s-2.3,1.1-3.9,1.1h0ZM880.2,50.4c0-1-.5-1.9-1.2-2.6s-1.6-1-2.7-1-2,.3-2.7,1-1.1,1.5-1.2,2.5h7.8Z"/>
        <path class="cls-8" d="M508.5,81.1h-4.5v6.8h-2.7v-18.2h8.4c1.8,0,3.2.6,4.2,1.8,1.1,1.2,1.6,2.5,1.6,4s-.4,2.4-1.1,3.4c-.7,1-1.7,1.7-3,2.1l4.6,7h-3.2l-4.3-6.8ZM504,78.6h5.5c1,0,1.8-.3,2.4-.9s.9-1.4.9-2.2-.3-1.6-.9-2.3c-.6-.6-1.4-1-2.3-1h-5.6v6.4Z"/>
        <path class="cls-8" d="M524.1,88.3c-2,0-3.7-.6-4.9-1.9-1.3-1.3-1.9-2.9-1.9-5s.6-3.6,1.8-4.9,2.8-2,4.7-2,3.6.6,4.8,1.9,1.7,2.8,1.7,4.7,0,.7,0,1.1h-10.4c0,1.1.5,2,1.2,2.7s1.7,1,3,1,3-.7,3.6-2.1l2.4.7c-.5,1-1.2,1.9-2.3,2.6s-2.3,1.1-3.9,1.1h0ZM527.8,80.4c0-1-.5-1.9-1.2-2.6s-1.6-1-2.7-1-2,.3-2.7,1-1.1,1.5-1.2,2.5h7.8Z"/>
        <path class="cls-8" d="M537.9,88.2c-1.4,0-2.7-.4-3.8-1.2-1.1-.8-1.8-1.7-2.2-2.8l2.4-.7c.2.7.7,1.3,1.4,1.8s1.4.7,2.3.7,1.4-.2,1.9-.5.7-.8.7-1.3-.1-.7-.4-.9-.7-.4-1.3-.6l-3.4-1c-2-.6-3-1.7-3-3.4s.5-1.9,1.4-2.7,2.1-1.1,3.5-1.1,2.5.3,3.5.9,1.7,1.4,2,2.4l-2.4.7c-.3-.5-.7-1-1.2-1.3s-1.2-.5-2-.5-1.2.2-1.6.5c-.4.3-.6.7-.6,1.1s.5,1,1.4,1.3l3.4,1c1.1.3,1.9.7,2.5,1.3.6.5.9,1.3.9,2.3s-.5,2.2-1.5,2.9-2.3,1.2-3.8,1.2h0Z"/>
        <path class="cls-8" d="M552,88.3c-2,0-3.7-.6-4.9-1.9-1.3-1.3-1.9-2.9-1.9-5s.6-3.6,1.8-4.9,2.8-2,4.7-2,3.6.6,4.8,1.9,1.7,2.8,1.7,4.7,0,.7,0,1.1h-10.4c0,1.1.5,2,1.2,2.7s1.7,1,3,1,3-.7,3.6-2.1l2.4.7c-.5,1-1.2,1.9-2.3,2.6s-2.3,1.1-3.9,1.1h0ZM555.6,80.4c0-1-.5-1.9-1.2-2.6s-1.6-1-2.7-1-2,.3-2.7,1-1.1,1.5-1.2,2.5h7.8Z"/>
        <path class="cls-8" d="M566.5,88.2c-1.8,0-3.3-.7-4.5-2s-1.8-2.9-1.8-4.9.6-3.6,1.8-4.9,2.7-2,4.5-2,3.5.8,4.6,2.3v-2h2.6v13.1h-2.6v-2c-1.1,1.5-2.6,2.3-4.6,2.3h0ZM566.9,85.8c1.2,0,2.2-.4,3-1.3s1.2-1.9,1.2-3.2-.4-2.3-1.2-3.2-1.8-1.3-3-1.3-2.2.4-3,1.2-1.2,1.9-1.2,3.2.4,2.3,1.2,3.2c.8.8,1.8,1.3,3,1.3h0Z"/>
        <path class="cls-8" d="M579.9,76.9c.4-.8,1-1.4,1.7-1.8s1.6-.5,2.7-.4v2.5c-1.4-.2-2.5,0-3.2.8s-1.1,2.1-1.1,3.9v5.9h-2.7v-13.1h2.7v2.1h0Z"/>
        <path class="cls-8" d="M591.8,88.3c-1.9,0-3.5-.7-4.8-2s-1.9-3-1.9-4.9.6-3.6,1.9-4.9c1.3-1.3,2.9-2,4.8-2s2.9.4,4,1.3,1.8,1.8,2,2.9l-2.5.7c-.2-.6-.6-1.2-1.3-1.7-.7-.5-1.4-.7-2.3-.7s-2.2.4-3,1.3c-.8.9-1.2,1.9-1.2,3.1s.4,2.2,1.2,3.1c.8.9,1.8,1.3,3,1.3s1.6-.2,2.3-.7c.7-.5,1.1-1,1.3-1.7l2.5.7c-.3,1.1-.9,2-2,2.8-1.1.8-2.4,1.3-4,1.3h0Z"/>
        <path class="cls-8" d="M607.4,74.4c1.6,0,2.9.5,3.8,1.5.9,1,1.3,2.4,1.3,4.2v7.7h-2.6v-7.2c0-1.2-.3-2.1-.8-2.7s-1.3-1-2.3-1-2,.4-2.7,1.2c-.7.8-1,1.9-1,3.2v6.5h-2.7v-19h2.7v7.8c1.1-1.5,2.5-2.3,4.4-2.3h0Z"/>
        <path class="cls-8" d="M622.3,69.7h2.8v18.2h-2.8v-18.2Z"/>
        <path class="cls-8" d="M635.7,74.4c1.6,0,2.9.5,3.8,1.5.9,1,1.3,2.4,1.3,4.2v7.7h-2.6v-7.2c0-1.2-.3-2.1-.8-2.7s-1.3-1-2.3-1-2,.4-2.7,1.2c-.7.8-1,1.9-1,3.2v6.5h-2.7v-13.1h2.7v1.9c1.1-1.5,2.5-2.3,4.4-2.3h0Z"/>
        <path class="cls-8" d="M649,88.2c-1.4,0-2.7-.4-3.8-1.2-1.1-.8-1.8-1.7-2.2-2.8l2.4-.7c.2.7.7,1.3,1.4,1.8s1.4.7,2.3.7,1.4-.2,1.9-.5.7-.8.7-1.3-.1-.7-.4-.9-.7-.4-1.3-.6l-3.4-1c-2-.6-3-1.7-3-3.4s.5-1.9,1.4-2.7,2.1-1.1,3.5-1.1,2.5.3,3.5.9,1.7,1.4,2,2.4l-2.4.7c-.3-.5-.7-1-1.2-1.3s-1.2-.5-2-.5-1.2.2-1.6.5c-.4.3-.6.7-.6,1.1s.5,1,1.4,1.3l3.4,1c1.1.3,1.9.7,2.5,1.3.6.5.9,1.3.9,2.3s-.5,2.2-1.5,2.9-2.3,1.2-3.8,1.2h0Z"/>
        <path class="cls-8" d="M664.8,87.5c-1,.4-1.9.6-2.8.6-1.3,0-2.3-.4-3-1.2s-1-1.9-1-3.3v-6.4h-2.3v-2.4h2.3v-4.4h2.6v4.4h4.1v2.4h-4.1v6.4c0,1.3.6,2,1.8,2s1.1-.1,1.7-.4l.7,2.2Z"/>
        <path class="cls-8" d="M667.6,72.2c-.3-.3-.5-.7-.5-1.2s.2-.8.5-1.2c.3-.3.7-.5,1.2-.5s.9.2,1.2.5c.3.3.5.7.5,1.2s-.2.9-.5,1.2c-.3.3-.7.5-1.2.5s-.9-.2-1.2-.5ZM667.4,74.8h2.6v13.1h-2.6v-13.1Z"/>
        <path class="cls-8" d="M681.5,87.5c-1,.4-1.9.6-2.8.6-1.3,0-2.3-.4-3-1.2s-1-1.9-1-3.3v-6.4h-2.3v-2.4h2.3v-4.4h2.6v4.4h4.1v2.4h-4.1v6.4c0,1.3.6,2,1.8,2s1.1-.1,1.7-.4l.7,2.2Z"/>
        <path class="cls-8" d="M696,74.8v13.1h-2.6v-2c-1,1.5-2.5,2.3-4.4,2.3-1.6,0-2.9-.5-3.8-1.5-.9-1-1.3-2.4-1.3-4.2v-7.7h2.7v7.2c0,1.2.3,2.1.8,2.7s1.3,1,2.3,1,2-.4,2.7-1.2,1-1.9,1-3.2v-6.5h2.6Z"/>
        <path class="cls-8" d="M707.3,87.5c-1,.4-1.9.6-2.8.6-1.3,0-2.3-.4-3-1.2s-1-1.9-1-3.3v-6.4h-2.3v-2.4h2.3v-4.4h2.6v4.4h4.1v2.4h-4.1v6.4c0,1.3.6,2,1.8,2s1.1-.1,1.7-.4l.7,2.2Z"/>
        <path class="cls-8" d="M715.2,88.3c-2,0-3.7-.6-4.9-1.9-1.3-1.3-1.9-2.9-1.9-5s.6-3.6,1.8-4.9,2.8-2,4.7-2,3.6.6,4.8,1.9,1.7,2.8,1.7,4.7,0,.7,0,1.1h-10.4c0,1.1.5,2,1.2,2.7s1.7,1,3,1,3-.7,3.6-2.1l2.4.7c-.5,1-1.2,1.9-2.3,2.6s-2.3,1.1-3.9,1.1h0ZM718.9,80.4c0-1-.5-1.9-1.2-2.6s-1.6-1-2.7-1-2,.3-2.7,1-1.1,1.5-1.2,2.5h7.8Z"/>
      </g>
      <g>
        <path class="cls-14" d="M518.7,20.7h-12.3l-2.5,6.5h-4.2l10.3-26.6h5.1l10.3,26.6h-4.2l-2.5-6.5ZM517.4,17l-4.8-12.6-4.8,12.6h9.6Z"/>
        <path class="cls-12" d="M541.6,27.6c-2.9,0-5.4-.8-7.5-2.3s-3.5-3.5-4.2-5.7l3.8-1.2c.6,1.6,1.6,3,3,4,1.4,1,3.1,1.6,5.1,1.6s3.1-.4,4.2-1.3c1.1-.8,1.7-1.8,1.7-2.9s-.3-1.6-.9-2.2-1.7-1.2-3.2-1.6l-6.5-2.1c-3.9-1.2-5.8-3.4-5.8-6.5s.8-3.7,2.5-5.2C535.5.7,537.7,0,540.2,0s4.9.6,6.8,1.9c1.9,1.3,3.3,2.8,4.1,4.7l-3.7,1.2c-.6-1.2-1.5-2.2-2.8-3-1.2-.8-2.7-1.1-4.3-1.1s-2.6.4-3.5,1.1-1.4,1.5-1.4,2.5.3,1.4.8,1.9,1.4.9,2.5,1.3l6.4,2.1c2.2.7,3.9,1.6,5.1,2.7,1.1,1.1,1.7,2.5,1.7,4.4s-.9,4.2-2.8,5.8-4.3,2.3-7.3,2.3h-.1Z"/>
        <path class="cls-13" d="M575.7,20.7h-12.3l-2.5,6.5h-4.2l10.3-26.6h5.1l10.3,26.6h-4.2l-2.5-6.5ZM574.4,17l-4.8-12.6-4.8,12.6h9.6Z"/>
        <path class="cls-5" d="M599.9,17.2h-6.5v9.9h-4V.5h12.3c2.6,0,4.6.9,6.2,2.6s2.3,3.7,2.3,5.9-.5,3.5-1.6,5c-1.1,1.5-2.5,2.5-4.4,3l6.7,10.2h-4.6l-6.3-9.9ZM593.3,13.6h8.1c1.5,0,2.6-.5,3.5-1.4.9-.9,1.3-2,1.3-3.3s-.4-2.4-1.3-3.3-2-1.4-3.4-1.4h-8.2v9.4Z"/>
        <path class="cls-4" d="M618.7.5h4.1v26.6h-4.1V.5Z"/>
      </g>
    </g>
  </g>
</svg>