<?xml version="1.0" encoding="UTF-8"?>
<svg id="Layer_2" data-name="Layer 2" xmlns="http://www.w3.org/2000/svg" viewBox="0 0 630 82.2">
  <defs>
    <style>
      .cls-1 {
        fill: #d1451e;
      }

      .cls-1, .cls-2, .cls-3, .cls-4, .cls-5, .cls-6 {
        stroke-width: 0px;
      }

      .cls-2 {
        fill: #d74a2a;
      }

      .cls-3 {
        fill: #f1663b;
      }

      .cls-4 {
        fill: #2c602f;
      }

      .cls-5 {
        fill: #3b3b3c;
      }

      .cls-6 {
        fill: #fff;
      }
    </style>
  </defs>
  <g id="Layer_1-2" data-name="Layer 1">
    <g>
      <g>
        <g>
          <rect class="cls-2" y="0" width="80.1" height="80.1"/>
          <path class="cls-6" d="M61.4,16.2v28.1c0,6.3-1.9,11.4-5.6,15.2-3.7,3.8-9,5.7-15.7,5.7s-12-1.9-15.8-5.7c-3.7-3.8-5.6-8.9-5.6-15.2v-28.1h11.5v27.9c0,3.2.8,5.8,2.5,7.7,1.7,2,4.1,3,7.3,3s5.6-1,7.3-3c1.7-2,2.5-4.5,2.5-7.7v-27.9h11.5Z"/>
          <rect class="cls-2" x="88.2" y="0" width="80.1" height="80.1"/>
          <rect class="cls-2" x="176.4" y="0" width="80.1" height="80.1"/>
          <rect class="cls-2" x="264.5" y="0" width="80.1" height="80.1"/>
          <polygon class="cls-6" points="153.8 16 153.8 64.1 142.4 64.1 142.4 36 128.3 55.3 114.2 36 114.2 64.1 102.8 64.1 102.8 16 113.6 16 128.3 37.4 142.9 16 153.8 16"/>
          <path class="cls-6" d="M221.8,53.1c1.3-1.3,2-3,2-5.1s-.7-3.7-2-5c-1.3-1.4-3.1-2-5.4-2s-4,.7-5.3,2c-1.4,1.3-2.1,3-2.1,5.1s.7,3.8,2,5.1c1.4,1.3,3.2,2,5.4,2s4-.7,5.4-2M230.4,36.3c3.2,3.1,4.8,7,4.8,11.7s-1.8,9.1-5.3,12.4-8,4.9-13.4,4.9-9.8-1.6-13.4-4.9c-3.6-3.3-5.4-7.4-5.4-12.4s1.1-6.6,3.4-10.2l13.6-21.6h12.8l-9.4,14.9c5,.4,9.1,2.1,12.2,5.2"/>
          <path class="cls-6" d="M311.8,38.4c1.3-1.4,1.9-3.1,1.9-4.9s-.6-3.5-1.8-4.9c-1.2-1.4-2.8-2.1-4.6-2.1h-11.6v14.1h11.1c2,0,3.7-.7,5-2.1M320,21.3c3.2,3.5,4.8,7.5,4.8,12s-1.6,8.6-4.8,12.1c-3.2,3.5-7.5,5.3-12.9,5.3h-11.4v13.4h-11.3V16h23.1c5.1,0,9.3,1.8,12.5,5.3"/>
        </g>
        <rect class="cls-1" x="384.9" width="1" height="80.2"/>
      </g>
      <g>
        <g>
          <path class="cls-5" d="M429.1,80c-.8,0-1.5-.2-2.1-.6s-1-1-1.2-1.6l1.1-.3c.2.4.4.8.8,1.1.4.3.9.4,1.4.4s.9-.1,1.2-.4.5-.5.5-.8,0-.5-.3-.6c-.2-.2-.5-.3-.9-.5l-1.8-.6c-1.1-.3-1.6-1-1.6-1.8s.2-1,.7-1.4c.5-.4,1.1-.6,1.8-.6s1.4.2,1.9.5c.5.4.9.8,1.1,1.3l-1,.3c-.2-.3-.4-.6-.8-.8-.3-.2-.7-.3-1.2-.3s-.7,0-1,.3c-.3.2-.4.4-.4.7s0,.4.2.5.4.3.7.4l1.8.6c.6.2,1.1.4,1.4.7.3.3.5.7.5,1.2s-.3,1.2-.8,1.6c-.5.4-1.2.7-2,.7h0Z"/>
          <path class="cls-5" d="M435.5,80c-.8,0-1.4-.3-1.9-.8-.5-.5-.8-1.2-.8-2s.3-1.5.8-2c.5-.5,1.2-.8,1.9-.8s1.2.2,1.6.5c.4.3.7.7.8,1.2l-1,.3c0-.3-.2-.5-.5-.7s-.6-.3-.9-.3-.9.2-1.2.5c-.3.3-.5.8-.5,1.3s.2.9.5,1.3c.3.4.7.5,1.2.5s.7,0,.9-.3.4-.4.5-.7l1,.3c-.1.4-.4.8-.8,1.2-.4.3-1,.5-1.6.5h0Z"/>
          <path class="cls-5" d="M441.8,74.4c.7,0,1.2.2,1.5.6s.5,1,.5,1.7v3.1h-1.1v-2.9c0-.5-.1-.8-.3-1.1-.2-.3-.5-.4-1-.4s-.8.2-1.1.5c-.3.3-.4.8-.4,1.3v2.6h-1.1v-7.7h1.1v3.2c.4-.6,1-.9,1.8-.9h0Z"/>
          <path class="cls-5" d="M447.6,80c-.8,0-1.4-.3-2-.8s-.8-1.2-.8-2,.3-1.5.8-2c.5-.5,1.2-.8,2-.8s1.4.3,2,.8c.5.5.8,1.2.8,2s-.3,1.5-.8,2-1.2.8-2,.8h0ZM448.9,78.5c.3-.3.5-.8.5-1.3s-.2-.9-.5-1.3c-.3-.3-.7-.5-1.2-.5s-.9.2-1.2.5c-.3.3-.5.8-.5,1.3s.2.9.5,1.3c.3.3.7.5,1.2.5s.9-.2,1.2-.5Z"/>
          <path class="cls-5" d="M453.9,80c-.8,0-1.4-.3-2-.8s-.8-1.2-.8-2,.3-1.5.8-2c.5-.5,1.2-.8,2-.8s1.4.3,2,.8c.5.5.8,1.2.8,2s-.3,1.5-.8,2-1.2.8-2,.8h0ZM455.1,78.5c.3-.3.5-.8.5-1.3s-.2-.9-.5-1.3c-.3-.3-.7-.5-1.2-.5s-.9.2-1.2.5c-.3.3-.5.8-.5,1.3s.2.9.5,1.3c.3.3.7.5,1.2.5s.9-.2,1.2-.5Z"/>
          <path class="cls-5" d="M457.7,72.1h1.1v7.7h-1.1v-7.7Z"/>
          <path class="cls-5" d="M465.1,80c-.8,0-1.4-.3-2-.8s-.8-1.2-.8-2,.3-1.5.8-2c.5-.5,1.2-.8,2-.8s1.4.3,2,.8c.5.5.8,1.2.8,2s-.3,1.5-.8,2-1.2.8-2,.8h0ZM466.4,78.5c.3-.3.5-.8.5-1.3s-.2-.9-.5-1.3c-.3-.3-.7-.5-1.2-.5s-.9.2-1.2.5c-.3.3-.5.8-.5,1.3s.2.9.5,1.3c.3.3.7.5,1.2.5s.9-.2,1.2-.5Z"/>
          <path class="cls-5" d="M470.4,74.5h1.7v1h-1.7v4.3h-1.1v-4.3h-1v-1h1v-.6c0-.6.1-1.1.4-1.4.3-.3.7-.5,1.3-.5s.8,0,1.1.2l-.3.9c-.2-.1-.5-.2-.7-.2-.5,0-.8.3-.8,1v.6Z"/>
          <path class="cls-5" d="M480.1,78.1h-3.4l-.7,1.8h-1.2l2.9-7.4h1.4l2.9,7.4h-1.2l-.7-1.8ZM479.7,77.1l-1.3-3.5-1.3,3.5h2.7Z"/>
          <path class="cls-5" d="M483.8,75.4c.2-.3.4-.6.7-.7s.7-.2,1.1-.2v1c-.6,0-1,0-1.3.3-.3.3-.5.8-.5,1.6v2.4h-1.1v-5.3h1.1v.8h0Z"/>
          <path class="cls-5" d="M488.6,80c-.8,0-1.4-.3-1.9-.8-.5-.5-.8-1.2-.8-2s.3-1.5.8-2c.5-.5,1.2-.8,1.9-.8s1.2.2,1.6.5c.4.3.7.7.8,1.2l-1,.3c0-.3-.2-.5-.5-.7s-.6-.3-.9-.3-.9.2-1.2.5c-.3.3-.5.8-.5,1.3s.2.9.5,1.3.7.5,1.2.5.7,0,.9-.3c.3-.2.4-.4.5-.7l1,.3c-.1.4-.4.8-.8,1.2-.4.3-1,.5-1.6.5h0Z"/>
          <path class="cls-5" d="M494.9,74.4c.7,0,1.2.2,1.5.6s.5,1,.5,1.7v3.1h-1.1v-2.9c0-.5-.1-.8-.3-1.1-.2-.3-.5-.4-1-.4s-.8.2-1.1.5c-.3.3-.4.8-.4,1.3v2.6h-1.1v-7.7h1.1v3.2c.4-.6,1-.9,1.8-.9h0Z"/>
          <path class="cls-5" d="M498.4,73.5c-.1-.1-.2-.3-.2-.5s0-.3.2-.5c.1-.1.3-.2.5-.2s.4,0,.5.2c.1.1.2.3.2.5s0,.4-.2.5c-.1.1-.3.2-.5.2s-.4,0-.5-.2ZM498.3,74.5h1.1v5.3h-1.1v-5.3Z"/>
          <path class="cls-5" d="M504,79.7c-.4.2-.8.3-1.1.3-.5,0-1-.2-1.2-.5-.3-.3-.4-.8-.4-1.3v-2.6h-.9v-1h.9v-1.8h1.1v1.8h1.6v1h-1.6v2.6c0,.5.2.8.7.8s.5,0,.7-.2l.3.9Z"/>
          <path class="cls-5" d="M507.1,80c-.8,0-1.5-.3-2-.8-.5-.5-.8-1.2-.8-2s.2-1.5.7-2c.5-.5,1.1-.8,1.9-.8s1.5.3,1.9.8c.5.5.7,1.2.7,1.9s0,.3,0,.4h-4.2c0,.4.2.8.5,1.1.3.3.7.4,1.2.4s1.2-.3,1.5-.9l1,.3c-.2.4-.5.8-.9,1.1-.4.3-1,.4-1.6.4h0ZM508.6,76.8c0-.4-.2-.8-.5-1-.3-.3-.6-.4-1.1-.4s-.8.1-1.1.4c-.3.3-.5.6-.5,1h3.2Z"/>
          <path class="cls-5" d="M513.1,80c-.8,0-1.4-.3-1.9-.8-.5-.5-.8-1.2-.8-2s.3-1.5.8-2c.5-.5,1.2-.8,1.9-.8s1.2.2,1.6.5c.4.3.7.7.8,1.2l-1,.3c0-.3-.2-.5-.5-.7s-.6-.3-.9-.3-.9.2-1.2.5c-.3.3-.5.8-.5,1.3s.2.9.5,1.3.7.5,1.2.5.7,0,.9-.3c.3-.2.4-.4.5-.7l1,.3c-.1.4-.4.8-.8,1.2-.4.3-1,.5-1.6.5h0Z"/>
          <path class="cls-5" d="M519.8,79.7c-.4.2-.8.3-1.1.3-.5,0-1-.2-1.2-.5-.3-.3-.4-.8-.4-1.3v-2.6h-.9v-1h.9v-1.8h1.1v1.8h1.6v1h-1.6v2.6c0,.5.2.8.7.8s.5,0,.7-.2l.3.9Z"/>
          <path class="cls-5" d="M525.6,74.6v5.3h-1.1v-.8c-.4.6-1,.9-1.8.9-.7,0-1.2-.2-1.5-.6s-.5-1-.5-1.7v-3.1h1.1v2.9c0,.5.1.8.3,1.1.2.3.5.4,1,.4s.8-.2,1.1-.5c.3-.3.4-.8.4-1.3v-2.6h1.1Z"/>
          <path class="cls-5" d="M528.1,75.4c.2-.3.4-.6.7-.7.3-.2.7-.2,1.1-.2v1c-.6,0-1,0-1.3.3-.3.3-.5.8-.5,1.6v2.4h-1.1v-5.3h1.1v.8h0Z"/>
          <path class="cls-5" d="M532.9,80c-.8,0-1.5-.3-2-.8-.5-.5-.8-1.2-.8-2s.2-1.5.7-2c.5-.5,1.1-.8,1.9-.8s1.5.3,1.9.8c.5.5.7,1.2.7,1.9s0,.3,0,.4h-4.2c0,.4.2.8.5,1.1.3.3.7.4,1.2.4s1.2-.3,1.5-.9l1,.3c-.2.4-.5.8-.9,1.1-.4.3-1,.4-1.6.4h0ZM534.4,76.8c0-.4-.2-.8-.5-1-.3-.3-.6-.4-1.1-.4s-.8.1-1.1.4c-.3.3-.5.6-.5,1h3.2Z"/>
          <path class="cls-5" d="M536.5,78.6h1.2l-.7,2.7h-.9l.5-2.7Z"/>
          <path class="cls-5" d="M544.7,72.5c.7,0,1.3.3,1.8.8.4.5.7,1.1.7,1.7s-.2,1.2-.7,1.7c-.4.5-1.1.7-1.8.7h-2.1v2.4h-1.1v-7.4h3.3ZM545.7,76c.3-.3.4-.6.4-1s-.1-.7-.4-1c-.3-.3-.6-.4-1-.4h-2.1v2.9h2.1c.4,0,.8-.1,1-.4Z"/>
          <path class="cls-5" d="M548,72.1h1.1v7.7h-1.1v-7.7Z"/>
          <path class="cls-5" d="M552.8,80c-.7,0-1.3-.3-1.8-.8-.5-.5-.7-1.2-.7-2s.2-1.5.7-2c.5-.5,1.1-.8,1.8-.8s1.4.3,1.9.9v-.8h1.1v5.3h-1.1v-.8c-.4.6-1.1.9-1.9.9h0ZM552.9,79c.5,0,.9-.2,1.2-.5.3-.3.5-.8.5-1.3s-.2-.9-.5-1.3c-.3-.3-.7-.5-1.2-.5s-.9.2-1.2.5c-.3.3-.5.8-.5,1.3s.2,1,.5,1.3c.3.3.7.5,1.2.5h0Z"/>
          <path class="cls-5" d="M560,74.4c.7,0,1.2.2,1.5.6s.5,1,.5,1.7v3.1h-1.1v-2.9c0-.5-.1-.8-.3-1.1-.2-.3-.5-.4-1-.4s-.8.2-1.1.5c-.3.3-.4.8-.4,1.3v2.6h-1.1v-5.3h1.1v.8c.4-.6,1-.9,1.8-.9h0Z"/>
          <path class="cls-5" d="M566.2,74.4c.7,0,1.2.2,1.5.6s.5,1,.5,1.7v3.1h-1.1v-2.9c0-.5-.1-.8-.3-1.1-.2-.3-.5-.4-1-.4s-.8.2-1.1.5c-.3.3-.4.8-.4,1.3v2.6h-1.1v-5.3h1.1v.8c.4-.6,1-.9,1.8-.9h0Z"/>
          <path class="cls-5" d="M569.7,73.5c-.1-.1-.2-.3-.2-.5s0-.3.2-.5c.1-.1.3-.2.5-.2s.4,0,.5.2c.1.1.2.3.2.5s0,.4-.2.5c-.1.1-.3.2-.5.2s-.4,0-.5-.2ZM569.6,74.5h1.1v5.3h-1.1v-5.3Z"/>
          <path class="cls-5" d="M575,74.4c.7,0,1.2.2,1.5.6s.5,1,.5,1.7v3.1h-1.1v-2.9c0-.5-.1-.8-.3-1.1-.2-.3-.5-.4-1-.4s-.8.2-1.1.5c-.3.3-.4.8-.4,1.3v2.6h-1.1v-5.3h1.1v.8c.4-.6,1-.9,1.8-.9h0Z"/>
          <path class="cls-5" d="M583.6,74.6v5.1c0,.7-.2,1.4-.7,1.8-.5.5-1.1.7-1.9.7-1.1,0-2-.5-2.5-1.4l.9-.4c.3.5.8.8,1.5.8.5,0,.9-.1,1.1-.4.3-.3.4-.7.4-1.2v-.8c-.4.6-1,.9-1.8.9s-1.4-.3-1.9-.8c-.5-.5-.7-1.2-.7-1.9s.2-1.4.7-1.9c.5-.5,1.1-.8,1.9-.8s1.4.3,1.8.9v-.7h1.1ZM580.8,78.8c.5,0,.9-.2,1.2-.5.3-.3.5-.7.5-1.2s-.2-.9-.5-1.2c-.3-.3-.7-.5-1.2-.5s-.9.2-1.2.5c-.3.3-.5.7-.5,1.2s.2.9.5,1.2c.3.3.7.5,1.2.5h0Z"/>
          <path class="cls-5" d="M592.6,79.9l-.7-.8c-.7.6-1.4.9-2.2.9-.6,0-1.1-.2-1.6-.6-.4-.4-.7-.9-.7-1.5s.1-.8.4-1.2c.2-.4.6-.7,1-1-.4-.5-.6-1-.6-1.4s.2-1.1.6-1.4.9-.5,1.6-.5,1,.2,1.4.5.6.7.7,1.2l-1,.3c0-.3-.2-.5-.4-.7-.2-.2-.4-.3-.7-.3s-.6,0-.8.3c-.2.2-.3.4-.3.7s.2.7.5,1l2,2.2c.2-.4.4-.8.5-1.3l1,.3c-.1.6-.4,1.2-.7,1.7l1.4,1.6h-1.3ZM589.7,79c.5,0,1-.2,1.5-.7l-1.8-1.9c-.6.4-1,.8-1,1.4s.1.6.3.8.5.3.9.3h0Z"/>
          <path class="cls-5" d="M600.2,72.5c1.1,0,1.9.3,2.5,1,.6.7,1,1.6,1,2.7s-.3,2-.9,2.7-1.5,1-2.6,1h-2.9v-7.4h2.9ZM600.2,78.8c.7,0,1.3-.3,1.8-.8.4-.5.6-1.1.6-1.9s-.2-1.4-.6-1.9c-.4-.5-1-.7-1.8-.7h-1.8v5.3h1.8Z"/>
          <path class="cls-5" d="M607.2,80c-.8,0-1.5-.3-2-.8-.5-.5-.8-1.2-.8-2s.2-1.5.7-2c.5-.5,1.1-.8,1.9-.8s1.5.3,1.9.8c.5.5.7,1.2.7,1.9s0,.3,0,.4h-4.2c0,.4.2.8.5,1.1.3.3.7.4,1.2.4s1.2-.3,1.5-.9l1,.3c-.2.4-.5.8-.9,1.1-.4.3-1,.4-1.6.4h0ZM608.7,76.8c0-.4-.2-.8-.5-1-.3-.3-.6-.4-1.1-.4s-.8.1-1.1.4c-.3.3-.5.6-.5,1h3.2Z"/>
          <path class="cls-5" d="M612.8,80c-.6,0-1.1-.2-1.6-.5-.5-.3-.7-.7-.9-1.1l1-.3c0,.3.3.5.6.7s.6.3.9.3.6,0,.8-.2c.2-.1.3-.3.3-.5s0-.3-.2-.4-.3-.2-.5-.2l-1.4-.4c-.8-.3-1.2-.7-1.2-1.4s.2-.8.6-1.1.9-.5,1.4-.5,1,.1,1.4.4c.4.2.7.6.8,1l-1,.3c-.1-.2-.3-.4-.5-.5-.2-.1-.5-.2-.8-.2s-.5,0-.6.2c-.2.1-.3.3-.3.4s.2.4.6.5l1.4.4c.4.1.8.3,1,.5s.4.5.4.9-.2.9-.6,1.2c-.4.3-.9.5-1.6.5h0Z"/>
          <path class="cls-5" d="M616.1,73.5c-.1-.1-.2-.3-.2-.5s0-.3.2-.5c.1-.1.3-.2.5-.2s.4,0,.5.2c.1.1.2.3.2.5s0,.4-.2.5c-.1.1-.3.2-.5.2s-.4,0-.5-.2ZM616.1,74.5h1.1v5.3h-1.1v-5.3Z"/>
          <path class="cls-5" d="M623.7,74.6v5.1c0,.7-.2,1.4-.7,1.8-.5.5-1.1.7-1.9.7-1.1,0-2-.5-2.5-1.4l.9-.4c.3.5.8.8,1.5.8.5,0,.9-.1,1.1-.4.3-.3.4-.7.4-1.2v-.8c-.4.6-1,.9-1.8.9s-1.4-.3-1.9-.8c-.5-.5-.7-1.2-.7-1.9s.2-1.4.7-1.9c.5-.5,1.1-.8,1.9-.8s1.4.3,1.8.9v-.7h1.1ZM621,78.8c.5,0,.9-.2,1.2-.5.3-.3.5-.7.5-1.2s-.2-.9-.5-1.2c-.3-.3-.7-.5-1.2-.5s-.9.2-1.2.5c-.3.3-.5.7-.5,1.2s.2.9.5,1.2c.3.3.7.5,1.2.5h0Z"/>
          <path class="cls-5" d="M628,74.4c.7,0,1.2.2,1.5.6s.5,1,.5,1.7v3.1h-1.1v-2.9c0-.5-.1-.8-.3-1.1-.2-.3-.5-.4-1-.4s-.8.2-1.1.5c-.3.3-.4.8-.4,1.3v2.6h-1.1v-5.3h1.1v.8c.4-.6,1-.9,1.8-.9h0Z"/>
        </g>
        <g>
          <polygon class="cls-3" points="630 0 630 63.8 566.2 63.8 566.2 45.4 567.8 45.4 567.8 36.7 576.6 36.7 576.6 27.1 567.8 27.1 567.8 18.4 566.2 18.4 566.2 0 630 0"/>
          <g>
            <polygon class="cls-4" points="549.5 27.1 549.5 36.7 558.3 36.7 558.3 45.4 559.9 45.4 559.9 63.8 493.7 63.8 493.7 0 559.9 0 559.9 18.4 558.3 18.4 558.3 27.1 549.5 27.1"/>
            <rect class="cls-4" x="425.9" y="0" width="66.2" height="63.8"/>
          </g>
          <path class="cls-6" d="M458.9,51.8c-4.3,0-7.9-1.1-10.9-3.3-3-2.2-5.1-5-6.2-8.2l7-2.2c.8,2.1,2.1,3.8,4,5.1,1.9,1.3,4.1,2,6.7,2s3.8-.5,5.1-1.4c1.3-1,2-2.1,2-3.4s-.4-1.9-1.1-2.6c-.8-.7-2-1.4-3.8-2l-9.5-3.1c-2.6-.8-4.6-2.1-6.2-3.7-1.5-1.6-2.3-3.6-2.3-6,0-3,1.2-5.6,3.8-7.7s5.7-3.2,9.5-3.2,7.2.9,10.1,2.8,4.8,4.2,5.9,7l-6.8,2c-.8-1.6-2-2.8-3.6-3.8-1.6-1-3.5-1.4-5.5-1.4s-3.2.4-4.3,1.2c-1.1.8-1.7,1.8-1.7,2.9,0,1.7,1.2,2.9,3.5,3.6l9.2,3.1c3.2,1,5.7,2.3,7.4,3.8s2.6,3.7,2.6,6.6-1.4,6.1-4.1,8.4c-2.7,2.3-6.3,3.4-10.7,3.4h-.1Z"/>
          <polygon class="cls-4" points="499.5 37.2 492.8 19 486.1 37.2 499.5 37.2"/>
          <path class="cls-6" d="M501.2,42.7h-16.7l-3.1,8.3h-7.5l14.2-38.1h9.4l14.3,38.1h-7.6l-3-8.3ZM498.8,36.1l-6-16.1-5.9,16.1h11.9Z"/>
          <path class="cls-6" d="M531.8,12.9c3.9,0,7,1.4,9.3,4.1,2.4,2.7,3.6,5.8,3.6,9.2s-1.2,6.6-3.6,9.2c-2.4,2.7-5.6,4-9.6,4h-9.9v11.6h-7.2V12.9h17.4,0ZM531.2,32.7c1.9,0,3.4-.7,4.6-2,1.2-1.3,1.8-2.8,1.8-4.5s-.6-3.2-1.7-4.5c-1.1-1.3-2.6-2-4.3-2h-10v13.1h9.6,0Z"/>
          <path class="cls-6" d="M597.8,12.9c5.4,0,9.7,1.8,12.9,5.3,3.2,3.5,4.9,8.1,4.9,13.8s-1.6,10.1-4.8,13.7c-3.2,3.6-7.5,5.3-12.9,5.3h-16.1V12.9h16.1,0ZM597.6,44.2c3.2,0,5.7-1.1,7.7-3.5,1.9-2.3,2.9-5.3,2.9-9s-1-6.6-2.9-8.8c-1.9-2.3-4.5-3.4-7.7-3.4h-8.8v24.6h8.8,0Z"/>
        </g>
      </g>
    </g>
  </g>
</svg>