<?xml version="1.0" encoding="UTF-8"?>
<svg id="Layer_2" data-name="Layer 2" xmlns="http://www.w3.org/2000/svg" viewBox="0 0 643.8 118.8">
  <defs>
    <style>
      .cls-1 {
        fill: #d1451e;
      }

      .cls-1, .cls-2, .cls-3, .cls-4, .cls-5, .cls-6 {
        stroke-width: 0px;
      }

      .cls-2 {
        fill: #575756;
      }

      .cls-3 {
        fill: #c5713b;
      }

      .cls-4 {
        fill: #2e4f92;
      }

      .cls-5 {
        fill: #d74a2a;
      }

      .cls-6 {
        fill: #fff;
      }
    </style>
  </defs>
  <g id="Layer_1-2" data-name="Layer 1">
    <g>
      <g>
        <g>
          <rect class="cls-5" y="19.6" width="80.1" height="80.1"/>
          <path class="cls-6" d="M61.4,35.8v28.1c0,6.3-1.9,11.4-5.6,15.2-3.7,3.8-9,5.7-15.7,5.7s-12-1.9-15.8-5.7c-3.7-3.8-5.6-8.9-5.6-15.2v-28.1h11.5v27.9c0,3.2.8,5.8,2.5,7.7,1.7,2,4.1,3,7.3,3s5.6-1,7.3-3c1.7-2,2.5-4.5,2.5-7.7v-27.9h11.5Z"/>
          <rect class="cls-5" x="88.2" y="19.6" width="80.1" height="80.1"/>
          <rect class="cls-5" x="176.4" y="19.6" width="80.1" height="80.1"/>
          <rect class="cls-5" x="264.5" y="19.6" width="80.1" height="80.1"/>
          <polygon class="cls-6" points="153.8 35.6 153.8 83.7 142.4 83.7 142.4 55.5 128.3 74.8 114.2 55.5 114.2 83.7 102.8 83.7 102.8 35.6 113.6 35.6 128.3 56.9 142.9 35.6 153.8 35.6"/>
          <path class="cls-6" d="M221.8,72.7c1.3-1.3,2-3,2-5.1s-.7-3.7-2-5c-1.3-1.4-3.1-2-5.4-2s-4,.7-5.3,2c-1.4,1.3-2.1,3-2.1,5.1s.7,3.8,2,5.1c1.4,1.3,3.2,2,5.4,2s4-.7,5.4-2M230.4,55.8c3.2,3.1,4.8,7,4.8,11.7s-1.8,9.1-5.3,12.4c-3.6,3.3-8,4.9-13.4,4.9s-9.8-1.6-13.4-4.9c-3.6-3.3-5.4-7.4-5.4-12.4s1.1-6.6,3.4-10.2l13.6-21.6h12.8l-9.4,14.9c5,.4,9.1,2.1,12.2,5.2"/>
          <path class="cls-6" d="M311.8,57.9c1.3-1.4,1.9-3.1,1.9-4.9s-.6-3.5-1.8-4.9c-1.2-1.4-2.8-2.1-4.6-2.1h-11.6v14.1h11.1c2,0,3.7-.7,5-2.1M320,40.9c3.2,3.5,4.8,7.5,4.8,12s-1.6,8.6-4.8,12.1c-3.2,3.5-7.5,5.3-12.9,5.3h-11.4v13.4h-11.3v-48.1h23.1c5.1,0,9.3,1.8,12.5,5.3"/>
        </g>
        <rect class="cls-1" x="384.9" y="19.6" width="1" height="80.2"/>
      </g>
      <g>
        <g>
          <rect class="cls-3" x="418" y="53.9" width="7.2" height="12"/>
          <rect class="cls-3" x="460.9" width="7.2" height="12.4"/>
          <polygon class="cls-3" points="418 46.3 418 39.1 432.3 39.1 432.3 19.6 439.5 19.6 439.5 46.3 418 46.3"/>
          <rect class="cls-3" x="446.6" y="19.6" width="7.2" height="26.7"/>
          <rect class="cls-3" x="446.6" width="7.2" height="12.4"/>
          <rect class="cls-3" x="460.9" y="19.6" width="7.2" height="26.7"/>
          <rect class="cls-3" x="475.3" width="7.2" height="12.4"/>
          <rect class="cls-3" x="475.3" y="19.6" width="7.2" height="26.7"/>
          <rect class="cls-3" x="489.6" y="106.8" width="7.2" height="12"/>
          <rect class="cls-3" x="489.6" y="72.9" width="7.2" height="26.7"/>
          <rect class="cls-3" x="503.9" y="39.1" width="7.2" height="60.5"/>
          <rect class="cls-3" x="489.6" y="19.6" width="7.2" height="46.3"/>
          <polygon class="cls-3" points="475.3 53.9 482.4 53.9 482.4 99.7 418 99.7 418 72.9 425.1 72.9 425.1 92.5 475.3 92.5 475.3 53.9"/>
        </g>
        <g>
          <path class="cls-4" d="M518.3,46.3h3.5v19.6h-3.5v-19.6Z"/>
          <path class="cls-4" d="M529.3,46.3v7.9h0c.2-.2.4-.5.6-.7.3-.2.6-.5.9-.7.4-.2.8-.4,1.3-.5.5-.1,1-.2,1.6-.2.9,0,1.8.2,2.6.5s1.5.9,2.1,1.5c.6.6,1,1.4,1.3,2.2.3.9.5,1.8.5,2.7s-.2,1.9-.5,2.8c-.3.9-.7,1.6-1.3,2.2-.6.6-1.2,1.1-2.1,1.5-.8.4-1.7.6-2.7.6s-1.8-.2-2.6-.6c-.8-.4-1.5-1-1.9-1.8h0v2h-3.2v-19.6h3.3ZM536.9,59.1c0-.5,0-1-.2-1.5-.2-.5-.4-1-.7-1.4-.3-.4-.7-.7-1.2-1-.5-.2-1-.4-1.7-.4s-1.2.1-1.6.4c-.5.3-.9.6-1.2,1-.3.4-.6.9-.8,1.4-.2.5-.3,1-.3,1.6s0,1,.3,1.5c.2.5.4,1,.8,1.4.3.4.8.7,1.2,1s1,.4,1.6.4,1.2-.1,1.7-.4c.5-.3.9-.6,1.2-1,.3-.4.5-.9.7-1.4s.2-1,.2-1.6Z"/>
          <path class="cls-4" d="M543.5,52.5h3.2v2.1h0c.3-.7.8-1.3,1.5-1.8.7-.5,1.6-.8,2.6-.8s1.6.2,2.2.5,1.1.7,1.5,1.2c.4.5.7,1.1.9,1.7.2.6.3,1.3.3,2v8.3h-3.3v-7.4c0-.4,0-.8,0-1.2,0-.4-.2-.8-.4-1.2-.2-.3-.4-.6-.8-.8-.3-.2-.8-.3-1.3-.3s-1,.1-1.4.3c-.4.2-.7.5-1,.8-.2.3-.4.7-.6,1.2-.1.4-.2.9-.2,1.3v7.3h-3.3v-13.3Z"/>
          <path class="cls-4" d="M566.7,46.2h6.8c.9,0,1.8,0,2.7.3.9.2,1.6.5,2.3,1,.7.4,1.2,1,1.6,1.7.4.7.6,1.6.6,2.6s-.4,2.6-1.2,3.5c-.8.9-1.9,1.5-3.3,1.8l5.2,8.7h-4.2l-4.5-8.3h-2.6v8.3h-3.5v-19.6ZM573.1,54.7c.5,0,1,0,1.5-.1.5,0,.9-.2,1.3-.4.4-.2.7-.5,1-.9.3-.4.4-.9.4-1.5s-.1-1-.4-1.3c-.2-.3-.5-.6-.9-.8-.4-.2-.8-.3-1.3-.4-.5,0-.9-.1-1.4-.1h-3.2v5.5h2.9Z"/>
          <path class="cls-4" d="M582.9,59.1c0-1.1.2-2,.6-2.9.4-.9.9-1.6,1.5-2.2.6-.6,1.4-1.1,2.3-1.4.9-.3,1.8-.5,2.8-.5s1.9.2,2.8.5c.9.3,1.7.8,2.3,1.4.6.6,1.2,1.3,1.5,2.2.4.9.6,1.8.6,2.9s-.2,2-.6,2.9c-.4.9-.9,1.6-1.5,2.2-.6.6-1.4,1.1-2.3,1.5s-1.8.5-2.8.5-1.9-.2-2.8-.5-1.7-.8-2.3-1.5-1.2-1.4-1.5-2.2c-.4-.9-.6-1.8-.6-2.9ZM586.3,59.1c0,.5,0,1,.2,1.6.2.5.4,1,.7,1.4.3.4.7.7,1.2,1,.5.3,1.1.4,1.7.4s1.2-.1,1.7-.4c.5-.3.9-.6,1.2-1,.3-.4.5-.9.7-1.4.2-.5.2-1,.2-1.6s0-1-.2-1.5c-.2-.5-.4-1-.7-1.4-.3-.4-.7-.7-1.2-1-.5-.2-1.1-.4-1.7-.4s-1.2.1-1.7.4-.9.6-1.2,1c-.3.4-.6.9-.7,1.4-.2.5-.2,1-.2,1.5Z"/>
          <path class="cls-4" d="M609.7,56.2c-.3-.4-.6-.7-1.2-.9-.5-.2-1-.4-1.6-.4s-1.1.1-1.6.4c-.5.2-.8.6-1.2,1-.3.4-.5.9-.7,1.4s-.2,1-.2,1.5,0,1,.2,1.5c.2.5.4,1,.7,1.4.3.4.7.7,1.2,1,.5.2,1,.4,1.6.4s1-.1,1.6-.3.9-.5,1.2-.9l2.1,2.1c-.6.6-1.3,1-2.1,1.4-.9.3-1.8.5-2.8.5s-1.9-.2-2.8-.5c-.9-.3-1.6-.8-2.3-1.4-.7-.6-1.2-1.3-1.6-2.2-.4-.9-.6-1.9-.6-3s.2-2,.6-2.9c.4-.9.9-1.6,1.5-2.2.6-.6,1.4-1.1,2.3-1.4.9-.3,1.8-.5,2.8-.5s1.9.2,2.8.6,1.6.9,2.2,1.5l-2.3,2Z"/>
          <path class="cls-4" d="M621.5,52.2c.9,0,1.6.2,2.2.5.6.3,1.1.7,1.5,1.2.4.5.7,1.1.9,1.7.2.6.3,1.3.3,2v8.3h-3.3v-7.3c0-.4,0-.8,0-1.2s-.2-.8-.3-1.1c-.2-.3-.4-.6-.7-.8-.3-.2-.8-.3-1.3-.3s-1,.1-1.4.3c-.4.2-.7.5-1,.8-.3.3-.5.7-.6,1.2-.1.4-.2.9-.2,1.3v7.3h-3.3v-19.6h3.3v8.1h0c.1-.3.3-.5.6-.8s.5-.5.9-.7c.3-.2.7-.4,1.1-.5.4-.1.9-.2,1.4-.2Z"/>
          <path class="cls-4" d="M643.8,65.9h-3.2v-2h0c-.5.8-1.1,1.4-1.9,1.8-.8.4-1.7.6-2.6.6s-1.9-.2-2.7-.6c-.8-.4-1.5-.9-2.1-1.5s-1-1.4-1.3-2.2c-.3-.9-.5-1.8-.5-2.8s.2-1.9.5-2.7c.3-.8.8-1.6,1.3-2.2.6-.6,1.3-1.1,2.1-1.5s1.7-.5,2.6-.5,1.2,0,1.6.2c.5.1.9.3,1.3.5.4.2.7.4.9.7.3.2.5.5.6.7h0v-7.9h3.3v19.6ZM632.9,59.1c0,.5,0,1,.2,1.6.2.5.4,1,.7,1.4.3.4.7.7,1.2,1,.5.3,1,.4,1.7.4s1.2-.1,1.6-.4.9-.6,1.2-1c.3-.4.6-.9.8-1.4.2-.5.3-1,.3-1.5s0-1-.3-1.6c-.2-.5-.4-1-.8-1.4-.3-.4-.8-.7-1.2-1-.5-.3-1-.4-1.6-.4s-1.2.1-1.7.4c-.5.2-.9.6-1.2,1-.3.4-.6.9-.7,1.4-.2.5-.2,1-.2,1.5Z"/>
        </g>
        <g>
          <path class="cls-4" d="M518.3,19.6h12.6v3h-9.1v5.4h8.6v2.9h-8.6v8.2h-3.5v-19.6Z"/>
          <path class="cls-4" d="M531.8,32.4c0-1,.2-2,.6-2.9.4-.9.9-1.6,1.5-2.2.6-.6,1.4-1.1,2.3-1.4.9-.3,1.8-.5,2.8-.5s1.9.2,2.8.5c.9.3,1.6.8,2.3,1.4.6.6,1.2,1.3,1.5,2.2.4.9.6,1.8.6,2.9s-.2,2-.6,2.9c-.4.9-.9,1.6-1.5,2.2-.6.6-1.4,1.1-2.3,1.5-.9.3-1.8.5-2.8.5s-1.9-.2-2.8-.5-1.6-.8-2.3-1.5c-.6-.6-1.2-1.4-1.5-2.2-.4-.9-.6-1.8-.6-2.9ZM535.2,32.4c0,.5,0,1,.2,1.5.2.5.4,1,.7,1.4.3.4.7.7,1.2,1,.5.3,1,.4,1.7.4s1.2-.1,1.7-.4c.5-.3.9-.6,1.2-1,.3-.4.5-.9.7-1.4.2-.5.2-1,.2-1.5s0-1-.2-1.5c-.2-.5-.4-1-.7-1.4-.3-.4-.7-.7-1.2-1-.5-.2-1.1-.4-1.7-.4s-1.2.1-1.7.4-.9.6-1.2,1c-.3.4-.5.9-.7,1.4-.2.5-.2,1-.2,1.5Z"/>
          <path class="cls-4" d="M549.5,25.9h3.1v2.1h0c.3-.7.8-1.2,1.5-1.8.7-.5,1.6-.8,2.6-.8s1.6.2,2.2.5,1.1.7,1.5,1.2c.4.5.7,1.1.9,1.7.2.6.3,1.3.3,2v8.3h-3.3v-7.3c0-.4,0-.8,0-1.2,0-.4-.2-.8-.4-1.1-.2-.3-.4-.6-.8-.8-.3-.2-.8-.3-1.3-.3s-1,.1-1.4.3c-.4.2-.7.5-1,.8-.2.3-.4.7-.6,1.1-.1.4-.2.9-.2,1.3v7.3h-3.3v-13.3Z"/>
          <path class="cls-4" d="M579,39.1h-3.1v-2h0c-.5.8-1.1,1.4-1.9,1.8-.8.4-1.7.6-2.6.6s-1.9-.2-2.7-.6c-.8-.4-1.5-.9-2-1.5s-1-1.4-1.3-2.2c-.3-.9-.5-1.8-.5-2.7s.2-1.9.5-2.7c.3-.8.8-1.6,1.3-2.2.6-.6,1.3-1.1,2-1.5s1.7-.5,2.6-.5,1.2,0,1.6.2c.5.1.9.3,1.3.5.4.2.7.4.9.7.3.2.5.5.6.7h0v-8h3.3v19.6ZM568.1,32.4c0,.5,0,1,.2,1.5.2.5.4,1,.7,1.4.3.4.7.7,1.2,1,.5.3,1,.4,1.7.4s1.2-.1,1.6-.4.9-.6,1.2-1c.3-.4.6-.9.8-1.4.2-.5.3-1,.3-1.5s0-1-.3-1.5c-.2-.5-.4-1-.8-1.4-.3-.4-.8-.7-1.2-1-.5-.3-1-.4-1.6-.4s-1.2.1-1.7.4c-.5.2-.9.6-1.2,1-.3.4-.5.9-.7,1.4-.2.5-.2,1-.2,1.5Z"/>
          <path class="cls-4" d="M591.3,37.4h0c-.3.6-.9,1.1-1.6,1.5-.7.4-1.6.6-2.5.6s-1.1,0-1.7-.2c-.6-.1-1.1-.4-1.6-.7-.5-.3-.9-.7-1.2-1.3-.3-.5-.5-1.2-.5-1.9s.3-1.8.8-2.4c.6-.6,1.3-1,2.2-1.4s1.9-.5,2.9-.6c1.1-.1,2.1-.2,3.2-.2v-.3c0-.8-.3-1.4-.9-1.8-.6-.4-1.3-.6-2.1-.6s-1.4.1-2,.4c-.6.3-1.2.7-1.6,1.1l-1.7-2c.8-.7,1.6-1.2,2.6-1.6,1-.3,2-.5,3-.5s2.2.2,2.9.5c.8.3,1.4.8,1.8,1.3.4.5.8,1.1.9,1.8.2.7.3,1.3.3,2v8.1h-3.1v-1.7ZM591.2,33.1h-.7c-.5,0-1.1,0-1.7,0-.6,0-1.1.1-1.6.3-.5.2-.9.4-1.2.7-.3.3-.5.7-.5,1.2s0,.6.2.8c.1.2.3.4.5.5s.5.2.7.3c.3,0,.6,0,.8,0,1.1,0,2-.3,2.6-.9.6-.6.9-1.4.9-2.5v-.5Z"/>
          <path class="cls-4" d="M596.1,28.5v-2.7h2.3v-6.3h3.3v6.3h3.3v2.7h-3.3v6.2c0,.6.1,1.1.3,1.5.2.4.7.6,1.4.6s.5,0,.7,0c.3,0,.5-.1.7-.2v2.6c-.2.1-.5.2-.9.3s-.8,0-1.2,0c-.9,0-1.6-.1-2.2-.4s-1-.6-1.3-1c-.3-.4-.5-.9-.7-1.5-.1-.6-.2-1.2-.2-1.8v-6.2h-2.3Z"/>
          <path class="cls-4" d="M607,21.4c0-.5.2-1,.6-1.4.4-.4.9-.6,1.5-.6s1.1.2,1.5.6c.4.4.6.9.6,1.4s-.2,1-.6,1.4c-.4.4-.9.6-1.5.6s-1.1-.2-1.5-.6c-.4-.4-.6-.9-.6-1.4ZM607.4,25.9h3.3v13.3h-3.3v-13.3Z"/>
          <path class="cls-4" d="M614,32.4c0-1,.2-2,.6-2.9.4-.9.9-1.6,1.5-2.2.6-.6,1.4-1.1,2.3-1.4.9-.3,1.8-.5,2.8-.5s1.9.2,2.8.5c.9.3,1.6.8,2.3,1.4.6.6,1.2,1.3,1.5,2.2.4.9.6,1.8.6,2.9s-.2,2-.6,2.9c-.4.9-.9,1.6-1.5,2.2-.6.6-1.4,1.1-2.3,1.5-.9.3-1.8.5-2.8.5s-1.9-.2-2.8-.5c-.9-.3-1.6-.8-2.3-1.5-.6-.6-1.2-1.4-1.5-2.2-.4-.9-.6-1.8-.6-2.9ZM617.4,32.4c0,.5,0,1,.2,1.5.2.5.4,1,.7,1.4.3.4.7.7,1.2,1,.5.3,1,.4,1.7.4s1.2-.1,1.7-.4c.5-.3.9-.6,1.2-1,.3-.4.5-.9.7-1.4.2-.5.2-1,.2-1.5s0-1-.2-1.5c-.2-.5-.4-1-.7-1.4-.3-.4-.7-.7-1.2-1-.5-.2-1.1-.4-1.7-.4s-1.2.1-1.7.4-.9.6-1.2,1c-.3.4-.5.9-.7,1.4-.2.5-.2,1-.2,1.5Z"/>
          <path class="cls-4" d="M631.6,25.9h3.1v2.1h0c.3-.7.8-1.2,1.5-1.8.7-.5,1.6-.8,2.6-.8s1.6.2,2.2.5,1.1.7,1.5,1.2c.4.5.7,1.1.9,1.7.2.6.3,1.3.3,2v8.3h-3.3v-7.3c0-.4,0-.8,0-1.2,0-.4-.2-.8-.4-1.1-.2-.3-.4-.6-.8-.8-.3-.2-.8-.3-1.3-.3s-1,.1-1.4.3c-.4.2-.7.5-1,.8-.2.3-.4.7-.6,1.1-.1.4-.2.9-.2,1.3v7.3h-3.3v-13.3Z"/>
        </g>
        <g>
          <path class="cls-2" d="M518.3,72.9h3.3c.6,0,1.1,0,1.6.2s.9.3,1.2.6c.3.3.6.6.8,1,.2.4.3.8.3,1.4s0,1-.3,1.4c-.2.4-.5.7-.8,1-.3.3-.8.4-1.2.6-.5.1-1,.2-1.6.2h-2.1v5.4h-1.2v-11.6ZM519.4,78.1h2c.9,0,1.6-.2,2.1-.5.5-.4.7-.9.7-1.6s-.2-1.2-.7-1.6c-.5-.3-1.2-.5-2.1-.5h-2v4.2Z"/>
          <path class="cls-2" d="M534.1,80.7c0,.6-.1,1.1-.3,1.6-.2.5-.5.9-.8,1.3-.4.4-.8.6-1.3.8-.5.2-1.1.3-1.7.3s-1.1-.1-1.6-.3-.9-.5-1.3-.8-.6-.8-.8-1.3c-.2-.5-.3-1-.3-1.6s.1-1.1.3-1.6c.2-.5.5-.9.8-1.3s.8-.6,1.3-.8c.5-.2,1-.3,1.6-.3s1.2.1,1.7.3c.5.2.9.5,1.3.8.4.4.6.8.8,1.3.2.5.3,1,.3,1.6ZM532.9,80.7c0-.4,0-.8-.2-1.2s-.3-.7-.6-1c-.3-.3-.6-.5-.9-.7s-.8-.2-1.2-.2-.8,0-1.2.2c-.4.2-.7.4-.9.7-.3.3-.4.6-.6,1-.1.4-.2.8-.2,1.2s0,.8.2,1.2c.1.4.3.7.6,1,.3.3.6.5.9.7.4.2.8.2,1.2.2s.9,0,1.2-.2.7-.4.9-.7c.3-.3.4-.6.6-1,.1-.4.2-.8.2-1.2Z"/>
          <path class="cls-2" d="M542.1,84.5c0-.2,0-.4,0-.7s0-.5,0-.6h0c-.2.4-.6.8-1.1,1.1-.5.3-1,.4-1.6.4-1,0-1.7-.3-2.2-.9-.5-.6-.7-1.3-.7-2.3v-4.7h1.1v4.2c0,.4,0,.8,0,1.1,0,.3.2.6.3.8s.4.4.6.5.6.2,1,.2.6,0,.9-.2c.3-.1.5-.3.7-.5.2-.2.4-.6.5-.9s.2-.8.2-1.3v-3.9h1.1v6c0,.2,0,.5,0,.8,0,.3,0,.6,0,.9h-1.1Z"/>
          <path class="cls-2" d="M546,77.7c0-.3,0-.6,0-.9h1.1c0,.2,0,.4,0,.7,0,.3,0,.5,0,.6h0c.2-.4.5-.8,1-1.1.4-.3.9-.4,1.5-.4s.3,0,.4,0,.2,0,.4,0v1.1c-.2,0-.3,0-.5,0-.2,0-.3,0-.5,0-.3,0-.6,0-.9.2-.3.1-.5.3-.7.5-.2.2-.4.5-.5.9-.1.4-.2.8-.2,1.3v3.9h-1.1v-6c0-.2,0-.5,0-.8Z"/>
          <path class="cls-2" d="M557.1,84.5h-1.1v-12.4h1.1v12.4Z"/>
          <path class="cls-2" d="M567.1,80.5v.2c0,0,0,.2,0,.3h-6.4c0,.4,0,.7.2,1.1.1.3.3.6.6.9.3.3.5.4.9.6.3.1.7.2,1.1.2.6,0,1.1-.1,1.5-.4.4-.3.7-.6,1-.9l.8.7c-.5.6-1,1-1.5,1.2-.6.3-1.1.4-1.8.4s-1.1-.1-1.6-.3c-.5-.2-.9-.5-1.3-.8-.3-.4-.6-.8-.8-1.3-.2-.5-.3-1-.3-1.6s0-1.1.3-1.6c.2-.5.5-.9.8-1.3.3-.4.8-.6,1.2-.8.5-.2,1-.3,1.5-.3s1.1.1,1.6.3c.5.2.8.5,1.1.8.3.3.5.7.7,1.2s.2.9.2,1.5ZM566,80.1c0-.7-.3-1.3-.7-1.8-.4-.5-1-.7-1.8-.7s-.7,0-1,.2-.6.3-.8.6c-.2.2-.4.5-.6.8-.1.3-.2.6-.2.9h5.2Z"/>
          <path class="cls-2" d="M573.6,78.7c-.2-.3-.4-.6-.7-.8-.3-.2-.7-.3-1.1-.3s-.4,0-.6,0-.4.1-.5.2c-.2,0-.3.2-.4.4,0,.2-.1.3-.1.5,0,.4.1.6.4.8.3.2.8.4,1.4.5.9.2,1.6.5,2,.8.4.4.6.8.6,1.4s0,.8-.3,1.1c-.2.3-.4.5-.7.7-.3.2-.6.3-.9.4-.3,0-.7.1-1,.1-.6,0-1.1-.1-1.7-.4-.5-.2-1-.6-1.3-1.1l.9-.7c.2.3.5.6.9.9.4.2.8.3,1.3.3s.5,0,.7,0c.2,0,.4-.1.6-.2.2-.1.3-.2.4-.4s.1-.4.1-.6c0-.4-.2-.7-.6-.9-.4-.2-.9-.4-1.7-.6-.2,0-.5-.1-.7-.2s-.5-.2-.7-.4c-.2-.2-.4-.4-.5-.6-.1-.2-.2-.5-.2-.9s0-.7.2-1c.2-.3.4-.5.6-.7.3-.2.5-.3.9-.4.3,0,.7-.1,1-.1.5,0,1.1.1,1.6.4s.9.6,1.1,1l-.9.6Z"/>
          <path class="cls-2" d="M586.5,74.8c-.3-.3-.6-.6-1-.8-.4-.2-.9-.3-1.4-.3s-.6,0-.9.1c-.3,0-.6.2-.8.4-.2.2-.4.4-.6.7-.1.3-.2.6-.2,1s0,.7.2.9c.1.2.3.4.6.6s.5.3.8.4c.3.1.6.2.9.3.4.1.8.3,1.2.4.4.2.8.4,1.1.6.3.2.6.6.8.9s.3.9.3,1.4-.1,1.1-.3,1.5c-.2.4-.5.8-.9,1-.4.3-.8.5-1.2.6-.5.1-.9.2-1.4.2s-.7,0-1-.1c-.3,0-.7-.2-1-.3-.3-.1-.6-.3-.9-.5-.3-.2-.5-.5-.7-.8l1-.8c.3.4.6.8,1.1,1,.5.3,1,.4,1.6.4s.6,0,.9-.1c.3,0,.6-.2.8-.4.2-.2.4-.4.6-.7.2-.3.2-.6.2-1s0-.7-.2-1c-.2-.3-.4-.5-.6-.7-.3-.2-.6-.3-.9-.5-.3-.1-.7-.2-1.1-.4-.4-.1-.8-.3-1.1-.4-.4-.2-.7-.4-1-.6-.3-.2-.5-.5-.7-.9-.2-.4-.3-.8-.3-1.3s.1-1,.3-1.4c.2-.4.5-.7.9-1,.4-.3.8-.5,1.2-.6.4-.1.9-.2,1.3-.2.8,0,1.5.1,2,.4.6.3,1,.6,1.3,1l-.9.8Z"/>
          <path class="cls-2" d="M595.6,78.6c-.2-.3-.5-.5-.8-.7-.4-.2-.7-.3-1.2-.3s-.9,0-1.2.2c-.4.2-.7.4-.9.7-.3.3-.5.6-.6,1-.1.4-.2.8-.2,1.2s0,.8.2,1.2c.1.4.3.7.6,1,.3.3.6.5.9.7.4.2.8.2,1.2.2s.9,0,1.2-.3c.3-.2.6-.4.8-.7l.8.6c-.3.4-.7.7-1.2,1-.5.2-1,.4-1.7.4s-1.2-.1-1.7-.3-.9-.5-1.3-.8c-.4-.4-.6-.8-.8-1.3-.2-.5-.3-1-.3-1.6s0-1.1.3-1.6c.2-.5.5-.9.8-1.3.4-.4.8-.6,1.3-.8.5-.2,1.1-.3,1.7-.3s1,.1,1.6.3c.5.2,1,.6,1.3,1l-.9.6Z"/>
          <path class="cls-2" d="M599.6,73.9c0,.2,0,.4-.2.6s-.3.2-.5.2-.4,0-.5-.2-.2-.3-.2-.6,0-.4.2-.6.3-.2.5-.2.4,0,.5.2.2.3.2.6ZM599.4,84.5h-1.1v-7.7h1.1v7.7Z"/>
          <path class="cls-2" d="M609.3,80.5v.2c0,0,0,.2,0,.3h-6.4c0,.4,0,.7.2,1.1.1.3.3.6.6.9.3.3.5.4.9.6.3.1.7.2,1.1.2.6,0,1.1-.1,1.5-.4.4-.3.7-.6,1-.9l.8.7c-.5.6-1,1-1.5,1.2-.6.3-1.1.4-1.8.4s-1.1-.1-1.6-.3c-.5-.2-.9-.5-1.3-.8-.3-.4-.6-.8-.8-1.3-.2-.5-.3-1-.3-1.6s0-1.1.3-1.6c.2-.5.5-.9.8-1.3.3-.4.8-.6,1.2-.8.5-.2,1-.3,1.5-.3s1.1.1,1.6.3c.5.2.8.5,1.1.8.3.3.5.7.7,1.2s.2.9.2,1.5ZM608.2,80.1c0-.7-.3-1.3-.7-1.8-.4-.5-1-.7-1.8-.7s-.7,0-1,.2-.6.3-.8.6c-.2.2-.4.5-.6.8-.1.3-.2.6-.2.9h5.2Z"/>
          <path class="cls-2" d="M612.7,76.9c0,.2,0,.4,0,.7,0,.3,0,.5,0,.6h0c.2-.4.6-.8,1.1-1.1.5-.3,1-.4,1.6-.4,1,0,1.7.3,2.2.9.5.6.7,1.3.7,2.3v4.7h-1.1v-4.2c0-.4,0-.8,0-1.1,0-.3-.2-.6-.3-.8-.2-.2-.4-.4-.6-.5-.3-.1-.6-.2-1-.2s-.6,0-.9.2c-.3.1-.5.3-.7.5-.2.2-.4.6-.5.9-.1.4-.2.8-.2,1.3v3.9h-1.1v-6c0-.2,0-.5,0-.8,0-.3,0-.6,0-.9h1.1Z"/>
          <path class="cls-2" d="M626.7,78.6c-.2-.3-.5-.5-.8-.7-.4-.2-.7-.3-1.2-.3s-.9,0-1.2.2c-.4.2-.7.4-.9.7-.3.3-.5.6-.6,1-.1.4-.2.8-.2,1.2s0,.8.2,1.2c.1.4.3.7.6,1,.3.3.6.5.9.7.4.2.8.2,1.2.2s.9,0,1.2-.3c.3-.2.6-.4.8-.7l.8.6c-.3.4-.7.7-1.2,1-.5.2-1,.4-1.7.4s-1.2-.1-1.7-.3-.9-.5-1.3-.8c-.4-.4-.6-.8-.8-1.3-.2-.5-.3-1-.3-1.6s0-1.1.3-1.6c.2-.5.5-.9.8-1.3.4-.4.8-.6,1.3-.8.5-.2,1.1-.3,1.7-.3s1,.1,1.6.3c.5.2,1,.6,1.3,1l-.9.6Z"/>
          <path class="cls-2" d="M636.4,80.5v.2c0,0,0,.2,0,.3h-6.4c0,.4,0,.7.2,1.1.1.3.3.6.6.9.3.3.5.4.9.6.3.1.7.2,1.1.2.6,0,1.1-.1,1.5-.4.4-.3.7-.6,1-.9l.8.7c-.5.6-1,1-1.5,1.2-.6.3-1.1.4-1.8.4s-1.1-.1-1.6-.3c-.5-.2-.9-.5-1.3-.8-.3-.4-.6-.8-.8-1.3-.2-.5-.3-1-.3-1.6s0-1.1.3-1.6c.2-.5.5-.9.8-1.3.3-.4.8-.6,1.2-.8.5-.2,1-.3,1.5-.3s1.1.1,1.6.3c.5.2.8.5,1.1.8.3.3.5.7.7,1.2s.2.9.2,1.5ZM635.3,80.1c0-.7-.3-1.3-.7-1.8-.4-.5-1-.7-1.8-.7s-.7,0-1,.2-.6.3-.8.6c-.2.2-.4.5-.6.8-.1.3-.2.6-.2.9h5.2Z"/>
          <path class="cls-2" d="M642.9,78.7c-.2-.3-.4-.6-.7-.8-.3-.2-.7-.3-1.1-.3s-.4,0-.6,0-.4.1-.5.2c-.2,0-.3.2-.4.4,0,.2-.1.3-.1.5,0,.4.1.6.4.8.3.2.8.4,1.4.5.9.2,1.6.5,2,.8.4.4.6.8.6,1.4s0,.8-.3,1.1c-.2.3-.4.5-.7.7-.3.2-.6.3-.9.4-.3,0-.7.1-1,.1-.6,0-1.1-.1-1.7-.4-.5-.2-1-.6-1.3-1.1l.9-.7c.2.3.5.6.9.9.4.2.8.3,1.3.3s.5,0,.7,0c.2,0,.4-.1.6-.2.2-.1.3-.2.4-.4s.1-.4.1-.6c0-.4-.2-.7-.6-.9-.4-.2-.9-.4-1.7-.6-.2,0-.5-.1-.7-.2s-.5-.2-.7-.4c-.2-.2-.4-.4-.5-.6-.1-.2-.2-.5-.2-.9s0-.7.2-1c.2-.3.4-.5.6-.7.3-.2.5-.3.9-.4.3,0,.7-.1,1-.1.5,0,1.1.1,1.6.4s.9.6,1.1,1l-.9.6Z"/>
        </g>
        <g>
          <path class="cls-2" d="M548.7,95.6v.2c0,0,0,.2,0,.3h-6.4c0,.4,0,.7.2,1.1.1.3.3.6.6.9.3.3.5.4.9.6.3.1.7.2,1.1.2.6,0,1.1-.1,1.5-.4.4-.3.7-.6,1-.9l.8.7c-.5.6-1,1-1.5,1.2-.6.3-1.1.4-1.8.4s-1.1-.1-1.6-.3c-.5-.2-.9-.5-1.3-.8-.3-.4-.6-.8-.8-1.3-.2-.5-.3-1-.3-1.6s0-1.1.3-1.6c.2-.5.5-.9.8-1.3.3-.4.8-.6,1.2-.8.5-.2,1-.3,1.5-.3s1.1.1,1.6.3c.5.2.8.5,1.1.8.3.3.5.7.7,1.2s.2.9.2,1.5ZM547.5,95.2c0-.7-.3-1.3-.7-1.8-.4-.5-1-.7-1.8-.7s-.7,0-1,.2-.6.3-.8.6c-.2.2-.4.5-.6.8-.1.3-.2.6-.2.9h5.2Z"/>
          <path class="cls-2" d="M554.5,92.9h-2.2v4.5c0,.3,0,.5,0,.7,0,.2.1.3.2.4.1.1.2.2.4.2.1,0,.3,0,.5,0s.3,0,.5,0c.2,0,.3-.1.5-.2v1c-.1,0-.4.1-.6.2-.2,0-.4,0-.7,0s-.4,0-.7,0c-.2,0-.4-.2-.6-.3-.2-.2-.4-.4-.5-.6-.1-.3-.2-.6-.2-1v-4.8h-1.6v-.9h1.6v-2.2h1.1v2.2h2.2v.9Z"/>
          <path class="cls-2" d="M561.5,99.7h-1.1v-12.4h1.1v12.4Z"/>
          <path class="cls-2" d="M564.6,91.9h-.9l1.1-3.8h1.2l-1.3,3.8Z"/>
          <path class="cls-2" d="M569.3,99.7h-1.2v-11.6h1.2v11.6Z"/>
          <path class="cls-2" d="M573.3,92c0,.2,0,.4,0,.7,0,.3,0,.5,0,.6h0c.2-.4.6-.8,1.1-1.1.5-.3,1-.4,1.6-.4,1,0,1.7.3,2.2.9.5.6.7,1.3.7,2.3v4.7h-1.1v-4.2c0-.4,0-.8,0-1.1,0-.3-.2-.6-.3-.8-.2-.2-.4-.4-.6-.5-.3-.1-.6-.2-1-.2s-.6,0-.9.2c-.3.1-.5.3-.7.5-.2.2-.4.6-.5.9-.1.4-.2.8-.2,1.3v3.9h-1.1v-6c0-.2,0-.5,0-.8,0-.3,0-.6,0-.9h1.1Z"/>
          <path class="cls-2" d="M582.8,92c0,.2,0,.4,0,.7,0,.3,0,.5,0,.6h0c.2-.4.6-.8,1.1-1.1.5-.3,1-.4,1.6-.4,1,0,1.7.3,2.2.9.5.6.7,1.3.7,2.3v4.7h-1.1v-4.2c0-.4,0-.8,0-1.1,0-.3-.2-.6-.3-.8-.2-.2-.4-.4-.6-.5-.3-.1-.6-.2-1-.2s-.6,0-.9.2c-.3.1-.5.3-.7.5-.2.2-.4.6-.5.9-.1.4-.2.8-.2,1.3v3.9h-1.1v-6c0-.2,0-.5,0-.8,0-.3,0-.6,0-.9h1.1Z"/>
          <path class="cls-2" d="M599,95.8c0,.6-.1,1.1-.3,1.6-.2.5-.5.9-.8,1.3-.4.4-.8.6-1.3.8-.5.2-1.1.3-1.7.3s-1.1-.1-1.6-.3-.9-.5-1.3-.8-.6-.8-.8-1.3c-.2-.5-.3-1-.3-1.6s.1-1.1.3-1.6c.2-.5.5-.9.8-1.3s.8-.6,1.3-.8c.5-.2,1-.3,1.6-.3s1.2.1,1.7.3c.5.2.9.5,1.3.8.4.4.6.8.8,1.3.2.5.3,1,.3,1.6ZM597.8,95.8c0-.4,0-.8-.2-1.2-.1-.4-.3-.7-.6-1-.3-.3-.6-.5-.9-.7s-.8-.2-1.2-.2-.8,0-1.2.2c-.4.2-.7.4-.9.7-.3.3-.4.6-.6,1-.1.4-.2.8-.2,1.2s0,.8.2,1.2c.1.4.3.7.6,1,.3.3.6.5.9.7.4.2.8.2,1.2.2s.9,0,1.2-.2.7-.4.9-.7c.3-.3.4-.6.6-1,.1-.4.2-.8.2-1.2Z"/>
          <path class="cls-2" d="M604.5,99.7h-1.2l-3.1-7.7h1.2l2.5,6.5h0l2.5-6.5h1.2l-3.1,7.7Z"/>
          <path class="cls-2" d="M614.2,94.7c0-.7-.2-1.2-.5-1.5-.3-.3-.9-.5-1.5-.5s-.9,0-1.3.2c-.4.2-.7.4-1,.7l-.6-.7c.3-.3.7-.6,1.3-.8.5-.2,1.1-.3,1.8-.3s.8,0,1.2.2c.4.1.7.3.9.5.3.2.5.5.6.9.2.3.2.8.2,1.2v3.4c0,.3,0,.6,0,.9,0,.3,0,.6,0,.8h-1c0-.2,0-.4,0-.6,0-.2,0-.4,0-.6h0c-.3.5-.7.9-1.2,1.1-.4.2-1,.3-1.6.3s-.6,0-.9-.1c-.3,0-.6-.2-.9-.4-.3-.2-.5-.4-.6-.7-.2-.3-.3-.7-.3-1.1s.1-1.1.4-1.4c.3-.3.7-.6,1.2-.8.5-.2,1.1-.3,1.7-.3.6,0,1.3,0,2,0v-.2ZM613.9,95.8c-.5,0-.9,0-1.4,0-.5,0-.9.1-1.3.2-.4.1-.7.3-.9.5-.2.2-.4.5-.4.9s0,.5.2.7c.1.2.2.3.4.4.2.1.4.2.6.2.2,0,.4,0,.6,0,.4,0,.7,0,1-.2.3-.1.6-.3.8-.6.2-.2.4-.5.5-.8.1-.3.2-.6.2-1v-.6h-.3Z"/>
          <path class="cls-2" d="M621.4,92.9h-2.2v4.5c0,.3,0,.5,0,.7,0,.2.1.3.2.4.1.1.2.2.4.2.1,0,.3,0,.5,0s.3,0,.5,0c.2,0,.3-.1.5-.2v1c-.1,0-.4.1-.6.2-.2,0-.4,0-.7,0s-.4,0-.7,0c-.2,0-.4-.2-.6-.3-.2-.2-.4-.4-.5-.6-.1-.3-.2-.6-.2-1v-4.8h-1.6v-.9h1.6v-2.2h1.1v2.2h2.2v.9Z"/>
          <path class="cls-2" d="M624.5,89.1c0,.2,0,.4-.2.6s-.3.2-.5.2-.4,0-.5-.2-.2-.3-.2-.6,0-.4.2-.6.3-.2.5-.2.4,0,.5.2.2.3.2.6ZM624.2,99.7h-1.1v-7.7h1.1v7.7Z"/>
          <path class="cls-2" d="M634.8,95.8c0,.6-.1,1.1-.3,1.6-.2.5-.5.9-.8,1.3-.4.4-.8.6-1.3.8-.5.2-1.1.3-1.7.3s-1.1-.1-1.6-.3-.9-.5-1.3-.8-.6-.8-.8-1.3c-.2-.5-.3-1-.3-1.6s.1-1.1.3-1.6c.2-.5.5-.9.8-1.3s.8-.6,1.3-.8c.5-.2,1-.3,1.6-.3s1.2.1,1.7.3c.5.2.9.5,1.3.8.4.4.6.8.8,1.3.2.5.3,1,.3,1.6ZM633.6,95.8c0-.4,0-.8-.2-1.2s-.3-.7-.6-1c-.3-.3-.6-.5-.9-.7s-.8-.2-1.2-.2-.8,0-1.2.2c-.4.2-.7.4-.9.7-.3.3-.4.6-.6,1-.1.4-.2.8-.2,1.2s0,.8.2,1.2c.1.4.3.7.6,1,.3.3.6.5.9.7.4.2.8.2,1.2.2s.9,0,1.2-.2.7-.4.9-.7c.3-.3.4-.6.6-1,.1-.4.2-.8.2-1.2Z"/>
          <path class="cls-2" d="M638.2,92c0,.2,0,.4,0,.7,0,.3,0,.5,0,.6h0c.2-.4.6-.8,1.1-1.1.5-.3,1-.4,1.6-.4,1,0,1.7.3,2.2.9.5.6.7,1.3.7,2.3v4.7h-1.1v-4.2c0-.4,0-.8,0-1.1,0-.3-.2-.6-.3-.8-.2-.2-.4-.4-.6-.5-.3-.1-.6-.2-1-.2s-.6,0-.9.2c-.3.1-.5.3-.7.5-.2.2-.4.6-.5.9-.1.4-.2.8-.2,1.3v3.9h-1.1v-6c0-.2,0-.5,0-.8,0-.3,0-.6,0-.9h1.1Z"/>
        </g>
      </g>
    </g>
  </g>
</svg>