<?xml version="1.0" encoding="UTF-8"?>
<svg id="Layer_2" data-name="Layer 2" xmlns="http://www.w3.org/2000/svg" xmlns:xlink="http://www.w3.org/1999/xlink" viewBox="0 0 625.3 108.4">
  <defs>
    <style>
      .cls-1 {
        fill: #d1451e;
      }

      .cls-1, .cls-2, .cls-3, .cls-4, .cls-5, .cls-6, .cls-7, .cls-8, .cls-9, .cls-10, .cls-11, .cls-12, .cls-13, .cls-14, .cls-15, .cls-16, .cls-17, .cls-18, .cls-19, .cls-20, .cls-21, .cls-22, .cls-23, .cls-24, .cls-25, .cls-26, .cls-27, .cls-28, .cls-29, .cls-30, .cls-31, .cls-32, .cls-33, .cls-34, .cls-35, .cls-36, .cls-37, .cls-38 {
        stroke-width: 0px;
      }

      .cls-2 {
        fill: url(#linear-gradient);
      }

      .cls-3 {
        fill: url(#linear-gradient-33);
      }

      .cls-4 {
        fill: url(#linear-gradient-29);
      }

      .cls-5 {
        fill: url(#linear-gradient-32);
      }

      .cls-6 {
        fill: url(#linear-gradient-30);
      }

      .cls-7 {
        fill: url(#linear-gradient-31);
      }

      .cls-8 {
        fill: url(#linear-gradient-34);
      }

      .cls-9 {
        fill: url(#linear-gradient-28);
      }

      .cls-10 {
        fill: url(#linear-gradient-25);
      }

      .cls-11 {
        fill: url(#linear-gradient-11);
      }

      .cls-12 {
        fill: url(#linear-gradient-12);
      }

      .cls-13 {
        fill: url(#linear-gradient-13);
      }

      .cls-14 {
        fill: url(#linear-gradient-10);
      }

      .cls-15 {
        fill: url(#linear-gradient-17);
      }

      .cls-16 {
        fill: url(#linear-gradient-16);
      }

      .cls-17 {
        fill: url(#linear-gradient-19);
      }

      .cls-18 {
        fill: url(#linear-gradient-15);
      }

      .cls-19 {
        fill: url(#linear-gradient-23);
      }

      .cls-20 {
        fill: url(#linear-gradient-21);
      }

      .cls-21 {
        fill: url(#linear-gradient-18);
      }

      .cls-22 {
        fill: url(#linear-gradient-14);
      }

      .cls-23 {
        fill: url(#linear-gradient-22);
      }

      .cls-24 {
        fill: url(#linear-gradient-20);
      }

      .cls-25 {
        fill: url(#linear-gradient-27);
      }

      .cls-26 {
        fill: url(#linear-gradient-24);
      }

      .cls-27 {
        fill: url(#linear-gradient-26);
      }

      .cls-28 {
        fill: #d74a2a;
      }

      .cls-29 {
        fill: #de6436;
      }

      .cls-30 {
        fill: url(#linear-gradient-4);
      }

      .cls-31 {
        fill: url(#linear-gradient-2);
      }

      .cls-32 {
        fill: url(#linear-gradient-3);
      }

      .cls-33 {
        fill: url(#linear-gradient-8);
      }

      .cls-34 {
        fill: url(#linear-gradient-9);
      }

      .cls-35 {
        fill: url(#linear-gradient-7);
      }

      .cls-36 {
        fill: url(#linear-gradient-5);
      }

      .cls-37 {
        fill: url(#linear-gradient-6);
      }

      .cls-38 {
        fill: #fff;
      }
    </style>
    <linearGradient id="linear-gradient" x1="436.8" y1="44.7" x2="542.3" y2="78.7" gradientUnits="userSpaceOnUse">
      <stop offset="0" stop-color="#3966a5"/>
      <stop offset="1" stop-color="#274795"/>
    </linearGradient>
    <linearGradient id="linear-gradient-2" x1="436.7" y1="44.9" x2="542.2" y2="78.9" xlink:href="#linear-gradient"/>
    <linearGradient id="linear-gradient-3" x1="436.7" y1="45.1" x2="542.1" y2="79.1" xlink:href="#linear-gradient"/>
    <linearGradient id="linear-gradient-4" x1="436.6" y1="45.3" x2="542.1" y2="79.3" xlink:href="#linear-gradient"/>
    <linearGradient id="linear-gradient-5" x1="443.1" y1="25" x2="548.6" y2="59" xlink:href="#linear-gradient"/>
    <linearGradient id="linear-gradient-6" x1="432.8" y1="57.2" x2="538.2" y2="91.1" xlink:href="#linear-gradient"/>
    <linearGradient id="linear-gradient-7" x1="446" y1="16" x2="551.5" y2="50" xlink:href="#linear-gradient"/>
    <linearGradient id="linear-gradient-8" x1="447" y1="13" x2="552.5" y2="47" xlink:href="#linear-gradient"/>
    <linearGradient id="linear-gradient-9" x1="448" y1="10" x2="553.4" y2="44" xlink:href="#linear-gradient"/>
    <linearGradient id="linear-gradient-10" x1="445.1" y1="19" x2="550.5" y2="52.9" xlink:href="#linear-gradient"/>
    <linearGradient id="linear-gradient-11" x1="441.9" y1="28.9" x2="547.3" y2="62.9" xlink:href="#linear-gradient"/>
    <linearGradient id="linear-gradient-12" x1="442.4" y1="27.4" x2="547.8" y2="61.3" xlink:href="#linear-gradient"/>
    <linearGradient id="linear-gradient-13" x1="442.9" y1="25.8" x2="548.3" y2="59.8" xlink:href="#linear-gradient"/>
    <linearGradient id="linear-gradient-14" x1="441.4" y1="30.5" x2="546.8" y2="64.5" xlink:href="#linear-gradient"/>
    <linearGradient id="linear-gradient-15" x1="517.7" y1="54.2" x2="632.9" y2="54.6" xlink:href="#linear-gradient"/>
    <linearGradient id="linear-gradient-16" x1="517.7" y1="54.1" x2="632.9" y2="54.5" xlink:href="#linear-gradient"/>
    <linearGradient id="linear-gradient-17" x1="517.7" y1="54.2" x2="632.9" y2="54.6" xlink:href="#linear-gradient"/>
    <linearGradient id="linear-gradient-18" x1="517.7" y1="54" x2="632.9" y2="54.4" xlink:href="#linear-gradient"/>
    <linearGradient id="linear-gradient-19" x1="517.7" y1="54" x2="632.9" y2="54.4" xlink:href="#linear-gradient"/>
    <linearGradient id="linear-gradient-20" x1="517.7" y1="53.9" x2="632.9" y2="54.3" xlink:href="#linear-gradient"/>
    <linearGradient id="linear-gradient-21" x1="517.7" y1="53.9" x2="632.9" y2="54.3" xlink:href="#linear-gradient"/>
    <linearGradient id="linear-gradient-22" x1="517.8" y1="37.2" x2="633" y2="37.6" xlink:href="#linear-gradient"/>
    <linearGradient id="linear-gradient-23" x1="517.8" y1="37.2" x2="633" y2="37.6" xlink:href="#linear-gradient"/>
    <linearGradient id="linear-gradient-24" x1="517.8" y1="37.1" x2="633" y2="37.5" xlink:href="#linear-gradient"/>
    <linearGradient id="linear-gradient-25" x1="517.8" y1="37.1" x2="633" y2="37.5" xlink:href="#linear-gradient"/>
    <linearGradient id="linear-gradient-26" x1="517.8" y1="37" x2="633" y2="37.4" xlink:href="#linear-gradient"/>
    <linearGradient id="linear-gradient-27" x1="517.8" y1="37" x2="633" y2="37.4" xlink:href="#linear-gradient"/>
    <linearGradient id="linear-gradient-28" x1="517.7" y1="71.2" x2="632.9" y2="71.6" xlink:href="#linear-gradient"/>
    <linearGradient id="linear-gradient-29" x1="517.7" y1="71.1" x2="632.9" y2="71.5" xlink:href="#linear-gradient"/>
    <linearGradient id="linear-gradient-30" x1="517.7" y1="71.1" x2="632.9" y2="71.5" xlink:href="#linear-gradient"/>
    <linearGradient id="linear-gradient-31" x1="517.7" y1="71" x2="632.9" y2="71.4" xlink:href="#linear-gradient"/>
    <linearGradient id="linear-gradient-32" x1="517.7" y1="71" x2="632.9" y2="71.4" xlink:href="#linear-gradient"/>
    <linearGradient id="linear-gradient-33" x1="517.7" y1="70.9" x2="632.9" y2="71.3" xlink:href="#linear-gradient"/>
    <linearGradient id="linear-gradient-34" x1="517.7" y1="70.9" x2="632.9" y2="71.3" xlink:href="#linear-gradient"/>
  </defs>
  <g id="Layer_1-2" data-name="Layer 1">
    <g>
      <g>
        <g>
          <polygon class="cls-29" points="485.2 54.4 485.2 54.4 486.4 54.4 485.2 54.4"/>
          <polygon class="cls-29" points="453.7 52.6 453.7 52.6 454.9 52.6 453.7 52.6"/>
          <polygon class="cls-29" points="450.4 51.1 450.4 51.1 451.5 51.1 450.4 51.1"/>
          <path class="cls-2" d="M471.7,83.5c-7.6,0-14.8-3-20.2-8.6-5.4-5.5-8.4-12.9-8.4-20.7s3-15.2,8.4-20.7l.8.9c-5.2,5.3-8,12.4-8,19.9s2.8,14.6,8,19.9c5.2,5.3,12,8.2,19.3,8.2s14.2-2.9,19.3-8.2c5.2-5.3,8-12.4,8-19.9s-2.8-14.6-8-19.9l.8-.9c5.4,5.5,8.4,12.9,8.4,20.7s-3,15.2-8.4,20.7c-5.4,5.5-12.5,8.6-20.2,8.6Z"/>
          <path class="cls-31" d="M471.7,87.1c-8.5,0-16.6-3.4-22.6-9.6-6-6.2-9.4-14.5-9.4-23.2s3.3-17,9.4-23.2l.8.9c-5.8,6-9,13.9-9,22.4s3.2,16.4,9,22.4c5.8,6,13.6,9.3,21.8,9.3s16-3.3,21.8-9.3c5.8-6,9-13.9,9-22.4s-3.2-16.4-9-22.4l.8-.9c6,6.2,9.4,14.5,9.4,23.2s-3.3,17-9.4,23.2c-6,6.2-14.1,9.6-22.6,9.6Z"/>
          <path class="cls-32" d="M471.7,90.6c-9.5,0-18.4-3.8-25.1-10.7-6.7-6.9-10.4-16-10.4-25.8s3.7-18.9,10.4-25.8l.8.9c-6.5,6.7-10,15.5-10,24.9s3.6,18.2,10,24.9c6.5,6.6,15.1,10.3,24.2,10.3s17.8-3.7,24.2-10.3c6.5-6.6,10-15.5,10-24.9s-3.6-18.2-10-24.9l.8-.9c6.7,6.9,10.4,16,10.4,25.8s-3.7,18.9-10.4,25.8c-6.7,6.9-15.6,10.7-25.1,10.7Z"/>
          <path class="cls-30" d="M471.7,94.2c-10.4,0-20.2-4.2-27.5-11.7-7.3-7.6-11.4-17.6-11.4-28.3s4-20.7,11.4-28.3l.8.9c-7.1,7.3-11.1,17.1-11.1,27.4s3.9,20.1,11.1,27.4c7.1,7.3,16.6,11.4,26.7,11.4s19.6-4,26.7-11.4c7.1-7.3,11.1-17.1,11.1-27.4s-3.9-20.1-11.1-27.4l.8-.9c7.3,7.6,11.4,17.6,11.4,28.3s-4,20.7-11.4,28.3c-7.4,7.6-17.1,11.7-27.5,11.7Z"/>
          <path class="cls-29" d="M471.7,97.7c-11.3,0-22-4.5-30-12.8-8-8.2-12.4-19.2-12.4-30.8s4.4-22.6,12.4-30.8c8-8.2,18.6-12.8,30-12.8s22,4.5,30,12.8l-.8.9c-7.8-8-18.1-12.4-29.1-12.4s-21.4,4.4-29.1,12.4c-7.8,8-12.1,18.6-12.1,29.9s4.3,21.9,12.1,29.9c7.8,8,18.1,12.4,29.1,12.4s21.3-4.4,29.1-12.4l.8.9c-8,8.2-18.6,12.8-30,12.8Z"/>
          <path class="cls-29" d="M471.7,101.3c-12.2,0-23.8-4.9-32.4-13.8-8.7-8.9-13.4-20.7-13.4-33.3s4.8-24.4,13.4-33.3c8.7-8.9,20.2-13.8,32.4-13.8s23.8,4.9,32.4,13.8l-.8.9c-8.4-8.7-19.6-13.4-31.6-13.4s-23.1,4.8-31.6,13.4c-8.4,8.7-13.1,20.2-13.1,32.4s4.6,23.8,13.1,32.4c8.4,8.7,19.6,13.4,31.6,13.4s23.1-4.8,31.6-13.4l.8.9c-8.7,8.9-20.2,13.8-32.4,13.8Z"/>
          <path class="cls-29" d="M471.7,104.9c-13.2,0-25.5-5.3-34.9-14.8-9.3-9.6-14.4-22.3-14.4-35.8s5.1-26.2,14.4-35.8c9.3-9.6,21.7-14.8,34.9-14.8s25.5,5.3,34.9,14.8l-.8.9c-9.1-9.3-21.2-14.5-34-14.5s-24.9,5.1-34,14.5c-9.1,9.3-14.1,21.8-14.1,35s5,25.6,14.1,35c9.1,9.3,21.2,14.5,34,14.5s24.9-5.1,34-14.5l.8.9c-9.3,9.6-21.7,14.8-34.9,14.8Z"/>
          <path class="cls-29" d="M471.7,108.4c-14.1,0-27.3-5.6-37.3-15.9-10-10.2-15.5-23.9-15.5-38.3s5.5-28.1,15.5-38.3c10-10.2,23.2-15.9,37.3-15.9s27.3,5.6,37.3,15.9l-.8.9c-9.7-10-22.7-15.5-36.5-15.5s-26.7,5.5-36.5,15.5c-9.7,10-15.1,23.3-15.1,37.5s5.4,27.5,15.1,37.5c9.7,10,22.7,15.5,36.5,15.5s26.7-5.5,36.5-15.5l.8.9c-10,10.2-23.2,15.9-37.3,15.9Z"/>
          <g>
            <path class="cls-29" d="M471.7,69.3c-5.9,0-11.3-3.6-13.6-9.3l1.1-.5c2.1,5.2,7,8.6,12.5,8.6s6.6-1.3,9-3.6l-27.1-11.5-6.7-2.8v-.5c.7-3.6,2.1-7,4.2-10.1,4.7-6.9,12.4-11.1,20.6-11.1s19.3,6.2,23.2,15.9l-1.1.5c-3.7-9.2-12.4-15.1-22.1-15.1s-15.2,3.9-19.6,10.5c-1.9,2.8-3.2,5.8-3.8,9.1l34.5,14.7-.6.6c-2.8,2.9-6.5,4.6-10.5,4.6Z"/>
            <path class="cls-29" d="M471.7,72.8c-7.4,0-13.9-4.5-16.8-11.5l1.1-.5c2.6,6.5,8.8,10.7,15.7,10.7s9.8-2.3,13-6.3c.6-.7,1.1-1.5,1.6-2.3l-35.4-15,.2-.5c.4-1.2.8-2.3,1.4-3.4.5-1.1,1.2-2.1,1.9-3.1,4.1-5.6,10.4-8.9,17.3-8.9s16.6,5.4,20,13.7l-1.1.5c-3.2-7.9-10.6-12.9-18.9-12.9s-12.4,3.1-16.3,8.4c-.7.9-1.3,1.9-1.8,3-.4.9-.8,1.8-1.1,2.7l35.6,15.1-.3.6c-.6,1.1-1.3,2.2-2,3.1-3.5,4.3-8.5,6.7-13.9,6.7Z"/>
            <path class="cls-29" d="M471.7,76.4c-8.8,0-16.6-5.4-20-13.7l1.1-.5c3.2,7.9,10.6,12.9,18.9,12.9s12.4-3.1,16.3-8.4c1.3-1.7,2.2-3.6,2.9-5.6l-35.6-15.1.3-.6c.6-1.1,1.3-2.2,2-3.1,3.5-4.3,8.5-6.7,13.9-6.7s13.9,4.5,16.8,11.5l-1.1.5c-2.6-6.5-8.8-10.7-15.7-10.7s-9.8,2.3-13,6.3c-.6.7-1.1,1.5-1.6,2.3l35.4,15-.2.5c-.7,2.3-1.8,4.5-3.3,6.5-4.1,5.6-10.4,8.9-17.3,8.9Z"/>
            <path class="cls-29" d="M471.7,80c-10.2,0-19.3-6.2-23.2-15.9l1.1-.5c3.7,9.2,12.4,15.1,22.1,15.1s15.1-3.9,19.6-10.5c1.9-2.8,3.2-5.8,3.8-9.1l-34.5-14.7.6-.6c2.8-2.9,6.5-4.6,10.5-4.6,6,0,11.3,3.7,13.6,9.3l-1.1.5c-2.1-5.2-7-8.6-12.5-8.6s-6.6,1.3-9,3.6l33.8,14.4v.5c-.7,3.6-2.1,7-4.2,10.1-4.7,6.9-12.4,11.1-20.6,11.1Z"/>
          </g>
          <g>
            <ellipse class="cls-38" cx="501.4" cy="43.8" rx="1.8" ry="1.9"/>
            <path class="cls-36" d="M501.4,46.3c-1.3,0-2.4-1.1-2.4-2.5s1.1-2.5,2.4-2.5,2.4,1.1,2.4,2.5-1.1,2.5-2.4,2.5ZM501.4,42.5c-.7,0-1.3.6-1.3,1.3s.6,1.3,1.3,1.3,1.3-.6,1.3-1.3-.6-1.3-1.3-1.3Z"/>
          </g>
          <g>
            <ellipse class="cls-38" cx="497.7" cy="78.1" rx="1.8" ry="1.9"/>
            <path class="cls-37" d="M497.7,80.6c-1.3,0-2.4-1.1-2.4-2.5s1.1-2.5,2.4-2.5,2.4,1.1,2.4,2.5-1.1,2.5-2.4,2.5ZM497.7,76.8c-.7,0-1.3.6-1.3,1.3s.6,1.3,1.3,1.3,1.3-.6,1.3-1.3-.6-1.3-1.3-1.3Z"/>
          </g>
          <g>
            <ellipse class="cls-38" cx="429.2" cy="70.2" rx="1.8" ry="1.9"/>
            <path class="cls-29" d="M429.2,72.7c-1.3,0-2.4-1.1-2.4-2.5s1.1-2.5,2.4-2.5,2.4,1.1,2.4,2.5-1.1,2.5-2.4,2.5ZM429.2,68.9c-.7,0-1.3.6-1.3,1.3s.6,1.3,1.3,1.3,1.3-.6,1.3-1.3-.6-1.3-1.3-1.3Z"/>
          </g>
          <g>
            <ellipse class="cls-38" cx="458.8" cy="102.5" rx="1.8" ry="1.9"/>
            <path class="cls-29" d="M458.8,105c-1.3,0-2.4-1.1-2.4-2.5s1.1-2.5,2.4-2.5,2.4,1.1,2.4,2.5-1.1,2.5-2.4,2.5ZM458.8,101.2c-.7,0-1.3.6-1.3,1.3s.6,1.3,1.3,1.3,1.3-.6,1.3-1.3-.6-1.3-1.3-1.3Z"/>
          </g>
          <g>
            <ellipse class="cls-35" cx="493.9" cy="31.4" rx="1.5" ry="1.5"/>
            <ellipse class="cls-33" cx="496.4" cy="28.9" rx="1.5" ry="1.5"/>
            <ellipse class="cls-34" cx="498.8" cy="26.4" rx="1.5" ry="1.5"/>
            <ellipse class="cls-14" cx="491.5" cy="33.9" rx="1.5" ry="1.5"/>
          </g>
          <g>
            <ellipse class="cls-29" cx="503.7" cy="21.3" rx="1.5" ry="1.5"/>
            <ellipse class="cls-29" cx="506.2" cy="18.8" rx="1.5" ry="1.5"/>
            <ellipse class="cls-29" cx="508.6" cy="16.3" rx="1.5" ry="1.5"/>
            <ellipse class="cls-29" cx="501.3" cy="23.9" rx="1.5" ry="1.5"/>
          </g>
          <g>
            <ellipse class="cls-29" cx="503.7" cy="87.1" rx="1.5" ry="1.5"/>
            <ellipse class="cls-29" cx="506.2" cy="89.6" rx="1.5" ry="1.5"/>
            <ellipse class="cls-29" cx="508.6" cy="92.1" rx="1.5" ry="1.5"/>
            <ellipse class="cls-29" cx="501.3" cy="84.6" rx="1.5" ry="1.5"/>
          </g>
          <g>
            <ellipse class="cls-11" cx="449.5" cy="31.4" rx="1.5" ry="1.5"/>
            <ellipse class="cls-12" cx="447.1" cy="28.9" rx="1.5" ry="1.5"/>
            <ellipse class="cls-13" cx="444.6" cy="26.4" rx="1.5" ry="1.5"/>
            <ellipse class="cls-22" cx="452" cy="33.9" rx="1.5" ry="1.5"/>
          </g>
          <g>
            <ellipse class="cls-38" cx="478.9" cy="4.7" rx="1.8" ry="1.9"/>
            <path class="cls-29" d="M478.9,7.2c-1.3,0-2.4-1.1-2.4-2.5s1.1-2.5,2.4-2.5,2.4,1.1,2.4,2.5-1.1,2.5-2.4,2.5ZM478.9,3.4c-.7,0-1.3.6-1.3,1.3s.6,1.3,1.3,1.3,1.3-.6,1.3-1.3-.6-1.3-1.3-1.3Z"/>
          </g>
          <g>
            <ellipse class="cls-38" cx="465.3" cy="37.4" rx="1.8" ry="1.9"/>
            <path class="cls-29" d="M465.3,39.9c-1.3,0-2.4-1.1-2.4-2.5s1.1-2.5,2.4-2.5,2.4,1.1,2.4,2.5-1.1,2.5-2.4,2.5ZM465.3,36.1c-.7,0-1.3.6-1.3,1.3s.6,1.3,1.3,1.3,1.3-.6,1.3-1.3-.6-1.3-1.3-1.3Z"/>
          </g>
          <g>
            <ellipse class="cls-38" cx="479.5" cy="59.5" rx="1.8" ry="1.9"/>
            <path class="cls-29" d="M479.5,62c-1.3,0-2.4-1.1-2.4-2.5s1.1-2.5,2.4-2.5,2.4,1.1,2.4,2.5-1.1,2.5-2.4,2.5ZM479.5,58.2c-.7,0-1.3.6-1.3,1.3s.6,1.3,1.3,1.3,1.3-.6,1.3-1.3-.6-1.3-1.3-1.3Z"/>
          </g>
          <g>
            <ellipse class="cls-38" cx="471.7" cy="75.8" rx="1.8" ry="1.9"/>
            <path class="cls-29" d="M471.7,78.3c-1.3,0-2.4-1.1-2.4-2.5s1.1-2.5,2.4-2.5,2.4,1.1,2.4,2.5-1.1,2.5-2.4,2.5ZM471.7,74.5c-.7,0-1.3.6-1.3,1.3s.6,1.3,1.3,1.3,1.3-.6,1.3-1.3-.6-1.3-1.3-1.3Z"/>
          </g>
          <g>
            <ellipse class="cls-29" cx="487.9" cy="47.3" rx="1.5" ry="1.5"/>
            <ellipse class="cls-29" cx="491.1" cy="46" rx="1.5" ry="1.5"/>
            <ellipse class="cls-29" cx="494.3" cy="44.6" rx="1.5" ry="1.5"/>
            <ellipse class="cls-29" cx="484.7" cy="48.7" rx="1.5" ry="1.5"/>
          </g>
          <g>
            <ellipse class="cls-29" cx="455.5" cy="61.1" rx="1.5" ry="1.5"/>
            <ellipse class="cls-29" cx="452.3" cy="62.5" rx="1.5" ry="1.5"/>
            <ellipse class="cls-29" cx="449.1" cy="63.8" rx="1.5" ry="1.5"/>
            <ellipse class="cls-29" cx="458.7" cy="59.7" rx="1.5" ry="1.5"/>
          </g>
        </g>
        <g>
          <path class="cls-18" d="M524.4,47.2c4,0,7,3,7,7s-3,7-7,7-7-3-7-7,3-7,7-7ZM524.4,57.6c1.9,0,3.2-1.5,3.2-3.4s-1.3-3.4-3.2-3.4-3.2,1.5-3.2,3.4,1.3,3.4,3.2,3.4Z"/>
          <path class="cls-16" d="M537.6,56.8v4.2h-3.7v-13.6h10.7v3.3h-7v2.8h5.9v3.3h-5.9Z"/>
          <path class="cls-15" d="M555.3,54.8c0,1.8.9,2.8,2.6,2.8s2.6-1.1,2.6-2.9v-7.4h3.8v7.7c0,3.3-2.3,6.1-6.5,6.1s-6.4-2.6-6.4-6.1v-7.7h3.8v7.4Z"/>
          <path class="cls-21" d="M567.5,47.4h6.9c3,0,5.1,1.5,5.1,4.6s-1.2,3.4-2.9,4l3.7,4.2v.8h-4l-3.8-4.8h-1.1v4.8h-3.8v-13.6ZM571.3,50.7v2.8h2.7c.9,0,1.5-.6,1.5-1.4s-.5-1.4-1.5-1.4h-2.7Z"/>
          <path class="cls-17" d="M582.5,47.4h6.3c3.1,0,4.9,1.2,4.9,3.7s-.7,2.3-1.8,2.8c1.8.4,2.9,1.5,2.9,3.4s-1.8,3.7-5,3.7h-7.2v-13.6ZM588.2,52.7c1,0,1.5-.4,1.5-1.2s-.5-1.2-1.5-1.2h-1.9v2.3h1.9ZM589.1,58.1c1,0,1.5-.5,1.5-1.2s-.5-1.2-1.6-1.2h-2.7v2.5h2.8Z"/>
          <path class="cls-24" d="M600.6,47.4h4.5l5.1,13.6h-3.9l-.8-2.3h-5.3l-.8,2.3h-3.9l5.1-13.6ZM601.2,55.9h3.4l-1.7-4.7-1.7,4.7Z"/>
          <path class="cls-20" d="M615.8,53.5v7.5h-3.8v-13.6h3.3l6.2,7.5v-7.5h3.8v13.6h-3.3l-6.2-7.5Z"/>
        </g>
        <g>
          <path class="cls-23" d="M524.8,40.7c1.6,0,2.7-.7,3.5-1.3l1.7,2.8c-1.4,1.2-3.2,2.1-5.4,2.1-4.1,0-7.2-3-7.2-7s3.1-7,7.2-7,4.1.8,5.4,2.1l-1.7,2.8c-.8-.6-1.9-1.3-3.5-1.3s-3.4,1.6-3.4,3.5,1.3,3.5,3.4,3.5Z"/>
          <path class="cls-19" d="M532.5,44v-13.6h11.1v3.3h-7.4v1.8h6v3.1h-6v2h7.4v3.3h-11.1Z"/>
          <path class="cls-26" d="M550.1,36.6v7.5h-3.8v-13.6h3.3l6.2,7.5v-7.5h3.8v13.6h-3.3l-6.2-7.5Z"/>
          <path class="cls-10" d="M569.6,33.8v10.2h-3.8v-10.2h-3.9v-3.3h11.6v3.3h-3.9Z"/>
          <path class="cls-27" d="M575.8,44v-13.6h11.1v3.3h-7.4v1.8h6v3.1h-6v2h7.4v3.3h-11.1Z"/>
          <path class="cls-25" d="M589.6,30.4h6.9c3,0,5.1,1.5,5.1,4.6s-1.2,3.4-2.9,4l3.7,4.2v.8h-4l-3.8-4.8h-1.1v4.8h-3.8v-13.6ZM593.4,33.8v2.8h2.7c.9,0,1.5-.6,1.5-1.4s-.5-1.4-1.5-1.4h-2.7Z"/>
        </g>
        <g>
          <path class="cls-9" d="M518.4,73.6c1.1.7,2.6,1.4,4.2,1.4s1.8-.3,1.8-1.1-.4-.8-1.2-1l-2.2-.6c-2.3-.7-3.5-1.8-3.5-3.8s1.9-4.3,5.5-4.3,3.9.6,4.9,1.1l-1.1,3.2c-1.1-.6-2.7-1.1-4-1.1s-1.5.3-1.5.9.3.7,1,.9l2.3.7c2.5.8,3.6,2,3.6,3.8,0,2.6-2.3,4.5-5.8,4.5s-4.2-.7-5.1-1.2l.9-3.4Z"/>
          <path class="cls-4" d="M534.1,72.9l-5.1-8.2v-.3h4.3l2.7,5,2.7-5h4.3v.3l-5.1,8.2v5.1h-3.8v-5.1Z"/>
          <path class="cls-6" d="M544.6,73.6c1.1.7,2.6,1.4,4.2,1.4s1.8-.3,1.8-1.1-.4-.8-1.2-1l-2.2-.6c-2.3-.7-3.5-1.8-3.5-3.8s1.9-4.3,5.5-4.3,3.9.6,4.9,1.1l-1.1,3.2c-1.1-.6-2.7-1.1-4-1.1s-1.5.3-1.5.9.3.7,1,.9l2.3.7c2.5.8,3.6,2,3.6,3.8,0,2.6-2.3,4.5-5.8,4.5s-4.2-.7-5.1-1.2l.9-3.4Z"/>
          <path class="cls-7" d="M563.8,67.7v10.2h-3.8v-10.2h-3.9v-3.3h11.6v3.3h-3.9Z"/>
          <path class="cls-5" d="M569.9,78v-13.6h11.1v3.3h-7.4v1.8h6v3.1h-6v2h7.4v3.3h-11.1Z"/>
          <path class="cls-3" d="M595.6,70.4l-3.7,4.4h-.6l-3.7-4.4v7.5h-3.8v-13.6h3.2l4.6,5.4,4.6-5.4h3.2v13.6h-3.8v-7.5Z"/>
          <path class="cls-8" d="M603,73.6c1.1.7,2.6,1.4,4.2,1.4s1.8-.3,1.8-1.1-.4-.8-1.2-1l-2.2-.6c-2.3-.7-3.5-1.8-3.5-3.8s1.9-4.3,5.5-4.3,3.9.6,4.9,1.1l-1.1,3.2c-1.1-.6-2.7-1.1-4-1.1s-1.5.3-1.5.9.3.7,1,.9l2.3.7c2.5.8,3.6,2,3.6,3.8,0,2.6-2.3,4.5-5.8,4.5s-4.2-.7-5.1-1.2l.9-3.4Z"/>
        </g>
      </g>
      <g>
        <g>
          <rect class="cls-28" y="14.1" width="80.1" height="80.1"/>
          <path class="cls-38" d="M61.4,30.3v28.1c0,6.3-1.9,11.4-5.6,15.2-3.7,3.8-9,5.7-15.7,5.7s-12-1.9-15.8-5.7c-3.7-3.8-5.6-8.9-5.6-15.2v-28.1h11.5v27.9c0,3.2.8,5.8,2.5,7.7,1.7,2,4.1,3,7.3,3s5.6-1,7.3-3c1.7-2,2.5-4.5,2.5-7.7v-27.9h11.5Z"/>
          <rect class="cls-28" x="88.2" y="14.1" width="80.1" height="80.1"/>
          <rect class="cls-28" x="176.4" y="14.1" width="80.1" height="80.1"/>
          <rect class="cls-28" x="264.5" y="14.1" width="80.1" height="80.1"/>
          <polygon class="cls-38" points="153.8 30.2 153.8 78.3 142.4 78.3 142.4 50.1 128.3 69.4 114.2 50.1 114.2 78.3 102.8 78.3 102.8 30.2 113.6 30.2 128.3 51.5 142.9 30.2 153.8 30.2"/>
          <path class="cls-38" d="M221.8,67.2c1.3-1.3,2-3,2-5.1s-.7-3.7-2-5c-1.3-1.4-3.1-2-5.4-2s-4,.7-5.3,2c-1.4,1.3-2.1,3-2.1,5.1s.7,3.8,2,5.1c1.4,1.3,3.2,2,5.4,2s4-.7,5.4-2M230.4,50.4c3.2,3.1,4.8,7,4.8,11.7s-1.8,9.1-5.3,12.4c-3.6,3.3-8,4.9-13.4,4.9s-9.8-1.6-13.4-4.9c-3.6-3.3-5.4-7.4-5.4-12.4s1.1-6.6,3.4-10.2l13.6-21.6h12.8l-9.4,14.9c5,.4,9.1,2.1,12.2,5.2"/>
          <path class="cls-38" d="M311.8,52.5c1.3-1.4,1.9-3.1,1.9-4.9s-.6-3.5-1.8-4.9c-1.2-1.4-2.8-2.1-4.6-2.1h-11.6v14.1h11.1c2,0,3.7-.7,5-2.1M320,35.5c3.2,3.5,4.8,7.5,4.8,12s-1.6,8.6-4.8,12.1c-3.2,3.5-7.5,5.3-12.9,5.3h-11.4v13.4h-11.3V30.2h23.1c5.1,0,9.3,1.8,12.5,5.3"/>
        </g>
        <rect class="cls-1" x="384.9" y="14.1" width="1" height="80.2"/>
      </g>
    </g>
  </g>
</svg>