<?xml version="1.0" encoding="UTF-8"?>
<svg id="Layer_2" data-name="Layer 2" xmlns="http://www.w3.org/2000/svg" viewBox="0 0 674 80.2">
  <defs>
    <style>
      .cls-1 {
        fill: #db5b35;
      }

      .cls-1, .cls-2, .cls-3, .cls-4 {
        stroke-width: 0px;
      }

      .cls-2 {
        fill: #d74a2a;
      }

      .cls-3 {
        fill: #352c73;
      }

      .cls-4 {
        fill: #fff;
      }
    </style>
  </defs>
  <g id="Layer_1-2" data-name="Layer 1">
    <g>
      <g>
        <rect class="cls-2" y="0" width="80.1" height="80.1"/>
        <path class="cls-4" d="M61.4,16.2v28.1c0,6.3-1.9,11.4-5.6,15.2-3.7,3.8-9,5.7-15.7,5.7s-12-1.9-15.8-5.7c-3.7-3.8-5.6-8.9-5.6-15.2v-28.1h11.5v27.9c0,3.2.8,5.8,2.5,7.7,1.7,2,4.1,3,7.3,3s5.6-1,7.3-3c1.7-2,2.5-4.5,2.5-7.7v-27.9h11.5Z"/>
        <rect class="cls-2" x="88.2" y="0" width="80.1" height="80.1"/>
        <rect class="cls-2" x="176.4" y="0" width="80.1" height="80.1"/>
        <rect class="cls-2" x="264.5" y="0" width="80.1" height="80.1"/>
        <polygon class="cls-4" points="153.8 16 153.8 64.1 142.4 64.1 142.4 36 128.3 55.3 114.2 36 114.2 64.1 102.8 64.1 102.8 16 113.6 16 128.3 37.4 142.9 16 153.8 16"/>
        <path class="cls-4" d="M221.8,53.1c1.3-1.3,2-3,2-5.1s-.7-3.7-2-5c-1.3-1.4-3.1-2-5.4-2s-4,.7-5.3,2c-1.4,1.3-2.1,3-2.1,5.1s.7,3.8,2,5.1c1.4,1.3,3.2,2,5.4,2s4-.7,5.4-2M230.4,36.3c3.2,3.1,4.8,7,4.8,11.7s-1.8,9.1-5.3,12.4-8,4.9-13.4,4.9-9.8-1.6-13.4-4.9c-3.6-3.3-5.4-7.4-5.4-12.4s1.1-6.6,3.4-10.2l13.6-21.6h12.8l-9.4,14.9c5,.4,9.1,2.1,12.2,5.2"/>
        <path class="cls-4" d="M311.8,38.4c1.3-1.4,1.9-3.1,1.9-4.9s-.6-3.5-1.8-4.9c-1.2-1.4-2.8-2.1-4.6-2.1h-11.6v14.1h11.1c2,0,3.7-.7,5-2.1M320,21.3c3.2,3.5,4.8,7.5,4.8,12s-1.6,8.6-4.8,12.1c-3.2,3.5-7.5,5.3-12.9,5.3h-11.4v13.4h-11.3V16h23.1c5.1,0,9.3,1.8,12.5,5.3"/>
      </g>
      <rect class="cls-2" x="384.9" width="1" height="80.2"/>
      <path class="cls-3" d="M466.1,2l.4.4-1.2,5.8-9.8-3.8-12.7,2.4-3.1-4.8h26.4ZM428.5,2h9.5l3.3,5.1-12.8,2.5V2ZM437.1,12l-8.6.7v-1.8l13.7-2.6,4,6.2-9.1-2.5ZM457.7,13.1l-10,1.2-4.1-6.2,11.8-2.2,9.6,3.8-1.6,8-5.7-4.5ZM492.4,20.7l-27.8-2.4,1.7-8.4h27s-1,10.8-1,10.8ZM466.7,8.5l1.3-6.2v-.2s26.2,0,26.2,0l-.6,6.4h-26.9ZM504.6,15.2l-10.8,5.6,1-11h9.8s0,5.4,0,5.4ZM504.6,8.4h-9.6s.6-6.4.6-6.4h9v6.4ZM447.4,37c1.3-1.2,1.9-2.6,1.9-4.3s-.6-3-1.8-4.2c-1.2-1.2-2.7-1.8-4.4-1.8h-16.6v12h16.1c1.9,0,3.6-.6,4.8-1.8ZM426.5,0v16.7h17c5,0,9.1,1.6,12.2,4.9,3.1,3.2,4.7,7,4.7,11.2s-.9,6-2.6,8.6c-1.7,2.6-4.1,4.6-7.2,5.8l11.5,17h-13l-10.1-15.6h-12.5v31.5h80.1V0h-80.1ZM500.2,50.2h-25.6c.8,4,3.7,6,8.7,6s5.6-1.2,6.9-3.5l9.8,2.8c-1.1,2.5-3.1,4.7-6.1,6.7-3,2-6.6,3-10.8,3h0c-5.7,0-10.2-1.7-13.8-5-3.5-3.4-5.3-7.8-5.3-13.2s1.7-9.7,5.1-13.1,7.8-5.2,13.3-5.2,10,1.7,13.2,5.1,4.9,7.7,4.9,12.8,0,2.5-.3,3.6ZM487.6,39.6c-1.4-1.2-3.2-1.7-5.3-1.7s-3.9.6-5.2,1.8c-1.4,1.2-2.2,2.6-2.4,4.2h15.2c-.2-1.6-.9-3-2.3-4.2Z"/>
      <g>
        <path class="cls-1" d="M592.3,29.7v34.6h-10.9v-3.6c-2.6,3-6,4.5-10.2,4.6-4.5,0-7.9-1.4-10.1-4.1-2.3-2.8-3.4-6.5-3.4-11.2v-20.2h10.8v18c0,5,2.1,7.5,6.2,7.6,2.1,0,3.7-.8,4.9-2.3,1.2-1.6,1.8-3.7,1.8-6.4v-16.9h10.9Z"/>
        <path class="cls-1" d="M544.5,39.5c4.9,2.4,7.4,6.2,7.4,11.3s-1.5,7.6-4.4,10c-3,2.4-7,3.6-12.2,3.6h-24.4V16.7h23.2c4.8,0,8.8,1.2,11.7,3.6,3,2.4,4.5,5.5,4.5,9.4s-1.9,7.6-5.7,9.7h0ZM521.8,26.5v9.5h12.2c1.5,0,2.7-.5,3.7-1.4,1-1,1.5-2.1,1.5-3.5s-.5-2.5-1.5-3.4c-1-.9-2.2-1.3-3.7-1.3h-12.2ZM539.3,53.3c1-.9,1.5-2.1,1.5-3.5s-.5-2.7-1.4-3.6c-1-.9-2.3-1.3-4-1.3h-13.4v9.8h13.4c1.7,0,3-.5,4-1.4Z"/>
        <path class="cls-1" d="M605.8,25.7c-1.7,0-3.2-.6-4.4-1.8s-1.8-2.7-1.8-4.4.6-3.1,1.9-4.3,2.7-1.8,4.4-1.8,3.2.6,4.4,1.8c1.2,1.2,1.9,2.6,1.9,4.3s-.6,3.2-1.8,4.4c-1.2,1.2-2.7,1.8-4.4,1.8h0ZM600.2,29.7h10.8v34.6h-10.8V29.7Z"/>
        <path class="cls-1" d="M619.4,14.8h10.9v49.6h-10.9V14.8Z"/>
        <path class="cls-1" d="M674,14.8v49.6h-10.9v-3.2c-2.6,2.8-5.9,4.1-9.9,4.1s-8.7-1.8-11.9-5.2c-3.2-3.5-4.9-7.8-4.9-13s1.6-9.5,4.9-13c3.2-3.5,7.2-5.2,11.9-5.2s7.4,1.4,10,4.1V14.8h10.8ZM655.1,55.7c2.4,0,4.4-.8,6-2.4,1.6-1.6,2.4-3.7,2.4-6.3s-.8-4.6-2.4-6.2c-1.6-1.6-3.5-2.4-5.9-2.4s-4.3.8-5.8,2.4c-1.5,1.6-2.3,3.6-2.3,6.2s.8,4.7,2.3,6.3c1.5,1.6,3.4,2.4,5.8,2.4h0Z"/>
      </g>
    </g>
  </g>
</svg>