<?xml version="1.0" encoding="UTF-8"?>
<svg id="Layer_2" data-name="Layer 2" xmlns="http://www.w3.org/2000/svg" viewBox="0 0 626.5 96.2">
  <defs>
    <style>
      .cls-1 {
        fill: #dc7569;
      }

      .cls-1, .cls-2, .cls-3, .cls-4, .cls-5, .cls-6, .cls-7, .cls-8 {
        stroke-width: 0px;
      }

      .cls-2 {
        fill: #d1451e;
      }

      .cls-3 {
        fill: #285880;
      }

      .cls-4 {
        fill: #3c83c0;
      }

      .cls-5 {
        fill: #d74a2a;
      }

      .cls-6 {
        fill: #2a426a;
      }

      .cls-7 {
        fill: #fff;
      }

      .cls-8 {
        fill: #c05242;
      }
    </style>
  </defs>
  <g id="Layer_1-2" data-name="Layer 1">
    <g>
      <g>
        <g>
          <rect class="cls-5" y="8.9" width="80.1" height="80.1"/>
          <path class="cls-7" d="M61.4,25.1v28.1c0,6.3-1.9,11.4-5.6,15.2-3.7,3.8-9,5.7-15.7,5.7s-12-1.9-15.8-5.7c-3.7-3.8-5.6-8.9-5.6-15.2v-28.1h11.5v27.9c0,3.2.8,5.8,2.5,7.7,1.7,2,4.1,3,7.3,3s5.6-1,7.3-3c1.7-2,2.5-4.5,2.5-7.7v-27.9h11.5Z"/>
          <rect class="cls-5" x="88.2" y="8.9" width="80.1" height="80.1"/>
          <rect class="cls-5" x="176.4" y="8.9" width="80.1" height="80.1"/>
          <rect class="cls-5" x="264.5" y="8.9" width="80.1" height="80.1"/>
          <polygon class="cls-7" points="153.8 24.9 153.8 73 142.4 73 142.4 44.8 128.3 64.1 114.2 44.8 114.2 73 102.8 73 102.8 24.9 113.6 24.9 128.3 46.3 142.9 24.9 153.8 24.9"/>
          <path class="cls-7" d="M221.8,62c1.3-1.3,2-3,2-5.1s-.7-3.7-2-5c-1.3-1.4-3.1-2-5.4-2s-4,.7-5.3,2c-1.4,1.3-2.1,3-2.1,5.1s.7,3.8,2,5.1c1.4,1.3,3.2,2,5.4,2s4-.7,5.4-2M230.4,45.1c3.2,3.1,4.8,7,4.8,11.7s-1.8,9.1-5.3,12.4c-3.6,3.3-8,4.9-13.4,4.9s-9.8-1.6-13.4-4.9c-3.6-3.3-5.4-7.4-5.4-12.4s1.1-6.6,3.4-10.2l13.6-21.6h12.8l-9.4,14.9c5,.4,9.1,2.1,12.2,5.2"/>
          <path class="cls-7" d="M311.8,47.2c1.3-1.4,1.9-3.1,1.9-4.9s-.6-3.5-1.8-4.9c-1.2-1.4-2.8-2.1-4.6-2.1h-11.6v14.1h11.1c2,0,3.7-.7,5-2.1M320,30.2c3.2,3.5,4.8,7.5,4.8,12s-1.6,8.6-4.8,12.1c-3.2,3.5-7.5,5.3-12.9,5.3h-11.4v13.4h-11.3V24.9h23.1c5.1,0,9.3,1.8,12.5,5.3"/>
        </g>
        <rect class="cls-2" x="384.9" y="8.9" width="1" height="80.2"/>
      </g>
      <g>
        <path id="Tracé_3059" data-name="Tracé 3059" class="cls-1" d="M459.5,45.3V0l28.3,28.3v45.3l-28.3-28.3Z"/>
        <path id="Tracé_3060" data-name="Tracé 3060" class="cls-8" d="M485.2,25.7c-1.5.3-3.2,0-4.6-.7-4.7-2.1-8.5-7.7-8.5-12.3h0c0-.1-3.2-3.3-3.2-3.3-.3.1-.4.4-.4.7v1.7c0,.8.6,1.4,1.3,1.8l.7.3c.1.4.1,1,.3,1.4h-.6c-.6.1-.8.7-.4,1.5l.8,2c.3.7,1,1.1,1.7,1.3h.6c.3.3.6.7.8,1.1l-.3.4c-.3.4-.1,1.3.4,2l1.5,1.5c.6.6,1.4.7,1.7.3l.3-.4c.4.3.8.6,1.3.8v.8c0,.8.6,1.4,1.3,1.8l1.7.8c.7.3,1.3,0,1.3-.7v-.7c.4.1.8.1,1.3.3l.3.7c.3.7,1,1.1,1.7,1.3h1.5c.1-.1.3-.3.4-.3v-1.1l-2.6-2.9Z"/>
        <path id="Tracé_3061" data-name="Tracé 3061" class="cls-8" d="M475,58l-.7-.3c-.1-.4-.1-1-.3-1.4h.6c.6-.3.8-.8.4-1.7l-.8-2c-.3-.7-1-1.1-1.7-1.3h-.6c-.3-.3-.6-.7-.8-1.1l.3-.4c.3-.7.1-1.4-.4-2h-.1c0-.1,0,5,0,5,1,1.5,1.5,3.3,1.7,5.2l3.6,3.6c.1-.1.1-.3.1-.4v-1.8c0-.6-.6-1.3-1.3-1.5"/>
        <path id="Tracé_3062" data-name="Tracé 3062" class="cls-7" d="M461.5,24.7h0c0-6.6,5.2-6.8,12.3.3,7.1,7.1,12.3,17.6,12.3,24.1h0c0,6.6-5.2,6.7-12.3-.4-7.1-7.1-12.3-17.4-12.3-24M480.6,43.8h0c0-4-2.9-10.2-7-14.2-4-4-7-3.6-7,.3h0c0,3.9,2.9,10.2,7,14.2,4,4,7,3.8,7-.3"/>
        <path id="Tracé_3063" data-name="Tracé 3063" class="cls-4" d="M470.8,39.6v45.4l-6.4-6.4-21.9-22V11.3l28.3,28.3Z"/>
        <g id="Groupe_820" data-name="Groupe 820">
          <path id="Tracé_3072" data-name="Tracé 3072" class="cls-7" d="M448.8,30.2v7.8l4.7,4.7v18.4l5,5v-18.4l6,6v-7.8l-15.8-15.8Z"/>
        </g>
        <path id="Tracé_3064" data-name="Tracé 3064" class="cls-3" d="M464.4,72.4l-2.4-5.3v-8.1l5.2,5.2v7.8l-2.8.4ZM462.5,67.1l2.2,4.9,2.1-.3v-7.4l-4.3-4.3v7.1Z"/>
        <path id="Tracé_3065" data-name="Tracé 3065" class="cls-3" d="M464.8,72.2v6.8l-.4-.4v-6.4h.4Z"/>
        <path id="Tracé_3066" data-name="Tracé 3066" class="cls-3" d="M464.8,61.9h-.4v-20.6l-18.3-18.4v21.1h-.4v-22l19.1,19.1v20.9Z"/>
        <path id="Tracé_3067" data-name="Tracé 3067" class="cls-3" d="M454.9,31.8h0c-.1-1.8-1-3.5-2.4-4.7-1.4-1.4-2.4-1.3-2.4.1h0c.1,1.8,1,3.5,2.4,4.7,1.4,1.3,2.4,1.1,2.4-.1"/>
        <path id="Tracé_3068" data-name="Tracé 3068" class="cls-4" d="M452,26.9l-.6,2,1.7,1.3v1.7c-.1,0,.7-2.5.7-2.5l-1.5-1-.3-1.4Z"/>
        <path id="Tracé_3071" data-name="Tracé 3071" class="cls-6" d="M425.8,67.9V22.6l28.3,28.3v45.3l-28.3-28.3Z"/>
        <g id="Groupe_820-2" data-name="Groupe 820">
          <path id="Tracé_3072-2" data-name="Tracé 3072" class="cls-7" d="M432.1,41.4v7.8l4.7,4.7v18.4l5,5v-18.4l6,6v-7.8l-15.8-15.8Z"/>
        </g>
      </g>
      <g>
        <path class="cls-6" d="M510.4,18.4h-5.8v14.4h-2.5v-14.4h-5.8v-2.4h14.1v2.4Z"/>
        <path class="cls-6" d="M515.5,33.2c-1.9,0-3.4-.6-4.5-1.8-1.2-1.2-1.7-2.7-1.7-4.6s.6-3.3,1.7-4.5,2.6-1.8,4.4-1.8,3.3.6,4.4,1.7,1.6,2.6,1.6,4.4,0,.6,0,1h-9.6c0,1,.5,1.8,1.1,2.5s1.6.9,2.8.9,2.7-.6,3.3-1.9l2.2.7c-.4.9-1.1,1.8-2.1,2.4-1,.7-2.2,1-3.6,1h0ZM518.9,26c0-1-.4-1.7-1.1-2.4-.6-.6-1.5-.9-2.5-.9s-1.9.3-2.5.9c-.7.6-1,1.4-1.1,2.3h7.2Z"/>
        <path class="cls-6" d="M529.2,33.2c-1.8,0-3.2-.6-4.4-1.8-1.2-1.2-1.8-2.7-1.8-4.5s.6-3.3,1.7-4.5c1.2-1.2,2.6-1.8,4.4-1.8s2.7.4,3.7,1.2c1,.8,1.6,1.7,1.9,2.6l-2.3.7c-.2-.6-.6-1.1-1.2-1.6s-1.3-.7-2.1-.7-2,.4-2.7,1.2c-.7.8-1.1,1.7-1.1,2.9s.4,2.1,1.1,2.9c.7.8,1.6,1.2,2.7,1.2s1.5-.2,2.1-.6,1-.9,1.2-1.5l2.3.6c-.3,1-.9,1.8-1.9,2.6s-2.2,1.2-3.7,1.2h0Z"/>
        <path class="cls-6" d="M543.7,20.5c1.5,0,2.7.5,3.5,1.4s1.2,2.2,1.2,3.9v7.1h-2.4v-6.6c0-1.1-.2-1.9-.7-2.5-.5-.6-1.2-.9-2.2-.9s-1.9.4-2.5,1.1-.9,1.7-.9,2.9v6h-2.5V15.4h2.5v7.2c1-1.4,2.3-2.1,4-2.1h0Z"/>
        <path class="cls-6" d="M558,20.5c1.5,0,2.7.5,3.5,1.4s1.2,2.2,1.2,3.9v7.1h-2.4v-6.6c0-1.1-.2-1.9-.7-2.5-.5-.6-1.2-.9-2.2-.9s-1.9.4-2.5,1.1-.9,1.7-.9,2.9v6h-2.5v-12.1h2.5v1.8c1-1.4,2.3-2.1,4-2.1h0Z"/>
        <path class="cls-6" d="M571.4,33.2c-1.8,0-3.3-.6-4.5-1.8s-1.8-2.7-1.8-4.5.6-3.3,1.8-4.5,2.7-1.8,4.5-1.8,3.3.6,4.5,1.8,1.8,2.7,1.8,4.5-.6,3.3-1.8,4.5-2.7,1.8-4.5,1.8h0ZM574.1,29.7c.7-.8,1.1-1.7,1.1-2.9s-.4-2.1-1.1-2.9-1.7-1.2-2.8-1.2-2,.4-2.8,1.2-1.1,1.7-1.1,2.9.4,2.1,1.1,2.9,1.6,1.2,2.8,1.2,2-.4,2.8-1.2Z"/>
        <path class="cls-6" d="M580.2,15.4h2.5v17.5h-2.5V15.4Z"/>
        <path class="cls-6" d="M591.4,33.2c-1.8,0-3.3-.6-4.5-1.8s-1.8-2.7-1.8-4.5.6-3.3,1.8-4.5,2.7-1.8,4.5-1.8,3.3.6,4.5,1.8,1.8,2.7,1.8,4.5-.6,3.3-1.8,4.5-2.7,1.8-4.5,1.8h0ZM594.2,29.7c.7-.8,1.1-1.7,1.1-2.9s-.4-2.1-1.1-2.9-1.7-1.2-2.8-1.2-2,.4-2.8,1.2c-.7.8-1.1,1.7-1.1,2.9s.4,2.1,1.1,2.9c.7.8,1.6,1.2,2.8,1.2s2-.4,2.8-1.2Z"/>
        <path class="cls-6" d="M611.9,20.9v11.6c0,1.7-.5,3.1-1.6,4.2-1.1,1.1-2.5,1.6-4.3,1.6-2.6,0-4.5-1.1-5.6-3.2l2.1-.8c.7,1.2,1.9,1.8,3.5,1.8,1.1,0,1.9-.3,2.5-1,.6-.7.9-1.6.9-2.6v-1.8c-1,1.4-2.4,2-4.1,2s-3.1-.6-4.2-1.8c-1.1-1.2-1.7-2.6-1.7-4.4s.5-3.3,1.6-4.4c1.1-1.1,2.5-1.7,4.2-1.7s3.2.7,4.1,2v-1.7h2.5ZM605.7,30.5c1.1,0,2-.4,2.7-1.1s1.1-1.7,1.1-2.8-.4-2-1.1-2.7-1.6-1.1-2.7-1.1-2,.4-2.8,1.1c-.7.7-1.1,1.6-1.1,2.8s.4,2.1,1.1,2.8,1.6,1.1,2.8,1.1h0Z"/>
        <path class="cls-6" d="M626.5,20.8l-7.2,17.1h-2.5l2.2-5.3-5.4-11.8h2.7l3.9,9,3.6-9h2.6Z"/>
        <path class="cls-6" d="M510.4,42.4h-5.8v14.4h-2.5v-14.4h-5.8v-2.4h14.1v2.4Z"/>
        <path class="cls-6" d="M513.1,46.7c.4-.8.9-1.3,1.6-1.7s1.5-.5,2.5-.4v2.3c-1.3-.2-2.3,0-3,.8s-1,1.9-1,3.6v5.4h-2.5v-12.1h2.5v1.9h0Z"/>
        <path class="cls-6" d="M523.7,57.2c-1.7,0-3.1-.6-4.2-1.8s-1.7-2.7-1.7-4.5.6-3.3,1.7-4.5,2.5-1.8,4.2-1.8,3.3.7,4.2,2.1v-1.8h2.4v12.1h-2.4v-1.8c-1,1.4-2.4,2.1-4.2,2.1h0ZM524.1,54.9c1.1,0,2-.4,2.8-1.2.8-.8,1.1-1.8,1.1-2.9s-.4-2.1-1.1-2.9c-.8-.8-1.7-1.2-2.8-1.2s-2,.4-2.8,1.1c-.7.8-1.1,1.7-1.1,2.9s.4,2.2,1.1,2.9c.7.8,1.6,1.2,2.8,1.2h0Z"/>
        <path class="cls-6" d="M540.1,44.5c1.5,0,2.7.5,3.5,1.4s1.2,2.2,1.2,3.9v7.1h-2.4v-6.6c0-1.1-.2-1.9-.7-2.5s-1.2-.9-2.2-.9-1.9.4-2.5,1.1-.9,1.7-.9,2.9v6h-2.5v-12.1h2.5v1.8c1-1.4,2.3-2.1,4-2.1h0Z"/>
        <path class="cls-6" d="M552.4,57.2c-1.3,0-2.5-.4-3.5-1.1-1-.7-1.7-1.6-2-2.6l2.2-.7c.2.7.6,1.2,1.3,1.6s1.3.6,2.1.6,1.3-.2,1.8-.5.7-.7.7-1.2-.1-.7-.4-.9-.6-.4-1.2-.6l-3.2-1c-1.9-.6-2.8-1.6-2.8-3.1s.4-1.8,1.3-2.5c.9-.7,1.9-1,3.2-1s2.3.3,3.2.8c.9.6,1.5,1.3,1.9,2.2l-2.2.7c-.2-.5-.6-.9-1.1-1.2s-1.1-.5-1.8-.5-1.1.2-1.5.4c-.4.3-.6.6-.6,1s.4.9,1.3,1.2l3.1.9c1,.3,1.7.7,2.3,1.2.5.5.8,1.2.8,2.1s-.5,2-1.4,2.7-2.1,1.1-3.5,1.1h0Z"/>
        <path class="cls-6" d="M563.3,44.8h3.9v2.2h-3.9v9.8h-2.5v-9.8h-2.3v-2.2h2.3v-1.3c0-1.4.3-2.5,1-3.3.7-.8,1.6-1.2,2.9-1.2s1.8.2,2.5.5l-.6,2c-.5-.2-1.1-.4-1.6-.4-1.2,0-1.8.8-1.8,2.3v1.3Z"/>
        <path class="cls-6" d="M573.8,57.2c-1.9,0-3.4-.6-4.5-1.8s-1.7-2.7-1.7-4.6.6-3.3,1.7-4.5c1.1-1.2,2.6-1.8,4.4-1.8s3.3.6,4.4,1.7c1.1,1.2,1.6,2.6,1.6,4.4s0,.6,0,1h-9.6c0,1,.5,1.8,1.1,2.5.7.6,1.6.9,2.8.9s2.7-.6,3.3-1.9l2.2.7c-.4.9-1.1,1.8-2.1,2.4s-2.2,1-3.6,1h0ZM577.2,50c0-1-.4-1.7-1.1-2.4s-1.5-.9-2.5-.9-1.9.3-2.5.9-1,1.4-1.1,2.3h7.2Z"/>
        <path class="cls-6" d="M584.5,46.7c.4-.8.9-1.3,1.6-1.7s1.5-.5,2.5-.4v2.3c-1.3-.2-2.3,0-3,.8-.7.7-1,1.9-1,3.6v5.4h-2.5v-12.1h2.5v1.9h0Z"/>
        <path class="cls-6" d="M505.4,81.2c-2.4,0-4.5-.8-6.1-2.5-1.6-1.7-2.4-3.8-2.4-6.2s.8-4.6,2.4-6.2c1.6-1.7,3.7-2.5,6.1-2.5s4.5.8,6.1,2.5,2.4,3.7,2.4,6.2-.8,4.6-2.4,6.2-3.6,2.5-6.1,2.5h0ZM505.4,78.8c1.8,0,3.2-.6,4.3-1.8s1.7-2.7,1.7-4.5-.6-3.2-1.7-4.5-2.5-1.8-4.3-1.8-3.2.6-4.3,1.8-1.7,2.7-1.7,4.4.6,3.3,1.7,4.5,2.6,1.8,4.3,1.8h0Z"/>
        <path class="cls-6" d="M535.1,80.9h-2.5v-9.8h-5v9.8h-2.4v-9.8h-5v9.8h-2.5v-9.8h-2.3v-2.2h2.3v-1.3c0-1.4.4-2.5,1.1-3.3.7-.8,1.7-1.2,3.1-1.2s1.8.2,2.5.5l-.6,2c-.5-.2-1.1-.4-1.6-.4-.6,0-1.1.2-1.5.6-.4.4-.5,1-.5,1.7v1.3h5v-1.3c0-1.4.4-2.5,1.1-3.3.8-.8,1.9-1.2,3.3-1.2s2.8.4,3.9,1.2l-.6,2c-1-.7-2-1-3.1-1s-1.2.2-1.6.6c-.4.4-.6,1-.6,1.7v1.3h7.5v12.1Z"/>
        <path class="cls-6" d="M543.6,81.2c-1.8,0-3.2-.6-4.4-1.8-1.2-1.2-1.8-2.7-1.8-4.5s.6-3.3,1.7-4.5,2.6-1.8,4.4-1.8,2.7.4,3.7,1.2,1.6,1.7,1.9,2.6l-2.3.7c-.2-.6-.6-1.1-1.2-1.6-.6-.4-1.3-.7-2.1-.7s-2,.4-2.7,1.2c-.7.8-1.1,1.7-1.1,2.9s.4,2.1,1.1,2.9c.7.8,1.6,1.2,2.7,1.2s1.5-.2,2.1-.6c.6-.4,1-.9,1.2-1.5l2.3.6c-.3,1-.9,1.8-1.9,2.6s-2.2,1.2-3.7,1.2h0Z"/>
        <path class="cls-6" d="M557.2,81.2c-1.9,0-3.4-.6-4.5-1.8s-1.7-2.7-1.7-4.6.6-3.3,1.7-4.5c1.1-1.2,2.6-1.8,4.4-1.8s3.3.6,4.4,1.7c1.1,1.2,1.6,2.6,1.6,4.4s0,.6,0,1h-9.6c0,1,.5,1.8,1.1,2.5.7.6,1.6.9,2.8.9s2.7-.6,3.3-1.9l2.2.7c-.4.9-1.1,1.8-2.1,2.4s-2.2,1-3.6,1h0ZM560.6,74c0-1-.4-1.7-1.1-2.4s-1.5-.9-2.5-.9-1.9.3-2.5.9-1,1.4-1.1,2.3h7.2Z"/>
      </g>
    </g>
  </g>
</svg>