<?xml version="1.0" encoding="UTF-8"?>
<svg id="Layer_2" data-name="Layer 2" xmlns="http://www.w3.org/2000/svg" xmlns:xlink="http://www.w3.org/1999/xlink" viewBox="0 0 655.3 91.5">
  <defs>
    <style>
      .cls-1 {
        fill: #d1451e;
      }

      .cls-1, .cls-2, .cls-3, .cls-4, .cls-5, .cls-6, .cls-7, .cls-8, .cls-9, .cls-10, .cls-11, .cls-12, .cls-13, .cls-14, .cls-15, .cls-16, .cls-17, .cls-18, .cls-19, .cls-20, .cls-21, .cls-22, .cls-23, .cls-24, .cls-25, .cls-26, .cls-27, .cls-28, .cls-29, .cls-30, .cls-31, .cls-32, .cls-33, .cls-34 {
        stroke-width: 0px;
      }

      .cls-2 {
        fill: url(#linear-gradient);
      }

      .cls-3 {
        fill: url(#linear-gradient-29);
      }

      .cls-4 {
        fill: url(#linear-gradient-28);
      }

      .cls-5 {
        fill: url(#linear-gradient-25);
      }

      .cls-6 {
        fill: url(#linear-gradient-11);
      }

      .cls-7 {
        fill: url(#linear-gradient-12);
      }

      .cls-8 {
        fill: url(#linear-gradient-13);
      }

      .cls-9 {
        fill: url(#linear-gradient-10);
      }

      .cls-10 {
        fill: url(#linear-gradient-17);
      }

      .cls-11 {
        fill: url(#linear-gradient-16);
      }

      .cls-12 {
        fill: url(#linear-gradient-19);
      }

      .cls-13 {
        fill: url(#linear-gradient-15);
      }

      .cls-14 {
        fill: url(#linear-gradient-23);
      }

      .cls-15 {
        fill: url(#linear-gradient-21);
      }

      .cls-16 {
        fill: url(#linear-gradient-18);
      }

      .cls-17 {
        fill: url(#linear-gradient-14);
      }

      .cls-18 {
        fill: url(#linear-gradient-22);
      }

      .cls-19 {
        fill: url(#linear-gradient-20);
      }

      .cls-20 {
        fill: url(#linear-gradient-27);
      }

      .cls-21 {
        fill: url(#linear-gradient-24);
      }

      .cls-22 {
        fill: url(#linear-gradient-26);
      }

      .cls-23 {
        fill: #d74a2a;
      }

      .cls-24 {
        fill: #f6000c;
      }

      .cls-25 {
        fill: #3b3b3c;
      }

      .cls-26 {
        fill: url(#linear-gradient-4);
      }

      .cls-27 {
        fill: url(#linear-gradient-2);
      }

      .cls-28 {
        fill: url(#linear-gradient-3);
      }

      .cls-29 {
        fill: url(#linear-gradient-8);
      }

      .cls-30 {
        fill: url(#linear-gradient-9);
      }

      .cls-31 {
        fill: url(#linear-gradient-7);
      }

      .cls-32 {
        fill: url(#linear-gradient-5);
      }

      .cls-33 {
        fill: url(#linear-gradient-6);
      }

      .cls-34 {
        fill: #fff;
      }
    </style>
    <linearGradient id="linear-gradient" x1="478.3" y1="31.4" x2="424.7" y2="42.5" gradientUnits="userSpaceOnUse">
      <stop offset="0" stop-color="#0084cb"/>
      <stop offset="1" stop-color="#04355e"/>
    </linearGradient>
    <linearGradient id="linear-gradient-2" x1="484.3" y1="30.9" x2="422.1" y2="43.8" xlink:href="#linear-gradient"/>
    <linearGradient id="linear-gradient-3" x1="482" y1="21.7" x2="419.8" y2="34.6" xlink:href="#linear-gradient"/>
    <linearGradient id="linear-gradient-4" x1="485.4" y1="28.6" x2="418.8" y2="42.5" xlink:href="#linear-gradient"/>
    <linearGradient id="linear-gradient-5" x1="482.6" y1="18.7" x2="418.7" y2="31.9" xlink:href="#linear-gradient"/>
    <linearGradient id="linear-gradient-6" x1="484.2" y1="23.1" x2="417.7" y2="36.9" xlink:href="#linear-gradient"/>
    <linearGradient id="linear-gradient-7" x1="481.1" y1="17.1" x2="418.4" y2="30.1" xlink:href="#linear-gradient"/>
    <linearGradient id="linear-gradient-8" x1="485.2" y1="27.2" x2="418.7" y2="41" xlink:href="#linear-gradient"/>
    <linearGradient id="linear-gradient-9" x1="481.7" y1="12.8" x2="417.1" y2="26.2" xlink:href="#linear-gradient"/>
    <linearGradient id="linear-gradient-10" x1="497.4" y1="45.1" x2="447.9" y2="55.4" xlink:href="#linear-gradient"/>
    <linearGradient id="linear-gradient-11" x1="484.6" y1="24.9" x2="418" y2="38.7" xlink:href="#linear-gradient"/>
    <linearGradient id="linear-gradient-12" x1="482.8" y1="16.3" x2="416.2" y2="30.1" xlink:href="#linear-gradient"/>
    <linearGradient id="linear-gradient-13" x1="480.9" y1="6.9" x2="414.3" y2="20.7" xlink:href="#linear-gradient"/>
    <linearGradient id="linear-gradient-14" x1="481.8" y1="11.4" x2="415.2" y2="25.3" xlink:href="#linear-gradient"/>
    <linearGradient id="linear-gradient-15" x1="480.4" y1="4.7" x2="413.9" y2="18.5" xlink:href="#linear-gradient"/>
    <linearGradient id="linear-gradient-16" x1="479.3" y1="-1.1" x2="412.7" y2="12.7" xlink:href="#linear-gradient"/>
    <linearGradient id="linear-gradient-17" x1="480.7" y1="5.9" x2="414.1" y2="19.7" xlink:href="#linear-gradient"/>
    <linearGradient id="linear-gradient-18" x1="488.1" y1="41.8" x2="421.5" y2="55.6" xlink:href="#linear-gradient"/>
    <linearGradient id="linear-gradient-19" x1="486.2" y1="32.7" x2="419.6" y2="46.5" xlink:href="#linear-gradient"/>
    <linearGradient id="linear-gradient-20" x1="483.8" y1="20.9" x2="417.2" y2="34.7" xlink:href="#linear-gradient"/>
    <linearGradient id="linear-gradient-21" x1="488" y1="41.6" x2="421.4" y2="55.4" xlink:href="#linear-gradient"/>
    <linearGradient id="linear-gradient-22" x1="545" y1="52.5" x2="427.7" y2="52.5" xlink:href="#linear-gradient"/>
    <linearGradient id="linear-gradient-23" x1="545" y1="52.6" x2="427.7" y2="52.6" xlink:href="#linear-gradient"/>
    <linearGradient id="linear-gradient-24" x1="534.7" y1="52.7" x2="417.4" y2="52.7" xlink:href="#linear-gradient"/>
    <linearGradient id="linear-gradient-25" x1="534.7" y1="52.6" x2="417.4" y2="52.6" xlink:href="#linear-gradient"/>
    <linearGradient id="linear-gradient-26" x1="534.7" y1="52.5" x2="417.4" y2="52.5" xlink:href="#linear-gradient"/>
    <linearGradient id="linear-gradient-27" x1="534.7" y1="52.6" x2="417.4" y2="52.6" xlink:href="#linear-gradient"/>
    <linearGradient id="linear-gradient-28" x1="534.7" y1="52.5" x2="417.4" y2="52.5" xlink:href="#linear-gradient"/>
    <linearGradient id="linear-gradient-29" x1="534.7" y1="52.7" x2="417.4" y2="52.7" xlink:href="#linear-gradient"/>
  </defs>
  <g id="Layer_1-2" data-name="Layer 1">
    <g>
      <g>
        <g>
          <g>
            <path class="cls-2" d="M448.8,40.7l-1.3.8c-1.5-2.5-4.2-4.1-7.1-4.1s-3.8.7-5.3,1.9c-.2-.2-.5-.4-.7-.6-.2-.1-.4-.2-.6-.3.7-.6,1.4-1.2,2.3-1.6,1.3-.7,2.8-1,4.3-1,3.5,0,6.7,1.9,8.4,4.9Z"/>
            <path class="cls-27" d="M464.7,38.6c-.2-.5-.5-1-.7-1.5l-1.4.8c.3.5.5,1,.7,1.5.8,2,1.3,4.2,1.3,6.3h1.6c0-2.4-.5-4.8-1.4-7ZM454.4,37.2l4.5-6.1-.7-.5c-5.5-3.7-12.5-4-18.3-.8-1.3.7-2.4,1.5-3.4,2.5-.9.8-1.6,1.7-2.3,2.6-.2.3-.5.7-.7,1h0c-.1.2-.2.4-.3.6-.3.5-.6,1.1-.8,1.6,0,0,0,0,0,0,.2,0,.3,0,.5,0,0,0,0,0,.1,0,0,0,.1,0,.2,0,.1,0,.2,0,.3,0,.1,0,.2,0,.4.1.2,0,.4.2.6.3,0,0,0,0,0-.1.5-.6,1-1.2,1.6-1.8,2.1-1.9,4.9-3.1,7.8-3.1h0c.5,0,1.1,0,1.6,0l.2-1.6c-.6,0-1.1-.1-1.7-.1-2.6,0-5.2.8-7.3,2.2,1.1-1.2,2.5-2.3,4-3.1,5-2.8,11.1-2.6,16,.3l-4.2,5.7.4.5c1.9,2.2,2.9,5,2.9,7.9h1.6c0-.2,0-.4,0-.6-.1-2.8-1.2-5.6-2.9-7.8Z"/>
            <path class="cls-28" d="M454.2,23c-.5,0-1.1,0-1.6,0h0c-1.3.1-2.6.4-3.8.7-5.1,1.4-9.4,4.5-12.3,8.5-1.3,1.8-2.3,3.8-3.1,5.9,0,0-.2,0-.3,0,0,0-.1,0-.2,0,0,0,0,0-.1,0-.2,0-.3,0-.5,0s0,0,0,0c-.2,0-.3,0-.5,0,.5-1.6,1.2-3.1,2-4.6.3-.5.6-1,.9-1.4.8-1.2,1.7-2.3,2.7-3.4,2.9-3.1,6.6-5.4,11-6.6,1.4-.4,2.8-.6,4.2-.8.6,0,1.1,0,1.7,0v1.6Z"/>
            <path class="cls-26" d="M471.5,17.8l-7.4,5.6c6.7,2.9,11.7,8.8,13.6,15.9.6,2.1.8,4.2.8,6.3h-1.6c0-2-.3-3.9-.8-5.9-1.9-7.1-7.1-12.8-14-15.4l-1.3-.5,10.3-7.9h.4c2.7,1.1,5.2,2.4,7.5,4,.5.3.9.7,1.3,1l-1,1.2c-.4-.3-.9-.7-1.3-1-2.1-1.5-4.3-2.6-6.7-3.5Z"/>
            <path class="cls-32" d="M463.5,14.5v1.6c-.6,0-1.2,0-1.7,0-1.4,0-2.8,0-4.2.3-7.8,1.1-14.7,5.1-19.4,11.4-.3.4-.6.8-.8,1.1-1.3,1.9-2.4,4-3.2,6.1-.4,1.1-.8,2.2-1.1,3.3,0,0-.1,0-.2,0,0,0,0,0-.1,0-.2,0-.3,0-.5,0s0,0,0,0c-.2,0-.3,0-.5,0-.1,0-.2,0-.3,0,.8-3.2,2.1-6.3,3.9-9.2.5-.8,1-1.6,1.6-2.3.5-.7,1.1-1.4,1.7-2,4.9-5.5,11.5-9,18.8-10,1.5-.2,3-.3,4.5-.3.6,0,1.1,0,1.7,0Z"/>
            <path class="cls-33" d="M490.6,41.7c-.4-2.9-1.2-5.6-2.3-8.2l-.2-.5,9.1-10.7c-7.4-9.2-18.7-14.2-30.4-13.6-1.7,0-3.3.3-5,.6l-.3-1.5c1.7-.3,3.4-.5,5.2-.6,12.4-.7,24.4,4.8,32.1,14.7l.4.5-9.3,10.9c1.1,2.6,1.9,5.4,2.3,8.2l-1.5.2Z"/>
            <path class="cls-31" d="M449.7,14.1c-.5.3-.9.6-1.4.9-3.9,2.6-7.1,5.9-9.7,9.7-1.6,2.3-2.9,4.9-3.9,7.5-.5,1.2-.9,2.5-1.2,3.7h0c-.2.7-.4,1.5-.5,2.2,0,0,0,0-.1,0-.2,0-.3,0-.5,0s0,0,0,0c-.2,0-.3,0-.5,0-.1,0-.2,0-.3,0,0,0-.1,0-.2,0,1.3-6.7,4.3-12.8,8.7-17.9,2.2-2.5,4.7-4.7,7.4-6.6.5-.3.9-.6,1.4-.9l.8,1.3Z"/>
            <path class="cls-29" d="M506.9,43.6c0,.7,0,1.4,0,2.1h-1.6c0-.7,0-1.3,0-2-.3-4.9-1.5-9.6-3.5-14l-.2-.5,9.7-10.4c-4.6-6.1-10.6-10.9-17.5-13.9-.5-.2-1-.4-1.5-.6l.6-1.5c.5.2,1,.4,1.5.6h0c7.4,3.2,13.8,8.4,18.6,14.9l.4.5-9.8,10.6c2,4.4,3.2,9.2,3.5,14.1Z"/>
            <path class="cls-30" d="M465,2.6c-.5.1-1.1.3-1.6.4-9.8,3-17.9,9.2-23.5,17.3-1.9,2.7-3.4,5.6-4.7,8.7-.6,1.5-1.1,3-1.5,4.6-.3,1-.5,1.9-.7,2.9-.1.5-.2,1.1-.3,1.7-.2,0-.3,0-.5,0s0,0,0,0c-.2,0-.3,0-.5,0-.1,0-.2,0-.3,0,0,0-.1,0-.2,0,0,0,0,0-.1,0,2.8-17.2,15-31.6,31.8-36.7.5-.2,1.1-.3,1.6-.5l.4,1.5Z"/>
            <path class="cls-9" d="M521.7,45.6h-1.6c0-3-.3-5.9-.9-8.8-.1-.5-.2-1.1-.4-1.6l1.5-.4c.1.5.3,1.1.4,1.6.6,3,.9,6.1.9,9.2Z"/>
            <ellipse class="cls-6" cx="445.5" cy="33" rx="1.8" ry="1.8"/>
            <ellipse class="cls-7" cx="454.2" cy="22.2" rx="1.8" ry="1.8"/>
            <ellipse class="cls-8" cx="449.3" cy="13.4" rx="1.8" ry="1.8"/>
            <ellipse class="cls-17" cx="463.5" cy="15.3" rx="1.8" ry="1.8"/>
            <ellipse class="cls-13" cx="461.7" cy="8.6" rx="1.8" ry="1.8"/>
            <ellipse class="cls-11" cx="464.8" cy="1.8" rx="1.8" ry="1.8"/>
            <ellipse class="cls-10" cx="492.5" cy="3.5" rx="1.8" ry="1.8"/>
            <ellipse class="cls-16" cx="491.3" cy="41.1" rx="1.8" ry="1.8"/>
            <ellipse class="cls-12" cx="463.3" cy="37.5" rx="1.8" ry="1.8"/>
            <ellipse class="cls-19" cx="480" cy="21.6" rx="1.8" ry="1.8"/>
            <ellipse class="cls-15" cx="519.7" cy="35" rx="1.8" ry="1.8"/>
          </g>
          <g>
            <path class="cls-18" d="M439.2,48.8c0-.2.2-.4.4-.4h.8c.2,0,.3.1.4.2l.3.8c.4-.4,1.3-1.2,2.8-1.2s2,.5,2.7,1.3c.4-.4,1.4-1.3,2.9-1.3,2.7,0,3.6,2,3.6,4.1v4c0,.2-.2.4-.4.4h-1.7c-.2,0-.4-.2-.4-.4v-4.1c0-1.1-.5-1.8-1.6-1.8s-1.7.9-1.7.9c0,0,0,.4,0,.8v4.2c0,.2-.2.4-.4.4h-1.6c-.2,0-.4-.2-.4-.4v-4.1c0-1.1-.5-1.8-1.5-1.8s-1.5.7-1.7,1.3v4.6c0,.2-.2.4-.4.4h-1.7c-.2,0-.4-.2-.4-.4v-7.5Z"/>
            <path class="cls-14" d="M459,48.2c2.3,0,4.2,2,4.2,4.3s-1.9,4.4-4.2,4.4-4.2-2-4.2-4.4,1.9-4.3,4.2-4.3ZM459,54.7c1.1,0,2-1,2-2.1s-.9-2.1-2-2.1-2,.9-2,2.1.9,2.1,2,2.1Z"/>
            <path class="cls-21" d="M464.1,48.9c-.1-.3,0-.5.3-.5h1.8c.2,0,.3.1.4.2l1.7,3.9h0l1.8-3.9c.1-.2.3-.2.5-.2h1.6c.3,0,.4.2.3.5l-3.8,7.8c0,.1-.2.2-.4.2h-.1c-.2,0-.3-.1-.4-.2l-3.8-7.8Z"/>
            <path class="cls-5" d="M477.5,48.2c2.1,0,3.9,1.6,3.9,3.9s0,.4,0,.6c0,.2-.2.4-.4.4h-5.3c0,.8.8,1.8,2,1.8s1.2-.2,1.6-.5c.2-.1.4-.2.5,0l.8,1c.1.1.2.4,0,.5-.7.6-1.7,1.1-3.1,1.1-2.5,0-4.2-2-4.2-4.4s1.8-4.4,4.2-4.4ZM478.9,51.5c0-.8-.7-1.4-1.5-1.4s-1.5.6-1.6,1.4h3.1Z"/>
            <path class="cls-22" d="M483.1,48.8c0-.2.2-.4.4-.4h.8c.2,0,.3.1.4.2l.3.8c.4-.4,1.3-1.2,2.8-1.2s2,.5,2.7,1.3c.4-.4,1.4-1.3,2.9-1.3,2.7,0,3.6,2,3.6,4.1v4c0,.2-.2.4-.4.4h-1.7c-.2,0-.4-.2-.4-.4v-4.1c0-1.1-.5-1.8-1.6-1.8s-1.7.9-1.7.9c0,0,0,.4,0,.8v4.2c0,.2-.2.4-.4.4h-1.6c-.2,0-.4-.2-.4-.4v-4.1c0-1.1-.5-1.8-1.5-1.8s-1.5.7-1.7,1.3v4.6c0,.2-.2.4-.4.4h-1.7c-.2,0-.4-.2-.4-.4v-7.5Z"/>
            <path class="cls-20" d="M502.8,48.2c2.1,0,3.9,1.6,3.9,3.9s0,.4,0,.6c0,.2-.2.4-.4.4h-5.3c0,.8.8,1.8,2,1.8s1.2-.2,1.6-.5c.2-.1.4-.2.5,0l.8,1c.1.1.2.4,0,.5-.7.6-1.7,1.1-3.1,1.1-2.5,0-4.2-2-4.2-4.4s1.8-4.4,4.2-4.4ZM504.3,51.5c0-.8-.7-1.4-1.5-1.4s-1.5.6-1.6,1.4h3.1Z"/>
            <path class="cls-4" d="M508.4,48.8c0-.2.2-.4.4-.4h.8c.2,0,.3.1.4.2l.3.8c.3-.3,1.3-1.2,2.9-1.2,2.6,0,3.7,2,3.7,4.1v4c0,.2-.2.4-.4.4h-1.7c-.2,0-.4-.2-.4-.4v-4.1c0-1.1-.6-1.8-1.6-1.8s-1.7.7-1.9,1.3v4.6c0,.3-.1.4-.5.4h-1.5c-.2,0-.4-.2-.4-.4v-7.5Z"/>
            <path class="cls-3" d="M523.9,48.4c.2,0,.4.2.4.4v1.4c0,.2-.2.4-.4.4h-1.8v3.3c0,.6.3.7.6.7s.8-.1,1-.2c.2,0,.4,0,.5.2l.4,1.3c0,.2,0,.4-.2.5-.1,0-1.5.5-2.5.5-1.6,0-2.3-1-2.3-2.7v-3.6h-.7c-.2,0-.4-.2-.4-.4v-1.4c0-.2.2-.4.4-.4h5Z"/>
          </g>
        </g>
        <g>
          <path class="cls-24" d="M429.8,56.2c.1.3,0,.5-.4.5h-1.8c-.3,0-.5-.1-.6-.4l-4.1-9-4.1,9c0,.2-.3.4-.6.4h-1.8c-.3,0-.5-.3-.4-.5l5.3-11.5,1.1-2.5c0-.1.2-.2.4-.2h2.5c.1,0,.2,0,.3.1,0,0,.1.2.1.3,0,.9-.5,1.7-1.3,2.1v.2c.1,0,5.4,11.5,5.4,11.5Z"/>
          <rect class="cls-24" x="430.9" y="46.1" width="2.7" height="10.6" rx=".4" ry=".4"/>
          <path class="cls-24" d="M434.3,42.1c0,1.1-.9,2-2,2s-2-.9-2-2,.9-2,2-2,2,.9,2,2Z"/>
        </g>
      </g>
      <g>
        <path class="cls-25" d="M416.9,64.7h1.6v10.5h-1.6v-10.5Z"/>
        <path class="cls-25" d="M424.7,67.5c.9,0,1.7.3,2.2.9.5.6.8,1.4.8,2.4v4.4h-1.5v-4.1c0-.7-.2-1.2-.5-1.6-.3-.4-.8-.6-1.3-.6s-1.2.2-1.5.7c-.4.5-.6,1.1-.6,1.8v3.8h-1.5v-7.5h1.5v1.1c.6-.9,1.5-1.3,2.5-1.3h0Z"/>
        <path class="cls-25" d="M434.1,75c-.6.2-1.1.4-1.6.4-.8,0-1.3-.2-1.7-.7-.4-.5-.6-1.1-.6-1.9v-3.7h-1.3v-1.4h1.3v-2.5h1.5v2.5h2.3v1.4h-2.3v3.7c0,.8.3,1.2,1.1,1.2s.6,0,1-.2l.4,1.3Z"/>
        <path class="cls-25" d="M438.6,75.5c-1.2,0-2.1-.4-2.8-1.1s-1.1-1.7-1.1-2.9.4-2.1,1-2.8c.7-.8,1.6-1.1,2.7-1.1s2.1.4,2.7,1.1c.7.7,1,1.6,1,2.7s0,.4,0,.6h-6c0,.6.3,1.1.7,1.5s1,.6,1.7.6,1.7-.4,2.1-1.2l1.4.4c-.3.6-.7,1.1-1.3,1.5-.6.4-1.3.6-2.2.6h0ZM440.7,70.9c0-.6-.3-1.1-.7-1.5-.4-.4-.9-.6-1.6-.6s-1.2.2-1.6.6c-.4.4-.6.9-.7,1.5h4.5Z"/>
        <path class="cls-25" d="M445.3,68.9c.2-.5.5-.8,1-1.1s.9-.3,1.5-.2v1.5c-.8-.1-1.4,0-1.9.5-.4.4-.6,1.2-.6,2.3v3.4h-1.5v-7.5h1.5v1.2h0Z"/>
        <path class="cls-25" d="M453.3,67.5c.9,0,1.7.3,2.2.9.5.6.8,1.4.8,2.4v4.4h-1.5v-4.1c0-.7-.2-1.2-.5-1.6-.3-.4-.8-.6-1.3-.6s-1.2.2-1.5.7c-.4.5-.6,1.1-.6,1.8v3.8h-1.5v-7.5h1.5v1.1c.6-.9,1.5-1.3,2.5-1.3h0Z"/>
        <path class="cls-25" d="M461.4,75.4c-1,0-1.9-.4-2.6-1.1-.7-.8-1-1.7-1-2.8s.3-2.1,1-2.8c.7-.8,1.6-1.1,2.6-1.1s2,.4,2.6,1.3v-1.1h1.5v7.5h-1.5v-1.1c-.6.9-1.5,1.3-2.6,1.3h0ZM461.6,74c.7,0,1.3-.2,1.7-.7.5-.5.7-1.1.7-1.8s-.2-1.3-.7-1.8c-.5-.5-1-.7-1.7-.7s-1.3.2-1.7.7-.7,1.1-.7,1.8.2,1.4.7,1.8c.5.5,1,.7,1.7.7h0Z"/>
        <path class="cls-25" d="M472.1,75c-.6.2-1.1.4-1.6.4-.8,0-1.3-.2-1.7-.7-.4-.5-.6-1.1-.6-1.9v-3.7h-1.3v-1.4h1.3v-2.5h1.5v2.5h2.3v1.4h-2.3v3.7c0,.8.3,1.2,1.1,1.2s.6,0,1-.2l.4,1.3Z"/>
        <path class="cls-25" d="M473.7,66.2c-.2-.2-.3-.4-.3-.7s0-.5.3-.7c.2-.2.4-.3.7-.3s.5,0,.7.3c.2.2.3.4.3.7s0,.5-.3.7-.4.3-.7.3-.5,0-.7-.3ZM473.6,67.7h1.5v7.5h-1.5v-7.5Z"/>
        <path class="cls-25" d="M480.7,75.4c-1.1,0-2-.4-2.8-1.1-.7-.8-1.1-1.7-1.1-2.8s.4-2.1,1.1-2.8c.7-.8,1.7-1.1,2.8-1.1s2.1.4,2.8,1.1c.7.8,1.1,1.7,1.1,2.8s-.4,2.1-1.1,2.8c-.7.8-1.7,1.1-2.8,1.1h0ZM482.4,73.3c.5-.5.7-1.1.7-1.8s-.2-1.3-.7-1.8-1-.7-1.7-.7-1.3.2-1.7.7c-.5.5-.7,1.1-.7,1.8s.2,1.3.7,1.8c.4.5,1,.7,1.7.7s1.3-.2,1.7-.7Z"/>
        <path class="cls-25" d="M490.2,67.5c.9,0,1.7.3,2.2.9.5.6.8,1.4.8,2.4v4.4h-1.5v-4.1c0-.7-.2-1.2-.5-1.6-.3-.4-.8-.6-1.3-.6s-1.2.2-1.5.7c-.4.5-.6,1.1-.6,1.8v3.8h-1.5v-7.5h1.5v1.1c.6-.9,1.5-1.3,2.5-1.3h0Z"/>
        <path class="cls-25" d="M498.3,75.4c-1,0-1.9-.4-2.6-1.1-.7-.8-1-1.7-1-2.8s.3-2.1,1-2.8c.7-.8,1.6-1.1,2.6-1.1s2,.4,2.6,1.3v-1.1h1.5v7.5h-1.5v-1.1c-.6.9-1.5,1.3-2.6,1.3h0ZM498.5,74c.7,0,1.3-.2,1.7-.7.5-.5.7-1.1.7-1.8s-.2-1.3-.7-1.8c-.5-.5-1-.7-1.7-.7s-1.3.2-1.7.7-.7,1.1-.7,1.8.2,1.4.7,1.8c.5.5,1,.7,1.7.7h0Z"/>
        <path class="cls-25" d="M504.5,64.3h1.5v11h-1.5v-11Z"/>
        <path class="cls-25" d="M518.4,72.7h-4.9l-1,2.5h-1.7l4.1-10.5h2l4.1,10.5h-1.7l-1-2.5ZM517.8,71.3l-1.9-5-1.9,5h3.8Z"/>
        <path class="cls-25" d="M523.7,68.9c.2-.5.5-.8,1-1.1s.9-.3,1.5-.2v1.5c-.8-.1-1.4,0-1.9.5-.4.4-.6,1.2-.6,2.3v3.4h-1.5v-7.5h1.5v1.2h0Z"/>
        <path class="cls-25" d="M532.4,75c-.6.2-1.1.4-1.6.4-.8,0-1.3-.2-1.7-.7-.4-.5-.6-1.1-.6-1.9v-3.7h-1.3v-1.4h1.3v-2.5h1.5v2.5h2.3v1.4h-2.3v3.7c0,.8.3,1.2,1.1,1.2s.6,0,1-.2l.4,1.3Z"/>
        <path class="cls-25" d="M534,66.2c-.2-.2-.3-.4-.3-.7s0-.5.3-.7c.2-.2.4-.3.7-.3s.5,0,.7.3c.2.2.3.4.3.7s0,.5-.3.7-.4.3-.7.3-.5,0-.7-.3ZM533.9,67.7h1.5v7.5h-1.5v-7.5Z"/>
        <path class="cls-25" d="M544.5,75.2h-1.5v-6.2h-3.1v6.2h-1.5v-6.2h-1.5v-1.4h1.5v-.8c0-.9.2-1.6.7-2,.5-.5,1.2-.7,2.1-.7s1.8.2,2.5.7l-.4,1.3c-.6-.4-1.3-.6-1.9-.6s-.8.1-1,.4-.4.6-.4,1v.8h4.7v7.5Z"/>
        <path class="cls-25" d="M549.8,75.5c-1.1,0-2-.4-2.8-1.1s-1.1-1.7-1.1-2.8.4-2.1,1.1-2.8c.7-.8,1.6-1.1,2.8-1.1s1.7.2,2.3.7c.6.5,1,1,1.2,1.7l-1.4.4c-.1-.4-.3-.7-.7-1-.4-.3-.8-.4-1.3-.4s-1.3.2-1.7.7c-.4.5-.7,1.1-.7,1.8s.2,1.3.7,1.8c.4.5,1,.8,1.7.8s1-.1,1.3-.4c.4-.3.6-.6.7-1l1.4.4c-.2.6-.5,1.2-1.2,1.6s-1.4.7-2.3.7h0Z"/>
        <path class="cls-25" d="M554.9,66.2c-.2-.2-.3-.4-.3-.7s0-.5.3-.7c.2-.2.4-.3.7-.3s.5,0,.7.3c.2.2.3.4.3.7s0,.5-.3.7-.4.3-.7.3-.5,0-.7-.3ZM554.8,67.7h1.5v7.5h-1.5v-7.5Z"/>
        <path class="cls-25" d="M561.7,75.4c-1,0-1.9-.4-2.6-1.1-.7-.8-1-1.7-1-2.8s.3-2.1,1-2.8c.7-.8,1.6-1.1,2.6-1.1s2,.4,2.6,1.3v-1.1h1.5v7.5h-1.5v-1.1c-.6.9-1.5,1.3-2.6,1.3h0ZM561.9,74c.7,0,1.3-.2,1.7-.7.5-.5.7-1.1.7-1.8s-.2-1.3-.7-1.8c-.5-.5-1-.7-1.7-.7s-1.3.2-1.7.7-.7,1.1-.7,1.8.2,1.4.7,1.8c.5.5,1,.7,1.7.7h0Z"/>
        <path class="cls-25" d="M567.9,64.3h1.5v11h-1.5v-11Z"/>
        <path class="cls-25" d="M575.1,64.7h1.6v10.5h-1.6v-10.5Z"/>
        <path class="cls-25" d="M582.9,67.5c.9,0,1.7.3,2.2.9.5.6.8,1.4.8,2.4v4.4h-1.5v-4.1c0-.7-.2-1.2-.5-1.6-.3-.4-.8-.6-1.3-.6s-1.2.2-1.5.7c-.4.5-.6,1.1-.6,1.8v3.8h-1.5v-7.5h1.5v1.1c.6-.9,1.5-1.3,2.5-1.3h0Z"/>
        <path class="cls-25" d="M592.3,75c-.6.2-1.1.4-1.6.4-.8,0-1.3-.2-1.7-.7-.4-.5-.6-1.1-.6-1.9v-3.7h-1.3v-1.4h1.3v-2.5h1.5v2.5h2.3v1.4h-2.3v3.7c0,.8.3,1.2,1.1,1.2s.6,0,1-.2l.4,1.3Z"/>
        <path class="cls-25" d="M596.8,75.5c-1.2,0-2.1-.4-2.8-1.1s-1.1-1.7-1.1-2.9.4-2.1,1-2.8c.7-.8,1.6-1.1,2.7-1.1s2.1.4,2.7,1.1c.7.7,1,1.6,1,2.7s0,.4,0,.6h-6c0,.6.3,1.1.7,1.5s1,.6,1.7.6,1.7-.4,2.1-1.2l1.4.4c-.3.6-.7,1.1-1.3,1.5-.6.4-1.3.6-2.2.6h0ZM598.9,70.9c0-.6-.3-1.1-.7-1.5-.4-.4-.9-.6-1.6-.6s-1.2.2-1.6.6c-.4.4-.6.9-.7,1.5h4.5Z"/>
        <path class="cls-25" d="M602,64.3h1.5v11h-1.5v-11Z"/>
        <path class="cls-25" d="M605.6,64.3h1.5v11h-1.5v-11Z"/>
        <path class="cls-25" d="M609.3,66.2c-.2-.2-.3-.4-.3-.7s0-.5.3-.7c.2-.2.4-.3.7-.3s.5,0,.7.3c.2.2.3.4.3.7s0,.5-.3.7-.4.3-.7.3-.5,0-.7-.3ZM609.2,67.7h1.5v7.5h-1.5v-7.5Z"/>
        <path class="cls-25" d="M620.1,67.7v7.3c0,1.1-.3,1.9-1,2.6s-1.6,1-2.7,1c-1.6,0-2.8-.7-3.5-2l1.3-.5c.5.8,1.2,1.2,2.2,1.1.7,0,1.2-.2,1.6-.6.4-.4.6-1,.6-1.6v-1.1c-.6.8-1.5,1.3-2.6,1.3s-1.9-.4-2.6-1.1c-.7-.7-1-1.6-1-2.7s.3-2,1-2.8,1.6-1.1,2.6-1.1,2,.4,2.6,1.3v-1.1h1.5ZM616.2,73.8c.7,0,1.2-.2,1.7-.7.5-.5.7-1,.7-1.7s-.2-1.3-.7-1.7c-.5-.5-1-.7-1.7-.7s-1.3.2-1.7.7c-.4.4-.7,1-.7,1.7s.2,1.3.7,1.7c.4.5,1,.7,1.7.7h0Z"/>
        <path class="cls-25" d="M625.7,75.5c-1.2,0-2.1-.4-2.8-1.1s-1.1-1.7-1.1-2.9.4-2.1,1-2.8c.7-.8,1.6-1.1,2.7-1.1s2.1.4,2.7,1.1c.7.7,1,1.6,1,2.7s0,.4,0,.6h-6c0,.6.3,1.1.7,1.5s1,.6,1.7.6,1.7-.4,2.1-1.2l1.4.4c-.3.6-.7,1.1-1.3,1.5-.6.4-1.3.6-2.2.6h0ZM627.8,70.9c0-.6-.3-1.1-.7-1.5-.4-.4-.9-.6-1.6-.6s-1.2.2-1.6.6c-.4.4-.6.9-.7,1.5h4.5Z"/>
        <path class="cls-25" d="M634.9,67.5c.9,0,1.7.3,2.2.9.5.6.8,1.4.8,2.4v4.4h-1.5v-4.1c0-.7-.1-1.2-.5-1.6-.3-.4-.8-.6-1.3-.6s-1.2.2-1.5.7c-.4.5-.6,1.1-.6,1.8v3.8h-1.5v-7.5h1.5v1.1c.6-.9,1.5-1.3,2.5-1.3h0Z"/>
        <path class="cls-25" d="M643.2,75.5c-1.1,0-2-.4-2.8-1.1s-1.1-1.7-1.1-2.8.4-2.1,1.1-2.8c.7-.8,1.6-1.1,2.8-1.1s1.7.2,2.3.7c.6.5,1,1,1.2,1.7l-1.4.4c-.1-.4-.3-.7-.7-1-.4-.3-.8-.4-1.3-.4s-1.3.2-1.7.7c-.4.5-.7,1.1-.7,1.8s.2,1.3.7,1.8c.4.5,1,.8,1.7.8s1-.1,1.3-.4c.4-.3.6-.6.7-1l1.4.4c-.2.6-.5,1.2-1.2,1.6s-1.4.7-2.3.7h0Z"/>
        <path class="cls-25" d="M651.7,75.5c-1.2,0-2.1-.4-2.8-1.1s-1.1-1.7-1.1-2.9.4-2.1,1-2.8c.7-.8,1.6-1.1,2.7-1.1s2.1.4,2.7,1.1c.7.7,1,1.6,1,2.7s0,.4,0,.6h-6c0,.6.3,1.1.7,1.5s1,.6,1.7.6,1.7-.4,2.1-1.2l1.4.4c-.3.6-.7,1.1-1.3,1.5-.6.4-1.3.6-2.2.6h0ZM653.8,70.9c0-.6-.3-1.1-.7-1.5s-.9-.6-1.6-.6-1.2.2-1.6.6c-.4.4-.7.9-.7,1.5h4.5Z"/>
        <path class="cls-25" d="M421.8,91.5c-1.5,0-2.8-.5-3.8-1.6s-1.5-2.3-1.5-3.9.5-2.8,1.5-3.9c1-1,2.3-1.6,3.8-1.6s2.3.3,3.1,1c.9.6,1.4,1.4,1.7,2.3l-1.5.4c-.2-.6-.6-1.1-1.2-1.5s-1.3-.6-2.1-.6-2,.4-2.7,1.1c-.7.8-1,1.7-1,2.8s.3,2,1,2.8c.7.8,1.6,1.1,2.7,1.1s1.5-.2,2.1-.6,1-.9,1.2-1.5l1.5.4c-.3.9-.9,1.7-1.7,2.3-.9.6-1.9.9-3.1.9h0Z"/>
        <path class="cls-25" d="M431.7,91.5c-1.2,0-2.1-.4-2.8-1.1s-1.1-1.7-1.1-2.9.4-2.1,1-2.8c.7-.8,1.6-1.1,2.7-1.1s2.1.4,2.7,1.1c.7.7,1,1.6,1,2.7s0,.4,0,.6h-6c0,.6.3,1.1.7,1.5s1,.6,1.7.6,1.7-.4,2.1-1.2l1.4.4c-.3.6-.7,1.1-1.3,1.5-.6.4-1.3.6-2.2.6h0ZM433.8,86.9c0-.6-.3-1.1-.7-1.5s-.9-.6-1.6-.6-1.2.2-1.6.6c-.4.4-.7.9-.7,1.5h4.5Z"/>
        <path class="cls-25" d="M440.9,83.5c.9,0,1.7.3,2.2.9.5.6.8,1.4.8,2.4v4.4h-1.5v-4.1c0-.7-.2-1.2-.5-1.6-.3-.4-.8-.6-1.3-.6s-1.2.2-1.5.7c-.4.5-.6,1.1-.6,1.8v3.8h-1.5v-7.5h1.5v1.1c.6-.9,1.5-1.3,2.5-1.3h0Z"/>
        <path class="cls-25" d="M450.3,91c-.6.2-1.1.4-1.6.4-.8,0-1.3-.2-1.7-.7-.4-.5-.6-1.1-.6-1.9v-3.7h-1.3v-1.4h1.3v-2.5h1.5v2.5h2.3v1.4h-2.3v3.7c0,.8.3,1.2,1.1,1.2s.6,0,1-.2l.4,1.3Z"/>
        <path class="cls-25" d="M454.9,91.5c-1.2,0-2.1-.4-2.8-1.1s-1.1-1.7-1.1-2.9.4-2.1,1-2.8c.7-.8,1.6-1.1,2.7-1.1s2.1.4,2.7,1.1c.7.7,1,1.6,1,2.7s0,.4,0,.6h-6c0,.6.3,1.1.7,1.5s1,.6,1.7.6,1.7-.4,2.1-1.2l1.4.4c-.3.6-.7,1.1-1.3,1.5-.6.4-1.3.6-2.2.6h0ZM457,86.9c0-.6-.3-1.1-.7-1.5-.4-.4-.9-.6-1.6-.6s-1.2.2-1.6.6c-.4.4-.6.9-.7,1.5h4.5Z"/>
        <path class="cls-25" d="M461.6,84.9c.2-.5.5-.8,1-1.1s.9-.3,1.5-.2v1.5c-.8-.1-1.4,0-1.9.5-.4.4-.6,1.2-.6,2.3v3.4h-1.5v-7.5h1.5v1.2h0Z"/>
        <path class="cls-25" d="M472.6,91.4c-1.1,0-2-.4-2.8-1.1-.7-.8-1.1-1.7-1.1-2.8s.4-2.1,1.1-2.8c.7-.8,1.7-1.1,2.8-1.1s2.1.4,2.8,1.1c.7.8,1.1,1.7,1.1,2.8s-.4,2.1-1.1,2.8c-.7.8-1.7,1.1-2.8,1.1h0ZM474.3,89.3c.5-.5.7-1.1.7-1.8s-.2-1.3-.7-1.8-1-.7-1.7-.7-1.3.2-1.7.7c-.5.5-.7,1.1-.7,1.8s.2,1.3.7,1.8c.4.5,1,.7,1.7.7s1.3-.2,1.7-.7Z"/>
        <path class="cls-25" d="M480.2,83.7h2.4v1.4h-2.4v6.2h-1.5v-6.2h-1.5v-1.4h1.5v-.8c0-.9.2-1.6.6-2,.4-.5,1-.7,1.8-.7s1.1.1,1.6.3l-.4,1.3c-.3-.2-.7-.2-1-.2-.7,0-1.1.5-1.1,1.4v.8Z"/>
        <path class="cls-25" d="M497.7,80.7v10.5h-1.6v-7.7l-3.5,5-3.5-5v7.7h-1.6v-10.5h1.5l3.6,5.3,3.6-5.3h1.5Z"/>
        <path class="cls-25" d="M503.2,91.4c-1.1,0-2-.4-2.8-1.1-.7-.8-1.1-1.7-1.1-2.8s.4-2.1,1.1-2.8c.7-.8,1.7-1.1,2.8-1.1s2.1.4,2.8,1.1c.7.8,1.1,1.7,1.1,2.8s-.4,2.1-1.1,2.8c-.7.8-1.7,1.1-2.8,1.1h0ZM504.9,89.3c.5-.5.7-1.1.7-1.8s-.2-1.3-.7-1.8-1-.7-1.7-.7-1.3.2-1.7.7c-.5.5-.7,1.1-.7,1.8s.2,1.3.7,1.8c.4.5,1,.7,1.7.7s1.3-.2,1.7-.7Z"/>
        <path class="cls-25" d="M510.2,84.9c.2-.5.5-.8,1-1.1s.9-.3,1.5-.2v1.5c-.8-.1-1.4,0-1.9.5-.4.4-.6,1.2-.6,2.3v3.4h-1.5v-7.5h1.5v1.2h0Z"/>
        <path class="cls-25" d="M517.1,91.4c-1.1,0-2-.4-2.8-1.1-.7-.8-1.1-1.7-1.1-2.8s.4-2.1,1.1-2.8c.7-.8,1.7-1.1,2.8-1.1s2.1.4,2.8,1.1c.7.8,1.1,1.7,1.1,2.8s-.4,2.1-1.1,2.8c-.7.8-1.7,1.1-2.8,1.1h0ZM518.8,89.3c.5-.5.7-1.1.7-1.8s-.2-1.3-.7-1.8-1-.7-1.7-.7-1.3.2-1.7.7c-.5.5-.7,1.1-.7,1.8s.2,1.3.7,1.8c.4.5,1,.7,1.7.7s1.3-.2,1.7-.7Z"/>
        <path class="cls-25" d="M526,91.5c-1.1,0-2-.4-2.8-1.1s-1.1-1.7-1.1-2.8.4-2.1,1.1-2.8c.7-.8,1.6-1.1,2.8-1.1s1.7.2,2.3.7c.6.5,1,1,1.2,1.7l-1.4.4c-.1-.4-.3-.7-.7-1-.4-.3-.8-.4-1.3-.4s-1.3.2-1.7.7c-.4.5-.7,1.1-.7,1.8s.2,1.3.7,1.8c.4.5,1,.8,1.7.8s1-.1,1.3-.4c.4-.3.6-.6.7-1l1.4.4c-.2.6-.5,1.2-1.2,1.6-.6.5-1.4.7-2.3.7h0Z"/>
        <path class="cls-25" d="M534.4,91.5c-1.1,0-2-.4-2.8-1.1s-1.1-1.7-1.1-2.8.4-2.1,1.1-2.8c.7-.8,1.6-1.1,2.8-1.1s1.7.2,2.3.7c.6.5,1,1,1.2,1.7l-1.4.4c-.1-.4-.3-.7-.7-1-.4-.3-.8-.4-1.3-.4s-1.3.2-1.7.7c-.4.5-.7,1.1-.7,1.8s.2,1.3.7,1.8c.4.5,1,.8,1.7.8s1-.1,1.3-.4c.4-.3.6-.6.7-1l1.4.4c-.2.6-.5,1.2-1.2,1.6s-1.4.7-2.3.7h0Z"/>
        <path class="cls-25" d="M542.9,91.4c-1.1,0-2-.4-2.8-1.1-.7-.8-1.1-1.7-1.1-2.8s.4-2.1,1.1-2.8c.7-.8,1.7-1.1,2.8-1.1s2.1.4,2.8,1.1c.7.8,1.1,1.7,1.1,2.8s-.4,2.1-1.1,2.8c-.7.8-1.7,1.1-2.8,1.1h0ZM544.7,89.3c.5-.5.7-1.1.7-1.8s-.2-1.3-.7-1.8-1-.7-1.7-.7-1.3.2-1.7.7c-.5.5-.7,1.1-.7,1.8s.2,1.3.7,1.8c.4.5,1,.7,1.7.7s1.3-.2,1.7-.7Z"/>
      </g>
      <g>
        <g>
          <rect class="cls-23" y="11.3" width="80.1" height="80.1"/>
          <path class="cls-34" d="M61.4,27.5v28.1c0,6.3-1.9,11.4-5.6,15.2-3.7,3.8-9,5.7-15.7,5.7s-12-1.9-15.8-5.7c-3.7-3.8-5.6-8.9-5.6-15.2v-28.1h11.5v27.9c0,3.2.8,5.8,2.5,7.7,1.7,2,4.1,3,7.3,3s5.6-1,7.3-3c1.7-2,2.5-4.5,2.5-7.7v-27.9h11.5Z"/>
          <rect class="cls-23" x="88.2" y="11.3" width="80.1" height="80.1"/>
          <rect class="cls-23" x="176.4" y="11.3" width="80.1" height="80.1"/>
          <rect class="cls-23" x="264.5" y="11.3" width="80.1" height="80.1"/>
          <polygon class="cls-34" points="153.8 27.3 153.8 75.4 142.4 75.4 142.4 47.3 128.3 66.6 114.2 47.3 114.2 75.4 102.8 75.4 102.8 27.3 113.6 27.3 128.3 48.7 142.9 27.3 153.8 27.3"/>
          <path class="cls-34" d="M221.8,64.4c1.3-1.3,2-3,2-5.1s-.7-3.7-2-5c-1.3-1.4-3.1-2-5.4-2s-4,.7-5.3,2c-1.4,1.3-2.1,3-2.1,5.1s.7,3.8,2,5.1c1.4,1.3,3.2,2,5.4,2s4-.7,5.4-2M230.4,47.6c3.2,3.1,4.8,7,4.8,11.7s-1.8,9.1-5.3,12.4c-3.6,3.3-8,4.9-13.4,4.9s-9.8-1.6-13.4-4.9c-3.6-3.3-5.4-7.4-5.4-12.4s1.1-6.6,3.4-10.2l13.6-21.6h12.8l-9.4,14.9c5,.4,9.1,2.1,12.2,5.2"/>
          <path class="cls-34" d="M311.8,49.7c1.3-1.4,1.9-3.1,1.9-4.9s-.6-3.5-1.8-4.9c-1.2-1.4-2.8-2.1-4.6-2.1h-11.6v14.1h11.1c2,0,3.7-.7,5-2.1M320,32.6c3.2,3.5,4.8,7.5,4.8,12s-1.6,8.6-4.8,12.1c-3.2,3.5-7.5,5.3-12.9,5.3h-11.4v13.4h-11.3V27.3h23.1c5.1,0,9.3,1.8,12.5,5.3"/>
        </g>
        <rect class="cls-1" x="384.9" y="11.3" width="1" height="80.2"/>
      </g>
    </g>
  </g>
</svg>