<?xml version="1.0" encoding="UTF-8"?>
<svg id="Layer_2" data-name="Layer 2" xmlns="http://www.w3.org/2000/svg" viewBox="0 0 730.7 80.2">
  <defs>
    <style>
      .cls-1 {
        fill: #d74a2a;
      }

      .cls-1, .cls-2 {
        stroke-width: 0px;
      }

      .cls-2 {
        fill: #000;
      }
    </style>
  </defs>
  <g id="Layer_1-2" data-name="Layer 1">
    <g>
      <g>
        <path class="cls-1" d="M0,80.1h80.1V0H0v80.1ZM18.7,16.2h11.5v27.9c0,3.2.8,5.8,2.5,7.7,1.7,2,4.1,3,7.3,3s5.6-1,7.3-3c1.7-2,2.5-4.5,2.5-7.7v-27.9h11.5v28.1c0,6.3-1.9,11.4-5.6,15.2-3.7,3.8-9,5.7-15.7,5.7s-12-1.9-15.8-5.7c-3.7-3.8-5.6-8.9-5.6-15.2v-28.1Z"/>
        <path class="cls-1" d="M88.2,80.1h80.1V0h-80.1v80.1ZM102.8,16h10.8l14.7,21.4,14.6-21.4h10.9v48.1h-11.4v-28.2l-14.1,19.3-14.1-19.3v28.2h-11.4V16Z"/>
        <path class="cls-1" d="M176.4,80.1h80.1V0h-80.1v80.1ZM201.1,37.8l13.6-21.6h12.8l-9.4,14.9c5,.4,9.1,2.1,12.2,5.2,3.2,3.1,4.8,7,4.8,11.7s-1.8,9.1-5.3,12.4c-3.6,3.3-8,4.9-13.4,4.9s-9.8-1.6-13.4-4.9c-3.6-3.3-5.4-7.4-5.4-12.4s1.1-6.6,3.4-10.2Z"/>
        <path class="cls-1" d="M216.4,55.1c2.2,0,4-.7,5.4-2,1.3-1.3,2-3,2-5.1s-.7-3.7-2-5c-1.3-1.4-3.1-2-5.4-2s-4,.7-5.3,2c-1.4,1.3-2.1,3-2.1,5.1s.7,3.8,2,5.1c1.4,1.3,3.2,2,5.4,2Z"/>
        <path class="cls-1" d="M311.8,38.4c1.3-1.4,1.9-3.1,1.9-4.9s-.6-3.5-1.8-4.9c-1.2-1.4-2.8-2.1-4.6-2.1h-11.6v14.1h11.1c2,0,3.7-.7,5-2.1Z"/>
        <path class="cls-1" d="M264.5,80.1h80.1V0h-80.1v80.1ZM284.4,16h23.1c5.1,0,9.3,1.8,12.5,5.3,3.2,3.5,4.8,7.5,4.8,12s-1.6,8.6-4.8,12.1c-3.2,3.5-7.5,5.3-12.9,5.3h-11.4v13.4h-11.3V16Z"/>
        <rect class="cls-1" x="384.9" width="1" height="80.2"/>
      </g>
      <g>
        <polygon class="cls-2" points="465.6 9.4 465.6 .6 455.5 .6 440 .6 431.3 .6 431.3 9.4 431.3 21.7 440 21.7 440 9.4 455.5 9.4 455.5 70.9 443.5 70.9 443.5 79.6 455.5 79.6 465.6 79.6 477.6 79.6 477.6 70.9 465.6 70.9 465.6 9.4"/>
        <polygon class="cls-2" points="517 .6 517 9.3 554.3 9.3 554.3 34.6 520 34.6 520 43.3 554.3 43.3 554.3 70.9 517 70.9 517 79.6 554.3 79.6 564.3 79.6 564.3 70.9 564.3 43.3 564.3 34.6 564.3 9.3 564.3 .6 554.3 .6 517 .6"/>
        <polygon class="cls-2" points="599.9 .6 599.9 9.3 637.2 9.3 637.2 34.6 602.9 34.6 602.9 43.3 637.2 43.3 637.2 70.9 599.9 70.9 599.9 79.6 637.2 79.6 647.2 79.6 647.2 70.9 647.2 43.3 647.2 34.6 647.2 9.3 647.2 .6 637.2 .6 599.9 .6"/>
        <polygon class="cls-2" points="720.7 .6 680.5 .6 680.5 .7 680.5 9.3 680.5 28.6 689.2 28.6 689.2 9.3 720.7 9.3 720.7 79.6 730.7 79.6 730.7 9.3 730.7 .6 720.7 .6"/>
      </g>
    </g>
  </g>
</svg>