<?xml version="1.0" encoding="UTF-8"?>
<svg id="Layer_2" data-name="Layer 2" xmlns="http://www.w3.org/2000/svg" viewBox="0 0 617.9 83.7">
  <defs>
    <style>
      .cls-1 {
        fill: #d1451e;
      }

      .cls-1, .cls-2, .cls-3, .cls-4, .cls-5, .cls-6, .cls-7 {
        stroke-width: 0px;
      }

      .cls-2 {
        fill: #f37714;
      }

      .cls-3 {
        fill: #d74a2a;
      }

      .cls-4 {
        fill: red;
      }

      .cls-5 {
        fill: #008100;
      }

      .cls-6 {
        fill: #fff;
      }

      .cls-7 {
        fill: #0042a4;
      }
    </style>
  </defs>
  <g id="Layer_1-2" data-name="Layer 1">
    <g>
      <g>
        <g>
          <rect class="cls-3" y="0" width="80.1" height="80.1"/>
          <path class="cls-6" d="M61.4,16.2v28.1c0,6.3-1.9,11.4-5.6,15.2-3.7,3.8-9,5.7-15.7,5.7s-12-1.9-15.8-5.7c-3.7-3.8-5.6-8.9-5.6-15.2v-28.1h11.5v27.9c0,3.2.8,5.8,2.5,7.7,1.7,2,4.1,3,7.3,3s5.6-1,7.3-3c1.7-2,2.5-4.5,2.5-7.7v-27.9h11.5Z"/>
          <rect class="cls-3" x="88.2" y="0" width="80.1" height="80.1"/>
          <rect class="cls-3" x="176.4" y="0" width="80.1" height="80.1"/>
          <rect class="cls-3" x="264.5" y="0" width="80.1" height="80.1"/>
          <polygon class="cls-6" points="153.8 16 153.8 64.1 142.4 64.1 142.4 36 128.3 55.3 114.2 36 114.2 64.1 102.8 64.1 102.8 16 113.6 16 128.3 37.4 142.9 16 153.8 16"/>
          <path class="cls-6" d="M221.8,53.1c1.3-1.3,2-3,2-5.1s-.7-3.7-2-5c-1.3-1.4-3.1-2-5.4-2s-4,.7-5.3,2c-1.4,1.3-2.1,3-2.1,5.1s.7,3.8,2,5.1c1.4,1.3,3.2,2,5.4,2s4-.7,5.4-2M230.4,36.3c3.2,3.1,4.8,7,4.8,11.7s-1.8,9.1-5.3,12.4c-3.6,3.3-8,4.9-13.4,4.9s-9.8-1.6-13.4-4.9c-3.6-3.3-5.4-7.4-5.4-12.4s1.1-6.6,3.4-10.2l13.6-21.6h12.8l-9.4,14.9c5,.4,9.1,2.1,12.2,5.2"/>
          <path class="cls-6" d="M311.8,38.4c1.3-1.4,1.9-3.1,1.9-4.9s-.6-3.5-1.8-4.9c-1.2-1.4-2.8-2.1-4.6-2.1h-11.6v14.1h11.1c2,0,3.7-.7,5-2.1M320,21.3c3.2,3.5,4.8,7.5,4.8,12s-1.6,8.6-4.8,12.1c-3.2,3.5-7.5,5.3-12.9,5.3h-11.4v13.4h-11.3V16h23.1c5.1,0,9.3,1.8,12.5,5.3"/>
        </g>
        <rect class="cls-1" x="384.9" width="1" height="80.2"/>
      </g>
      <g>
        <path class="cls-7" d="M562.2,25.3c1.5.8,2.7,1.8,3.4,2.8.7,1,1.1,2.2,1.1,3.5,0,3.2-2.4,5.8-7.1,7.8-4.7,2-10.6,3.1-17.6,3.1s-6.5-.2-9.7-.7-5.7-1-7.9-1.7-.6,0-.8.2l-1.6,1.3c-.2.1-.4.2-.6.2h-2.9c-.5,0-.9-.4-.9-.9l-.6-10.4c0-.5.4-1,.9-1h2.6c.3,0,.6.2.8.5.8,1.3,1.7,2.5,2.7,3.6,1.1,1.2,2.7,2.4,4.5,3.4,1.8,1,3.8,1.8,6.2,2.4,2.4.6,5.1.9,8.3.9s4.4-.2,6.2-.5c1.8-.3,3.2-.7,4.3-1.3,1.1-.6,1.9-1.2,2.4-2,.5-.7.8-1.6.8-2.6,0-1.4-.8-2.8-2.5-4-1.6-1.2-4.1-2.2-7.3-2.8-2.2-.4-4.8-.9-7.6-1.4-2.9-.5-5.3-1-7.4-1.5-4.1-.9-7.3-2.1-9.5-3.6-2.3-1.5-3.4-3.4-3.4-5.7s.6-2.6,1.7-3.8,2.7-2.2,4.8-3.1c2-.9,4.3-1.6,7-2,2.7-.5,5.5-.7,8.4-.7s6.3.3,9,.8c2.5.5,4.7,1,6.8,1.6s.6,0,.8-.2l1.5-1.2c.2-.1.4-.2.6-.2h2.9c.5,0,.9.4.9.9l.3,10c0,.5-.4,1-.9,1h-2.7c-.3,0-.6-.2-.8-.5-.7-1.2-1.4-2.3-2.3-3.4-.9-1.2-2.2-2.4-3.7-3.4-1.5-1-3.3-1.7-5.4-2.3-2.1-.6-4.7-.9-7.8-.9s-6,.5-8.3,1.5c-2.3,1-3.4,2.3-3.4,3.7s.7,2.8,2.2,3.8c1.5,1,3.6,1.8,6.4,2.5,2.5.6,4.9,1.1,7.3,1.5,2.4.4,4.7.9,7,1.4,2,.4,4,.9,5.9,1.5,1.9.6,3.5,1.2,4.9,1.9Z"/>
        <path class="cls-7" d="M617.9,1.5c0,.6-.4,1.1-1,1.2s-1.3.2-2.1.4c-1.4.3-2.4.7-3,1-.9.5-1.5,1.6-1.8,3.1-.3,1.5-.5,3.4-.5,5.8v32.8c0,.7-.6,1.3-1.3,1.3h-1c-.6,0-1.1-.3-1.5-.7l-27.4-31.9v18.8c0,2.6.2,4.7.6,6.1.4,1.4.9,2.4,1.7,3,.6.5,1.7.9,3.4,1.3,1,.2,1.8.4,2.5.5s1,.6,1,1.2h0c0,.7-.5,1.2-1.2,1.2h-18.7c-.7,0-1.2-.5-1.2-1.2h0c0-.6.4-1.1,1-1.2s1.4-.3,2.3-.5c1.5-.4,2.5-.7,2.9-1,.8-.6,1.4-1.5,1.7-2.7.3-1.2.5-3.3.5-6.3V10.5c0-1-.2-2-.6-3-.4-1-.9-1.7-1.6-2.3-.9-.7-2-1.3-3.5-1.8-1-.3-1.8-.6-2.6-.7s-1-.6-1-1.2h0c0-.7.5-1.2,1.2-1.2h13.5l25.8,30V13.4c0-2.7-.2-4.7-.6-6.1-.4-1.4-.9-2.4-1.7-2.8-.7-.4-1.8-.8-3.3-1.2-1-.2-1.8-.4-2.5-.5s-1-.6-1-1.2h0c0-.7.5-1.2,1.2-1.2h18.5c.7,0,1.2.5,1.2,1.2h0Z"/>
        <path class="cls-7" d="M514.9,46.6h-21.9c-.6,0-1.2-.5-1.2-1.2h0c0-.6.5-1.1,1.1-1.2s1.3,0,2.1-.2c1.3-.1,2.2-.3,2.7-.5.7-.4,1.3-.9,1.6-1.4.3-.5.5-1.2.5-2V9.9l-15.5,36.7c-.1.2-.3.4-.6.4h-1.7c-.3,0-.5-.1-.6-.4l-16.9-36.5v22.5c0,2.6.2,5.4.6,6.8.4,1.4.9,2.4,1.7,3,.5.4,1.6.9,3.3,1.3,1,.2,1.7.4,2.3.5s.9.6.9,1.1h0c0,.8-.5,1.3-1.2,1.3h-18.4c-.6,0-1.2-.5-1.2-1.2h0c0-.7.5-1.2,1-1.2s1.6-.2,2.4-.4c1.2-.2,2.1-.6,2.8-1.1.8-.6,1.4-1.5,1.7-2.8.3-1.2.5-4.1.5-7V9.7c0-1.3-.2-2.5-.5-3.3-.4-.9-.9-1.6-1.6-2.1-.7-.6-1.7-1-2.7-1.3-.7-.2-1.5-.3-2.2-.4s-1-.6-1-1.1h0c0-.7.5-1.2,1.2-1.2h15.6c.4,0,.8.2,1,.6l15.5,31,11.4-26c.5-1.1.8-2.1,1.2-3.3.2-.6.3-1,.4-1.4s.6-.9,1.1-.9h14.6c.6,0,1.2.5,1.2,1.2h0c0,.6-.4,1.1-1,1.2s-1,.1-1.6.2c-1,.2-1.8.3-2.3.5-.8.3-1.4.7-1.7,1.3-.3.6-.4,1.3-.4,2v33.6c0,.7.1,1.4.4,1.9s.8,1,1.7,1.3c.4.2,1.2.4,2.3.6.6,0,1.1.2,1.6.2s1,.6,1,1.2h0c0,.7-.5,1.2-1.2,1.2Z"/>
      </g>
      <g>
        <polygon class="cls-4" points="448.1 25.6 441 25.6 437.5 31.7 441 37.8 448.1 37.8 451.6 31.7 448.1 25.6"/>
        <polygon class="cls-2" points="448.1 11.7 441 11.7 437.5 17.9 441 24 448.1 24 451.6 17.9 448.1 11.7"/>
        <polygon class="cls-7" points="436.1 4.9 429.1 4.9 425.5 11 429.1 17.1 436.1 17.1 439.7 11 436.1 4.9"/>
        <polygon class="cls-5" points="436.1 32.4 429.1 32.4 425.5 38.6 429.1 44.7 436.1 44.7 439.7 38.6 436.1 32.4"/>
      </g>
      <g>
        <path class="cls-7" d="M512.2,60.2c.3.8.6,1.4,1,1.8.7.8,1.5,1.2,2.4,1.2s1-.2,1.4-.5.6-.8.6-1.4-.2-1-.6-1.4c-.3-.3-.8-.6-1.6-1.2l-1.4-.9c-.4-.3-.8-.6-1-.8-.5-.5-.7-1.1-.7-1.8s.3-1.6.8-2.1,1.3-.8,2.2-.8.8,0,1.4.3c.5.2.8.3.9.3.2,0,.3,0,.4-.1,0,0,.1-.2.2-.4h.3l.4,3.6h-.4c-.3-1.1-.7-1.8-1.3-2.3-.6-.4-1.2-.6-1.8-.6s-.8.1-1.2.4c-.3.3-.5.7-.5,1.1s.1.8.4,1.1c.3.3.7.6,1.2,1l1.4.9c.9.6,1.5,1.1,1.9,1.6.4.5.5,1.1.5,1.7s-.3,1.6-1,2.2c-.7.6-1.5.9-2.5.9s-1,0-1.6-.3c-.6-.2-.9-.3-1-.3-.2,0-.3,0-.4.2,0,.1-.1.2-.1.4h-.4l-.5-3.6h.4Z"/>
        <path class="cls-7" d="M526.1,56.4c.5.4.7.7.7,1.2s0,.3-.2.5c-.1.2-.3.2-.6.2s-.4,0-.5-.2c-.1-.1-.2-.3-.3-.6v-.4c-.2-.3-.3-.5-.5-.6-.2-.1-.4-.2-.7-.2-.6,0-1.1.3-1.5.8s-.6,1.3-.6,2.2.2,1.6.7,2.2,1.1,1,1.9,1,1.1-.2,1.5-.6c.2-.2.5-.6.8-1h.2c-.3.8-.6,1.3-1,1.7-.6.7-1.4,1.1-2.3,1.1s-1.6-.3-2.2-1-1-1.6-1-2.8.4-2.1,1.1-2.9c.7-.8,1.6-1.2,2.7-1.2s1.2.2,1.7.5Z"/>
        <path class="cls-7" d="M527.9,63.4c.6,0,.9-.2,1.1-.3.1-.1.2-.5.2-1.2v-3.9c0-.4,0-.6,0-.7,0-.2-.2-.3-.5-.3s-.1,0-.2,0c0,0-.2,0-.5.1v-.3h.3c.9-.4,1.6-.7,2-.8.2,0,.2,0,.3,0,0,0,0,0,0,.1v5.9c0,.6,0,1,.2,1.2.1.2.5.3,1,.3v.2h-3.9v-.2ZM529.2,52.4c.2-.2.4-.3.6-.3s.4,0,.6.3.2.4.2.6,0,.4-.2.6-.4.2-.6.2-.4,0-.6-.2c-.2-.2-.2-.4-.2-.6s0-.4.2-.6Z"/>
        <path class="cls-7" d="M537.9,56.7c.6.5.9,1.3.9,2.3h-5.1c0,1.3.3,2.2.8,2.8.5.6,1.1.9,1.8.9s1-.2,1.4-.5c.4-.3.7-.7,1.1-1.3h.3c-.2.8-.6,1.4-1.2,2-.6.6-1.3.9-2.2.9s-1.8-.4-2.3-1.2c-.5-.8-.8-1.7-.8-2.7s.3-2.1,1-2.9c.6-.8,1.5-1.2,2.5-1.2s1.4.3,2,.8ZM534.1,57.3c-.2.3-.3.7-.4,1.1h3.4c0-.5-.2-1-.3-1.2-.3-.5-.7-.7-1.3-.7s-1.1.3-1.4.8Z"/>
        <path class="cls-7" d="M539.8,63.4c.4,0,.6-.1.8-.3.2-.1.2-.5.2-1v-4.2c0-.3,0-.6,0-.7-.1-.2-.3-.3-.6-.3s0,0-.1,0c0,0-.1,0-.2,0v-.3c.2,0,.7-.2,1.6-.5l.8-.3s0,0,0,0c0,0,0,0,0,.1v1.2c.5-.5.9-.8,1.2-1,.4-.3.9-.4,1.3-.4s.7.1,1,.3c.6.4.9,1.2.9,2.2v3.9c0,.4,0,.7.2.9.2.2.4.3.8.3v.2h-3.4v-.2c.4,0,.7-.2.8-.3.2-.2.2-.5.2-1.1v-3.5c0-.5,0-.9-.3-1.2-.2-.3-.5-.5-.9-.5s-.6.1-1,.3c-.2.1-.4.3-.7.6v4.6c0,.4,0,.7.3.8.2.1.4.2.8.2v.2h-3.5v-.2Z"/>
        <path class="cls-7" d="M553.6,56.4c.5.4.7.7.7,1.2s0,.3-.2.5c-.1.2-.3.2-.6.2s-.4,0-.5-.2c-.1-.1-.2-.3-.3-.6v-.4c-.2-.3-.3-.5-.5-.6-.2-.1-.4-.2-.7-.2-.6,0-1.1.3-1.5.8s-.6,1.3-.6,2.2.2,1.6.7,2.2,1.1,1,1.9,1,1.1-.2,1.5-.6c.2-.2.5-.6.8-1h.2c-.3.8-.6,1.3-1,1.7-.6.7-1.4,1.1-2.3,1.1s-1.6-.3-2.2-1-1-1.6-1-2.8.4-2.1,1.1-2.9c.7-.8,1.6-1.2,2.7-1.2s1.2.2,1.7.5Z"/>
        <path class="cls-7" d="M560.8,56.7c.6.5.9,1.3.9,2.3h-5.1c0,1.3.3,2.2.8,2.8.5.6,1.1.9,1.8.9s1-.2,1.4-.5c.4-.3.7-.7,1.1-1.3h.3c-.2.8-.6,1.4-1.2,2-.6.6-1.3.9-2.2.9s-1.8-.4-2.3-1.2c-.5-.8-.8-1.7-.8-2.7s.3-2.1,1-2.9c.6-.8,1.5-1.2,2.5-1.2s1.4.3,2,.8ZM556.9,57.3c-.2.3-.3.7-.4,1.1h3.4c0-.5-.2-1-.3-1.2-.3-.5-.7-.7-1.3-.7s-1.1.3-1.4.8Z"/>
        <path class="cls-7" d="M565.8,65c-.4.5-.8.8-1.3,1l-.2-.3c.5-.3.9-.6,1.1-1s.3-.6.3-.9,0-.1,0-.1c0,0,0,0-.2,0h-.5c-.2,0-.4,0-.6-.2-.2-.2-.3-.4-.3-.7s0-.4.2-.6c.2-.2.4-.3.8-.3s.6.1.9.4c.3.3.4.7.4,1.1s-.2,1.1-.6,1.6Z"/>
        <path class="cls-7" d="M570.8,63.3c.6,0,1-.2,1.2-.3.2-.2.3-.6.3-1.2v-7.5c0-.6,0-1-.3-1.2-.2-.2-.6-.3-1.2-.3v-.3h8.8v2.4c0,0-.4,0-.4,0-.1-.7-.3-1.2-.6-1.4-.3-.2-.9-.3-1.9-.3h-2.2c-.2,0-.4,0-.4.1,0,0,0,.2,0,.5v3.8h2.5c.7,0,1.2-.1,1.3-.3.2-.2.3-.6.5-1.3h.4v3.9h-.4c-.1-.7-.3-1.1-.5-1.3-.2-.2-.6-.3-1.3-.3h-2.5v4.2c0,.3.1.5.3.6.2,0,.8,0,1.9,0s1.9-.1,2.5-.4c.5-.2,1-.9,1.4-1.8h.5l-.7,2.9h-8.9v-.3Z"/>
        <path class="cls-7" d="M581,63.4c.4,0,.6-.1.8-.3.2-.1.2-.5.2-1v-4.2c0-.3,0-.6,0-.7-.1-.2-.3-.3-.6-.3s0,0-.1,0c0,0-.1,0-.2,0v-.3c.2,0,.7-.2,1.6-.5l.8-.3s0,0,0,0c0,0,0,0,0,.1v1.2c.5-.5.9-.8,1.2-1,.4-.3.9-.4,1.3-.4s.7.1,1,.3c.6.4.9,1.2.9,2.2v3.9c0,.4,0,.7.2.9.2.2.4.3.8.3v.2h-3.4v-.2c.4,0,.7-.2.8-.3.2-.2.2-.5.2-1.1v-3.5c0-.5,0-.9-.3-1.2-.2-.3-.5-.5-.9-.5s-.6.1-1,.3c-.2.1-.4.3-.7.6v4.6c0,.4,0,.7.3.8.2.1.4.2.8.2v.2h-3.5v-.2Z"/>
        <path class="cls-7" d="M594.7,56.7c.6.5.9,1.3.9,2.3h-5.1c0,1.3.3,2.2.8,2.8.5.6,1.1.9,1.8.9s1-.2,1.4-.5c.4-.3.7-.7,1.1-1.3h.3c-.2.8-.6,1.4-1.2,2-.6.6-1.3.9-2.2.9s-1.8-.4-2.3-1.2c-.5-.8-.8-1.7-.8-2.7s.3-2.1,1-2.9c.6-.8,1.5-1.2,2.5-1.2s1.4.3,2,.8ZM590.8,57.3c-.2.3-.3.7-.4,1.1h3.4c0-.5-.2-1-.3-1.2-.3-.5-.7-.7-1.3-.7s-1.1.3-1.4.8Z"/>
        <path class="cls-7" d="M596.3,63.4c.5,0,.8-.1,1-.3.2-.1.2-.4.2-.9v-3.7c0-.5,0-.9-.1-1.2,0-.2-.3-.4-.5-.4s-.1,0-.2,0-.2,0-.3,0v-.3c.3-.1.6-.2.9-.3s.5-.2.7-.2c.3-.1.5-.2.8-.4,0,0,0,0,0,0,0,0,0,0,0,.2v1.4c.3-.5.7-.9,1-1.1.3-.3.7-.4,1-.4s.5,0,.7.3c.2.2.3.4.3.6s0,.4-.2.6-.3.2-.5.2-.4,0-.6-.3-.4-.3-.5-.3c-.2,0-.4.2-.7.5-.3.3-.4.6-.4,1v3.7c0,.5.1.8.3,1s.6.3,1.1.3v.3h-4v-.3Z"/>
        <path class="cls-7" d="M602.9,60c-.3-.4-.4-.9-.4-1.4s.2-1.3.7-1.8c.5-.6,1.2-.9,2.1-.9s.8,0,1.3.3c.5.2.9.3,1.4.3s.3,0,.5,0c.2,0,.4,0,.5,0h0v.7h-1.4c0,.2.2.4.2.6,0,.3.1.6.1.9,0,.6-.3,1.2-.8,1.7s-1.2.8-2,.8-.4,0-.7,0c-.2,0-.4.1-.6.4s-.4.5-.4.7.2.3.6.4c.2,0,.5,0,.8,0,1.4,0,2.3,0,2.8.2.8.3,1.2.8,1.2,1.7s-.5,1.6-1.4,2.1c-.9.5-1.9.8-2.9.8s-1.6-.2-2.1-.5c-.5-.4-.8-.8-.8-1.2s0-.4.2-.6c.1-.2.4-.5.8-.8l.5-.5h0c-.2-.2-.4-.3-.6-.4-.2-.2-.3-.4-.3-.6s0-.4.3-.7c.2-.2.6-.6,1.2-1.2-.5-.2-.9-.5-1.1-.9ZM603.8,66.1c.5.2,1.1.3,1.7.3s1.6-.2,2.2-.5.8-.7.8-1.2-.2-.6-.7-.7c-.3,0-.8-.1-1.6-.1-.2,0-.4,0-.6,0-.2,0-.4,0-.6,0-.1,0-.3,0-.6,0-.3,0-.5,0-.6,0,0,0-.2.2-.5.5-.3.4-.4.7-.4,1,0,.5.3.8.8,1ZM606.3,60.5c.3-.3.5-.7.5-1.4s-.1-1.1-.4-1.8c-.3-.7-.7-1-1.3-1s-.9.3-1.1.8c-.1.3-.2.6-.2,1,0,.7.2,1.3.5,1.8.3.5.7.8,1.2.8s.5,0,.7-.2Z"/>
        <path class="cls-7" d="M609.9,56.1h3.4v.2c-.3,0-.5,0-.6,0-.2,0-.4.2-.4.4s0,.2,0,.2c0,0,0,.2.1.4l1.9,4.1,1.5-4.2s0-.1,0-.3c0-.2,0-.3,0-.3,0-.1,0-.3-.1-.3,0,0-.2-.1-.4-.1h-.2v-.2h2.2v.2c-.2,0-.4.1-.5.2-.1.1-.2.3-.3.5l-2.5,6.9c-.4,1.2-.9,2-1.3,2.6-.4.5-.9.8-1.5.8s-.6,0-.8-.2-.4-.4-.4-.7,0-.4.2-.5c.2-.1.4-.2.6-.2s.3,0,.6.2c.3.1.5.2.6.2.3,0,.6-.4.9-1.1.3-.7.5-1.2.5-1.5s0-.1,0-.2c0,0,0-.1,0-.2l-2.5-5.6c-.2-.4-.3-.7-.5-.8-.1-.1-.3-.2-.6-.3v-.2Z"/>
        <path class="cls-7" d="M462.9,76.3c.5-.3,1.5-.8,3-1.3v-.7c0-.6,0-1-.2-1.2-.2-.4-.6-.6-1.1-.6s-.5,0-.8.2c-.2.1-.4.4-.4.6s0,.2,0,.3c0,.2,0,.3,0,.3,0,.3,0,.5-.3.6-.1,0-.2.1-.4.1-.2,0-.4,0-.6-.2s-.2-.3-.2-.5c0-.4.2-.8.7-1.2.5-.4,1.1-.6,2-.6s1.7.3,2.1,1c.2.4.3.9.3,1.7v3.3c0,.3,0,.5,0,.7,0,.2.2.3.4.3s.2,0,.3,0c0,0,.2-.1.4-.3v.4c-.2.2-.4.4-.6.5-.3.2-.6.3-.9.3s-.6-.1-.8-.4-.3-.5-.3-.9c-.4.4-.8.6-1,.8-.5.3-1,.4-1.4.4s-.9-.2-1.2-.5c-.3-.3-.5-.8-.5-1.3,0-.8.4-1.5,1.2-2ZM465.8,75.4c-.6.2-1.1.4-1.5.7-.8.5-1.2,1-1.2,1.7s.2.9.5,1.1c.2.2.4.2.7.2s.7-.1,1-.3c.3-.2.5-.5.5-.8v-2.6Z"/>
        <path class="cls-7" d="M468.7,79.7c.4,0,.6-.1.8-.3.2-.1.2-.5.2-1v-4.2c0-.3,0-.6,0-.7-.1-.2-.3-.3-.6-.3s0,0-.1,0c0,0-.1,0-.2,0v-.3c.2,0,.7-.2,1.6-.5l.8-.3s0,0,0,0c0,0,0,0,0,.1v1.2c.5-.5.9-.8,1.2-1,.4-.3.9-.4,1.3-.4s.7.1,1,.3c.6.4.9,1.2.9,2.2v3.9c0,.4,0,.7.2.9.2.2.4.3.8.3v.2h-3.4v-.2c.4,0,.7-.2.8-.3.2-.2.2-.5.2-1.1v-3.5c0-.5,0-.9-.3-1.2-.2-.3-.5-.5-.9-.5s-.6.1-1,.3c-.2.1-.4.3-.7.6v4.6c0,.4,0,.7.3.8.2.1.4.2.8.2v.2h-3.5v-.2Z"/>
        <path class="cls-7" d="M481.6,72.4c.2.1.4.3.6.5v-2.6c0-.3,0-.6-.1-.7s-.2-.2-.5-.2-.1,0-.2,0-.2,0-.3,0v-.3l.7-.2c.2,0,.5-.1.7-.2s.5-.1.6-.2c0,0,.2,0,.4-.2h0s0,.9,0,.9c0,.3,0,.6,0,1,0,.3,0,.7,0,1v6.7c0,.4,0,.6.1.8,0,.1.3.2.7.2s.1,0,.2,0,.1,0,.2,0v.3s-.4.1-1.2.4l-1.3.5h0v-1.1c-.3.3-.6.6-.8.7-.4.2-.8.4-1.4.4-.9,0-1.7-.4-2.2-1.1-.6-.7-.8-1.6-.8-2.5s.3-2.2,1-3.1c.7-.9,1.5-1.3,2.5-1.3s.8,0,1.1.3ZM481.9,78.9c.3-.3.4-.5.4-.7v-3.5c0-.7-.2-1.2-.6-1.5-.4-.3-.7-.4-1.1-.4-.7,0-1.2.3-1.6.9-.4.6-.6,1.4-.6,2.3s.2,1.7.6,2.4,1,1,1.8,1,.8-.1,1-.4Z"/>
        <path class="cls-7" d="M489.2,79.7c.7,0,1.1-.2,1.3-.5.2-.2.3-.8.3-1.7v-7.4l-.2-.3c-.2-.3-.4-.5-.6-.5-.2,0-.4-.1-.8-.1v-.3h2.8l6.4,8.1v-5.6c0-.9-.1-1.5-.4-1.8-.2-.2-.6-.3-1.2-.4v-.3h3.9v.3c-.6,0-1,.2-1.3.5-.2.2-.3.8-.3,1.7v8.9h-.3l-7.3-9.3v6.6c0,.9.1,1.5.4,1.8.2.2.6.3,1.2.4v.3h-3.9v-.3Z"/>
        <path class="cls-7" d="M502.7,76.3c.5-.3,1.5-.8,3-1.3v-.7c0-.6,0-1-.2-1.2-.2-.4-.6-.6-1.1-.6s-.5,0-.8.2c-.2.1-.4.4-.4.6s0,.2,0,.3c0,.2,0,.3,0,.3,0,.3,0,.5-.3.6-.1,0-.2.1-.4.1-.2,0-.4,0-.6-.2s-.2-.3-.2-.5c0-.4.2-.8.7-1.2.5-.4,1.1-.6,2-.6s1.7.3,2.1,1c.2.4.3.9.3,1.7v3.3c0,.3,0,.5,0,.7,0,.2.2.3.4.3s.2,0,.3,0c0,0,.2-.1.4-.3v.4c-.2.2-.4.4-.6.5-.3.2-.6.3-.9.3s-.6-.1-.8-.4-.3-.5-.3-.9c-.4.4-.8.6-1,.8-.5.3-1,.4-1.4.4s-.9-.2-1.2-.5c-.3-.3-.5-.8-.5-1.3,0-.8.4-1.5,1.2-2ZM505.6,75.4c-.6.2-1.1.4-1.5.7-.8.5-1.2,1-1.2,1.7s.2.9.5,1.1c.2.2.4.2.7.2s.7-.1,1-.3c.3-.2.5-.5.5-.8v-2.6Z"/>
        <path class="cls-7" d="M508.5,79.7c.4,0,.6-.1.8-.3.2-.1.2-.5.2-1v-4.2c0-.3,0-.6,0-.7-.1-.2-.3-.3-.6-.3s0,0-.1,0c0,0-.1,0-.2,0v-.3c.2,0,.7-.2,1.6-.5l.8-.3s0,0,0,0c0,0,0,0,0,.1v1.2c.5-.5.9-.8,1.2-1,.4-.3.9-.4,1.3-.4s.7.1,1,.3c.6.4.9,1.2.9,2.2v3.9c0,.4,0,.7.2.9.2.2.4.3.8.3v.2h-3.4v-.2c.4,0,.7-.2.8-.3.2-.2.2-.5.2-1.1v-3.5c0-.5,0-.9-.3-1.2-.2-.3-.5-.5-.9-.5s-.6.1-1,.3c-.2.1-.4.3-.7.6v4.6c0,.4,0,.7.3.8.2.1.4.2.8.2v.2h-3.5v-.2Z"/>
        <path class="cls-7" d="M517.9,73.4c.7-.8,1.6-1.1,2.6-1.1s1.9.4,2.6,1.1c.7.7,1,1.7,1,2.9s-.3,2-1,2.9-1.5,1.2-2.6,1.2-1.9-.4-2.6-1.2c-.7-.8-1.1-1.7-1.1-2.9s.3-2,1-2.8ZM519.2,73.2c-.5.5-.8,1.4-.8,2.6s.2,1.9.6,2.7c.4.8,1,1.3,1.8,1.3s1.1-.3,1.4-.8c.3-.6.5-1.3.5-2.2s-.2-1.8-.6-2.7c-.4-.8-1-1.3-1.8-1.3s-.8.1-1.1.4Z"/>
        <path class="cls-7" d="M525.4,75.6h4.1v1.1h-4.1v-1.1Z"/>
        <path class="cls-7" d="M536,73c.6.5.9,1.3.9,2.3h-5.1c0,1.3.3,2.2.8,2.8.5.6,1.1.9,1.8.9s1-.2,1.4-.5c.4-.3.7-.7,1.1-1.3h.3c-.2.8-.6,1.4-1.2,2-.6.6-1.3.9-2.2.9s-1.8-.4-2.3-1.2c-.5-.8-.8-1.7-.8-2.7s.3-2.1,1-2.9c.6-.8,1.5-1.2,2.5-1.2s1.4.3,2,.8ZM532.1,73.7c-.2.3-.3.7-.4,1.1h3.4c0-.5-.2-1-.3-1.2-.3-.5-.7-.7-1.3-.7s-1.1.3-1.4.8Z"/>
        <path class="cls-7" d="M537.8,79.7c.4,0,.6-.1.8-.3.2-.1.2-.5.2-1v-4.2c0-.3,0-.6,0-.7-.1-.2-.3-.3-.6-.3s0,0-.1,0c0,0-.1,0-.2,0v-.3c.2,0,.7-.2,1.6-.5l.8-.3s0,0,0,0c0,0,0,0,0,.1v1.2c.5-.5.9-.8,1.2-1,.4-.3.9-.4,1.3-.4s.7.1,1,.3c.6.4.9,1.2.9,2.2v3.9c0,.4,0,.7.2.9.2.2.4.3.8.3v.2h-3.4v-.2c.4,0,.7-.2.8-.3.2-.2.2-.5.2-1.1v-3.5c0-.5,0-.9-.3-1.2-.2-.3-.5-.5-.9-.5s-.6.1-1,.3c-.2.1-.4.3-.7.6v4.6c0,.4,0,.7.3.8.2.1.4.2.8.2v.2h-3.5v-.2Z"/>
        <path class="cls-7" d="M547.3,76.3c-.3-.4-.4-.9-.4-1.4s.2-1.3.7-1.8c.5-.6,1.2-.9,2.1-.9s.8,0,1.3.3c.5.2.9.3,1.4.3s.3,0,.5,0c.2,0,.4,0,.5,0h0v.7h-1.4c0,.2.2.4.2.6,0,.3.1.6.1.9,0,.6-.3,1.2-.8,1.7s-1.2.8-2,.8-.4,0-.7,0c-.2,0-.4.1-.6.4s-.4.5-.4.7.2.3.6.4c.2,0,.5,0,.8,0,1.4,0,2.3,0,2.8.2.8.3,1.2.8,1.2,1.7s-.5,1.6-1.4,2.1c-.9.5-1.9.8-2.9.8s-1.6-.2-2.1-.5c-.5-.4-.8-.8-.8-1.2s0-.4.2-.6c.1-.2.4-.5.8-.8l.5-.5h0c-.2-.2-.4-.3-.6-.4-.2-.2-.3-.4-.3-.6s0-.4.3-.7c.2-.2.6-.6,1.2-1.2-.5-.2-.9-.5-1.1-.9ZM548.1,82.5c.5.2,1.1.3,1.7.3s1.6-.2,2.2-.5.8-.7.8-1.2-.2-.6-.7-.7c-.3,0-.8-.1-1.6-.1-.2,0-.4,0-.6,0-.2,0-.4,0-.6,0-.1,0-.3,0-.6,0-.3,0-.5,0-.6,0,0,0-.2.2-.5.5-.3.4-.4.7-.4,1,0,.5.3.8.8,1ZM550.7,76.8c.3-.3.5-.7.5-1.4s-.1-1.1-.4-1.8c-.3-.7-.7-1-1.3-1s-.9.3-1.1.8c-.1.3-.2.6-.2,1,0,.7.2,1.3.5,1.8.3.5.7.8,1.2.8s.5,0,.7-.2Z"/>
        <path class="cls-7" d="M554.3,79.7c.6,0,.9-.2,1.1-.3.1-.1.2-.5.2-1.2v-3.9c0-.4,0-.6,0-.7,0-.2-.2-.3-.5-.3s-.1,0-.2,0c0,0-.2,0-.5.1v-.3h.3c.9-.4,1.6-.7,2-.8.2,0,.2,0,.3,0,0,0,0,0,0,.1v5.9c0,.6,0,1,.2,1.2.1.2.5.3,1,.3v.2h-3.9v-.2ZM555.6,68.7c.2-.2.4-.3.6-.3s.4,0,.6.3.2.4.2.6,0,.4-.2.6-.4.2-.6.2-.4,0-.6-.2c-.2-.2-.2-.4-.2-.6s0-.4.2-.6Z"/>
        <path class="cls-7" d="M558.9,79.7c.4,0,.6-.1.8-.3.2-.1.2-.5.2-1v-4.2c0-.3,0-.6,0-.7-.1-.2-.3-.3-.6-.3s0,0-.1,0c0,0-.1,0-.2,0v-.3c.2,0,.7-.2,1.6-.5l.8-.3s0,0,0,0c0,0,0,0,0,.1v1.2c.5-.5.9-.8,1.2-1,.4-.3.9-.4,1.3-.4s.7.1,1,.3c.6.4.9,1.2.9,2.2v3.9c0,.4,0,.7.2.9.2.2.4.3.8.3v.2h-3.4v-.2c.4,0,.7-.2.8-.3.2-.2.2-.5.2-1.1v-3.5c0-.5,0-.9-.3-1.2-.2-.3-.5-.5-.9-.5s-.6.1-1,.3c-.2.1-.4.3-.7.6v4.6c0,.4,0,.7.3.8.2.1.4.2.8.2v.2h-3.5v-.2Z"/>
        <path class="cls-7" d="M572.6,73c.6.5.9,1.3.9,2.3h-5.1c0,1.3.3,2.2.8,2.8.5.6,1.1.9,1.8.9s1-.2,1.4-.5c.4-.3.7-.7,1.1-1.3h.3c-.2.8-.6,1.4-1.2,2-.6.6-1.3.9-2.2.9s-1.8-.4-2.3-1.2c-.5-.8-.8-1.7-.8-2.7s.3-2.1,1-2.9c.6-.8,1.5-1.2,2.5-1.2s1.4.3,2,.8ZM568.7,73.7c-.2.3-.3.7-.4,1.1h3.4c0-.5-.2-1-.3-1.2-.3-.5-.7-.7-1.3-.7s-1.1.3-1.4.8Z"/>
        <path class="cls-7" d="M579.9,73c.6.5.9,1.3.9,2.3h-5.1c0,1.3.3,2.2.8,2.8.5.6,1.1.9,1.8.9s1-.2,1.4-.5c.4-.3.7-.7,1.1-1.3h.3c-.2.8-.6,1.4-1.2,2-.6.6-1.3.9-2.2.9s-1.8-.4-2.3-1.2c-.5-.8-.8-1.7-.8-2.7s.3-2.1,1-2.9c.6-.8,1.5-1.2,2.5-1.2s1.4.3,2,.8ZM576,73.7c-.2.3-.3.7-.4,1.1h3.4c0-.5-.2-1-.3-1.2-.3-.5-.7-.7-1.3-.7s-1.1.3-1.4.8Z"/>
        <path class="cls-7" d="M581.5,79.7c.5,0,.8-.1,1-.3.2-.1.2-.4.2-.9v-3.7c0-.5,0-.9-.1-1.2,0-.2-.3-.4-.5-.4s-.1,0-.2,0-.2,0-.3,0v-.3c.3-.1.6-.2.9-.3s.5-.2.7-.2c.3-.1.5-.2.8-.4,0,0,0,0,0,0,0,0,0,0,0,.2v1.4c.3-.5.7-.9,1-1.1.3-.3.7-.4,1-.4s.5,0,.7.3c.2.2.3.4.3.6s0,.4-.2.6-.3.2-.5.2-.4,0-.6-.3-.4-.3-.5-.3c-.2,0-.4.2-.7.5-.3.3-.4.6-.4,1v3.7c0,.5.1.8.3,1s.6.3,1.1.3v.3h-4v-.3Z"/>
        <path class="cls-7" d="M587.2,79.7c.6,0,.9-.2,1.1-.3.1-.1.2-.5.2-1.2v-3.9c0-.4,0-.6,0-.7,0-.2-.2-.3-.5-.3s-.1,0-.2,0c0,0-.2,0-.5.1v-.3h.3c.9-.4,1.6-.7,2-.8.2,0,.2,0,.3,0,0,0,0,0,0,.1v5.9c0,.6,0,1,.2,1.2.1.2.5.3,1,.3v.2h-3.9v-.2ZM588.5,68.7c.2-.2.4-.3.6-.3s.4,0,.6.3.2.4.2.6,0,.4-.2.6-.4.2-.6.2-.4,0-.6-.2c-.2-.2-.2-.4-.2-.6s0-.4.2-.6Z"/>
        <path class="cls-7" d="M591.8,79.7c.4,0,.6-.1.8-.3.2-.1.2-.5.2-1v-4.2c0-.3,0-.6,0-.7-.1-.2-.3-.3-.6-.3s0,0-.1,0c0,0-.1,0-.2,0v-.3c.2,0,.7-.2,1.6-.5l.8-.3s0,0,0,0c0,0,0,0,0,.1v1.2c.5-.5.9-.8,1.2-1,.4-.3.9-.4,1.3-.4s.7.1,1,.3c.6.4.9,1.2.9,2.2v3.9c0,.4,0,.7.2.9.2.2.4.3.8.3v.2h-3.4v-.2c.4,0,.7-.2.8-.3.2-.2.2-.5.2-1.1v-3.5c0-.5,0-.9-.3-1.2-.2-.3-.5-.5-.9-.5s-.6.1-1,.3c-.2.1-.4.3-.7.6v4.6c0,.4,0,.7.3.8.2.1.4.2.8.2v.2h-3.5v-.2Z"/>
        <path class="cls-7" d="M601.2,76.3c-.3-.4-.4-.9-.4-1.4s.2-1.3.7-1.8c.5-.6,1.2-.9,2.1-.9s.8,0,1.3.3c.5.2.9.3,1.4.3s.3,0,.5,0c.2,0,.4,0,.5,0h0v.7h-1.4c0,.2.2.4.2.6,0,.3.1.6.1.9,0,.6-.3,1.2-.8,1.7s-1.2.8-2,.8-.4,0-.7,0c-.2,0-.4.1-.6.4s-.4.5-.4.7.2.3.6.4c.2,0,.5,0,.8,0,1.4,0,2.3,0,2.8.2.8.3,1.2.8,1.2,1.7s-.5,1.6-1.4,2.1c-.9.5-1.9.8-2.9.8s-1.6-.2-2.1-.5c-.5-.4-.8-.8-.8-1.2s0-.4.2-.6c.1-.2.4-.5.8-.8l.5-.5h0c-.2-.2-.4-.3-.6-.4-.2-.2-.3-.4-.3-.6s0-.4.3-.7c.2-.2.6-.6,1.2-1.2-.5-.2-.9-.5-1.1-.9ZM602.1,82.5c.5.2,1.1.3,1.7.3s1.6-.2,2.2-.5.8-.7.8-1.2-.2-.6-.7-.7c-.3,0-.8-.1-1.6-.1-.2,0-.4,0-.6,0-.2,0-.4,0-.6,0-.1,0-.3,0-.6,0-.3,0-.5,0-.6,0,0,0-.2.2-.5.5-.3.4-.4.7-.4,1,0,.5.3.8.8,1ZM604.7,76.8c.3-.3.5-.7.5-1.4s-.1-1.1-.4-1.8c-.3-.7-.7-1-1.3-1s-.9.3-1.1.8c-.1.3-.2.6-.2,1,0,.7.2,1.3.5,1.8.3.5.7.8,1.2.8s.5,0,.7-.2Z"/>
      </g>
      <g>
        <path class="cls-7" d="M444.4,63.3c.7,0,1.1-.2,1.3-.5.2-.2.3-.8.3-1.7v-6.9c0-.6,0-1-.3-1.2-.2-.2-.6-.3-1.3-.3v-.3h3.2l3.8,8.4,3.7-8.4h3.3v.3c-.6,0-1,.2-1.2.3-.2.2-.3.6-.3,1.2v7.5c0,.6,0,1,.3,1.2.2.2.6.3,1.2.3v.3h-4.6v-.3c.7,0,1.1-.2,1.2-.4s.2-.6.2-1.4v-7.6l-4.2,9.6h-.2l-4.1-9.2v6.7c0,.9.1,1.5.4,1.8.2.2.6.3,1.2.4v.3h-3.9v-.3Z"/>
        <path class="cls-7" d="M460.6,60c.5-.3,1.5-.8,3-1.3v-.7c0-.6,0-1-.2-1.2-.2-.4-.6-.6-1.1-.6s-.5,0-.8.2c-.2.1-.4.4-.4.6s0,.2,0,.3c0,.2,0,.3,0,.3,0,.3,0,.5-.3.6-.1,0-.2.1-.4.1-.2,0-.4,0-.6-.2s-.2-.3-.2-.5c0-.4.2-.8.7-1.2.5-.4,1.1-.6,2-.6s1.7.3,2.1,1c.2.4.3.9.3,1.7v3.3c0,.3,0,.5,0,.7,0,.2.2.3.4.3s.2,0,.3,0c0,0,.2-.1.4-.3v.4c-.2.2-.4.4-.6.5-.3.2-.6.3-.9.3s-.6-.1-.8-.4-.3-.5-.3-.9c-.4.4-.8.6-1,.8-.5.3-1,.4-1.4.4s-.9-.2-1.2-.5c-.3-.3-.5-.8-.5-1.3,0-.8.4-1.5,1.2-2ZM463.6,59.1c-.6.2-1.1.4-1.5.7-.8.5-1.2,1-1.2,1.7s.2.9.5,1.1c.2.2.4.2.7.2s.7-.1,1-.3c.3-.2.5-.5.5-.8v-2.6Z"/>
        <path class="cls-7" d="M470.4,56v.6h-1.6v4.8c0,.4,0,.7,0,.9.1.4.4.6.8.6s.4,0,.5-.1.3-.2.5-.4l.2.2-.2.2c-.3.4-.6.7-.9.8-.3.2-.6.2-.9.2-.6,0-1.1-.3-1.3-.9-.1-.3-.2-.7-.2-1.3v-5h-.9s0,0,0,0c0,0,0,0,0,0,0,0,0,0,0-.1s.1-.1.2-.2c.4-.3.6-.6.8-.8s.5-.7,1.2-1.5c0,0,.1,0,.1,0,0,0,0,0,0,.1v2h1.6Z"/>
        <path class="cls-7" d="M476.5,56.7c.6.5.9,1.3.9,2.3h-5.1c0,1.3.3,2.2.8,2.8.5.6,1.1.9,1.8.9s1-.2,1.4-.5c.4-.3.7-.7,1.1-1.3h.3c-.2.8-.6,1.4-1.2,2-.6.6-1.3.9-2.2.9s-1.8-.4-2.3-1.2c-.5-.8-.8-1.7-.8-2.7s.3-2.1,1-2.9c.6-.8,1.5-1.2,2.5-1.2s1.4.3,2,.8ZM472.6,57.3c-.2.3-.3.7-.4,1.1h3.4c0-.5-.2-1-.3-1.2-.3-.5-.7-.7-1.3-.7s-1.1.3-1.4.8Z"/>
        <path class="cls-7" d="M478.1,63.4c.5,0,.8-.1,1-.3.2-.1.2-.4.2-.9v-3.7c0-.5,0-.9-.1-1.2,0-.2-.3-.4-.5-.4s-.1,0-.2,0-.2,0-.3,0v-.3c.3-.1.6-.2.9-.3s.5-.2.7-.2c.3-.1.5-.2.8-.4,0,0,0,0,0,0,0,0,0,0,0,.2v1.4c.3-.5.7-.9,1-1.1.3-.3.7-.4,1-.4s.5,0,.7.3c.2.2.3.4.3.6s0,.4-.2.6-.3.2-.5.2-.4,0-.6-.3-.4-.3-.5-.3c-.2,0-.4.2-.7.5-.3.3-.4.6-.4,1v3.7c0,.5.1.8.3,1s.6.3,1.1.3v.3h-4v-.3Z"/>
        <path class="cls-7" d="M483.9,63.4c.6,0,.9-.2,1.1-.3.1-.1.2-.5.2-1.2v-3.9c0-.4,0-.6,0-.7,0-.2-.2-.3-.5-.3s-.1,0-.2,0c0,0-.2,0-.5.1v-.3h.3c.9-.4,1.6-.7,2-.8.2,0,.2,0,.3,0,0,0,0,0,0,.1v5.9c0,.6,0,1,.2,1.2.1.2.5.3,1,.3v.2h-3.9v-.2ZM485.1,52.4c.2-.2.4-.3.6-.3s.4,0,.6.3.2.4.2.6,0,.4-.2.6-.4.2-.6.2-.4,0-.6-.2c-.2-.2-.2-.4-.2-.6s0-.4.2-.6Z"/>
        <path class="cls-7" d="M489.9,60c.5-.3,1.5-.8,3-1.3v-.7c0-.6,0-1-.2-1.2-.2-.4-.6-.6-1.1-.6s-.5,0-.8.2c-.2.1-.4.4-.4.6s0,.2,0,.3c0,.2,0,.3,0,.3,0,.3,0,.5-.3.6-.1,0-.2.1-.4.1-.2,0-.4,0-.6-.2s-.2-.3-.2-.5c0-.4.2-.8.7-1.2.5-.4,1.1-.6,2-.6s1.7.3,2.1,1c.2.4.3.9.3,1.7v3.3c0,.3,0,.5,0,.7,0,.2.2.3.4.3s.2,0,.3,0c0,0,.2-.1.4-.3v.4c-.2.2-.4.4-.6.5-.3.2-.6.3-.9.3s-.6-.1-.8-.4-.3-.5-.3-.9c-.4.4-.8.6-1,.8-.5.3-1,.4-1.4.4s-.9-.2-1.2-.5c-.3-.3-.5-.8-.5-1.3,0-.8.4-1.5,1.2-2ZM492.8,59.1c-.6.2-1.1.4-1.5.7-.8.5-1.2,1-1.2,1.7s.2.9.5,1.1c.2.2.4.2.7.2s.7-.1,1-.3c.3-.2.5-.5.5-.8v-2.6Z"/>
        <path class="cls-7" d="M495.8,63.4c.5,0,.8-.2,1-.3.2-.2.3-.5.3-.9v-8.1c0-.4,0-.6,0-.8-.1-.2-.3-.3-.7-.3s-.2,0-.2,0-.2,0-.3,0v-.3c.7-.2,1.6-.5,2.6-.8,0,0,0,0,0,0,0,0,0,.1,0,.2v9.9c0,.5,0,.8.2.9.2.1.5.2,1,.3v.2h-3.9v-.2Z"/>
        <path class="cls-7" d="M505,58.4c-.3-1-.9-1.7-1.6-1.7s-1,.5-1,1.1.6,1.1,1.3,1.4c1.2.5,2,1.1,2,2.3s-1.3,2.3-2.6,2.3-1.6-.3-1.8-.5c-.1-.2-.3-1.4-.3-2h.4c.3,1,1,2,1.9,2s1.1-.5,1.1-1.1-.4-1.1-1.2-1.4c-.9-.4-2-1-2-2.3s.9-2.2,2.4-2.2,1.1.1,1.4.3c.1.4.3,1.4.4,1.8h-.4Z"/>
      </g>
    </g>
  </g>
</svg>