<?xml version="1.0" encoding="UTF-8"?>
<svg id="Layer_2" data-name="Layer 2" xmlns="http://www.w3.org/2000/svg" xmlns:xlink="http://www.w3.org/1999/xlink" viewBox="0 0 616.9 94.6">
  <defs>
    <style>
      .cls-1 {
        fill: #d1451e;
      }

      .cls-1, .cls-2, .cls-3, .cls-4, .cls-5, .cls-6, .cls-7, .cls-8, .cls-9, .cls-10, .cls-11, .cls-12 {
        stroke-width: 0px;
      }

      .cls-2, .cls-7 {
        fill: #265971;
      }

      .cls-3 {
        fill: url(#linear-gradient);
      }

      .cls-4 {
        fill: url(#radial-gradient);
      }

      .cls-5 {
        fill: #7ab055;
      }

      .cls-6 {
        fill: #d74a2a;
      }

      .cls-7, .cls-13, .cls-11 {
        opacity: .4;
      }

      .cls-8 {
        fill: url(#radial-gradient-2);
      }

      .cls-9 {
        fill: url(#radial-gradient-3);
      }

      .cls-10 {
        fill: #1d496d;
      }

      .cls-11 {
        fill: url(#linear-gradient-2);
      }

      .cls-12 {
        fill: #fff;
      }
    </style>
    <radialGradient id="radial-gradient" cx="490.5" cy="33.3" fx="490.5" fy="33.3" r="66.6" gradientUnits="userSpaceOnUse">
      <stop offset="0" stop-color="#82c8e7"/>
      <stop offset="1" stop-color="#265971"/>
    </radialGradient>
    <radialGradient id="radial-gradient-2" cx="490.5" cy="33.3" fx="490.5" fy="33.3" r="66.6" xlink:href="#radial-gradient"/>
    <linearGradient id="linear-gradient" x1="560.9" y1="10.1" x2="561.6" y2="43.9" gradientUnits="userSpaceOnUse">
      <stop offset="0" stop-color="#7ab055"/>
      <stop offset="1" stop-color="#5a8146"/>
    </linearGradient>
    <linearGradient id="linear-gradient-2" x1="560.9" y1="14" x2="561.7" y2="47.8" xlink:href="#linear-gradient"/>
    <radialGradient id="radial-gradient-3" cx="488.3" cy="9.2" fx="488.3" fy="9.2" r="47.4" xlink:href="#radial-gradient"/>
  </defs>
  <g id="Layer_1-2" data-name="Layer 1">
    <g>
      <g>
        <g>
          <path class="cls-2" d="M425.8,13.7h4.1v33.3h17v4h-21V13.7Z"/>
          <path class="cls-2" d="M452.2,13.8h4.2v37.1h-4.2V13.8Z"/>
          <path class="cls-2" d="M545.9,41.4c0,4.8-3.9,7.4-8.3,9.6h-10.2c1.4-.8,2.8-1.4,4.1-2,.4-.2.8-.3,1.1-.5,5.4-2.4,8.9-4.2,8.9-7.1s-3.5-4.7-9-7.1c-5.4-2.4-11.5-5.1-11.5-11s3.9-7.4,8.3-9.6h10.2c-1.6.9-3.4,1.7-5.2,2.5-5.4,2.4-9,4.2-9,7.1s3.5,4.7,9,7.1c5.4,2.4,11.5,5.1,11.5,11Z"/>
          <path class="cls-4" d="M507,37.6c1.5,7.2,2.9,12.6,4.4,16.5-5.5,5.4-13.1,8.8-21.5,8.8s-16-3.4-21.6-8.9c2-4.5,3.5-10.1,4.4-15.8.6-4.1,1.5-9.7,2.6-14.3,1.1-4.8,2-6.8,2.5-7.6.4.6,1,2,1.7,4.9.8,3.2,1.5,7.4,2.1,11.4.8,4.6,1.5,9.4,2.5,13,.9,3.4,2.4,7.4,5.7,7.4s4.8-4,5.7-7.4c1-3.6,1.8-8.4,2.5-13,.7-4,1.3-8.2,2.1-11.4.7-2.9,1.3-4.3,1.7-4.9.4.6.9,1.9,1.6,4.7.8,3,1.5,6.9,2.2,10.6.4,2,.8,4.1,1.2,6Z"/>
          <path class="cls-8" d="M520.5,32.4c0,6.7-2.2,13-5.9,18-1.1-3.5-2.3-8-3.4-13.6-.4-1.9-.8-3.9-1.1-5.9-.8-4.3-1.6-8.7-2.6-12.1-1-3.5-2.4-7.1-5.4-7.1s-4.8,4-5.7,7.4c-1,3.6-1.8,8.4-2.5,13-.7,4-1.3,8.2-2.1,11.4-.8,3.2-1.4,4.5-1.8,5-.4-.5-1-1.9-1.8-5-.8-3.2-1.5-7.4-2.1-11.4-.8-4.6-1.5-9.4-2.5-13-.9-3.4-2.4-7.4-5.7-7.4s-3.8,2.7-4.2,3.6c-.7,1.5-1.4,3.6-2.1,6.4-1.2,5-2.2,11.3-2.9,16-.7,4.5-1.9,9-3.3,12.8-3.7-5.1-5.9-11.3-5.9-18,0-16.9,13.7-30.6,30.6-30.6s10.2,1.3,14.5,3.7c0,.3,0,.5,0,.8,0,5.1,4.1,9.2,9.2,9.2s1.2,0,1.7-.2c3.3,4.9,5.2,10.8,5.2,17.1Z"/>
        </g>
        <path class="cls-3" d="M549.8,47v3.9h23.3v-3.9h-23.3ZM549.8,30.4v3.9h23.3v-3.9h-23.3ZM569.1,13.7h-19.4v3.9h23.3l-3.9-3.9Z"/>
        <path class="cls-11" d="M573,17.6v3.9h-23.3v-3.9h23.3ZM573,34.3v3.9h-23.3v-3.9h23.3ZM573,50.9v3.9h-23.3v-3.9h23.3Z"/>
        <path class="cls-2" d="M585.6,17.6h-9.7v-3.9h23.5v3.9h-9.6v33.4h-4.2V17.6Z"/>
        <g class="cls-13">
          <path class="cls-2" d="M527.4,51h10.2c-1.1.5-2.2,1-3.2,1.5-.4.2-.7.3-1.1.5-6.5,2.9-7.8,4.6-7.8,6.5h-4.3c0-4.1,3.1-6.7,6.3-8.5Z"/>
          <path class="cls-2" d="M545.9,5.2c0,4-2.8,6.6-6.4,8.6h-10.2c1.1-.5,2.2-1,3.3-1.5,5.4-2.4,9-4.2,9-7.1h4.3Z"/>
        </g>
        <path class="cls-12" d="M460.5,58.5s0,0,0,0c0,0,0,0,0,0Z"/>
        <circle class="cls-5" cx="512.9" cy="7" r="7"/>
        <circle class="cls-7" cx="462.1" cy="57.8" r="2.8"/>
        <path class="cls-9" d="M511.4,54.2c-.3.3-.5.5-.8.8-1.2-3.7-2.4-8.4-3.6-14.2-.4-1.9-.8-4-1.2-6-.7-3.7-1.4-7.6-2.2-10.6-.7-2.7-1.3-4-1.6-4.7-.4.6-1,2-1.7,4.9-.8,3.2-1.5,7.4-2.1,11.4-.8,4.6-1.5,9.4-2.5,13-.9,3.4-2.4,7.4-5.7,7.4s-4.8-4-5.7-7.4c-1-3.6-1.8-8.4-2.5-13-.7-4-1.3-8.2-2.1-11.4-.7-3-1.4-4.3-1.7-4.9-.5.8-1.4,2.8-2.5,7.6-1,4.6-1.9,10.2-2.6,14.3-.8,4.8-2,9.5-3.5,13.6-.3-.3-.6-.6-.9-.9,2-4.5,3.5-10.1,4.4-15.8.6-4.1,1.5-9.7,2.6-14.3,1.1-4.8,2-6.8,2.5-7.6.4.6,1,2,1.7,4.9.8,3.2,1.5,7.4,2.1,11.4.8,4.6,1.5,9.4,2.5,13,.9,3.4,2.4,7.4,5.7,7.4s4.8-4,5.7-7.4c1-3.6,1.8-8.4,2.5-13,.7-4,1.3-8.2,2.1-11.4.7-2.9,1.3-4.3,1.7-4.9.4.6.9,1.9,1.6,4.7.8,3,1.5,6.9,2.2,10.6.4,2,.8,4.1,1.2,6,1.5,7.2,2.9,12.6,4.4,16.5Z"/>
        <rect class="cls-7" x="558.4" y="9.8" width="6.1" height="3.9"/>
      </g>
      <g>
        <g>
          <rect class="cls-6" y="11.4" width="80.2" height="80.2"/>
          <path class="cls-12" d="M61.4,27.6v28.1c0,6.3-1.9,11.4-5.6,15.2-3.7,3.8-9,5.7-15.7,5.7s-12-1.9-15.8-5.7c-3.7-3.8-5.6-8.9-5.6-15.2v-28.1h11.5v27.9c0,3.2.8,5.8,2.5,7.7,1.7,2,4.1,3,7.3,3s5.6-1,7.3-3c1.7-2,2.5-4.6,2.5-7.7v-27.9h11.5Z"/>
          <rect class="cls-6" x="88.3" y="11.4" width="80.2" height="80.2"/>
          <rect class="cls-6" x="176.4" y="11.4" width="80.2" height="80.2"/>
          <rect class="cls-6" x="264.6" y="11.4" width="80.2" height="80.2"/>
          <polygon class="cls-12" points="153.9 27.5 153.9 75.6 142.5 75.6 142.5 47.4 128.3 66.7 114.2 47.4 114.2 75.6 102.8 75.6 102.8 27.5 113.6 27.5 128.4 48.8 143 27.5 153.9 27.5"/>
          <path class="cls-12" d="M221.9,64.5c1.3-1.3,2-3,2-5.1s-.7-3.7-2-5c-1.3-1.4-3.1-2-5.4-2s-4,.7-5.3,2c-1.4,1.3-2.1,3-2.1,5.1s.7,3.8,2,5.1c1.4,1.3,3.2,2,5.4,2s4-.7,5.4-2M230.5,47.7c3.2,3.1,4.8,7,4.8,11.7s-1.8,9.1-5.3,12.4-8,4.9-13.4,4.9-9.8-1.6-13.4-4.9c-3.6-3.3-5.4-7.4-5.4-12.4s1.1-6.6,3.4-10.2l13.7-21.6h12.8l-9.4,14.9c5,.4,9.1,2.1,12.2,5.2"/>
          <path class="cls-12" d="M311.9,49.8c1.3-1.4,1.9-3.1,1.9-4.9s-.6-3.5-1.8-4.9c-1.2-1.4-2.8-2.1-4.6-2.1h-11.6v14.1h11.1c2,0,3.7-.7,5-2.1M320.1,32.8c3.2,3.5,4.8,7.5,4.8,12s-1.6,8.6-4.8,12.1c-3.2,3.5-7.5,5.3-12.9,5.3h-11.4v13.4h-11.3V27.5h23.1c5.1,0,9.3,1.8,12.5,5.3"/>
        </g>
        <rect class="cls-1" x="385.1" y="11.4" width="1" height="80.2"/>
      </g>
      <g>
        <path class="cls-10" d="M426.3,76.8h2.7v.8h-3.7v-7.8h1v7Z"/>
        <path class="cls-10" d="M433.9,71.9c.4.3.7.7.8,1.2v-1.5h1v6h-1v-1.5c-.2.5-.4.9-.8,1.2-.4.3-.9.4-1.5.4s-1-.1-1.4-.4c-.4-.2-.7-.6-1-1.1s-.3-1-.3-1.6.1-1.2.3-1.7c.2-.5.6-.8,1-1.1.4-.2.9-.4,1.4-.4s1.1.1,1.5.4ZM431.3,73c-.4.4-.5.9-.5,1.6s.2,1.2.5,1.6c.4.4.8.6,1.4.6s.7,0,1-.3c.3-.2.5-.4.7-.8.2-.3.3-.7.3-1.2s0-.8-.3-1.2c-.2-.3-.4-.6-.7-.8s-.6-.3-1-.3c-.6,0-1.1.2-1.4.6Z"/>
        <path class="cls-10" d="M441.9,71.9c.4.2.7.6,1,1.1.2.5.3,1,.3,1.7s-.1,1.2-.3,1.6c-.2.5-.6.8-1,1.1s-.9.4-1.4.4-1.1-.1-1.5-.4c-.4-.3-.7-.7-.8-1.2v1.5h-1v-8.1h1v3.6c.1-.5.4-.9.8-1.2.4-.3.9-.4,1.5-.4s1,.1,1.4.4ZM439.2,72.6c-.3.2-.5.4-.7.8-.2.3-.3.7-.3,1.2s0,.8.3,1.2c.2.3.4.6.7.8.3.2.7.3,1,.3.6,0,1.1-.2,1.5-.6.4-.4.5-.9.5-1.6s-.2-1.2-.5-1.6c-.4-.4-.8-.6-1.5-.6s-.7,0-1,.3Z"/>
        <path class="cls-10" d="M448.7,71.9c.4.2.8.6,1.1,1.1.3.5.4,1,.4,1.7s-.1,1.2-.4,1.6-.6.8-1.1,1.1c-.4.2-1,.4-1.5.4s-1.1-.1-1.5-.4c-.4-.2-.8-.6-1.1-1.1-.3-.5-.4-1-.4-1.6s.1-1.2.4-1.7c.3-.5.6-.8,1.1-1.1.4-.2,1-.4,1.5-.4s1.1.1,1.5.4ZM446.2,72.6c-.3.2-.5.4-.7.7-.2.3-.3.7-.3,1.2s0,.9.3,1.2c.2.3.4.6.7.7s.6.2,1,.2.7,0,1-.2.5-.4.7-.7c.2-.3.3-.7.3-1.2s0-.9-.3-1.2c-.2-.3-.4-.6-.7-.7s-.6-.2-1-.2-.7,0-1,.2Z"/>
        <path class="cls-10" d="M453.2,71.8c.4-.2.8-.3,1.3-.3v1.1h-.3c-.6,0-1,.1-1.4.4-.4.3-.5.8-.5,1.4v3.2h-1v-6h1v1.2c.2-.4.5-.7.8-1Z"/>
        <path class="cls-10" d="M459.3,71.9c.4.3.7.7.8,1.2v-1.5h1v6h-1v-1.5c-.2.5-.4.9-.8,1.2-.4.3-.9.4-1.5.4s-1-.1-1.4-.4c-.4-.2-.7-.6-1-1.1s-.3-1-.3-1.6.1-1.2.3-1.7c.2-.5.6-.8,1-1.1.4-.2.9-.4,1.4-.4s1.1.1,1.5.4ZM456.7,73c-.4.4-.5.9-.5,1.6s.2,1.2.5,1.6c.4.4.8.6,1.4.6s.7,0,1-.3c.3-.2.5-.4.7-.8.2-.3.3-.7.3-1.2s0-.8-.3-1.2c-.2-.3-.4-.6-.7-.8s-.6-.3-1-.3c-.6,0-1.1.2-1.4.6Z"/>
        <path class="cls-10" d="M465.5,76.7v.9h-.7c-.6,0-1-.1-1.3-.4-.3-.3-.4-.8-.4-1.5v-3.3h-.9v-.9h.9v-1.5h1v1.5h1.5v.9h-1.5v3.3c0,.4,0,.7.2.8.1.1.4.2.7.2h.6Z"/>
        <path class="cls-10" d="M470.9,71.9c.4.2.8.6,1.1,1.1.3.5.4,1,.4,1.7s-.1,1.2-.4,1.6-.6.8-1.1,1.1c-.4.2-1,.4-1.5.4s-1.1-.1-1.5-.4c-.4-.2-.8-.6-1.1-1.1-.3-.5-.4-1-.4-1.6s.1-1.2.4-1.7c.3-.5.6-.8,1.1-1.1.4-.2,1-.4,1.5-.4s1.1.1,1.5.4ZM468.4,72.6c-.3.2-.5.4-.7.7-.2.3-.3.7-.3,1.2s0,.9.3,1.2c.2.3.4.6.7.7s.6.2,1,.2.7,0,1-.2.5-.4.7-.7c.2-.3.3-.7.3-1.2s0-.9-.3-1.2c-.2-.3-.4-.6-.7-.7s-.6-.2-1-.2-.7,0-1,.2Z"/>
        <path class="cls-10" d="M475.4,71.8c.4-.2.8-.3,1.3-.3v1.1h-.3c-.6,0-1,.1-1.4.4-.4.3-.5.8-.5,1.4v3.2h-1v-6h1v1.2c.2-.4.5-.7.8-1Z"/>
        <path class="cls-10" d="M478.1,71.6l1.9,4.8,1.8-4.8h1.1l-3.5,8.9h-1.1l1.2-3-2.5-5.9h1.1Z"/>
        <path class="cls-10" d="M490.6,71.9c.4.2.8.6,1.1,1.1.3.5.4,1,.4,1.7s-.1,1.2-.4,1.6-.6.8-1.1,1.1c-.4.2-1,.4-1.5.4s-1.1-.1-1.5-.4c-.4-.2-.8-.6-1.1-1.1-.3-.5-.4-1-.4-1.6s.1-1.2.4-1.7c.3-.5.6-.8,1.1-1.1.4-.2,1-.4,1.5-.4s1.1.1,1.5.4ZM488.1,72.6c-.3.2-.5.4-.7.7-.2.3-.3.7-.3,1.2s0,.9.3,1.2c.2.3.4.6.7.7s.6.2,1,.2.7,0,1-.2.5-.4.7-.7c.2-.3.3-.7.3-1.2s0-.9-.3-1.2c-.2-.3-.4-.6-.7-.7s-.6-.2-1-.2-.7,0-1,.2Z"/>
        <path class="cls-10" d="M494.8,70.4c-.2.2-.3.5-.3,1v.2h1.4v.9h-1.4v5.2h-1v-5.2h-.8v-.9h.8v-.2c0-1.4.8-2.1,2.4-2.1v.9c-.5,0-.9,0-1.1.3Z"/>
        <path class="cls-10" d="M500.6,69.8v7.8h-1v-7.8h1Z"/>
        <path class="cls-10" d="M506.9,72.1c.4.5.6,1.1.6,2v3.5h-1v-3.4c0-.6-.1-1.1-.5-1.4-.3-.3-.7-.5-1.2-.5s-1,.2-1.3.5c-.3.4-.5.9-.5,1.6v3.2h-1v-6h1v1.4c.1-.5.4-.9.8-1.1.4-.3.8-.4,1.3-.4s1.2.2,1.7.7Z"/>
        <path class="cls-10" d="M513.3,71.9c.4.2.8.6,1.1,1.1.3.5.4,1,.4,1.7s-.1,1.2-.4,1.6-.6.8-1.1,1.1c-.4.2-1,.4-1.5.4s-1.1-.1-1.5-.4c-.4-.2-.8-.6-1.1-1.1-.3-.5-.4-1-.4-1.6s.1-1.2.4-1.7c.3-.5.6-.8,1.1-1.1.4-.2,1-.4,1.5-.4s1.1.1,1.5.4ZM510.8,72.6c-.3.2-.5.4-.7.7-.2.3-.3.7-.3,1.2s0,.9.3,1.2c.2.3.4.6.7.7s.6.2,1,.2.7,0,1-.2.5-.4.7-.7c.2-.3.3-.7.3-1.2s0-.9-.3-1.2c-.2-.3-.4-.6-.7-.7s-.6-.2-1-.2-.7,0-1,.2Z"/>
        <path class="cls-10" d="M517.8,71.8c.4-.2.8-.3,1.3-.3v1.1h-.3c-.6,0-1,.1-1.4.4-.4.3-.5.8-.5,1.4v3.2h-1v-6h1v1.2c.2-.4.5-.7.8-1Z"/>
        <path class="cls-10" d="M523.9,71.9c.4.3.7.7.8,1.2v-1.5h1v6.1c0,.6-.1,1.1-.3,1.5-.2.4-.6.8-1,1-.4.2-.9.4-1.4.4-.8,0-1.4-.2-1.9-.6-.5-.4-.8-.9-1-1.6h1c.1.4.3.7.6,1,.3.2.7.3,1.2.3s1-.2,1.3-.5c.3-.3.5-.8.5-1.5v-1.6c-.2.5-.4.9-.8,1.2-.4.3-.9.4-1.5.4s-1-.1-1.4-.4c-.4-.2-.7-.6-1-1.1s-.3-1-.3-1.6.1-1.2.3-1.7c.2-.5.6-.8,1-1.1.4-.2.9-.4,1.4-.4s1.1.1,1.5.4ZM521.3,73c-.4.4-.5.9-.5,1.6s.2,1.2.5,1.6c.4.4.8.6,1.4.6s.7,0,1-.3c.3-.2.5-.4.7-.8.2-.3.3-.7.3-1.2s0-.8-.3-1.2c-.2-.3-.4-.6-.7-.8s-.6-.3-1-.3c-.6,0-1.1.2-1.4.6Z"/>
        <path class="cls-10" d="M531.2,71.9c.4.3.7.7.8,1.2v-1.5h1v6h-1v-1.5c-.2.5-.4.9-.8,1.2-.4.3-.9.4-1.5.4s-1-.1-1.4-.4c-.4-.2-.7-.6-1-1.1s-.3-1-.3-1.6.1-1.2.3-1.7c.2-.5.6-.8,1-1.1.4-.2.9-.4,1.4-.4s1.1.1,1.5.4ZM528.6,73c-.4.4-.5.9-.5,1.6s.2,1.2.5,1.6c.4.4.8.6,1.4.6s.7,0,1-.3c.3-.2.5-.4.7-.8.2-.3.3-.7.3-1.2s0-.8-.3-1.2c-.2-.3-.4-.6-.7-.8s-.6-.3-1-.3c-.6,0-1.1.2-1.4.6Z"/>
        <path class="cls-10" d="M539.3,72.1c.4.5.6,1.1.6,2v3.5h-1v-3.4c0-.6-.1-1.1-.5-1.4-.3-.3-.7-.5-1.2-.5s-1,.2-1.3.5c-.3.4-.5.9-.5,1.6v3.2h-1v-6h1v1.4c.1-.5.4-.9.8-1.1.4-.3.8-.4,1.3-.4s1.2.2,1.7.7Z"/>
        <path class="cls-10" d="M541.4,69.3c.1-.1.3-.2.5-.2s.4,0,.5.2c.1.1.2.3.2.4s0,.3-.2.4c-.1.1-.3.2-.5.2s-.4,0-.5-.2c-.1-.1-.2-.3-.2-.4s0-.3.2-.4ZM542.4,71.6v6h-1v-6h1Z"/>
        <path class="cls-10" d="M548.4,72.1c.5.4.8,1,.9,1.7h-1c0-.4-.3-.8-.6-1-.3-.2-.7-.4-1.2-.4s-.7,0-.9.2-.5.4-.7.7c-.2.3-.3.7-.3,1.2s0,.9.3,1.2c.2.3.4.6.7.7s.6.2.9.2.9-.1,1.2-.4.5-.6.6-1h1c-.1.7-.4,1.2-.9,1.7-.5.4-1.1.6-1.9.6s-1.1-.1-1.5-.4c-.4-.2-.8-.6-1-1.1-.2-.5-.4-1-.4-1.6s.1-1.2.4-1.7c.2-.5.6-.8,1-1.1.4-.2.9-.4,1.5-.4s1.4.2,1.9.6Z"/>
        <path class="cls-10" d="M560.8,70v7.6h-1v-6.1l-2.4,6.1h-.9l-2.4-6.1v6.1h-1v-7.6h1.2l2.6,6.4,2.6-6.4h1.2Z"/>
        <path class="cls-10" d="M566.3,71.9c.4.3.7.7.8,1.2v-1.5h1v6h-1v-1.5c-.2.5-.4.9-.8,1.2-.4.3-.9.4-1.5.4s-1-.1-1.4-.4c-.4-.2-.7-.6-1-1.1s-.3-1-.3-1.6.1-1.2.3-1.7c.2-.5.6-.8,1-1.1.4-.2.9-.4,1.4-.4s1.1.1,1.5.4ZM563.7,73c-.4.4-.5.9-.5,1.6s.2,1.2.5,1.6c.4.4.8.6,1.4.6s.7,0,1-.3c.3-.2.5-.4.7-.8.2-.3.3-.7.3-1.2s0-.8-.3-1.2c-.2-.3-.4-.6-.7-.8s-.6-.3-1-.3c-.6,0-1.1.2-1.4.6Z"/>
        <path class="cls-10" d="M572.5,76.7v.9h-.7c-.6,0-1-.1-1.3-.4-.3-.3-.4-.8-.4-1.5v-3.3h-.9v-.9h.9v-1.5h1v1.5h1.5v.9h-1.5v3.3c0,.4,0,.7.2.8.1.1.4.2.7.2h.6Z"/>
        <path class="cls-10" d="M579,74.8h-4.7c0,.7.2,1.2.6,1.6.4.3.8.5,1.3.5s.9-.1,1.2-.4.5-.6.6-1h1c0,.4-.2.8-.5,1.1-.2.3-.6.6-1,.8-.4.2-.8.3-1.3.3s-1.1-.1-1.5-.4c-.4-.2-.8-.6-1-1.1-.2-.5-.4-1-.4-1.6s.1-1.2.4-1.7c.2-.5.6-.8,1-1.1.4-.2.9-.4,1.5-.4s1.1.1,1.5.4c.4.2.8.6,1,1,.2.4.3.9.3,1.4s0,.4,0,.6ZM577.9,73.2c-.2-.3-.4-.5-.7-.7s-.6-.2-.9-.2c-.5,0-1,.2-1.4.5-.4.3-.6.8-.6,1.5h3.8c0-.4,0-.8-.2-1.1Z"/>
        <path class="cls-10" d="M582.2,71.8c.4-.2.8-.3,1.3-.3v1.1h-.3c-.6,0-1,.1-1.4.4-.4.3-.5.8-.5,1.4v3.2h-1v-6h1v1.2c.2-.4.5-.7.8-1Z"/>
        <path class="cls-10" d="M584.5,69.3c.1-.1.3-.2.5-.2s.4,0,.5.2c.1.1.2.3.2.4s0,.3-.2.4c-.1.1-.3.2-.5.2s-.4,0-.5-.2c-.1-.1-.2-.3-.2-.4s0-.3.2-.4ZM585.4,71.6v6h-1v-6h1Z"/>
        <path class="cls-10" d="M590.9,71.9c.4.3.7.7.8,1.2v-1.5h1v6h-1v-1.5c-.2.5-.4.9-.8,1.2-.4.3-.9.4-1.5.4s-1-.1-1.4-.4c-.4-.2-.7-.6-1-1.1s-.3-1-.3-1.6.1-1.2.3-1.7c.2-.5.6-.8,1-1.1.4-.2.9-.4,1.4-.4s1.1.1,1.5.4ZM588.2,73c-.4.4-.5.9-.5,1.6s.2,1.2.5,1.6c.4.4.8.6,1.4.6s.7,0,1-.3c.3-.2.5-.4.7-.8.2-.3.3-.7.3-1.2s0-.8-.3-1.2c-.2-.3-.4-.6-.7-.8s-.6-.3-1-.3c-.6,0-1.1.2-1.4.6Z"/>
        <path class="cls-10" d="M595.2,69.5v8.1h-1v-8.1h1Z"/>
        <path class="cls-10" d="M600.2,72c.4.4.6.8.7,1.4h-.9c0-.4-.2-.7-.4-.9-.2-.2-.6-.3-1-.3s-.6,0-.8.3c-.2.2-.3.4-.3.7s0,.4.2.5c.1.1.3.2.5.3.2,0,.5.1.8.2.4.1.8.2,1.1.3.3.1.5.3.7.5.2.2.3.5.3.9s-.2.9-.5,1.2c-.4.3-.8.5-1.4.5s-1.3-.2-1.7-.5c-.4-.3-.7-.8-.8-1.4h.9c0,.4.2.7.5.9.3.2.6.3,1.1.3s.6,0,.8-.3.3-.4.3-.7,0-.4-.2-.6-.3-.2-.5-.3c-.2,0-.5-.1-.8-.2-.4-.1-.8-.2-1-.3-.3-.1-.5-.3-.7-.5s-.3-.5-.3-.9.2-.9.5-1.2.9-.5,1.5-.5,1.2.2,1.6.5Z"/>
        <path class="cls-10" d="M426.9,84.4c-.2.2-.3.5-.3,1v.2h1.4v.9h-1.4v5.2h-1v-5.2h-.8v-.9h.8v-.2c0-1.4.8-2.1,2.4-2.1v.9c-.5,0-.9,0-1.1.3Z"/>
        <path class="cls-10" d="M433.2,85.9c.4.2.8.6,1.1,1.1.3.5.4,1,.4,1.7s-.1,1.2-.4,1.6-.6.8-1.1,1.1c-.4.2-1,.4-1.5.4s-1.1-.1-1.5-.4c-.4-.2-.8-.6-1.1-1.1-.3-.5-.4-1-.4-1.6s.1-1.2.4-1.7c.3-.5.6-.8,1.1-1.1.4-.2,1-.4,1.5-.4s1.1.1,1.5.4ZM430.7,86.6c-.3.2-.5.4-.7.7-.2.3-.3.7-.3,1.2s0,.9.3,1.2c.2.3.4.6.7.7s.6.2,1,.2.7,0,1-.2.5-.4.7-.7c.2-.3.3-.7.3-1.2s0-.9-.3-1.2c-.2-.3-.4-.6-.7-.7s-.6-.2-1-.2-.7,0-1,.2Z"/>
        <path class="cls-10" d="M437.7,85.8c.4-.2.8-.3,1.3-.3v1.1h-.3c-.6,0-1,.1-1.4.4-.4.3-.5.8-.5,1.4v3.2h-1v-6h1v1.2c.2-.4.5-.7.8-1Z"/>
        <path class="cls-10" d="M447.2,90.6c-.2.3-.4.6-.8.8-.4.2-.8.3-1.3.3s-.9,0-1.3-.3c-.4-.2-.7-.4-.9-.8-.2-.3-.4-.7-.4-1.1h1c0,.2,0,.4.2.6s.3.4.5.5.5.2.8.2.8-.1,1-.4c.2-.2.3-.5.3-.9s0-.6-.2-.8c-.2-.2-.4-.4-.6-.5-.2-.1-.6-.2-1-.4-.5-.2-.9-.3-1.2-.5-.3-.1-.5-.4-.7-.6-.2-.3-.3-.7-.3-1.1s0-.8.3-1.1c.2-.3.5-.5.8-.7.4-.2.8-.3,1.2-.3.7,0,1.3.2,1.8.6.4.4.7.8.8,1.4h-1.1c0-.3-.2-.6-.5-.8-.3-.2-.6-.4-1-.4s-.7.1-.9.3c-.2.2-.4.5-.4.9s0,.5.2.7c.2.2.3.3.6.4.2.1.5.2.9.4.5.2.9.3,1.2.5.3.1.5.4.8.7s.3.7.3,1.2,0,.7-.3,1Z"/>
        <path class="cls-10" d="M454,85.6v6h-1v-1.4c-.2.5-.4.9-.8,1.1-.4.3-.8.4-1.3.4s-1.2-.2-1.7-.7c-.4-.5-.6-1.1-.6-1.9v-3.5h1v3.4c0,.6.2,1.1.5,1.4.3.3.7.5,1.2.5s1-.2,1.3-.5c.3-.4.5-.9.5-1.6v-3.2h1Z"/>
        <path class="cls-10" d="M459,86c.4.4.6.8.7,1.4h-.9c0-.4-.2-.7-.4-.9-.2-.2-.6-.3-1-.3s-.6,0-.8.3c-.2.2-.3.4-.3.7s0,.4.2.5c.1.1.3.2.5.3.2,0,.5.1.8.2.4.1.8.2,1.1.3.3.1.5.3.7.5.2.2.3.5.3.9s-.2.9-.5,1.2c-.4.3-.8.5-1.4.5s-1.3-.2-1.7-.5c-.4-.3-.7-.8-.8-1.4h.9c0,.4.2.7.5.9.3.2.6.3,1.1.3s.6,0,.8-.3.3-.4.3-.7,0-.4-.2-.6-.3-.2-.5-.3c-.2,0-.5-.1-.8-.2-.4-.1-.8-.2-1-.3-.3-.1-.5-.3-.7-.5s-.3-.5-.3-.9.2-.9.5-1.2.9-.5,1.5-.5,1.2.2,1.6.5Z"/>
        <path class="cls-10" d="M463.9,90.7v.9h-.7c-.6,0-1-.1-1.3-.4-.3-.3-.4-.8-.4-1.5v-3.3h-.9v-.9h.9v-1.5h1v1.5h1.5v.9h-1.5v3.3c0,.4,0,.7.2.8.1.1.4.2.7.2h.6Z"/>
        <path class="cls-10" d="M469,85.9c.4.3.7.7.8,1.2v-1.5h1v6h-1v-1.5c-.2.5-.4.9-.8,1.2-.4.3-.9.4-1.5.4s-1-.1-1.4-.4c-.4-.2-.7-.6-1-1.1s-.3-1-.3-1.6.1-1.2.3-1.7c.2-.5.6-.8,1-1.1.4-.2.9-.4,1.4-.4s1.1.1,1.5.4ZM466.4,87c-.4.4-.5.9-.5,1.6s.2,1.2.5,1.6c.4.4.8.6,1.4.6s.7,0,1-.3c.3-.2.5-.4.7-.8.2-.3.3-.7.3-1.2s0-.8-.3-1.2c-.2-.3-.4-.6-.7-.8s-.6-.3-1-.3c-.6,0-1.1.2-1.4.6Z"/>
        <path class="cls-10" d="M472.4,83.3c.1-.1.3-.2.5-.2s.4,0,.5.2c.1.1.2.3.2.4s0,.3-.2.4c-.1.1-.3.2-.5.2s-.4,0-.5-.2c-.1-.1-.2-.3-.2-.4s0-.3.2-.4ZM473.3,85.6v6h-1v-6h1Z"/>
        <path class="cls-10" d="M479.6,86.1c.4.5.6,1.1.6,2v3.5h-1v-3.4c0-.6-.1-1.1-.5-1.4-.3-.3-.7-.5-1.2-.5s-1,.2-1.3.5c-.3.4-.5.9-.5,1.6v3.2h-1v-6h1v1.4c.1-.5.4-.9.8-1.1.4-.3.8-.4,1.3-.4s1.2.2,1.7.7Z"/>
        <path class="cls-10" d="M485.6,85.9c.4.3.7.7.8,1.2v-1.5h1v6h-1v-1.5c-.2.5-.4.9-.8,1.2-.4.3-.9.4-1.5.4s-1-.1-1.4-.4c-.4-.2-.7-.6-1-1.1s-.3-1-.3-1.6.1-1.2.3-1.7c.2-.5.6-.8,1-1.1.4-.2.9-.4,1.4-.4s1.1.1,1.5.4ZM483,87c-.4.4-.5.9-.5,1.6s.2,1.2.5,1.6c.4.4.8.6,1.4.6s.7,0,1-.3c.3-.2.5-.4.7-.8.2-.3.3-.7.3-1.2s0-.8-.3-1.2c-.2-.3-.4-.6-.7-.8s-.6-.3-1-.3c-.6,0-1.1.2-1.4.6Z"/>
        <path class="cls-10" d="M493.7,85.9c.4.2.7.6,1,1.1.2.5.3,1,.3,1.7s-.1,1.2-.3,1.6c-.2.5-.6.8-1,1.1s-.9.4-1.4.4-1.1-.1-1.5-.4c-.4-.3-.7-.7-.8-1.2v1.5h-1v-8.1h1v3.6c.1-.5.4-.9.8-1.2.4-.3.9-.4,1.5-.4s1,.1,1.4.4ZM490.9,86.6c-.3.2-.5.4-.7.8-.2.3-.3.7-.3,1.2s0,.8.3,1.2c.2.3.4.6.7.8.3.2.7.3,1,.3.6,0,1.1-.2,1.5-.6.4-.4.5-.9.5-1.6s-.2-1.2-.5-1.6c-.4-.4-.8-.6-1.5-.6s-.7,0-1,.3Z"/>
        <path class="cls-10" d="M497.2,83.5v8.1h-1v-8.1h1Z"/>
        <path class="cls-10" d="M504.1,88.8h-4.7c0,.7.2,1.2.6,1.6.4.3.8.5,1.3.5s.9-.1,1.2-.4.5-.6.6-1h1c0,.4-.2.8-.5,1.1-.2.3-.6.6-1,.8-.4.2-.8.3-1.3.3s-1.1-.1-1.5-.4c-.4-.2-.8-.6-1-1.1-.2-.5-.4-1-.4-1.6s.1-1.2.4-1.7c.2-.5.6-.8,1-1.1.4-.2.9-.4,1.5-.4s1.1.1,1.5.4c.4.2.8.6,1,1,.2.4.3.9.3,1.4s0,.4,0,.6ZM503,87.2c-.2-.3-.4-.5-.7-.7s-.6-.2-.9-.2c-.5,0-1,.2-1.4.5-.4.3-.6.8-.6,1.5h3.8c0-.4,0-.8-.2-1.1Z"/>
        <path class="cls-10" d="M509.1,84.7v2.7h2.9v.8h-2.9v2.7h3.2v.8h-4.2v-7.8h4.2v.8h-3.2Z"/>
        <path class="cls-10" d="M518.3,86.1c.4.5.6,1.1.6,2v3.5h-1v-3.4c0-.6-.1-1.1-.5-1.4-.3-.3-.7-.5-1.2-.5s-1,.2-1.3.5c-.3.4-.5.9-.5,1.6v3.2h-1v-6h1v1.4c.1-.5.4-.9.8-1.1.4-.3.8-.4,1.3-.4s1.2.2,1.7.7Z"/>
        <path class="cls-10" d="M525.8,88.8h-4.7c0,.7.2,1.2.6,1.6.4.3.8.5,1.3.5s.9-.1,1.2-.4.5-.6.6-1h1c0,.4-.2.8-.5,1.1-.2.3-.6.6-1,.8-.4.2-.8.3-1.3.3s-1.1-.1-1.5-.4c-.4-.2-.8-.6-1-1.1-.2-.5-.4-1-.4-1.6s.1-1.2.4-1.7c.2-.5.6-.8,1-1.1.4-.2.9-.4,1.5-.4s1.1.1,1.5.4c.4.2.8.6,1,1,.2.4.3.9.3,1.4s0,.4,0,.6ZM524.7,87.2c-.2-.3-.4-.5-.7-.7s-.6-.2-.9-.2c-.5,0-1,.2-1.4.5-.4.3-.6.8-.6,1.5h3.8c0-.4,0-.8-.2-1.1Z"/>
        <path class="cls-10" d="M528.9,85.8c.4-.2.8-.3,1.3-.3v1.1h-.3c-.6,0-1,.1-1.4.4-.4.3-.5.8-.5,1.4v3.2h-1v-6h1v1.2c.2-.4.5-.7.8-1Z"/>
        <path class="cls-10" d="M535.1,85.9c.4.3.7.7.8,1.2v-1.5h1v6.1c0,.6-.1,1.1-.3,1.5-.2.4-.6.8-1,1-.4.2-.9.4-1.4.4-.8,0-1.4-.2-1.9-.6-.5-.4-.8-.9-1-1.6h1c.1.4.3.7.6,1,.3.2.7.3,1.2.3s1-.2,1.3-.5c.3-.3.5-.8.5-1.5v-1.6c-.2.5-.4.9-.8,1.2-.4.3-.9.4-1.5.4s-1-.1-1.4-.4c-.4-.2-.7-.6-1-1.1s-.3-1-.3-1.6.1-1.2.3-1.7c.2-.5.6-.8,1-1.1.4-.2.9-.4,1.4-.4s1.1.1,1.5.4ZM532.5,87c-.4.4-.5.9-.5,1.6s.2,1.2.5,1.6c.4.4.8.6,1.4.6s.7,0,1-.3c.3-.2.5-.4.7-.8.2-.3.3-.7.3-1.2s0-.8-.3-1.2c-.2-.3-.4-.6-.7-.8s-.6-.3-1-.3c-.6,0-1.1.2-1.4.6Z"/>
        <path class="cls-10" d="M538.9,85.6l1.9,4.8,1.8-4.8h1.1l-3.5,8.9h-1.1l1.2-3-2.5-5.9h1.1Z"/>
        <path class="cls-10" d="M551.8,83.8v.8h-2.1v6.9h-1v-6.9h-2.1v-.8h5.2Z"/>
        <path class="cls-10" d="M558.1,88.8h-4.7c0,.7.2,1.2.6,1.6.4.3.8.5,1.3.5s.9-.1,1.2-.4.5-.6.6-1h1c0,.4-.2.8-.5,1.1-.2.3-.6.6-1,.8-.4.2-.8.3-1.3.3s-1.1-.1-1.5-.4c-.4-.2-.8-.6-1-1.1-.2-.5-.4-1-.4-1.6s.1-1.2.4-1.7c.2-.5.6-.8,1-1.1.4-.2.9-.4,1.5-.4s1.1.1,1.5.4c.4.2.8.6,1,1,.2.4.3.9.3,1.4s0,.4,0,.6ZM557,87.2c-.2-.3-.4-.5-.7-.7s-.6-.2-.9-.2c-.5,0-1,.2-1.4.5-.4.3-.6.8-.6,1.5h3.8c0-.4,0-.8-.2-1.1Z"/>
        <path class="cls-10" d="M563.9,86.1c.5.4.8,1,.9,1.7h-1c0-.4-.3-.8-.6-1-.3-.2-.7-.4-1.2-.4s-.7,0-.9.2-.5.4-.7.7c-.2.3-.3.7-.3,1.2s0,.9.3,1.2c.2.3.4.6.7.7s.6.2.9.2.9-.1,1.2-.4.5-.6.6-1h1c-.1.7-.4,1.2-.9,1.7-.5.4-1.1.6-1.9.6s-1.1-.1-1.5-.4c-.4-.2-.8-.6-1-1.1-.2-.5-.4-1-.4-1.6s.1-1.2.4-1.7c.2-.5.6-.8,1-1.1.4-.2.9-.4,1.5-.4s1.4.2,1.9.6Z"/>
        <path class="cls-10" d="M570.9,86.1c.4.5.6,1.1.6,2v3.5h-1v-3.4c0-.6-.1-1.1-.5-1.4-.3-.3-.7-.5-1.2-.5s-1,.2-1.3.5c-.3.4-.5.9-.5,1.6v3.2h-1v-8.1h1v3.5c.1-.5.4-.9.8-1.1.4-.3.8-.4,1.3-.4s1.2.2,1.7.7Z"/>
        <path class="cls-10" d="M577.8,86.1c.4.5.6,1.1.6,2v3.5h-1v-3.4c0-.6-.1-1.1-.5-1.4-.3-.3-.7-.5-1.2-.5s-1,.2-1.3.5c-.3.4-.5.9-.5,1.6v3.2h-1v-6h1v1.4c.1-.5.4-.9.8-1.1.4-.3.8-.4,1.3-.4s1.2.2,1.7.7Z"/>
        <path class="cls-10" d="M584.1,85.9c.4.2.8.6,1.1,1.1.3.5.4,1,.4,1.7s-.1,1.2-.4,1.6-.6.8-1.1,1.1c-.4.2-1,.4-1.5.4s-1.1-.1-1.5-.4c-.4-.2-.8-.6-1.1-1.1-.3-.5-.4-1-.4-1.6s.1-1.2.4-1.7c.3-.5.6-.8,1.1-1.1.4-.2,1-.4,1.5-.4s1.1.1,1.5.4ZM581.6,86.6c-.3.2-.5.4-.7.7-.2.3-.3.7-.3,1.2s0,.9.3,1.2c.2.3.4.6.7.7s.6.2,1,.2.7,0,1-.2.5-.4.7-.7c.2-.3.3-.7.3-1.2s0-.9-.3-1.2c-.2-.3-.4-.6-.7-.7s-.6-.2-1-.2-.7,0-1,.2Z"/>
        <path class="cls-10" d="M587.8,83.5v8.1h-1v-8.1h1Z"/>
        <path class="cls-10" d="M593.5,85.9c.4.2.8.6,1.1,1.1.3.5.4,1,.4,1.7s-.1,1.2-.4,1.6-.6.8-1.1,1.1c-.4.2-1,.4-1.5.4s-1.1-.1-1.5-.4c-.4-.2-.8-.6-1.1-1.1-.3-.5-.4-1-.4-1.6s.1-1.2.4-1.7c.3-.5.6-.8,1.1-1.1.4-.2,1-.4,1.5-.4s1.1.1,1.5.4ZM591,86.6c-.3.2-.5.4-.7.7-.2.3-.3.7-.3,1.2s0,.9.3,1.2c.2.3.4.6.7.7s.6.2,1,.2.7,0,1-.2.5-.4.7-.7c.2-.3.3-.7.3-1.2s0-.9-.3-1.2c-.2-.3-.4-.6-.7-.7s-.6-.2-1-.2-.7,0-1,.2Z"/>
        <path class="cls-10" d="M600.1,85.9c.4.3.7.7.8,1.2v-1.5h1v6.1c0,.6-.1,1.1-.3,1.5-.2.4-.6.8-1,1-.4.2-.9.4-1.4.4-.8,0-1.4-.2-1.9-.6-.5-.4-.8-.9-1-1.6h1c.1.4.3.7.6,1,.3.2.7.3,1.2.3s1-.2,1.3-.5c.3-.3.5-.8.5-1.5v-1.6c-.2.5-.4.9-.8,1.2-.4.3-.9.4-1.5.4s-1-.1-1.4-.4c-.4-.2-.7-.6-1-1.1s-.3-1-.3-1.6.1-1.2.3-1.7c.2-.5.6-.8,1-1.1.4-.2.9-.4,1.4-.4s1.1.1,1.5.4ZM597.5,87c-.4.4-.5.9-.5,1.6s.2,1.2.5,1.6c.4.4.8.6,1.4.6s.7,0,1-.3c.3-.2.5-.4.7-.8.2-.3.3-.7.3-1.2s0-.8-.3-1.2c-.2-.3-.4-.6-.7-.8s-.6-.3-1-.3c-.6,0-1.1.2-1.4.6Z"/>
        <path class="cls-10" d="M603.5,83.3c.1-.1.3-.2.5-.2s.4,0,.5.2c.1.1.2.3.2.4s0,.3-.2.4c-.1.1-.3.2-.5.2s-.4,0-.5-.2c-.1-.1-.2-.3-.2-.4s0-.3.2-.4ZM604.4,85.6v6h-1v-6h1Z"/>
        <path class="cls-10" d="M611.4,88.8h-4.7c0,.7.2,1.2.6,1.6.4.3.8.5,1.3.5s.9-.1,1.2-.4.5-.6.6-1h1c0,.4-.2.8-.5,1.1-.2.3-.6.6-1,.8-.4.2-.8.3-1.3.3s-1.1-.1-1.5-.4c-.4-.2-.8-.6-1-1.1-.2-.5-.4-1-.4-1.6s.1-1.2.4-1.7c.2-.5.6-.8,1-1.1.4-.2.9-.4,1.5-.4s1.1.1,1.5.4c.4.2.8.6,1,1,.2.4.3.9.3,1.4s0,.4,0,.6ZM610.2,87.2c-.2-.3-.4-.5-.7-.7s-.6-.2-.9-.2c-.5,0-1,.2-1.4.5-.4.3-.6.8-.6,1.5h3.8c0-.4,0-.8-.2-1.1Z"/>
        <path class="cls-10" d="M616.2,86c.4.4.6.8.7,1.4h-.9c0-.4-.2-.7-.4-.9-.2-.2-.6-.3-1-.3s-.6,0-.8.3c-.2.2-.3.4-.3.7s0,.4.2.5c.1.1.3.2.5.3.2,0,.5.1.8.2.4.1.8.2,1.1.3.3.1.5.3.7.5.2.2.3.5.3.9s-.2.9-.5,1.2c-.4.3-.8.5-1.4.5s-1.3-.2-1.7-.5c-.4-.3-.7-.8-.8-1.4h.9c0,.4.2.7.5.9.3.2.6.3,1.1.3s.6,0,.8-.3.3-.4.3-.7,0-.4-.2-.6-.3-.2-.5-.3c-.2,0-.5-.1-.8-.2-.4-.1-.8-.2-1-.3-.3-.1-.5-.3-.7-.5s-.3-.5-.3-.9.2-.9.5-1.2.9-.5,1.5-.5,1.2.2,1.6.5Z"/>
      </g>
    </g>
  </g>
</svg>