<?xml version="1.0" encoding="UTF-8"?>
<svg id="Layer_2" data-name="Layer 2" xmlns="http://www.w3.org/2000/svg" viewBox="0 0 665.5 98.4">
  <defs>
    <style>
      .cls-1 {
        fill: #6d3287;
      }

      .cls-1, .cls-2, .cls-3, .cls-4, .cls-5, .cls-6, .cls-7, .cls-8, .cls-9, .cls-10, .cls-11 {
        stroke-width: 0px;
      }

      .cls-2 {
        fill: #f2af3e;
      }

      .cls-3 {
        fill: #54bded;
      }

      .cls-4 {
        fill: #263488;
      }

      .cls-5 {
        fill: #9f2d85;
      }

      .cls-6 {
        fill: #d74a2a;
      }

      .cls-7 {
        fill: #2c70b5;
      }

      .cls-8 {
        fill: #8d4b95;
      }

      .cls-9 {
        fill: #fff;
      }

      .cls-10 {
        fill: #296bb2;
      }

      .cls-11 {
        fill: #d14522;
      }
    </style>
  </defs>
  <g id="Layer_1-2" data-name="Layer 1">
    <g>
      <g>
        <rect class="cls-6" y="18.3" width="80.1" height="80.1"/>
        <path class="cls-9" d="M61.4,34.4v28.1c0,6.3-1.9,11.4-5.6,15.2-3.7,3.8-9,5.7-15.7,5.7s-12-1.9-15.8-5.7c-3.7-3.8-5.6-8.9-5.6-15.2v-28.1h11.5v27.9c0,3.2.8,5.8,2.5,7.7,1.7,2,4.1,3,7.3,3s5.6-1,7.3-3c1.7-2,2.5-4.5,2.5-7.7v-27.9h11.5Z"/>
        <rect class="cls-6" x="88.2" y="18.3" width="80.1" height="80.1"/>
        <rect class="cls-6" x="176.4" y="18.3" width="80.1" height="80.1"/>
        <rect class="cls-6" x="264.5" y="18.3" width="80.1" height="80.1"/>
        <polygon class="cls-9" points="153.8 34.3 153.8 82.4 142.4 82.4 142.4 54.2 128.3 73.5 114.2 54.2 114.2 82.4 102.8 82.4 102.8 34.3 113.6 34.3 128.3 55.6 142.9 34.3 153.8 34.3"/>
        <path class="cls-9" d="M221.8,71.3c1.3-1.3,2-3,2-5.1s-.7-3.7-2-5c-1.3-1.4-3.1-2-5.4-2s-4,.7-5.3,2c-1.4,1.3-2.1,3-2.1,5.1s.7,3.8,2,5.1c1.4,1.3,3.2,2,5.4,2s4-.7,5.4-2M230.4,54.5c3.2,3.1,4.8,7,4.8,11.7s-1.8,9.1-5.3,12.4c-3.6,3.3-8,4.9-13.4,4.9s-9.8-1.6-13.4-4.9c-3.6-3.3-5.4-7.4-5.4-12.4s1.1-6.6,3.4-10.2l13.6-21.6h12.8l-9.4,14.9c5,.4,9.1,2.1,12.2,5.2"/>
        <path class="cls-9" d="M311.8,56.6c1.3-1.4,1.9-3.1,1.9-4.9s-.6-3.5-1.8-4.9c-1.2-1.4-2.8-2.1-4.6-2.1h-11.6v14.1h11.1c2,0,3.7-.7,5-2.1M320,39.6c3.2,3.5,4.8,7.5,4.8,12s-1.6,8.6-4.8,12.1c-3.2,3.5-7.5,5.3-12.9,5.3h-11.4v13.4h-11.3v-48.1h23.1c5.1,0,9.3,1.8,12.5,5.3"/>
      </g>
      <rect class="cls-11" x="384.9" y="18.2" width="1" height="80.2"/>
      <g>
        <g>
          <rect class="cls-8" x="451.5" y="37.1" width="9.8" height="54.3"/>
          <rect class="cls-1" x="461.2" y="37.1" width="9.8" height="54.3"/>
          <rect class="cls-5" x="446.6" y="40.5" width="58.8" height="14.4" transform="translate(39.9 244.4) rotate(-30)"/>
          <rect class="cls-4" x="423.6" y="91.3" width="82.1" height="7.1"/>
          <rect class="cls-1" x="429.8" y="14.6" width="21.8" height="76.8"/>
          <rect class="cls-10" x="451.5" y="73.6" width="24.7" height="17.8"/>
          <rect class="cls-7" x="476.3" y="42.4" width="24.7" height="49"/>
          <rect class="cls-2" x="493.9" y="66.4" width="7.1" height="25"/>
          <rect class="cls-3" x="451.5" y="53.2" width="24.7" height="20.5"/>
          <rect class="cls-2" x="420.6" y="27.8" width="86.6" height="14.4" transform="translate(21.5 -108.8) rotate(13.7)"/>
          <circle class="cls-2" cx="481.8" cy="11.7" r="11.7"/>
        </g>
        <g>
          <path class="cls-4" d="M538,52v4.3h-16.7v-24.1h4.7v19.7h12Z"/>
          <path class="cls-4" d="M549,56.9c-2.8,0-5.1-.8-6.8-2.5-1.7-1.7-2.6-3.9-2.6-6.6s.8-4.8,2.5-6.6c1.7-1.7,3.9-2.6,6.6-2.6s5,.8,6.6,2.5,2.4,3.8,2.4,6.4,0,1.2-.1,1.6h-13.5c.2,1.2.7,2.1,1.5,2.9s2,1.1,3.5,1.1,3.4-.8,4.2-2.3l4.1,1.2c-.6,1.3-1.6,2.5-3,3.5s-3.2,1.5-5.3,1.5h0ZM553.2,46.2c-.1-1.1-.6-2-1.4-2.8s-1.9-1.1-3.2-1.1-2.3.4-3.1,1.1-1.3,1.7-1.5,2.7h9.2Z"/>
          <path class="cls-4" d="M568.6,56.9c-2.4,0-4.5-.9-6.1-2.6s-2.5-3.9-2.5-6.5.8-4.8,2.5-6.6c1.6-1.7,3.7-2.6,6.1-2.6s4.2.9,5.6,2.6v-2.1h4.6v17.4h-4.6v-2.1c-1.3,1.7-3.2,2.6-5.6,2.6h0ZM569.4,52.8c1.4,0,2.6-.5,3.5-1.5s1.4-2.2,1.4-3.7-.5-2.7-1.4-3.6c-1-1-2.1-1.4-3.5-1.4s-2.6.5-3.5,1.4c-.9,1-1.4,2.2-1.4,3.7s.5,2.8,1.4,3.7,2.1,1.4,3.5,1.4h0Z"/>
          <path class="cls-4" d="M587.7,41.6c1.1-2.2,3.1-3.2,5.7-2.8v4.3c-1.9-.3-3.3,0-4.3,1s-1.4,2.5-1.4,4.8v7.6h-4.5v-17.4h4.5v2.6h0Z"/>
          <path class="cls-4" d="M606.5,38.5c2.2,0,3.9.7,5.1,2.1,1.2,1.4,1.8,3.3,1.8,5.6v10.2h-4.5v-9.3c0-1.4-.3-2.4-.9-3.2s-1.5-1.2-2.8-1.2-2.3.5-3,1.4c-.8.9-1.2,2.1-1.2,3.7v8.6h-4.5v-17.4h4.5v2.2c1.4-1.8,3.3-2.7,5.6-2.7h0Z"/>
          <path class="cls-4" d="M620,36.6c-.8,0-1.4-.3-1.9-.8s-.8-1.2-.8-1.9.3-1.4.8-1.9,1.2-.8,1.9-.8,1.4.3,1.9.8.8,1.1.8,1.9-.3,1.4-.8,1.9-1.2.8-1.9.8h0ZM617.6,39h4.6v17.4h-4.6v-17.4Z"/>
          <path class="cls-4" d="M636.9,38.5c2.2,0,3.9.7,5.1,2.1,1.2,1.4,1.8,3.3,1.8,5.6v10.2h-4.5v-9.3c0-1.4-.3-2.4-.9-3.2-.6-.8-1.5-1.2-2.8-1.2s-2.3.5-3,1.4-1.2,2.1-1.2,3.7v8.6h-4.5v-17.4h4.5v2.2c1.4-1.8,3.3-2.7,5.6-2.7h0Z"/>
          <path class="cls-4" d="M665.5,39v16.8c0,2.4-.8,4.4-2.5,6-1.6,1.5-3.8,2.3-6.5,2.3-3.9,0-6.7-1.5-8.4-4.6l4-1.4c.9,1.5,2.4,2.2,4.5,2.3,1.4,0,2.4-.4,3.2-1.3s1.1-2,1.1-3.3v-2.1c-1.4,1.7-3.2,2.5-5.5,2.5s-4.5-.9-6.1-2.5c-1.6-1.7-2.4-3.8-2.4-6.3s.8-4.7,2.4-6.3c1.6-1.6,3.7-2.5,6.2-2.5s4.1.8,5.5,2.5v-2h4.5ZM656.3,52.1c1.4,0,2.5-.4,3.5-1.3.9-.9,1.4-2,1.4-3.4s-.5-2.5-1.4-3.4-2-1.3-3.4-1.3-2.6.4-3.5,1.3-1.4,2-1.4,3.4.5,2.5,1.4,3.4c.9.9,2.1,1.3,3.5,1.3h0Z"/>
          <path class="cls-4" d="M532.9,98.1c-3.6,0-6.6-1.2-9-3.6s-3.6-5.4-3.6-9,1.2-6.5,3.6-8.9,5.4-3.6,9-3.6,5.6.8,7.6,2.3c2,1.5,3.4,3.4,4,5.5l-4.6,1.1c-.4-1.3-1.3-2.3-2.5-3.2-1.3-.9-2.8-1.3-4.5-1.3s-4.2.8-5.6,2.3-2.1,3.5-2.1,5.7.7,4.2,2.2,5.8,3.3,2.4,5.6,2.4,3.3-.4,4.5-1.3,2.1-1.9,2.5-3.2l4.6,1.2c-.6,2.1-1.9,3.9-4,5.4-2,1.5-4.6,2.3-7.5,2.3h0Z"/>
          <path class="cls-4" d="M556,98.1c-2.8,0-5.1-.8-6.8-2.5-1.7-1.7-2.6-3.9-2.6-6.6s.8-4.8,2.5-6.6c1.7-1.7,3.9-2.6,6.6-2.6s5,.8,6.6,2.5c1.6,1.7,2.4,3.8,2.4,6.4s0,1.2-.1,1.6h-13.5c.2,1.2.7,2.1,1.5,2.9s2,1.1,3.5,1.1,3.4-.8,4.2-2.3l4.1,1.2c-.6,1.3-1.6,2.5-3,3.5-1.5,1-3.2,1.5-5.3,1.5h0ZM560.2,87.4c-.1-1.1-.6-2-1.4-2.8s-1.9-1.1-3.2-1.1-2.3.4-3.1,1.1c-.8.8-1.3,1.7-1.5,2.7h9.2Z"/>
          <path class="cls-4" d="M578.2,79.7c2.2,0,3.9.7,5.1,2.1s1.8,3.3,1.8,5.6v10.2h-4.5v-9.3c0-1.4-.3-2.4-.9-3.2s-1.5-1.2-2.8-1.2-2.3.5-3,1.4c-.8.9-1.2,2.1-1.2,3.7v8.6h-4.5v-17.4h4.5v2.2c1.4-1.8,3.3-2.7,5.6-2.7h0Z"/>
          <path class="cls-4" d="M600.4,97c-1.4.6-2.7.8-4.1.8-1.9,0-3.4-.6-4.3-1.6s-1.5-2.6-1.5-4.6v-7.5h-2.9v-4h2.9v-5.6h4.6v5.6h5.1v4h-5.1v7.5c0,1.5.7,2.2,2.1,2.2s1.4-.2,2.1-.5l1.1,3.7Z"/>
          <path class="cls-4" d="M611,98.1c-2.8,0-5.1-.8-6.8-2.5-1.7-1.7-2.6-3.9-2.6-6.6s.8-4.8,2.5-6.6c1.7-1.7,3.9-2.6,6.6-2.6s5,.8,6.6,2.5c1.6,1.7,2.4,3.8,2.4,6.4s0,1.2-.1,1.6h-13.5c.2,1.2.7,2.1,1.5,2.9s2,1.1,3.5,1.1,3.4-.8,4.2-2.3l4.1,1.2c-.6,1.3-1.6,2.5-3,3.5-1.5,1-3.2,1.5-5.3,1.5h0ZM615.2,87.4c-.1-1.1-.6-2-1.4-2.8s-1.9-1.1-3.2-1.1-2.3.4-3.1,1.1c-.8.8-1.3,1.7-1.5,2.7h9.2Z"/>
          <path class="cls-4" d="M627.6,82.8c1.1-2.2,3.1-3.2,5.7-2.8v4.3c-1.9-.3-3.3,0-4.3,1s-1.4,2.5-1.4,4.8v7.6h-4.5v-17.4h4.5v2.6h0Z"/>
        </g>
      </g>
    </g>
  </g>
</svg>