<?xml version="1.0" encoding="UTF-8"?>
<svg id="Layer_2" data-name="Layer 2" xmlns="http://www.w3.org/2000/svg" viewBox="0 0 686.9 80.2">
  <defs>
    <style>
      .cls-1 {
        fill: #d1451e;
      }

      .cls-1, .cls-2, .cls-3, .cls-4 {
        stroke-width: 0px;
      }

      .cls-2 {
        fill: #d74a2a;
      }

      .cls-3 {
        fill: #335090;
      }

      .cls-4 {
        fill: #fff;
      }
    </style>
  </defs>
  <g id="Layer_1-2" data-name="Layer 1">
    <g>
      <g>
        <g>
          <rect class="cls-2" y="0" width="80.1" height="80.1"/>
          <path class="cls-4" d="M61.4,16.2v28.1c0,6.3-1.9,11.4-5.6,15.2-3.7,3.8-9,5.7-15.7,5.7s-12-1.9-15.8-5.7c-3.7-3.8-5.6-8.9-5.6-15.2v-28.1h11.5v27.9c0,3.2.8,5.8,2.5,7.7,1.7,2,4.1,3,7.3,3s5.6-1,7.3-3c1.7-2,2.5-4.5,2.5-7.7v-27.9h11.5Z"/>
          <rect class="cls-2" x="88.2" y="0" width="80.1" height="80.1"/>
          <rect class="cls-2" x="176.4" y="0" width="80.1" height="80.1"/>
          <rect class="cls-2" x="264.5" y="0" width="80.1" height="80.1"/>
          <polygon class="cls-4" points="153.8 16 153.8 64.1 142.4 64.1 142.4 36 128.3 55.3 114.2 36 114.2 64.1 102.8 64.1 102.8 16 113.6 16 128.3 37.4 142.9 16 153.8 16"/>
          <path class="cls-4" d="M221.8,53.1c1.3-1.3,2-3,2-5.1s-.7-3.7-2-5c-1.3-1.4-3.1-2-5.4-2s-4,.7-5.3,2c-1.4,1.3-2.1,3-2.1,5.1s.7,3.8,2,5.1c1.4,1.3,3.2,2,5.4,2s4-.7,5.4-2M230.4,36.3c3.2,3.1,4.8,7,4.8,11.7s-1.8,9.1-5.3,12.4c-3.6,3.3-8,4.9-13.4,4.9s-9.8-1.6-13.4-4.9c-3.6-3.3-5.4-7.4-5.4-12.4s1.1-6.6,3.4-10.2l13.6-21.6h12.8l-9.4,14.9c5,.4,9.1,2.1,12.2,5.2"/>
          <path class="cls-4" d="M311.8,38.4c1.3-1.4,1.9-3.1,1.9-4.9s-.6-3.5-1.8-4.9c-1.2-1.4-2.8-2.1-4.6-2.1h-11.6v14.1h11.1c2,0,3.7-.7,5-2.1M320,21.3c3.2,3.5,4.8,7.5,4.8,12s-1.6,8.6-4.8,12.1c-3.2,3.5-7.5,5.3-12.9,5.3h-11.4v13.4h-11.3V16h23.1c5.1,0,9.3,1.8,12.5,5.3"/>
        </g>
        <rect class="cls-1" x="384.9" width="1" height="80.2"/>
      </g>
      <g>
        <path class="cls-3" d="M428.4,13h4.1v21h-4.1V13Z"/>
        <path class="cls-3" d="M444.9,18.4c1.9,0,3.3.6,4.3,1.8,1,1.2,1.5,2.8,1.5,4.9v8.9h-3.9v-8.1c0-1.2-.3-2.1-.8-2.8s-1.3-1-2.4-1-1.9.4-2.6,1.2c-.7.8-1,1.9-1,3.2v7.5h-3.9v-15.2h3.9v1.9c1.2-1.6,2.8-2.3,4.8-2.3h0Z"/>
        <path class="cls-3" d="M460.1,34.4c-1.8,0-3.3-.5-4.6-1.4s-2.2-2-2.6-3.3l3.5-1c.3.7.7,1.3,1.4,1.8s1.5.7,2.5.7,1.3-.1,1.8-.5.7-.7.7-1.1c0-.7-.5-1.2-1.6-1.5l-3.8-1.1c-2.4-.7-3.7-2.1-3.7-4s.6-2.3,1.7-3.2c1.2-.9,2.6-1.3,4.2-1.3s2.9.4,4.1,1.1c1.2.7,2,1.6,2.5,2.8l-3.4,1c-.6-1.2-1.7-1.8-3.2-1.8s-1.1.1-1.5.4-.6.6-.6,1c0,.6.4,1,1.2,1.2l3.7,1.1c1.3.4,2.4.9,3.1,1.5s1.1,1.5,1.1,2.8-.6,2.6-1.8,3.6c-1.2.9-2.7,1.4-4.6,1.4h0Z"/>
        <path class="cls-3" d="M478.6,33.5c-1.2.5-2.3.7-3.5.7-1.6,0-2.9-.5-3.7-1.4-.8-1-1.2-2.3-1.2-4v-6.5h-2.5v-3.5h2.5v-4.9h3.9v4.9h4.3v3.5h-4.3v6.5c0,1.3.6,1.9,1.8,1.9s1.2-.1,1.8-.4l.9,3.2Z"/>
        <path class="cls-3" d="M483.2,16.7c-.6,0-1.2-.2-1.6-.7-.4-.5-.7-1-.7-1.7s.2-1.2.7-1.6c.4-.4,1-.7,1.6-.7s1.2.2,1.6.7c.4.4.7,1,.7,1.6s-.2,1.2-.7,1.7c-.4.4-1,.7-1.6.7h0ZM481.2,18.9h3.9v15.2h-3.9v-15.2Z"/>
        <path class="cls-3" d="M498.4,33.5c-1.2.5-2.3.7-3.5.7-1.6,0-2.9-.5-3.7-1.4s-1.2-2.3-1.2-4v-6.5h-2.5v-3.5h2.5v-4.9h3.9v4.9h4.3v3.5h-4.3v6.5c0,1.3.6,1.9,1.8,1.9s1.2-.1,1.8-.4l.9,3.2Z"/>
        <path class="cls-3" d="M515.2,18.9v15.2h-3.9v-1.9c-1.2,1.6-2.7,2.3-4.8,2.3s-3.4-.6-4.4-1.8-1.5-2.9-1.5-5v-8.8h3.9v8.1c0,1.2.3,2.1.8,2.8.5.7,1.3,1,2.4,1s2-.4,2.6-1.2,1-1.9,1-3.3v-7.5h3.9Z"/>
        <path class="cls-3" d="M528.4,33.5c-1.2.5-2.3.7-3.5.7-1.6,0-2.9-.5-3.7-1.4-.8-1-1.2-2.3-1.2-4v-6.5h-2.5v-3.5h2.5v-4.9h3.9v4.9h4.3v3.5h-4.3v6.5c0,1.3.6,1.9,1.8,1.9s1.2-.1,1.8-.4l.9,3.2Z"/>
        <path class="cls-3" d="M537.4,34.5c-2.4,0-4.3-.7-5.8-2.2s-2.2-3.4-2.2-5.8.7-4.2,2.1-5.7c1.4-1.5,3.3-2.3,5.6-2.3s4.2.7,5.6,2.2,2.1,3.3,2.1,5.6,0,1.1,0,1.4h-11.5c.1,1,.6,1.9,1.3,2.5.7.6,1.7.9,3,.9s2.9-.7,3.6-2l3.5,1.1c-.5,1.1-1.3,2.2-2.6,3-1.2.9-2.8,1.3-4.5,1.3h0ZM541,25.2c0-1-.5-1.8-1.2-2.4s-1.6-1-2.7-1-2,.3-2.7,1c-.7.7-1.1,1.5-1.2,2.4h7.8Z"/>
        <path class="cls-3" d="M560.3,18.9h4.5v3.5h-4.5v11.7h-3.9v-11.7h-2.8v-3.5h2.8v-1.4c0-1.8.4-3.2,1.3-4.2.9-1,2.2-1.5,3.9-1.5s2.4.2,3.3.7l-.9,3.2c-.6-.3-1.2-.4-1.8-.4-.6,0-1.1.2-1.4.6-.3.4-.5,1-.5,1.7v1.4Z"/>
        <path class="cls-3" d="M573,34.5c-2.3,0-4.2-.8-5.7-2.3-1.5-1.5-2.2-3.4-2.2-5.7s.8-4.2,2.3-5.7c1.5-1.5,3.4-2.3,5.7-2.3s4.2.8,5.7,2.3c1.5,1.5,2.2,3.4,2.2,5.7s-.7,4.2-2.2,5.7c-1.5,1.5-3.4,2.3-5.7,2.3h0ZM576,29.6c.8-.8,1.2-1.9,1.2-3.2s-.4-2.3-1.2-3.2-1.8-1.2-3-1.2-2.2.4-3,1.2c-.8.8-1.2,1.9-1.2,3.2s.4,2.3,1.2,3.2c.8.8,1.8,1.2,3,1.2s2.2-.4,3-1.2Z"/>
        <path class="cls-3" d="M587.7,21.1c1-2,2.6-2.8,4.9-2.5v3.7c-1.6-.3-2.8,0-3.6.8-.8.8-1.2,2.2-1.2,4.2v6.6h-3.9v-15.2h3.9v2.2h0Z"/>
        <path class="cls-3" d="M441.7,63.5h-9.2l-1.7,4.6h-4.2l7.8-21h5.2l7.9,21h-4.2l-1.7-4.6ZM440.3,59.8l-3.3-8.9-3.3,8.9h6.6Z"/>
        <path class="cls-3" d="M464.1,46.1v21.9h-3.9v-1.9c-1.2,1.5-2.7,2.3-4.8,2.3s-3.8-.8-5.2-2.3c-1.4-1.5-2.1-3.4-2.1-5.7s.7-4.2,2.1-5.7c1.4-1.5,3.1-2.3,5.2-2.3s3.6.7,4.8,2.3v-8.6h3.9ZM456.1,64.9c1.2,0,2.2-.4,3-1.3.8-.8,1.2-1.9,1.2-3.2s-.4-2.3-1.2-3.2c-.8-.8-1.8-1.3-3-1.3s-2.2.4-3,1.2-1.2,1.9-1.2,3.2.4,2.4,1.2,3.2,1.8,1.3,3,1.3h0Z"/>
        <path class="cls-3" d="M482.7,52.9l-6.1,15.2h-4.4l-6.1-15.2h4.2l4.1,10.8,4.1-10.8h4.2Z"/>
        <path class="cls-3" d="M490.6,68.5c-2.1,0-3.8-.8-5.2-2.3s-2.1-3.4-2.1-5.7.7-4.2,2.1-5.7,3.1-2.3,5.2-2.3,3.6.7,4.8,2.3v-1.8h3.9v15.2h-3.9v-1.9c-1.1,1.5-2.7,2.3-4.8,2.3h0ZM491.3,64.9c1.2,0,2.2-.4,3-1.3s1.2-1.9,1.2-3.2-.4-2.3-1.2-3.2-1.8-1.3-3-1.3-2.2.4-3,1.2c-.8.8-1.2,1.9-1.2,3.2s.4,2.4,1.2,3.2c.8.8,1.8,1.3,3,1.3h0Z"/>
        <path class="cls-3" d="M511.7,52.4c1.9,0,3.3.6,4.3,1.8,1,1.2,1.5,2.8,1.5,4.9v8.9h-3.9v-8.1c0-1.2-.3-2.1-.8-2.8s-1.3-1-2.4-1-1.9.4-2.6,1.2c-.7.8-1,1.9-1,3.2v7.5h-3.9v-15.2h3.9v1.9c1.2-1.6,2.8-2.3,4.8-2.3h0Z"/>
        <path class="cls-3" d="M528.1,68.5c-2.3,0-4.1-.8-5.6-2.3s-2.2-3.5-2.2-5.7.7-4.2,2.2-5.7,3.4-2.3,5.6-2.3,3.5.5,4.8,1.5c1.3,1,2.1,2.2,2.4,3.4l-3.6,1.1c-.2-.7-.6-1.3-1.2-1.8-.7-.5-1.4-.7-2.4-.7s-2.2.4-2.9,1.3c-.7.9-1.1,1.9-1.1,3.2s.4,2.3,1.1,3.2c.8.9,1.7,1.3,2.9,1.3s1.7-.2,2.4-.7c.7-.5,1.1-1.1,1.3-1.7l3.6,1c-.3,1.3-1.1,2.4-2.4,3.4-1.3,1-2.9,1.5-4.8,1.5h0Z"/>
        <path class="cls-3" d="M545.2,68.5c-2.4,0-4.3-.7-5.8-2.2s-2.2-3.4-2.2-5.8.7-4.2,2.1-5.7c1.4-1.5,3.3-2.3,5.6-2.3s4.2.7,5.6,2.2,2.1,3.3,2.1,5.6,0,1.1,0,1.4h-11.5c.1,1,.6,1.9,1.3,2.5.7.6,1.7.9,3,.9s2.9-.7,3.6-2l3.5,1.1c-.5,1.1-1.3,2.2-2.6,3-1.2.9-2.8,1.3-4.5,1.3h0ZM548.8,59.2c0-1-.5-1.8-1.2-2.4s-1.6-1-2.7-1-2,.3-2.7,1c-.7.7-1.1,1.5-1.2,2.4h7.8Z"/>
        <path class="cls-3" d="M570.6,46.1v21.9h-3.9v-1.9c-1.2,1.5-2.7,2.3-4.8,2.3s-3.8-.8-5.2-2.3c-1.4-1.5-2.1-3.4-2.1-5.7s.7-4.2,2.1-5.7c1.4-1.5,3.1-2.3,5.2-2.3s3.6.7,4.8,2.3v-8.6h3.9ZM562.6,64.9c1.2,0,2.2-.4,3-1.3.8-.8,1.2-1.9,1.2-3.2s-.4-2.3-1.2-3.2c-.8-.8-1.8-1.3-3-1.3s-2.2.4-3,1.2-1.2,1.9-1.2,3.2.4,2.4,1.2,3.2,1.8,1.3,3,1.3h0Z"/>
        <path class="cls-3" d="M589.8,68.5c-2.4,0-4.4-.6-6-1.8-1.7-1.2-2.8-2.7-3.4-4.5l3.8-1.2c.4,1.2,1.2,2.1,2.2,2.8s2.3,1.1,3.7,1.1,2.1-.3,2.8-.8,1.1-1.1,1.1-1.9-.2-1-.6-1.5c-.4-.4-1.1-.8-2.1-1.1l-5.2-1.7c-1.4-.5-2.6-1.1-3.4-2.1s-1.3-2-1.2-3.3c0-1.7.7-3.1,2.1-4.2s3.2-1.8,5.3-1.8,4,.5,5.6,1.5c1.6,1,2.7,2.3,3.3,3.8l-3.7,1.1c-.4-.9-1.1-1.6-2-2.1-.9-.5-1.9-.8-3-.8s-1.8.2-2.4.7-.9,1-.9,1.6c0,.9.7,1.6,2,2l5.1,1.7c1.8.6,3.2,1.3,4.1,2.1.9.8,1.4,2.1,1.4,3.6s-.8,3.4-2.3,4.6-3.5,1.9-5.9,1.9h0Z"/>
        <path class="cls-3" d="M610.1,67.5c-1.2.5-2.3.7-3.5.7-1.6,0-2.9-.5-3.7-1.4s-1.2-2.3-1.2-4v-6.5h-2.5v-3.5h2.5v-4.9h3.9v4.9h4.3v3.5h-4.3v6.5c0,1.3.6,1.9,1.8,1.9s1.2-.1,1.8-.4l.9,3.2Z"/>
        <path class="cls-3" d="M626.9,52.9v15.2h-3.9v-1.9c-1.2,1.6-2.7,2.3-4.8,2.3s-3.4-.6-4.4-1.8c-1-1.2-1.5-2.9-1.5-5v-8.8h3.9v8.1c0,1.2.3,2.1.8,2.8s1.3,1,2.4,1,2-.4,2.6-1.2,1-1.9,1-3.3v-7.5h3.9Z"/>
        <path class="cls-3" d="M645.8,46.1v21.9h-3.9v-1.9c-1.2,1.5-2.7,2.3-4.8,2.3s-3.8-.8-5.2-2.3c-1.4-1.5-2.1-3.4-2.1-5.7s.7-4.2,2.1-5.7c1.4-1.5,3.1-2.3,5.2-2.3s3.6.7,4.8,2.3v-8.6h3.9ZM637.8,64.9c1.2,0,2.2-.4,3-1.3.8-.8,1.2-1.9,1.2-3.2s-.4-2.3-1.2-3.2c-.8-.8-1.8-1.3-3-1.3s-2.2.4-3,1.2-1.2,1.9-1.2,3.2.4,2.4,1.2,3.2,1.8,1.3,3,1.3h0Z"/>
        <path class="cls-3" d="M651.5,50.7c-.6,0-1.2-.2-1.6-.7-.4-.5-.7-1-.7-1.7s.2-1.2.7-1.6c.4-.4,1-.7,1.6-.7s1.2.2,1.6.7c.4.4.7,1,.7,1.6s-.2,1.2-.7,1.7c-.4.4-1,.7-1.6.7h0ZM649.5,52.9h3.9v15.2h-3.9v-15.2Z"/>
        <path class="cls-3" d="M664.4,68.5c-2.4,0-4.3-.7-5.8-2.2s-2.2-3.4-2.2-5.8.7-4.2,2.1-5.7c1.4-1.5,3.3-2.3,5.6-2.3s4.2.7,5.6,2.2,2.1,3.3,2.1,5.6,0,1.1,0,1.4h-11.5c.1,1,.6,1.9,1.3,2.5.7.6,1.7.9,3,.9s2.9-.7,3.6-2l3.5,1.1c-.5,1.1-1.3,2.2-2.6,3-1.2.9-2.8,1.3-4.5,1.3h0ZM667.9,59.2c0-1-.5-1.8-1.2-2.4s-1.6-1-2.7-1-2,.3-2.7,1c-.7.7-1.1,1.5-1.2,2.4h7.8Z"/>
        <path class="cls-3" d="M680.4,68.4c-1.8,0-3.3-.5-4.6-1.4s-2.2-2-2.6-3.3l3.5-1c.3.7.7,1.3,1.4,1.8s1.5.7,2.5.7,1.3-.1,1.8-.5.7-.7.7-1.1c0-.7-.5-1.2-1.6-1.5l-3.8-1.1c-2.4-.7-3.7-2.1-3.7-4s.6-2.3,1.7-3.2c1.2-.9,2.6-1.3,4.2-1.3s2.9.4,4.1,1.1c1.2.7,2,1.6,2.5,2.8l-3.4,1c-.6-1.2-1.7-1.8-3.2-1.8s-1.1.1-1.5.4-.6.6-.6,1c0,.6.4,1,1.2,1.2l3.7,1.1c1.3.4,2.4.9,3.1,1.5s1.1,1.5,1.1,2.8-.6,2.6-1.8,3.6c-1.2.9-2.7,1.4-4.6,1.4h0Z"/>
      </g>
    </g>
  </g>
</svg>