<?xml version="1.0" encoding="UTF-8"?>
<svg id="Layer_2" data-name="Layer 2" xmlns="http://www.w3.org/2000/svg" viewBox="0 0 677.1 99.9">
  <defs>
    <style>
      .cls-1 {
        fill: #d1451e;
      }

      .cls-1, .cls-2, .cls-3, .cls-4, .cls-5, .cls-6 {
        stroke-width: 0px;
      }

      .cls-2 {
        fill: #c45336;
      }

      .cls-3 {
        fill: #8aab51;
      }

      .cls-4 {
        fill: #d74a2a;
      }

      .cls-5 {
        fill: #3f6497;
      }

      .cls-6 {
        fill: #fff;
      }
    </style>
  </defs>
  <g id="Layer_1-2" data-name="Layer 1">
    <g>
      <g>
        <g>
          <rect class="cls-4" y="13.2" width="80.2" height="80.2"/>
          <path class="cls-6" d="M61.4,29.3v28.1c0,6.3-1.9,11.4-5.6,15.2-3.7,3.8-9,5.7-15.7,5.7s-12-1.9-15.8-5.7c-3.7-3.8-5.6-8.9-5.6-15.2v-28.1h11.5v27.9c0,3.2.8,5.8,2.5,7.7,1.7,2,4.1,3,7.3,3s5.6-1,7.3-3c1.7-2,2.5-4.6,2.5-7.7v-27.9h11.5Z"/>
          <rect class="cls-4" x="88.3" y="13.2" width="80.2" height="80.2"/>
          <rect class="cls-4" x="176.4" y="13.2" width="80.2" height="80.2"/>
          <rect class="cls-4" x="264.6" y="13.2" width="80.2" height="80.2"/>
          <polygon class="cls-6" points="153.9 29.2 153.9 77.3 142.5 77.3 142.5 49.1 128.3 68.4 114.2 49.1 114.2 77.3 102.8 77.3 102.8 29.2 113.6 29.2 128.4 50.6 143 29.2 153.9 29.2"/>
          <path class="cls-6" d="M221.9,66.3c1.3-1.3,2-3,2-5.1s-.7-3.7-2-5c-1.3-1.4-3.1-2-5.4-2s-4,.7-5.3,2c-1.4,1.3-2.1,3-2.1,5.1s.7,3.8,2,5.1c1.4,1.3,3.2,2,5.4,2s4-.7,5.4-2M230.5,49.4c3.2,3.1,4.8,7,4.8,11.7s-1.8,9.1-5.3,12.4-8,4.9-13.4,4.9-9.8-1.6-13.4-4.9c-3.6-3.3-5.4-7.4-5.4-12.4s1.1-6.6,3.4-10.2l13.7-21.6h12.8l-9.4,14.9c5,.4,9.1,2.1,12.2,5.2"/>
          <path class="cls-6" d="M311.9,51.5c1.3-1.4,1.9-3.1,1.9-4.9s-.6-3.5-1.8-4.9c-1.2-1.4-2.8-2.1-4.6-2.1h-11.6v14.1h11.1c2,0,3.7-.7,5-2.1M320.1,34.5c3.2,3.5,4.8,7.5,4.8,12s-1.6,8.6-4.8,12.1c-3.2,3.5-7.5,5.3-12.9,5.3h-11.4v13.4h-11.3V29.2h23.1c5.1,0,9.3,1.8,12.5,5.3"/>
        </g>
        <rect class="cls-1" x="385.1" y="13.1" width="1" height="80.2"/>
      </g>
      <g>
        <g>
          <path class="cls-5" d="M534.3,30.2c-.5-1-1.6-1.8-3.1-2.4-.3-.1-1.2-.4-2.7-.9-.4-.1-.7-.2-.9-.3-.2,0-.5-.2-.8-.3-.3-.1-.5-.3-.7-.4-.1-.1-.3-.3-.4-.5-.1-.2-.2-.4-.2-.7,0-.5.2-1,.7-1.3.5-.3,1.1-.5,1.9-.5,1.3,0,2.5.5,3.6,1.4.5.4,1,.4,1.5-.1l.6-.7c.5-.5.4-1-.2-1.5-.7-.6-1.5-1.1-2.4-1.5-.9-.4-2-.5-3.1-.5-1.8,0-3.3.5-4.4,1.4-1.2.9-1.7,2.1-1.7,3.5s.1,1.1.3,1.6c.2.5.5.9.8,1.2.3.3.7.6,1.2.9.5.3.9.5,1.3.7.4.2.9.3,1.4.5.3,0,.6.2,1.1.4.5.1.8.2,1,.3.2,0,.5.2.8.3.3.1.5.3.7.4.1.1.3.3.4.5.1.2.2.5.2.7,0,.6-.3,1.1-.8,1.4-.5.4-1.3.5-2.2.5s-1.5-.2-2.4-.5c-.8-.4-1.5-.8-2-1.4-.5-.5-1-.4-1.5.1l-.6.7c-.5.5-.4,1,.1,1.5.7.8,1.7,1.5,2.8,1.9,1.2.5,2.4.7,3.7.7s2.3-.2,3.3-.6c1-.4,1.7-1,2.3-1.7.6-.8.9-1.7.9-2.7s-.2-1.6-.5-2.3Z"/>
          <path class="cls-5" d="M554.6,25.2c-.5-1.1-1.1-2-1.9-2.8-.8-.8-1.8-1.4-2.9-1.8-1.1-.4-2.4-.7-3.6-.7s-3.3.4-4.7,1.1c-1.4.8-2.5,1.8-3.3,3.2-.8,1.3-1.2,2.8-1.2,4.5s.2,2.4.7,3.5c.5,1.1,1.1,2,1.9,2.8.8.8,1.8,1.4,2.9,1.8,1.1.4,2.4.7,3.6.7s2.5-.2,3.6-.7c1.1-.5,2.1-1.1,2.9-1.8.8-.8,1.4-1.7,1.9-2.8.5-1.1.7-2.2.7-3.5s-.2-2.4-.7-3.5ZM551,31.6c-.5.9-1.2,1.5-2,2-.9.5-1.8.7-2.8.7-1.6,0-2.9-.5-4-1.6-1.1-1.1-1.6-2.4-1.6-4s.5-3,1.6-4c1.1-1.1,2.4-1.6,4-1.6s2.9.5,4,1.6c1.1,1.1,1.6,2.4,1.6,4s-.2,2-.7,2.9Z"/>
          <path class="cls-5" d="M572.9,33.4l-.9-.8c-.5-.4-.9-.4-1.4,0-1.1,1.1-2.5,1.6-4,1.6s-2.9-.5-3.9-1.6c-1.1-1.1-1.6-2.4-1.6-4s.5-2.9,1.6-4c1.1-1.1,2.4-1.6,3.9-1.6s2.9.5,4,1.6c.5.4,1,.4,1.4,0l.9-.8c.2-.2.4-.4.4-.7,0-.3,0-.5-.3-.7-.8-.8-1.8-1.5-2.9-2-1.1-.5-2.3-.7-3.6-.7s-3.2.4-4.6,1.1c-1.4.8-2.5,1.8-3.3,3.2-.8,1.3-1.2,2.8-1.2,4.5s.2,2.4.7,3.5c.5,1.1,1.1,2,1.9,2.8.8.8,1.8,1.4,2.9,1.8,1.1.4,2.3.7,3.6.7s2.5-.2,3.6-.7c1.1-.5,2.1-1.1,2.9-2,.2-.2.3-.5.3-.7,0-.3-.1-.5-.4-.7Z"/>
          <path class="cls-5" d="M578.6,20.3h-1.5c-.3,0-.6,0-.7.3-.2.2-.3.4-.3.7v14.8c0,.3,0,.6.3.8.2.2.4.3.7.3h1.5c.3,0,.6,0,.7-.3.2-.2.2-.4.2-.8v-14.8c0-.7-.3-1-1-1Z"/>
          <path class="cls-5" d="M599.3,36.1l-7.1-15.2c-.3-.6-.7-.9-1.2-.9h-.2c-.5,0-.9.3-1.2.9l-7.2,15.2c-.1.3-.2.6,0,.7.1.2.4.3.7.3h1.9c.2,0,.3,0,.4,0,.1,0,.2-.1.3-.2s.1-.2.2-.3.1-.2.2-.4l.9-2.2h7.7l.9,2.2c0,.2.1.3.2.4,0,0,0,.1.1.3,0,.1.1.2.2.2s.1,0,.2.1c.1,0,.2,0,.3,0h2c.3,0,.6,0,.7-.3.1-.2.1-.4,0-.7ZM587.9,31.4l2.8-6.5,2.7,6.5h-5.6Z"/>
          <path class="cls-5" d="M612.6,34.5c-.2-.2-.4-.2-.8-.2h-6.4v-13c0-.7-.3-1-1-1h-1.5c-.3,0-.6,0-.7.3-.2.2-.3.4-.3.7v14.9c0,.3,0,.6.3.7.2.2.4.3.7.3h8.9c.3,0,.6,0,.8-.3.2-.2.3-.4.3-.7v-.9c0-.3,0-.6-.3-.7Z"/>
        </g>
        <g>
          <path class="cls-5" d="M524.5,43.8h-1.5c-.3,0-.6,0-.7.3s-.3.4-.3.8v14.8c0,.3,0,.6.3.8.2.2.4.3.7.3h1.5c.3,0,.6,0,.7-.3.2-.2.3-.4.3-.8v-14.8c0-.7-.3-1-1-1Z"/>
          <path class="cls-5" d="M544.2,44.1c-.2-.2-.4-.3-.7-.3h-1.5c-.7,0-1,.3-1,1v9.7l-8.4-10c-.5-.6-1-.9-1.5-.9h-.2c-.3,0-.6,0-.8.3-.2.2-.3.5-.3.8v14.9c0,.3,0,.6.3.8.2.2.4.3.7.3h1.5c.3,0,.6,0,.7-.3.2-.2.3-.4.3-.8v-9.7l8.4,10c.3.3.5.5.7.7.2.2.5.2.8.2h.2c.3,0,.6,0,.8-.3.2-.2.3-.5.3-.8v-14.9c0-.3,0-.6-.3-.8Z"/>
          <path class="cls-5" d="M563.2,44.1c-.2-.2-.4-.3-.7-.3h-1.5c-.7,0-1,.3-1,1v9.7l-8.4-10c-.5-.6-1-.9-1.5-.9h-.2c-.3,0-.6,0-.8.3-.2.2-.3.5-.3.8v14.9c0,.3,0,.6.3.8.2.2.4.3.7.3h1.5c.3,0,.6,0,.7-.3.2-.2.3-.4.3-.8v-9.7l8.4,10c.3.3.5.5.7.7.2.2.5.2.8.2h.2c.3,0,.6,0,.8-.3.2-.2.3-.5.3-.8v-14.9c0-.3,0-.6-.3-.8Z"/>
          <path class="cls-5" d="M584.3,48.8c-.5-1.1-1.1-2-1.9-2.8-.8-.8-1.8-1.4-2.9-1.8-1.1-.4-2.4-.7-3.6-.7s-3.3.4-4.7,1.1c-1.4.8-2.5,1.8-3.3,3.2s-1.2,2.8-1.2,4.5.2,2.4.7,3.5c.5,1.1,1.1,2,1.9,2.8.8.8,1.8,1.4,2.9,1.8,1.1.4,2.4.7,3.6.7s2.5-.2,3.6-.7c1.1-.5,2.1-1.1,2.9-1.8.8-.8,1.4-1.7,1.9-2.8.5-1.1.7-2.2.7-3.5s-.2-2.4-.7-3.5ZM580.7,55.1c-.5.9-1.2,1.5-2,2-.9.5-1.8.7-2.8.7-1.6,0-2.9-.5-4-1.6-1.1-1.1-1.6-2.4-1.6-4s.5-3,1.6-4c1.1-1.1,2.4-1.6,4-1.6s2.9.5,4,1.6c1.1,1,1.6,2.4,1.6,4s-.2,2-.7,2.9Z"/>
          <path class="cls-5" d="M602.5,44.1c-.2-.2-.4-.3-.8-.3h-1.5c-.6,0-1.1.3-1.4,1l-4.6,10.7-4.5-10.7c-.2-.7-.7-1-1.4-1h-1.7c-.3,0-.6,0-.8.3s-.2.4,0,.7l7,15.1c.2.4.3.6.5.7.2.1.4.2.7.2h.2c.3,0,.5,0,.7-.2.2-.1.4-.4.5-.7l7-15.1c.2-.3.1-.5,0-.7Z"/>
          <path class="cls-5" d="M618.7,59.7l-7.1-15.2c-.3-.6-.7-.9-1.2-.9h-.2c-.5,0-.9.3-1.2.9l-7.2,15.2c-.1.3-.1.6,0,.7.1.2.4.3.7.3h1.9c.2,0,.3,0,.4,0,.1,0,.2-.1.3-.2,0-.1.1-.2.2-.3,0,0,.1-.2.2-.4l.9-2.2h7.7l.9,2.2c0,.2.1.3.2.4,0,0,0,.1.1.3,0,.1.1.2.2.2,0,0,.1,0,.2.1,0,0,.2,0,.3,0h2c.4,0,.6,0,.7-.3s.1-.4,0-.7ZM607.3,55l2.8-6.5,2.7,6.5h-5.6Z"/>
          <path class="cls-5" d="M631.5,44.1c-.2-.2-.4-.3-.8-.3h-12.3c-.7,0-1,.3-1,1v.9c0,.3,0,.6.3.7.2.2.4.3.7.3h4.4v12.9c0,.3,0,.6.2.8.2.2.4.3.7.3h1.5c.3,0,.6,0,.8-.3.2-.2.3-.4.3-.8v-12.9h4.4c.3,0,.6,0,.8-.3.2-.2.3-.4.3-.7v-.9c0-.3,0-.6-.3-.7Z"/>
          <path class="cls-5" d="M636.7,43.8h-1.5c-.3,0-.6,0-.7.3s-.3.4-.3.8v14.8c0,.3,0,.6.3.8.2.2.4.3.7.3h1.5c.3,0,.6,0,.7-.3.2-.2.2-.4.2-.8v-14.8c0-.7-.3-1-1-1Z"/>
          <path class="cls-5" d="M658.5,48.8c-.5-1.1-1.1-2-1.9-2.8-.8-.8-1.8-1.4-2.9-1.8-1.1-.4-2.4-.7-3.6-.7s-3.3.4-4.7,1.1c-1.4.8-2.5,1.8-3.3,3.2-.8,1.3-1.2,2.8-1.2,4.5s.2,2.4.7,3.5c.5,1.1,1.1,2,1.9,2.8.8.8,1.8,1.4,2.9,1.8,1.1.4,2.3.7,3.6.7s2.5-.2,3.6-.7c1.1-.5,2.1-1.1,2.9-1.8.8-.8,1.5-1.7,1.9-2.8.5-1.1.7-2.2.7-3.5s-.2-2.4-.7-3.5ZM654.9,55.1c-.5.9-1.2,1.5-2,2-.9.5-1.8.7-2.8.7-1.6,0-2.9-.5-4-1.6-1.1-1.1-1.6-2.4-1.6-4s.5-3,1.6-4c1.1-1.1,2.4-1.6,4-1.6s2.9.5,4,1.6c1.1,1,1.6,2.4,1.6,4s-.2,2-.7,2.9Z"/>
          <path class="cls-5" d="M676.9,44.1c-.2-.2-.4-.3-.8-.3h-1.5c-.7,0-1,.3-1,1v9.7l-8.4-10c-.5-.6-1-.9-1.5-.9h-.2c-.3,0-.6,0-.8.3-.2.2-.3.5-.3.8v14.9c0,.3,0,.6.3.8.2.2.4.3.7.3h1.5c.3,0,.6,0,.7-.3.2-.2.3-.4.3-.8v-9.7l8.4,10c.3.3.5.5.7.7.2.2.5.2.8.2h.2c.3,0,.6,0,.8-.3.2-.2.3-.5.3-.8v-14.9c0-.3,0-.6-.3-.8Z"/>
        </g>
        <g>
          <rect class="cls-2" x="448" y="62.7" width="8.4" height="8.4"/>
          <rect class="cls-2" x="473.7" y="62.7" width="8.4" height="8.4"/>
          <circle class="cls-3" cx="490.7" cy="67" r="4.2"/>
          <circle class="cls-3" cx="439.3" cy="67" r="4.2"/>
          <polygon class="cls-3" points="465 62.7 460.2 71.2 469.9 71.2 465 62.7"/>
          <path class="cls-2" d="M461.5.8c3.3-.7,6.6-.9,10-.8,3.4.1,6.7.6,10,1.4,3.3.8,6.5,2,9.6,3.5,3.1,1.5,5.9,3.4,8.6,5.6,1.3,1.1,2.6,2.3,3.7,3.5.6.6,1.2,1.3,1.7,1.9l1.6,2c2,2.8,3.7,5.7,5.1,8.8,1.4,3.1,2.3,6.4,3,9.7.6,3.3.9,6.7.7,10-.5-3.3-1.2-6.5-2.2-9.6-1-3.1-2.2-6.1-3.7-9-1.5-2.9-3.3-5.6-5.2-8.1l-1.5-1.8c-.5-.6-1.1-1.2-1.6-1.7-1.1-1.2-2.3-2.2-3.5-3.3-1.2-1-2.5-2-3.8-2.9-1.3-.9-2.7-1.7-4.1-2.5-1.4-.8-2.9-1.5-4.3-2.1-1.5-.6-3-1.2-4.5-1.7-3.1-1-6.2-1.8-9.5-2.3-3.2-.5-6.5-.8-9.9-.8Z"/>
          <g>
            <polygon class="cls-5" points="431 21.5 431 21.5 431 21.5 431 21.5 431 21.5"/>
            <path class="cls-5" d="M512.2,45.4c-.4-4-1.4-8.1-2.9-11.9-.1-.4-.3-.7-.4-1.1,0,0,0,0,0,0,0,0,0,0,0,0-.6-1.5-1.3-3-2.1-4.4,0,0,0,0,0,0,0,0,0,0,0,0-1-1.8-2.1-3.6-3.4-5.2-.3-.4-.6-.7-.9-1.1,0,0,0,0,0,0,0,0,0,0,0,0-.5-.7-1.1-1.4-1.7-2,0,0,0,0,0,0-.6-.7-1.2-1.3-1.8-2-.4-.4-.8-.7-1.2-1.1-.2-.2-.3-.3-.5-.5-.7-.7-1.4-1.3-2.2-1.9-.1,0-.2-.2-.3-.3-3-2.4-6.3-4.4-9.7-6h0c-2.6-1.2-5.2-2.1-8-2.8h0c-1.6-.4-3.2-.7-4.8-1-4.1-.6-8.3-.7-12.4-.2-.6,0-1.2.2-1.8.2-1.2.2-2.3.4-3.4.7-2.3.5-4.6,1.2-6.8,2.1h0s0,0,0,0c-1,.4-2,.8-3,1.3-.5.2-1,.5-1.5.7-.2,0-.3.1-.4.2,0,0,0,0,0,0-.1,0-.2.1-.3.2h0s-.3.2-.3.2h-.2c0,0,0,.1,0,.1h0s0,0,0,0h0s0,0,0,0c0,0,0,0,0,0,0,0,0,0,0,0,0,0-.2,0-.2.1-.4.2-.7.4-1,.6-.1,0-.2.2-.4.2-.1,0-.2.1-.3.2,0,0-.1,0-.2.1-.1,0-.2.1-.3.2-.5.3-.9.6-1.4.9-.3.2-.5.4-.8.5-.4.3-.7.6-1.1.8-.3.2-.6.5-.9.7l-.9.7s0,0-.1,0l-.8.7s0,0,0,0h0s0,0,0,0h0c0,0-.1.2-.1.2l-.3.2-.5.5-.5.5-.5.5-.4.4-.3.3-.5.5-.2.2h0c0,0-.1.3-.1.3h0s0,0,0,0h0c0,0-.3.4-.3.4,0,0-.1.1-.2.2l-.6.7s0,0,0,0h0c-.3.5-.6.9-1,1.3l-1,1.3s0,0,0,0c-.2.3-.4.5-.6.8,0,0,0,0,0,0,0,0,0,0,0,0-.2.3-.4.7-.7,1-.6.9-1.2,1.9-1.7,2.8-.8,1.5-1.5,3-2.2,4.5,0,.2-.2.4-.3.6-.4,1.1-.8,2.2-1.1,3.3-.8,2.4-1.3,4.9-1.7,7.5-.2,1.8-.4,3.7-.4,5.5,0,.9,0,1.8,0,2.8,0,.9,0,1.8.2,2.7.1,1.5.4,3,.7,4.5,0,.3.1.7.2,1,.2,1,.5,2,.8,2.9h.1c0,.1,0,0,0,0-.2-1-.4-2-.6-3,0-.3,0-.7-.1-1-.2-1.5-.3-2.9-.4-4.4,0-.9,0-1.8,0-2.7,0-.9,0-1.8.2-2.7,0-.4,0-.8,0-1.2,0,0,0,0,0,0,.1-1.4.3-2.7.6-4.1.4-2.1.9-4.1,1.6-6.1.4-1.2.9-2.4,1.4-3.6,0-.2.2-.4.2-.6.5-1.1,1.1-2.3,1.7-3.4,0,0,0,0,0,0,0,0,0,0,0,0,.6,1.6,1.4,3.1,2.3,4.6.1.3.3.6.5.8.3.5.6,1,1,1.5,0,.1.2.3.3.4-3.2,4.1-5.8,8.6-7.6,13.3,2.3-4.5,5.1-8.6,8.3-12.4,1.9,2.5,4.1,4.7,6.5,6.6.3.3.6.5.9.7.6.5,1.3.9,1.9,1.3-3.9,4.6-7.1,9.8-9.3,15.4,2.8-5.4,6.3-10.4,10.4-14.7,4,2.3,8.3,3.8,12.8,4.2-4.2-1.1-8.1-3-11.6-5.4,1.3-1.3,2.6-2.4,3.9-3.6,2.4-2,4.9-3.8,7.6-5.5,3.3,2.8,7.1,5,11.2,6.4,4.7,1.6,9.6,2.3,14.4,1.7-8.7-.3-16.9-3.9-23.2-9.5,3.7-2,7.6-3.7,11.6-5,1-.3,2-.6,3-.9l3-.7c.4,0,.8-.2,1.2-.3,0,0,0,0,0,0,2.5,1.7,5.2,3,8,4,4.6,1.6,9.6,2.3,14.4,1.7-6.9-.2-13.5-2.5-19-6.3h0s1.6-.2,1.6-.2c2-.4,4.1-.4,6.1-.5,2-.2,4.1,0,6.1,0,5.4.3,10.9,1.3,16,3.1,0,0,0,0,0,0,.4.8.8,1.6,1.1,2.4,3.2,7.3,4.5,15.4,3.9,23.4.7-4,.8-8.1.4-12.1ZM469.8,6.6h0c.7,0,1.3.1,2,.2,2.3.3,4.7.8,6.9,1.5h0c4.5,1.4,8.8,3.4,12.7,6.1.1,0,.2.2.3.2,0,0,0,0,0,0,0,0,.1,0,.2.1,0,0,0,0,0,0,0,0,0,0,0,0-3.1-.6-6.3-1-9.5-1.2-6.1-.3-12.1.3-18,1.7,0,0,0,0,0,0-.4-.7-.7-1.5-1-2.2,0,0,0-.2-.1-.3-.4-.8-.7-1.7-1-2.5-.4-1.1-.7-2.1-.9-3.2,0-.2,0-.4-.1-.5h0c2.8-.2,5.6-.2,8.4,0ZM443,12s0,0,0,0h0c0,0,0,0,0,0h.2c0,0,.3-.3.3-.3.2-.1.5-.3.7-.4.5-.2.9-.5,1.4-.7.3-.2.7-.3,1-.5,0,0,0,0,0,0,0,0,0,0,0,0,.5-.2,1.2-.5,1.9-.8.9-.4,1.9-.7,2.8-1,0,0,.2,0,.2,0,1.1-.3,2.3-.6,3.5-.9.9-.2,1.7-.4,2.6-.5,0,0,0,0,0,0,0,0,0,.2,0,.3.3,1.4.7,2.7,1.2,4.1.3.9.7,1.8,1.1,2.8,0,0,0,0,0,.1.3.7.7,1.3,1,2,0,0,0,0,0,0-1.4.4-2.8.8-4.1,1.3-4.1,1.5-8.1,3.4-11.8,5.7-.3-.6-.5-1.2-.7-1.9-.3-.8-.5-1.6-.7-2.4-.6-2.2-.9-4.5-1-6.7,0,0,.1,0,.2-.1t0,0ZM435,17.7h0s0,0,0,0h0ZM426.6,27.2s0,0,0,0c.5-.8,1.1-1.6,1.6-2.3h0s1-1.3,1-1.3c.3-.4.6-.8,1-1.2h0c0,0,0-.1,0-.1l.6-.7h0s0,0,0,0l.3-.4h0s0-.1,0-.1l.2-.2h.1c0-.1.6-.7.6-.7l.3-.3.3-.2h0c0,0,.5-.5.5-.5l.5-.5.5-.5.3-.2h.1c0-.1,0-.1,0-.1,0,0-.1,0-.2.1h.2c0-.1,0-.2,0-.2h0s0,0,0,0h0s.7-.6.7-.6c0,0,0,0,0,0h0s0,0,0,0l.8-.7c.3-.2.6-.5.9-.7,0,0,0,0,0,0,.6-.4,1.1-.8,1.7-1.2,0,0,0,0,.2,0,.2,2.3.7,4.6,1.4,6.8.2.7.5,1.5.8,2.2.2.6.4,1.1.7,1.6,0,0,0,0,0,.1-2.5,1.7-4.9,3.6-7.1,5.7-1.7,1.6-3.4,3.3-4.9,5.1-.3-.6-.6-1.1-.9-1.7-.2-.3-.4-.7-.5-1-.9-1.9-1.7-3.8-2.3-5.8ZM443.7,42.3c-1.4,1.3-2.7,2.6-4,4-.5-.4-1.1-.8-1.6-1.3-.3-.3-.6-.5-1-.8-2.4-2.2-4.4-4.6-6.1-7.3,1.7-1.8,3.5-3.4,5.3-5,2.2-1.8,4.5-3.5,7-5.1,1.3,2.4,2.9,4.7,4.6,6.8.4.5.9,1.1,1.4,1.6.4.5.9.9,1.4,1.4-2.5,1.7-4.9,3.6-7.1,5.6ZM465.5,29.1c-4.3,1.6-8.5,3.6-12.4,6,0,0-.1-.1-.2-.2-.4-.4-.8-.9-1.2-1.3-.5-.6-1-1.2-1.4-1.7-1.6-2.1-3-4.3-4.1-6.6,3.8-2.1,7.7-3.8,11.8-5.2,1-.3,2-.6,3-.9l1.8-.4c1,1.5,2.1,3,3.2,4.3.7.8,1.4,1.6,2.2,2.3.3.3.5.5.8.8.5.5,1,.9,1.6,1.4-1.7.4-3.3,1-5,1.5ZM473.6,26.8h0c-.9-.7-1.7-1.5-2.5-2.3,0,0-.2-.2-.3-.2-.7-.7-1.3-1.4-1.9-2.2-1.1-1.3-2.1-2.7-2.9-4.1.3,0,.6-.1,1-.2l3.1-.4c2-.4,4.1-.4,6.1-.5,2-.2,4.1,0,6.1,0,5.4.3,10.8,1.4,16,3.1h0s0,0,0,0c2.2,2.2,4.1,4.6,5.9,7.2-4.3-1.2-8.8-1.9-13.2-2.1-5.8-.3-11.7.3-17.3,1.5Z"/>
            <path class="cls-5" d="M509.1,68.6h-.1c0,0-6.2,4.3-6.2,4.3l4.4-.6c-1.1,1.9-2.1,3.5-3,4.7-1.3,1.8-2.4,3.1-3,3.8,0,.1-.2.2-.3.3l-3.9-4.9h0c-.6-.8-1.3-1.6-1.9-2.5h-9.1l-1.9,2.3c-.6-.8-1.2-1.5-1.8-2.3h-9.1l-1.9,2.3s0,0,0,0c-.6-.8-1.2-1.5-1.8-2.3h-9.1l-1.9,2.3h0s0,0,0,0c-.6-.8-1.2-1.5-1.8-2.3h-9.1c-.6.8-1.3,1.5-1.9,2.3-.6-.8-1.2-1.5-1.8-2.3h-9.1l-5.8,6.8c-1.2-1.4-2.4-2.9-3.4-4.5-1.6-2.4-3-4.9-4.2-7.5.9,2.7,2,5.4,3.5,8,1.4,2.5,3.1,4.9,5,7.2l.7.8c.2.3.5.5.8.8l1.4,1.4h0c0,0,0,.2,0,.2.5.5,1.1,1,1.6,1.5l1.7,1.4c2.3,1.8,4.8,3.5,7.4,4.8.6.3,1.2.6,1.8.9,0,0,.2,0,.3.1,2.3,1.1,4.8,2,7.3,2.6,1.8.5,3.6.8,5.4,1.1,0,0,.2,0,.2,0,2.3.3,4.7.5,7.1.5,2,0,4-.2,6-.5,0,0,.2,0,.2,0,0,0,.2,0,.2,0,0,0,0,0,.1,0,.2,0,.4,0,.6,0,1.2-.2,2.5-.5,3.7-.8.2,0,.5-.1.7-.2,1.8-.5,3.5-1.1,5.2-1.7.4-.1.7-.3,1.1-.4.4-.2.7-.3,1.1-.5.2,0,.4-.2.6-.3.5-.2,1-.5,1.5-.7h.2c5-2.8,8.6-5.8,10.7-7.8,0,0,.1-.1.2-.2.5-.5,1-1,1.2-1.3,4.3-4.6,6.9-9.3,8.5-13h0c0,0,2.5,3.7,2.5,3.7l-1-7.4v-.2Z"/>
          </g>
        </g>
        <g>
          <path class="cls-3" d="M532.7,81.4c-.2-.2-.4-.2-.8-.2h-6.4v-13c0-.7-.3-1-1-1h-1.5c-.3,0-.6,0-.7.3-.2.2-.3.4-.3.8v14.9c0,.3,0,.6.3.7s.4.3.7.3h8.9c.3,0,.6,0,.8-.3.2-.2.3-.4.3-.7v-.9c0-.3,0-.6-.3-.7Z"/>
          <path class="cls-3" d="M551,83l-7.1-15.2c-.3-.6-.7-.9-1.3-.9h-.2c-.5,0-.9.3-1.2.9l-7.2,15.2c-.1.3-.2.6,0,.7.1.2.4.3.7.3h1.9c.2,0,.3,0,.4,0,.1,0,.2-.1.3-.2,0-.1.1-.2.2-.3,0,0,.1-.2.2-.4l.9-2.2h7.7l.9,2.2c0,.2.1.3.2.4,0,0,0,.1.1.3s.1.2.2.2c0,0,.1,0,.2.1.1,0,.2,0,.3,0h2c.3,0,.6,0,.7-.3.1-.2.1-.4,0-.7ZM539.7,78.3l2.8-6.5,2.7,6.5h-5.6Z"/>
          <path class="cls-3" d="M566.1,76.7c-.6-.7-1.4-1.3-2.3-1.6.7-.4,1.2-.8,1.6-1.4.4-.6.6-1.3.6-2.1,0-1.4-.5-2.5-1.5-3.3-1-.8-2.4-1.2-4.2-1.2h-5.7c-.3,0-.6,0-.8.3-.2.2-.3.4-.3.8v14.8c0,.3,0,.6.3.8.2.2.4.3.8.3h6.2c1.9,0,3.4-.4,4.5-1.3,1.1-.9,1.7-2,1.7-3.4s-.3-1.9-.9-2.6ZM557.2,69.8h2.8c.8,0,1.5.2,1.9.6.5.4.7.9.7,1.6s-.2,1.2-.7,1.6c-.5.4-1.1.6-1.9.6h-2.8v-4.4ZM562.7,80.7c-.5.4-1.3.6-2.3.6h-3.3v-4.8h3.5c.9,0,1.6.2,2.1.7.5.4.8,1,.8,1.8s-.3,1.4-.8,1.8Z"/>
        </g>
      </g>
    </g>
  </g>
</svg>