<?xml version="1.0" standalone="no"?>
<!DOCTYPE svg PUBLIC "-//W3C//DTD SVG 20010904//EN"
 "http://www.w3.org/TR/2001/REC-SVG-20010904/DTD/svg10.dtd">
<svg version="1.0" xmlns="http://www.w3.org/2000/svg"
 width="146.000000pt" height="148.000000pt" viewBox="0 0 146.000000 148.000000"
 preserveAspectRatio="xMidYMid meet">

<g transform="translate(0.000000,148.000000) scale(0.100000,-0.100000)"
fill="#000000" stroke="none">
<path d="M130 740 l0 -610 615 0 615 0 0 610 0 610 -615 0 -615 0 0 -610z
m948 103 c-3 -266 -4 -280 -26 -324 -31 -64 -86 -117 -151 -148 -47 -21 -71
-25 -146 -26 -49 0 -111 6 -136 13 -75 22 -139 78 -178 155 l-35 68 0 262 -1
262 98 3 97 3 0 -241 c0 -223 1 -244 21 -281 45 -88 189 -95 241 -11 22 35 23
47 26 284 l3 247 37 4 c20 2 63 4 95 5 l58 2 -3 -277z"/>
</g>
</svg>
